<?xml version="1.0" encoding="UTF-8"?>
<svg xmlns="http://www.w3.org/2000/svg" version="1.1" viewBox="0 0 700 700">
  <defs>
    <style>
      .cls-1 {
        fill: #602d07;
      }

      .cls-2 {
        fill: none;
      }

      .cls-3 {
        fill: #33404d;
        stroke: #000;
        stroke-miterlimit: 10;
      }

      .cls-4 {
        isolation: isolate;
        opacity: .5;
      }

      .cls-4, .cls-5 {
        fill: #f4f4f4;
      }

      .cls-6 {
        display: none;
      }

      .cls-7 {
        fill: #e1e4e5;
      }
    </style>
  </defs>
  <!-- Generator: Adobe Illustrator 28.7.2, SVG Export Plug-In . SVG Version: 1.2.0 Build 154)  -->
  <g>
    <g id="Layer_2" class="cls-6">
      <rect class="cls-3" x="-.6" y="-5" width="707.8" height="707.8"/>
    </g>
    <g id="Layer_3" class="cls-6">
      <path class="cls-5" d="M138.6,92.3c.8-2.1,3.7-2.1,4.4,0l2.5,6.3c.2.6.8,1.1,1.3,1.3l6.3,2.5c2.1.8,2.1,3.7,0,4.4l-6.3,2.5c-.6.2-1.1.8-1.3,1.3l-2.5,6.3c-.8,2.1-3.7,2.1-4.4,0l-2.5-6.3c-.2-.6-.8-1.1-1.3-1.3l-6.3-2.5c-2.1-.8-2.1-3.7,0-4.4l6.3-2.5c.6-.2,1.1-.8,1.3-1.3l2.5-6.3Z"/>
      <path class="cls-4" d="M153.3,40.3c.4-1.1,1.9-1.1,2.5,0l1.9,4.9c.1.3.4.6.8.8l4.9,1.9c1.1.4,1.1,1.9,0,2.5l-4.9,1.9c-.3,0-.6.4-.8.8l-1.9,4.9c-.4,1.1-1.9,1.1-2.5,0l-1.9-4.9c-.1-.3-.4-.6-.8-.8l-4.9-1.9c-1.1-.4-1.1-1.9,0-2.5l4.9-1.9c.3,0,.6-.4.8-.8l1.9-4.9Z"/>
      <path class="cls-5" d="M333.8,66.3c.8-2.1,3.7-2.1,4.4,0l2.5,6.3c.2.6.8,1.1,1.3,1.3l6.3,2.5c2.1.8,2.1,3.7,0,4.4l-6.3,2.5c-.6.2-1.1.8-1.3,1.3l-2.5,6.3c-.8,2.1-3.7,2.1-4.4,0l-2.5-6.3c-.2-.6-.8-1.1-1.3-1.3l-6.3-2.5c-2.1-.8-2.1-3.7,0-4.4l6.3-2.5c.6-.2,1.1-.8,1.3-1.3l2.5-6.3Z"/>
      <path class="cls-5" d="M528.1,132.1c.8-2.1,3.7-2.1,4.4,0l2.5,6.3c.2.6.8,1.1,1.3,1.3l6.3,2.5c2.1.8,2.1,3.7,0,4.4l-6.3,2.5c-.6.2-1.1.8-1.3,1.3l-2.5,6.3c-.8,2.1-3.7,2.1-4.4,0l-2.5-6.3c-.2-.6-.8-1.1-1.3-1.3l-6.3-2.5c-2.1-.8-2.1-3.7,0-4.4l6.3-2.5c.6-.2,1.1-.8,1.3-1.3l2.5-6.3Z"/>
      <path class="cls-5" d="M620,210.1c.8-2.1,3.7-2.1,4.4,0l2.5,6.3c.2.6.8,1.1,1.3,1.3l6.3,2.5c2.1.8,2.1,3.7,0,4.4l-6.3,2.5c-.6.2-1.1.8-1.3,1.3l-2.5,6.3c-.8,2.1-3.7,2.1-4.4,0l-2.5-6.3c-.2-.6-.8-1.1-1.3-1.3l-6.3-2.5c-2.1-.8-2.1-3.7,0-4.4l6.3-2.5c.6-.2,1.1-.8,1.3-1.3l2.5-6.3Z"/>
      <path class="cls-5" d="M656.6,78.2c.8-2.1,3.7-2.1,4.4,0l2.5,6.3c.2.6.8,1.1,1.3,1.3l6.3,2.5c2.1.8,2.1,3.7,0,4.4l-6.3,2.5c-.6.2-1.1.8-1.3,1.3l-2.5,6.3c-.8,2.1-3.7,2.1-4.4,0l-2.5-6.3c-.2-.6-.8-1.1-1.3-1.3l-6.3-2.5c-2.1-.8-2.1-3.7,0-4.4l6.3-2.5c.6-.2,1.1-.8,1.3-1.3l2.5-6.3Z"/>
      <path class="cls-5" d="M440.7,223.9c.8-2.1,3.7-2.1,4.4,0l2.5,6.3c.2.6.8,1.1,1.3,1.3l6.3,2.5c2.1.8,2.1,3.7,0,4.4l-6.3,2.5c-.6.2-1.1.8-1.3,1.3l-2.5,6.3c-.8,2.1-3.7,2.1-4.4,0l-2.5-6.3c-.2-.6-.8-1.1-1.3-1.3l-6.3-2.5c-2.1-.8-2.1-3.7,0-4.4l6.3-2.5c.6-.2,1.1-.8,1.3-1.3l2.5-6.3Z"/>
      <path class="cls-5" d="M377,223.9c.8-2.1,3.7-2.1,4.4,0l2.5,6.3c.2.6.8,1.1,1.3,1.3l6.3,2.5c2.1.8,2.1,3.7,0,4.4l-6.3,2.5c-.6.2-1.1.8-1.3,1.3l-2.5,6.3c-.8,2.1-3.7,2.1-4.4,0l-2.5-6.3c-.2-.6-.8-1.1-1.3-1.3l-6.3-2.5c-2.1-.8-2.1-3.7,0-4.4l6.3-2.5c.6-.2,1.1-.8,1.3-1.3l2.5-6.3Z"/>
      <path class="cls-5" d="M248.5,33.5c.8-2.1,3.7-2.1,4.4,0l2.5,6.3c.2.6.8,1.1,1.3,1.3l6.3,2.5c2.1.8,2.1,3.7,0,4.4l-6.3,2.5c-.6.2-1.1.8-1.3,1.3l-2.5,6.3c-.8,2.1-3.7,2.1-4.4,0l-2.5-6.3c-.2-.6-.8-1.1-1.3-1.3l-6.3-2.5c-2.1-.8-2.1-3.7,0-4.4l6.3-2.5c.6-.2,1.1-.8,1.3-1.3l2.5-6.3Z"/>
      <path class="cls-5" d="M217.1,101.5c.8-2.1,3.7-2.1,4.4,0l2.5,6.3c.2.6.8,1.1,1.3,1.3l6.3,2.5c2.1.8,2.1,3.7,0,4.4l-6.3,2.5c-.6.2-1.1.8-1.3,1.3l-2.5,6.3c-.8,2.1-3.7,2.1-4.4,0l-2.5-6.3c-.2-.6-.8-1.1-1.3-1.3l-6.3-2.5c-2.1-.8-2.1-3.7,0-4.4l6.3-2.5c.6-.2,1.1-.8,1.3-1.3l2.5-6.3Z"/>
      <path class="cls-5" d="M31.5,220.3c.8-2.1,3.7-2.1,4.4,0l2.5,6.3c.2.6.8,1.1,1.3,1.3l6.3,2.5c2.1.8,2.1,3.7,0,4.4l-6.3,2.5c-.6.2-1.1.8-1.3,1.3l-2.5,6.3c-.8,2.1-3.7,2.1-4.4,0l-2.5-6.3c-.2-.6-.8-1.1-1.3-1.3l-6.3-2.5c-2.1-.8-2.1-3.7,0-4.4l6.3-2.5c.6-.2,1.1-.8,1.3-1.3,0,0,2.5-6.3,2.5-6.3Z"/>
      <path class="cls-4" d="M407.1,173.5c.4-1.1,1.9-1.1,2.5,0l1.9,4.9c.1.3.4.6.8.8l4.9,1.9c1.1.4,1.1,1.9,0,2.5l-4.9,1.9c-.3.1-.6.4-.8.8l-1.9,4.9c-.4,1.1-1.9,1.1-2.5,0l-1.9-4.9c-.1-.3-.4-.6-.8-.8l-4.9-1.9c-1.1-.4-1.1-1.9,0-2.5l4.9-1.9c.3-.1.6-.4.8-.8l1.9-4.9Z"/>
      <path class="cls-4" d="M130.8,124.3c.4-1.1,1.9-1.1,2.5,0l1.9,4.9c.1.3.4.6.8.8l4.9,1.9c1.1.4,1.1,1.9,0,2.5l-4.9,1.9c-.3,0-.6.4-.8.8l-1.9,4.9c-.4,1.1-1.9,1.1-2.5,0l-1.9-4.9c0-.3-.4-.6-.8-.8l-4.9-1.9c-1.1-.4-1.1-1.9,0-2.5l4.9-1.9c.3,0,.6-.4.8-.8,0,0,1.9-4.9,1.9-4.9Z"/>
      <path class="cls-4" d="M177.1,203.7c.4-1.1,1.9-1.1,2.5,0l1.9,4.9c.1.3.4.6.8.8l4.9,1.9c1.1.4,1.1,1.9,0,2.5l-4.9,1.9c-.3.1-.6.4-.8.8l-1.9,4.9c-.4,1.1-1.9,1.1-2.5,0l-1.9-4.9c-.1-.3-.4-.6-.8-.8l-4.9-1.9c-1.1-.4-1.1-1.9,0-2.5l4.9-1.9c.3-.1.6-.4.8-.8l1.9-4.9Z"/>
      <path class="cls-4" d="M99.4,174.2c.4-1.1,1.9-1.1,2.5,0l1.9,4.9c0,.3.4.6.8.8l4.9,1.9c1.1.4,1.1,1.9,0,2.5l-4.9,1.9c-.3.1-.6.4-.8.8l-1.9,4.9c-.4,1.1-1.9,1.1-2.5,0l-1.9-4.9c0-.3-.4-.6-.8-.8l-4.9-1.9c-1.1-.4-1.1-1.9,0-2.5l4.9-1.9c.3-.1.6-.4.8-.8l1.9-4.9Z"/>
      <path class="cls-4" d="M630.6,149.7c.4-1.1,1.9-1.1,2.5,0l1.9,4.9c0,.3.4.6.8.8l4.9,1.9c1.1.4,1.1,1.9,0,2.5l-4.9,1.9c-.3.1-.6.4-.8.8l-1.9,4.9c-.4,1.1-1.9,1.1-2.5,0l-1.9-4.9c0-.3-.4-.6-.8-.8l-4.9-1.9c-1.1-.4-1.1-1.9,0-2.5l4.9-1.9c.3-.1.6-.4.8-.8l1.9-4.9Z"/>
      <path class="cls-4" d="M451.4,61.2c.4-1.1,1.9-1.1,2.5,0l1.9,4.9c.1.3.4.6.8.8l4.9,1.9c1.1.4,1.1,1.9,0,2.5l-4.9,1.9c-.3,0-.6.4-.8.8l-1.9,4.9c-.4,1.1-1.9,1.1-2.5,0l-1.9-4.9c-.1-.3-.4-.6-.8-.8l-4.9-1.9c-1.1-.4-1.1-1.9,0-2.5l4.9-1.9c.3,0,.6-.4.8-.8,0,0,1.9-4.9,1.9-4.9Z"/>
      <path class="cls-4" d="M559.3,35.3c.4-1.1,1.9-1.1,2.5,0l1.9,4.9c0,.3.4.6.8.8l4.9,1.9c1.1.4,1.1,1.9,0,2.5l-4.9,1.9c-.3,0-.6.4-.8.8l-1.9,4.9c-.4,1.1-1.9,1.1-2.5,0l-1.9-4.9c0-.3-.4-.6-.8-.8l-4.9-1.9c-1.1-.4-1.1-1.9,0-2.5l4.9-1.9c.3-.1.6-.4.8-.8,0,0,1.9-4.9,1.9-4.9Z"/>
      <path class="cls-4" d="M28.3,134c.4-1.1,1.9-1.1,2.5,0l1.9,4.9c.1.3.4.6.8.8l4.9,1.9c1.1.4,1.1,1.9,0,2.5l-4.9,1.9c-.3.1-.6.4-.8.8l-1.9,4.9c-.4,1.1-1.9,1.1-2.5,0l-1.9-4.9c-.1-.3-.4-.6-.8-.8l-4.9-1.9c-1.1-.4-1.1-1.9,0-2.5l4.9-1.9c.3-.1.6-.4.8-.8l1.9-4.9Z"/>
      <path class="cls-4" d="M443,114c.4-1.1,1.9-1.1,2.5,0l1.9,4.9c.1.3.4.6.8.8l4.9,1.9c1.1.4,1.1,1.9,0,2.5l-4.9,1.9c-.3,0-.6.4-.8.8l-1.9,4.9c-.4,1.1-1.9,1.1-2.5,0l-1.9-4.9c-.1-.3-.4-.6-.8-.8l-4.9-1.9c-1.1-.4-1.1-1.9,0-2.5l4.9-1.9c.3,0,.6-.4.8-.8l1.9-4.9Z"/>
      <path class="cls-4" d="M340.5,123.7c.4-1.1,1.9-1.1,2.5,0l1.9,4.9c.1.3.4.6.8.8l4.9,1.9c1.1.4,1.1,1.9,0,2.5l-4.9,1.9c-.3,0-.6.4-.8.8l-1.9,4.9c-.4,1.1-1.9,1.1-2.5,0l-1.9-4.9c-.1-.3-.4-.6-.8-.8l-4.9-1.9c-1.1-.4-1.1-1.9,0-2.5l4.9-1.9c.3,0,.6-.4.8-.8l1.9-4.9Z"/>
      <g id="SVGRepo_iconCarrier">
        <path class="cls-5" d="M36,80.6c17.9,0,32.4-14.5,32.4-32.4s-2.2-1.7-3-.5c-3.7,6.1-10.4,10.2-18,10.2-11.6,0-21.1-9.4-21.1-21.1s4.1-14.4,10.2-18c1.3-.8,1-3-.5-3-17.9,0-32.4,14.5-32.4,32.4s14.5,32.4,32.4,32.4Z"/>
      </g>
    </g>
    <g id="Layer_1">
      <g id="Layer_1-2" data-name="Layer_1">
        <g>
          <path class="cls-7" d="M482.2,679.4c0-.2.2-.5.3-.7,2.7-6.4,6.1-11.6,8.2-17.5,3-8.5,1.4-15-5.7-20.6-8.3-6.6-16.1-13.8-24.2-20.6-3.3-2.8-4.5-5.3-.3-8.2,3.2-2.2,3.6-4.8,2.4-8.5-4.1-11.9-7.6-23.9-11.5-35.9-.8-2.5-1.3-4.7,1.7-5.7,2.6-.9,3.7-2.2,4.2-3.9l-15.5-82.6h0c0-.3-.1-.6-.2-.9-1.6-7.8-3.3-15.5-5.3-23.2-4-15.2-8.8-30.1-14.8-44.7-2-4.8-.6-6.5,3.9-6,16.7,1.6,33.3.8,49.8-2.7,5.2-1.1,10.3-3.1,16.1-3.2.5,5.8-2.8,10.7-2.2,16.3,3.2,0,5.8-1.2,8.3-2.2,41.3-17.9,73.9-45.4,94.7-85.8,13.6-26.6,18.8-55,16-84.6-3.3-34.9-17.4-65.2-41.1-91-1.7-1.8-2.3-3.5-1.7-6.2,1.4-6.1,2.5-12.3,2.4-18.6-.5-22.8-7.9-43.4-20.8-62.1-1-1.4-1.8-3.3-4.4-3-5.2,18.6-8.1,37.5-7.1,58.4-28.7-34.9-62.2-60.8-103.9-75.2,6.5,15.3,16.3,28.5,24.8,42.7-58.1-12.6-114.6-5-170.6,10.5,23.1,8.9,45.7,19.6,71.5,11.4-.8,1.4-1.6,2.3-2.6,2.9-15.6,10.5-29.4,23.1-43.2,35.6-11.3,10.2-21.9,21.1-34,30.5-7.7,6-15.5,12-25.4,16.8,21.5-31.7,45.2-59.8,76.3-80.9-3.1-1.2-5.1.2-7.2,1.1-13.2,5.5-24.4,13.8-34.4,23.9-1.7,1.7-2.8,2.8-3.8,3l-18.2,19.6c0,1.1-.6,2.2-1.8,3.5-11.2,12-20.5,25.5-30.6,38.4-.7.9-1.6,1.8-.9,3.5,12,1.3,24.1,1.7,36.3.6,6.9-.7,7.7.5,5.4,7-8.6,24-10,48.6-4.2,73.2,9.4,40.5,34.7,69.2,70.2,89.3,9.4,5.3,24.7,21.5,25.2,22.2,5.3,6.7,5.4,6.7,1.2,14-15.7,27.5-25,3.2-27.6,1-7.4-6.1-20.9-16.8-35.1-6.2-4.9,3.7-10,9.9-14.9,19.9-.3.6-.5,1.1-.8,1.7-6.2,13.2.2,30.6,16.6,34.7,7.4,1.8,11.5,1.6,24.5,13,3.1,2.7,4.5,3.6,2.8,7.2-8,17.2-15,34.9-21.8,52.7-7.6,19.9-14.5,40.1-20.8,60.5-.9,2.9-2.2,6.3,1.3,8.5s3.1,4.8,1.5,8c-4.1,7.9-8.4,15.8-12,24-1.9,4.3-3.8,5.2-7.8,2.7-5.3-3.3-11.2-4.7-17.5-4.3-11.1.6-17.3,9.5-13.7,20.1,1.1,3.1,2.7,6,4.9,8.6,4.3,5.1,9.2,9.5,14.3,13.7,1.2,1,3,1.6,3.4,3.5v.3c-1.6,1-3.3.6-4.9.7-15.4.2-30.7.4-46.1.6-26.8.4-53.5.7-80.3,1.2-25.4.5-50.8,1.3-76.3,1.9-16.9.4-33.8.7-50.8,1-2,0-3.9-.2-5,2.1.6.4,1,.9,1.4.9,15.3,0,30.6,1,45.9,1.8,23.5,1.2,47.1,1.4,70.6,2.2,18.1.7,36.3,1.7,54.8,2.5,6.7.5,13,.8,19.2.9,20,.4,40,1.9,60,2.5,26.2.8,52.4,1.2,78.6,2,23.6.7,47.3.4,70.9.6,25.6.2,51.2-.2,76.8-1.1,15.2-.5,30.5-1.1,45.7-1.7,8.3-.3,16.6-.7,25-1.3,12.6-1,25.5,0,38.1-1.4,17.9-1.8,35.8-1.5,53.7-3,16.8-1.4,33.8-1.9,50.7-3,2.8-.2,6.2-.7,8.7-3.5-72.3-5-144.7-4.2-217.8-5.7l.5.3ZM323.4,417.6c-2.8,4.4-3.7,7.2-7.4,10.5-.5.4-.9.9-1.3,1.4-3.9,4.7-6.9,5.5-10.9,7.6-3.3,1.8-7.2-.6-7.2-4.3v-2c.4-13.2,8.9-23.8,20.9-23.6,6.5,0,9.3,4.8,5.9,10.3h0ZM428.3,285.7c6.2,3.7,7.3,7.1,5.4,13.8-2.4,8.6-7.8,15.5-12.9,22.4-1.8,2.4-3.5,2.5-5.9,1.4,5-12.7,9.4-25,13.4-37.6h0ZM360.9,313.1c-5.3,4.5-10.7,8.5-16.4,12.3-10.2,6-20.1,10.3-31.5,9.9-2.9,0-4.9-1.5-6.8-3.5-17.6-18.6-27.2-40.7-29.4-66.1-1.7-20.4.8-40.2,8.5-59.2,1.3-3.1,2.8-4.7,6.2-5.3,21.1-3.7,41.5-9.7,61-18.7,1.7-.8,3.5-1.6,5.2-.3s.3,3.1,0,4.6c-7,34.5-.7,66,21.6,93.8,3,3.7,3.3,6.8.8,10.6-5.4,8.2-11.4,15.6-19,22h-.2ZM305.5,572.7c3.5-10,6.9-20,10.5-29.9,10.5-28.9,22.1-57.4,34.5-85.5,7-15.7,15.4-30.8,23.7-45.8.7-1.3,1.6-2.4,2.9-4.2,4.8,4.8,8.8,9.7,11.7,15.5.6,1.2,0,2.2-.6,3.2-6.6,11.9-13.3,23.8-19.8,35.8-3.8,7.1-6.8,14.8-10.9,21.7-4.8,8-8.4,16.5-12.6,24.7-7.8,15.1-14.7,30.7-21.1,46.5-1,2.4-3.5,4.1-3,7.1-2,5.3-3.8,10-5.8,14.5-.8,1.8-1.3,4.9-4.3,3.2-2.6-1.4-6.9-2-5.2-6.9h0ZM302.4,584.4c2.2-.3,3.4,1.6,5.2,2.4,4.5,3.8,4.3,6.6-.1,13.8-9-2.1-9.8-4.7-5-16.2h-.1ZM251.6,651.6c-3.7-6.4-2.1-9.3,4.5-9.2,6.1,0,11.1,2.7,16,5.9,2,1.3,3.7,3.3,6.8,3.9,8.6-12.5,14.7-26.6,22.1-40.5,3.7,2.4,6.8,4.5,9.9,6.5,2.7,1.8,1.2,4,.3,5.6-4.3,8-8.7,15.9-13.2,23.8-1.2,2.1-2.8,4-4,6.2-5.4,9.6-14,10.8-23.5,8.6-7.2-1.7-14.1-4.6-18.9-10.8h0ZM436.4,679.6c-36.4,0-72.7,0-109.1,0s-10.2-.5-15.7-.7v-.2c1-3,3-4.9,4.7-6.9,9.3-10.3,17.7-21.4,25.9-32.6,2.9-3.9,5.4-5.1,10.3-3.6,15.7,5,31.8,7.4,48.3,5,4.3-.6,8,.2,11.5,3.1,3.3,2.8,7.1,4.8,10.6,7.2,7.7,4.3,14.6,8.5,21.8,12.3,3.2,1.7,4.4,3.7,3,7.1v.5c-1.4,4.5-1.8,6.8-2.6,7.9-1.1,1.5-2.8.9-8.8.9h.1Z"/>
          <path d="M180.5,486.5c-8.7-6.3-17.5-12.5-26.3-18.7-8.9-6.3-12.1-14.8-9.7-25.4,1.6-7.1,1.4-7.3-4.5-7.5-3.5-5.8-10.2-6.2-13.6-10.4,0-.3,0-.7.2-.9,12.1-16.3,9.4-29.7-8-39.8-2-1.2-2.6-2.7-2.6-4.9,0-21.8,0-43.6,0-65.5v-139.6l-9.7-14.1c0,.4.2.8.2,1.2,0,5,.9,9.9.7,14.9-.9,19.8.2,39.6,0,59.4-.3,47.3,0,94.6.2,141.9,0,3.9-1.4,5.8-4.9,7.4-14,6.6-17.9,23.1-8.8,35.6,1,1.4,2.7,2.5,2.9,4.5-3.4,2.9-7.9,4.2-10.9,7.6,0,.5.2,1,.3,1.4h49.7c-1.9,2.3-3.3,1.7-4.5,1.7-16.2,0-32.4.1-48.7,0-4.3,0-5.7,1.3-4.6,5.6,1.6,6,3,12.1,4.4,17.5-15.7,10.9-31.7,20.4-46,33,3.9,2.9,7.5,1.8,10.8,1.8s5.7,1.5,5.7,5.8c0,23.7,0,47.3,0,71v40.2c0,8,2.4,10.3,10.4,10.4h13.4c2.7,0,3.9,1.1,3.9,3.9,0,4,.2,8,0,11.9-.3,4.5,1.3,6.1,5.9,6.1,16.2-.2,32.4,0,48.7,0s7,0,7.5-7.4c.3-4.5-2.3-10.3,1.2-13.3,3.3-2.9,8.9-.9,13.5-1,9.9-.2,12.3-2.4,12.3-12.2v-114.6c5.7-1.1,11.5.4,17.5-1.2-1.4-3.3-4.1-4.6-6.4-6.3h-.1ZM124.3,411c-3.1,8.6-10.5,12.3-18.1,9-10.9-8.6-10.9-22.1-.4-27.8,1.9,2.1,1.5,6.8,6.3,6.2,3.3-.4,3.2-3.3,4.3-5.3,6.9,2,10.7,10.6,8,18h-.1ZM67.5,538.6v10.9c0,2.4-1.4,3.1-3.5,3.1s-2.7-1.4-2.7-3.3v-21.8c4.7-1.3,6.6,0,6.3,4.6-.2,2.1,0,4.3,0,6.4h0ZM64.5,518.9c-2.4,0-3.2-1.1-3.2-3.3v-7.9c0-4.5,1.3-5.1,5.9-2.9.3,4.1.3,7.4.4,10.7,0,2.2-.7,3.4-3.1,3.5h0ZM61.3,564c0-1.4-.2-3.3,1.7-3.6,1.7-.3,3.7-.7,4.5,1.8,0,6.6,0,12.4.2,18.2,0,2.5-.4,4.2-3.5,4.1-2.9,0-2.9-2.1-2.9-4.1,0-5.5,0-10.9,0-16.4ZM150.8,609.4c-17,.3-34,0-51,.2h-38.5v-13.8c0-2.2,1.3-2.8,3.2-2.8s3,1.1,3,3.1.3,3.7,0,5.4c-.6,4.4,1.7,5.8,5.6,6,4.4.2,4-2.8,4-5.7,0-9.5-1.3-9,9.2-9,18.2,0,36.4.3,54.5,0,5.2,0,6.9,1.7,6.2,6.6v1c0,7,.1,7.1,7.4,6.6,3.5-3.3,1.7-6.9,2.2-10.2.2-1.9,0-3.8,2.7-3.7,2.7,0,2.5,2,2.6,3.9.6,12,.6,12.2-11.1,12.4h0ZM147,548.4c0,2.9-1.1,4.2-4.1,4.2h-62c-2.8,0-3.9-1.1-3.8-3.8,0-6,.2-11.9,0-17.9,0-3.6,1.4-4.5,4.7-4.5,12.1,0,24.2,0,36.2,0h24.3c3.3,0,4.8,1.1,4.7,4.6-.2,5.8-.1,11.6,0,17.4h0ZM136.3,519h-54.5c-3.2,0-4.8-.9-4.8-4.5.3-13.3-1.3-11.1,10.5-11.3,18.1-.2,36.2,0,54.4,0s5.3,1.2,5.2,5.2c-.4,11.4,1.6,10.5-10.7,10.6h0ZM77.1,563.4c0-3,1.2-4.1,4.1-4,19.6,1.2,39.3.2,58.9.5q6.9,0,6.9,6.8c0,4-.3,8,0,11.9.5,4.9-1.6,6.5-6.2,6-3.3-.3-6.6,0-9.9,0-16.8,0-32.7,0-48.5,0-4.1,0-5.6-1.3-5.4-5.4.3-5.3.2-10.6,0-15.8ZM156.6,530.9c0-2.3.6-4.1,3.2-4.1s2.1,2.5,2.2,4.1v20.3c-3.6,2.1-5.3,1.4-5.3-2.5v-17.8h0ZM156.6,563.8c0-1.7,0-3.4,2.4-3.5,2.6,0,3,1.5,3,3.5v16.3c0,1.9.4,4.2-2.7,4.2s-2.6-2.4-2.7-4.3v-16.3h0ZM160.4,518.7c-2.2.2-3.6,0-3.7-1.7-.1-3.8-.1-7.5,0-11.3,0-1.4,1-2,2.3-2.1,1,0,2.5,0,2.5,1.1,0,4.7,2.1,9.6-1,14h-.1ZM57.6,488.9v-1.2h101.3c1.8.2,3.1-.3,4.4,1.2H57.6Z"/>
          <path class="cls-1" d="M303.4,404.8c-9.7-13.8-19.5-27.6-29.1-41.5-31.3-45.4-62.6-90.7-93.6-136.2-19-27.9-38.3-55.6-56-84.4-4.4-7.2-7.5-8.2-14.9-4-2.5,1.4-4.5,3.3-6.3,5.6-3.1,4-3.4,7.7.2,11.6,1.1,1.2,2.1,2.3,2.5,3.9l9.7,14.1h0c12.9,18.4,24.9,35.6,36.9,52.8.8,1.1,1.2,2.3,1.3,3.7.3,3.3,1.8,6.1,4,8.3s3.3,5.5,3.9,8.9c2.6,15.1,6.6,29.6,14.2,43.1,5.9,10.6,14.6,18.8,22,28.1,5.7,7.2,11.6,14.6,9.3,24.9-.2,1,.8,2.1.9,3.3.5,4.3,4.9,5.8,6.5,9.4,1,2.3,2.1,5,5.3,3.9,3.1-1.1,3.3-3.9,2.9-6.6-.7-4.1-3.1-7.9-2-12.4.2-.7-.7-2.2-1.4-2.4-3.6-1.3-3.8-4.7-4.8-7.5-1.5-4.4-3.6-8.5-6.3-12.3-5.5-8.1-13-14.6-18.9-22.4-7.1-9.5-11.8-20.1-14.8-31.5,1.9,2.1,3.6,4.4,5.2,6.7,18.8,27.8,38.1,55.3,57.9,82.5,16.9,23.3,34.1,46.4,50.3,70.2,1,1.4,1.5,2.6,1.4,3.8l18.2-19.6c-1.4.4-2.4-.8-4.4-3.6v-.4ZM106,149.6c-.2,0-.3-.8-.4-1.3,3.1-3.9,6.4-6.7,10.9-8.4-.2,5.1-6.5,10.5-10.5,9.7ZM231.1,333.7c-17.4-25.3-34.9-50.7-52.3-76,18.5,23.5,34.8,48.5,51.9,72.9.7,1.2,1,1.9,1.4,2.5-.3.2-.7.4-1,.6Z"/>
          <path class="cls-7" d="M325.5,262.2c-1.9,7.5-3.4,14.6-7.2,20.9-1.4,2.3-2.9,4.9-6.1,4.2-3.1-.6-3.7-3.5-4.1-6.2-2-15.6,1.1-30.2,8.5-44,1.3-2.4,3.2-4.4,6.4-3.7,3,.7,3.3,3.2,3.9,5.7,1.8,7.7-.6,15.1-1.4,23h0Z"/>
          <line class="cls-2" x1="263.2" y1="162.4" x2="262.3" y2="163.3"/>
          <line class="cls-2" x1="106.2" y1="159.7" x2="81.7" y2="124"/>
          <line class="cls-2" x1="120.9" y1="181.1" x2="115.9" y2="173.9"/>
        </g>
      </g>
    </g>
  </g>
</svg>