<?xml version="1.0" encoding="UTF-8"?>
<svg xmlns="http://www.w3.org/2000/svg" version="1.1" viewBox="0 0 175 290">
  <defs>
    <style>
      .cls-1 {
        fill: #602d07;
      }

      .cls-2 {
        fill: #190b02;
      }

      .cls-3 {
        fill: none;
      }

      .cls-4 {
        fill: #fbb25e;
      }

      .cls-5 {
        fill: #e1e4e5;
      }
    </style>
  </defs>
  <!-- Generator: Adobe Illustrator 28.7.1, SVG Export Plug-In . SVG Version: 1.2.0 Build 142)  -->
  <g>
    <g id="Layer_1">
      <path class="cls-5" d="M1140.2,517c0-.2.2-.5.3-.7,2.7-6.4,6.1-11.6,8.2-17.5,3-8.5,1.4-15-5.7-20.6-8.3-6.6-16.1-13.8-24.2-20.6-3.3-2.8-4.5-5.3-.3-8.2,3.2-2.2,3.6-4.8,2.4-8.5-4.1-11.9-7.6-23.9-11.5-35.9-.8-2.5-1.3-4.7,1.7-5.7,2.6-.9,3.7-2.2,4.2-3.9l-15.5-82.6h0c0-.3-.1-.6-.2-.9-1.6-7.8-3.3-15.5-5.3-23.2-4-15.2-8.8-30.1-14.8-44.7-2-4.8-.6-6.5,3.9-6,16.7,1.6,33.3.8,49.8-2.7,5.2-1.1,10.3-3.1,16.1-3.2.5,5.8-2.8,10.7-2.2,16.3,3.2,0,5.8-1.2,8.3-2.2,41.3-17.9,73.9-45.4,94.7-85.8,13.6-26.6,18.8-55,16-84.6-3.3-34.9-17.4-65.2-41.1-91-1.7-1.8-2.3-3.5-1.7-6.2,1.4-6.1,2.5-12.3,2.4-18.6-.5-22.8-7.9-43.4-20.8-62.1-1-1.4-1.8-3.3-4.4-3-5.2,18.6-8.1,37.5-7.1,58.4-28.7-34.9-62.2-60.8-103.9-75.2,6.5,15.3,16.3,28.5,24.8,42.7-58.1-12.6-114.6-5-170.6,10.5,23.1,8.9,45.7,19.6,71.5,11.4-.8,1.4-1.6,2.3-2.6,2.9-15.6,10.5-29.4,23.1-43.2,35.6-11.3,10.2-21.9,21.1-34,30.5-7.7,6-15.5,12-25.4,16.8,21.5-31.7,45.2-59.8,76.3-80.9-3.1-1.2-5.1.2-7.2,1.1-13.2,5.5-24.4,13.8-34.4,23.9-1.7,1.7-2.8,2.8-3.8,3l-18.2,19.6c0,1.1-.6,2.2-1.8,3.5-11.2,12-20.5,25.5-30.6,38.4-.7.9-1.6,1.8-.9,3.5,12,1.3,24.1,1.7,36.3.6,6.9-.7,7.7.5,5.4,7-8.6,24-10,48.6-4.2,73.2,9.4,40.5,34.7,69.2,70.2,89.3,9.4,5.3,24.7,21.5,25.2,22.2,5.3,6.7,5.4,6.7,1.2,14-15.7,27.5-25,3.2-27.6,1-7.4-6.1-20.9-16.8-35.1-6.2-4.9,3.7-10,9.9-14.9,19.9-.3.6-.5,1.1-.8,1.7-6.2,13.2.2,30.6,16.6,34.7,7.4,1.8,11.5,1.6,24.5,13,3.1,2.7,4.5,3.6,2.8,7.2-8,17.2-15,34.9-21.8,52.7-7.6,19.9-14.5,40.1-20.8,60.5-.9,2.9-2.2,6.3,1.3,8.5,3.5,2.2,3.1,4.8,1.5,8-4.1,7.9-8.4,15.8-12,24-1.9,4.3-3.8,5.2-7.8,2.7-5.3-3.3-11.2-4.7-17.5-4.3-11.1.6-17.3,9.5-13.7,20.1,1.1,3.1,2.7,6,4.9,8.6,4.3,5.1,9.2,9.5,14.3,13.7,1.2,1,3,1.6,3.4,3.5,0,.1,0,.2,0,.3-1.6,1-3.3.6-4.9.7-15.4.2-30.7.4-46.1.6-26.8.4-53.5.7-80.3,1.2-25.4.5-50.8,1.3-76.3,1.9-16.9.4-33.8.7-50.8,1-2,0-3.9-.2-5,2.1.6.4,1,.9,1.4.9,15.3.1,30.6,1,45.9,1.8,23.5,1.2,47.1,1.4,70.6,2.2,18.1.7,36.3,1.7,54.8,2.5,6.7.5,13,.8,19.2.9,20,.4,40,1.9,60,2.5,26.2.8,52.4,1.2,78.6,2,23.6.7,47.3.4,70.9.6,25.6.2,51.2-.2,76.8-1.1,15.2-.5,30.5-1.1,45.7-1.7,8.3-.3,16.6-.7,25-1.3,12.6-1,25.5,0,38.1-1.4,17.9-1.8,35.8-1.5,53.7-3,16.8-1.4,33.8-1.9,50.7-3,2.8-.2,6.2-.7,8.7-3.5-72.3-5-144.7-4.2-217.8-5.7ZM981.4,255.2c-2.8,4.4-3.7,7.2-7.4,10.5-.5.4-.9.9-1.3,1.4-3.9,4.7-6.9,5.5-10.9,7.6-3.3,1.8-7.2-.6-7.2-4.3,0-.7,0-1.3,0-2,.4-13.2,8.9-23.8,20.9-23.6,6.5,0,9.3,4.8,5.9,10.3ZM1086.3,123.4c6.2,3.7,7.3,7.1,5.4,13.8-2.4,8.6-7.8,15.5-12.9,22.4-1.8,2.4-3.5,2.5-5.9,1.4,5-12.7,9.4-25,13.4-37.6ZM1018.9,150.7c-5.3,4.5-10.7,8.5-16.4,12.3-10.2,6-20.1,10.3-31.5,9.9-2.9,0-4.9-1.5-6.8-3.5-17.6-18.6-27.2-40.7-29.4-66.1-1.7-20.4.8-40.2,8.5-59.2,1.3-3.1,2.8-4.7,6.2-5.3,21.1-3.7,41.5-9.7,61-18.7,1.7-.8,3.5-1.6,5.2-.3,1.7,1.3.3,3.1,0,4.6-7,34.5-.7,66,21.6,93.8,3,3.7,3.3,6.8.8,10.6-5.4,8.2-11.4,15.6-19,22ZM963.5,410.4c3.5-10,6.9-20,10.5-29.9,10.5-28.9,22.1-57.4,34.5-85.5,7-15.7,15.4-30.8,23.7-45.8.7-1.3,1.6-2.4,2.9-4.2,4.8,4.8,8.8,9.7,11.7,15.5.6,1.2,0,2.2-.6,3.2-6.6,11.9-13.3,23.8-19.8,35.8-3.8,7.1-6.8,14.8-10.9,21.7-4.8,8-8.4,16.5-12.6,24.7-7.8,15.1-14.7,30.7-21.1,46.5-1,2.4-3.5,4.1-3,7.1-2,5.3-3.8,10-5.8,14.5-.8,1.8-1.3,4.9-4.3,3.2-2.6-1.4-6.9-2-5.2-6.9ZM960.3,422.1c2.2-.3,3.4,1.6,5.2,2.4,4.5,3.8,4.3,6.6-.1,13.8-9-2.1-9.8-4.7-5-16.2ZM909.5,489.3c-3.7-6.4-2.1-9.3,4.5-9.2,6.1,0,11.1,2.7,16,5.9,2,1.3,3.7,3.3,6.8,3.9,8.6-12.5,14.7-26.6,22.1-40.5,3.7,2.4,6.8,4.5,9.9,6.5,2.7,1.8,1.2,4,.3,5.6-4.3,8-8.7,15.9-13.2,23.8-1.2,2.1-2.8,4-4,6.2-5.4,9.6-14,10.8-23.5,8.6-7.2-1.7-14.1-4.6-18.9-10.8ZM1094.4,517.3c-36.4.1-72.7,0-109.1,0-5.1,0-10.2-.5-15.7-.7,0,0,0-.1,0-.2,1-3,3-4.9,4.7-6.9,9.3-10.3,17.7-21.4,25.9-32.6,2.9-3.9,5.4-5.1,10.3-3.6,15.7,5,31.8,7.4,48.3,5,4.3-.6,8,.2,11.5,3.1,3.3,2.8,7.1,4.8,10.6,7.2,7.7,4.3,14.6,8.5,21.8,12.3,3.2,1.7,4.4,3.7,3,7.1,0,.1,0,.3,0,.5-1.4,4.5-1.8,6.8-2.6,7.9-1.1,1.5-2.8.9-8.8.9Z"/>
      <path d="M838.4,324.2c-8.7-6.3-17.5-12.5-26.3-18.7q-13.3-9.5-9.7-25.4c1.6-7.1,1.4-7.3-4.5-7.5-3.5-5.8-10.2-6.2-13.6-10.4,0-.3,0-.7.2-.9,12.1-16.3,9.4-29.7-8-39.8-2-1.2-2.6-2.7-2.6-4.9,0-21.8,0-43.6-.1-65.5,0-36.6,0-73.1,0-109.7V11.5l-9.7-14.1c0,.4.2.8.2,1.2.1,5,.9,9.9.7,14.9-.9,19.8.2,39.6,0,59.4-.3,47.3,0,94.6.2,141.9,0,3.9-1.4,5.8-4.9,7.4-14,6.6-17.9,23.1-8.8,35.6,1,1.4,2.7,2.5,2.9,4.5-3.4,2.9-7.9,4.2-10.9,7.6.1.5.2,1,.3,1.4h49.7c-1.9,2.3-3.3,1.7-4.5,1.7-16.2,0-32.4.1-48.7,0-4.3,0-5.7,1.3-4.6,5.6,1.6,6,3,12.1,4.4,17.5-15.7,10.9-31.7,20.4-46,33,3.9,2.9,7.5,1.8,10.8,1.8,4.3,0,5.7,1.5,5.7,5.8-.1,23.7,0,47.3,0,71,0,13.4,0,26.8,0,40.2,0,8,2.4,10.3,10.4,10.4,4.5,0,8.9,0,13.4,0,2.7,0,3.9,1.1,3.9,3.9,0,4,.2,8,0,11.9-.3,4.5,1.3,6.1,5.9,6.1,16.2-.2,32.4,0,48.7,0,7.2,0,7,0,7.5-7.4.3-4.5-2.3-10.3,1.2-13.3,3.3-2.9,8.9-.9,13.5-1,9.9-.2,12.3-2.4,12.3-12.2,0-30.1,0-60.2,0-90.4v-24.2c5.7-1.1,11.5.4,17.5-1.2-1.4-3.3-4.1-4.6-6.4-6.3ZM782.3,248.6c-3.1,8.6-10.5,12.3-18.1,9-10.9-8.6-10.9-22.1-.4-27.8,1.9,2.1,1.5,6.8,6.3,6.2,3.3-.4,3.2-3.3,4.3-5.3,6.9,2,10.7,10.6,8,18ZM725.5,376.2c0,4.3,0,7.6,0,10.9,0,2.4-1.4,3.1-3.5,3.1-2.2,0-2.7-1.4-2.7-3.3v-21.8c4.7-1.3,6.6,0,6.3,4.6-.2,2.1,0,4.3,0,6.4ZM722.4,356.6c-2.4,0-3.2-1.1-3.2-3.3,0-2.6,0-5.3,0-7.9.1-4.5,1.3-5.1,5.9-2.9.3,4.1.3,7.4.4,10.7,0,2.2-.7,3.4-3.1,3.5ZM719.2,401.6c0-1.4-.2-3.3,1.7-3.6,1.7-.3,3.7-.7,4.5,1.8.1,6.6,0,12.4.2,18.2,0,2.5-.4,4.2-3.5,4.1-2.9,0-2.9-2.1-2.9-4.1,0-5.5,0-10.9,0-16.4ZM808.8,447c-17,.3-34,.1-51,.2-12.7,0-25.3,0-38.5,0v-13.8c0-2.2,1.3-2.8,3.2-2.8,2.1,0,3,1.1,3,3.1s.3,3.7,0,5.4c-.6,4.4,1.7,5.8,5.6,6,4.4.2,4-2.8,4-5.7,0-9.5-1.3-9,9.2-9,18.2,0,36.4.3,54.5,0,5.2,0,6.9,1.7,6.2,6.6,0,.3,0,.7,0,1,0,7,.1,7.1,7.4,6.6,3.5-3.3,1.7-6.9,2.2-10.2.2-1.9,0-3.8,2.7-3.7,2.7,0,2.5,2,2.6,3.9.6,12,.6,12.2-11.1,12.4ZM805,386.1c0,2.9-1.1,4.2-4.1,4.2-20.7,0-41.4,0-62,0-2.8,0-3.9-1.1-3.8-3.8,0-6,.2-11.9,0-17.9-.1-3.6,1.4-4.5,4.7-4.5,12.1.1,24.2,0,36.2,0s16.5,0,24.3,0c3.3,0,4.8,1.1,4.7,4.6-.2,5.8-.1,11.6,0,17.4ZM794.3,356.7c-11.4,0-22.8,0-34.2,0-7.4,0-13.9,0-20.3,0-3.2,0-4.8-.9-4.8-4.5.3-13.3-1.3-11.1,10.5-11.3,18.1-.2,36.2,0,54.4,0,3.7,0,5.3,1.2,5.2,5.2-.4,11.4,1.6,10.5-10.7,10.6ZM735,401c0-3,1.2-4.1,4.1-4,19.6,1.2,39.3.2,58.9.5,6.9,0,6.9,0,6.9,6.8,0,4-.3,8,0,11.9.5,4.9-1.6,6.5-6.2,6-3.3-.3-6.6,0-9.9,0-16.8,0-32.7-.1-48.5,0-4.1,0-5.6-1.3-5.4-5.4.3-5.3.2-10.6.1-15.8ZM814.5,368.5c0-2.3.6-4.1,3.2-4.1,2.9,0,2.1,2.5,2.2,4.1,0,6.8,0,13.5,0,20.3-3.6,2.1-5.3,1.4-5.3-2.5,0-5.9,0-11.9,0-17.8ZM814.5,401.4c0-1.7,0-3.4,2.4-3.5,2.6-.1,3,1.5,3,3.5,0,5.4,0,10.9,0,16.3,0,1.9.4,4.2-2.7,4.2-3.1,0-2.6-2.4-2.7-4.3,0-.7,0-1.3,0-2,0-5.4,0-9.9,0-14.3ZM818.4,356.4c-2.2.2-3.6,0-3.7-1.7-.1-3.8-.1-7.5,0-11.3,0-1.4,1-2,2.3-2.1,1,0,2.5,0,2.5,1.1,0,4.7,2.1,9.6-1,14ZM715.6,326.6c0-.4,0-.8,0-1.2h101.3c1.8.2,3.1-.3,4.4,1.2h-105.7Z"/>
      <path class="cls-1" d="M961.4,242.4c-9.7-13.8-19.5-27.6-29.1-41.5-31.3-45.4-62.6-90.7-93.6-136.2-19-27.9-38.3-55.6-56-84.4-4.4-7.2-7.5-8.2-14.9-4-2.5,1.4-4.5,3.3-6.3,5.6-3.1,4-3.4,7.7.2,11.6,1.1,1.2,2.1,2.3,2.5,3.9l9.7,14.1h0c12.9,18.4,24.9,35.6,36.9,52.8.8,1.1,1.2,2.3,1.3,3.7.3,3.3,1.8,6.1,4,8.3,2.5,2.5,3.3,5.5,3.9,8.9,2.6,15.1,6.6,29.6,14.2,43.1,5.9,10.6,14.6,18.8,22,28.1,5.7,7.2,11.6,14.6,9.3,24.9-.2,1,.8,2.1.9,3.3.5,4.3,4.9,5.8,6.5,9.4,1,2.3,2.1,5,5.3,3.9,3.1-1.1,3.3-3.9,2.9-6.6-.7-4.1-3.1-7.9-2-12.4.2-.7-.7-2.2-1.4-2.4-3.6-1.3-3.8-4.7-4.8-7.5-1.5-4.4-3.6-8.5-6.3-12.3-5.5-8.1-13-14.6-18.9-22.4-7.1-9.5-11.8-20.1-14.8-31.5,1.9,2.1,3.6,4.4,5.2,6.7,18.8,27.8,38.1,55.3,57.9,82.5,16.9,23.3,34.1,46.4,50.3,70.2,1,1.4,1.5,2.6,1.4,3.8l18.2-19.6c-1.4.4-2.4-.8-4.4-3.6ZM764-12.8c-.2,0-.3-.8-.4-1.3,3.1-3.9,6.4-6.7,10.9-8.4-.2,5.1-6.5,10.5-10.5,9.7ZM889.1,171.3c-17.4-25.3-34.9-50.7-52.3-76,18.5,23.5,34.8,48.5,51.9,72.9.7,1.2,1,1.9,1.4,2.5-.3.2-.7.4-1,.6Z"/>
      <path class="cls-5" d="M983.5,99.8c-1.9,7.5-3.4,14.6-7.2,20.9-1.4,2.3-2.9,4.9-6.1,4.2-3.1-.6-3.7-3.5-4.1-6.2-2-15.6,1.1-30.2,8.5-44,1.3-2.4,3.2-4.4,6.4-3.7,3,.7,3.3,3.2,3.9,5.7,1.8,7.7-.6,15.1-1.4,23Z"/>
      <line class="cls-3" x1="921.1" y1="0" x2="920.2" y2="1"/>
      <line class="cls-3" x1="764.2" y1="-2.6" x2="739.7" y2="-38.3"/>
      <line class="cls-3" x1="778.8" y1="18.7" x2="773.9" y2="11.5"/>
      <g>
        <circle class="cls-4" cx="61.4" cy="228.4" r="58.5"/>
        <path class="cls-2" d="M100.4,199.6c-4.9-3.6-9.9-7-14.8-10.5q-7.5-5.3-5.4-14.3c.9-4,.8-4.1-2.5-4.2-2-3.3-5.7-3.5-7.6-5.8,0-.2,0-.4.1-.5,6.8-9.2,5.3-16.7-4.5-22.4-1.1-.7-1.5-1.5-1.5-2.7,0-12.3,0-24.6,0-36.8,0-20.6,0-41.1,0-61.7v-16.8l-5.5-8c0,.2,0,.5,0,.7,0,2.8.5,5.6.4,8.4-.5,11.2.1,22.3,0,33.4-.2,26.6,0,53.2.1,79.8,0,2.2-.8,3.2-2.7,4.2-7.9,3.7-10.1,13-4.9,20,.6.8,1.5,1.4,1.6,2.5-1.9,1.6-4.5,2.4-6.1,4.3,0,.3.1.5.2.8h27.9c-1.1,1.3-1.9,1-2.5,1-9.1,0-18.3,0-27.4,0-2.4,0-3.2.8-2.6,3.1.9,3.4,1.7,6.8,2.5,9.9-8.8,6.2-17.8,11.5-25.9,18.6,2.2,1.6,4.2,1,6.1,1,2.4,0,3.2.9,3.2,3.3,0,13.3,0,26.6,0,39.9,0,7.5,0,15.1,0,22.6,0,4.5,1.4,5.8,5.8,5.8,2.5,0,5,0,7.5,0,1.5,0,2.2.6,2.2,2.2,0,2.2.1,4.5,0,6.7-.2,2.5.7,3.4,3.3,3.4,9.1-.1,18.2,0,27.4,0,4.1,0,4,0,4.2-4.2.2-2.6-1.3-5.8.6-7.5,1.8-1.6,5-.5,7.6-.5,5.6-.1,6.9-1.3,6.9-6.9,0-16.9,0-33.9,0-50.8v-13.6c3.2-.6,6.5.3,9.8-.7-.8-1.9-2.3-2.6-3.6-3.6ZM68.8,157.1c-1.8,4.9-5.9,6.9-10.2,5-6.2-4.8-6.2-12.5-.2-15.6,1.1,1.2.8,3.8,3.5,3.5,1.9-.2,1.8-1.9,2.4-3,3.9,1.1,6,5.9,4.5,10.1ZM36.9,228.9c0,2.4,0,4.3,0,6.1,0,1.3-.8,1.8-2,1.7-1.3,0-1.5-.8-1.5-1.8v-12.3c2.6-.7,3.7,0,3.6,2.6,0,1.2,0,2.4,0,3.6ZM35.2,217.8c-1.3,0-1.8-.6-1.8-1.9,0-1.5,0-3,0-4.5,0-2.5.7-2.8,3.3-1.6.2,2.3.2,4.2.2,6,0,1.2-.4,1.9-1.7,2ZM33.4,243.2c0-.8-.1-1.8,1-2.1,1-.2,2.1-.4,2.5,1,0,3.7,0,7,.1,10.2,0,1.4-.2,2.4-1.9,2.3-1.7,0-1.6-1.2-1.6-2.3,0-3.1,0-6.1,0-9.2ZM83.7,268.7c-9.6.1-19.1,0-28.7,0-7.1,0-14.2,0-21.7,0v-7.7c0-1.2.7-1.6,1.8-1.6,1.2,0,1.7.6,1.7,1.7s.2,2.1,0,3.1c-.4,2.5.9,3.3,3.2,3.4,2.5.1,2.3-1.6,2.3-3.2,0-5.3-.7-5,5.2-5,10.2,0,20.5.1,30.7,0,2.9,0,3.9,1,3.5,3.7,0,.2,0,.4,0,.6,0,4,0,4,4.1,3.7,2-1.8,1-3.9,1.2-5.7.1-1,0-2.1,1.5-2.1,1.5,0,1.4,1.1,1.5,2.2.4,6.7.4,6.9-6.2,7ZM81.6,234.4c0,1.6-.6,2.4-2.3,2.4-11.6,0-23.3,0-34.9,0-1.6,0-2.2-.6-2.1-2.2,0-3.4.1-6.7,0-10.1,0-2,.8-2.5,2.7-2.5,6.8,0,13.6,0,20.4,0s9.3,0,13.7,0c1.9,0,2.7.6,2.6,2.6-.1,3.3,0,6.5,0,9.8ZM75.6,217.9c-6.4,0-12.8,0-19.2,0-4.2,0-7.8,0-11.4,0-1.8,0-2.7-.5-2.7-2.5.2-7.5-.7-6.3,5.9-6.3,10.2-.1,20.4,0,30.6,0,2.1,0,3,.7,2.9,2.9-.2,6.4.9,5.9-6,6ZM42.3,242.9c0-1.7.7-2.3,2.3-2.2,11,.7,22.1.1,33.1.3,3.9,0,3.9,0,3.9,3.8,0,2.2-.2,4.5,0,6.7.3,2.8-.9,3.6-3.5,3.4-1.8-.2-3.7,0-5.6,0-9.5,0-18.4,0-27.3,0-2.3,0-3.2-.8-3.1-3,.1-3,.1-5.9,0-8.9ZM87,224.6c0-1.3.3-2.3,1.8-2.3,1.6,0,1.2,1.4,1.2,2.3,0,3.8,0,7.6,0,11.4-2,1.2-3,.8-3-1.4,0-3.3,0-6.7,0-10ZM87,243.1c0-1,0-1.9,1.4-2,1.4,0,1.7.9,1.7,2,0,3.1,0,6.1,0,9.2,0,1.1.2,2.4-1.5,2.4-1.7,0-1.4-1.3-1.5-2.4,0-.4,0-.7,0-1.1,0-3,0-5.5,0-8.1ZM89.1,217.7c-1.2.1-2,0-2.1-1,0-2.1,0-4.2,0-6.4,0-.8.6-1.1,1.3-1.2.6,0,1.4,0,1.4.6,0,2.6,1.2,5.4-.6,7.9ZM31.3,201c0-.2,0-.4,0-.7h57c1,.1,1.7-.2,2.5.7H31.3Z"/>
        <path class="cls-1" d="M169.6,153.6c-5.5-7.8-11-15.5-16.3-23.3-17.6-25.5-35.2-51-52.7-76.6-10.7-15.7-21.6-31.3-31.5-47.5-2.5-4.1-4.2-4.6-8.4-2.3-1.4.8-2.5,1.9-3.5,3.1-1.7,2.2-1.9,4.3,0,6.5.6.6,1.2,1.3,1.4,2.2l5.5,8h0c7.3,10.3,14,20,20.8,29.7.4.6.7,1.3.7,2.1.2,1.8,1,3.4,2.3,4.7,1.4,1.4,1.9,3.1,2.2,5,1.4,8.5,3.7,16.7,8,24.3,3.3,5.9,8.2,10.6,12.4,15.8,3.2,4,6.5,8.2,5.2,14-.1.5.4,1.2.5,1.8.3,2.4,2.8,3.3,3.7,5.3.6,1.3,1.2,2.8,3,2.2,1.7-.6,1.9-2.2,1.6-3.7-.4-2.3-1.8-4.5-1.1-7,0-.4-.4-1.2-.8-1.4-2-.7-2.2-2.6-2.7-4.2-.8-2.5-2.1-4.8-3.5-6.9-3.1-4.6-7.3-8.2-10.6-12.6-4-5.3-6.7-11.3-8.3-17.7,1.1,1.2,2,2.5,2.9,3.8,10.6,15.7,21.4,31.1,32.6,46.4,9.5,13.1,19.2,26.1,28.3,39.5,2,0,9.7-9.3,8.5-10.9ZM58.5,10c-.1,0-.1-.5-.2-.7,1.8-2.2,3.6-3.8,6.1-4.7,0,2.8-3.6,5.9-5.9,5.4ZM128.9,113.6c-9.8-14.3-19.6-28.5-29.4-42.8,10.4,13.2,19.6,27.3,29.2,41,.4.7.6,1,.8,1.4-.2.1-.4.2-.6.3Z"/>
      </g>
    </g>
  </g>
</svg>