<?xml version="1.0" encoding="UTF-8"?>
<svg xmlns="http://www.w3.org/2000/svg" version="1.1" viewBox="0 0 2000 250">
  <defs>
    <style>
      .cls-1 {
        isolation: isolate;
        opacity: .5;
      }

      .cls-1, .cls-2 {
        fill: #e1e4e5;
      }
    </style>
  </defs>
  <!-- Generator: Adobe Illustrator 28.7.2, SVG Export Plug-In . SVG Version: 1.2.0 Build 154)  -->
  <g>
    <g id="Layer_1">
      <path class="cls-2" d="M162.8,77.2c.7-1.9,3.4-1.9,4.1,0l2.3,5.8c.2.6.7,1,1.2,1.2l5.8,2.3c1.9.7,1.9,3.4,0,4.1l-5.8,2.3c-.6.2-1,.7-1.2,1.2l-2.3,5.8c-.7,1.9-3.4,1.9-4.1,0l-2.3-5.8c-.2-.6-.7-1-1.2-1.2l-5.8-2.3c-1.9-.7-1.9-3.4,0-4.1l5.8-2.3c.6-.2,1-.7,1.2-1.2l2.3-5.8Z"/>
      <path class="cls-1" d="M181.3,98.1c.4-1,1.8-1,2.3,0l1.8,4.5c.1.3.4.6.7.7l4.5,1.8c1,.4,1,1.8,0,2.3l-4.5,1.8c-.3.1-.6.4-.7.7l-1.8,4.5c-.4,1-1.8,1-2.3,0l-1.8-4.5c-.1-.3-.4-.6-.7-.7l-4.5-1.8c-1-.4-1-1.8,0-2.3l4.5-1.8c.3-.1.6-.4.7-.7l1.8-4.5Z"/>
      <path class="cls-2" d="M343.6,53.1c.7-1.9,3.4-1.9,4.1,0l2.3,5.8c.2.6.7,1,1.2,1.2l5.8,2.3c1.9.7,1.9,3.4,0,4.1l-5.8,2.3c-.6.2-1,.7-1.2,1.2l-2.3,5.8c-.7,1.9-3.4,1.9-4.1,0l-2.3-5.8c-.2-.6-.7-1-1.2-1.2l-5.8-2.3c-1.9-.7-1.9-3.4,0-4.1l5.8-2.3c.6-.2,1-.7,1.2-1.2l2.3-5.8Z"/>
      <path class="cls-2" d="M523.6,114.1c.7-1.9,3.4-1.9,4.1,0l2.3,5.8c.2.6.7,1,1.2,1.2l5.8,2.3c1.9.7,1.9,3.4,0,4.1l-5.8,2.3c-.6.2-1,.7-1.2,1.2l-2.3,5.8c-.7,1.9-3.4,1.9-4.1,0l-2.3-5.8c-.2-.6-.7-1-1.2-1.2l-5.8-2.3c-1.9-.7-1.9-3.4,0-4.1l5.8-2.3c.6-.2,1-.7,1.2-1.2l2.3-5.8Z"/>
      <path class="cls-2" d="M604.6,217.1c.7-1.9,3.4-1.9,4.1,0l2.3,5.8c.2.6.7,1,1.2,1.2l5.8,2.3c1.9.7,1.9,3.4,0,4.1l-5.8,2.3c-.6.2-1,.7-1.2,1.2l-2.3,5.8c-.7,1.9-3.4,1.9-4.1,0l-2.3-5.8c-.2-.6-.7-1-1.2-1.2l-5.8-2.3c-1.9-.7-1.9-3.4,0-4.1l5.8-2.3c.6-.2,1-.7,1.2-1.2l2.3-5.8Z"/>
      <path class="cls-2" d="M642.6,64.1c.7-1.9,3.4-1.9,4.1,0l2.3,5.8c.2.6.7,1,1.2,1.2l5.8,2.3c1.9.7,1.9,3.4,0,4.1l-5.8,2.3c-.6.2-1,.7-1.2,1.2l-2.3,5.8c-.7,1.9-3.4,1.9-4.1,0l-2.3-5.8c-.2-.6-.7-1-1.2-1.2l-5.8-2.3c-1.9-.7-1.9-3.4,0-4.1l5.8-2.3c.6-.2,1-.7,1.2-1.2l2.3-5.8Z"/>
      <path class="cls-2" d="M724.6,127.1c.7-1.9,3.4-1.9,4.1,0l2.3,5.8c.2.6.7,1,1.2,1.2l5.8,2.3c1.9.7,1.9,3.4,0,4.1l-5.8,2.3c-.6.2-1,.7-1.2,1.2l-2.3,5.8c-.7,1.9-3.4,1.9-4.1,0l-2.3-5.8c-.2-.6-.7-1-1.2-1.2l-5.8-2.3c-1.9-.7-1.9-3.4,0-4.1l5.8-2.3c.6-.2,1-.7,1.2-1.2l2.3-5.8Z"/>
      <path class="cls-2" d="M442.6,199.1c.7-1.9,3.4-1.9,4.1,0l2.3,5.8c.2.6.7,1,1.2,1.2l5.8,2.3c1.9.7,1.9,3.4,0,4.1l-5.8,2.3c-.6.2-1,.7-1.2,1.2l-2.3,5.8c-.7,1.9-3.4,1.9-4.1,0l-2.3-5.8c-.2-.6-.7-1-1.2-1.2l-5.8-2.3c-1.9-.7-1.9-3.4,0-4.1l5.8-2.3c.6-.2,1-.7,1.2-1.2l2.3-5.8Z"/>
      <path class="cls-2" d="M383.6,199.1c.7-1.9,3.4-1.9,4.1,0l2.3,5.8c.2.6.7,1,1.2,1.2l5.8,2.3c1.9.7,1.9,3.4,0,4.1l-5.8,2.3c-.6.2-1,.7-1.2,1.2l-2.3,5.8c-.7,1.9-3.4,1.9-4.1,0l-2.3-5.8c-.2-.6-.7-1-1.2-1.2l-5.8-2.3c-1.9-.7-1.9-3.4,0-4.1l5.8-2.3c.6-.2,1-.7,1.2-1.2l2.3-5.8Z"/>
      <path class="cls-2" d="M258.6,127.1c.7-1.9,3.4-1.9,4.1,0l2.3,5.8c.2.6.7,1,1.2,1.2l5.8,2.3c1.9.7,1.9,3.4,0,4.1l-5.8,2.3c-.6.2-1,.7-1.2,1.2l-2.3,5.8c-.7,1.9-3.4,1.9-4.1,0l-2.3-5.8c-.2-.6-.7-1-1.2-1.2l-5.8-2.3c-1.9-.7-1.9-3.4,0-4.1l5.8-2.3c.6-.2,1-.7,1.2-1.2l2.3-5.8Z"/>
      <path class="cls-2" d="M264.6,217.1c.7-1.9,3.4-1.9,4.1,0l2.3,5.8c.2.6.7,1,1.2,1.2l5.8,2.3c1.9.7,1.9,3.4,0,4.1l-5.8,2.3c-.6.2-1,.7-1.2,1.2l-2.3,5.8c-.7,1.9-3.4,1.9-4.1,0l-2.3-5.8c-.2-.6-.7-1-1.2-1.2l-5.8-2.3c-1.9-.7-1.9-3.4,0-4.1l5.8-2.3c.6-.2,1-.7,1.2-1.2l2.3-5.8Z"/>
      <path class="cls-2" d="M63.6,204.1c.7-1.9,3.4-1.9,4.1,0l2.3,5.8c.2.6.7,1,1.2,1.2l5.8,2.3c1.9.7,1.9,3.4,0,4.1l-5.8,2.3c-.6.2-1,.7-1.2,1.2l-2.3,5.8c-.7,1.9-3.4,1.9-4.1,0l-2.3-5.8c-.2-.6-.7-1-1.2-1.2l-5.8-2.3c-1.9-.7-1.9-3.4,0-4.1l5.8-2.3c.6-.2,1-.7,1.2-1.2l2.3-5.8Z"/>
      <path class="cls-1" d="M411.5,152.4c.4-1,1.8-1,2.3,0l1.8,4.5c.1.3.4.6.7.7l4.5,1.8c1,.4,1,1.8,0,2.3l-4.5,1.8c-.3.1-.6.4-.7.7l-1.8,4.5c-.4,1-1.8,1-2.3,0l-1.8-4.5c-.1-.3-.4-.6-.7-.7l-4.5-1.8c-1-.4-1-1.8,0-2.3l4.5-1.8c.3-.1.6-.4.7-.7l1.8-4.5Z"/>
      <path class="cls-1" d="M452.5,93.4c.4-1,1.8-1,2.3,0l1.8,4.5c.1.3.4.6.7.7l4.5,1.8c1,.4,1,1.8,0,2.3l-4.5,1.8c-.3.1-.6.4-.7.7l-1.8,4.5c-.4,1-1.8,1-2.3,0l-1.8-4.5c-.1-.3-.4-.6-.7-.7l-4.5-1.8c-1-.4-1-1.8,0-2.3l4.5-1.8c.3-.1.6-.4.7-.7l1.8-4.5Z"/>
      <path class="cls-1" d="M198.5,180.4c.4-1,1.8-1,2.3,0l1.8,4.5c.1.3.4.6.7.7l4.5,1.8c1,.4,1,1.8,0,2.3l-4.5,1.8c-.3.1-.6.4-.7.7l-1.8,4.5c-.4,1-1.8,1-2.3,0l-1.8-4.5c-.1-.3-.4-.6-.7-.7l-4.5-1.8c-1-.4-1-1.8,0-2.3l4.5-1.8c.3-.1.6-.4.7-.7l1.8-4.5Z"/>
      <path class="cls-1" d="M126.5,161.4c.4-1,1.8-1,2.3,0l1.8,4.5c.1.3.4.6.7.7l4.5,1.8c1,.4,1,1.8,0,2.3l-4.5,1.8c-.3.1-.6.4-.7.7l-1.8,4.5c-.4,1-1.8,1-2.3,0l-1.8-4.5c-.1-.3-.4-.6-.7-.7l-4.5-1.8c-1-.4-1-1.8,0-2.3l4.5-1.8c.3-.1.6-.4.7-.7l1.8-4.5Z"/>
      <path class="cls-1" d="M703.5,202.4c.4-1,1.8-1,2.3,0l1.8,4.5c.1.3.4.6.7.7l4.5,1.8c1,.4,1,1.8,0,2.3l-4.5,1.8c-.3.1-.6.4-.7.7l-1.8,4.5c-.4,1-1.8,1-2.3,0l-1.8-4.5c-.1-.3-.4-.6-.7-.7l-4.5-1.8c-1-.4-1-1.8,0-2.3l4.5-1.8c.3-.1.6-.4.7-.7l1.8-4.5Z"/>
      <path class="cls-1" d="M618.5,130.4c.4-1,1.8-1,2.3,0l1.8,4.5c.1.3.4.6.7.7l4.5,1.8c1,.4,1,1.8,0,2.3l-4.5,1.8c-.3.1-.6.4-.7.7l-1.8,4.5c-.4,1-1.8,1-2.3,0l-1.8-4.5c-.1-.3-.4-.6-.7-.7l-4.5-1.8c-1-.4-1-1.8,0-2.3l4.5-1.8c.3-.1.6-.4.7-.7l1.8-4.5Z"/>
      <path class="cls-1" d="M729.5,24.4c.4-1,1.8-1,2.3,0l1.8,4.5c.1.3.4.6.7.7l4.5,1.8c1,.4,1,1.8,0,2.3l-4.5,1.8c-.3.1-.6.4-.7.7l-1.8,4.5c-.4,1-1.8,1-2.3,0l-1.8-4.5c-.1-.3-.4-.6-.7-.7l-4.5-1.8c-1-.4-1-1.8,0-2.3l4.5-1.8c.3-.1.6-.4.7-.7l1.8-4.5Z"/>
      <path class="cls-1" d="M452.5,48.4c.4-1,1.8-1,2.3,0l1.8,4.5c.1.3.4.6.7.7l4.5,1.8c1,.4,1,1.8,0,2.3l-4.5,1.8c-.3.1-.6.4-.7.7l-1.8,4.5c-.4,1-1.8,1-2.3,0l-1.8-4.5c-.1-.3-.4-.6-.7-.7l-4.5-1.8c-1-.4-1-1.8,0-2.3l4.5-1.8c.3-.1.6-.4.7-.7l1.8-4.5Z"/>
      <path class="cls-1" d="M552.5,24.4c.4-1,1.8-1,2.3,0l1.8,4.5c.1.3.4.6.7.7l4.5,1.8c1,.4,1,1.8,0,2.3l-4.5,1.8c-.3.1-.6.4-.7.7l-1.8,4.5c-.4,1-1.8,1-2.3,0l-1.8-4.5c-.1-.3-.4-.6-.7-.7l-4.5-1.8c-1-.4-1-1.8,0-2.3l4.5-1.8c.3-.1.6-.4.7-.7l1.8-4.5Z"/>
      <path class="cls-1" d="M357.5,102.4c.4-1,1.8-1,2.3,0l1.8,4.5c.1.3.4.6.7.7l4.5,1.8c1,.4,1,1.8,0,2.3l-4.5,1.8c-.3.1-.6.4-.7.7l-1.8,4.5c-.4,1-1.8,1-2.3,0l-1.8-4.5c-.1-.3-.4-.6-.7-.7l-4.5-1.8c-1-.4-1-1.8,0-2.3l4.5-1.8c.3-.1.6-.4.7-.7l1.8-4.5Z"/>
    </g>
    <g id="Layer_2">
      <g id="SVGRepo_iconCarrier">
        <g>
          <path class="cls-2" d="M98,63.5h4.2c0,17.4-14.1,31.5-31.5,31.5v-4.4c14,0,25.5-10.6,26.9-24.2.5-.7,1-1.4,1.5-2.2l-1.2-.7Z"/>
          <path class="cls-2" d="M102.2,63.5h-4.2l-2.6-1.6c.9-1.5,2.5-1.9,3.8-1.8,1.3.2,3,1.2,3,3.3Z"/>
          <path class="cls-2" d="M98,63.5l1.2.7c-.2.3-.5.3-.5.3,0,0-.3,0-.5-.2-.2-.2-.3-.5-.3-.8h.2Z"/>
          <path class="cls-2" d="M98.7,64.6c0,0,.4,0,.5-.3-.5.8-1,1.5-1.5,2.2.1-.9.2-1.9.2-2.9,0,.3.1.6.3.8.2.2.4.2.5.2Z"/>
          <path class="cls-2" d="M95.4,62l2.6,1.6h-.2c0,1,0,1.9-.2,2.9-3.9,4.9-9.9,8.1-16.7,8.1v-4.4c6.1,0,11.5-3.3,14.4-8.1Z"/>
          <path class="cls-2" d="M81,74.5c6.8,0,12.8-3.2,16.7-8.1-1.4,13.6-12.9,24.2-26.9,24.2s-27.1-12.1-27.1-27.1,10.6-25.5,24.2-26.9c-4.9,3.9-8.1,9.9-8.1,16.7,0,11.7,9.5,21.2,21.2,21.2Z"/>
          <path class="cls-2" d="M81,70.1v4.4c-11.7,0-21.2-9.5-21.2-21.2h4.4c0,9.3,7.5,16.8,16.8,16.8Z"/>
          <path class="cls-2" d="M74.1,35.1c.2,1.3-.3,2.9-1.8,3.8l-1.6-2.6v-4.2c2.1,0,3.1,1.7,3.3,3Z"/>
          <path class="cls-2" d="M70.8,36.3l1.6,2.6c-4.9,3-8.1,8.3-8.1,14.4h-4.4c0-6.8,3.2-12.8,8.1-16.7.9-.1,1.9-.2,2.9-.2v-.2Z"/>
          <path class="cls-2" d="M70.8,90.6v4.4c-17.4,0-31.5-14.1-31.5-31.5h4.4c0,15,12.1,27.1,27.1,27.1Z"/>
          <path class="cls-2" d="M70.8,36.3v.2c-.3,0-.6-.1-.8-.3-.2-.2-.2-.4-.2-.5,0,0,0-.4.3-.5l.7,1.2Z"/>
          <path class="cls-2" d="M70.8,32.1v4.2l-.7-1.2c-.8.5-1.5,1-2.2,1.5-13.6,1.4-24.2,12.9-24.2,26.9h-4.4c0-17.4,14.1-31.5,31.5-31.5Z"/>
          <path class="cls-2" d="M70,36.1c.2.2.5.3.8.3-1,0-1.9,0-2.9.2.7-.5,1.4-1,2.2-1.5-.3.2-.3.5-.3.5,0,0,0,.3.2.5Z"/>
        </g>
      </g>
      <path class="cls-2" d="M1546,67.2c-.8-1.9-3.7-1.9-4.5,0l-2.5,5.8c-.2.6-.7,1-1.4,1.2l-6.3,2.3c-2,.7-2,3.4,0,4.1l6.3,2.3c.6.2,1.1.7,1.4,1.2l2.5,5.8c.8,1.9,3.7,1.9,4.5,0l2.5-5.8c.2-.6.7-1,1.4-1.2l6.3-2.3c2-.7,2-3.4,0-4.1l-6.3-2.3c-.6-.2-1.1-.7-1.4-1.2l-2.5-5.8Z"/>
      <path class="cls-1" d="M1525.7,88.1c-.4-1-2-1-2.5,0l-1.9,4.5c-.1.3-.4.6-.7.7l-4.9,1.8c-1.1.4-1.1,1.8,0,2.3l4.9,1.8c.3.1.6.4.7.7l1.9,4.5c.4,1,2,1,2.5,0l1.9-4.5c.1-.3.4-.6.7-.7l4.9-1.8c1.1-.4,1.1-1.8,0-2.3l-4.9-1.8c-.3-.1-.6-.4-.7-.7l-1.9-4.5Z"/>
      <path class="cls-2" d="M1348.2,43c-.8-1.9-3.7-1.9-4.5,0l-2.5,5.8c-.2.6-.7,1-1.4,1.2l-6.3,2.3c-2,.7-2,3.4,0,4.1l6.3,2.3c.6.2,1.1.7,1.4,1.2l2.5,5.8c.8,1.9,3.7,1.9,4.5,0l2.5-5.8c.2-.6.7-1,1.4-1.2l6.3-2.3c2-.7,2-3.4,0-4.1l-6.3-2.3c-.6-.2-1.1-.7-1.4-1.2l-2.5-5.8Z"/>
      <path class="cls-2" d="M1151.3,104c-.8-1.9-3.7-1.9-4.5,0l-2.5,5.8c-.2.6-.7,1-1.4,1.2l-6.3,2.3c-2,.7-2,3.4,0,4.1l6.3,2.3c.6.2,1.1.7,1.4,1.2l2.5,5.8c.8,1.9,3.7,1.9,4.5,0l2.5-5.8c.2-.6.7-1,1.4-1.2l6.3-2.3c2-.7,2-3.4,0-4.1l-6.3-2.3c-.6-.2-1.1-.7-1.4-1.2l-2.5-5.8Z"/>
      <path class="cls-2" d="M1062.7,207c-.8-1.9-3.7-1.9-4.5,0l-2.5,5.8c-.2.6-.7,1-1.4,1.2l-6.3,2.3c-2,.7-2,3.4,0,4.1l6.3,2.3c.6.2,1.1.7,1.4,1.2l2.5,5.8c.8,1.9,3.7,1.9,4.5,0l2.5-5.8c.2-.6.7-1,1.4-1.2l6.3-2.3c2-.7,2-3.4,0-4.1l-6.3-2.3c-.6-.2-1.1-.7-1.4-1.2l-2.5-5.8Z"/>
      <path class="cls-2" d="M1021.2,54c-.8-1.9-3.7-1.9-4.5,0l-2.5,5.8c-.2.6-.7,1-1.4,1.2l-6.3,2.3c-2,.7-2,3.4,0,4.1l6.3,2.3c.6.2,1.1.7,1.4,1.2l2.5,5.8c.8,1.9,3.7,1.9,4.5,0l2.5-5.8c.2-.6.7-1,1.4-1.2l6.3-2.3c2-.7,2-3.4,0-4.1l-6.3-2.3c-.6-.2-1.1-.7-1.4-1.2l-2.5-5.8Z"/>
      <path class="cls-2" d="M931.5,117c-.8-1.9-3.7-1.9-4.5,0l-2.5,5.8c-.2.6-.7,1-1.4,1.2l-6.3,2.3c-2,.7-2,3.4,0,4.1l6.3,2.3c.6.2,1.1.7,1.4,1.2l2.5,5.8c.8,1.9,3.7,1.9,4.5,0l2.5-5.8c.2-.6.7-1,1.4-1.2l6.3-2.3c2-.7,2-3.4,0-4.1l-6.3-2.3c-.6-.2-1.1-.7-1.4-1.2l-2.5-5.8Z"/>
      <path class="cls-2" d="M1239.9,189c-.8-1.9-3.7-1.9-4.5,0l-2.5,5.8c-.2.6-.7,1-1.4,1.2l-6.3,2.3c-2,.7-2,3.4,0,4.1l6.3,2.3c.6.2,1.1.7,1.4,1.2l2.5,5.8c.8,1.9,3.7,1.9,4.5,0l2.5-5.8c.2-.6.7-1,1.4-1.2l6.3-2.3c2-.7,2-3.4,0-4.1l-6.3-2.3c-.6-.2-1.1-.7-1.4-1.2l-2.5-5.8Z"/>
      <path class="cls-2" d="M1304.5,189c-.8-1.9-3.7-1.9-4.5,0l-2.5,5.8c-.2.6-.7,1-1.4,1.2l-6.3,2.3c-2,.7-2,3.4,0,4.1l6.3,2.3c.6.2,1.1.7,1.4,1.2l2.5,5.8c.8,1.9,3.7,1.9,4.5,0l2.5-5.8c.2-.6.7-1,1.4-1.2l6.3-2.3c2-.7,2-3.4,0-4.1l-6.3-2.3c-.6-.2-1.1-.7-1.4-1.2l-2.5-5.8Z"/>
      <path class="cls-2" d="M1441.2,117c-.8-1.9-3.7-1.9-4.5,0l-2.5,5.8c-.2.6-.7,1-1.4,1.2l-6.3,2.3c-2,.7-2,3.4,0,4.1l6.3,2.3c.6.2,1.1.7,1.4,1.2l2.5,5.8c.8,1.9,3.7,1.9,4.5,0l2.5-5.8c.2-.6.7-1,1.4-1.2l6.3-2.3c2-.7,2-3.4,0-4.1l-6.3-2.3c-.6-.2-1.1-.7-1.4-1.2l-2.5-5.8Z"/>
      <path class="cls-2" d="M1434.6,207c-.8-1.9-3.7-1.9-4.5,0l-2.5,5.8c-.2.6-.7,1-1.4,1.2l-6.3,2.3c-2,.7-2,3.4,0,4.1l6.3,2.3c.6.2,1.1.7,1.4,1.2l2.5,5.8c.8,1.9,3.7,1.9,4.5,0l2.5-5.8c.2-.6.7-1,1.4-1.2l6.3-2.3c2-.7,2-3.4,0-4.1l-6.3-2.3c-.6-.2-1.1-.7-1.4-1.2l-2.5-5.8Z"/>
      <path class="cls-2" d="M855.5,85c-.8-1.9-3.7-1.9-4.5,0l-2.5,5.8c-.2.6-.7,1-1.4,1.2l-6.3,2.3c-2,.7-2,3.4,0,4.1l6.3,2.3c.6.2,1.1.7,1.4,1.2l2.5,5.8c.8,1.9,3.7,1.9,4.5,0l2.5-5.8c.2-.6.7-1,1.4-1.2l6.3-2.3c2-.7,2-3.4,0-4.1l-6.3-2.3c-.6-.2-1.1-.7-1.4-1.2l-2.5-5.8Z"/>
      <path class="cls-1" d="M1273.9,142.3c-.4-1-2-1-2.5,0l-1.9,4.5c-.1.3-.4.6-.7.7l-4.9,1.8c-1.1.4-1.1,1.8,0,2.3l4.9,1.8c.3.1.6.4.7.7l1.9,4.5c.4,1,2,1,2.5,0l1.9-4.5c.1-.3.4-.6.7-.7l4.9-1.8c1.1-.4,1.1-1.8,0-2.3l-4.9-1.8c-.3-.1-.6-.4-.7-.7l-1.9-4.5Z"/>
      <path class="cls-1" d="M1229.1,83.3c-.4-1-2-1-2.5,0l-1.9,4.5c-.1.3-.4.6-.7.7l-4.9,1.8c-1.1.4-1.1,1.8,0,2.3l4.9,1.8c.3.1.6.4.7.7l1.9,4.5c.4,1,2,1,2.5,0l1.9-4.5c.1-.3.4-.6.7-.7l4.9-1.8c1.1-.4,1.1-1.8,0-2.3l-4.9-1.8c-.3-.1-.6-.4-.7-.7l-1.9-4.5Z"/>
      <path class="cls-1" d="M1506.9,170.3c-.4-1-2-1-2.5,0l-1.9,4.5c-.1.3-.4.6-.7.7l-4.9,1.8c-1.1.4-1.1,1.8,0,2.3l4.9,1.8c.3.1.6.4.7.7l1.9,4.5c.4,1,2,1,2.5,0l1.9-4.5c.1-.3.4-.6.7-.7l4.9-1.8c1.1-.4,1.1-1.8,0-2.3l-4.9-1.8c-.3-.1-.6-.4-.7-.7l-1.9-4.5Z"/>
      <path class="cls-1" d="M1585.7,151.3c-.4-1-2-1-2.5,0l-1.9,4.5c-.1.3-.4.6-.7.7l-4.9,1.8c-1.1.4-1.1,1.8,0,2.3l4.9,1.8c.3.1.6.4.7.7l1.9,4.5c.4,1,2,1,2.5,0l1.9-4.5c.1-.3.4-.6.7-.7l4.9-1.8c1.1-.4,1.1-1.8,0-2.3l-4.9-1.8c-.3-.1-.6-.4-.7-.7l-1.9-4.5Z"/>
      <path class="cls-1" d="M954.5,192.3c-.4-1-2-1-2.5,0l-1.9,4.5c-.1.3-.4.6-.7.7l-4.9,1.8c-1.1.4-1.1,1.8,0,2.3l4.9,1.8c.3.1.6.4.7.7l1.9,4.5c.4,1,2,1,2.5,0l1.9-4.5c.1-.3.4-.6.7-.7l4.9-1.8c1.1-.4,1.1-1.8,0-2.3l-4.9-1.8c-.3-.1-.6-.4-.7-.7l-1.9-4.5Z"/>
      <path class="cls-1" d="M1047.5,120.3c-.4-1-2-1-2.5,0l-1.9,4.5c-.1.3-.4.6-.7.7l-4.9,1.8c-1.1.4-1.1,1.8,0,2.3l4.9,1.8c.3.1.6.4.7.7l1.9,4.5c.4,1,2,1,2.5,0l1.9-4.5c.1-.3.4-.6.7-.7l4.9-1.8c1.1-.4,1.1-1.8,0-2.3l-4.9-1.8c-.3-.1-.6-.4-.7-.7l-1.9-4.5Z"/>
      <path class="cls-1" d="M926.1,14.3c-.4-1-2-1-2.5,0l-1.9,4.5c-.1.3-.4.6-.7.7l-4.9,1.8c-1.1.4-1.1,1.8,0,2.3l4.9,1.8c.3.1.6.4.7.7l1.9,4.5c.4,1,2,1,2.5,0l1.9-4.5c.1-.3.4-.6.7-.7l4.9-1.8c1.1-.4,1.1-1.8,0-2.3l-4.9-1.8c-.3-.1-.6-.4-.7-.7l-1.9-4.5Z"/>
      <path class="cls-1" d="M1229.1,38.3c-.4-1-2-1-2.5,0l-1.9,4.5c-.1.3-.4.6-.7.7l-4.9,1.8c-1.1.4-1.1,1.8,0,2.3l4.9,1.8c.3.1.6.4.7.7l1.9,4.5c.4,1,2,1,2.5,0l1.9-4.5c.1-.3.4-.6.7-.7l4.9-1.8c1.1-.4,1.1-1.8,0-2.3l-4.9-1.8c-.3-.1-.6-.4-.7-.7l-1.9-4.5Z"/>
      <path class="cls-1" d="M1119.7,14.3c-.4-1-2-1-2.5,0l-1.9,4.5c-.1.3-.4.6-.7.7l-4.9,1.8c-1.1.4-1.1,1.8,0,2.3l4.9,1.8c.3.1.6.4.7.7l1.9,4.5c.4,1,2,1,2.5,0l1.9-4.5c.1-.3.4-.6.7-.7l4.9-1.8c1.1-.4,1.1-1.8,0-2.3l-4.9-1.8c-.3-.1-.6-.4-.7-.7l-1.9-4.5Z"/>
      <path class="cls-1" d="M1333,92.3c-.4-1-2-1-2.5,0l-1.9,4.5c-.1.3-.4.6-.7.7l-4.9,1.8c-1.1.4-1.1,1.8,0,2.3l4.9,1.8c.3.1.6.4.7.7l1.9,4.5c.4,1,2,1,2.5,0l1.9-4.5c.1-.3.4-.6.7-.7l4.9-1.8c1.1-.4,1.1-1.8,0-2.3l-4.9-1.8c-.3-.1-.6-.4-.7-.7l-1.9-4.5Z"/>
      <path class="cls-2" d="M1598.9,96c.7-1.9,3.4-1.9,4.1,0l2.3,5.8c.2.6.7,1,1.2,1.2l5.8,2.3c1.9.7,1.9,3.4,0,4.1l-5.8,2.3c-.6.2-1,.7-1.2,1.2l-2.3,5.8c-.7,1.9-3.4,1.9-4.1,0l-2.3-5.8c-.2-.6-.7-1-1.2-1.2l-5.8-2.3c-1.9-.7-1.9-3.4,0-4.1l5.8-2.3c.6-.2,1-.7,1.2-1.2l2.3-5.8Z"/>
      <path class="cls-2" d="M1679.9,199c.7-1.9,3.4-1.9,4.1,0l2.3,5.8c.2.6.7,1,1.2,1.2l5.8,2.3c1.9.7,1.9,3.4,0,4.1l-5.8,2.3c-.6.2-1,.7-1.2,1.2l-2.3,5.8c-.7,1.9-3.4,1.9-4.1,0l-2.3-5.8c-.2-.6-.7-1-1.2-1.2l-5.8-2.3c-1.9-.7-1.9-3.4,0-4.1l5.8-2.3c.6-.2,1-.7,1.2-1.2l2.3-5.8Z"/>
      <path class="cls-2" d="M1717.9,46c.7-1.9,3.4-1.9,4.1,0l2.3,5.8c.2.6.7,1,1.2,1.2l5.8,2.3c1.9.7,1.9,3.4,0,4.1l-5.8,2.3c-.6.2-1,.7-1.2,1.2l-2.3,5.8c-.7,1.9-3.4,1.9-4.1,0l-2.3-5.8c-.2-.6-.7-1-1.2-1.2l-5.8-2.3c-1.9-.7-1.9-3.4,0-4.1l5.8-2.3c.6-.2,1-.7,1.2-1.2l2.3-5.8Z"/>
      <path class="cls-2" d="M1799.9,109c.7-1.9,3.4-1.9,4.1,0l2.3,5.8c.2.6.7,1,1.2,1.2l5.8,2.3c1.9.7,1.9,3.4,0,4.1l-5.8,2.3c-.6.2-1,.7-1.2,1.2l-2.3,5.8c-.7,1.9-3.4,1.9-4.1,0l-2.3-5.8c-.2-.6-.7-1-1.2-1.2l-5.8-2.3c-1.9-.7-1.9-3.4,0-4.1l5.8-2.3c.6-.2,1-.7,1.2-1.2l2.3-5.8Z"/>
      <path class="cls-1" d="M1778.8,184.3c.4-1,1.8-1,2.3,0l1.8,4.5c.1.3.4.6.7.7l4.5,1.8c1,.4,1,1.8,0,2.3l-4.5,1.8c-.3.1-.6.4-.7.7l-1.8,4.5c-.4,1-1.8,1-2.3,0l-1.8-4.5c-.1-.3-.4-.6-.7-.7l-4.5-1.8c-1-.4-1-1.8,0-2.3l4.5-1.8c.3-.1.6-.4.7-.7l1.8-4.5Z"/>
      <path class="cls-1" d="M1693.8,112.3c.4-1,1.8-1,2.3,0l1.8,4.5c.1.3.4.6.7.7l4.5,1.8c1,.4,1,1.8,0,2.3l-4.5,1.8c-.3.1-.6.4-.7.7l-1.8,4.5c-.4,1-1.8,1-2.3,0l-1.8-4.5c-.1-.3-.4-.6-.7-.7l-4.5-1.8c-1-.4-1-1.8,0-2.3l4.5-1.8c.3-.1.6-.4.7-.7l1.8-4.5Z"/>
      <path class="cls-1" d="M1804.8,6.3c.4-1,1.8-1,2.3,0l1.8,4.5c.1.3.4.6.7.7l4.5,1.8c1,.4,1,1.8,0,2.3l-4.5,1.8c-.3.1-.6.4-.7.7l-1.8,4.5c-.4,1-1.8,1-2.3,0l-1.8-4.5c-.1-.3-.4-.6-.7-.7l-4.5-1.8c-1-.4-1-1.8,0-2.3l4.5-1.8c.3-.1.6-.4.7-.7l1.8-4.5Z"/>
      <path class="cls-1" d="M1627.8,6.3c.4-1,1.8-1,2.3,0l1.8,4.5c.1.3.4.6.7.7l4.5,1.8c1,.4,1,1.8,0,2.3l-4.5,1.8c-.3.1-.6.4-.7.7l-1.8,4.5c-.4,1-1.8,1-2.3,0l-1.8-4.5c-.1-.3-.4-.6-.7-.7l-4.5-1.8c-1-.4-1-1.8,0-2.3l4.5-1.8c.3-.1.6-.4.7-.7l1.8-4.5Z"/>
      <path class="cls-2" d="M1952,206c-.8-1.9-3.7-1.9-4.5,0l-2.5,5.8c-.2.6-.7,1-1.4,1.2l-6.3,2.3c-2,.7-2,3.4,0,4.1l6.3,2.3c.6.2,1.1.7,1.4,1.2l2.5,5.8c.8,1.9,3.7,1.9,4.5,0l2.5-5.8c.2-.6.7-1,1.4-1.2l6.3-2.3c2-.7,2-3.4,0-4.1l-6.3-2.3c-.6-.2-1.1-.7-1.4-1.2l-2.5-5.8Z"/>
      <path class="cls-2" d="M1930.8,67c-.8-1.9-3.7-1.9-4.5,0l-2.5,5.8c-.2.6-.7,1-1.4,1.2l-6.3,2.3c-2,.7-2,3.4,0,4.1l6.3,2.3c.6.2,1.1.7,1.4,1.2l2.5,5.8c.8,1.9,3.7,1.9,4.5,0l2.5-5.8c.2-.6.7-1,1.4-1.2l6.3-2.3c2-.7,2-3.4,0-4.1l-6.3-2.3c-.6-.2-1.1-.7-1.4-1.2l-2.5-5.8Z"/>
      <path class="cls-1" d="M1905.8,161.2c-.4-1-2-1-2.5,0l-1.9,4.5c-.1.3-.4.6-.7.7l-4.9,1.8c-1.1.4-1.1,1.8,0,2.3l4.9,1.8c.3.1.6.4.7.7l1.9,4.5c.4,1,2,1,2.5,0l1.9-4.5c.1-.3.4-.6.7-.7l4.9-1.8c1.1-.4,1.1-1.8,0-2.3l-4.9-1.8c-.3-.1-.6-.4-.7-.7l-1.9-4.5Z"/>
    </g>
  </g>
</svg>