<svg xmlns="http://www.w3.org/2000/svg" viewBox="0 0 2000 250" xmlns:v="https://vecta.io/nano"><style>.B{isolation:isolate}</style><g fill="#e1e4e5"><path d="M136,81.9c.8-2.1,3.7-2.1,4.4,0l2.5,6.3c.2.6.8,1.1,1.3,1.3l6.3,2.5c2.1.8,2.1,3.7,0,4.4l-6.3,2.5c-.6.2-1.1.8-1.3,1.3l-2.5,6.3c-.8,2.1-3.7,2.1-4.4,0l-2.5-6.3c-.2-.6-.8-1.1-1.3-1.3l-6.3-2.5c-2.1-.8-2.1-3.7,0-4.4l6.3-2.5c.6-.2,1.1-.8,1.3-1.3l2.5-6.3Z"/><path class="B" d="M150.7,29.9c.4-1.1,1.9-1.1,2.5,0l1.9,4.9c.1.3.4.6.8.8l4.9,1.9c1.1.4,1.1,1.9,0,2.5l-4.9,1.9c-.3,0-.6.4-.8.8l-1.9,4.9c-.4,1.1-1.9,1.1-2.5,0l-1.9-4.9c-.1-.3-.4-.6-.8-.8l-4.9-1.9c-1.1-.4-1.1-1.9,0-2.5l4.9-1.9c.3,0,.6-.4.8-.8l1.9-4.9Z" opacity=".5"/><path d="M331.2 55.9c.8-2.1 3.7-2.1 4.4 0l2.5 6.3c.2.6.8 1.1 1.3 1.3l6.3 2.5c2.1.8 2.1 3.7 0 4.4l-6.3 2.5c-.6.2-1.1.8-1.3 1.3l-2.5 6.3c-.8 2.1-3.7 2.1-4.4 0l-2.5-6.3c-.2-.6-.8-1.1-1.3-1.3l-6.3-2.5c-2.1-.8-2.1-3.7 0-4.4l6.3-2.5c.6-.2 1.1-.8 1.3-1.3l2.5-6.3zm194.3 65.8c.8-2.1 3.7-2.1 4.4 0l2.5 6.3c.2.6.8 1.1 1.3 1.3l6.3 2.5c2.1.8 2.1 3.7 0 4.4l-6.3 2.5c-.6.2-1.1.8-1.3 1.3l-2.5 6.3c-.8 2.1-3.7 2.1-4.4 0L523 140c-.2-.6-.8-1.1-1.3-1.3l-6.3-2.5c-2.1-.8-2.1-3.7 0-4.4l6.3-2.5c.6-.2 1.1-.8 1.3-1.3l2.5-6.3zm91.9 78c.8-2.1 3.7-2.1 4.4 0l2.5 6.3c.2.6.8 1.1 1.3 1.3l6.3 2.5c2.1.8 2.1 3.7 0 4.4l-6.3 2.5c-.6.2-1.1.8-1.3 1.3l-2.5 6.3c-.8 2.1-3.7 2.1-4.4 0l-2.5-6.3c-.2-.6-.8-1.1-1.3-1.3l-6.3-2.5c-2.1-.8-2.1-3.7 0-4.4l6.3-2.5c.6-.2 1.1-.8 1.3-1.3l2.5-6.3zM654 67.8c.8-2.1 3.7-2.1 4.4 0l2.5 6.3c.2.6.8 1.1 1.3 1.3l6.3 2.5c2.1.8 2.1 3.7 0 4.4l-6.3 2.5c-.6.2-1.1.8-1.3 1.3l-2.5 6.3c-.8 2.1-3.7 2.1-4.4 0l-2.5-6.3c-.2-.6-.8-1.1-1.3-1.3l-6.3-2.5c-2.1-.8-2.1-3.7 0-4.4l6.3-2.5c.6-.2 1.1-.8 1.3-1.3l2.5-6.3z"/><use href="#B"/><path d="M438.1 213.5c.8-2.1 3.7-2.1 4.4 0l2.5 6.3c.2.6.8 1.1 1.3 1.3l6.3 2.5c2.1.8 2.1 3.7 0 4.4l-6.3 2.5c-.6.2-1.1.8-1.3 1.3l-2.5 6.3c-.8 2.1-3.7 2.1-4.4 0l-2.5-6.3c-.2-.6-.8-1.1-1.3-1.3L428 228c-2.1-.8-2.1-3.7 0-4.4l6.3-2.5c.6-.2 1.1-.8 1.3-1.3l2.5-6.3z"/><use href="#C"/><use href="#B" x="-503.1"/><use href="#C" x="-128.5"/><path d="M28.9 209.9c.8-2.1 3.7-2.1 4.4 0l2.5 6.3c.2.6.8 1.1 1.3 1.3l6.3 2.5c2.1.8 2.1 3.7 0 4.4l-6.3 2.5c-.6.2-1.1.8-1.3 1.3l-2.5 6.3c-.8 2.1-3.7 2.1-4.4 0l-2.5-6.3c-.2-.6-.8-1.1-1.3-1.3l-6.3-2.5c-2.1-.8-2.1-3.7 0-4.4l6.3-2.5c.6-.2 1.1-.8 1.3-1.3l2.5-6.3z"/><path class="B" d="M404.5 163.1c.4-1.1 1.9-1.1 2.5 0l1.9 4.9c.1.3.4.6.8.8l4.9 1.9c1.1.4 1.1 1.9 0 2.5l-4.9 1.9c-.3.1-.6.4-.8.8l-1.9 4.9c-.4 1.1-1.9 1.1-2.5 0l-1.9-4.9c-.1-.3-.4-.6-.8-.8l-4.9-1.9c-1.1-.4-1.1-1.9 0-2.5l4.9-1.9c.3-.1.6-.4.8-.8l1.9-4.9zm-276.3-49.2c.4-1.1 1.9-1.1 2.5 0l1.9 4.9c.1.3.4.6.8.8l4.9 1.9c1.1.4 1.1 1.9 0 2.5l-4.9 1.9c-.3 0-.6.4-.8.8l-1.9 4.9c-.4 1.1-1.9 1.1-2.5 0l-1.9-4.9c0-.3-.4-.6-.8-.8l-4.9-1.9c-1.1-.4-1.1-1.9 0-2.5l4.9-1.9c.3 0 .6-.4.8-.8l1.9-4.9zm46.3 79.4c.4-1.1 1.9-1.1 2.5 0l1.9 4.9c.1.3.4.6.8.8l4.9 1.9c1.1.4 1.1 1.9 0 2.5l-4.9 1.9c-.3.1-.6.4-.8.8L177 211c-.4 1.1-1.9 1.1-2.5 0l-1.9-4.9c-.1-.3-.4-.6-.8-.8l-4.9-1.9c-1.1-.4-1.1-1.9 0-2.5l4.9-1.9c.3-.1.6-.4.8-.8l1.9-4.9zm-77.7-29.5c.4-1.1 1.9-1.1 2.5 0l1.9 4.9c0 .3.4.6.8.8l4.9 1.9c1.1.4 1.1 1.9 0 2.5l-4.9 1.9c-.3.1-.6.4-.8.8l-1.9 4.9c-.4 1.1-1.9 1.1-2.5 0l-1.9-4.9c0-.3-.4-.6-.8-.8l-4.9-1.9c-1.1-.4-1.1-1.9 0-2.5l4.9-1.9c.3-.1.6-.4.8-.8l1.9-4.9zm623 53.3c.4-1.1 1.9-1.1 2.5 0l1.9 4.9c0 .3.4.6.8.8l4.9 1.9c1.1.4 1.1 1.9 0 2.5l-4.9 1.9c-.3.1-.6.4-.8.8l-1.9 4.9c-.4 1.1-1.9 1.1-2.5 0l-1.9-4.9c0-.3-.4-.6-.8-.8l-4.9-1.9c-1.1-.4-1.1-1.9 0-2.5l4.9-1.9c.3-.1.6-.4.8-.8l1.9-4.9zM628 139.3c.4-1.1 1.9-1.1 2.5 0l1.9 4.9c0 .3.4.6.8.8l4.9 1.9c1.1.4 1.1 1.9 0 2.5l-4.9 1.9c-.3.1-.6.4-.8.8l-1.9 4.9c-.4 1.1-1.9 1.1-2.5 0l-1.9-4.9c0-.3-.4-.6-.8-.8l-4.9-1.9c-1.1-.4-1.1-1.9 0-2.5l4.9-1.9c.3-.1.6-.4.8-.8l1.9-4.9z" opacity=".5"/><use href="#D" class="B" opacity=".5"/><path class="B" d="M448.8 50.8c.4-1.1 1.9-1.1 2.5 0l1.9 4.9c.1.3.4.6.8.8l4.9 1.9c1.1.4 1.1 1.9 0 2.5l-4.9 1.9c-.3 0-.6.4-.8.8l-1.9 4.9c-.4 1.1-1.9 1.1-2.5 0l-1.9-4.9c-.1-.3-.4-.6-.8-.8l-4.9-1.9c-1.1-.4-1.1-1.9 0-2.5l4.9-1.9c.3 0 .6-.4.8-.8l1.9-4.9z" opacity=".5"/><use href="#D" x="-191.1" class="B" opacity=".5"/><path class="B" d="M25.7 123.6c.4-1.1 1.9-1.1 2.5 0l1.9 4.9c.1.3.4.6.8.8l4.9 1.9c1.1.4 1.1 1.9 0 2.5l-4.9 1.9c-.3.1-.6.4-.8.8l-1.9 4.9c-.4 1.1-1.9 1.1-2.5 0l-1.9-4.9c-.1-.3-.4-.6-.8-.8l-4.9-1.9c-1.1-.4-1.1-1.9 0-2.5l4.9-1.9c.3-.1.6-.4.8-.8l1.9-4.9zm414.7-20c.4-1.1 1.9-1.1 2.5 0l1.9 4.9c.1.3.4.6.8.8l4.9 1.9c1.1.4 1.1 1.9 0 2.5l-4.9 1.9c-.3 0-.6.4-.8.8l-1.9 4.9c-.4 1.1-1.9 1.1-2.5 0l-1.9-4.9c-.1-.3-.4-.6-.8-.8l-4.9-1.9c-1.1-.4-1.1-1.9 0-2.5l4.9-1.9c.3 0 .6-.4.8-.8l1.9-4.9zm-102.5 9.7c.4-1.1 1.9-1.1 2.5 0l1.9 4.9c.1.3.4.6.8.8l4.9 1.9c1.1.4 1.1 1.9 0 2.5l-4.9 1.9c-.3 0-.6.4-.8.8l-1.9 4.9c-.4 1.1-1.9 1.1-2.5 0l-1.9-4.9c-.1-.3-.4-.6-.8-.8l-4.9-1.9c-1.1-.4-1.1-1.9 0-2.5l4.9-1.9c.3 0 .6-.4.8-.8l1.9-4.9z" opacity=".5"/><path d="M1629.4,51.1c-.9-2.1-4-2.1-4.9,0l-2.7,6.3c-.2.6-.8,1.1-1.5,1.3l-6.8,2.5c-2.2.8-2.2,3.7,0,4.4l6.8,2.5c.6.2,1.2.8,1.5,1.3l2.7,6.3c.9,2.1,4,2.1,4.9,0l2.7-6.3c.2-.6.8-1.1,1.5-1.3l6.8-2.5c2.2-.8,2.2-3.7,0-4.4l-6.8-2.5c-.6-.2-1.2-.8-1.5-1.3l-2.7-6.3Z"/><path class="B" d="M1607.5,73.7c-.4-1.1-2.2-1.1-2.7,0l-2.1,4.9c0,.3-.4.6-.8.8l-5.3,1.9c-1.2.4-1.2,1.9,0,2.5l5.3,1.9c.3,0,.6.4.8.8l2.1,4.9c.4,1.1,2.2,1.1,2.7,0l2.1-4.9c0-.3.4-.6.8-.8l5.3-1.9c1.2-.4,1.2-1.9,0-2.5l-5.3-1.9c-.3,0-.6-.4-.8-.8l-2.1-4.9Z" opacity=".5"/><path d="M1415.8 25c-.9-2.1-4-2.1-4.9 0l-2.7 6.3c-.2.6-.8 1.1-1.5 1.3l-6.8 2.5c-2.2.8-2.2 3.7 0 4.4l6.8 2.5c.6.2 1.2.8 1.5 1.3l2.7 6.3c.9 2.1 4 2.1 4.9 0l2.7-6.3c.2-.6.8-1.1 1.5-1.3l6.8-2.5c2.2-.8 2.2-3.7 0-4.4l-6.8-2.5c-.6-.2-1.2-.8-1.5-1.3l-2.7-6.3zm-212.6 65.8c-.9-2.1-4-2.1-4.9 0l-2.7 6.3c-.2.6-.8 1.1-1.5 1.3l-6.8 2.5c-2.2.8-2.2 3.7 0 4.4l6.8 2.5c.6.2 1.2.8 1.5 1.3l2.7 6.3c.9 2.1 4 2.1 4.9 0l2.7-6.3c.2-.6.8-1.1 1.5-1.3l6.8-2.5c2.2-.8 2.2-3.7 0-4.4l-6.8-2.5c-.6-.2-1.2-.8-1.5-1.3l-2.7-6.3z"/><use href="#E"/><path d="M1062.8 36.9c-.9-2.1-4-2.1-4.9 0l-2.7 6.3c-.2.6-.8 1.1-1.5 1.3l-6.8 2.5c-2.2.8-2.2 3.7 0 4.4l6.8 2.5c.6.2 1.2.8 1.5 1.3l2.7 6.3c.9 2.1 4 2.1 4.9 0l2.7-6.3c.2-.6.8-1.1 1.5-1.3l6.8-2.5c2.2-.8 2.2-3.7 0-4.4l-6.8-2.5c-.6-.2-1.2-.8-1.5-1.3l-2.7-6.3h0zm-96.9 68c-.9-2.1-4-2.1-4.9 0l-2.7 6.3c-.2.6-.8 1.1-1.5 1.3L950 115c-2.2.8-2.2 3.7 0 4.4l6.8 2.5c.6.2 1.2.8 1.5 1.3l2.7 6.3c.9 2.1 4 2.1 4.9 0l2.7-6.3c.2-.6.8-1.1 1.5-1.3l6.8-2.5c2.2-.8 2.2-3.7 0-4.4l-6.8-2.5c-.6-.2-1.2-.8-1.5-1.3l-2.7-6.3z"/><use href="#F"/><use href="#F" x="69.7"/><path d="M1516.2,104.9c-.9-2.1-4-2.1-4.9,0l-2.7,6.3c-.2.6-.8,1.1-1.5,1.3l-6.8,2.5c-2.2.8-2.2,3.7,0,4.4l6.8,2.5c.6.2,1.2.8,1.5,1.3l2.7,6.3c.9,2.1,4,2.1,4.9,0l2.7-6.3c.2-.6.8-1.1,1.5-1.3l6.8-2.5c2.2-.8,2.2-3.7,0-4.4l-6.8-2.5c-.6-.2-1.2-.8-1.5-1.3l-2.7-6.3Z"/><use href="#E" x="401.5"/><path d="M883.9,70.3c-.9-2.1-4-2.1-4.9,0l-2.7,6.3c-.2.6-.8,1.1-1.5,1.3l-6.8,2.5c-2.2.8-2.2,3.7,0,4.4l6.8,2.5c.6.2,1.2.8,1.5,1.3l2.7,6.3c.9,2.1,4,2.1,4.9,0l2.7-6.3c.2-.6.8-1.1,1.5-1.3l6.8-2.5c2.2-.8,2.2-3.7,0-4.4l-6.8-2.5c-.6-.2-1.2-.8-1.5-1.3l-2.7-6.3Z"/><path class="B" d="M1335.6 132.2c-.4-1.1-2.2-1.1-2.7 0l-2.1 4.9c0 .3-.4.6-.8.8l-5.3 1.9c-1.2.4-1.2 1.9 0 2.5l5.3 1.9c.3.1.6.4.8.8l2.1 4.9c.4 1.1 2.2 1.1 2.7 0l2.1-4.9c0-.3.4-.6.8-.8l5.3-1.9c1.2-.4 1.2-1.9 0-2.5l-5.3-1.9c-.3-.1-.6-.4-.8-.8l-2.1-4.9zm-48.4-63.7c-.4-1.1-2.2-1.1-2.7 0l-2.1 4.9c0 .3-.4.6-.8.8l-5.3 1.9c-1.2.4-1.2 1.9 0 2.5l5.3 1.9c.3 0 .6.4.8.8l2.1 4.9c.4 1.1 2.2 1.1 2.7 0l2.1-4.9c0-.3.4-.6.8-.8l5.3-1.9c1.2-.4 1.2-1.9 0-2.5l-5.3-1.9c-.3 0-.6-.4-.8-.8l-2.1-4.9zm300 93.9c-.4-1.1-2.2-1.1-2.7 0l-2.1 4.9c0 .3-.4.6-.8.8l-5.3 1.9c-1.2.4-1.2 1.9 0 2.5l5.3 1.9c.3.1.6.4.8.8l2.1 4.9c.4 1.1 2.2 1.1 2.7 0l2.1-4.9c0-.3.4-.6.8-.8l5.3-1.9c1.2-.4 1.2-1.9 0-2.5l-5.3-1.9c-.3-.1-.6-.4-.8-.8l-2.1-4.9zm85-20.5c-.4-1.1-2.2-1.1-2.7 0l-2.1 4.9c0 .3-.4.6-.8.8l-5.3 1.9c-1.2.4-1.2 1.9 0 2.5l5.3 1.9c.3.1.6.4.8.8l2.1 4.9c.4 1.1 2.2 1.1 2.7 0l2.1-4.9c0-.3.4-.6.8-.8l5.3-1.9c1.2-.4 1.2-1.9 0-2.5l-5.3-1.9c-.3-.1-.6-.4-.8-.8l-2.1-4.9zm-681.4 44.3c-.4-1.1-2.2-1.1-2.7 0l-2.1 4.9c0 .3-.4.6-.8.8l-5.3 1.9c-1.2.4-1.2 1.9 0 2.5l5.3 1.9c.3.1.6.4.8.8l2.1 4.9c.4 1.1 2.2 1.1 2.7 0l2.1-4.9c0-.3.4-.6.8-.8l5.3-1.9c1.2-.4 1.2-1.9 0-2.5l-5.3-1.9c-.3-.1-.6-.4-.8-.8l-2.1-4.9zm100.4-77.8c-.4-1.1-2.2-1.1-2.7 0l-2.1 4.9c0 .3-.4.6-.8.8l-5.3 1.9c-1.2.4-1.2 1.9 0 2.5l5.3 1.9c.3 0 .6.4.8.8l2.1 4.9c.4 1.1 2.2 1.1 2.7 0l2.1-4.9c0-.3.4-.6.8-.8l5.3-1.9c1.2-.4 1.2-1.9 0-2.5l-5.3-1.9c-.3 0-.6-.4-.8-.8l-2.1-4.9zM960.1-6c-.4-1.1-2.2-1.1-2.7 0l-2.1 4.9c0 .3-.4.6-.8.8l-5.3 1.9c-1.2.4-1.2 1.9 0 2.5l5.3 1.9c.3 0 .6.4.8.8l2.1 4.9c.4 1.1 2.2 1.1 2.7 0l2.1-4.9c0-.3.4-.6.8-.8l5.3-1.9c1.2-.4 1.2-1.9 0-2.5L963-.3c-.3 0-.6-.4-.8-.8L960.1-6zm327.1 25.9c-.4-1.1-2.2-1.1-2.7 0l-2.1 4.9c0 .3-.4.6-.8.8l-5.3 1.9c-1.2.4-1.2 1.9 0 2.5l5.3 1.9c.3.1.6.4.8.8l2.1 4.9c.4 1.1 2.2 1.1 2.7 0l2.1-4.9c0-.3.4-.6.8-.8l5.3-1.9c1.2-.4 1.2-1.9 0-2.5l-5.3-1.9c-.3-.1-.6-.4-.8-.8l-2.1-4.9zM1169.1-6c-.4-1.1-2.2-1.1-2.7 0l-2.1 4.9c0 .3-.4.6-.8.8l-5.3 1.9c-1.2.4-1.2 1.9 0 2.5l5.3 1.9c.3 0 .6.4.8.8l2.1 4.9c.4 1.1 2.2 1.1 2.7 0l2.1-4.9c0-.3.4-.6.8-.8l5.3-1.9c1.2-.4 1.2-1.9 0-2.5L1172-.3c-.3 0-.6-.4-.8-.8l-2.1-4.9zm230.3 84.2c-.4-1.1-2.2-1.1-2.7 0l-2.1 4.9c0 .3-.4.6-.8.8l-5.3 1.9c-1.2.4-1.2 1.9 0 2.5l5.3 1.9c.3 0 .6.4.8.8l2.1 4.9c.4 1.1 2.2 1.1 2.7 0l2.1-4.9c0-.3.4-.6.8-.8l5.3-1.9c1.2-.4 1.2-1.9 0-2.5l-5.3-1.9c-.3 0-.6-.4-.8-.8l-2.1-4.9z" opacity=".5"/><path d="M1686.5 82.2c.8-2.1 3.7-2.1 4.4 0l2.5 6.3c.2.6.8 1.1 1.3 1.3l6.3 2.5c2.1.8 2.1 3.7 0 4.4l-6.3 2.5c-.6.2-1.1.8-1.3 1.3l-2.5 6.3c-.8 2.1-3.7 2.1-4.4 0l-2.5-6.3c-.2-.6-.8-1.1-1.3-1.3l-6.3-2.5c-2.1-.8-2.1-3.7 0-4.4l6.3-2.5c.6-.2 1.1-.8 1.3-1.3l2.5-6.3zm87.4 111.2c.8-2.1 3.7-2.1 4.4 0l2.5 6.3c.2.6.8 1.1 1.3 1.3l6.3 2.5c2.1.8 2.1 3.7 0 4.4l-6.3 2.5c-.6.2-1.1.8-1.3 1.3l-2.5 6.3c-.8 2.1-3.7 2.1-4.4 0l-2.5-6.3c-.2-.6-.8-1.1-1.3-1.3l-6.3-2.5c-2.1-.8-2.1-3.7 0-4.4l6.3-2.5c.6-.2 1.1-.8 1.3-1.3l2.5-6.3zM1815 28.2c.8-2.1 3.7-2.1 4.4 0l2.5 6.3c.2.6.8 1.1 1.3 1.3l6.3 2.5c2.1.8 2.1 3.7 0 4.4l-6.3 2.5c-.6.2-1.1.8-1.3 1.3l-2.5 6.3c-.8 2.1-3.7 2.1-4.4 0l-2.5-6.3c-.2-.6-.8-1.1-1.3-1.3l-6.3-2.5c-2.1-.8-2.1-3.7 0-4.4l6.3-2.5c.6-.2 1.1-.8 1.3-1.3l2.5-6.3zm88.5 68c.8-2.1 3.7-2.1 4.4 0l2.5 6.3c.2.6.8 1.1 1.3 1.3l6.3 2.5c2.1.8 2.1 3.7 0 4.4l-6.3 2.5c-.6.2-1.1.8-1.3 1.3l-2.5 6.3c-.8 2.1-3.7 2.1-4.4 0l-2.5-6.3c-.2-.6-.8-1.1-1.3-1.3l-6.3-2.5c-2.1-.8-2.1-3.7 0-4.4l6.3-2.5c.6-.2 1.1-.8 1.3-1.3l2.5-6.3z"/><path class="B" d="M1880.7 177.5c.4-1.1 1.9-1.1 2.5 0l1.9 4.9c0 .3.4.6.8.8l4.9 1.9c1.1.4 1.1 1.9 0 2.5l-4.9 1.9c-.3.1-.6.4-.8.8l-1.9 4.9c-.4 1.1-1.9 1.1-2.5 0l-1.9-4.9c0-.3-.4-.6-.8-.8l-4.9-1.9c-1.1-.4-1.1-1.9 0-2.5l4.9-1.9c.3-.1.6-.4.8-.8l1.9-4.9zM1789 99.8c.4-1.1 1.9-1.1 2.5 0l1.9 4.9c0 .3.4.6.8.8l4.9 1.9c1.1.4 1.1 1.9 0 2.5l-4.9 1.9c-.3 0-.6.4-.8.8l-1.9 4.9c-.4 1.1-1.9 1.1-2.5 0l-1.9-4.9c0-.3-.4-.6-.8-.8l-4.9-1.9c-1.1-.4-1.1-1.9 0-2.5l4.9-1.9c.3 0 .6-.4.8-.8l1.9-4.9z" opacity=".5"/><use href="#G" class="B" opacity=".5"/><use href="#G" x="-191.1" class="B" opacity=".5"/><path d="M2067.7 201c-.9-2.1-4-2.1-4.9 0l-2.7 6.3c-.2.6-.8 1.1-1.5 1.3l-6.8 2.5c-2.2.8-2.2 3.7 0 4.4l6.8 2.5c.6.2 1.2.8 1.5 1.3l2.7 6.3c.9 2.1 4 2.1 4.9 0l2.7-6.3c.2-.6.8-1.1 1.5-1.3l6.8-2.5c2.2-.8 2.2-3.7 0-4.4l-6.8-2.5c-.6-.2-1.2-.8-1.5-1.3l-2.7-6.3zm-22.9-150.1c-.9-2.1-4-2.1-4.9 0l-2.7 6.3c-.2.6-.8 1.1-1.5 1.3l-6.8 2.5c-2.2.8-2.2 3.7 0 4.4l6.8 2.5c.6.2 1.2.8 1.5 1.3l2.7 6.3c.9 2.1 4 2.1 4.9 0l2.7-6.3c.2-.6.8-1.1 1.5-1.3l6.8-2.5c2.2-.8 2.2-3.7 0-4.4l-6.8-2.5c-.6-.2-1.2-.8-1.5-1.3l-2.7-6.3z"/><path class="B" d="M2017.8,152.6c-.4-1.1-2.2-1.1-2.7,0l-2.1,4.9c0,.3-.4.6-.8.8l-5.3,1.9c-1.2.4-1.2,1.9,0,2.5l5.3,1.9c.3.1.6.4.8.8l2.1,4.9c.4,1.1,2.2,1.1,2.7,0l2.1-4.9c0-.3.4-.6.8-.8l5.3-1.9c1.2-.4,1.2-1.9,0-2.5l-5.3-1.9c-.3-.1-.6-.4-.8-.8l-2.1-4.9Z" opacity=".5"/></g><path d="M33.4,70.2c17.9,0,32.4-14.5,32.4-32.4s-2.2-1.7-3-.5c-3.7,6.1-10.4,10.2-18,10.2-11.6,0-21.1-9.4-21.1-21.1s4.1-14.4,10.2-18c1.3-.8,1-3-.5-3C15.5,5.3,1,19.9,1,37.8s14.5,32.4,32.4,32.4Z" fill="#e6e7e8"/><defs ><path id="B" d="M742.5,135.8c.8-2.1,3.7-2.1,4.4,0l2.5,6.3c.2.6.8,1.1,1.3,1.3l6.3,2.5c2.1.8,2.1,3.7,0,4.4l-6.3,2.5c-.6.2-1.1.8-1.3,1.3l-2.5,6.3c-.8,2.1-3.7,2.1-4.4,0l-2.5-6.3c-.2-.6-.8-1.1-1.3-1.3l-6.3-2.5c-2.1-.8-2.1-3.7,0-4.4l6.3-2.5c.6-.2,1.1-.8,1.3-1.3l2.5-6.3Z"/><path id="C" d="M374.4,213.5c.8-2.1,3.7-2.1,4.4,0l2.5,6.3c.2.6.8,1.1,1.3,1.3l6.3,2.5c2.1.8,2.1,3.7,0,4.4l-6.3,2.5c-.6.2-1.1.8-1.3,1.3l-2.5,6.3c-.8,2.1-3.7,2.1-4.4,0l-2.5-6.3c-.2-.6-.8-1.1-1.3-1.3l-6.3-2.5c-2.1-.8-2.1-3.7,0-4.4l6.3-2.5c.6-.2,1.1-.8,1.3-1.3l2.5-6.3Z"/><path id="D" d="M747.8 24.9c.4-1.1 1.9-1.1 2.5 0l1.9 4.9c0 .3.4.6.8.8l4.9 1.9c1.1.4 1.1 1.9 0 2.5l-4.9 1.9c-.3 0-.6.4-.8.8l-1.9 4.9c-.4 1.1-1.9 1.1-2.5 0l-1.9-4.9c0-.3-.4-.6-.8-.8l-4.9-1.9c-1.1-.4-1.1-1.9 0-2.5l4.9-1.9c.3-.1.6-.4.8-.8l1.9-4.9z"/><path id="E" d="M1107.6,202c-.9-2.1-4-2.1-4.9,0l-2.7,6.3c-.2.6-.8,1.1-1.5,1.3l-6.8,2.5c-2.2.8-2.2,3.7,0,4.4l6.8,2.5c.6.2,1.2.8,1.5,1.3l2.7,6.3c.9,2.1,4,2.1,4.9,0l2.7-6.3c.2-.6.8-1.1,1.5-1.3l6.8-2.5c2.2-.8,2.2-3.7,0-4.4l-6.8-2.5c-.6-.2-1.2-.8-1.5-1.3l-2.7-6.3Z"/><path id="F" d="M1298.9,182.6c-.9-2.1-4-2.1-4.9,0l-2.7,6.3c-.2.6-.8,1.1-1.5,1.3l-6.8,2.5c-2.2.8-2.2,3.7,0,4.4l6.8,2.5c.6.2,1.2.8,1.5,1.3l2.7,6.3c.9,2.1,4,2.1,4.9,0l2.7-6.3c.2-.6.8-1.1,1.5-1.3l6.8-2.5c2.2-.8,2.2-3.7,0-4.4l-6.8-2.5c-.6-.2-1.2-.8-1.5-1.3l-2.7-6.3Z"/><path id="G" d="M1908.8-14.6c.4-1.1,1.9-1.1,2.5,0l1.9,4.9c0,.3.4.6.8.8l4.9,1.9c1.1.4,1.1,1.9,0,2.5l-4.9,1.9c-.3,0-.6.4-.8.8l-1.9,4.9c-.4,1.1-1.9,1.1-2.5,0l-1.9-4.9c0-.3-.4-.6-.8-.8l-4.9-1.9c-1.1-.4-1.1-1.9,0-2.5l4.9-1.9c.3-.1.6-.4.8-.8l1.9-4.9Z"/></defs></svg>