<?xml version="1.0" encoding="UTF-8"?>
<svg xmlns="http://www.w3.org/2000/svg" version="1.1" viewBox="0 0 2000 250">
  <defs>
    <style>
      .cls-1 {
        isolation: isolate;
        opacity: .5;
      }

      .cls-1, .cls-2 {
        fill: #e1e4e5;
      }

      .cls-3 {
        fill: #e6e7e8;
      }
    </style>
  </defs>
  <!-- Generator: Adobe Illustrator 28.7.2, SVG Export Plug-In . SVG Version: 1.2.0 Build 154)  -->
  <g>
    <g id="Layer_1">
      <path class="cls-2" d="M136,81.9c.8-2.1,3.7-2.1,4.4,0l2.5,6.3c.2.6.8,1.1,1.3,1.3l6.3,2.5c2.1.8,2.1,3.7,0,4.4l-6.3,2.5c-.6.2-1.1.8-1.3,1.3l-2.5,6.3c-.8,2.1-3.7,2.1-4.4,0l-2.5-6.3c-.2-.6-.8-1.1-1.3-1.3l-6.3-2.5c-2.1-.8-2.1-3.7,0-4.4l6.3-2.5c.6-.2,1.1-.8,1.3-1.3l2.5-6.3Z"/>
      <path class="cls-1" d="M150.7,29.9c.4-1.1,1.9-1.1,2.5,0l1.9,4.9c.1.3.4.6.8.8l4.9,1.9c1.1.4,1.1,1.9,0,2.5l-4.9,1.9c-.3,0-.6.4-.8.8l-1.9,4.9c-.4,1.1-1.9,1.1-2.5,0l-1.9-4.9c-.1-.3-.4-.6-.8-.8l-4.9-1.9c-1.1-.4-1.1-1.9,0-2.5l4.9-1.9c.3,0,.6-.4.8-.8l1.9-4.9Z"/>
      <path class="cls-2" d="M331.2,55.9c.8-2.1,3.7-2.1,4.4,0l2.5,6.3c.2.6.8,1.1,1.3,1.3l6.3,2.5c2.1.8,2.1,3.7,0,4.4l-6.3,2.5c-.6.2-1.1.8-1.3,1.3l-2.5,6.3c-.8,2.1-3.7,2.1-4.4,0l-2.5-6.3c-.2-.6-.8-1.1-1.3-1.3l-6.3-2.5c-2.1-.8-2.1-3.7,0-4.4l6.3-2.5c.6-.2,1.1-.8,1.3-1.3l2.5-6.3Z"/>
      <path class="cls-2" d="M525.5,121.7c.8-2.1,3.7-2.1,4.4,0l2.5,6.3c.2.6.8,1.1,1.3,1.3l6.3,2.5c2.1.8,2.1,3.7,0,4.4l-6.3,2.5c-.6.2-1.1.8-1.3,1.3l-2.5,6.3c-.8,2.1-3.7,2.1-4.4,0l-2.5-6.3c-.2-.6-.8-1.1-1.3-1.3l-6.3-2.5c-2.1-.8-2.1-3.7,0-4.4l6.3-2.5c.6-.2,1.1-.8,1.3-1.3l2.5-6.3Z"/>
      <path class="cls-2" d="M617.4,199.7c.8-2.1,3.7-2.1,4.4,0l2.5,6.3c.2.6.8,1.1,1.3,1.3l6.3,2.5c2.1.8,2.1,3.7,0,4.4l-6.3,2.5c-.6.2-1.1.8-1.3,1.3l-2.5,6.3c-.8,2.1-3.7,2.1-4.4,0l-2.5-6.3c-.2-.6-.8-1.1-1.3-1.3l-6.3-2.5c-2.1-.8-2.1-3.7,0-4.4l6.3-2.5c.6-.2,1.1-.8,1.3-1.3l2.5-6.3Z"/>
      <path class="cls-2" d="M654,67.8c.8-2.1,3.7-2.1,4.4,0l2.5,6.3c.2.6.8,1.1,1.3,1.3l6.3,2.5c2.1.8,2.1,3.7,0,4.4l-6.3,2.5c-.6.2-1.1.8-1.3,1.3l-2.5,6.3c-.8,2.1-3.7,2.1-4.4,0l-2.5-6.3c-.2-.6-.8-1.1-1.3-1.3l-6.3-2.5c-2.1-.8-2.1-3.7,0-4.4l6.3-2.5c.6-.2,1.1-.8,1.3-1.3l2.5-6.3Z"/>
      <path class="cls-2" d="M742.5,135.8c.8-2.1,3.7-2.1,4.4,0l2.5,6.3c.2.6.8,1.1,1.3,1.3l6.3,2.5c2.1.8,2.1,3.7,0,4.4l-6.3,2.5c-.6.2-1.1.8-1.3,1.3l-2.5,6.3c-.8,2.1-3.7,2.1-4.4,0l-2.5-6.3c-.2-.6-.8-1.1-1.3-1.3l-6.3-2.5c-2.1-.8-2.1-3.7,0-4.4l6.3-2.5c.6-.2,1.1-.8,1.3-1.3l2.5-6.3Z"/>
      <path class="cls-2" d="M438.1,213.5c.8-2.1,3.7-2.1,4.4,0l2.5,6.3c.2.6.8,1.1,1.3,1.3l6.3,2.5c2.1.8,2.1,3.7,0,4.4l-6.3,2.5c-.6.2-1.1.8-1.3,1.3l-2.5,6.3c-.8,2.1-3.7,2.1-4.4,0l-2.5-6.3c-.2-.6-.8-1.1-1.3-1.3l-6.3-2.5c-2.1-.8-2.1-3.7,0-4.4l6.3-2.5c.6-.2,1.1-.8,1.3-1.3l2.5-6.3Z"/>
      <path class="cls-2" d="M374.4,213.5c.8-2.1,3.7-2.1,4.4,0l2.5,6.3c.2.6.8,1.1,1.3,1.3l6.3,2.5c2.1.8,2.1,3.7,0,4.4l-6.3,2.5c-.6.2-1.1.8-1.3,1.3l-2.5,6.3c-.8,2.1-3.7,2.1-4.4,0l-2.5-6.3c-.2-.6-.8-1.1-1.3-1.3l-6.3-2.5c-2.1-.8-2.1-3.7,0-4.4l6.3-2.5c.6-.2,1.1-.8,1.3-1.3l2.5-6.3Z"/>
      <path class="cls-2" d="M239.4,135.8c.8-2.1,3.7-2.1,4.4,0l2.5,6.3c.2.6.8,1.1,1.3,1.3l6.3,2.5c2.1.8,2.1,3.7,0,4.4l-6.3,2.5c-.6.2-1.1.8-1.3,1.3l-2.5,6.3c-.8,2.1-3.7,2.1-4.4,0l-2.5-6.3c-.2-.6-.8-1.1-1.3-1.3l-6.3-2.5c-2.1-.8-2.1-3.7,0-4.4l6.3-2.5c.6-.2,1.1-.8,1.3-1.3l2.5-6.3Z"/>
      <path class="cls-2" d="M245.9,213.5c.8-2.1,3.7-2.1,4.4,0l2.5,6.3c.2.6.8,1.1,1.3,1.3l6.3,2.5c2.1.8,2.1,3.7,0,4.4l-6.3,2.5c-.6.2-1.1.8-1.3,1.3l-2.5,6.3c-.8,2.1-3.7,2.1-4.4,0l-2.5-6.3c-.2-.6-.8-1.1-1.3-1.3l-6.3-2.5c-2.1-.8-2.1-3.7,0-4.4l6.3-2.5c.6-.2,1.1-.8,1.3-1.3l2.5-6.3Z"/>
      <path class="cls-2" d="M28.9,209.9c.8-2.1,3.7-2.1,4.4,0l2.5,6.3c.2.6.8,1.1,1.3,1.3l6.3,2.5c2.1.8,2.1,3.7,0,4.4l-6.3,2.5c-.6.2-1.1.8-1.3,1.3l-2.5,6.3c-.8,2.1-3.7,2.1-4.4,0l-2.5-6.3c-.2-.6-.8-1.1-1.3-1.3l-6.3-2.5c-2.1-.8-2.1-3.7,0-4.4l6.3-2.5c.6-.2,1.1-.8,1.3-1.3,0,0,2.5-6.3,2.5-6.3Z"/>
      <path class="cls-1" d="M404.5,163.1c.4-1.1,1.9-1.1,2.5,0l1.9,4.9c.1.3.4.6.8.8l4.9,1.9c1.1.4,1.1,1.9,0,2.5l-4.9,1.9c-.3.1-.6.4-.8.8l-1.9,4.9c-.4,1.1-1.9,1.1-2.5,0l-1.9-4.9c-.1-.3-.4-.6-.8-.8l-4.9-1.9c-1.1-.4-1.1-1.9,0-2.5l4.9-1.9c.3-.1.6-.4.8-.8l1.9-4.9Z"/>
      <path class="cls-1" d="M128.2,113.9c.4-1.1,1.9-1.1,2.5,0l1.9,4.9c.1.3.4.6.8.8l4.9,1.9c1.1.4,1.1,1.9,0,2.5l-4.9,1.9c-.3,0-.6.4-.8.8l-1.9,4.9c-.4,1.1-1.9,1.1-2.5,0l-1.9-4.9c0-.3-.4-.6-.8-.8l-4.9-1.9c-1.1-.4-1.1-1.9,0-2.5l4.9-1.9c.3,0,.6-.4.8-.8,0,0,1.9-4.9,1.9-4.9Z"/>
      <path class="cls-1" d="M174.5,193.3c.4-1.1,1.9-1.1,2.5,0l1.9,4.9c.1.3.4.6.8.8l4.9,1.9c1.1.4,1.1,1.9,0,2.5l-4.9,1.9c-.3.1-.6.4-.8.8l-1.9,4.9c-.4,1.1-1.9,1.1-2.5,0l-1.9-4.9c-.1-.3-.4-.6-.8-.8l-4.9-1.9c-1.1-.4-1.1-1.9,0-2.5l4.9-1.9c.3-.1.6-.4.8-.8l1.9-4.9Z"/>
      <path class="cls-1" d="M96.8,163.8c.4-1.1,1.9-1.1,2.5,0l1.9,4.9c0,.3.4.6.8.8l4.9,1.9c1.1.4,1.1,1.9,0,2.5l-4.9,1.9c-.3.1-.6.4-.8.8l-1.9,4.9c-.4,1.1-1.9,1.1-2.5,0l-1.9-4.9c0-.3-.4-.6-.8-.8l-4.9-1.9c-1.1-.4-1.1-1.9,0-2.5l4.9-1.9c.3-.1.6-.4.8-.8l1.9-4.9Z"/>
      <path class="cls-1" d="M719.8,217.1c.4-1.1,1.9-1.1,2.5,0l1.9,4.9c0,.3.4.6.8.8l4.9,1.9c1.1.4,1.1,1.9,0,2.5l-4.9,1.9c-.3.1-.6.4-.8.8l-1.9,4.9c-.4,1.1-1.9,1.1-2.5,0l-1.9-4.9c0-.3-.4-.6-.8-.8l-4.9-1.9c-1.1-.4-1.1-1.9,0-2.5l4.9-1.9c.3-.1.6-.4.8-.8l1.9-4.9Z"/>
      <path class="cls-1" d="M628,139.3c.4-1.1,1.9-1.1,2.5,0l1.9,4.9c0,.3.4.6.8.8l4.9,1.9c1.1.4,1.1,1.9,0,2.5l-4.9,1.9c-.3.1-.6.4-.8.8l-1.9,4.9c-.4,1.1-1.9,1.1-2.5,0l-1.9-4.9c0-.3-.4-.6-.8-.8l-4.9-1.9c-1.1-.4-1.1-1.9,0-2.5l4.9-1.9c.3-.1.6-.4.8-.8l1.9-4.9Z"/>
      <path class="cls-1" d="M747.8,24.9c.4-1.1,1.9-1.1,2.5,0l1.9,4.9c0,.3.4.6.8.8l4.9,1.9c1.1.4,1.1,1.9,0,2.5l-4.9,1.9c-.3,0-.6.4-.8.8l-1.9,4.9c-.4,1.1-1.9,1.1-2.5,0l-1.9-4.9c0-.3-.4-.6-.8-.8l-4.9-1.9c-1.1-.4-1.1-1.9,0-2.5l4.9-1.9c.3-.1.6-.4.8-.8,0,0,1.9-4.9,1.9-4.9Z"/>
      <path class="cls-1" d="M448.8,50.8c.4-1.1,1.9-1.1,2.5,0l1.9,4.9c.1.3.4.6.8.8l4.9,1.9c1.1.4,1.1,1.9,0,2.5l-4.9,1.9c-.3,0-.6.4-.8.8l-1.9,4.9c-.4,1.1-1.9,1.1-2.5,0l-1.9-4.9c-.1-.3-.4-.6-.8-.8l-4.9-1.9c-1.1-.4-1.1-1.9,0-2.5l4.9-1.9c.3,0,.6-.4.8-.8,0,0,1.9-4.9,1.9-4.9Z"/>
      <path class="cls-1" d="M556.7,24.9c.4-1.1,1.9-1.1,2.5,0l1.9,4.9c0,.3.4.6.8.8l4.9,1.9c1.1.4,1.1,1.9,0,2.5l-4.9,1.9c-.3,0-.6.4-.8.8l-1.9,4.9c-.4,1.1-1.9,1.1-2.5,0l-1.9-4.9c0-.3-.4-.6-.8-.8l-4.9-1.9c-1.1-.4-1.1-1.9,0-2.5l4.9-1.9c.3-.1.6-.4.8-.8,0,0,1.9-4.9,1.9-4.9Z"/>
      <path class="cls-1" d="M25.7,123.6c.4-1.1,1.9-1.1,2.5,0l1.9,4.9c.1.3.4.6.8.8l4.9,1.9c1.1.4,1.1,1.9,0,2.5l-4.9,1.9c-.3.1-.6.4-.8.8l-1.9,4.9c-.4,1.1-1.9,1.1-2.5,0l-1.9-4.9c-.1-.3-.4-.6-.8-.8l-4.9-1.9c-1.1-.4-1.1-1.9,0-2.5l4.9-1.9c.3-.1.6-.4.8-.8l1.9-4.9Z"/>
      <path class="cls-1" d="M440.4,103.6c.4-1.1,1.9-1.1,2.5,0l1.9,4.9c.1.3.4.6.8.8l4.9,1.9c1.1.4,1.1,1.9,0,2.5l-4.9,1.9c-.3,0-.6.4-.8.8l-1.9,4.9c-.4,1.1-1.9,1.1-2.5,0l-1.9-4.9c-.1-.3-.4-.6-.8-.8l-4.9-1.9c-1.1-.4-1.1-1.9,0-2.5l4.9-1.9c.3,0,.6-.4.8-.8l1.9-4.9Z"/>
      <path class="cls-1" d="M337.9,113.3c.4-1.1,1.9-1.1,2.5,0l1.9,4.9c.1.3.4.6.8.8l4.9,1.9c1.1.4,1.1,1.9,0,2.5l-4.9,1.9c-.3,0-.6.4-.8.8l-1.9,4.9c-.4,1.1-1.9,1.1-2.5,0l-1.9-4.9c-.1-.3-.4-.6-.8-.8l-4.9-1.9c-1.1-.4-1.1-1.9,0-2.5l4.9-1.9c.3,0,.6-.4.8-.8l1.9-4.9Z"/>
      <path class="cls-2" d="M1629.4,51.1c-.9-2.1-4-2.1-4.9,0l-2.7,6.3c-.2.6-.8,1.1-1.5,1.3l-6.8,2.5c-2.2.8-2.2,3.7,0,4.4l6.8,2.5c.6.2,1.2.8,1.5,1.3l2.7,6.3c.9,2.1,4,2.1,4.9,0l2.7-6.3c.2-.6.8-1.1,1.5-1.3l6.8-2.5c2.2-.8,2.2-3.7,0-4.4l-6.8-2.5c-.6-.2-1.2-.8-1.5-1.3l-2.7-6.3Z"/>
      <path class="cls-1" d="M1607.5,73.7c-.4-1.1-2.2-1.1-2.7,0l-2.1,4.9c0,.3-.4.6-.8.8l-5.3,1.9c-1.2.4-1.2,1.9,0,2.5l5.3,1.9c.3,0,.6.4.8.8l2.1,4.9c.4,1.1,2.2,1.1,2.7,0l2.1-4.9c0-.3.4-.6.8-.8l5.3-1.9c1.2-.4,1.2-1.9,0-2.5l-5.3-1.9c-.3,0-.6-.4-.8-.8l-2.1-4.9Z"/>
      <path class="cls-2" d="M1415.8,25c-.9-2.1-4-2.1-4.9,0l-2.7,6.3c-.2.6-.8,1.1-1.5,1.3l-6.8,2.5c-2.2.8-2.2,3.7,0,4.4l6.8,2.5c.6.2,1.2.8,1.5,1.3l2.7,6.3c.9,2.1,4,2.1,4.9,0l2.7-6.3c.2-.6.8-1.1,1.5-1.3l6.8-2.5c2.2-.8,2.2-3.7,0-4.4l-6.8-2.5c-.6-.2-1.2-.8-1.5-1.3l-2.7-6.3Z"/>
      <path class="cls-2" d="M1203.2,90.8c-.9-2.1-4-2.1-4.9,0l-2.7,6.3c-.2.6-.8,1.1-1.5,1.3l-6.8,2.5c-2.2.8-2.2,3.7,0,4.4l6.8,2.5c.6.2,1.2.8,1.5,1.3l2.7,6.3c.9,2.1,4,2.1,4.9,0l2.7-6.3c.2-.6.8-1.1,1.5-1.3l6.8-2.5c2.2-.8,2.2-3.7,0-4.4l-6.8-2.5c-.6-.2-1.2-.8-1.5-1.3l-2.7-6.3Z"/>
      <path class="cls-2" d="M1107.6,202c-.9-2.1-4-2.1-4.9,0l-2.7,6.3c-.2.6-.8,1.1-1.5,1.3l-6.8,2.5c-2.2.8-2.2,3.7,0,4.4l6.8,2.5c.6.2,1.2.8,1.5,1.3l2.7,6.3c.9,2.1,4,2.1,4.9,0l2.7-6.3c.2-.6.8-1.1,1.5-1.3l6.8-2.5c2.2-.8,2.2-3.7,0-4.4l-6.8-2.5c-.6-.2-1.2-.8-1.5-1.3l-2.7-6.3Z"/>
      <path class="cls-2" d="M1062.8,36.9c-.9-2.1-4-2.1-4.9,0l-2.7,6.3c-.2.6-.8,1.1-1.5,1.3l-6.8,2.5c-2.2.8-2.2,3.7,0,4.4l6.8,2.5c.6.2,1.2.8,1.5,1.3l2.7,6.3c.9,2.1,4,2.1,4.9,0l2.7-6.3c.2-.6.8-1.1,1.5-1.3l6.8-2.5c2.2-.8,2.2-3.7,0-4.4l-6.8-2.5c-.6-.2-1.2-.8-1.5-1.3l-2.7-6.3h0Z"/>
      <path class="cls-2" d="M965.9,104.9c-.9-2.1-4-2.1-4.9,0l-2.7,6.3c-.2.6-.8,1.1-1.5,1.3l-6.8,2.5c-2.2.8-2.2,3.7,0,4.4l6.8,2.5c.6.2,1.2.8,1.5,1.3l2.7,6.3c.9,2.1,4,2.1,4.9,0l2.7-6.3c.2-.6.8-1.1,1.5-1.3l6.8-2.5c2.2-.8,2.2-3.7,0-4.4l-6.8-2.5c-.6-.2-1.2-.8-1.5-1.3l-2.7-6.3Z"/>
      <path class="cls-2" d="M1298.9,182.6c-.9-2.1-4-2.1-4.9,0l-2.7,6.3c-.2.6-.8,1.1-1.5,1.3l-6.8,2.5c-2.2.8-2.2,3.7,0,4.4l6.8,2.5c.6.2,1.2.8,1.5,1.3l2.7,6.3c.9,2.1,4,2.1,4.9,0l2.7-6.3c.2-.6.8-1.1,1.5-1.3l6.8-2.5c2.2-.8,2.2-3.7,0-4.4l-6.8-2.5c-.6-.2-1.2-.8-1.5-1.3l-2.7-6.3Z"/>
      <path class="cls-2" d="M1368.6,182.6c-.9-2.1-4-2.1-4.9,0l-2.7,6.3c-.2.6-.8,1.1-1.5,1.3l-6.8,2.5c-2.2.8-2.2,3.7,0,4.4l6.8,2.5c.6.2,1.2.8,1.5,1.3l2.7,6.3c.9,2.1,4,2.1,4.9,0l2.7-6.3c.2-.6.8-1.1,1.5-1.3l6.8-2.5c2.2-.8,2.2-3.7,0-4.4l-6.8-2.5c-.6-.2-1.2-.8-1.5-1.3l-2.7-6.3Z"/>
      <path class="cls-2" d="M1516.2,104.9c-.9-2.1-4-2.1-4.9,0l-2.7,6.3c-.2.6-.8,1.1-1.5,1.3l-6.8,2.5c-2.2.8-2.2,3.7,0,4.4l6.8,2.5c.6.2,1.2.8,1.5,1.3l2.7,6.3c.9,2.1,4,2.1,4.9,0l2.7-6.3c.2-.6.8-1.1,1.5-1.3l6.8-2.5c2.2-.8,2.2-3.7,0-4.4l-6.8-2.5c-.6-.2-1.2-.8-1.5-1.3l-2.7-6.3Z"/>
      <path class="cls-2" d="M1509.1,202c-.9-2.1-4-2.1-4.9,0l-2.7,6.3c-.2.6-.8,1.1-1.5,1.3l-6.8,2.5c-2.2.8-2.2,3.7,0,4.4l6.8,2.5c.6.2,1.2.8,1.5,1.3l2.7,6.3c.9,2.1,4,2.1,4.9,0l2.7-6.3c.2-.6.8-1.1,1.5-1.3l6.8-2.5c2.2-.8,2.2-3.7,0-4.4l-6.8-2.5c-.6-.2-1.2-.8-1.5-1.3l-2.7-6.3Z"/>
      <path class="cls-2" d="M883.9,70.3c-.9-2.1-4-2.1-4.9,0l-2.7,6.3c-.2.6-.8,1.1-1.5,1.3l-6.8,2.5c-2.2.8-2.2,3.7,0,4.4l6.8,2.5c.6.2,1.2.8,1.5,1.3l2.7,6.3c.9,2.1,4,2.1,4.9,0l2.7-6.3c.2-.6.8-1.1,1.5-1.3l6.8-2.5c2.2-.8,2.2-3.7,0-4.4l-6.8-2.5c-.6-.2-1.2-.8-1.5-1.3l-2.7-6.3Z"/>
      <path class="cls-1" d="M1335.6,132.2c-.4-1.1-2.2-1.1-2.7,0l-2.1,4.9c0,.3-.4.6-.8.8l-5.3,1.9c-1.2.4-1.2,1.9,0,2.5l5.3,1.9c.3.1.6.4.8.8l2.1,4.9c.4,1.1,2.2,1.1,2.7,0l2.1-4.9c0-.3.4-.6.8-.8l5.3-1.9c1.2-.4,1.2-1.9,0-2.5l-5.3-1.9c-.3-.1-.6-.4-.8-.8l-2.1-4.9Z"/>
      <path class="cls-1" d="M1287.2,68.5c-.4-1.1-2.2-1.1-2.7,0l-2.1,4.9c0,.3-.4.6-.8.8l-5.3,1.9c-1.2.4-1.2,1.9,0,2.5l5.3,1.9c.3,0,.6.4.8.8l2.1,4.9c.4,1.1,2.2,1.1,2.7,0l2.1-4.9c0-.3.4-.6.8-.8l5.3-1.9c1.2-.4,1.2-1.9,0-2.5l-5.3-1.9c-.3,0-.6-.4-.8-.8l-2.1-4.9Z"/>
      <path class="cls-1" d="M1587.2,162.4c-.4-1.1-2.2-1.1-2.7,0l-2.1,4.9c0,.3-.4.6-.8.8l-5.3,1.9c-1.2.4-1.2,1.9,0,2.5l5.3,1.9c.3.1.6.4.8.8l2.1,4.9c.4,1.1,2.2,1.1,2.7,0l2.1-4.9c0-.3.4-.6.8-.8l5.3-1.9c1.2-.4,1.2-1.9,0-2.5l-5.3-1.9c-.3-.1-.6-.4-.8-.8l-2.1-4.9Z"/>
      <path class="cls-1" d="M1672.2,141.9c-.4-1.1-2.2-1.1-2.7,0l-2.1,4.9c0,.3-.4.6-.8.8l-5.3,1.9c-1.2.4-1.2,1.9,0,2.5l5.3,1.9c.3.1.6.4.8.8l2.1,4.9c.4,1.1,2.2,1.1,2.7,0l2.1-4.9c0-.3.4-.6.8-.8l5.3-1.9c1.2-.4,1.2-1.9,0-2.5l-5.3-1.9c-.3-.1-.6-.4-.8-.8l-2.1-4.9Z"/>
      <path class="cls-1" d="M990.8,186.2c-.4-1.1-2.2-1.1-2.7,0l-2.1,4.9c0,.3-.4.6-.8.8l-5.3,1.9c-1.2.4-1.2,1.9,0,2.5l5.3,1.9c.3.1.6.4.8.8l2.1,4.9c.4,1.1,2.2,1.1,2.7,0l2.1-4.9c0-.3.4-.6.8-.8l5.3-1.9c1.2-.4,1.2-1.9,0-2.5l-5.3-1.9c-.3-.1-.6-.4-.8-.8l-2.1-4.9Z"/>
      <path class="cls-1" d="M1091.2,108.4c-.4-1.1-2.2-1.1-2.7,0l-2.1,4.9c0,.3-.4.6-.8.8l-5.3,1.9c-1.2.4-1.2,1.9,0,2.5l5.3,1.9c.3,0,.6.4.8.8l2.1,4.9c.4,1.1,2.2,1.1,2.7,0l2.1-4.9c0-.3.4-.6.8-.8l5.3-1.9c1.2-.4,1.2-1.9,0-2.5l-5.3-1.9c-.3,0-.6-.4-.8-.8l-2.1-4.9Z"/>
      <path class="cls-1" d="M960.1-6c-.4-1.1-2.2-1.1-2.7,0l-2.1,4.9c0,.3-.4.6-.8.8l-5.3,1.9c-1.2.4-1.2,1.9,0,2.5l5.3,1.9c.3,0,.6.4.8.8l2.1,4.9c.4,1.1,2.2,1.1,2.7,0l2.1-4.9c0-.3.4-.6.8-.8l5.3-1.9c1.2-.4,1.2-1.9,0-2.5l-5.3-1.9c-.3,0-.6-.4-.8-.8l-2.1-4.9Z"/>
      <path class="cls-1" d="M1287.2,19.9c-.4-1.1-2.2-1.1-2.7,0l-2.1,4.9c0,.3-.4.6-.8.8l-5.3,1.9c-1.2.4-1.2,1.9,0,2.5l5.3,1.9c.3.1.6.4.8.8l2.1,4.9c.4,1.1,2.2,1.1,2.7,0l2.1-4.9c0-.3.4-.6.8-.8l5.3-1.9c1.2-.4,1.2-1.9,0-2.5l-5.3-1.9c-.3-.1-.6-.4-.8-.8l-2.1-4.9Z"/>
      <path class="cls-1" d="M1169.1-6c-.4-1.1-2.2-1.1-2.7,0l-2.1,4.9c0,.3-.4.6-.8.8l-5.3,1.9c-1.2.4-1.2,1.9,0,2.5l5.3,1.9c.3,0,.6.4.8.8l2.1,4.9c.4,1.1,2.2,1.1,2.7,0l2.1-4.9c0-.3.4-.6.8-.8l5.3-1.9c1.2-.4,1.2-1.9,0-2.5l-5.3-1.9c-.3,0-.6-.4-.8-.8l-2.1-4.9Z"/>
      <path class="cls-1" d="M1399.4,78.2c-.4-1.1-2.2-1.1-2.7,0l-2.1,4.9c0,.3-.4.6-.8.8l-5.3,1.9c-1.2.4-1.2,1.9,0,2.5l5.3,1.9c.3,0,.6.4.8.8l2.1,4.9c.4,1.1,2.2,1.1,2.7,0l2.1-4.9c0-.3.4-.6.8-.8l5.3-1.9c1.2-.4,1.2-1.9,0-2.5l-5.3-1.9c-.3,0-.6-.4-.8-.8l-2.1-4.9Z"/>
      <path class="cls-2" d="M1686.5,82.2c.8-2.1,3.7-2.1,4.4,0l2.5,6.3c.2.6.8,1.1,1.3,1.3l6.3,2.5c2.1.8,2.1,3.7,0,4.4l-6.3,2.5c-.6.2-1.1.8-1.3,1.3l-2.5,6.3c-.8,2.1-3.7,2.1-4.4,0l-2.5-6.3c-.2-.6-.8-1.1-1.3-1.3l-6.3-2.5c-2.1-.8-2.1-3.7,0-4.4l6.3-2.5c.6-.2,1.1-.8,1.3-1.3l2.5-6.3Z"/>
      <path class="cls-2" d="M1773.9,193.4c.8-2.1,3.7-2.1,4.4,0l2.5,6.3c.2.6.8,1.1,1.3,1.3l6.3,2.5c2.1.8,2.1,3.7,0,4.4l-6.3,2.5c-.6.2-1.1.8-1.3,1.3l-2.5,6.3c-.8,2.1-3.7,2.1-4.4,0l-2.5-6.3c-.2-.6-.8-1.1-1.3-1.3l-6.3-2.5c-2.1-.8-2.1-3.7,0-4.4l6.3-2.5c.6-.2,1.1-.8,1.3-1.3l2.5-6.3Z"/>
      <path class="cls-2" d="M1815,28.2c.8-2.1,3.7-2.1,4.4,0l2.5,6.3c.2.6.8,1.1,1.3,1.3l6.3,2.5c2.1.8,2.1,3.7,0,4.4l-6.3,2.5c-.6.2-1.1.8-1.3,1.3l-2.5,6.3c-.8,2.1-3.7,2.1-4.4,0l-2.5-6.3c-.2-.6-.8-1.1-1.3-1.3l-6.3-2.5c-2.1-.8-2.1-3.7,0-4.4l6.3-2.5c.6-.2,1.1-.8,1.3-1.3l2.5-6.3Z"/>
      <path class="cls-2" d="M1903.5,96.2c.8-2.1,3.7-2.1,4.4,0l2.5,6.3c.2.6.8,1.1,1.3,1.3l6.3,2.5c2.1.8,2.1,3.7,0,4.4l-6.3,2.5c-.6.2-1.1.8-1.3,1.3l-2.5,6.3c-.8,2.1-3.7,2.1-4.4,0l-2.5-6.3c-.2-.6-.8-1.1-1.3-1.3l-6.3-2.5c-2.1-.8-2.1-3.7,0-4.4l6.3-2.5c.6-.2,1.1-.8,1.3-1.3l2.5-6.3Z"/>
      <path class="cls-1" d="M1880.7,177.5c.4-1.1,1.9-1.1,2.5,0l1.9,4.9c0,.3.4.6.8.8l4.9,1.9c1.1.4,1.1,1.9,0,2.5l-4.9,1.9c-.3.1-.6.4-.8.8l-1.9,4.9c-.4,1.1-1.9,1.1-2.5,0l-1.9-4.9c0-.3-.4-.6-.8-.8l-4.9-1.9c-1.1-.4-1.1-1.9,0-2.5l4.9-1.9c.3-.1.6-.4.8-.8l1.9-4.9Z"/>
      <path class="cls-1" d="M1789,99.8c.4-1.1,1.9-1.1,2.5,0l1.9,4.9c0,.3.4.6.8.8l4.9,1.9c1.1.4,1.1,1.9,0,2.5l-4.9,1.9c-.3,0-.6.4-.8.8l-1.9,4.9c-.4,1.1-1.9,1.1-2.5,0l-1.9-4.9c0-.3-.4-.6-.8-.8l-4.9-1.9c-1.1-.4-1.1-1.9,0-2.5l4.9-1.9c.3,0,.6-.4.8-.8l1.9-4.9Z"/>
      <path class="cls-1" d="M1908.8-14.6c.4-1.1,1.9-1.1,2.5,0l1.9,4.9c0,.3.4.6.8.8l4.9,1.9c1.1.4,1.1,1.9,0,2.5l-4.9,1.9c-.3,0-.6.4-.8.8l-1.9,4.9c-.4,1.1-1.9,1.1-2.5,0l-1.9-4.9c0-.3-.4-.6-.8-.8l-4.9-1.9c-1.1-.4-1.1-1.9,0-2.5l4.9-1.9c.3-.1.6-.4.8-.8l1.9-4.9Z"/>
      <path class="cls-1" d="M1717.7-14.6c.4-1.1,1.9-1.1,2.5,0l1.9,4.9c0,.3.4.6.8.8l4.9,1.9c1.1.4,1.1,1.9,0,2.5l-4.9,1.9c-.3,0-.6.4-.8.8l-1.9,4.9c-.4,1.1-1.9,1.1-2.5,0l-1.9-4.9c0-.3-.4-.6-.8-.8l-4.9-1.9c-1.1-.4-1.1-1.9,0-2.5l4.9-1.9c.3-.1.6-.4.8-.8l1.9-4.9Z"/>
      <path class="cls-2" d="M2067.7,201c-.9-2.1-4-2.1-4.9,0l-2.7,6.3c-.2.6-.8,1.1-1.5,1.3l-6.8,2.5c-2.2.8-2.2,3.7,0,4.4l6.8,2.5c.6.2,1.2.8,1.5,1.3l2.7,6.3c.9,2.1,4,2.1,4.9,0l2.7-6.3c.2-.6.8-1.1,1.5-1.3l6.8-2.5c2.2-.8,2.2-3.7,0-4.4l-6.8-2.5c-.6-.2-1.2-.8-1.5-1.3l-2.7-6.3Z"/>
      <path class="cls-2" d="M2044.8,50.9c-.9-2.1-4-2.1-4.9,0l-2.7,6.3c-.2.6-.8,1.1-1.5,1.3l-6.8,2.5c-2.2.8-2.2,3.7,0,4.4l6.8,2.5c.6.2,1.2.8,1.5,1.3l2.7,6.3c.9,2.1,4,2.1,4.9,0l2.7-6.3c.2-.6.8-1.1,1.5-1.3l6.8-2.5c2.2-.8,2.2-3.7,0-4.4l-6.8-2.5c-.6-.2-1.2-.8-1.5-1.3l-2.7-6.3Z"/>
      <path class="cls-1" d="M2017.8,152.6c-.4-1.1-2.2-1.1-2.7,0l-2.1,4.9c0,.3-.4.6-.8.8l-5.3,1.9c-1.2.4-1.2,1.9,0,2.5l5.3,1.9c.3.1.6.4.8.8l2.1,4.9c.4,1.1,2.2,1.1,2.7,0l2.1-4.9c0-.3.4-.6.8-.8l5.3-1.9c1.2-.4,1.2-1.9,0-2.5l-5.3-1.9c-.3-.1-.6-.4-.8-.8l-2.1-4.9Z"/>
      <g id="SVGRepo_iconCarrier">
        <path class="cls-3" d="M33.4,70.2c17.9,0,32.4-14.5,32.4-32.4s-2.2-1.7-3-.5c-3.7,6.1-10.4,10.2-18,10.2-11.6,0-21.1-9.4-21.1-21.1s4.1-14.4,10.2-18c1.3-.8,1-3-.5-3C15.5,5.3,1,19.9,1,37.8s14.5,32.4,32.4,32.4Z"/>
      </g>
    </g>
  </g>
</svg>