<?xml version="1.0" encoding="UTF-8"?>
<svg xmlns="http://www.w3.org/2000/svg" version="1.1" viewBox="0 0 2000 250">
  <defs>
    <style>
      .cls-1 {
        isolation: isolate;
        opacity: .5;
      }

      .cls-1, .cls-2 {
        fill: #e1e4e5;
      }

      .cls-3 {
        fill: #f9f9f9;
      }
    </style>
  </defs>
  <!-- Generator: Adobe Illustrator 28.7.2, SVG Export Plug-In . SVG Version: 1.2.0 Build 154)  -->
  <g>
    <g id="Layer_1">
      <path class="cls-2" d="M136,81.9c.8-2.1,3.7-2.1,4.4,0l2.5,6.3c.2.6.8,1.1,1.3,1.3l6.3,2.5c2.1.8,2.1,3.7,0,4.4l-6.3,2.5c-.6.2-1.1.8-1.3,1.3l-2.5,6.3c-.8,2.1-3.7,2.1-4.4,0l-2.5-6.3c-.2-.6-.8-1.1-1.3-1.3l-6.3-2.5c-2.1-.8-2.1-3.7,0-4.4l6.3-2.5c.6-.2,1.1-.8,1.3-1.3l2.5-6.3Z"/>
      <path class="cls-1" d="M150.7,29.9c.4-1.1,1.9-1.1,2.5,0l1.9,4.9c.1.3.4.6.8.8l4.9,1.9c1.1.4,1.1,1.9,0,2.5l-4.9,1.9c-.3.1-.6.4-.8.8l-1.9,4.9c-.4,1.1-1.9,1.1-2.5,0l-1.9-4.9c-.1-.3-.4-.6-.8-.8l-4.9-1.9c-1.1-.4-1.1-1.9,0-2.5l4.9-1.9c.3-.1.6-.4.8-.8l1.9-4.9Z"/>
      <path class="cls-2" d="M331.2,55.9c.8-2.1,3.7-2.1,4.4,0l2.5,6.3c.2.6.8,1.1,1.3,1.3l6.3,2.5c2.1.8,2.1,3.7,0,4.4l-6.3,2.5c-.6.2-1.1.8-1.3,1.3l-2.5,6.3c-.8,2.1-3.7,2.1-4.4,0l-2.5-6.3c-.2-.6-.8-1.1-1.3-1.3l-6.3-2.5c-2.1-.8-2.1-3.7,0-4.4l6.3-2.5c.6-.2,1.1-.8,1.3-1.3,0,0,2.5-6.3,2.5-6.3Z"/>
      <path class="cls-2" d="M525.5,121.7c.8-2.1,3.7-2.1,4.4,0l2.5,6.3c.2.6.8,1.1,1.3,1.3l6.3,2.5c2.1.8,2.1,3.7,0,4.4l-6.3,2.5c-.6.2-1.1.8-1.3,1.3l-2.5,6.3c-.8,2.1-3.7,2.1-4.4,0l-2.5-6.3c-.2-.6-.8-1.1-1.3-1.3l-6.3-2.5c-2.1-.8-2.1-3.7,0-4.4l6.3-2.5c.6-.2,1.1-.8,1.3-1.3l2.5-6.3Z"/>
      <path class="cls-2" d="M617.4,199.7c.8-2.1,3.7-2.1,4.4,0l2.5,6.3c.2.6.8,1.1,1.3,1.3l6.3,2.5c2.1.8,2.1,3.7,0,4.4l-6.3,2.5c-.6.2-1.1.8-1.3,1.3l-2.5,6.3c-.8,2.1-3.7,2.1-4.4,0l-2.5-6.3c-.2-.6-.8-1.1-1.3-1.3l-6.3-2.5c-2.1-.8-2.1-3.7,0-4.4l6.3-2.5c.6-.2,1.1-.8,1.3-1.3l2.5-6.3Z"/>
      <path class="cls-2" d="M654,67.8c.8-2.1,3.7-2.1,4.4,0l2.5,6.3c.2.6.8,1.1,1.3,1.3l6.3,2.5c2.1.8,2.1,3.7,0,4.4l-6.3,2.5c-.6.2-1.1.8-1.3,1.3l-2.5,6.3c-.8,2.1-3.7,2.1-4.4,0l-2.5-6.3c-.2-.6-.8-1.1-1.3-1.3l-6.3-2.5c-2.1-.8-2.1-3.7,0-4.4l6.3-2.5c.6-.2,1.1-.8,1.3-1.3l2.5-6.3Z"/>
      <path class="cls-2" d="M742.5,135.8c.8-2.1,3.7-2.1,4.4,0l2.5,6.3c.2.6.8,1.1,1.3,1.3l6.3,2.5c2.1.8,2.1,3.7,0,4.4l-6.3,2.5c-.6.2-1.1.8-1.3,1.3l-2.5,6.3c-.8,2.1-3.7,2.1-4.4,0l-2.5-6.3c-.2-.6-.8-1.1-1.3-1.3l-6.3-2.5c-2.1-.8-2.1-3.7,0-4.4l6.3-2.5c.6-.2,1.1-.8,1.3-1.3,0,0,2.5-6.3,2.5-6.3Z"/>
      <path class="cls-2" d="M438.1,213.5c.8-2.1,3.7-2.1,4.4,0l2.5,6.3c.2.6.8,1.1,1.3,1.3l6.3,2.5c2.1.8,2.1,3.7,0,4.4l-6.3,2.5c-.6.2-1.1.8-1.3,1.3l-2.5,6.3c-.8,2.1-3.7,2.1-4.4,0l-2.5-6.3c-.2-.6-.8-1.1-1.3-1.3l-6.3-2.5c-2.1-.8-2.1-3.7,0-4.4l6.3-2.5c.6-.2,1.1-.8,1.3-1.3l2.5-6.3Z"/>
      <path class="cls-2" d="M374.4,213.5c.8-2.1,3.7-2.1,4.4,0l2.5,6.3c.2.6.8,1.1,1.3,1.3l6.3,2.5c2.1.8,2.1,3.7,0,4.4l-6.3,2.5c-.6.2-1.1.8-1.3,1.3l-2.5,6.3c-.8,2.1-3.7,2.1-4.4,0l-2.5-6.3c-.2-.6-.8-1.1-1.3-1.3l-6.3-2.5c-2.1-.8-2.1-3.7,0-4.4l6.3-2.5c.6-.2,1.1-.8,1.3-1.3l2.5-6.3Z"/>
      <path class="cls-2" d="M239.4,135.8c.8-2.1,3.7-2.1,4.4,0l2.5,6.3c.2.6.8,1.1,1.3,1.3l6.3,2.5c2.1.8,2.1,3.7,0,4.4l-6.3,2.5c-.6.2-1.1.8-1.3,1.3l-2.5,6.3c-.8,2.1-3.7,2.1-4.4,0l-2.5-6.3c-.2-.6-.8-1.1-1.3-1.3l-6.3-2.5c-2.1-.8-2.1-3.7,0-4.4l6.3-2.5c.6-.2,1.1-.8,1.3-1.3,0,0,2.5-6.3,2.5-6.3Z"/>
      <path class="cls-2" d="M245.9,213.5c.8-2.1,3.7-2.1,4.4,0l2.5,6.3c.2.6.8,1.1,1.3,1.3l6.3,2.5c2.1.8,2.1,3.7,0,4.4l-6.3,2.5c-.6.2-1.1.8-1.3,1.3l-2.5,6.3c-.8,2.1-3.7,2.1-4.4,0l-2.5-6.3c-.2-.6-.8-1.1-1.3-1.3l-6.3-2.5c-2.1-.8-2.1-3.7,0-4.4l6.3-2.5c.6-.2,1.1-.8,1.3-1.3l2.5-6.3Z"/>
      <path class="cls-2" d="M28.9,209.9c.8-2.1,3.7-2.1,4.4,0l2.5,6.3c.2.6.8,1.1,1.3,1.3l6.3,2.5c2.1.8,2.1,3.7,0,4.4l-6.3,2.5c-.6.2-1.1.8-1.3,1.3l-2.5,6.3c-.8,2.1-3.7,2.1-4.4,0l-2.5-6.3c-.2-.6-.8-1.1-1.3-1.3l-6.3-2.5c-2.1-.8-2.1-3.7,0-4.4l6.3-2.5c.6-.2,1.1-.8,1.3-1.3l2.5-6.3Z"/>
      <path class="cls-1" d="M404.5,163.1c.4-1.1,1.9-1.1,2.5,0l1.9,4.9c.1.3.4.6.8.8l4.9,1.9c1.1.4,1.1,1.9,0,2.5l-4.9,1.9c-.3.1-.6.4-.8.8l-1.9,4.9c-.4,1.1-1.9,1.1-2.5,0l-1.9-4.9c-.1-.3-.4-.6-.8-.8l-4.9-1.9c-1.1-.4-1.1-1.9,0-2.5l4.9-1.9c.3-.1.6-.4.8-.8l1.9-4.9Z"/>
      <path class="cls-1" d="M128.2,113.9c.4-1.1,1.9-1.1,2.5,0l1.9,4.9c.1.3.4.6.8.8l4.9,1.9c1.1.4,1.1,1.9,0,2.5l-4.9,1.9c-.3.1-.6.4-.8.8l-1.9,4.9c-.4,1.1-1.9,1.1-2.5,0l-1.9-4.9c-.1-.3-.4-.6-.8-.8l-4.9-1.9c-1.1-.4-1.1-1.9,0-2.5l4.9-1.9c.3-.1.6-.4.8-.8l1.9-4.9Z"/>
      <path class="cls-1" d="M174.5,193.3c.4-1.1,1.9-1.1,2.5,0l1.9,4.9c.1.3.4.6.8.8l4.9,1.9c1.1.4,1.1,1.9,0,2.5l-4.9,1.9c-.3.1-.6.4-.8.8l-1.9,4.9c-.4,1.1-1.9,1.1-2.5,0l-1.9-4.9c-.1-.3-.4-.6-.8-.8l-4.9-1.9c-1.1-.4-1.1-1.9,0-2.5l4.9-1.9c.3-.1.6-.4.8-.8l1.9-4.9Z"/>
      <path class="cls-1" d="M96.8,163.8c.4-1.1,1.9-1.1,2.5,0l1.9,4.9c.1.3.4.6.8.8l4.9,1.9c1.1.4,1.1,1.9,0,2.5l-4.9,1.9c-.3.1-.6.4-.8.8l-1.9,4.9c-.4,1.1-1.9,1.1-2.5,0l-1.9-4.9c-.1-.3-.4-.6-.8-.8l-4.9-1.9c-1.1-.4-1.1-1.9,0-2.5l4.9-1.9c.3-.1.6-.4.8-.8l1.9-4.9Z"/>
      <path class="cls-1" d="M719.8,217.1c.4-1.1,1.9-1.1,2.5,0l1.9,4.9c.1.3.4.6.8.8l4.9,1.9c1.1.4,1.1,1.9,0,2.5l-4.9,1.9c-.3.1-.6.4-.8.8l-1.9,4.9c-.4,1.1-1.9,1.1-2.5,0l-1.9-4.9c-.1-.3-.4-.6-.8-.8l-4.9-1.9c-1.1-.4-1.1-1.9,0-2.5l4.9-1.9c.3-.1.6-.4.8-.8l1.9-4.9Z"/>
      <path class="cls-1" d="M628,139.3c.4-1.1,1.9-1.1,2.5,0l1.9,4.9c.1.3.4.6.8.8l4.9,1.9c1.1.4,1.1,1.9,0,2.5l-4.9,1.9c-.3.1-.6.4-.8.8l-1.9,4.9c-.4,1.1-1.9,1.1-2.5,0l-1.9-4.9c-.1-.3-.4-.6-.8-.8l-4.9-1.9c-1.1-.4-1.1-1.9,0-2.5l4.9-1.9c.3-.1.6-.4.8-.8l1.9-4.9Z"/>
      <path class="cls-1" d="M747.8,24.9c.4-1.1,1.9-1.1,2.5,0l1.9,4.9c.1.3.4.6.8.8l4.9,1.9c1.1.4,1.1,1.9,0,2.5l-4.9,1.9c-.3.1-.6.4-.8.8l-1.9,4.9c-.4,1.1-1.9,1.1-2.5,0l-1.9-4.9c-.1-.3-.4-.6-.8-.8l-4.9-1.9c-1.1-.4-1.1-1.9,0-2.5l4.9-1.9c.3-.1.6-.4.8-.8,0,0,1.9-4.9,1.9-4.9Z"/>
      <path class="cls-1" d="M448.8,50.8c.4-1.1,1.9-1.1,2.5,0l1.9,4.9c.1.3.4.6.8.8l4.9,1.9c1.1.4,1.1,1.9,0,2.5l-4.9,1.9c-.3.1-.6.4-.8.8l-1.9,4.9c-.4,1.1-1.9,1.1-2.5,0l-1.9-4.9c-.1-.3-.4-.6-.8-.8l-4.9-1.9c-1.1-.4-1.1-1.9,0-2.5l4.9-1.9c.3-.1.6-.4.8-.8,0,0,1.9-4.9,1.9-4.9Z"/>
      <path class="cls-1" d="M556.7,24.9c.4-1.1,1.9-1.1,2.5,0l1.9,4.9c.1.3.4.6.8.8l4.9,1.9c1.1.4,1.1,1.9,0,2.5l-4.9,1.9c-.3.1-.6.4-.8.8l-1.9,4.9c-.4,1.1-1.9,1.1-2.5,0l-1.9-4.9c-.1-.3-.4-.6-.8-.8l-4.9-1.9c-1.1-.4-1.1-1.9,0-2.5l4.9-1.9c.3-.1.6-.4.8-.8,0,0,1.9-4.9,1.9-4.9Z"/>
      <path class="cls-1" d="M25.7,123.6c.4-1.1,1.9-1.1,2.5,0l1.9,4.9c.1.3.4.6.8.8l4.9,1.9c1.1.4,1.1,1.9,0,2.5l-4.9,1.9c-.3.1-.6.4-.8.8l-1.9,4.9c-.4,1.1-1.9,1.1-2.5,0l-1.9-4.9c-.1-.3-.4-.6-.8-.8l-4.9-1.9c-1.1-.4-1.1-1.9,0-2.5l4.9-1.9c.3-.1.6-.4.8-.8l1.9-4.9Z"/>
      <path class="cls-1" d="M440.4,103.6c.4-1.1,1.9-1.1,2.5,0l1.9,4.9c.1.3.4.6.8.8l4.9,1.9c1.1.4,1.1,1.9,0,2.5l-4.9,1.9c-.3.1-.6.4-.8.8l-1.9,4.9c-.4,1.1-1.9,1.1-2.5,0l-1.9-4.9c-.1-.3-.4-.6-.8-.8l-4.9-1.9c-1.1-.4-1.1-1.9,0-2.5l4.9-1.9c.3-.1.6-.4.8-.8l1.9-4.9Z"/>
      <path class="cls-1" d="M337.9,113.3c.4-1.1,1.9-1.1,2.5,0l1.9,4.9c.1.3.4.6.8.8l4.9,1.9c1.1.4,1.1,1.9,0,2.5l-4.9,1.9c-.3.1-.6.4-.8.8l-1.9,4.9c-.4,1.1-1.9,1.1-2.5,0l-1.9-4.9c-.1-.3-.4-.6-.8-.8l-4.9-1.9c-1.1-.4-1.1-1.9,0-2.5l4.9-1.9c.3-.1.6-.4.8-.8l1.9-4.9Z"/>
      <g>
        <path class="cls-3" d="M70.6,38h0c0,.1-4.4.1-4.4.1h-.1l-2.8-1.7c1-1.6,2.7-2.1,4.1-1.9,1.4.2,3.2,1.3,3.2,3.6Z"/>
        <path class="cls-2" d="M67.2,39.1h0c0,0,0,0,0,0Z"/>
        <path class="cls-2" d="M66.9,39.3c0,0,.2,0,.3-.1-.5.8-1,1.5-1.5,2.2,0-.1,0-.2,0-.3.4-.6.8-1.1,1.2-1.8Z"/>
        <path class="cls-3" d="M70.6,38.1c0,18.7-15.2,34-33.9,34v-4.8c.4,0,.9,0,1.3,0,14.5-.6,26.3-11.8,27.7-26.1,0,0,0,.1-.1.2,0,0,0,0,0,0h0c0,0,0-.1,0-.2,0,0,0-.1.1-.2,0,.1,0,.2,0,.3.5-.7,1-1.4,1.5-2.2,0,0,0,0,0-.1h0c0,.2-.2.3-.3.3,0,0,0-.1.1-.2,0,0,.2-.1.3-.2l-1.3-.8h4.5Z"/>
        <path class="cls-2" d="M67.1,39.1c-.1,0-.3,0-.3,0,0,0-.3,0-.5-.2-.2-.2-.3-.5-.3-.8h.1-.1c0-.1,1.3.6,1.3.6,0,0,0,.2-.2.2Z"/>
        <path class="cls-3" d="M66.8,39.3s0,0,.2,0c-.4.6-.8,1.2-1.2,1.8,0-.9.2-1.9.2-2.8,0,.3.1.6.3.9s.4.2.5.2Z"/>
        <path class="cls-2" d="M67.3,38.9c0,.1-.2.2-.3.2,0,0,.1-.2.2-.2l-1.3-.8h.1l1.3.8Z"/>
        <path class="cls-2" d="M65.9,38.2h.1c0,0-.1,0-.1,0,0,0,0,0,0,0Z"/>
        <path class="cls-3" d="M65.7,41.2c-1.5,14.3-13.2,25.5-27.7,26.1,14.4-.7,26.1-11.8,27.6-25.9,0,0,0-.1.1-.2Z"/>
        <path class="cls-2" d="M65.6,41.2s0,0,0,0v.2s0,0,0,0c0,0,0,0,0-.1Z"/>
        <path class="cls-3" d="M63.1,44c-4.1,3.7-9.5,6-15.4,6v-4.6c6.5,0,12.3-3.6,15.4-8.7h.1c0-.1,2.7,1.5,2.7,1.5,0,0,0,0,0,0h-.1c0,1,0,2-.2,3,0,0,0,0,0,0,0,0,0,0,0,.1-.5.6-1.1,1.3-1.7,1.9-.3.3-.5.5-.8.8Z"/>
        <path class="cls-2" d="M47.6,50v-4.6h.1v4.6h-.1Z"/>
        <path class="cls-2" d="M47.7,50c6,0,11.4-2.3,15.4-6-4.1,3.8-9.5,6.1-15.5,6.1h0c0-.1,0-.1.1-.1Z"/>
        <path class="cls-3" d="M32.2,9.2c.4,0,.9-.1,1.4-.2-5.3,4.2-8.7,10.7-8.7,18,0,12.6,10.2,22.8,22.8,22.9h0c6,.1,11.5-2.2,15.5-6,.3-.2.6-.5.8-.8.6-.6,1.1-1.2,1.7-1.8-1.5,14.1-13.2,25.3-27.6,25.9-.4,0-.9,0-1.3,0h-.1c-.4,0-.9,0-1.3,0-13.4-.7-25.7-11.6-27.6-25.5,0-.4-.1-.8-.1-1.2,0-.3,0-.7,0-1,0-.5,0-1,0-1.5s0-.9,0-1.4c.7-14,11.1-25.4,24.7-27.5Z"/>
        <path class="cls-3" d="M38.4,11.5h0c-5.3,3.3-8.7,9-8.7,15.6h-4.8c0-7.3,3.4-13.8,8.7-18,.8,0,1.6-.2,2.5-.2.2,0,.3,0,.5,0h0s1.6,2.6,1.6,2.6c0,0,0,0,0,0Z"/>
        <path class="cls-2" d="M36.8,8.6v.2h-.1c0-.1.1-.2.1-.2Z"/>
        <path class="cls-3" d="M36.8,8.9v-.2h-.1c0,.1,0-4.4,0-4.4,2.2,0,3.2,1.8,3.5,3.2h.1c.2,1.4-.3,3.1-1.9,4.1l-1.6-2.6h0Z"/>
        <path class="cls-2" d="M36.7,8.9h0c0-.1,0,0,0,0Z"/>
        <path class="cls-2" d="M36.7,8.9h0l1.6,2.6s0,0,0,0l-1.6-2.6h0Z"/>
        <path class="cls-2" d="M36.7,67.4v4.8h-.1v-4.8h.1Z"/>
        <path class="cls-2" d="M36.7,8.9h0c-.2,0-.3,0-.5,0,.2,0,.3,0,.5,0h0Z"/>
        <path class="cls-2" d="M36.7,8.9h0c0,0,0,0,0,0h0Z"/>
        <path class="cls-2" d="M36.7,4.2v4.5-.2c-.1,0-.1-4.3-.1-4.3,0,0,0,0,.1,0Z"/>
        <path class="cls-2" d="M36.6,8.9c-.2,0-.3,0-.5,0t0,0c.2,0,.3,0,.5,0Z"/>
        <polygon class="cls-2" points="36.7 8.8 36.7 8.9 36.6 8.7 36.6 8.6 36.7 8.8"/>
        <path class="cls-2" d="M36.6,8.7v.2c.1,0,0,0,0,0h0v-.2Z"/>
        <path class="cls-3" d="M36.6,67.4v4.8c-18.7,0-33.9-15.3-33.9-34h4.8c0,.5,0,1,0,1.5,0,.3,0,.7,0,1,0,.4,0,.8.1,1.2,1.8,14,13.3,24.8,27.6,25.5.4,0,.9,0,1.3,0Z"/>
        <path class="cls-3" d="M35.9,7.4c-.9.5-1.6,1.1-2.4,1.6h0c-.5,0-.9.1-1.4.2-13.6,2-24.1,12.5-24.7,27.5,0,.5,0,.9,0,1.4H2.7C2.7,19.3,17.9,4.1,36.7,4.1h0c0,.1,0,.1-.1.1v4.3l-.6-1.1Z"/>
        <path class="cls-2" d="M36.6,8.9c-.3,0-.6-.1-.8-.3s-.2-.4-.2-.5c0-.1,0-.4.3-.5l.6,1.1h0c0,0,0,.2,0,.2Z"/>
        <path class="cls-2" d="M36.1,8.9c-.1,0-.2-.1-.4-.2-.2-.2-.2-.4-.2-.5,0,0,0,0,0,0,0,.1,0,.3.2.5s.5.3.8.3c-.2,0-.3,0-.5,0Z"/>
        <path class="cls-3" d="M35.6,8.1c0,.1,0,.3.2.5s.2.2.4.2c-.9,0-1.7,0-2.6.2.8-.5,1.5-1.1,2.4-1.6-.3.2-.3.5-.3.5,0,0,0,0,0,0,0,0,0,0,0,0Z"/>
        <path class="cls-3" d="M29.5,27.1c0,10,8.1,18.1,18.1,18.1h0c0,.1,0,.1-.1.1v4.6c-12.6,0-22.8-10.3-22.8-22.9h4.8Z"/>
        <path class="cls-2" d="M7.4,36.7c.6-14.9,11.1-25.5,24.7-27.5-13.6,2.1-24.1,13.5-24.7,27.5Z"/>
        <path class="cls-2" d="M7.4,38.1c0,.5,0,1,0,1.5,0-.5,0-1,0-1.5Z"/>
      </g>
      <path class="cls-2" d="M1629.4,51.1c-.9-2.1-4-2.1-4.9,0l-2.7,6.3c-.2.6-.8,1.1-1.5,1.3l-6.8,2.5c-2.2.8-2.2,3.7,0,4.4l6.8,2.5c.6.2,1.2.8,1.5,1.3l2.7,6.3c.9,2.1,4,2.1,4.9,0l2.7-6.3c.2-.6.8-1.1,1.5-1.3l6.8-2.5c2.2-.8,2.2-3.7,0-4.4l-6.8-2.5c-.6-.2-1.2-.8-1.5-1.3l-2.7-6.3Z"/>
      <path class="cls-1" d="M1607.5,73.7c-.4-1.1-2.2-1.1-2.7,0l-2.1,4.9c-.1.3-.4.6-.8.8l-5.3,1.9c-1.2.4-1.2,1.9,0,2.5l5.3,1.9c.3.1.6.4.8.8l2.1,4.9c.4,1.1,2.2,1.1,2.7,0l2.1-4.9c.1-.3.4-.6.8-.8l5.3-1.9c1.2-.4,1.2-1.9,0-2.5l-5.3-1.9c-.3-.1-.6-.4-.8-.8l-2.1-4.9Z"/>
      <path class="cls-2" d="M1415.8,25c-.9-2.1-4-2.1-4.9,0l-2.7,6.3c-.2.6-.8,1.1-1.5,1.3l-6.8,2.5c-2.2.8-2.2,3.7,0,4.4l6.8,2.5c.6.2,1.2.8,1.5,1.3l2.7,6.3c.9,2.1,4,2.1,4.9,0l2.7-6.3c.2-.6.8-1.1,1.5-1.3l6.8-2.5c2.2-.8,2.2-3.7,0-4.4l-6.8-2.5c-.6-.2-1.2-.8-1.5-1.3l-2.7-6.3Z"/>
      <path class="cls-2" d="M1203.2,90.8c-.9-2.1-4-2.1-4.9,0l-2.7,6.3c-.2.6-.8,1.1-1.5,1.3l-6.8,2.5c-2.2.8-2.2,3.7,0,4.4l6.8,2.5c.6.2,1.2.8,1.5,1.3l2.7,6.3c.9,2.1,4,2.1,4.9,0l2.7-6.3c.2-.6.8-1.1,1.5-1.3l6.8-2.5c2.2-.8,2.2-3.7,0-4.4l-6.8-2.5c-.6-.2-1.2-.8-1.5-1.3l-2.7-6.3Z"/>
      <path class="cls-2" d="M1107.6,202c-.9-2.1-4-2.1-4.9,0l-2.7,6.3c-.2.6-.8,1.1-1.5,1.3l-6.8,2.5c-2.2.8-2.2,3.7,0,4.4l6.8,2.5c.6.2,1.2.8,1.5,1.3l2.7,6.3c.9,2.1,4,2.1,4.9,0l2.7-6.3c.2-.6.8-1.1,1.5-1.3l6.8-2.5c2.2-.8,2.2-3.7,0-4.4l-6.8-2.5c-.6-.2-1.2-.8-1.5-1.3l-2.7-6.3Z"/>
      <path class="cls-2" d="M1062.8,36.9c-.9-2.1-4-2.1-4.9,0l-2.7,6.3c-.2.6-.8,1.1-1.5,1.3l-6.8,2.5c-2.2.8-2.2,3.7,0,4.4l6.8,2.5c.6.2,1.2.8,1.5,1.3l2.7,6.3c.9,2.1,4,2.1,4.9,0l2.7-6.3c.2-.6.8-1.1,1.5-1.3l6.8-2.5c2.2-.8,2.2-3.7,0-4.4l-6.8-2.5c-.6-.2-1.2-.8-1.5-1.3l-2.7-6.3h0Z"/>
      <path class="cls-2" d="M965.9,104.9c-.9-2.1-4-2.1-4.9,0l-2.7,6.3c-.2.6-.8,1.1-1.5,1.3l-6.8,2.5c-2.2.8-2.2,3.7,0,4.4l6.8,2.5c.6.2,1.2.8,1.5,1.3l2.7,6.3c.9,2.1,4,2.1,4.9,0l2.7-6.3c.2-.6.8-1.1,1.5-1.3l6.8-2.5c2.2-.8,2.2-3.7,0-4.4l-6.8-2.5c-.6-.2-1.2-.8-1.5-1.3,0,0-2.7-6.3-2.7-6.3Z"/>
      <path class="cls-2" d="M1298.9,182.6c-.9-2.1-4-2.1-4.9,0l-2.7,6.3c-.2.6-.8,1.1-1.5,1.3l-6.8,2.5c-2.2.8-2.2,3.7,0,4.4l6.8,2.5c.6.2,1.2.8,1.5,1.3l2.7,6.3c.9,2.1,4,2.1,4.9,0l2.7-6.3c.2-.6.8-1.1,1.5-1.3l6.8-2.5c2.2-.8,2.2-3.7,0-4.4l-6.8-2.5c-.6-.2-1.2-.8-1.5-1.3l-2.7-6.3Z"/>
      <path class="cls-2" d="M1368.6,182.6c-.9-2.1-4-2.1-4.9,0l-2.7,6.3c-.2.6-.8,1.1-1.5,1.3l-6.8,2.5c-2.2.8-2.2,3.7,0,4.4l6.8,2.5c.6.2,1.2.8,1.5,1.3l2.7,6.3c.9,2.1,4,2.1,4.9,0l2.7-6.3c.2-.6.8-1.1,1.5-1.3l6.8-2.5c2.2-.8,2.2-3.7,0-4.4l-6.8-2.5c-.6-.2-1.2-.8-1.5-1.3l-2.7-6.3Z"/>
      <path class="cls-2" d="M1516.2,104.9c-.9-2.1-4-2.1-4.9,0l-2.7,6.3c-.2.6-.8,1.1-1.5,1.3l-6.8,2.5c-2.2.8-2.2,3.7,0,4.4l6.8,2.5c.6.2,1.2.8,1.5,1.3l2.7,6.3c.9,2.1,4,2.1,4.9,0l2.7-6.3c.2-.6.8-1.1,1.5-1.3l6.8-2.5c2.2-.8,2.2-3.7,0-4.4l-6.8-2.5c-.6-.2-1.2-.8-1.5-1.3,0,0-2.7-6.3-2.7-6.3Z"/>
      <path class="cls-2" d="M1509.1,202c-.9-2.1-4-2.1-4.9,0l-2.7,6.3c-.2.6-.8,1.1-1.5,1.3l-6.8,2.5c-2.2.8-2.2,3.7,0,4.4l6.8,2.5c.6.2,1.2.8,1.5,1.3l2.7,6.3c.9,2.1,4,2.1,4.9,0l2.7-6.3c.2-.6.8-1.1,1.5-1.3l6.8-2.5c2.2-.8,2.2-3.7,0-4.4l-6.8-2.5c-.6-.2-1.2-.8-1.5-1.3l-2.7-6.3Z"/>
      <path class="cls-2" d="M883.9,70.3c-.9-2.1-4-2.1-4.9,0l-2.7,6.3c-.2.6-.8,1.1-1.5,1.3l-6.8,2.5c-2.2.8-2.2,3.7,0,4.4l6.8,2.5c.6.2,1.2.8,1.5,1.3l2.7,6.3c.9,2.1,4,2.1,4.9,0l2.7-6.3c.2-.6.8-1.1,1.5-1.3l6.8-2.5c2.2-.8,2.2-3.7,0-4.4l-6.8-2.5c-.6-.2-1.2-.8-1.5-1.3l-2.7-6.3Z"/>
      <path class="cls-1" d="M1335.6,132.2c-.4-1.1-2.2-1.1-2.7,0l-2.1,4.9c-.1.3-.4.6-.8.8l-5.3,1.9c-1.2.4-1.2,1.9,0,2.5l5.3,1.9c.3.1.6.4.8.8l2.1,4.9c.4,1.1,2.2,1.1,2.7,0l2.1-4.9c.1-.3.4-.6.8-.8l5.3-1.9c1.2-.4,1.2-1.9,0-2.5l-5.3-1.9c-.3-.1-.6-.4-.8-.8l-2.1-4.9Z"/>
      <path class="cls-1" d="M1287.2,68.5c-.4-1.1-2.2-1.1-2.7,0l-2.1,4.9c-.1.3-.4.6-.8.8l-5.3,1.9c-1.2.4-1.2,1.9,0,2.5l5.3,1.9c.3.1.6.4.8.8l2.1,4.9c.4,1.1,2.2,1.1,2.7,0l2.1-4.9c.1-.3.4-.6.8-.8l5.3-1.9c1.2-.4,1.2-1.9,0-2.5l-5.3-1.9c-.3-.1-.6-.4-.8-.8l-2.1-4.9Z"/>
      <path class="cls-1" d="M1587.2,162.4c-.4-1.1-2.2-1.1-2.7,0l-2.1,4.9c-.1.3-.4.6-.8.8l-5.3,1.9c-1.2.4-1.2,1.9,0,2.5l5.3,1.9c.3.1.6.4.8.8l2.1,4.9c.4,1.1,2.2,1.1,2.7,0l2.1-4.9c.1-.3.4-.6.8-.8l5.3-1.9c1.2-.4,1.2-1.9,0-2.5l-5.3-1.9c-.3-.1-.6-.4-.8-.8l-2.1-4.9Z"/>
      <path class="cls-1" d="M1672.2,141.9c-.4-1.1-2.2-1.1-2.7,0l-2.1,4.9c-.1.3-.4.6-.8.8l-5.3,1.9c-1.2.4-1.2,1.9,0,2.5l5.3,1.9c.3.1.6.4.8.8l2.1,4.9c.4,1.1,2.2,1.1,2.7,0l2.1-4.9c.1-.3.4-.6.8-.8l5.3-1.9c1.2-.4,1.2-1.9,0-2.5l-5.3-1.9c-.3-.1-.6-.4-.8-.8l-2.1-4.9Z"/>
      <path class="cls-1" d="M990.8,186.2c-.4-1.1-2.2-1.1-2.7,0l-2.1,4.9c-.1.3-.4.6-.8.8l-5.3,1.9c-1.2.4-1.2,1.9,0,2.5l5.3,1.9c.3.1.6.4.8.8l2.1,4.9c.4,1.1,2.2,1.1,2.7,0l2.1-4.9c.1-.3.4-.6.8-.8l5.3-1.9c1.2-.4,1.2-1.9,0-2.5l-5.3-1.9c-.3-.1-.6-.4-.8-.8l-2.1-4.9Z"/>
      <path class="cls-1" d="M1091.2,108.4c-.4-1.1-2.2-1.1-2.7,0l-2.1,4.9c-.1.3-.4.6-.8.8l-5.3,1.9c-1.2.4-1.2,1.9,0,2.5l5.3,1.9c.3.1.6.4.8.8l2.1,4.9c.4,1.1,2.2,1.1,2.7,0l2.1-4.9c.1-.3.4-.6.8-.8l5.3-1.9c1.2-.4,1.2-1.9,0-2.5l-5.3-1.9c-.3-.1-.6-.4-.8-.8l-2.1-4.9Z"/>
      <path class="cls-1" d="M960.1-6c-.4-1.1-2.2-1.1-2.7,0l-2.1,4.9c-.1.3-.4.6-.8.8l-5.3,1.9c-1.2.4-1.2,1.9,0,2.5l5.3,1.9c.3.1.6.4.8.8l2.1,4.9c.4,1.1,2.2,1.1,2.7,0l2.1-4.9c.1-.3.4-.6.8-.8l5.3-1.9c1.2-.4,1.2-1.9,0-2.5l-5.3-1.9c-.3-.1-.6-.4-.8-.8,0,0-2.1-4.9-2.1-4.9Z"/>
      <path class="cls-1" d="M1287.2,19.9c-.4-1.1-2.2-1.1-2.7,0l-2.1,4.9c-.1.3-.4.6-.8.8l-5.3,1.9c-1.2.4-1.2,1.9,0,2.5l5.3,1.9c.3.1.6.4.8.8l2.1,4.9c.4,1.1,2.2,1.1,2.7,0l2.1-4.9c.1-.3.4-.6.8-.8l5.3-1.9c1.2-.4,1.2-1.9,0-2.5l-5.3-1.9c-.3-.1-.6-.4-.8-.8l-2.1-4.9Z"/>
      <path class="cls-1" d="M1169.1-6c-.4-1.1-2.2-1.1-2.7,0l-2.1,4.9c-.1.3-.4.6-.8.8l-5.3,1.9c-1.2.4-1.2,1.9,0,2.5l5.3,1.9c.3.1.6.4.8.8l2.1,4.9c.4,1.1,2.2,1.1,2.7,0l2.1-4.9c.1-.3.4-.6.8-.8l5.3-1.9c1.2-.4,1.2-1.9,0-2.5l-5.3-1.9c-.3-.1-.6-.4-.8-.8,0,0-2.1-4.9-2.1-4.9Z"/>
      <path class="cls-1" d="M1399.4,78.2c-.4-1.1-2.2-1.1-2.7,0l-2.1,4.9c-.1.3-.4.6-.8.8l-5.3,1.9c-1.2.4-1.2,1.9,0,2.5l5.3,1.9c.3.1.6.4.8.8l2.1,4.9c.4,1.1,2.2,1.1,2.7,0l2.1-4.9c.1-.3.4-.6.8-.8l5.3-1.9c1.2-.4,1.2-1.9,0-2.5l-5.3-1.9c-.3-.1-.6-.4-.8-.8l-2.1-4.9Z"/>
      <path class="cls-2" d="M1686.5,82.2c.8-2.1,3.7-2.1,4.4,0l2.5,6.3c.2.6.8,1.1,1.3,1.3l6.3,2.5c2.1.8,2.1,3.7,0,4.4l-6.3,2.5c-.6.2-1.1.8-1.3,1.3l-2.5,6.3c-.8,2.1-3.7,2.1-4.4,0l-2.5-6.3c-.2-.6-.8-1.1-1.3-1.3l-6.3-2.5c-2.1-.8-2.1-3.7,0-4.4l6.3-2.5c.6-.2,1.1-.8,1.3-1.3l2.5-6.3Z"/>
      <path class="cls-2" d="M1773.9,193.4c.8-2.1,3.7-2.1,4.4,0l2.5,6.3c.2.6.8,1.1,1.3,1.3l6.3,2.5c2.1.8,2.1,3.7,0,4.4l-6.3,2.5c-.6.2-1.1.8-1.3,1.3l-2.5,6.3c-.8,2.1-3.7,2.1-4.4,0l-2.5-6.3c-.2-.6-.8-1.1-1.3-1.3l-6.3-2.5c-2.1-.8-2.1-3.7,0-4.4l6.3-2.5c.6-.2,1.1-.8,1.3-1.3l2.5-6.3Z"/>
      <path class="cls-2" d="M1815,28.2c.8-2.1,3.7-2.1,4.4,0l2.5,6.3c.2.6.8,1.1,1.3,1.3l6.3,2.5c2.1.8,2.1,3.7,0,4.4l-6.3,2.5c-.6.2-1.1.8-1.3,1.3l-2.5,6.3c-.8,2.1-3.7,2.1-4.4,0l-2.5-6.3c-.2-.6-.8-1.1-1.3-1.3l-6.3-2.5c-2.1-.8-2.1-3.7,0-4.4l6.3-2.5c.6-.2,1.1-.8,1.3-1.3l2.5-6.3Z"/>
      <path class="cls-2" d="M1903.5,96.2c.8-2.1,3.7-2.1,4.4,0l2.5,6.3c.2.6.8,1.1,1.3,1.3l6.3,2.5c2.1.8,2.1,3.7,0,4.4l-6.3,2.5c-.6.2-1.1.8-1.3,1.3l-2.5,6.3c-.8,2.1-3.7,2.1-4.4,0l-2.5-6.3c-.2-.6-.8-1.1-1.3-1.3l-6.3-2.5c-2.1-.8-2.1-3.7,0-4.4l6.3-2.5c.6-.2,1.1-.8,1.3-1.3,0,0,2.5-6.3,2.5-6.3Z"/>
      <path class="cls-1" d="M1880.7,177.5c.4-1.1,1.9-1.1,2.5,0l1.9,4.9c.1.3.4.6.8.8l4.9,1.9c1.1.4,1.1,1.9,0,2.5l-4.9,1.9c-.3.1-.6.4-.8.8l-1.9,4.9c-.4,1.1-1.9,1.1-2.5,0l-1.9-4.9c-.1-.3-.4-.6-.8-.8l-4.9-1.9c-1.1-.4-1.1-1.9,0-2.5l4.9-1.9c.3-.1.6-.4.8-.8l1.9-4.9Z"/>
      <path class="cls-1" d="M1789,99.8c.4-1.1,1.9-1.1,2.5,0l1.9,4.9c.1.3.4.6.8.8l4.9,1.9c1.1.4,1.1,1.9,0,2.5l-4.9,1.9c-.3.1-.6.4-.8.8l-1.9,4.9c-.4,1.1-1.9,1.1-2.5,0l-1.9-4.9c-.1-.3-.4-.6-.8-.8l-4.9-1.9c-1.1-.4-1.1-1.9,0-2.5l4.9-1.9c.3-.1.6-.4.8-.8l1.9-4.9Z"/>
      <path class="cls-1" d="M1908.8-14.6c.4-1.1,1.9-1.1,2.5,0l1.9,4.9c.1.3.4.6.8.8l4.9,1.9c1.1.4,1.1,1.9,0,2.5l-4.9,1.9c-.3.1-.6.4-.8.8l-1.9,4.9c-.4,1.1-1.9,1.1-2.5,0l-1.9-4.9c-.1-.3-.4-.6-.8-.8l-4.9-1.9c-1.1-.4-1.1-1.9,0-2.5l4.9-1.9c.3-.1.6-.4.8-.8,0,0,1.9-4.9,1.9-4.9Z"/>
      <path class="cls-1" d="M1717.7-14.6c.4-1.1,1.9-1.1,2.5,0l1.9,4.9c.1.3.4.6.8.8l4.9,1.9c1.1.4,1.1,1.9,0,2.5l-4.9,1.9c-.3.1-.6.4-.8.8l-1.9,4.9c-.4,1.1-1.9,1.1-2.5,0l-1.9-4.9c-.1-.3-.4-.6-.8-.8l-4.9-1.9c-1.1-.4-1.1-1.9,0-2.5l4.9-1.9c.3-.1.6-.4.8-.8,0,0,1.9-4.9,1.9-4.9Z"/>
      <path class="cls-2" d="M2067.7,201c-.9-2.1-4-2.1-4.9,0l-2.7,6.3c-.2.6-.8,1.1-1.5,1.3l-6.8,2.5c-2.2.8-2.2,3.7,0,4.4l6.8,2.5c.6.2,1.2.8,1.5,1.3l2.7,6.3c.9,2.1,4,2.1,4.9,0l2.7-6.3c.2-.6.8-1.1,1.5-1.3l6.8-2.5c2.2-.8,2.2-3.7,0-4.4l-6.8-2.5c-.6-.2-1.2-.8-1.5-1.3l-2.7-6.3Z"/>
      <path class="cls-2" d="M2044.8,50.9c-.9-2.1-4-2.1-4.9,0l-2.7,6.3c-.2.6-.8,1.1-1.5,1.3l-6.8,2.5c-2.2.8-2.2,3.7,0,4.4l6.8,2.5c.6.2,1.2.8,1.5,1.3l2.7,6.3c.9,2.1,4,2.1,4.9,0l2.7-6.3c.2-.6.8-1.1,1.5-1.3l6.8-2.5c2.2-.8,2.2-3.7,0-4.4l-6.8-2.5c-.6-.2-1.2-.8-1.5-1.3l-2.7-6.3Z"/>
      <path class="cls-1" d="M2017.8,152.6c-.4-1.1-2.2-1.1-2.7,0l-2.1,4.9c-.1.3-.4.6-.8.8l-5.3,1.9c-1.2.4-1.2,1.9,0,2.5l5.3,1.9c.3.1.6.4.8.8l2.1,4.9c.4,1.1,2.2,1.1,2.7,0l2.1-4.9c.1-.3.4-.6.8-.8l5.3-1.9c1.2-.4,1.2-1.9,0-2.5l-5.3-1.9c-.3-.1-.6-.4-.8-.8l-2.1-4.9Z"/>
    </g>
  </g>
</svg>