<?xml version="1.0" encoding="iso-8859-1"?>
<!-- Uploaded to: SVG Repo, www.svgrepo.com, Generator: SVG Repo Mixer Tools -->
<svg fill="#000000" height="800px" width="800px" version="1.1" id="Capa_1" xmlns="http://www.w3.org/2000/svg" xmlns:xlink="http://www.w3.org/1999/xlink" 
	 viewBox="0 0 511 511" xml:space="preserve">
<path d="M503.5,284H495v-72.5c0-21.78-17.72-39.5-39.5-39.5H263v-16.5c0-4.142-3.358-7.5-7.5-7.5s-7.5,3.358-7.5,7.5V172H55.5
	C33.72,172,16,189.72,16,211.5V284H7.5c-4.142,0-7.5,3.358-7.5,7.5s3.358,7.5,7.5,7.5H232v49H119.5c-4.142,0-7.5,3.358-7.5,7.5
	s3.358,7.5,7.5,7.5h272c4.142,0,7.5-3.358,7.5-7.5s-3.358-7.5-7.5-7.5H279v-49h224.5c4.142,0,7.5-3.358,7.5-7.5
	S507.642,284,503.5,284z M480,284h-73v-24.5c0-9.098,7.402-16.5,16.5-16.5H480V284z M31,243h56.5c9.098,0,16.5,7.402,16.5,16.5V284
	H31V243z M119,284v-24.5c0-17.369-14.131-31.5-31.5-31.5H31v-16.5c0-13.509,10.991-24.5,24.5-24.5H248v34.234
	c-9.29,3.138-16,11.93-16,22.266V284H119z M247,348V243.5c0-4.687,3.813-8.5,8.5-8.5s8.5,3.813,8.5,8.5V348H247z M263,221.234V187
	h192.5c13.509,0,24.5,10.991,24.5,24.5V228h-56.5c-17.369,0-31.5,14.131-31.5,31.5V284H279v-40.5
	C279,233.165,272.29,224.373,263,221.234z"/>
</svg>