<?xml version="1.0" encoding="iso-8859-1"?>
<!-- Uploaded to: SVG Repo, www.svgrepo.com, Generator: SVG Repo Mixer Tools -->
<svg fill="#000000" height="800px" width="800px" version="1.1" id="Layer_1" xmlns="http://www.w3.org/2000/svg" xmlns:xlink="http://www.w3.org/1999/xlink" 
	 viewBox="0 0 512 512" xml:space="preserve">
<g>
	<g>
		<path d="M489.739,478.609h-22.704l-39.151-84.907c0.558-0.313,1.123-0.619,1.676-0.935c49.569-28.325,76.869-67.011,76.873-108.93
			c0.003-4.515-1.869-8.796-4.893-11.818L301.192,71.668C317.091,38.509,292.727,0,256,0c-36.766,0-61.07,38.551-45.192,71.668
			l-200.35,200.35c-3.173,3.17-4.896,7.543-4.893,11.818c0.004,41.921,27.305,80.605,76.873,108.93
			c0.553,0.316,1.119,0.622,1.676,0.935l-39.15,84.907H22.261c-9.22,0-16.696,7.475-16.696,16.696S13.04,512,22.261,512h66.783
			c9.22,0,16.696-7.475,16.696-16.696s-7.475-16.696-16.696-16.696h-7.307l32.488-70.456C155.538,425,204.635,434.087,256,434.087
			S356.462,425,397.776,408.153l32.488,70.456h-7.307c-9.22,0-16.696,7.475-16.696,16.696S413.736,512,422.957,512h66.783
			c9.22,0,16.696-7.475,16.696-16.696S498.96,478.609,489.739,478.609z M449.433,267.13h-79.911l-68.374-148.286L449.433,267.13z
			 M256,33.391c9.206,0,16.696,7.49,16.696,16.696c0,9.213-7.511,16.696-16.696,16.696c-9.069,0-16.696-7.373-16.696-16.696
			C239.304,40.881,246.794,33.391,256,33.391z M256,100.68l76.751,166.45c-4.263,0-151.142,0-153.502,0L256,100.68z
			 M306.087,300.522v16.696c0,9.206-7.49,16.696-16.696,16.696h-66.783c-9.206,0-16.696-7.49-16.696-16.696v-16.696H306.087z
			 M210.854,118.844L142.478,267.13H62.568L210.854,118.844z M98.145,363.274c-30.835-17.814-50.477-39.628-56.887-62.752h85.822
			L98.145,363.274z M256,400.696c-46.564,0-90.794-8.011-127.789-22.879l35.641-77.295h8.669v16.696
			c0,27.618,22.469,50.087,50.087,50.087h66.783c27.618,0,50.087-22.469,50.087-50.087v-16.696h8.669l35.641,77.295
			C346.794,392.685,302.564,400.696,256,400.696z M384.918,300.522h85.822c-6.409,23.125-26.051,44.938-56.887,62.752
			L384.918,300.522z"/>
	</g>
</g>
</svg>