<?xml version="1.0" encoding="iso-8859-1"?>
<!-- Uploaded to: SVG Repo, www.svgrepo.com, Generator: SVG Repo Mixer Tools -->
<svg fill="#000000" version="1.1" id="Layer_1" xmlns="http://www.w3.org/2000/svg" xmlns:xlink="http://www.w3.org/1999/xlink" 
	 viewBox="0 0 511.999 511.999" xml:space="preserve">
<g>
	<g>
		<g>
			<path d="M114.382,354.043c0,24.027,19.547,43.574,43.574,43.574h108.936c24.027,0,43.574-19.547,43.574-43.574v-54.468h10.894
				v-21.787h-43.574v21.787h10.894v54.468c0,12.013-9.774,21.787-21.787,21.787H157.956c-12.013,0-21.787-9.774-21.787-21.787
				v-54.468h10.894v-21.787h-43.574v21.787h10.894V354.043z"/>
			<rect x="119.828" y="157.957" width="21.787" height="21.787"/>
			<rect x="163.402" y="147.063" width="21.787" height="21.787"/>
			<rect x="185.189" y="114.382" width="21.787" height="21.787"/>
			<rect x="228.764" y="103.489" width="21.787" height="21.787"/>
			<rect x="217.87" y="147.063" width="21.787" height="21.787"/>
			<rect x="261.444" y="157.957" width="21.787" height="21.787"/>
			<path d="M470.68,84.893L388.978,3.192c-2.125-2.124-5.03-3.288-8.038-3.185c-3.004,0.093-5.837,1.423-7.827,3.674l-42.267,47.824
				c-3.812,4.313-3.61,10.848,0.461,14.918l15.201,15.197l-37.516,35.726c-14.041-34.089-47.729-57.43-85.674-57.43
				c-36.562,0-69.499,21.602-84.318,54.509c-42.028,1.327-76.127,34.556-78.885,76.214H49.02c-6.017,0-10.894,4.878-10.894,10.894
				v38.128c0,12.013,9.774,21.787,21.787,21.787h5.447v217.872c0,18.02,14.661,32.681,32.681,32.681h228.765
				c18.02,0,32.681-14.661,32.681-32.681V261.446h5.447c12.013,0,21.787-9.774,21.787-21.787v-38.128
				c0-6.015-4.877-10.894-10.894-10.894h-28.767c-2.376-5.475-5.351-10.639-8.892-15.456l50.948-50.949l19.212,19.204
				c4.128,4.128,10.775,4.266,15.072,0.317l46.947-43.139c2.186-2.009,3.458-4.823,3.521-7.791
				C473.931,89.858,472.779,86.993,470.68,84.893z M141.616,136.171c1.206,0,2.641,0.098,3.891,0.188
				c4.914,0.359,9.456-2.622,11.079-7.271c9.901-28.343,36.718-47.385,66.732-47.385c33.51,0,62.693,23.78,69.393,56.553
				c0.952,4.637,1.415,9.301,1.415,14.255c0,2.525-0.111,4.585-0.351,6.484c-0.575,4.565,1.78,8.999,5.884,11.079
				c5.782,2.93,11.263,7.05,15.905,11.973c2.574,2.69,4.86,5.559,6.849,8.592H81.946
				C84.706,160.143,110.413,136.171,141.616,136.171z M337.701,479.319c0,6.007-4.887,10.894-10.894,10.894H98.042
				c-6.007,0-10.894-4.887-10.894-10.894v-10.894H305.02v-21.787H87.148V261.447h250.553V479.319z M339.551,212.426h25.383v27.234
				H59.914v-27.234h11.218H339.551z M416.347,120.65l-19.53-19.523c-4.254-4.253-11.15-4.252-15.405,0.001l-58.313,58.313
				c-2.315-1.855-4.72-3.587-7.201-5.161c0.01-0.574,0.015-1.163,0.015-1.769c0-3.779-0.236-7.433-0.661-11.042l54.364-51.771
				c2.126-2.024,3.344-4.822,3.38-7.756c0.036-2.935-1.114-5.76-3.191-7.836l-15.851-15.848l27.809-31.467l65.474,65.474
				L416.347,120.65z"/>
			
				<rect x="389.777" y="46.916" transform="matrix(-0.7071 0.7071 -0.7071 -0.7071 736.4423 -156.6781)" width="21.787" height="54.533"/>
		</g>
	</g>
</g>
</svg>