<svg xmlns="http://www.w3.org/2000/svg" xmlns:xlink="http://www.w3.org/1999/xlink" version="1.1" x="0px" y="0px" viewBox="0 0 69 86.25" style="enable-background:new 0 0 69 69;" xml:space="preserve"><g><path d="M36.39484,2.75039c-1.50684,0-2.73242,1.23047-2.73242,2.74316v3.43628L19.03449,2.80899   c-0.37891-0.16211-0.82031,0.01953-0.98047,0.40234c-0.16016,0.38184,0.01953,0.82129,0.40234,0.98047l20.95801,8.77051v11.953   c-0.11139,0.08508-0.22546,0.16528-0.3291,0.26379l-5.01172,4.7627c-1.54199,1.4668-3.44727,2.51953-5.50879,3.04492   c-3.78109,0.96544-5.73211-0.0997-8.45996,1.95508c-2.96777,2.23438-3.55664,6.60254-1.31348,9.7373l7.00684,9.79199   c1.29785,1.81152,3.40234,2.89258,5.62793,2.89258c1.29395,0,3.41211-1.01953,4.05762-1.36133l10.69238-3.28125l8.13965,6.9209   c1.51151,1.28105,3.80696,1.11887,5.11328-0.41504C59.43,59.22598,59.43,59.225,59.43,59.225   c1.28613-1.52051,1.10156-3.81348-0.41504-5.1123c-8.66962-6.76798-9.86851-9.90127-13.06641-8.90918l-5.03418,1.55774V33.44619   l3.24902-3.08838c1.64658-1.56497,1.47736-4.25191-0.4082-5.59668c-0.83344-0.59521-1.86566-0.76367-2.84082-0.54883V13.59011   c3.27993,1.37261-7.13785-2.98603,20.38184,8.52942c0.09375,0.03906,0.19238,0.05762,0.28906,0.05762   c0.29297,0,0.57129-0.17285,0.69238-0.46094c0.15918-0.38184-0.02051-0.82129-0.40332-0.98145l-15.20605-6.36279V9.60293   c0-1.5127-1.22559-2.74316-2.73242-2.74316c-1.5127,0-2.74316,1.23047-2.74316,2.74316v2.47778l-2.05469-0.85962V5.49356   C39.13801,3.98086,37.90754,2.75039,36.39484,2.75039z M35.16242,5.49356c0-0.69727,0.54102-1.24316,1.23242-1.24316   c0.68555,0,1.24316,0.55762,1.24316,1.24316v5.09863l-2.47559-1.03613V5.49356z M39.41438,47.22549l-1.63965,0.50732   c-0.50173-1.17831-0.82615-1.34927-5.65039-8.17383l2.29785-0.58398c0.59375-0.15332,1.14551-0.45605,1.60254-0.88086   l3.38965-3.22217V47.22549z M42.8841,25.98184c1.14534,0.81631,1.18624,2.39564,0.24609,3.28809   c-2.03303,1.9327-6.09961,5.79858-8.13281,7.73145c-0.27246,0.25293-0.5918,0.42871-0.94727,0.52051l-3.35938,0.85449   c-0.24023,0.06055-0.43457,0.23633-0.51953,0.46875c-0.08496,0.2334-0.0498,0.49316,0.09375,0.69434   c5.71191,8.0506,5.74062,7.86568,6.12891,8.7793c0.29688,0.69922,1.08789,1.05273,1.83301,0.82129   c7.54721-2.01366,8.64146-3.37283,10.1582-2.08984l9.65625,8.20313c0.88965,0.7627,0.99902,2.10938,0.24414,3.00195   c-0.72949,0.8584-2.14258,0.96777-2.99902,0.24316c-8.77636-7.37754-8.51939-7.53028-9.15723-7.33203l-11.12891,3.41602   c-0.08496,0.02539-0.09766,0.02148-0.16799,0.0752c-0.43552,0.24707-2.52048,1.20605-3.40623,1.20605   c-1.74316,0-3.3916-0.84668-4.4082-2.26563l-7.00586-9.79199c-1.77441-2.47852-1.32715-5.91699,0.99512-7.66602   c2.29065-1.72242,3.90541-0.67404,7.92871-1.7002c2.30957-0.58887,4.44336-1.76855,6.1709-3.41016l5.01172-4.7627   C40.89289,25.53164,42.08232,25.41153,42.8841,25.98184z M42.6927,9.60293c0-0.68555,0.55762-1.24316,1.24316-1.24316   c0.67969,0,1.23242,0.55762,1.23242,1.24316v4.14136L42.6927,12.7084V9.60293z"/><path d="M8.92219,25.22891c0,4.28125,3.4834,7.76465,7.76465,7.76465s7.76465-3.4834,7.76465-7.76465   s-3.4834-7.76465-7.76465-7.76465S8.92219,20.94766,8.92219,25.22891z M22.95148,25.22891   c0,3.4541-2.81055,6.26465-6.26465,6.26465s-6.26465-2.81055-6.26465-6.26465s2.81055-6.26465,6.26465-6.26465   S22.95148,21.77481,22.95148,25.22891z"/><path d="M45.12824,55.19668l-7.16602,1.70605c-0.27441,0.06543-0.48926,0.2793-0.55566,0.55469   c-0.06543,0.27441,0.02832,0.56348,0.24316,0.74609l8.45215,7.1875c1.51801,1.28657,3.81413,1.11314,5.11621-0.41699   c1.28418-1.52148,1.09863-3.81445-0.40137-5.09863l-5.01367-4.50684C45.62141,55.20449,45.36848,55.14102,45.12824,55.19668z    M50.07355,64.0043c-0.72949,0.8584-2.14648,0.96777-3,0.24316l-7.32422-6.22851l5.34375-1.27246l4.73438,4.25586   C50.71711,61.76504,50.82648,63.1127,50.07355,64.0043z"/><path d="M6.74055,41.97793C6.55891,42.35,6.7132,42.79922,7.08527,42.98086l8.8291,4.31152   c0.10547,0.05176,0.21777,0.07617,0.32813,0.07617c0.27832,0,0.54492-0.1543,0.6748-0.4209   c0.18164-0.37207,0.02734-0.82129-0.34473-1.00293l-8.8291-4.31152C7.37238,41.45254,6.92316,41.60684,6.74055,41.97793z"/><path d="M10.91145,49.45938c-0.375-0.18262-0.82031-0.02734-1.00293,0.34473c-0.18164,0.37207-0.02734,0.82129,0.34473,1.00293   l8.83008,4.31152c0.10645,0.05176,0.21777,0.07617,0.32813,0.07617c0.27832,0,0.54492-0.1543,0.6748-0.4209   c0.18164-0.37207,0.02734-0.82129-0.34473-1.00293L10.91145,49.45938z"/></g><text x="0" y="84" fill="#000000" font-size="5px" font-weight="bold" font-family="'Helvetica Neue', Helvetica, Arial-Unicode, Arial, Sans-serif">Created by Vectors Point</text><text x="0" y="89" fill="#000000" font-size="5px" font-weight="bold" font-family="'Helvetica Neue', Helvetica, Arial-Unicode, Arial, Sans-serif">from the Noun Project</text></svg>