<?xml version="1.0" encoding="iso-8859-1"?>
<!-- Uploaded to: SVG Repo, www.svgrepo.com, Generator: SVG Repo Mixer Tools -->
<svg fill="#000000" height="800px" width="800px" version="1.1" id="Layer_1" xmlns="http://www.w3.org/2000/svg" xmlns:xlink="http://www.w3.org/1999/xlink" 
	 viewBox="0 0 512 512" xml:space="preserve">
<g>
	<g>
		<path d="M178.322,238.953c-7.57-1.931-14.584-4.145-20.845-6.578c-21.254-8.257-28.129-16.697-28.129-19.49
			c0-0.106,0.013-0.226,0.039-0.359c0.847-4.383-2.019-8.624-6.403-9.471c-4.382-0.856-8.623,2.018-9.473,6.402
			c-0.221,1.143-0.333,2.296-0.333,3.429c0,12.656,13.652,24.931,38.441,34.562c6.867,2.668,14.506,5.081,22.705,7.173
			c0.67,0.17,1.343,0.252,2.004,0.252c3.607,0,6.894-2.433,7.828-6.087C185.26,244.459,182.647,240.057,178.322,238.953z"/>
	</g>
</g>
<g>
	<g>
		<path d="M311.103,165.787c-17.645-2.723-36.185-4.102-55.103-4.102h-0.05c-4.465,0-8.059,3.619-8.059,8.084
			s3.644,8.084,8.109,8.084c18.096,0,35.805,1.317,52.638,3.913c0.418,0.065,0.832,0.096,1.243,0.096c3.92,0,7.364-2.857,7.98-6.852
			C318.542,170.596,315.516,166.467,311.103,165.787z"/>
	</g>
</g>
<g>
	<g>
		<path d="M236.976,170.165c-0.328-4.454-4.197-7.778-8.655-7.47c-29.436,2.164-55.959,7.568-76.702,15.627
			c-9.349,3.632-17.208,7.679-23.357,12.027c-3.645,2.578-4.512,7.622-1.934,11.268c1.576,2.228,4.072,3.418,6.609,3.418
			c1.614,0,3.242-0.482,4.66-1.484c5-3.536,11.875-7.048,19.879-10.158c18.991-7.38,44.573-12.555,72.031-14.574
			C233.959,178.492,237.304,174.618,236.976,170.165z"/>
	</g>
</g>
<g>
	<g>
		<path d="M256.178,247.918L256,247.916c-18.112,0-35.838-1.319-52.685-3.92c-4.417-0.676-8.541,2.343-9.224,6.756
			c-0.682,4.413,2.343,8.542,6.756,9.224c17.649,2.725,36.19,4.108,55.11,4.11c0.056,0.001,0.108,0.001,0.143,0.001
			c4.462,0,8.072-3.616,8.074-8.079C264.177,251.572,260.6,247.97,256.178,247.918z"/>
	</g>
</g>
<g>
	<g>
		<path d="M360.379,178.323c-6.882-2.672-14.538-5.091-22.753-7.185c-4.329-1.102-8.729,1.509-9.831,5.837
			c-1.103,4.327,1.51,8.728,5.837,9.83c7.587,1.935,14.617,4.152,20.894,6.589c21.253,8.257,28.128,16.697,28.128,19.49
			c0,0.102-0.012,0.22-0.037,0.348c-0.827,4.387,2.06,8.615,6.447,9.441c0.507,0.096,1.01,0.141,1.506,0.141
			c3.811,0,7.205-2.707,7.937-6.588c0.21-1.112,0.316-2.238,0.316-3.343C398.821,200.229,385.169,187.954,360.379,178.323z"/>
	</g>
</g>
<g>
	<g>
		<path d="M385.708,224.116c-2.58-3.644-7.626-4.506-11.269-1.924c-5.005,3.545-11.891,7.067-19.914,10.183
			c-18.982,7.376-44.545,12.551-71.983,14.571c-4.453,0.328-7.796,4.203-7.469,8.656c0.314,4.25,3.859,7.49,8.054,7.49
			c0.199,0,0.4-0.008,0.603-0.023c29.414-2.165,55.919-7.568,76.651-15.623c9.372-3.642,17.246-7.701,23.403-12.061
			C387.428,232.804,388.29,227.759,385.708,224.116z"/>
	</g>
</g>
<g>
	<g>
		<path d="M503.916,280.253c-8.293,0-15.431-6.19-16.604-14.4l-7.665-53.658c-0.343-31.749-24.309-61.118-67.595-82.761
			C370.234,108.526,314.814,97.011,256,97.011c-58.814,0-114.234,11.515-156.052,32.424c-43.286,21.643-67.252,51.011-67.595,82.761
			l-7.665,53.658c-1.173,8.209-8.311,14.4-16.604,14.4c-4.465,0-8.084,3.618-8.084,8.084c0,4.466,3.62,8.084,8.084,8.084
			c16.287,0,30.306-12.159,32.61-28.282l2.671-18.695c7.276,11.629,18.064,22.54,32.088,32.395v36.291
			c0,11.785-6.548,22.38-17.089,27.65c-3.994,1.997-5.613,6.852-3.615,10.847c1.416,2.833,4.271,4.47,7.237,4.47
			c1.215,0,2.449-0.276,3.609-0.856c16.054-8.027,26.027-24.163,26.027-42.111v-26.191c2.691,1.497,5.464,2.964,8.327,4.395
			c15.324,7.663,32.482,14.058,50.957,19.093v35.04c0,14.519-3.432,29.058-9.925,42.044c-1.997,3.994-0.378,8.849,3.615,10.847
			c1.161,0.581,2.394,0.856,3.609,0.856c2.965,0,5.821-1.638,7.237-4.47c7.61-15.22,11.633-32.26,11.633-49.276v-31.053
			c25.281,5.591,52.612,8.755,80.842,9.263v78.227c0,4.466,3.62,8.084,8.084,8.084c4.465,0,8.084-3.618,8.084-8.084v-78.228
			c28.23-0.509,55.561-3.672,80.842-9.263v31.053c0,17.016,4.023,34.056,11.633,49.276c1.416,2.833,4.271,4.47,7.237,4.47
			c1.215,0,2.448-0.276,3.609-0.856c3.994-1.997,5.613-6.852,3.615-10.847c-6.493-12.985-9.925-27.525-9.925-42.043v-35.04
			c18.476-5.035,35.633-11.43,50.957-19.093c2.862-1.431,5.634-2.897,8.327-4.395v26.191c0,17.948,9.973,34.084,26.027,42.111
			c1.161,0.58,2.394,0.856,3.609,0.856c2.965,0,5.821-1.638,7.237-4.47c1.997-3.994,0.378-8.85-3.615-10.847
			c-10.541-5.271-17.089-15.867-17.089-27.65v-36.291c14.023-9.855,24.812-20.767,32.088-32.395l2.671,18.695
			c2.303,16.123,16.323,28.282,32.61,28.282c4.465,0,8.084-3.619,8.084-8.084C512,283.871,508.38,280.253,503.916,280.253z
			 M424.968,155.562c21.72,14.628,34.759,31.555,37.816,49.239h-16.554V204.8c-3.864-14.543-17.91-29.262-40.09-41.884
			L424.968,155.562z M354.915,125.402c18.168,4.829,34.978,11.028,49.908,18.493c0.815,0.407,1.611,0.821,2.41,1.234l-20.746,8.104
			c-13.591-5.797-28.766-10.637-44.991-14.41L354.915,125.402z M264.084,113.262L264.084,113.262
			c25.204,0.469,49.606,3.123,72.315,7.79l-13.924,13.925c-18.677-3.242-38.376-5.137-58.391-5.54V113.262z M247.916,113.262v16.174
			c-20.014,0.404-39.714,2.299-58.391,5.54l-13.924-13.925C198.31,116.385,222.711,113.731,247.916,113.262z M107.178,143.896
			c14.929-7.464,31.74-13.663,49.908-18.493l13.42,13.421c-16.226,3.773-31.4,8.613-44.991,14.41l-20.746-8.104
			C105.567,144.717,106.363,144.303,107.178,143.896z M87.032,155.561l18.829,7.354c-22.179,12.623-36.225,27.342-40.09,41.885
			H49.217C52.274,187.116,65.313,170.19,87.032,155.561z M87.032,270.208c-21.72-14.629-34.759-31.555-37.816-49.239h16.555
			c3.864,14.543,17.91,29.262,40.09,41.884L87.032,270.208z M157.085,300.366c-18.168-4.829-34.978-11.028-49.908-18.493
			c-0.815-0.407-1.611-0.821-2.41-1.234l20.746-8.104c13.591,5.797,28.766,10.637,44.991,14.41L157.085,300.366z M247.916,312.507
			L247.916,312.507c-25.204-0.469-49.606-3.123-72.315-7.79l13.924-13.925c18.677,3.242,38.376,5.137,58.391,5.54V312.507z
			 M256,280.253c-50.684,0-99.657-9.951-134.361-27.303c-24.784-12.391-40.797-28.118-40.797-40.065s16.013-27.674,40.797-40.065
			c34.704-17.352,83.677-27.303,134.361-27.303c50.684,0,99.657,9.951,134.361,27.303c24.784,12.391,40.797,28.118,40.797,40.065
			s-16.013,27.674-40.797,40.065C355.657,270.302,306.684,280.253,256,280.253z M264.084,312.507v-16.174
			c20.014-0.404,39.714-2.299,58.391-5.54l13.924,13.925C313.69,309.384,289.289,312.038,264.084,312.507z M404.822,281.873
			c-14.929,7.464-31.74,13.663-49.908,18.493l-13.42-13.421c16.226-3.773,31.4-8.613,44.991-14.41l20.746,8.104
			C406.433,281.051,405.637,281.465,404.822,281.873z M424.968,270.208l-18.829-7.354c22.18-12.622,36.226-27.341,40.09-41.884
			h16.555C459.726,238.652,446.687,255.579,424.968,270.208z"/>
	</g>
</g>
</svg>