<?xml version="1.0" encoding="iso-8859-1"?>
<!-- Uploaded to: SVG Repo, www.svgrepo.com, Generator: SVG Repo Mixer Tools -->
<svg fill="#000000" height="800px" width="800px" version="1.1" id="Capa_1" xmlns="http://www.w3.org/2000/svg" xmlns:xlink="http://www.w3.org/1999/xlink" 
	 viewBox="0 0 457.003 457.003" xml:space="preserve">
<g>
	<path d="M420.502,332.675H236.001v-8.5c0-4.142-3.358-7.5-7.5-7.5s-7.5,3.358-7.5,7.5v8.5h-184.5c-4.142,0-7.5,3.358-7.5,7.5
		s3.358,7.5,7.5,7.5h384c4.142,0,7.5-3.358,7.5-7.5S424.644,332.675,420.502,332.675z"/>
	<path d="M452.688,233.838c-3.623-5.126-9.025-8.535-15.211-9.598l-63.076-10.838c-2.954-0.507-5.874-0.431-8.648,0.135
		l4.091-23.808c0.747-4.344,3.14-8.137,6.739-10.681l10.36-7.322c3.383-2.391,4.187-7.071,1.796-10.454s-7.07-4.187-10.454-1.796
		l-10.361,7.322c-6.871,4.856-11.439,12.097-12.864,20.39l-6.53,38.002l-96.816-16.636c-1.519-9.687-9.048-17.789-19.234-19.54
		c-10.186-1.749-19.988,3.374-24.654,11.998l-96.816-16.637l6.53-38.002c1.425-8.292-0.464-16.643-5.32-23.515l-7.322-10.36
		c-2.391-3.382-7.07-4.187-10.454-1.796c-3.382,2.391-4.187,7.071-1.796,10.454l7.322,10.36c2.543,3.6,3.534,7.974,2.787,12.318
		l-4.091,23.807c-2.426-1.459-5.153-2.506-8.107-3.014l-63.076-10.839c-12.77-2.194-24.946,6.41-27.14,19.181
		c-1.063,6.186,0.347,12.417,3.969,17.542c3.623,5.126,9.025,8.535,15.211,9.598l63.076,10.839c1.341,0.23,2.674,0.342,3.992,0.342
		c8.684-0.001,16.594-4.857,20.646-12.342l98.047,16.848c1.519,9.687,9.048,17.789,19.234,19.54c1.341,0.23,2.674,0.342,3.992,0.342
		c8.684,0,16.594-4.856,20.647-12.342l98.047,16.848c1.519,9.687,9.048,17.789,19.234,19.54l63.076,10.839
		c1.341,0.23,2.674,0.342,3.992,0.342c11.225-0.001,21.185-8.093,23.148-19.522C457.72,245.194,456.311,238.964,452.688,233.838z
		 M85.142,196.165l-63.076-10.839c-2.238-0.384-4.191-1.617-5.502-3.471c-1.31-1.854-1.82-4.108-1.436-6.346
		c0.385-2.237,1.618-4.191,3.472-5.502c1.451-1.025,3.146-1.561,4.887-1.561c0.484,0,0.971,0.042,1.458,0.125l63.075,10.839
		c4.62,0.794,7.732,5.198,6.938,9.817C94.165,193.847,89.756,196.958,85.142,196.165z M227.062,220.552
		c-4.619-0.794-7.731-5.198-6.938-9.817c0.71-4.134,4.313-7.061,8.373-7.061c0.476,0,0.958,0.04,1.444,0.124
		c4.619,0.794,7.731,5.198,6.938,9.817C236.085,218.234,231.678,221.347,227.062,220.552z M441.874,248.84
		c-0.794,4.619-5.194,7.731-9.817,6.938l-63.076-10.839c-4.619-0.794-7.731-5.198-6.938-9.817c0.385-2.237,1.618-4.191,3.472-5.502
		c1.451-1.025,3.146-1.561,4.887-1.561c0.484,0,0.971,0.042,1.458,0.125l63.076,10.838c2.237,0.385,4.191,1.618,5.502,3.472
		C441.749,244.349,442.258,246.603,441.874,248.84z"/>
	<path d="M212.501,259.675h32c4.142,0,7.5-3.358,7.5-7.5s-3.358-7.5-7.5-7.5h-32c-4.142,0-7.5,3.358-7.5,7.5
		S208.359,259.675,212.501,259.675z"/>
	<path d="M212.501,283.675h32c4.142,0,7.5-3.358,7.5-7.5s-3.358-7.5-7.5-7.5h-32c-4.142,0-7.5,3.358-7.5,7.5
		S208.359,283.675,212.501,283.675z"/>
	<path d="M212.501,307.675h32c4.142,0,7.5-3.358,7.5-7.5s-3.358-7.5-7.5-7.5h-32c-4.142,0-7.5,3.358-7.5,7.5
		S208.359,307.675,212.501,307.675z"/>
</g>
</svg>