<!DOCTYPE svg PUBLIC "-//W3C//DTD SVG 1.1//EN" "http://www.w3.org/Graphics/SVG/1.1/DTD/svg11.dtd">
<!-- Uploaded to: SVG Repo, www.svgrepo.com, Transformed by: SVG Repo Mixer Tools -->
<svg fill="#fefefe" height="800px" width="800px" version="1.1" id="Capa_1" xmlns="http://www.w3.org/2000/svg" xmlns:xlink="http://www.w3.org/1999/xlink" viewBox="0 0 334.856 334.856" xml:space="preserve">
<g id="SVGRepo_bgCarrier" stroke-width="0"/>
<g id="SVGRepo_tracerCarrier" stroke-linecap="round" stroke-linejoin="round"/>
<g id="SVGRepo_iconCarrier"> <g> <path d="M186.927,202.088h-50.218c-9.678,0-17.551,7.873-17.551,17.551v50.218c0,9.678,7.873,17.551,17.551,17.551h50.218 c9.678,0,17.551-7.873,17.551-17.551v-50.218C204.478,209.961,196.605,202.088,186.927,202.088z M196.478,269.856 c0,5.267-4.284,9.551-9.551,9.551h-50.218c-5.266,0-9.551-4.284-9.551-9.551v-50.218c0-5.267,4.285-9.551,9.551-9.551h50.218 c5.267,0,9.551,4.284,9.551,9.551V269.856z"/> <circle cx="181.046" cy="225.606" r="5.031"/> <circle cx="181.046" cy="263.889" r="5.031"/> <circle cx="142.59" cy="263.889" r="5.031"/> <circle cx="142.59" cy="225.606" r="5.031"/> <circle cx="161.818" cy="244.747" r="5.031"/> <circle cx="65.572" cy="70.967" r="5.031"/> <circle cx="65.572" cy="109.25" r="5.031"/> <circle cx="27.116" cy="109.25" r="5.031"/> <circle cx="27.116" cy="70.967" r="5.031"/> <path d="M86.927,124.768h-0.77c1.793-2.752,2.846-6.028,2.846-9.551V65c0-9.678-7.873-17.551-17.551-17.551H21.235 c-9.678,0-17.551,7.873-17.551,17.551v50.218c0,9.678,7.873,17.551,17.551,17.551h0.769c-1.793,2.752-2.846,6.028-2.846,9.551 v50.218c0,3.522,1.053,6.799,2.846,9.551h-4.454C7.873,202.088,0,209.961,0,219.638v50.218c0,9.678,7.873,17.551,17.551,17.551 h50.218c9.678,0,17.551-7.873,17.551-17.551v-50.218c0-3.522-1.053-6.799-2.846-9.551h4.454c9.678,0,17.551-7.873,17.551-17.551 v-50.218C104.478,132.641,96.605,124.768,86.927,124.768z M11.684,115.218V65c0-5.267,4.285-9.551,9.551-9.551h50.218 c5.266,0,9.551,4.284,9.551,9.551v50.218c0,5.267-4.285,9.551-9.551,9.551H21.235C15.969,124.768,11.684,120.484,11.684,115.218z M77.319,219.638v50.218c0,5.267-4.285,9.551-9.551,9.551H17.551c-5.266,0-9.551-4.284-9.551-9.551v-50.218 c0-5.267,4.285-9.551,9.551-9.551h19.158h31.06C73.035,210.088,77.319,214.372,77.319,219.638z M96.478,192.537 c0,5.267-4.285,9.551-9.551,9.551H36.709c-5.266,0-9.551-4.284-9.551-9.551v-50.218c0-5.267,4.285-9.551,9.551-9.551h34.744h15.475 c5.266,0,9.551,4.284,9.551,9.551V192.537z"/> <circle cx="81.046" cy="186.569" r="5.031"/> <circle cx="61.818" cy="167.428" r="5.031"/> <circle cx="42.59" cy="148.287" r="5.031"/> <circle cx="55.907" cy="257.908" r="5.031"/> <circle cx="29.412" cy="231.586" r="5.031"/> <path d="M317.305,124.768h-50.218c-9.678,0-17.551,7.873-17.551,17.551v50.218c0,3.522,1.053,6.799,2.846,9.551h-1.147 c-9.678,0-17.551,7.873-17.551,17.551v50.218c0,9.678,7.873,17.551,17.551,17.551h50.218c9.678,0,17.551-7.873,17.551-17.551 v-50.218c0-3.522-1.053-6.799-2.846-9.551h1.147c9.678,0,17.551-7.873,17.551-17.551v-50.218 C334.856,132.641,326.983,124.768,317.305,124.768z M311.004,219.638v50.218c0,5.267-4.284,9.551-9.551,9.551h-50.218 c-5.267,0-9.551-4.284-9.551-9.551v-50.218c0-5.267,4.284-9.551,9.551-9.551h50.218 C306.72,210.088,311.004,214.372,311.004,219.638z M326.856,192.537c0,5.267-4.284,9.551-9.551,9.551h-50.218 c-5.267,0-9.551-4.284-9.551-9.551v-50.218c0-5.267,4.284-9.551,9.551-9.551h50.218c5.267,0,9.551,4.284,9.551,9.551V192.537z"/> <circle cx="311.424" cy="148.287" r="5.031"/> <circle cx="311.424" cy="186.569" r="5.031"/> <circle cx="272.969" cy="186.569" r="5.031"/> <circle cx="272.969" cy="148.287" r="5.031"/> <circle cx="311.424" cy="167.428" r="5.031"/> <circle cx="272.969" cy="167.428" r="5.031"/> <circle cx="276.004" cy="244.747" r="5.031"/> </g> </g>
</svg>