<!DOCTYPE svg PUBLIC "-//W3C//DTD SVG 1.1//EN" "http://www.w3.org/Graphics/SVG/1.1/DTD/svg11.dtd">
<!-- Uploaded to: SVG Repo, www.svgrepo.com, Transformed by: SVG Repo Mixer Tools -->
<svg fill="#fefefe" version="1.1" id="Layer_1" xmlns="http://www.w3.org/2000/svg" xmlns:xlink="http://www.w3.org/1999/xlink" viewBox="0 0 512 512" xml:space="preserve" width="800px" height="800px">
<g id="SVGRepo_bgCarrier" stroke-width="0"/>
<g id="SVGRepo_tracerCarrier" stroke-linecap="round" stroke-linejoin="round"/>
<g id="SVGRepo_iconCarrier"> <g> <g> <path d="M88,0v512H424V0H88z M255.998,496C242.766,496,232,485.234,232,472c0-11.609,8.285-21.318,19.253-23.527h9.491 c10.969,2.21,19.254,11.917,19.254,23.527C279.999,485.234,269.233,496,255.998,496z M136.503,432.706V47.976h239.668v384.73 H136.503z M408,496H287.977c5.034-6.69,8.023-15.002,8.023-24c0-8.789-2.856-16.92-7.679-23.527H391.94V32.207H120.736v416.265 H223.68c-4.823,6.608-7.679,14.739-7.679,23.527c0,8.998,2.988,17.311,8.023,24H104V16H408V496z"/> </g> </g> <g> <g> <rect x="247.93" y="464.241" width="15.768" height="15.768"/> </g> </g> <g> <g> <rect x="351.996" y="464.241" width="15.768" height="15.768"/> </g> </g> <g> <g> <rect x="143.863" y="464.241" width="16.819" height="15.768"/> </g> </g> <g> <g> <rect x="351.996" y="55.334" width="15.768" height="15.768"/> </g> </g> <g> <g> <rect x="327.819" y="55.334" width="15.768" height="15.768"/> </g> </g> <g> <g> <rect x="303.642" y="55.334" width="15.768" height="15.768"/> </g> </g> <g> <g> <rect x="143.863" y="55.334" width="16.819" height="15.768"/> </g> </g> <g> <g> <rect x="207.985" y="104.739" width="95.657" height="15.768"/> </g> </g> <g> <g> <rect x="160.682" y="152.042" width="71.48" height="15.768"/> </g> </g> <g> <g> <rect x="247.93" y="152.042" width="31.535" height="15.768"/> </g> </g> <g> <g> <rect x="296.284" y="152.042" width="55.712" height="15.768"/> </g> </g> <g> <g> <rect x="160.682" y="184.628" width="103.015" height="15.768"/> </g> </g> <g> <g> <rect x="279.465" y="184.628" width="72.531" height="15.768"/> </g> </g> <g> <g> <rect x="160.682" y="216.164" width="39.945" height="15.768"/> </g> </g> <g> <g> <rect x="216.394" y="216.164" width="135.602" height="15.768"/> </g> </g> <g> <g> <rect x="160.682" y="247.699" width="63.07" height="15.768"/> </g> </g> <g> <g> <rect x="240.571" y="247.699" width="111.425" height="15.768"/> </g> </g> <g> <g> <rect x="160.682" y="280.285" width="103.015" height="15.768"/> </g> </g> <g> <g> <rect x="279.465" y="280.285" width="72.531" height="15.768"/> </g> </g> <g> <g> <rect x="160.682" y="311.821" width="23.126" height="15.768"/> </g> </g> <g> <g> <rect x="200.627" y="311.821" width="151.369" height="15.768"/> </g> </g> <g> <g> <rect x="160.682" y="343.356" width="191.314" height="15.768"/> </g> </g> <g> <g> <rect x="160.682" y="375.942" width="47.303" height="15.768"/> </g> </g> <g> <g> <rect x="351.996" y="408.529" width="15.768" height="15.768"/> </g> </g> <g> <g> <rect x="143.863" y="408.529" width="16.819" height="15.768"/> </g> </g> </g>
</svg>