<!DOCTYPE svg PUBLIC "-//W3C//DTD SVG 1.1//EN" "http://www.w3.org/Graphics/SVG/1.1/DTD/svg11.dtd">
<!-- Uploaded to: SVG Repo, www.svgrepo.com, Transformed by: SVG Repo Mixer Tools -->
<svg fill="#fefefe" height="800px" width="800px" version="1.1" id="Layer_1" xmlns="http://www.w3.org/2000/svg" xmlns:xlink="http://www.w3.org/1999/xlink" viewBox="0 0 512 512" xml:space="preserve">
<g id="SVGRepo_bgCarrier" stroke-width="0"/>
<g id="SVGRepo_tracerCarrier" stroke-linecap="round" stroke-linejoin="round"/>
<g id="SVGRepo_iconCarrier"> <g> <g> <path d="M501.801,33.176H10.199C4.566,33.176,0,37.742,0,43.375v425.25c0,5.633,4.566,10.199,10.199,10.199h491.602 c5.633,0,10.199-4.566,10.199-10.199V43.375C512,37.742,507.434,33.176,501.801,33.176z M66.351,458.426H20.398V53.574h45.952 V458.426z M491.602,458.426H86.749V53.574h404.852V458.426z"/> </g> </g> <g> <g> <path d="M289.175,66.351C184.602,66.351,99.527,151.428,99.527,256s85.077,189.649,189.649,189.649S478.824,360.572,478.824,256 S393.748,66.351,289.175,66.351z M289.176,425.251c-93.325,0-169.25-75.925-169.25-169.251S195.85,86.749,289.176,86.749 c93.325,0,169.25,75.925,169.25,169.251S382.501,425.251,289.176,425.251z"/> </g> </g> <g> <g> <path d="M289.176,184.979c-39.161,0-71.021,31.86-71.021,71.021c0,39.161,31.859,71.021,71.021,71.021 c39.161,0,71.021-31.86,71.021-71.021C360.197,216.839,328.337,184.979,289.176,184.979z M289.176,306.623 c-27.913,0-50.623-22.71-50.623-50.623s22.708-50.623,50.623-50.623c27.913,0,50.623,22.71,50.623,50.623 S317.089,306.623,289.176,306.623z"/> </g> </g> <g> <g> <path d="M289.176,223.181c-18.096,0-32.819,14.723-32.819,32.819c0,18.096,14.723,32.819,32.819,32.819 c18.096,0,32.819-14.723,32.819-32.819C321.995,237.904,307.272,223.181,289.176,223.181z M289.176,268.421 c-6.849,0-12.421-5.572-12.421-12.421c0-6.849,5.572-12.421,12.421-12.421c6.849,0,12.421,5.572,12.421,12.421 S296.025,268.421,289.176,268.421z"/> </g> </g> <g> <g> <path d="M427.768,293.819c-5.313-1.863-11.135,0.932-13.001,6.247c-18.676,53.229-69.147,88.992-125.591,88.992 c-5.633,0.001-10.199,4.567-10.199,10.2c0,5.633,4.566,10.199,10.199,10.199c65.094,0,123.301-41.247,144.839-102.638 C435.88,301.505,433.083,295.684,427.768,293.819z"/> </g> </g> <g> <g> <path d="M432.433,245.801c-5.633,0-10.199,4.566-10.199,10.199c0,3.895-0.17,7.826-0.506,11.683 c-0.487,5.612,3.667,10.556,9.278,11.044c0.301,0.027,0.599,0.039,0.894,0.039c5.233,0,9.688-4.005,10.149-9.316 c0.387-4.442,0.582-8.967,0.582-13.45C442.632,250.367,438.066,245.801,432.433,245.801z"/> </g> </g> </g>
</svg>