<?xml version="1.0" encoding="UTF-8" standalone="no"?>
<!-- Created with Inkscape (http://www.inkscape.org/) -->

<svg
   xmlns:dc="http://purl.org/dc/elements/1.1/"
   xmlns:cc="http://creativecommons.org/ns#"
   xmlns:rdf="http://www.w3.org/1999/02/22-rdf-syntax-ns#"
   xmlns:svg="http://www.w3.org/2000/svg"
   xmlns="http://www.w3.org/2000/svg"
   xmlns:sodipodi="http://sodipodi.sourceforge.net/DTD/sodipodi-0.dtd"
   xmlns:inkscape="http://www.inkscape.org/namespaces/inkscape"
   width="121.19178mm"
   height="180.28949mm"
   viewBox="0 0 121.19178 180.28949"
   version="1.1"
   id="svg8"
   inkscape:version="0.92.3 (2405546, 2018-03-11)"
   sodipodi:docname="Nikolaus2.svg">
  <title
     id="title4549">Nikolaus von Myra II</title>
  <defs
     id="defs2" />
  <sodipodi:namedview
     id="base"
     pagecolor="#ffffff"
     bordercolor="#666666"
     borderopacity="1.0"
     inkscape:pageopacity="0.0"
     inkscape:pageshadow="2"
     inkscape:zoom="0.70823529"
     inkscape:cx="-60.873403"
     inkscape:cy="344.6646"
     inkscape:document-units="mm"
     inkscape:current-layer="layer1"
     showgrid="false"
     inkscape:window-width="1920"
     inkscape:window-height="1027"
     inkscape:window-x="-8"
     inkscape:window-y="-8"
     inkscape:window-maximized="1"
     fit-margin-top="0"
     fit-margin-left="0"
     fit-margin-right="0"
     fit-margin-bottom="0" />
  <metadata
     id="metadata5">
    <rdf:RDF>
      <cc:Work
         rdf:about="">
        <dc:format>image/svg+xml</dc:format>
        <dc:type
           rdf:resource="http://purl.org/dc/dcmitype/StillImage" />
        <dc:title>Nikolaus von Myra II</dc:title>
        <cc:license
           rdf:resource="http://creativecommons.org/licenses/by-sa/4.0/" />
        <dc:creator>
          <cc:Agent>
            <dc:title>Perudor</dc:title>
          </cc:Agent>
        </dc:creator>
      </cc:Work>
      <cc:License
         rdf:about="http://creativecommons.org/licenses/by-sa/4.0/">
        <cc:permits
           rdf:resource="http://creativecommons.org/ns#Reproduction" />
        <cc:permits
           rdf:resource="http://creativecommons.org/ns#Distribution" />
        <cc:requires
           rdf:resource="http://creativecommons.org/ns#Notice" />
        <cc:requires
           rdf:resource="http://creativecommons.org/ns#Attribution" />
        <cc:permits
           rdf:resource="http://creativecommons.org/ns#DerivativeWorks" />
        <cc:requires
           rdf:resource="http://creativecommons.org/ns#ShareAlike" />
      </cc:License>
    </rdf:RDF>
  </metadata>
  <g
     inkscape:label="Ebene 1"
     inkscape:groupmode="layer"
     id="layer1"
     transform="translate(-36.821227,-66.586308)">
    <path
       style="fill:#000000;stroke-width:0.26458332"
       d="m 93.971557,246.80193 c -3.0907,-0.5854 -8.79663,-3.14309 -10.55416,-4.73091 -0.56064,-0.50651 -1.12975,-0.92093 -1.26468,-0.92093 -0.13493,0 -1.32611,-1.07156 -2.64706,-2.38125 -1.32095,-1.30968 -2.521,-2.38125 -2.66677,-2.38125 -0.14577,0 -0.41326,-0.17859 -0.59441,-0.39687 -0.18116,-0.21828 -0.43629,-0.39688 -0.56694,-0.39688 -0.39779,0 0.72609,1.93346 1.61486,2.77813 1.02792,0.97691 1.86249,2.77645 1.86249,4.01598 0,2.26908 -2.51291,3.61691 -5.71937,3.06767 -2.06359,-0.35347 -4.43717,-1.68767 -4.87261,-2.7389 -0.16341,-0.39451 -0.4962,-0.93816 -0.73954,-1.20811 -0.72946,-0.80922 -1.37118,-3.03272 -1.36979,-4.74619 l 0.001,-1.60955 h -0.82398 c -0.63898,0 -1.06031,-0.26236 -1.87661,-1.16857 -1.52767,-1.69591 -2.06193,-2.8866 -2.06193,-4.59532 0,-1.28012 0.0991,-1.55819 0.79138,-2.21973 l 0.79137,-0.75628 -0.69467,-1.69342 c -1.31875,-3.21475 -0.88264,-7.18637 1.0803,-9.83825 1.45584,-1.9668 3.70751,-3.86831 6.03527,-5.09674 0.98226,-0.51837 1.78594,-1.04061 1.78594,-1.16054 0,-0.11993 0.36641,-0.36983 0.81424,-0.55533 0.44784,-0.1855 1.00855,-0.64643 1.24603,-1.02429 0.23748,-0.37786 0.75038,-0.98467 1.13978,-1.34847 1.35642,-1.26726 3.56555,-5.71202 3.91321,-7.87335 0.14647,-0.91061 0.33934,-1.77381 0.4286,-1.91823 0.19661,-0.31814 -0.19325,-0.34906 -0.54363,-0.0431 -0.24765,0.21623 -2.52075,0.66485 -4.91514,0.97006 -0.77691,0.099 -2.14915,-0.0371 -3.75573,-0.3726 -2.31714,-0.48388 -3.37009,-0.90654 -5.99615,-2.40688 -0.50706,-0.28969 -1.22618,-0.52671 -1.59806,-0.52671 -2.81823,0 -8.73628,-2.92478 -11.50645,-5.68664 -1.03514,-1.03202 -3.03425,-3.73815 -3.72078,-5.03669 -1.92704,-3.6449 -2.05646,-4.00963 -3.04837,-8.59126 -0.6287,-2.90391 -0.58141,-6.21624 0.1368,-9.58145 l 0.43555,-2.04082 -0.8138,-1.61214 c -0.53609,-1.06198 -0.86737,-2.18576 -0.97077,-3.29305 -0.1525,-1.63304 -0.18523,-1.69366 -1.14946,-2.12846 -1.19303,-0.53798 -3.69796,-2.8644 -3.69796,-3.43443 0,-0.22353 -0.11116,-0.61315 -0.24703,-0.86584 -0.45567,-0.84745 -0.8113,-2.92737 -0.8113,-4.74492 0,-1.91599 0.83874,-4.74244 1.81356,-6.11144 0.7003,-0.98349 3.38123,-3.49369 3.7313,-3.49369 0.15668,0 0.78889,-0.50601 1.4049,-1.12448 0.61602,-0.61846 1.35541,-1.25478 1.6431,-1.41405 0.49551,-0.27431 0.499,-0.31366 0.0662,-0.7465 -0.25131,-0.25131 -0.45693,-0.56949 -0.45693,-0.70707 0,-0.13757 -0.55708,-0.78391 -1.23796,-1.4363 -0.98333,-0.94221 -1.43229,-1.18858 -2.18281,-1.19786 -1.46764,-0.0181 -3.25353,-0.58823 -4.05371,-1.29404 -0.40018,-0.35298 -0.7276,-0.72391 -0.7276,-0.82427 0,-0.10037 0.56555,-0.32976 1.25677,-0.50975 0.69122,-0.17999 1.46513,-0.38208 1.71979,-0.44909 0.6588,-0.17334 0.57323,-0.62746 -0.2922,-1.55064 -0.93403,-0.99636 -1.36144,-1.7771 -1.36144,-2.48689 0,-0.67537 0.12102,-0.67844 1.17079,-0.0296 0.9715,0.60041 3.31836,1.01078 4.64245,0.81176 l 0.91845,-0.13805 -0.96553,-0.79449 c -1.23262,-1.01427 -2.01388,-3.06916 -1.51867,-3.99447 0.59999,-1.12109 3.16009,-1.50509 5.7263,-0.85891 0.91587,0.23062 1.33179,0.23062 1.70107,0 0.26883,-0.16789 0.88944,-0.30526 1.37912,-0.30526 h 0.89034 l 0.15667,-2.22011 c 0.18653,-2.64316 0.92989,-4.46318 2.05145,-5.02268 0.6643,-0.3314 0.85814,-0.32427 1.62498,0.0598 0.74891,0.3751 0.90805,0.63361 1.13778,1.84824 0.23333,1.23364 0.37492,1.45741 1.12016,1.77029 0.46919,0.19699 1.27683,0.78192 1.79476,1.29985 0.51793,0.51792 0.97704,0.94168 1.02026,0.94168 0.0432,0 0.60479,-0.47457 1.24795,-1.0546 0.64316,-0.58003 1.36459,-1.05628 1.60318,-1.05833 0.23859,-0.002 0.89344,0.40767 1.45521,0.91051 0.96721,0.86574 1.03421,0.88649 1.26284,0.39112 0.29746,-0.64452 1.32449,-0.93142 2.09405,-0.58498 1.50553,0.67774 2.39845,0.86279 2.59882,0.53858 0.10952,-0.1772 0.12803,-1.24413 0.0411,-2.37095 -0.21764,-2.82229 0.30634,-4.22406 1.80274,-4.8228 0.82385,-0.32964 1.28412,-0.36638 2.04001,-0.16285 0.98995,0.26657 3.03502,2.02039 3.73478,3.20289 1.41687,2.39431 2.03248,3.29348 2.26369,3.30637 0.14552,0.008 0.59355,0.11071 0.99562,0.22799 1.38642,0.40438 1.89964,-1.00096 0.82093,-2.24795 -0.19874,-0.22974 -0.36134,-0.53004 -0.36134,-0.66732 0,-0.13729 -0.33856,-0.66369 -0.75235,-1.16979 -0.4138,-0.5061 -0.83279,-1.24761 -0.93109,-1.64779 -0.0983,-0.40018 -0.29552,-0.7276 -0.43827,-0.7276 -0.14275,0 -0.25954,-0.12738 -0.25954,-0.28306 0,-0.15568 -0.33917,-0.78076 -0.7537,-1.38906 -0.41454,-0.6083 -0.83052,-1.42148 -0.92442,-1.80706 -0.0939,-0.38557 -0.63144,-1.51667 -1.19455,-2.51354 -0.56311,-0.99687 -1.10711,-2.11015 -1.20888,-2.47395 -0.19117,-0.683348 -0.27774,-0.902228 -1.1511,-2.910408 -0.98989,-2.27613 -1.24965,-4.1735 -1.24965,-9.12813 0,-2.95027 0.12121,-5.16522 0.31853,-5.82083 1.42141,-4.7227 2.21417,-6.75719 3.23703,-8.30729 0.5183,-0.78547 1.19743,-1.85703 1.50919,-2.38125 0.33744,-0.56742 0.81455,-0.99023 1.17899,-1.04482 0.67323,-0.10084 2.27688,0.30501 3.61001,0.91361 0.84842,0.38732 0.86743,0.38069 1.71979,-0.59954 2.70698,-3.1131 4.70456,-4.47752 6.20004,-4.23484 1.17217,0.19022 5.045528,2.0867 6.303248,3.08621 0.54948,0.43668 1.09621,0.79396 1.21495,0.79396 0.11873,0 0.74469,0.50602 1.391015,1.12448 4.04253,3.8683 5.43143,5.68614 7.25157,9.49115 1.74828,3.65478 1.81605,3.90542 2.43765,9.01533 0.41571,3.41731 0.53737,6.00808 0.53737,11.443228 0,6.71553 0.0221,7.02581 0.50055,7.02581 0.2753,0 1.08012,0.52107 1.78847,1.15795 0.95855,0.86181 1.37159,1.47079 1.6151,2.38125 0.25133,0.93969 0.4503,1.2233 0.85824,1.2233 0.66688,0 3.04307,2.26304 3.42128,3.25837 0.15566,0.40965 0.28303,1.27286 0.28303,1.91823 0,0.64537 0.0298,1.17519 0.0661,1.17738 1.19618,0.072 3.76368,2.22731 4.72311,3.96477 0.49667,0.89942 0.45954,5.78487 -0.0463,6.09751 -0.27631,0.17077 -0.2871,0.35093 -0.0498,0.83059 0.9533,1.92666 0.90801,5.77532 -0.0848,7.20271 -0.31332,0.45049 -0.20678,0.67815 0.99057,2.11667 0.7379,0.88654 1.44688,1.65158 1.57551,1.70009 0.12862,0.0485 0.23386,0.28822 0.23386,0.53269 0,0.24448 0.42497,1.07555 0.94437,1.84681 0.5194,0.77127 1.28812,2.19843 1.70827,3.17147 0.42015,0.97304 0.89613,1.73674 1.05774,1.69711 0.1616,-0.0396 1.02999,-0.14833 1.92975,-0.24155 1.26313,-0.13088 1.87708,-0.35562 2.69424,-0.98628 0.58209,-0.44923 1.09803,-0.90608 1.14653,-1.01522 0.0485,-0.10914 0.32231,-0.19844 0.60845,-0.19844 0.28615,0 0.88651,-0.18939 1.33414,-0.42087 0.49672,-0.25686 1.26355,-0.38511 1.96784,-0.32909 1.06355,0.0846 1.1744,0.0331 1.41484,-0.65656 0.14348,-0.41159 0.62126,-1.20337 1.06173,-1.7595 0.44047,-0.55615 0.80085,-1.11618 0.80085,-1.24452 0,-0.12835 0.54981,-0.4684 1.2218,-0.75568 l 1.2218,-0.52232 -0.16542,-5.68854 c -0.091,-3.1287 -0.24114,-7.17682 -0.33369,-8.99583 l -0.16828,-3.30729 -0.82196,-0.53758 -0.82196,-0.53757 v -3.21107 c 0,-2.91512 -0.0529,-3.27196 -0.5739,-3.87159 -1.69921,-1.95565 -1.49105,-3.73682 0.65863,-5.63563 0.63096,-0.55732 0.63252,-0.57034 0.12654,-1.05833 -0.72023,-0.69463 -2.13083,-1.68469 -2.40027,-1.68469 -0.12433,0 -1.02494,-0.53578 -2.00135,-1.19063 -0.97641,-0.65484 -1.88062,-1.19062 -2.00936,-1.19062 -0.37941,0 -3.22733,-2.39743 -4.51591,-3.80156 -0.65485,-0.713568 -1.40245,-1.757478 -1.66134,-2.319788 -0.25889,-0.56232 -0.57261,-1.0224 -0.69715,-1.0224 -0.54849,0 -1.18222,-2.88003 -1.28915,-5.85858 -0.12375,-3.44701 0.18056,-4.94312 1.53732,-7.55815 0.43307,-0.8347 0.7874,-1.64015 0.7874,-1.78989 0,-0.34543 3.56668,-4.10796 3.89412,-4.10796 0.13415,0 0.63236,-0.34681 1.10714,-0.7707 0.47477,-0.42388 1.24036,-0.91177 1.70129,-1.0842 0.46094,-0.17243 1.43339,-0.54876 2.16099,-0.83628 0.79632,-0.31467 2.28278,-0.58229 3.73426,-0.67231 2.01924,-0.12522 2.72912,-0.0541 4.36562,0.43774 2.15469,0.6475 3.76076,1.48819 4.65659,2.43746 0.3221,0.34132 0.94794,0.97777 1.39075,1.41433 0.44281,0.43656 0.8719,1.00211 0.95354,1.25677 0.0816,0.25466 0.24411,0.46302 0.36104,0.46302 0.11693,0 0.57286,0.74414 1.01318,1.65365 3.92511,8.10754 -0.80531,16.84232 -9.38471,17.32901 -2.41741,0.13713 -2.44933,0.1308 -4.48635,-0.88946 -1.12838,-0.56517 -2.25821,-1.14211 -2.51072,-1.28209 -0.25251,-0.13998 -0.87216,-0.95273 -1.377,-1.80611 -1.14894,-1.94217 -1.4789,-4.10692 -0.85397,-5.6026 0.22989,-0.5502 0.41798,-1.19824 0.41798,-1.44011 0,-0.24186 0.62508,-1.04597 1.38906,-1.78691 2.34652,-2.27576 5.08727,-2.87422 7.78137,-1.69912 0.75087,0.32751 1.68755,0.95724 2.08152,1.3994 0.6098,0.6844 0.72153,1.05746 0.75145,2.50909 0.0326,1.58014 0.0585,1.65051 0.35394,0.95968 0.4385,-1.02539 0.41958,-1.40063 -0.1796,-3.56284 -0.61334,-2.21331 -1.11638,-3.0677 -2.00512,-3.4056 -0.35619,-0.13543 -0.64762,-0.34892 -0.64762,-0.47443 0,-0.12551 -0.67681,-0.5596 -1.50402,-0.96465 -1.31653,-0.64464 -1.72058,-0.71978 -3.24115,-0.60274 -1.21803,0.0938 -2.11163,0.34671 -2.99039,0.84648 -1.37678,0.783 -4.16687,3.69156 -4.1772,4.35454 -0.004,0.22986 -0.2417,1.12103 -0.52916,1.98036 -0.79228,2.36842 -0.61827,4.59781 0.56495,7.23778 0.50336,1.12308 3.53495,4.29667 4.10442,4.29667 0.16468,0 0.46283,0.19916 0.66255,0.44258 0.19972,0.243417 1.31563,1.079828 2.47979,1.858688 3.42006,2.28812 3.89446,2.64734 5.42396,4.10715 2.30439,2.1994 2.99698,3.45903 2.97183,5.40496 -0.0164,1.26854 -0.17119,1.86479 -0.70268,2.70672 -0.7775,1.23163 -0.82391,1.55781 -0.3256,2.28821 0.19583,0.28704 0.49562,1.2464 0.66619,2.13191 0.34517,1.79189 0.0435,2.98179 -0.99416,3.92082 -0.29962,0.27116 -0.48973,0.58207 -0.42246,0.69091 0.0673,0.10884 0.19091,3.93269 0.27477,8.49745 0.0839,4.56476 0.20488,8.55951 0.26895,8.87723 0.0641,0.31773 0.38409,0.65897 0.71117,0.75832 1.07597,0.32682 2.29993,1.44479 2.53076,2.31162 0.24198,0.90867 -0.0399,2.1457 -0.65061,2.85551 -0.19768,0.22974 -0.35941,0.73015 -0.35941,1.11203 0,0.38188 -0.13919,0.99982 -0.30932,1.3732 -0.27505,0.60366 -0.22374,0.76822 0.46302,1.48515 0.63342,0.66125 0.76768,1.02143 0.74642,2.00255 -0.026,1.1974 -0.42338,1.76049 -1.85046,2.6217 -0.37268,0.2249 -0.46023,0.62162 -0.4379,1.98438 0.0317,1.93381 0.4908,13.71991 0.86512,22.20848 0.13796,3.1287 0.36638,10.86776 0.50761,17.19792 0.14122,6.33015 0.31886,12.5214 0.39476,13.75833 0.0759,1.23693 0.2026,4.51114 0.28156,7.27604 0.079,2.7649 0.27805,8.34032 0.44241,12.38983 l 0.29884,7.36274 -0.70704,0.70705 c -0.57587,0.57587 -0.95,0.70705 -2.0166,0.70705 -2.1817,0 -2.34389,-0.3225 -2.52673,-5.02424 -0.0847,-2.1786 -0.19874,-4.0058 -0.25337,-4.06043 -0.0546,-0.0546 -0.25949,0.44989 -0.45523,1.12117 -0.63376,2.17349 -4.87184,6.2437 -6.50122,6.2437 -0.30377,0 -0.62094,0.11105 -0.70483,0.24679 -0.0839,0.13573 -0.83505,0.37854 -1.66926,0.53958 -3.03164,0.58524 -2.8124,0.46913 -2.31608,1.2266 0.55939,0.85374 0.31045,1.17292 -1.67541,2.14814 -1.28047,0.62883 -1.81856,0.73369 -3.7649,0.73369 -2.19187,0 -2.29516,-0.0276 -2.9682,-0.79375 -0.38351,-0.43657 -0.70289,-0.91282 -0.70971,-1.05834 -0.007,-0.14552 -0.11804,-0.43141 -0.24715,-0.63532 -0.18879,-0.29819 -0.58929,-0.1467 -2.04647,0.77409 -3.30463,2.08819 -9.34421,3.96055 -12.77974,3.96191 -0.54349,2.2e-4 -1.90572,0.48289 -3.36131,1.19099 -1.34611,0.65484 -2.69488,1.19062 -2.99727,1.19062 -0.30238,0 -0.99245,0.19714 -1.53348,0.43809 -0.76978,0.34282 -1.99053,0.45313 -5.613895,0.5073 -2.54662,0.0381 -4.927868,0.0129 -5.291668,-0.056 z m 10.980213,-1.9216 c 1.16416,-0.41602 2.59291,-0.94404 3.175,-1.17337 l 1.05833,-0.41697 -1.52135,-0.0116 c -0.83675,-0.006 -1.52136,-0.11156 -1.52136,-0.23372 0,-0.55021 1.76163,-0.9044 5.55625,-1.11714 2.25558,-0.12646 4.99401,-0.41516 6.08542,-0.64157 2.29377,-0.47582 7.36928,-2.82811 8.78585,-4.07187 0.51771,-0.45456 1.03314,-0.82648 1.14539,-0.82648 0.11225,0 0.87044,-0.60972 1.68486,-1.35492 3.7233,-3.40688 5.24798,-4.68365 6.04484,-5.06197 0.32742,-0.15544 0.59531,-0.38258 0.59531,-0.50474 0,-0.12216 0.1636,-0.22212 0.36355,-0.22212 0.19995,0 0.88456,-0.28436 1.52135,-0.63193 0.6368,-0.34756 1.63406,-0.77866 2.21614,-0.958 1.06926,-0.32944 1.81607,-0.79132 1.27949,-0.79132 -0.15486,0 -0.48617,-0.53578 -0.73626,-1.19062 -0.25009,-0.65484 -0.54053,-1.19063 -0.64542,-1.19063 -0.28553,0 -1.6176,-2.56938 -1.6176,-3.12014 0,-0.263 -0.10968,-0.5913 -0.24373,-0.72954 -0.44918,-0.46322 -2.13492,-3.94998 -2.13623,-4.41854 -7.9e-4,-0.25467 -0.0477,-0.46303 -0.10447,-0.46303 -0.0568,0 -0.74169,0.62839 -1.52209,1.39642 -1.2548,1.23491 -4.86056,4.11603 -6.02052,4.81059 -0.2332,0.13963 -1.01931,0.63805 -1.74692,1.10758 -1.25711,0.81123 -2.67469,1.40789 -6.87917,2.89546 -2.04115,0.72217 -5.96798,1.56826 -8.53281,1.8385 -1.84301,0.1942 -1.8739,0.24537 -1.40057,2.32023 0.13919,0.61014 0.49664,2.19676 0.79433,3.52582 0.29769,1.32906 0.71959,2.84328 0.93755,3.36494 0.68106,1.63 0.31162,2.021 -0.46977,0.49718 -0.20372,-0.39729 -0.61037,-1.1411 -0.90367,-1.65292 -0.48832,-0.85215 -0.77747,-2.00889 -1.42082,-5.684 -0.43965,-2.51152 -0.27554,-2.34363 -2.81821,-2.88316 -1.27909,-0.27141 -2.82306,-0.77553 -3.43106,-1.12026 -1.36869,-0.77605 -1.57693,-0.77981 -1.74345,-0.0315 -0.51877,2.33127 -1.184235,4.32857 -2.049595,6.15156 -0.55263,1.16417 -1.08709,2.39574 -1.18771,2.73682 -0.10061,0.34107 -0.52855,1.13225 -0.95097,1.75816 -0.42242,0.62591 -0.76804,1.20591 -0.76804,1.28889 0,0.36711 -1.552398,2.52507 -2.558098,3.55597 -1.12065,1.14873 -1.78851,1.16143 -0.93705,0.0178 0.25652,-0.34452 0.64035,-0.98359 0.85296,-1.42016 0.21262,-0.43656 0.69311,-1.21047 1.06776,-1.71979 0.37465,-0.50932 1.030988,-1.69995 1.458538,-2.64583 0.42754,-0.94589 0.83707,-1.77933 0.91006,-1.85209 0.21787,-0.21717 0.70865,-1.36993 1.18277,-2.77812 0.24498,-0.7276 0.54672,-1.56104 0.67053,-1.85208 0.49635,-1.16671 1.32128,-3.86778 1.32128,-4.32626 0,-0.26823 -0.22977,-0.59517 -0.5106,-0.72655 -0.76573,-0.35822 -3.98731,-3.33853 -3.98731,-3.68869 0,-0.16754 -0.250798,-0.53144 -0.557318,-0.80865 -0.58555,-0.52956 -1.49589,-2.09469 -1.96767,-3.38296 l -0.27915,-0.76227 -0.44505,0.67924 c -0.79029,1.20613 -1.51331,2.57381 -1.51331,2.8626 0,0.15478 -0.53578,0.98593 -1.19063,1.84699 -0.65484,0.86106 -1.19168,1.65354 -1.19298,1.76105 -0.003,0.2785 -3.53033,4.50347 -4.9936,5.98182 -1.50589,1.52142 -4.31511,3.46753 -4.59762,3.18503 -0.0656,-0.0656 1.14651,-1.39661 2.69355,-2.95781 3.13341,-3.16209 4.20323,-4.38535 4.7711,-5.4554 0.21154,-0.3986 0.71391,-1.06931 1.11638,-1.49046 0.40247,-0.42115 0.91437,-1.15757 1.13754,-1.6365 0.22317,-0.47893 0.76066,-1.40656 1.19443,-2.0614 0.43377,-0.65485 0.85778,-1.36922 0.94225,-1.5875 0.0845,-0.21828 0.42313,-0.99219 0.75259,-1.71979 0.55076,-1.21634 0.57289,-1.44016 0.27456,-2.77813 -0.92381,-4.14325 -1.22302,-10.84899 -0.64206,-14.38928 0.76469,-4.65983 1.08644,-6.49165 1.32985,-7.57113 0.14766,-0.65485 0.4019,-1.96454 0.56497,-2.91042 0.16308,-0.94589 0.81528,-3.79304 1.44933,-6.32701 0.63406,-2.53397 1.152838,-4.7155 1.152838,-4.84785 0,-0.13234 -0.313718,0.006 -0.697138,0.30774 -0.38343,0.3016 -0.91218,0.54837 -1.17501,0.54837 -0.26283,0 -0.54337,0.10598 -0.62342,0.2355 -0.29174,0.47205 -3.79496,1.14379 -4.96624,0.95228 -1.3002,-0.21258 -3.57404,-1.0997 -4.21974,-1.64629 -0.24021,-0.20334 -0.49667,-0.27266 -0.56991,-0.15404 -0.32418,0.52505 -0.95946,5.34189 -1.23234,9.3438 -0.16373,2.40109 -0.40753,4.96094 -0.54179,5.68854 -0.13426,0.7276 -0.31333,1.97776 -0.39794,2.77813 -0.0846,0.80036 -0.25644,1.81239 -0.38185,2.24895 -0.6059,2.10904 -0.91199,2.9934 -1.36795,3.9523 -0.27248,0.57304 -0.49542,1.22947 -0.49542,1.45874 0,0.22927 -0.4266,1.05032 -0.94799,1.82454 -1.01812,1.51182 -1.04099,1.99024 -0.0571,1.19511 0.33564,-0.27125 0.90606,-0.73131 1.2676,-1.02235 1.37166,-1.10417 4.24381,-4.25808 4.39727,-4.82865 0.0881,-0.32742 0.23721,-0.59531 0.33144,-0.59531 0.0942,0 0.31951,-0.33482 0.50066,-0.74405 0.18114,-0.40923 0.55905,-0.99061 0.8398,-1.29196 0.28075,-0.30135 0.64109,-1.03307 0.80076,-1.62603 0.36067,-1.33942 0.85679,-1.73716 0.6465,-0.5183 -0.0828,0.48018 -0.24996,1.1707 -0.37138,1.53451 -0.12142,0.3638 -0.29199,0.98787 -0.37904,1.38683 -0.16755,0.76788 -2.67717,4.76484 -3.49956,5.57361 -1.56308,1.53719 -2.82668,2.56455 -3.15423,2.56455 -0.20608,0 -0.37469,0.0936 -0.37469,0.20811 0,0.43529 -6.21956,4.55439 -6.8768,4.55439 -0.79564,0 -5.29404,3.51505 -5.29404,4.13676 0,0.20777 -0.17548,0.44511 -0.38996,0.52741 -0.21449,0.0823 -0.77222,0.76318 -1.23942,1.51305 -0.82966,1.33164 -0.84986,1.4374 -0.86681,4.53841 -0.0196,3.59011 0.22461,4.55738 1.5817,6.26446 0.50015,0.62913 0.91051,1.2254 0.91192,1.32505 0.005,0.37131 2.85273,3.01284 3.79121,3.51701 0.53562,0.28775 0.97386,0.60135 0.97386,0.69687 0,0.31392 2.75186,1.24979 4.03695,1.37292 1.00461,0.0962 1.48199,0.32749 2.36395,1.14507 5.4344,5.03771 6.4061,5.90333 6.63621,5.91175 0.11265,0.004 0.77806,0.40182 1.47869,0.88376 0.70063,0.48195 1.68002,1.02998 2.17643,1.21784 0.49641,0.18787 1.73039,0.69685 2.74218,1.13107 2.52086,1.08186 3.36556,1.21126 8.082258,1.23812 3.872615,0.022 4.218945,-0.0188 6.217715,-0.73306 z m -28.442713,-1.18209 c 1.05909,-0.3151 1.19996,-0.44861 1.27516,-1.20843 0.0788,-0.79661 -0.33329,-1.53332 -2.00757,-3.58867 -0.68665,-0.84294 -1.86757,-2.73095 -2.0273,-3.24115 -0.1025,-0.32742 -0.33176,-0.59531 -0.50947,-0.59531 -0.1777,0 -0.76471,-0.22515 -1.30446,-0.50033 -0.53975,-0.27518 -1.24953,-0.57264 -1.5773,-0.66102 -0.65769,-0.17734 -3.35138,-2.67454 -5.28585,-4.90028 l -1.2441,-1.43141 -0.29519,0.76995 c -0.59253,1.54558 0.44873,4.27848 2.02321,5.31012 0.64671,0.42374 0.70646,0.42417 0.94009,0.007 0.13722,-0.24519 0.47942,-0.44581 0.76045,-0.44581 0.46915,0 0.50974,0.2003 0.49604,2.4474 -0.012,1.96445 0.0934,2.66677 0.53422,3.55909 0.30204,0.61144 0.54915,1.27126 0.54915,1.46627 0,0.19501 0.53945,0.88537 1.19876,1.53413 0.92128,0.90653 1.51841,1.24926 2.57969,1.48061 1.88447,0.41081 2.50848,0.41051 3.89447,-0.002 z m 57.850333,-4.41514 c 0.70622,-0.3556 1.33078,-0.67344 1.38789,-0.7063 0.0571,-0.0329 -0.0158,-0.21146 -0.16195,-0.39687 -0.14619,-0.18542 -0.34402,-0.66455 -0.43962,-1.06473 -0.16611,-0.69536 -0.12963,-0.72778 0.82341,-0.73152 3.01571,-0.0118 6.77477,-1.68304 8.90272,-3.95798 1.31857,-1.40967 2.64664,-3.91153 2.49661,-4.70322 -0.15856,-0.83664 -1.78796,-0.71393 -4.49036,0.33817 -1.35968,0.52935 -2.82934,1.04438 -3.26591,1.14449 -0.89555,0.20538 -3.57187,1.84998 -3.57187,2.19492 0,0.12377 -0.1779,0.22503 -0.39534,0.22503 -0.21743,0 -0.93881,0.53579 -1.60306,1.19063 -0.66425,0.65484 -1.3092,1.19062 -1.43322,1.19062 -0.12403,0 -0.5041,0.32743 -0.84461,0.72761 -0.34051,0.40018 -1.125,1.12456 -1.74331,1.60973 -0.92648,0.72698 -1.12421,1.03928 -1.12421,1.77563 0,1.43468 0.85142,2.04177 2.68471,1.91426 0.87516,-0.0609 2.02599,-0.37175 2.77812,-0.75047 z m 18.06113,-2.89189 c 0.3163,-0.003 0.34625,-1.17863 0.19723,-7.74268 -0.20873,-9.19455 -0.58932,-20.76067 -0.95988,-29.17031 -0.14748,-3.34698 -0.38865,-9.41917 -0.53595,-13.49375 -0.14729,-4.07458 -0.31954,-7.94411 -0.38277,-8.59896 -0.0632,-0.65484 -0.18456,-4.70297 -0.26963,-8.99583 -0.0851,-4.29286 -0.22244,-9.02112 -0.30526,-10.50724 l -0.1506,-2.70202 -0.9674,-0.47298 c -0.77683,-0.3798 -0.98374,-0.64236 -1.05032,-1.33286 -0.0456,-0.47295 -0.2083,-0.8599 -0.36155,-0.8599 -0.18192,0 -0.22492,0.574 -0.12386,1.65365 0.23324,2.4918 0.41117,7.39318 0.59312,16.33802 0.0903,4.43838 0.19721,8.12932 0.23762,8.20208 0.0404,0.0728 0.15134,2.39448 0.24651,5.15937 0.0952,2.7649 0.28442,7.40834 0.42056,10.31875 0.13613,2.91042 0.37159,8.68495 0.52325,12.83229 0.15165,4.14735 0.39284,10.69841 0.53598,14.55791 0.14313,3.8595 0.26024,8.7609 0.26024,10.89201 0,4.05927 0.0657,4.28232 1.19062,4.04003 0.29105,-0.0627 0.69699,-0.1156 0.90209,-0.11758 z m -3.78134,-13.6958 c -0.0987,-2.583 -0.23812,-5.70839 -0.30987,-6.94532 -0.0718,-1.23692 -0.24415,-7.70323 -0.38312,-14.36958 -0.13898,-6.66634 -0.30926,-12.21217 -0.37842,-12.32406 -0.0691,-0.1119 -0.14305,-2.03067 -0.16422,-4.26395 -0.0212,-2.23328 -0.0904,-4.19579 -0.15385,-4.36114 -0.0754,-0.19636 -0.67002,-0.0257 -1.71446,0.49195 -1.27773,0.6333 -2.0384,0.81564 -3.78506,0.90732 -2.85599,0.1499 -4.68433,-0.26753 -6.63448,-1.51472 -0.87391,-0.5589 -1.94612,-1.09896 -2.38268,-1.20015 -0.43656,-0.10119 -1.00928,-0.37823 -1.2727,-0.61566 -0.45998,-0.41458 -0.47308,-0.32464 -0.33073,2.26957 0.0815,1.48569 0.21272,3.88492 0.29156,5.33161 0.13599,2.49541 1.17319,10.79518 1.70476,13.64152 0.13588,0.72761 0.37056,2.15636 0.52152,3.175 0.37611,2.53802 0.73784,4.08918 1.60423,6.87917 0.4067,1.30969 0.81364,2.71391 0.90431,3.12049 0.0907,0.40658 0.63751,1.73412 1.21522,2.95009 0.5777,1.21597 1.05683,2.37159 1.06474,2.56805 0.008,0.19646 0.47678,1.13111 1.04197,2.07699 0.56518,0.94589 1.2664,2.22581 1.55825,2.84428 0.29186,0.61846 0.6283,1.12447 0.74766,1.12447 0.11935,0 0.51299,0.48108 0.87477,1.06906 0.64108,1.04194 0.68462,1.06381 1.7161,0.86189 1.8508,-0.36231 3.29351,-0.20445 3.78773,0.41444 0.24508,0.30691 0.49299,0.5596 0.5509,0.56153 0.0579,0.002 0.0246,-2.10986 -0.0741,-4.69285 z m -35.74991,3.36422 c 1.01864,-0.14483 2.80458,-0.51449 3.96875,-0.82146 1.16416,-0.30698 2.59749,-0.65408 3.18516,-0.77132 0.9753,-0.1946 5.71284,-2.31379 6.33984,-2.83594 0.14552,-0.12119 1.19685,-0.84917 2.3363,-1.61774 1.13944,-0.76856 2.32178,-1.68498 2.6274,-2.03649 0.30563,-0.35149 0.68304,-0.63901 0.8387,-0.63891 0.15566,1e-4 0.89934,-0.67253 1.65264,-1.49473 l 1.36962,-1.49492 -0.54624,-1.34953 c -0.30042,-0.74225 -0.60185,-1.61032 -0.66984,-1.92905 l -0.12361,-0.57952 -0.62089,0.57952 c -0.98146,0.91605 -1.23482,1.09921 -2.63489,1.90486 -0.72533,0.41738 -1.65533,1.03406 -2.06668,1.37041 -0.41135,0.33634 -0.9067,0.61153 -1.10079,0.61153 -0.19409,0 -1.16722,0.45971 -2.16251,1.02157 -3.1384,1.77168 -9.6253,3.12464 -13.80175,2.87861 -3.20137,-0.18859 -6.64618,-1.36518 -8.25206,-2.81853 -4.049945,-3.66528 -4.796495,-8.63594 -3.540185,-23.57123 0.396875,-4.71804 0.569375,-5.95216 1.719705,-12.30312 0.98559,-5.4414 1.03472,-6.08492 1.04357,-13.66817 0.009,-8.11816 -0.0763,-9.0952 -0.77353,-8.80797 -0.23671,0.0975 -0.93385,0.23888 -1.54921,0.31414 -0.885925,0.10835 -1.266355,0.33023 -1.827415,1.06582 l -0.70856,0.92898 0.31902,2.80755 c 0.17546,1.54416 0.26362,3.28381 0.19591,3.8659 -0.0677,0.58208 -0.20573,1.9513 -0.30671,3.04271 -0.10097,1.0914 -0.35662,2.40109 -0.56811,2.91041 -0.2115,0.50933 -0.42053,1.40229 -0.46453,1.98438 -0.044,0.58208 -0.27103,1.83224 -0.5045,2.77812 -0.23347,0.94589 -0.55517,2.31511 -0.71487,3.04271 -0.568758,2.59117 -1.611788,7.17071 -2.018758,8.86354 -0.87299,3.63131 -1.75294,12.75265 -1.54426,16.00729 0.36579,5.70476 1.2618,9.61803 2.69478,11.76923 0.33754,0.50673 0.613708,1.05466 0.613708,1.21764 0,0.3266 3.02808,3.45173 4.65584,4.80505 1.993055,1.65702 6.628565,3.16219 9.896245,3.21334 0.65484,0.0102 2.02406,-0.0999 3.04271,-0.24468 z m -0.55579,-9.18506 c 0.13829,-0.45304 0.83177,-4.44497 1.59725,-9.19427 0.21109,-1.30968 0.51778,-3.6314 0.68153,-5.15937 0.16374,-1.52797 0.40504,-3.4925 0.53622,-4.36563 1.11672,-7.43305 1.09786,-19.12678 -0.0426,-26.39218 -0.32907,-2.09641 -0.0113,-2.00311 -4.70914,-1.38249 -3.09511,0.40888 -6.07621,1.06819 -6.44675,1.42577 -0.1144,0.11039 -0.32133,1.32156 -0.45986,2.69148 -0.13854,1.36992 -0.37105,3.1456 -0.5167,3.94597 -0.14565,0.80036 -0.38103,2.28864 -0.52306,3.30729 -0.14203,1.01864 -0.37353,2.2688 -0.51443,2.77812 -0.1409,0.50933 -0.39226,1.99761 -0.55858,3.30729 -0.16632,1.30969 -0.40681,3.15516 -0.53442,4.10105 -0.65744,4.87327 -0.849445,12.4053 -0.38781,15.21354 0.73842,4.49208 2.45292,7.44117 5.15806,8.87233 2.34059,1.2383 6.44346,1.75792 6.72025,0.8511 z m 7.64533,-0.45334 c 2.12738,-0.6774 2.26053,-0.76402 2.38894,-1.55416 0.13419,-0.8257 0.36195,-2.53374 1.02891,-7.71593 0.23382,-1.81675 0.33585,-6.21091 0.3256,-14.02292 -0.0159,-12.14927 -0.12616,-14.96731 -0.82522,-21.09751 -0.24459,-2.14477 -0.3892,-3.95509 -0.32137,-4.02292 0.0678,-0.0678 1.39872,-0.20578 2.95753,-0.30656 1.5588,-0.10078 2.83419,-0.22863 2.83419,-0.28412 0,-0.18012 -1.32933,-6.6718 -1.43794,-7.02202 -0.0579,-0.18688 -0.17938,-0.67628 -0.26985,-1.08755 l -0.16449,-0.74777 -2.83071,0.0863 -2.83071,0.0863 -0.17092,-1.05834 c -0.18109,-1.1213 -0.47625,-2.43872 -1.12628,-5.02708 -0.21928,-0.87312 -0.59895,-2.49727 -0.84372,-3.60922 -0.63175,-2.87001 -0.6438,-2.88103 -2.20073,-2.01139 -0.7182,0.40115 -1.8524,0.80429 -2.52044,0.89586 -0.66804,0.0916 -1.21462,0.18885 -1.21462,0.21618 0,0.0273 0.30102,1.05295 0.66894,2.27914 0.36791,1.22618 0.79274,3.30099 0.94405,4.61068 0.15131,1.30969 0.34048,2.93435 0.42039,3.61035 0.17443,1.47565 0.27171,1.42731 -3.62088,1.7995 -1.52797,0.1461 -3.71134,0.44716 -4.85192,0.66904 -1.14059,0.22187 -2.12286,0.4034 -2.18282,0.4034 -0.06,0 -0.10901,1.91774 -0.10901,4.26164 0,3.82833 0.0438,4.24484 0.43074,4.09635 1.48053,-0.56813 10.99617,-2.07379 11.6122,-1.83739 0.20189,0.0775 0.42334,0.63633 0.4921,1.2419 0.0688,0.60558 0.24953,2.17261 0.40171,3.48229 0.84218,7.24784 0.38677,27.20231 -0.76084,33.3375 -0.1361,0.72761 -0.38874,2.27542 -0.56142,3.43959 -0.17268,1.16416 -0.48237,2.89057 -0.68822,3.83645 -0.20584,0.94589 -0.44422,2.24352 -0.52973,2.88362 l -0.15548,1.16382 1.72953,-0.13883 c 0.95124,-0.0764 2.74336,-0.46166 3.98249,-0.85622 z m 7.24428,-3.07769 c 1.57525,-0.88704 3.3036,-1.9586 3.84077,-2.38125 0.53717,-0.42264 1.08196,-0.76845 1.21065,-0.76845 0.12869,0 0.51235,-0.29632 0.85259,-0.65848 0.57612,-0.61325 0.59624,-0.73594 0.29278,-1.78594 -0.63075,-2.18245 -0.7633,-2.73062 -1.07239,-4.43474 -0.17156,-0.94589 -0.42906,-2.24349 -0.57222,-2.88356 -0.14315,-0.64008 -0.37046,-2.36648 -0.50513,-3.83646 -0.13466,-1.46998 -0.36864,-3.68472 -0.51995,-4.92165 -0.5434,-4.44228 -1.13339,-10.79305 -1.62842,-17.52864 l -0.32571,-4.43177 h -2.2352 -2.2352 l 0.18921,2.05052 c 0.59309,6.42742 0.70452,8.81338 0.85573,18.32239 0.19156,12.04667 -0.14227,19.15435 -1.13395,24.14323 -0.0795,0.40018 -0.0846,0.7276 -0.0111,0.7276 0.0734,0 1.42233,-0.72576 2.99758,-1.6128 z M 74.478677,195.37016 c 0.99334,-0.14361 2.43358,-0.55797 3.20053,-0.9208 0.76695,-0.36282 1.51034,-0.65968 1.65198,-0.65968 0.31865,0 0.77421,-3.00795 1.14204,-7.54063 0.55356,-6.82131 0.80741,-9.53662 0.95259,-10.18918 0.14001,-0.62933 0.0504,-0.68925 -1.70777,-1.14217 -1.11362,-0.28688 -2.29996,-0.81475 -2.96704,-1.3202 -0.61133,-0.46321 -1.33175,-0.97183 -1.60095,-1.13027 -0.72777,-0.42835 -1.55142,-1.2166 -1.55142,-1.48475 0,-0.12958 -0.29712,-0.53272 -0.66026,-0.89587 -0.36315,-0.36315 -0.84762,-1.02256 -1.0766,-1.46536 -0.5471,-1.05798 -1.69419,-4.58584 -1.73402,-5.33298 -0.0721,-1.35266 -0.43653,1.08636 -0.46656,3.12276 -0.0337,2.28298 0.70034,5.57766 1.33179,5.97783 0.19618,0.12433 0.27268,0.22787 0.16999,0.2301 -0.10268,0.002 -0.0187,0.4803 0.1867,1.06239 0.58901,1.66942 -0.14178,1.3583 -1.39832,-0.59532 -0.96164,-1.49511 -1.09193,-1.9073 -1.35909,-4.29948 -0.23942,-2.14385 -0.22127,-3.1478 0.0957,-5.29166 0.21514,-1.45521 0.55161,-3.06255 0.74772,-3.57188 0.73444,-1.90751 2.64905,-5.50615 3.39188,-6.37529 0.42342,-0.49541 0.77013,-1.03484 0.77047,-1.19872 8e-4,-0.41134 1.56455,-2.09489 6.31014,-6.79386 6.06717,-6.00755 7.25473,-7.23388 7.59508,-7.84301 0.20712,-0.37069 -1.24279,0.54629 -1.9511,1.23396 -0.19229,0.18669 -0.47279,0.33943 -0.62332,0.33943 -0.15053,0 -1.22643,0.53579 -2.39089,1.19063 -1.16445,0.65484 -2.23602,1.19062 -2.38125,1.19062 -0.14523,0 -1.21679,0.53579 -2.38125,1.19063 -1.16445,0.65484 -2.24433,1.19062 -2.39972,1.19062 -0.37662,0 -6.04324,3.76676 -6.50582,4.3246 -0.19972,0.24084 -0.47864,0.4379 -0.61983,0.4379 -0.14118,0 -1.143,0.92274 -2.22625,2.05051 -1.08325,1.12779 -2.43037,2.52678 -2.99361,3.10886 -0.56325,0.58208 -1.32318,1.61088 -1.68874,2.28621 -0.96025,1.77395 -1.8677,3.1307 -2.09646,3.13447 -0.30203,0.005 -0.2162,-1.07258 0.17201,-2.15958 0.63708,-1.78385 5.52778,-7.55828 7.80774,-9.21859 0.88627,-0.6454 1.61139,-1.25272 1.61139,-1.34961 0,-0.0969 0.26789,-0.24732 0.59532,-0.33431 0.32742,-0.087 0.99874,-0.51691 1.49183,-0.95539 0.49308,-0.43848 1.74323,-1.22784 2.77812,-1.75413 1.03488,-0.52628 2.19765,-1.18083 2.58391,-1.45453 0.38627,-0.27371 0.83007,-0.49766 0.98622,-0.49766 0.29983,0 2.97494,-1.39724 3.86045,-2.01636 0.28704,-0.20069 0.68541,-0.36489 0.88527,-0.36489 0.19985,0 1.39375,-0.68461 2.65311,-1.52135 l 2.28973,-1.52135 -0.92604,-0.0777 c -1.59497,-0.13377 -6.26214,0.92781 -8.54863,1.94445 -1.19185,0.52993 -2.45282,1.02862 -2.80217,1.10819 -0.34935,0.0796 -1.55714,0.66315 -2.68397,1.29683 -1.12684,0.63369 -2.15628,1.15216 -2.28765,1.15216 -0.13137,0 -1.0546,0.53579 -2.05161,1.19063 -0.99702,0.65484 -1.8647,1.19062 -1.92817,1.19062 -0.0635,0 -0.79737,0.53579 -1.63088,1.19063 -0.83351,0.65484 -1.65098,1.19062 -1.81659,1.19062 -0.16562,0 -0.39633,0.15493 -0.5127,0.34428 -0.11638,0.18936 -1.03167,0.9335 -2.03399,1.65365 -1.00233,0.72015 -2.20867,1.63679 -2.68077,2.03697 -0.47209,0.40017 -0.9507,0.72759 -1.06357,0.72759 -0.11287,0 -0.81152,0.46181 -1.55257,1.02625 -0.74104,0.56443 -2.53798,1.6051 -3.99319,2.31259 -2.28577,1.1113 -2.91148,1.29987 -4.59792,1.38564 l -1.95208,0.0993 0.14472,1.35843 c 0.21333,2.00243 1.18922,4.27892 2.34471,5.46958 0.62939,0.64854 1.01786,1.30117 1.01786,1.70999 0,0.83133 -0.24849,0.83161 -1.21471,0.001 l -0.76786,-0.6598 -0.16121,0.6028 c -0.36202,1.35363 -0.50211,6.04445 -0.25542,8.55245 0.25895,2.63256 0.88066,4.85598 1.88812,6.75245 0.2811,0.52914 0.51108,1.09591 0.51108,1.25949 0,0.34824 1.83227,3.02887 2.15878,3.15831 0.12236,0.0485 0.22247,0.24836 0.22247,0.44407 0,0.75556 3.42427,3.78486 5.84284,5.1689 2.88022,1.64822 7.13457,2.87606 5.65561,1.63225 -0.71481,-0.60116 -1.98032,-3.17116 -1.79689,-3.64915 0.2862,-0.74583 0.78824,-0.34808 1.62852,1.29023 1.52387,2.97109 4.05939,4.71151 8.77826,6.02551 2.0342,0.56645 2.23794,0.57702 4.5842,0.2378 z m 69.304693,-15.51691 c 0.9073,-0.24348 1.83762,-0.60067 2.06736,-0.79375 0.22974,-0.19309 0.63434,-0.35107 0.89911,-0.35107 0.44031,0 0.4669,-0.18632 0.31148,-2.18281 -0.0935,-1.20055 -0.17064,-3.18891 -0.17151,-4.41859 l -0.002,-2.23577 -0.72057,1.11129 c -0.39632,0.61121 -0.86023,1.1113 -1.03093,1.1113 -0.90976,0 -2.47158,-2.86682 -3.78544,-6.94842 -1.04551,-3.24794 -1.54173,-16.00016 -0.67705,-17.39924 0.24757,-0.40059 -0.33133,-0.7792 -1.19434,-0.78111 -0.82128,-0.002 -3.43958,1.1923 -3.43958,1.56869 0,0.15221 -0.17253,0.27675 -0.38341,0.27675 -1.00245,0 -3.20211,4.72862 -3.84708,8.27007 -0.45383,2.4919 -0.37912,11.53729 0.11468,13.88472 1.11221,5.28726 2.80607,7.98102 5.57102,8.85964 1.76139,0.55972 4.26552,0.57099 6.28785,0.0283 z m -52.616993,-3.13117 c 3.05132,-0.92567 4.600358,-2.99814 5.338048,-7.14178 0.58186,-3.26834 0.44408,-8.06979 -0.23155,-8.06979 -0.78863,0 -1.243148,0.90308 -1.252408,2.48841 -0.0163,2.79158 -0.8103,5.35368 -1.94342,6.27123 -0.52736,0.42703 -0.59711,0.41163 -1.54865,-0.34201 -0.54803,-0.43404 -0.99642,-0.90476 -0.99642,-1.04604 0,-0.14128 -0.23786,-0.77899 -0.52856,-1.41713 -0.29072,-0.63815 -0.66117,-1.77856 -0.82323,-2.53424 -0.27908,-1.30131 -0.36186,-1.40237 -1.56514,-1.91074 -1.57427,-0.66511 -1.84557,-1.2269 -1.84557,-3.82164 0,-1.86787 0.0777,-2.15549 1.01561,-3.75786 l 1.01562,-1.73518 -0.2362,-2.77813 c -0.21943,-2.58087 -0.14935,-5.59359 0.22773,-9.78957 l 0.15455,-1.71979 -2.9576,2.91041 c -2.88293,2.83693 -3.5506,3.78631 -4.00059,5.68854 -0.12049,0.50933 -0.40935,1.58089 -0.64192,2.38125 -1.07993,3.71643 -1.08397,11.60555 -0.008,15.47812 0.36391,1.30969 0.66313,2.68486 0.66494,3.05594 0.002,0.37107 0.0981,0.78779 0.21386,0.92604 0.11581,0.13824 0.36974,0.72023 0.56429,1.2933 0.5314,1.56537 1.93915,3.61411 3.1482,4.58167 1.67841,1.34318 3.90491,1.69627 6.23635,0.98899 z m 40.905183,0.24916 c 0,-0.0823 -0.12234,-0.37828 -0.27187,-0.65767 -0.2698,-0.50413 -0.34131,-0.80246 -1.1701,-4.88118 -0.51369,-2.52798 -0.6551,-11.95648 -0.21033,-14.02292 0.15661,-0.7276 0.49108,-2.27541 0.74326,-3.43958 0.25219,-1.16417 0.67895,-2.4327 0.94836,-2.81897 0.26942,-0.38627 0.48985,-0.77321 0.48985,-0.85989 0,-0.32992 -1.13865,-0.13803 -1.81238,0.30543 -0.38689,0.25465 -0.93352,0.59031 -1.21475,0.74589 -0.2917,0.16138 -0.67139,0.85831 -0.88403,1.62269 -0.25621,0.92098 -0.56197,1.42604 -0.9781,1.61564 l -0.60537,0.27583 0.76069,2.97189 c 0.41838,1.63454 0.88321,3.95794 1.03298,5.16312 0.14976,1.20518 0.50077,3.47834 0.78001,5.05147 0.27925,1.57313 0.65495,4.11039 0.83489,5.63836 0.22523,1.91265 0.45688,2.87853 0.74358,3.10044 0.44756,0.3464 0.81331,0.4316 0.81331,0.18945 z m -51.430753,-5.21482 c -1.94408,-4.95201 -2.14738,-6.22259 -2.14738,-13.42091 0,-6.23153 0.14504,-7.7431 0.92659,-9.65728 0.11883,-0.29104 0.28839,-0.76729 0.37679,-1.05833 0.20061,-0.66043 -3.55066,3.22183 -4.63258,4.79433 -0.43849,0.63733 -0.90137,1.15878 -1.02861,1.15878 -0.12725,0 -0.36924,0.41781 -0.53778,0.92846 -0.16852,0.51066 -0.44565,1.0762 -0.61583,1.25677 -0.86571,0.9186 -1.50002,2.58341 -1.49972,3.93621 2.6e-4,1.53233 0.54821,4.66554 1.02583,5.86658 0.89816,2.25857 1.71091,3.72091 2.4924,4.48444 0.48286,0.47176 0.94517,1.03648 1.02737,1.25492 0.22492,0.59778 5.05961,3.07121 5.4417,2.78397 0.0361,-0.0272 -0.3368,-1.07475 -0.82878,-2.32794 z m 64.924503,-7.55595 c 0,-3.18547 -0.13202,-6.43407 -0.29431,-7.2422 l -0.29432,-1.4655 -1.75621,-0.14201 c -0.96591,-0.0781 -1.78329,-0.11586 -1.81639,-0.0839 -0.23131,0.22336 0.57387,6.33078 1.11539,8.46038 0.36552,1.43749 0.66459,2.77369 0.66459,2.96933 0,0.19565 0.31159,1.01382 0.69243,1.81816 0.47849,1.01058 0.84637,1.46244 1.19063,1.46244 0.47265,0 0.49819,-0.29611 0.49819,-5.77671 z m -52.499273,3.34359 c 0.19677,-0.91735 0.36195,-2.30574 0.36706,-3.08529 0.008,-1.24791 -0.0461,-1.39458 -0.45373,-1.22676 -0.45965,0.18923 -0.58086,0.22079 -1.98792,0.51746 -0.79591,0.16781 -0.80292,0.31205 -0.12902,2.65583 0.34244,1.19097 1.48405,3.16849 1.70284,2.9497 0.0786,-0.0787 0.304,-0.89358 0.50077,-1.81094 z m 0.58234,-6.01094 c 1.630218,-0.83045 3.474878,-2.58097 4.063478,-3.8561 0.30908,-0.66957 0.5631,-0.81912 1.65715,-0.97562 2.985845,-0.4271 4.392135,-1.69653 4.392135,-3.96468 0,-0.77578 -0.72477,-2.3387 -1.08452,-2.3387 -0.0972,0 -0.23134,-0.20836 -0.29814,-0.46302 -0.12417,-0.47328 -0.28115,-0.56777 -2.911655,-1.75268 l -1.51618,-0.68297 -0.93415,0.55117 -0.93415,0.55116 0.79669,0.90738 c 0.43818,0.49906 0.79669,1.01167 0.79669,1.13915 0,0.12747 0.53578,0.49113 1.19062,0.80814 1.196195,0.57906 1.547765,1.05833 0.77636,1.05833 -0.74737,0 -1.54792,-0.56006 -3.06424,-2.14369 -0.82178,-0.85825 -1.625448,-1.56047 -1.785938,-1.56047 -0.161,0 -0.2918,0.44644 -0.2918,0.99593 0,0.54775 -0.25164,1.64907 -0.55919,2.44738 -0.30756,0.79831 -0.73082,1.9345 -0.94059,2.52487 -0.42597,1.19883 -1.93819,3.14152 -1.93918,2.49119 -2.7e-4,-0.2223 0.37219,-1.11527 0.82785,-1.98438 0.65509,-1.2495 1.51317,-4.43627 1.54757,-5.74738 0.008,-0.32343 -1.1834,-0.22588 -1.61639,0.13229 -0.53845,0.44541 -1.16797,1.50708 -1.37275,2.31509 -0.0922,0.36381 -0.52776,1.07818 -0.96792,1.5875 -0.44015,0.50933 -0.98864,1.28323 -1.21886,1.7198 -0.23022,0.43656 -0.60452,1.14334 -0.83178,1.57063 -0.72232,1.35806 -0.73052,2.80643 -0.0218,3.84947 0.81525,1.1998 1.61847,1.58267 3.33026,1.58745 1.02552,0.003 1.79884,-0.201 2.91042,-0.76724 z m 13.949223,-2.18346 c 1.30969,-0.28348 3.06586,-0.64035 3.90261,-0.79305 0.83674,-0.1527 1.51901,-0.35421 1.51615,-0.4478 -0.003,-0.0936 -0.19056,-1.12267 -0.41709,-2.28684 -0.22654,-1.16416 -0.525,-3.06916 -0.66325,-4.23333 -0.27823,-2.34294 -0.67031,-3.57187 -1.13957,-3.57187 -0.16986,0 -0.76961,-0.23491 -1.33279,-0.52204 l -1.02395,-0.52204 -0.97304,0.87908 c -0.72798,0.65769 -1.31714,0.92473 -2.3394,1.06034 l -1.36636,0.18125 0.42351,0.64636 c 1.15104,1.75671 1.05997,4.94257 -0.17583,6.15079 l -0.75036,0.73362 0.30769,1.7963 c 0.29829,1.74142 0.32821,1.79093 0.97906,1.62047 0.36926,-0.0967 1.74293,-0.40776 3.05262,-0.69124 z m 18.22964,-4.123 c -0.3559,-1.12779 -0.72063,-2.40771 -0.8105,-2.84427 -0.0899,-0.43656 -0.25018,-0.91281 -0.35624,-1.05833 -0.10608,-0.14553 -0.27502,-0.74083 -0.37543,-1.32291 -0.20918,-1.21256 -1.27662,-4.40687 -2.12198,-6.35 -0.31654,-0.72761 -0.74483,-1.85568 -0.95174,-2.50684 l -0.37622,-1.18392 -0.40106,1.75782 c -0.22058,0.96681 -0.60941,1.98519 -0.86407,2.26309 -0.61949,0.67601 -0.58601,1.19073 0.21956,3.37516 0.87433,2.3709 1.42237,4.38473 1.69176,6.21655 0.1177,0.80037 0.35059,1.96123 0.51753,2.57969 l 0.30352,1.12448 h 2.08599 2.08598 z m -77.741373,-1.23001 c 2.31318,-0.70007 2.98025,-1.01401 4.34861,-2.04657 0.50795,-0.3833 1.19143,-0.77827 1.51885,-0.87773 0.32742,-0.0995 0.59531,-0.27946 0.59531,-0.4 0,-0.12053 0.62508,-0.61853 1.38907,-1.10664 0.76398,-0.48811 2.01245,-1.39349 2.77438,-2.01196 0.76193,-0.61846 1.49636,-1.12448 1.63206,-1.12448 0.1357,0 0.73473,-0.46887 1.33118,-1.04194 0.59645,-0.57306 1.35031,-1.12489 1.67524,-1.22628 0.32493,-0.10139 0.65031,-0.27556 0.72307,-0.38704 0.21737,-0.33304 2.86881,-2.05837 3.44361,-2.2408 0.29305,-0.093 0.46272,-0.28256 0.37703,-0.42121 -0.0857,-0.13865 -0.0577,-0.22458 0.0623,-0.19095 0.11996,0.0336 2.09607,-0.8564 4.39136,-1.97782 2.29529,-1.12143 4.35565,-2.03896 4.57858,-2.03896 0.22293,0 0.90481,-0.2268 1.51528,-0.50401 2.78291,-1.26366 6.95414,-1.95677 10.5623,-1.75506 1.26972,0.071 2.60565,0.20361 2.96874,0.29474 0.42554,0.10681 0.80366,0.0222 1.06393,-0.23808 0.36197,-0.36197 0.29575,-0.49624 -0.63973,-1.29696 -1.07825,-0.92295 -3.56226,-2.06413 -6.0984,-2.80168 -1.53865,-0.44746 -9.14235,-0.68877 -9.65729,-0.30648 -0.14552,0.10804 -0.6813,0.27954 -1.19062,0.38112 -2.58257,0.51507 -5.95122,1.63082 -8.20209,2.71668 -4.38129,2.1136 -5.14668,2.5156 -5.68854,2.98779 -0.29104,0.25362 -0.78291,0.53787 -1.09305,0.63168 -0.31014,0.0938 -0.8304,0.4017 -1.15614,0.68422 -0.32574,0.28251 -1.50074,1.07555 -2.61111,1.76232 -1.11038,0.68676 -2.08079,1.33754 -2.15647,1.44618 -0.0757,0.10864 -0.67099,0.44849 -1.32291,0.75522 -0.65193,0.30673 -1.84016,0.91985 -2.64053,1.36247 -2.26314,1.2516 -5.73147,1.87543 -7.23942,1.30211 -0.60369,-0.22952 -0.67635,-0.4359 -0.86173,-2.4474 -0.11135,-1.2082 -0.16924,-2.42211 -0.12865,-2.69756 0.0723,-0.49079 0.0565,-0.49075 -0.78768,0.002 -0.47381,0.27672 -1.09294,0.91881 -1.37585,1.42687 -0.28291,0.50806 -0.61248,0.98567 -0.73239,1.06135 -0.11991,0.0757 -0.47736,0.73052 -0.79434,1.45521 -0.66866,1.5287 -0.79194,5.23353 -0.23077,6.93525 1.34496,4.07858 4.68432,5.43901 9.65681,3.93411 z m 97.016423,-0.32888 c 0.90786,-0.15006 0.99219,-0.23662 0.99219,-1.01849 0,-0.46997 -0.0748,-1.40014 -0.1662,-2.06703 -0.14475,-1.05605 -0.21543,-1.16331 -0.54767,-0.83107 -0.52027,0.52027 -1.64657,0.77349 -1.97585,0.44421 -0.38915,-0.38915 0.15737,-1.28918 0.8968,-1.4769 0.87279,-0.22157 1.26496,-1.03067 1.44761,-2.98655 l 0.16123,-1.72661 1.34429,0.0875 c 1.13447,0.0738 1.35906,0.0115 1.4389,-0.39913 0.15129,-0.77811 -0.96632,-1.76233 -2.00117,-1.76233 -2.15079,0 -3.19737,1.34384 -4.73931,6.08541 -0.21296,0.65485 -0.45308,2.16288 -0.5336,3.35117 -0.14312,2.1121 -0.1324,2.16321 0.47834,2.27907 1.00017,0.18974 2.13754,0.19711 3.20444,0.0208 z m 6.86469,-0.80572 c 0.46868,-0.44902 0.74208,-0.98516 0.74208,-1.4552 0,-0.92145 -0.32675,-0.95538 -0.79394,-0.0824 -0.40401,0.7549 -1.89659,1.71944 -2.66077,1.71944 -0.28272,0 -0.51404,0.11906 -0.51404,0.26458 0,0.14552 0.55903,0.26458 1.24229,0.26458 0.98768,0 1.39439,-0.14571 1.98438,-0.71096 z m -24.80316,-0.553 c 0.088,-0.40081 0.50645,-1.09938 0.92982,-1.55239 l 0.76977,-0.82364 -0.77282,-1.63412 c -0.42504,-0.89877 -0.95337,-1.81468 -1.17405,-2.03536 -0.22068,-0.22067 -0.40123,-0.60191 -0.40123,-0.84718 0,-0.48941 -2.50911,-4.14769 -3.73533,-5.44612 l -0.77158,-0.81701 0.30747,0.92604 c 0.16911,0.50933 0.38979,1.04511 0.4904,1.19063 0.32704,0.473 1.28936,3.15086 1.47376,4.10104 0.0989,0.50932 0.25949,1.0451 0.357,1.19063 0.0975,0.14552 0.45626,1.15755 0.79723,2.24895 0.34098,1.09141 0.72371,2.19111 0.85051,2.4438 0.12679,0.25269 0.23054,0.82526 0.23054,1.27239 0,0.96239 0.42031,0.82132 0.64851,-0.21766 z m -37.175483,-1.88399 c 0.27269,-0.50953 0.26824,-0.66497 -0.0244,-0.85038 -0.76155,-0.48258 -1.28408,-0.26401 -1.28408,0.53712 0,1.18826 0.24419,1.66733 0.64537,1.26614 0.18117,-0.18116 0.47955,-0.60996 0.66308,-0.95288 z m 60.423013,0.7271 c 0.70626,-0.37175 0.96543,-0.73683 0.97074,-1.36746 0.004,-0.4444 -0.0573,-0.43733 -0.8018,0.0928 -0.58727,0.41817 -1.08818,0.54689 -1.84667,0.47456 -0.6671,-0.0636 -1.08632,0.0193 -1.16754,0.23095 -0.28848,0.75177 1.73089,1.15573 2.84527,0.56917 z m 0.27169,-2.83916 c 0.26815,-0.23243 0.59678,-0.62672 0.73029,-0.8762 0.22376,-0.4181 0.17389,-0.42482 -0.63713,-0.086 -0.61068,0.25516 -1.17875,0.30025 -1.85662,0.14736 -0.90642,-0.20443 -0.98891,-0.17169 -1.14617,0.4549 -0.34571,1.37739 1.47587,1.6027 2.90963,0.3599 z m -57.461903,-0.14994 c 2.998838,-0.63559 4.454588,-1.68112 4.454588,-3.1993 0,-0.50366 0.11906,-0.91574 0.26458,-0.91574 0.35759,0 0.33825,-2.20175 -0.0225,-2.56251 -0.20641,-0.20641 -0.16922,-0.51503 0.1323,-1.09811 0.52731,-1.01971 0.53612,-2.00568 0.0225,-2.51929 -0.21828,-0.21828 -0.39687,-0.76512 -0.39687,-1.21519 0,-1.18444 -0.88607,-1.53701 -2.835278,-1.12816 -0.81171,0.17025 -1.6667,0.48155 -1.89997,0.69176 -0.23327,0.21021 -0.93419,0.55748 -1.5576,0.77171 -1.08234,0.37194 -1.12629,0.3669 -0.97436,-0.11181 0.27822,-0.87659 -0.34079,-0.53865 -0.65682,0.35858 -0.74616,2.11845 -1.46149,11.31843 -0.8507,10.94093 0.12161,-0.0751 0.5681,-0.0329 0.99219,0.0939 1.08041,0.32309 1.33875,0.3148 3.32795,-0.10681 z m 12.512053,-0.78554 c 0.4932,-0.20607 1.28094,-0.74186 1.75054,-1.19063 0.94861,-0.90654 1.25164,-0.99697 1.46631,-0.43756 0.21822,0.56867 1.57635,0.94528 3.3834,0.93821 2.63257,-0.0103 3.55694,-0.34289 4.9622,-1.78546 1.49238,-1.53201 1.81134,-2.26186 1.81134,-4.14476 v -1.40416 l 0.99218,-0.16079 c 1.83804,-0.29787 3.37923,-3.00488 3.06821,-5.38914 -0.22201,-1.70188 -0.49253,-2.17463 -1.14651,-2.00361 -0.44621,0.11669 -0.53263,0.0108 -0.53263,-0.65292 0,-0.43572 0.19703,-0.95562 0.43786,-1.15534 0.63357,-0.52543 1.14964,-1.90998 1.14964,-3.08433 0,-2.41802 -2.73656,-5.83751 -4.69636,-5.86838 -0.63898,-0.01 -0.66701,-0.0927 -0.60126,-1.77252 0.0836,-2.13643 -1.89157,-4.58686 -3.69726,-4.58686 -0.38182,0 -0.53012,-0.176 -0.53012,-0.62914 0,-0.91619 -0.65438,-2.33195 -1.36596,-2.95528 -1.51473,-1.32688 -1.54824,-1.32183 -0.98932,0.14913 0.28426,0.74812 0.49966,1.49969 0.47867,1.67015 -0.0867,0.70395 0.0678,0.94464 0.93441,1.45598 1.12288,0.66251 1.73498,2.29827 1.25457,3.35265 -0.35297,0.77469 -0.25746,0.81026 0.6243,0.23251 0.78135,-0.51196 1.44458,-0.13715 1.44458,0.81637 0,0.84882 -0.9772,3.6858 -1.30751,3.7959 -0.15399,0.0513 -0.27999,0.28525 -0.27999,0.51983 0,0.50288 -1.28134,1.91065 -1.73905,1.91065 -0.17443,0 -0.65816,0.17787 -1.07498,0.39525 -0.41682,0.21738 -1.01086,0.39598 -1.32009,0.39687 -0.39911,0.001 -0.60681,0.21274 -0.71586,0.72924 -0.0925,0.43813 -0.51361,0.95682 -1.05846,1.30375 -1.37828,0.87761 -2.41183,0.9044 -3.29103,0.0853 -0.31239,-0.29104 -0.641,-0.52917 -0.73025,-0.52917 -0.0892,0 -0.35009,-0.18783 -0.57967,-0.41742 -0.26211,-0.2621 -0.62424,-0.35291 -0.97329,-0.24404 -4.046405,1.26202 -7.293945,-0.0233 -9.174143,-3.63099 -0.62105,-1.19164 -2.232,-2.8513 -2.76763,-2.8513 -0.49927,0 -0.49603,-0.7908 0.007,-1.75569 0.48646,-0.93275 0.49595,-2.13559 0.0236,-2.98835 -0.35221,-0.63583 -0.35825,-0.63076 -0.54173,0.45523 -0.10205,0.60403 -0.43531,1.41577 -0.74058,1.80385 -0.35836,0.45558 -0.54104,1.04431 -0.51554,1.66144 0.0217,0.5257 0.0492,1.46183 0.061,2.0803 0.018,0.94117 0.10779,1.12447 0.55098,1.12447 0.35761,0 0.65837,0.30843 0.92647,0.95009 0.33348,0.79814 0.34527,1.18952 0.0737,2.44739 -0.17782,0.82353 -0.58721,2.05728 -0.90977,2.74168 l -0.58646,1.24436 1.7571,1.04388 c 0.96641,0.57413 2.27291,1.49601 2.90334,2.04861 0.99965,0.87626 1.293078,0.99571 2.294688,0.93412 1.52909,-0.094 2.44258,0.51477 2.66877,1.77863 0.0951,0.53155 0.3272,1.14505 0.51571,1.36333 0.58548,0.67793 0.696185,1.7063 0.30569,2.83972 -0.21836,0.63379 -0.28201,1.23496 -0.15239,1.43941 0.36011,0.56802 0.26317,2.03989 -0.17878,2.71439 -0.58595,0.89428 -0.7487,2.00231 -0.2941,2.00231 0.20082,0 0.78788,0.28689 1.304585,0.63753 0.5167,0.35064 1.15839,0.69402 1.42599,0.76306 1.0351,0.26706 3.05744,0.17004 3.91379,-0.18776 z m 45.12887,-1.48001 c 1.99383,-1.01717 2.22695,-2.78587 0.50154,-3.80509 -0.74956,-0.44278 -0.77121,-0.44029 -0.77121,0.0886 0,0.36774 0.17154,0.54413 0.52917,0.54413 0.35278,0 0.52917,0.17639 0.52917,0.52916 0,0.38981 -0.17639,0.52917 -0.66976,0.52917 -0.36838,0 -0.73477,0.1694 -0.81422,0.37644 -0.0795,0.20704 -0.55196,0.56982 -1.05003,0.80616 -0.57525,0.27298 -0.90558,0.61822 -0.90558,0.94648 0,0.7004 1.26262,0.69325 2.65092,-0.015 z M 48.543057,142.46583 c 0.93016,-0.43948 1.77218,-0.79906 1.87116,-0.79906 0.099,0 1.27807,-0.66983 2.62021,-1.48851 1.34214,-0.81868 2.76581,-1.68188 3.16372,-1.91823 1.06492,-0.63253 1.09667,-1.04215 0.11263,-1.45331 -1.37891,-0.57614 -4.51884,-0.21525 -5.77173,0.66338 -0.38627,0.27088 -0.82572,0.49251 -0.97657,0.49251 -0.5685,0 -0.60584,-0.58882 -0.0691,-1.08891 0.30652,-0.28556 0.55731,-0.63658 0.55731,-0.78003 0,-0.40311 -1.33596,-0.83857 -2.55162,-0.83173 -2.60179,0.0146 -4.06297,1.98884 -4.06297,5.48947 0,2.80484 0.043,2.86599 1.88128,2.67385 0.85966,-0.0899 2.27817,-0.51177 3.22564,-0.95943 z m 100.480953,-8.33968 c -0.15683,-2.61938 -0.28483,-6.29543 -0.28443,-8.16901 l 7.3e-4,-3.40651 -0.82682,0.16536 c -0.45476,0.0909 -0.99054,0.16537 -1.19063,0.16537 -0.4764,0 -0.50424,6.9878 -0.053,13.29531 0.26472,3.70004 0.38537,4.43332 0.73072,4.44115 0.22751,0.005 0.7113,0.17487 1.07511,0.37716 0.65999,0.36697 0.66165,0.36505 0.74745,-0.86927 0.0473,-0.68039 -0.0423,-3.38019 -0.19917,-5.99956 z m -89.977453,2.22476 c 0.25986,-0.18377 0.29509,-0.32287 0.10205,-0.4029 -1.04048,-0.43137 -2.8006,-1.79714 -3.64666,-2.82964 -0.90349,-1.10259 -0.99468,-1.36064 -1.01765,-2.87979 -0.0139,-0.91777 0.10734,-1.91634 0.26938,-2.21904 0.56688,-1.05892 4.18163,-1.72701 4.71088,-0.87068 0.33186,0.53697 1.41417,0.21349 1.87052,-0.55906 0.61985,-1.04933 1.8429,-1.59178 3.58894,-1.59178 1.22933,0 1.52308,0.10292 2.07668,0.72761 0.35465,0.40018 0.79365,0.99388 0.97555,1.31932 0.40634,0.72702 0.43476,3.34974 0.0442,4.07951 -0.24267,0.45343 -0.21283,0.52121 0.1949,0.44269 0.26479,-0.051 0.77669,-0.62717 1.13755,-1.2804 0.80813,-1.46286 0.90723,-3.6923 0.21744,-4.89185 -0.25104,-0.43656 -0.53066,-0.99388 -0.62139,-1.23848 -0.22042,-0.59429 -1.98546,-1.27506 -3.30586,-1.27506 -1.27273,0 -3.61337,1.37813 -4.19383,2.46926 -0.44919,0.84436 -0.6748,0.86328 -2.17536,0.18238 -0.73963,-0.33561 -1.73531,-0.52544 -2.77562,-0.52917 -1.47628,-0.005 -1.69597,0.0696 -2.44145,0.83208 -1.06401,1.0883 -1.45923,2.32578 -1.23865,3.87831 0.20037,1.41027 1.71992,4.08228 2.87362,5.05306 0.42197,0.35507 0.9253,0.80365 1.11849,0.99685 0.30728,0.30728 1.32786,0.81827 1.70711,0.85474 0.0728,0.007 0.31089,-0.11358 0.52917,-0.26796 z m -4.64481,-1.0994 c 0.15355,0.0918 0.11578,-0.0346 -0.0839,-0.28082 -0.19972,-0.24622 -0.49738,-0.44952 -0.66146,-0.45178 -0.35258,-0.005 -1.36002,-2.06534 -1.74441,-3.56776 -0.40836,-1.59617 -0.33074,-3.02645 0.25055,-4.6168 0.28835,-0.78888 0.49383,-1.46476 0.45663,-1.50196 -0.0372,-0.0372 -0.92995,0.52063 -1.98389,1.23963 -1.05394,0.71899 -2.00676,1.30725 -2.11739,1.30725 -0.11063,0 -0.83901,0.47929 -1.61863,1.06508 -0.77961,0.58579 -1.59364,1.16366 -1.80895,1.28415 -0.55246,0.30917 -0.25488,1.0283 0.95757,2.31406 0.56604,0.60027 1.14186,1.29277 1.27959,1.53888 0.13773,0.24611 0.65799,0.54027 1.15613,0.65368 0.49815,0.11341 1.17448,0.29242 1.50296,0.39779 0.53824,0.17265 0.51685,0.1048 -0.21648,-0.68676 -1.21712,-1.31377 -1.3743,-1.69908 -0.89051,-2.18288 0.88757,-0.88756 1.96392,-0.26491 2.51352,1.45402 0.75224,2.35268 0.72417,2.31966 1.77074,2.08362 0.52733,-0.11893 1.08441,-0.14116 1.23797,-0.0494 z m 6.38246,-0.8708 c -1.05244,-0.36181 -2.28796,-1.60606 -2.81281,-2.83269 -0.256,-0.59829 -0.23283,-0.84483 0.13166,-1.40111 0.69978,-1.06799 1.58215,-1.3521 2.63701,-0.84908 0.86304,0.41156 0.89308,0.4063 1.17157,-0.20492 0.36536,-0.80188 1.45149,-1.5152 2.3071,-1.5152 1.46184,0 2.2801,1.75007 1.76573,3.77652 -0.29984,1.18127 -0.073,1.32933 0.7247,0.47307 0.98828,-1.06079 0.56017,-5.02186 -0.63042,-5.83304 -1.03191,-0.70305 -3.74802,0.18218 -4.40908,1.437 -0.37394,0.70981 -0.82995,1.05939 -1.02863,0.78856 -0.29751,-0.40557 -1.667,-0.84055 -2.64636,-0.84055 -1.11219,0 -1.62684,0.37199 -2.29064,1.65563 -0.97621,1.88779 0.56798,4.82397 3.09991,5.89429 1.32026,0.55811 1.48102,0.57263 2.2034,0.19908 l 0.77923,-0.40296 z m 3.29674,-1.18852 c 1.09938,-1.19084 1.41719,-2.38013 1.02022,-3.81784 -0.17145,-0.62094 -0.41603,-0.93674 -0.72549,-0.93674 -0.58924,0 -1.58279,0.91298 -1.8992,1.7452 -0.23089,0.6073 -0.78409,0.89202 -0.78409,0.40356 0,-0.34868 -1.51862,-0.90889 -1.98191,-0.73111 -0.22215,0.0852 -0.53676,0.44657 -0.69914,0.80294 -0.38488,0.84473 0.38087,1.97626 1.95987,2.89604 1.557,0.90696 1.98411,0.85723 3.10974,-0.36205 z m -13.65543,-0.61567 c -0.1701,-0.44329 -0.63938,-0.60702 -0.63938,-0.22308 0,0.25741 0.59028,0.87376 0.7162,0.74784 0.0495,-0.0495 0.0149,-0.28565 -0.0768,-0.52476 z m 22.54397,-2.816 c 0.10687,0 0.6205,-1.58355 0.77237,-2.38125 0.097,-0.50932 0.64019,-2.28958 1.20716,-3.95612 0.56698,-1.66654 1.03087,-3.1811 1.03087,-3.36569 0,-0.32141 -1.74292,-1.23088 -3.70416,-1.93287 -0.50933,-0.1823 -1.55438,-0.61536 -2.32234,-0.96234 -0.76796,-0.34699 -1.49443,-0.63089 -1.61437,-0.63089 -0.11995,0 -0.42301,0.80367 -0.67346,1.78594 -0.25046,0.98226 -0.56579,2.05942 -0.70073,2.39369 -0.38526,0.95432 -0.32347,1.04356 1.03484,1.49472 1.24772,0.41442 2.19712,1.2273 2.90556,2.48772 0.22324,0.39718 0.34447,1.51194 0.33592,3.0889 l -0.0134,2.46744 0.85296,-0.24462 c 0.46911,-0.13455 0.86905,-0.24463 0.88874,-0.24463 z m 5.88129,-1.94808 c 0.1844,-0.60204 0.55174,-1.57087 0.81633,-2.15296 1.68114,-3.69855 1.72239,-4.41969 0.28563,-4.99457 -0.57983,-0.232 -1.50952,-0.49462 -2.06598,-0.58361 l -1.01174,-0.16178 -0.48224,2.07623 c -0.42003,1.80836 -0.87891,3.21179 -1.71704,5.25123 -0.63804,1.55259 -0.81251,2.0285 -0.81251,2.21631 0,0.11386 1.04676,0.0353 2.32614,-0.1746 l 2.32615,-0.38162 z m 9.03536,1.61525 c 0,-0.18306 0.28431,-0.86767 0.63179,-1.52136 0.34749,-0.65368 0.78586,-1.70389 0.97416,-2.33379 0.29007,-0.97035 0.2845,-1.18269 -0.0365,-1.39026 -0.57546,-0.37213 -3.66652,-1.34417 -5.00905,-1.57519 -0.65484,-0.11268 -1.43459,-0.28329 -1.73277,-0.37913 -0.455,-0.14625 -0.63402,0.0305 -1.11375,1.09946 -0.64728,1.44235 -2.13711,5.22078 -2.08351,5.2841 0.0194,0.0229 1.10165,0.11994 2.40504,0.21566 2.40622,0.17671 4.89147,0.5658 5.1286,0.80292 0.26102,0.26103 0.83597,0.12182 0.83597,-0.20241 z m -44.10187,-0.50022 c 0.31785,-0.16714 0.88409,-0.5583 1.25831,-0.86924 0.58387,-0.48514 0.6452,-0.67091 0.43234,-1.30949 -0.15738,-0.47215 -0.15313,-0.95228 0.0116,-1.31358 0.2566,-0.56268 0.23223,-0.56835 -2.05626,-0.47807 -1.38946,0.0548 -2.56599,-0.0297 -2.94098,-0.21135 -0.43337,-0.20989 -0.32448,-0.0297 0.35508,0.58769 1.03639,0.94155 1.14006,1.82958 0.2522,2.16026 -0.24121,0.0898 -0.79575,0.36249 -1.23231,0.60591 l -0.79375,0.44257 1.05833,0.32426 c 1.36799,0.41914 2.92497,0.44513 3.65542,0.061 z m 64.147473,-2.3398 c 0.48646,-0.77895 -0.69718,-1.34454 -2.07951,-0.99367 l -1.00518,0.25514 0.71382,0.59339 c 1.22403,1.01753 1.80388,1.05303 2.37087,0.14514 z m -56.888833,-2.33346 c 1.00283,-0.7486 1.0232,-0.83902 0.36105,-1.60248 -0.27436,-0.31634 -0.76806,-0.96806 -1.09709,-1.44826 -0.66422,-0.96936 -1.34132,-1.33224 -3.29885,-1.76795 -1.43027,-0.31834 -3.57188,-0.13107 -3.57188,0.31235 0,0.31959 1.07464,1.90179 1.37951,2.03106 0.1144,0.0485 0.21251,0.2271 0.21803,0.39687 0.006,0.16978 0.49129,0.64175 1.07948,1.04882 1.01884,0.70513 1.06115,0.78915 0.89438,1.77623 -0.0963,0.56985 -0.10011,1.15734 -0.009,1.30553 0.17472,0.28271 2.49017,-0.89231 4.04389,-2.05217 z m 50.998443,1.13306 c 0.58209,-0.2097 1.25016,-0.38307 1.48462,-0.38526 0.23446,-0.002 1.00163,-0.53977 1.70482,-1.19461 0.70319,-0.65484 1.37977,-1.19063 1.50349,-1.19063 0.12373,0 0.54628,0.29795 0.93901,0.66211 0.9089,0.84278 2.26168,1.29136 3.28009,1.08768 1.37979,-0.27596 3.3911,-2.73756 3.3911,-4.15029 0,-0.42231 -0.0877,-0.50563 -0.33073,-0.31421 -0.1819,0.14327 -0.64512,0.33544 -1.02937,0.42704 -0.54992,0.1311 -0.78635,0.0327 -1.11071,-0.46237 -0.34927,-0.53304 -2.8086,-2.16011 -2.94772,-1.95017 -0.0255,0.0385 -0.19857,0.45242 -0.38456,0.91982 -0.65541,1.647 -3.36882,2.3829 -5.5574,1.50721 -0.86161,-0.34475 -1.2224,-0.36502 -1.98973,-0.11177 -0.51551,0.17013 -0.93728,0.4049 -0.93728,0.52172 0,0.44606 -3.558245,2.95226 -4.020085,2.83148 -0.87658,-0.22923 0.015,0.89498 1.06481,1.34265 2.12003,0.90404 3.380465,1.02131 4.939645,0.4596 z m -45.665933,-1.71216 c 1.38522,0 1.6458,-0.21741 0.95135,-0.79375 -0.21828,-0.18116 -0.39688,-0.49339 -0.39688,-0.69386 0,-0.61286 -0.84664,-0.39415 -2.5939,0.67008 -1.54386,0.94034 -1.6357,1.04804 -1.23521,1.44853 0.40048,0.40049 0.48819,0.39311 1.17954,-0.0992 0.51319,-0.36543 1.16874,-0.53183 2.0951,-0.53183 z m 4.85532,0.0594 c 0.56422,-0.76349 1.09134,-1.10221 2.33236,-1.49874 1.39067,-0.44435 1.65602,-0.63733 2.00017,-1.45472 0.69559,-1.65209 0.71308,-2.21792 0.0905,-2.92903 -0.3174,-0.36256 -0.83255,-0.98003 -1.14477,-1.37214 l -0.56768,-0.71294 -1.12448,1.05322 c -1.21473,1.13776 -1.29833,1.33632 -0.79375,1.88534 1.40181,1.52528 1.24875,3.86545 -0.16064,2.45607 -0.21828,-0.21828 -0.63265,-0.39688 -0.92083,-0.39688 -0.46102,0 -0.5189,0.16684 -0.48192,1.38906 0.0231,0.76399 -0.0553,1.65696 -0.17423,1.98438 -0.32611,0.89769 0.12634,0.70449 0.94524,-0.40362 z m -2.16875,-0.42745 c -0.18598,-0.34751 -0.62525,-0.76265 -0.97616,-0.92253 l -0.63801,-0.2907 0.60093,0.85679 c 0.33051,0.47123 0.71655,0.9396 0.85786,1.04083 0.4351,0.3117 0.51057,-0.0207 0.15538,-0.68439 z m -5.41323,-0.85272 c 1.33141,-0.6318 1.21295,-1.41477 -0.39234,-2.59316 -2.08779,-1.53258 -3.29274,-1.17599 -1.92802,0.57057 0.42735,0.54692 0.85275,1.32182 0.94533,1.722 0.19737,0.85316 0.20641,0.85513 1.37503,0.30059 z m 5.76399,-1.16048 c -0.18335,-1.14661 -0.0927,-1.20976 1.55204,-1.08131 0.40018,0.0312 0.7276,-0.0491 0.7276,-0.17856 0,-0.28806 -0.92568,-1.12331 -1.9557,-1.76465 -1.10123,-0.68568 -2.43688,-0.22349 -3.39959,1.17641 l -0.72509,1.05436 h 0.75431 c 0.71171,0 2.70934,1.11543 2.90073,1.61971 0.22074,0.58162 0.29944,0.13549 0.1457,-0.82596 z m 38.193618,5.3e-4 c 0.54747,-0.58185 1.09168,-1.0581 1.20935,-1.05834 0.11767,-2.3e-4 0.68322,-0.37754 1.256775,-0.83846 0.87392,-0.70239 1.04282,-0.99612 1.04282,-1.81354 0,-0.96549 0.93481,-2.37561 1.57487,-2.37561 0.35247,0 0.36099,0.44616 0.0126,0.66146 -0.46568,0.28781 -0.31482,2.65065 0.19892,3.11558 0.94011,0.85078 1.9442,1.04725 3.09875,0.60632 0.88611,-0.3384 1.12663,-0.59156 1.40282,-1.47648 0.43568,-1.39601 -0.10901,-2.6423 -1.15482,-2.6423 -0.86277,0 -0.77946,-0.88582 0.095,-1.01058 0.60522,-0.0864 0.80489,-0.67908 0.32803,-0.97379 -0.41542,-0.25675 -0.30961,-1.49608 0.1733,-2.02969 0.87167,-0.96318 1.94958,-0.39328 2.06646,1.09257 0.0341,0.43286 0.20029,0.95375 0.36942,1.15754 0.25295,0.30479 0.11532,0.3963 -0.77581,0.51583 -0.59583,0.0799 -1.14294,0.20492 -1.21581,0.27779 -0.17599,0.17599 1.95064,2.29325 2.3034,2.29325 0.15132,0 0.74188,0.23813 1.31237,0.52917 1.36795,0.69787 1.5875,0.66942 1.5875,-0.20571 0,-0.96103 -0.57859,-1.75764 -1.57696,-2.17118 -0.44236,-0.18323 -0.81636,-0.46753 -0.83113,-0.63177 -0.15698,-1.74644 -0.25177,-2.29748 -0.55202,-3.20905 l -0.3486,-1.05833 -2.09413,-0.18984 c -1.15177,-0.10442 -2.21706,-0.31278 -2.36731,-0.46303 -0.63769,-0.63769 -4.846955,-0.0883 -5.746825,0.75 -0.29868,0.27827 -1.10026,0.65902 -1.78127,0.84612 -0.68102,0.18709 -1.67986,0.56691 -2.219648,0.84405 -0.53979,0.27713 -1.37323,0.54022 -1.85208,0.58465 -0.85097,0.0789 -1.79669,0.37109 -1.79669,0.55502 0,0.0507 0.28906,0.5182 0.64236,1.03881 0.3533,0.52062 0.72236,1.3108 0.82013,1.75595 0.2142,0.97522 -0.0643,3.06403 -0.43936,3.29586 -0.28959,0.17897 0.61601,1.16886 1.06932,1.16886 0.14438,0 0.35772,0.14883 0.47409,0.33073 0.24454,0.38225 2.225448,1.78594 2.520338,1.78594 0.1091,0 0.6463,-0.47605 1.19376,-1.0579 z m -2.38221,-4.96147 c 0.0698,-0.1819 0.23028,-0.33073 0.35659,-0.33073 0.12632,0 0.1591,-0.3528 0.0729,-0.78401 -0.0862,-0.43121 -0.081,-1.08606 0.0116,-1.45521 0.13432,-0.53515 0.33216,-0.6712 0.97607,-0.6712 1.04091,0 1.66186,0.63473 1.64573,1.68224 -0.026,1.68927 -0.13041,1.80132 -1.72115,1.84724 -1.07914,0.0311 -1.435028,-0.0453 -1.34176,-0.28833 z m 2.45157,-2.18281 c 0,-0.14552 -0.11907,-0.26459 -0.26459,-0.26459 -0.14552,0 -0.26458,0.11907 -0.26458,0.26459 0,0.14552 0.11906,0.26458 0.26458,0.26458 0.14552,0 0.26459,-0.11906 0.26459,-0.26458 z m -9.703978,7.37413 c 0.081,-0.30985 -0.0333,-1.01473 -0.25401,-1.5664 -0.38233,-0.95553 -0.37053,-1.05819 0.24915,-2.16815 0.7684,-1.37634 1.08281,-2.62666 0.84718,-3.36905 -0.22625,-0.71285 -1.55461,-0.71333 -2.78414,-0.001 -0.50705,0.29376 -1.29588,0.70665 -1.75296,0.91754 -0.52132,0.24052 -0.94041,0.69714 -1.12448,1.22516 -0.41271,1.18391 -0.39957,1.21314 0.63261,1.40677 0.50932,0.0956 0.92604,0.30031 0.92604,0.45501 0,0.26334 -0.69296,0.18445 -1.6687,-0.18997 -0.27903,-0.10708 -0.48878,0.13272 -0.7146,0.81698 -0.17715,0.53677 -0.21845,1.06602 -0.0926,1.18722 0.23416,0.22559 4.75565,1.78736 5.28937,1.82699 0.16492,0.0122 0.36616,-0.23124 0.44719,-0.54109 z m 61.043683,-0.50034 c 0.94773,-0.4835 1.0478,-0.63221 1.0478,-1.55712 0,-0.56241 -0.19244,-1.61842 -0.42764,-2.34667 l -0.42764,-1.3241 -2.1004,-0.008 c -1.99727,-0.008 -2.11269,0.024 -2.35049,0.64948 -0.37328,0.98179 -0.3047,3.62249 0.10876,4.18792 0.30562,0.41796 0.77866,0.56516 2.89284,0.90019 0.11494,0.0182 0.68049,-0.20742 1.25677,-0.50142 z m -67.798743,-2.51196 c 0.1757,-0.65694 0.31945,-1.43084 0.31945,-1.7198 0,-0.83529 -1.09835,-0.65398 -2.02649,0.33453 -1.28606,1.36971 -1.28743,1.692 -0.009,2.14483 0.61029,0.2162 1.17422,0.40248 1.25318,0.41397 0.079,0.0115 0.28731,-0.5166 0.46302,-1.17353 z m -23.94362,-0.87282 c 0.40703,-0.17271 1.03211,-0.31401 1.38906,-0.31401 1.47249,0 0.0215,-1.70978 -1.60827,-1.89508 -0.7191,-0.0818 -0.79722,-0.19176 -0.92508,-1.30279 -0.13329,-1.1582 -0.8386,-2.62297 -1.26301,-2.62297 -0.40237,0 -1.11088,3.11933 -1.11088,4.89084 0,1.50989 0.0991,1.92746 0.57883,2.43807 l 0.57883,0.61613 0.81023,-0.74809 c 0.44563,-0.41144 1.14326,-0.88939 1.55029,-1.0621 z m 19.87855,0.32855 c 0.58096,-0.58096 0.53266,-0.7672 -0.44412,-1.71256 -0.75253,-0.72832 -0.77731,-0.79182 -0.19844,-0.50858 0.3638,0.17801 0.8569,0.49371 1.09577,0.70156 0.38513,0.33511 0.50051,0.28491 1.0191,-0.44338 0.52556,-0.73807 0.55021,-0.90712 0.24338,-1.66867 -0.46791,-1.16133 -1.43823,-2.48369 -2.81771,-3.83998 -1.44046,-1.41627 -2.2874,-1.43302 -3.05132,-0.0604 -0.43095,0.77434 -0.4818,1.21312 -0.32927,2.84091 0.1474,1.57293 0.10373,2.0018 -0.23873,2.34426 -0.23053,0.23052 -0.41914,0.56731 -0.41914,0.74842 0,0.34714 2.47544,1.48499 3.23065,1.48499 0.24326,0 0.51587,0.11907 0.60581,0.26459 0.24122,0.39029 0.8309,0.32192 1.30402,-0.15119 z m 71.790473,-4.13351 c 1.13832,-0.69242 1.38572,-1.21602 1.38572,-2.93278 0,-1.34427 -0.0825,-1.52573 -1.35485,-2.9797 -0.74517,-0.85155 -1.81673,-1.88285 -2.38125,-2.29179 -0.56452,-0.40893 -1.0264,-0.84739 -1.0264,-0.97434 0,-0.12696 -0.37301,-0.38533 -0.8289,-0.57417 -0.4559,-0.18884 -1.14051,-0.60278 -1.52136,-0.91988 -0.38085,-0.3171 -1.52589,-1.14283 -2.54453,-1.83496 -2.212,-1.502981 -2.23024,-1.517981 -4.19087,-3.445578 -0.84977,-0.83545 -1.84356,-2.07081 -2.20842,-2.74524 -0.59526,-1.10031 -0.66484,-1.53869 -0.67759,-4.26894 -0.0156,-3.33865 0.39269,-4.89767 1.74792,-6.67448 0.38431,-0.50385 0.69875,-1.00965 0.69875,-1.12399 0,-0.35363 2.84329,-3.04935 3.2181,-3.05108 0.19458,-9e-4 0.70402,-0.18427 1.1321,-0.4075 1.33499,-0.69615 3.78284,-0.8944 5.57168,-0.45124 0.87312,0.21631 1.7006,0.49838 1.83885,0.62683 0.13824,0.12845 0.4359,0.2373 0.66146,0.2419 0.45915,0.009 1.86531,1.1592 1.86531,1.5253 0,0.12986 0.29782,0.58206 0.66182,1.00487 1.07292,1.24629 1.53492,2.50046 1.66452,4.51866 0.10079,1.56947 0.0229,2.10224 -0.45011,3.07938 -1.51424,3.12801 -4.72995,4.66185 -7.2521,3.45912 -1.19958,-0.57204 -1.76788,-1.61113 -1.76788,-3.23241 0,-1.12065 0.10931,-1.41503 0.69714,-1.87741 0.88731,-0.69796 1.60044,-0.69965 1.82113,-0.004 0.124,0.3907 -0.0252,0.72745 -0.52922,1.19457 -0.85414,0.79159 -0.79829,1.58348 0.16205,2.29771 1.64205,1.22122 3.51439,-0.36229 3.52912,-2.9847 0.007,-1.31036 -0.0838,-1.56894 -0.78543,-2.22814 -2.76343,-2.59631 -7.27685,-1.46712 -8.68972,2.17404 -0.75748,1.95214 -0.45205,3.8023 0.91112,5.51912 1.04573,1.31703 1.93702,1.87019 3.79189,2.35332 1.81859,0.47368 3.21258,0.48156 5.30963,0.03 1.76739,-0.38056 2.40003,-0.67403 4.02193,-1.86565 1.61913,-1.18959 3.03214,-4.14043 3.19718,-6.67677 0.12526,-1.92501 -0.39103,-4.33604 -1.17981,-5.50968 -0.19292,-0.28704 -0.35076,-0.71034 -0.35076,-0.94066 0,-0.48107 -3.13303,-4.22599 -3.5355,-4.22599 -0.14677,0 -0.52483,-0.24235 -0.84013,-0.53857 -0.99123,-0.93121 -3.95982,-1.84268 -6.00146,-1.84268 -2.01677,0 -5.34131,0.95321 -6.49807,1.86312 -0.36229,0.28497 -0.8136,0.51813 -1.00291,0.51813 -0.29042,0 -2.29151,1.63456 -3.07717,2.51354 -0.79625,0.89083 -2.27738,3.08697 -2.51852,3.73432 -1.27544,3.42396 -1.5986,6.18931 -1.01683,8.7011 0.71776,3.09886 0.88212,3.51249 1.9935,5.01692 2.08692,2.824948 4.1936,4.478248 9.1754,7.200718 0.57968,0.31678 1.20941,0.76327 1.39939,0.99219 0.18998,0.22891 0.47968,0.41997 0.64376,0.42457 0.67841,0.019 1.95818,1.50994 2.71814,3.16664 0.37134,0.80949 0.37899,1.05614 0.0608,1.95975 -0.44721,1.27011 -1.06934,1.72777 -1.67049,1.22886 -0.38601,-0.32036 -0.37595,-0.38681 0.11012,-0.72726 1.31187,-0.91887 0.14447,-2.43065 -1.19781,-1.55115 -1.31126,0.85917 -0.58644,3.87416 1.01042,4.20295 1.06439,0.21916 3.21896,-0.13122 4.09911,-0.6666 z m -62.156903,-0.85639 c 0.67828,-0.17506 1.62263,-0.23556 2.09854,-0.13445 0.64781,0.13762 1.02405,0.059 1.49694,-0.31303 0.34741,-0.27326 0.75177,-0.49685 0.8986,-0.49685 0.37628,0 0.54216,-0.58701 0.29987,-1.06115 -0.33455,-0.65468 0.0345,-1.85239 0.70656,-2.2927 0.34514,-0.22615 0.62753,-0.55715 0.62753,-0.73557 0,-0.62668 2.497898,-1.73141 3.914888,-1.73141 1.16004,0 1.41715,0.10388 2.01471,0.81405 0.37674,0.44773 0.68498,0.99625 0.68498,1.21893 0,0.26925 0.14778,0.34818 0.44115,0.2356 0.242625,-0.0931 1.135595,-0.24187 1.984375,-0.33058 1.16904,-0.12219 1.54527,-0.26443 1.55164,-0.58663 0.0193,-0.97698 1.56429,-2.14512 2.83708,-2.14512 0.48162,0 1.30311,0.17859 1.82553,0.39687 0.52242,0.21828 0.99484,0.39688 1.04983,0.39688 0.055,0 0.1,-0.61346 0.1,-1.36324 v -1.36324 l -3.27797,0.17524 c -3.74234,0.20006 -3.60119,0.28207 -3.60119,-2.09245 0,-1.17313 -1.06911,-6.731098 -1.73823,-9.036498 -0.13945,-0.48046 -0.0361,-0.6191 0.58603,-0.7863 1.01732,-0.27339 4.98371,-0.27102 6.37772,0.004 l 1.12448,0.2217 -0.021,-1.01545 c -0.0116,-0.55849 -0.27946,-2.14654 -0.59531,-3.52898 l -0.57428,-2.51355 -1.32291,-0.17525 c -0.72761,-0.0964 -2.71772,-0.18569 -4.42247,-0.19844 -3.620525,-0.0271 -3.361625,0.1868 -4.031545,-3.33048 -0.48827,-2.56358 -0.79706,-3.68321 -1.8495,-6.70602 -0.71832,-2.06316 -0.69641,-2.4221 0.14789,-2.4221 0.93309,0 4.204735,2.09471 6.301475,4.03459 0.47424,0.43877 0.54392,0.46102 0.26458,0.0845 -0.56241,-0.75809 -3.455415,-3.58992 -3.667465,-3.58992 -0.10073,0 -0.54752,-0.35625 -0.99288,-0.79167 -0.9068,-0.88656 -4.817298,-2.99791 -6.322078,-3.4134 -0.75767,-0.2092 -1.10068,-0.1866 -1.50907,0.0995 -1.07911,0.75584 -4.00661,3.75557 -5.03961,5.16395 -0.58703,0.80036 -1.15158,1.51474 -1.25454,1.5875 -0.10296,0.0728 -0.38102,0.54901 -0.61792,1.05833 -0.2369,0.50933 -0.82928,1.59434 -1.31641,2.41114 -0.48712,0.81681 -0.96348,1.89983 -1.05857,2.40672 -0.0951,0.50689 -0.40429,1.40054 -0.68709,1.98588 -0.28281,0.58534 -0.77661,2.00262 -1.09733,3.14953 -0.52094,1.86288 -0.58379,2.72017 -0.58921,8.0384 -0.007,6.479498 -0.0156,6.428858 1.86927,10.583328 0.36312,0.80037 0.79292,1.75287 0.95513,2.11667 0.1622,0.3638 0.60408,1.13771 0.98197,1.71979 0.37788,0.58208 1.01883,1.70462 1.42433,2.49452 1.04981,2.04497 1.28753,2.38487 1.55314,2.22071 0.12933,-0.0799 0.79011,-0.28856 1.4684,-0.46361 z m -0.0624,-4.18377 c -0.39103,-0.47201 -0.78191,-1.15662 -0.86861,-1.52136 -0.0867,-0.36474 -0.24686,-0.78222 -0.35591,-0.92774 -0.18704,-0.2496 -1.35729,-3.18757 -1.84431,-4.63021 -0.24939,-0.73874 -0.56101,-2.643318 -0.62235,-3.803708 -0.0235,-0.44471 0.12473,-0.84362 0.35665,-0.95976 3.85373,-1.92983 6.70594,-3.09313 9.48098,-3.86692 1.73677,-0.48428 2.07338,-0.27255 2.292798,1.44213 0.16539,1.29252 0.566,3.1532 0.92104,4.27785 0.11484,0.3638 0.35057,1.494888 0.52384,2.513538 0.17327,1.01864 0.44279,2.18733 0.59895,2.59708 0.36738,0.96403 0.0407,1.26543 -2.04366,1.88519 -1.930918,0.57415 -7.020888,3.06285 -7.202008,3.52137 -0.20299,0.51389 -0.46845,0.40074 -1.23741,-0.52746 z m 2.79951,-2.43376 c 0.48258,-0.18218 1.99135,-0.85547 3.35283,-1.4962 l 2.475408,-1.16497 -0.15611,-1.5875 c -0.0859,-0.87313 -0.381058,-2.480471 -0.655988,-3.571878 -0.27493,-1.0914 -0.57987,-2.43086 -0.67764,-2.97656 -0.22288,-1.24394 -0.44101,-1.24744 -3.32879,-0.0533 -1.23693,0.51146 -2.77338,1.11574 -3.41434,1.34284 -0.64096,0.22709 -1.54988,0.66495 -2.01983,0.97301 l -0.85446,0.56011 0.37315,1.333737 c 0.20523,0.733561 0.48093,1.527451 0.61267,1.764191 0.13174,0.23675 0.32577,0.89159 0.43118,1.45521 0.20639,1.10359 0.44706,1.70873 1.39072,3.49688 0.57859,1.09638 0.62917,1.12867 1.10013,0.70245 0.27152,-0.24572 0.8885,-0.59581 1.37107,-0.77798 z m -6.75769,-16.758898 c -0.0633,-0.10438 0.0605,-1.3804 0.27508,-2.83561 0.39737,-2.69534 0.94948,-4.5128 2.0909,-6.88296 0.3514,-0.72969 0.63892,-1.53336 0.63892,-1.78594 0,-0.25257 0.09,-0.45922 0.19999,-0.45922 0.11,0 0.34639,-0.32742 0.52532,-0.7276 0.17893,-0.40019 0.62471,-1.07355 0.99063,-1.49637 0.36592,-0.42281 0.66531,-0.90807 0.66531,-1.07835 0,-0.17029 0.27914,-0.57185 0.62032,-0.89237 0.75497,-0.70926 1.4435,-0.51963 1.64685,0.45356 0.24586,1.17656 0.35953,1.63541 1.31314,5.30107 0.50713,1.94937 0.99473,4.16271 1.08356,4.91852 l 0.16151,1.37421 -2.21425,0.85044 c -2.41001,0.92563 -3.82305,1.60817 -5.25697,2.53929 -0.97188,0.63109 -2.54419,1.04497 -2.74031,0.72133 z m 4.64375,-3.49706 c 1.46138,-0.72761 2.89658,-1.32292 3.18934,-1.32292 0.47605,0 0.51464,-0.11882 0.36521,-1.12448 -0.0919,-0.61846 -0.27044,-1.83885 -0.39677,-2.71198 -0.25841,-1.78599 -1.07112,-4.91344 -1.363,-5.24504 -0.10551,-0.11988 -0.48224,0.35637 -0.83716,1.05833 -0.35492,0.70196 -1.03446,2.01583 -1.51008,2.9197 -0.47563,0.90388 -1.039,2.33263 -1.25193,3.175 -0.21293,0.84238 -0.5092,1.94831 -0.65838,2.45764 -0.47888,1.63499 -0.56478,2.11666 -0.37748,2.11666 0.10076,0 1.37887,-0.59531 2.84025,-1.32291 z m 7.48927,24.446298 c 0.582078,-0.22071 1.415518,-0.51071 1.852078,-0.64444 1.16931,-0.35818 1.57873,-1.14239 1.03203,-1.97675 -0.56421,-0.8611 -1.01003,-0.83142 -3.026578,0.20145 -1.31005,0.671 -1.72334,1.02927 -1.88141,1.63097 -0.34602,1.31716 0.13548,1.50482 2.02388,0.78877 z m 14.113223,-2.10194 c 0.0497,-0.0437 0.008,-0.33745 -0.0916,-0.65275 -0.19233,-0.60597 -1.57002,-1.3187 -2.54902,-1.3187 -1.30353,0 -2.13253,1.71294 -0.95537,1.97406 1.46518,0.32501 3.22526,0.32374 3.59603,-0.003 z m 0.43467,-6.99853 c 0.23547,-0.7662 -0.28444,-7.670508 -0.60148,-7.987548 -0.18903,-0.18903 -1.53082,-0.35911 -3.39653,-0.43052 l -3.08405,-0.11805 0.19375,0.76233 c 0.10657,0.41928 0.29307,1.29811 0.41444,1.95296 0.18494,0.99775 0.64327,3.20387 1.18429,5.700438 0.10837,0.5001 0.30842,0.54016 2.64243,0.52916 2.00675,-0.009 2.55022,-0.0934 2.64715,-0.40877 z M 76.758927,94.504802 c 0.002,-2.86144 0.45989,-5.82643 1.60517,-10.3849 0.4256,-1.69396 0.49003,-1.8613 1.94954,-5.0635 0.6724,-1.47524 1.22253,-2.75413 1.22253,-2.84198 0,-0.0879 0.41672,-0.70566 0.92604,-1.37291 0.50933,-0.66725 0.92605,-1.36306 0.92605,-1.54625 0,-0.18319 -0.68461,-0.52953 -1.52136,-0.76964 l -1.52135,-0.43657 -0.8599,0.96628 c -0.47294,0.53145 -0.85989,1.16999 -0.85989,1.41896 0,0.24898 -0.1786,0.60091 -0.39688,0.78207 -0.21828,0.18116 -0.39687,0.43088 -0.39687,0.55494 0,0.12406 -0.37107,1.03221 -0.8246,2.01812 -0.45353,0.98591 -0.92695,2.50694 -1.05204,3.38006 -0.1251,0.87313 -0.33936,2.12329 -0.47615,2.77813 -0.13678,0.65484 -0.32922,2.14312 -0.42765,3.30729 -0.17201,2.03461 -0.1017,2.64247 0.91805,7.9375 0.20935,1.087 0.52226,1.98438 0.69194,1.98438 0.0527,0 0.0965,-1.2204 0.0974,-2.71198 z m 29.214593,-11.70782 c -0.0838,-0.21828 -0.24375,-0.39687 -0.35552,-0.39687 -0.11178,0 -0.37504,-0.35475 -0.58503,-0.78833 -0.20999,-0.43358 -0.87971,-1.31956 -1.48826,-1.96884 -0.60855,-0.64927 -1.10645,-1.3035 -1.10645,-1.45383 0,-0.15033 -0.34668,-0.4526 -0.77039,-0.67171 -0.42371,-0.21911 -0.99927,-0.68935 -1.27901,-1.04499 -0.504425,-0.64127 -2.417575,-1.86436 -2.612045,-1.66989 -0.0557,0.0557 0.12027,0.80567 0.39103,1.66661 0.93262,2.9655 1.62625,5.53528 1.62541,6.02195 -7.9e-4,0.42642 0.15742,0.46925 1.255935,0.34009 0.99172,-0.11659 3.40691,0.0448 4.88649,0.32649 0.10457,0.0199 0.1216,-0.14239 0.0378,-0.36068 z"
       id="path4584"
       inkscape:connector-curvature="0" />
  </g>
</svg>
