<?xml version="1.0" encoding="iso-8859-1"?>
<!-- Uploaded to: SVG Repo, www.svgrepo.com, Generator: SVG Repo Mixer Tools -->
<svg version="1.1" id="Layer_1" xmlns="http://www.w3.org/2000/svg" xmlns:xlink="http://www.w3.org/1999/xlink" 
	 viewBox="0 0 512 512" xml:space="preserve">
<path style="fill:#C21800;" d="M313.783,49.061c0.593,0.987,0.61,2.217,0.044,3.22c-0.566,1.002-1.629,1.622-2.781,1.622h-55.044
	V16.76h55.044c1.152,0,2.215,0.62,2.781,1.622c0.566,1.002,0.551,2.232-0.044,3.22l-8.258,13.729L313.783,49.061z"/>
<path style="fill:#2D2E30;" d="M256,91.299c-9.256,0-16.76-7.504-16.76-16.76V16.76C239.24,7.504,246.744,0,256,0
	c9.256,0,16.76,7.504,16.76,16.76v57.778C272.76,83.795,265.256,91.299,256,91.299z"/>
<path style="fill:#F7DC4D;" d="M136.907,232.543V512h63.083v-91.384c0-30.933,25.077-56.01,56.01-56.01s56.01,25.077,56.01,56.01
	V512h63.083V232.543H136.907z"/>
<path style="fill:#FF8600;" d="M256,232.543v132.063l0,0c30.933,0,56.009,25.077,56.009,56.01V512h63.083V232.543H256z"/>
<polygon style="fill:#E61F00;" points="107.428,249.051 256,48.597 404.572,249.051 "/>
<polygon style="fill:#9D2217;" points="256,48.597 256,249.051 404.572,249.051 "/>
<path style="fill:#C46200;" d="M394.181,512h-82.171v-33.521h82.171c9.256,0,16.76,7.504,16.76,16.76S403.437,512,394.181,512z"/>
<path style="fill:#FF8600;" d="M199.99,512h-82.171c-9.256,0-16.76-7.504-16.76-16.76s7.504-16.76,16.76-16.76h82.171V512z"/>
<path style="fill:#9D2217;" d="M392.781,265.811H119.219c-9.256,0-16.76-7.504-16.76-16.76s7.504-16.76,16.76-16.76h273.561
	c9.256,0,16.76,7.504,16.76,16.76S402.037,265.811,392.781,265.811z"/>
<path style="fill:#590600;" d="M392.781,232.291H256v33.521h136.781c9.256,0,16.76-7.504,16.76-16.76
	S402.037,232.291,392.781,232.291z"/>
<rect x="136.909" y="265.807" style="fill:#FF8600;" width="238.186" height="21.33"/>
</svg>