<?xml version="1.0" encoding="iso-8859-1"?>
<!-- Uploaded to: SVG Repo, www.svgrepo.com, Generator: SVG Repo Mixer Tools -->
<svg version="1.1" id="Layer_1" xmlns="http://www.w3.org/2000/svg" xmlns:xlink="http://www.w3.org/1999/xlink" 
	 viewBox="0 0 511.999 511.999" xml:space="preserve">
<path style="fill:#FFBCAB;" d="M405.638,161.33c-14.65-24.321-46.242-32.161-70.564-17.511
	c-19.62,11.819-28.505,34.661-23.519,55.819l-1.793,1.793l-14.243-23.646l-34.469-57.224l32.829-57.453
	c2.026-3.545,0.677-8.065-2.962-9.92l0,0c-16.779-8.552-37.317-2.411-46.648,13.948l-26.047,40.644
	c-4.935,7.702-5.187,17.508-0.652,25.452l23.067,40.405c1.652,2.894,0.985,6.556-1.582,8.681L136.803,266.98v37.683h193.406
	l0.504-17.847c12.3-7.409,16.302-23.535,8.893-35.835l-13.07-21.698l2.032-2.032c16.358,13.717,40.246,16.277,59.558,4.645
	C412.448,217.244,420.289,185.651,405.638,161.33z"/>
<path style="fill:#315591;" d="M405.638,161.33c-14.65-24.321-46.242-32.161-70.564-17.511
	c-8.408,5.064-14.843,12.155-19.063,20.268c12.747,8.232,46.052,26.877,95.878,34.394
	C414.488,186.194,412.63,172.935,405.638,161.33z"/>
<path style="fill:#FF9478;" d="M338.194,248.27H159.62l-22.597,18.71v37.683h193.406l0.504-17.847
	c12.3-7.409,16.302-23.535,8.893-35.835L338.194,248.27z"/>
<path style="fill:#52A2E7;" d="M511.743,278.355c-15.697-15.306-40.783-15.147-56.285,0.356l-0.394,0.394
	c-15.642,15.642-41.003,15.642-56.646,0l-0.061-0.061c-15.633-15.633-40.976-15.644-56.622-0.024l-0.038,0.038
	c-15.646,15.62-40.989,15.609-56.622-0.024l-0.061-0.061c-15.642-15.642-41.003-15.642-56.646,0l-0.394,0.394
	c-15.503,15.503-40.588,15.662-56.285,0.356l-1.403-1.367c-15.697-15.306-40.783-15.147-56.285,0.356l-0.394,0.394
	c-15.642,15.642-41.003,15.642-56.646,0l-0.038-0.038c-15.642-15.642-41.003-15.642-56.646,0c0,0,0,154.702,0,152.049
	c0-2.654,511.461,0,511.461,0V279.041"/>
<path style="fill:#4675CF;" d="M199.649,365.114c-12.084,0.001-24.169-4.502-33.426-13.527l-1.4-1.366
	c-12.563-12.25-32.875-12.121-45.28,0.285l-0.394,0.394c-3.06,3.058-8.018,3.058-11.077,0c-3.059-3.06-3.059-8.018,0-11.077
	l0.394-0.394c18.436-18.436,48.624-18.628,67.293-0.425l1.4,1.366c12.562,12.249,32.874,12.12,45.28-0.285l0.393-0.393
	c9.045-9.044,21.071-14.025,33.862-14.025s24.817,4.981,33.862,14.025c12.612,12.614,33.048,12.623,45.611,0.079
	c18.71-18.678,49.077-18.662,67.731-0.009c0.016,0.017,0.091,0.093,0.107,0.109c3.033,3.085,2.991,8.043-0.093,11.076
	c-3.085,3.032-8.042,2.992-11.076-0.093l-0.061-0.062c-12.508-12.508-32.94-12.514-45.504,0.027
	c-18.708,18.678-49.075,18.664-67.731,0.009c-12.621-12.623-33.065-12.626-45.628-0.061l-0.393,0.393
	C224.221,360.458,211.935,365.113,199.649,365.114z"/>
<rect x="0.282" y="419.678" style="fill:#E5E5E5;" width="511.717" height="42.558"/>
<g>
	<rect x="215.976" y="419.678" style="fill:#ACAAB1;" width="78.951" height="42.984"/>
	<rect x="58.072" y="419.678" style="fill:#ACAAB1;" width="78.951" height="42.984"/>
	<rect x="373.877" y="419.678" style="fill:#ACAAB1;" width="78.951" height="42.984"/>
</g>
<rect y="394.74" style="fill:#4675CF;" width="511.456" height="24.936"/>
</svg>