<!DOCTYPE svg PUBLIC "-//W3C//DTD SVG 1.1//EN" "http://www.w3.org/Graphics/SVG/1.1/DTD/svg11.dtd">
<!-- Uploaded to: SVG Repo, www.svgrepo.com, Transformed by: SVG Repo Mixer Tools -->
<svg height="800px" width="800px" version="1.1" id="Layer_1" xmlns="http://www.w3.org/2000/svg" xmlns:xlink="http://www.w3.org/1999/xlink" viewBox="0 0 512 512" xml:space="preserve" fill="#000000">
<g id="SVGRepo_bgCarrier" stroke-width="0"/>
<g id="SVGRepo_tracerCarrier" stroke-linecap="round" stroke-linejoin="round"/>
<g id="SVGRepo_iconCarrier"> <g> <path style="fill:#90160E;" d="M256,238.428c-65.735,0-119.214-53.48-119.214-119.214S190.265,0,256,0 c65.734,0,119.214,53.48,119.214,119.214S321.734,238.428,256,238.428z"/> <path style="fill:#90160E;" d="M414.229,512H97.771c-10.687,0-19.351-8.664-19.351-19.351v-61.375 c0-97.918,79.662-177.58,177.58-177.58s177.58,79.662,177.58,177.58v61.375C433.58,503.336,424.916,512,414.229,512z"/> </g> <g> <path style="fill:#EE564B;" d="M256,0v238.428c65.734,0,119.214-53.48,119.214-119.214C375.214,53.478,321.734,0,256,0z"/> <path style="fill:#EE564B;" d="M256,253.693V512h158.229c10.687,0,19.351-8.664,19.351-19.351v-61.375 C433.58,333.355,353.918,253.693,256,253.693z"/> </g> </g>
</svg>