<svg xmlns="http://www.w3.org/2000/svg" viewBox="0 0 500 500"><g id="freepik--Floor--inject-125"><ellipse id="freepik--floor--inject-125" cx="250" cy="354.36" rx="234.67" ry="135.49" style="fill:#f5f5f5"></ellipse></g><g id="freepik--Shadows--inject-125"><g id="freepik--Shadow--inject-125"><path d="M367.53,446.74c-70.11-31.85-131.22-67.23-184.37-106.45-5.48-4.56-4-9.09.85-11.91s13.08-2.67,18.29.34L387,435.38c5.21,3,5.48,7.74.59,10.56S375,449.65,367.53,446.74Z" style="fill:#e0e0e0"></path><ellipse id="freepik--shadow--inject-125" cx="273.98" cy="386.92" rx="45.6" ry="26.33" style="fill:#e0e0e0"></ellipse></g><path id="freepik--shadow--inject-125" d="M139.07,367.43a47.79,47.79,0,0,0-28,1.86c-2.71,1-5.49,2.49-6.86,5.06-2.36,4.4.53,9.84,4.13,13.31C115,394,124,397.4,132.91,399.5s18.17,3.14,27,5.77c12,3.56,23,10,34.77,14.15s25.36,5.95,36.51.27c5-2.57,9.69-7.44,9.2-13.08-.44-5-4.69-8.75-8.82-11.63-28.89-20.15-65.47-24.82-100.46-28.87" style="fill:#e0e0e0"></path></g><g id="freepik--Plants--inject-125"><g id="freepik--plants--inject-125"><path d="M61.32,308.84l8-4.64s4.78-19.86,2.88-37.74C69.55,241.33,53,231.88,46.72,234.05s-8.11,9.48,2.29,24.44C55.15,267.32,62.7,285.72,61.32,308.84Z" style="fill:#84B8C6"></path><g style="opacity:0.15"><path d="M61.32,308.84l8-4.64s4.78-19.86,2.88-37.74C69.55,241.33,53,231.88,46.72,234.05s-8.11,9.48,2.29,24.44C55.15,267.32,62.7,285.72,61.32,308.84Z"></path></g><path d="M64.65,299.09h-.08a.56.56,0,0,1-.44-.66c4.4-23.17-3.7-49.22-13.72-60.06a.56.56,0,0,1,0-.79.57.57,0,0,1,.79,0c10.21,11,18.46,37.5,14,61A.56.56,0,0,1,64.65,299.09Z" style="fill:#fff"></path><path d="M40.28,321c-1.27.64-4.64-2.25-5.59-2.95A11.67,11.67,0,0,1,31,313.36a11,11,0,0,1-.65-6.67,24.77,24.77,0,0,1,1-3.48c.38-1.13.77-2.25,1.15-3.37a8.71,8.71,0,0,0,.68-3.43c-.18-2.35-2.18-4.09-4-5.6-2-1.67-4.08-3.84-3.93-6.65a9.9,9.9,0,0,1,2.78-5.77c1.43-1.64,3.11-3.06,4.41-4.8a7,7,0,0,0,1.64-4.31,7.24,7.24,0,0,0-.81-2.78,37.87,37.87,0,0,1-2.72-5.63c-.58-2-.36-4.45,1.24-5.78,1.32-1.09,3.21-1.16,4.91-1a11.32,11.32,0,0,1,4.42,1.81c4.35,2.72,6.63,8.14,11.28,10.29a47.45,47.45,0,0,0,5.67,1.69c1.88.6,3.77,1.67,4.57,3.48,1.56,3.57-1.88,7.69-.85,11.44.92,3.32,4,4.73,5.67,7.76a7,7,0,0,1,.61,4.32A20.57,20.57,0,0,1,66,302.06a65.45,65.45,0,0,1-4.29,6.59Z" style="fill:#84B8C6"></path><path d="M52.57,314.59h0a.55.55,0,0,1-.51-.61c2-22.05-7.15-47-14.36-54.43a.56.56,0,0,1,0-.79.56.56,0,0,1,.79,0c7.36,7.61,16.73,33,14.67,55.3A.57.57,0,0,1,52.57,314.59Z" style="fill:#fff"></path><path d="M50.38,287.4a.45.45,0,0,1-.16,0A75,75,0,0,0,34.32,284a.57.57,0,0,1-.51-.61.55.55,0,0,1,.61-.5,76.09,76.09,0,0,1,16.18,3.45.56.56,0,0,1,.33.72A.54.54,0,0,1,50.38,287.4Z" style="fill:#fff"></path></g><g id="freepik--plants--inject-125"><path d="M436.11,312.12,426,306.31s-2.46-21.56-.82-38.26c2.3-23.46,17.45-51.69,35.53-45.06s-8.29,30.53-14.16,50.42S436.11,312.12,436.11,312.12Z" style="fill:#84B8C6"></path><path d="M436.11,312.12,426,306.31s-2.46-21.56-.82-38.26c2.3-23.46,17.45-51.69,35.53-45.06s-8.29,30.53-14.16,50.42S436.11,312.12,436.11,312.12Z" style="opacity:0.15"></path><path d="M430.81,309.67h0a.61.61,0,0,0,.59-.63c-1.77-52.13,24.18-78.35,24.45-78.61a.6.6,0,0,0,0-.86.61.61,0,0,0-.86,0c-.27.27-26.59,26.87-24.81,79.52A.62.62,0,0,0,430.81,309.67Z" style="fill:#fff"></path><path d="M442.44,315.74l-7.17-4.13s-1.21-14.8,6-32.77c6.31-15.64,22-28.62,29.86-25.89s7.68,8.31,3.84,14.17S447.8,287,442.44,315.74Z" style="fill:#84B8C6"></path><path d="M438.66,314.17h0a.61.61,0,0,0,.61-.61c-.14-33,30.8-55.24,31.12-55.46a.61.61,0,0,0-.71-1c-.31.22-31.78,22.87-31.63,56.45A.61.61,0,0,0,438.66,314.17Z" style="fill:#fff"></path></g></g><g id="freepik--Clouds--inject-125"><g id="freepik--clouds--inject-125"><path d="M116.44,44.31l-9.54,5.5a10.66,10.66,0,0,0,.08-1.26V45.79c0-4.92-3.45-6.91-7.71-4.45a14.8,14.8,0,0,0-4.59,4.42c-.7-6.19-5.55-8.49-11.44-5.09-6.38,3.68-11.54,12.63-11.54,20v4.14a10.83,10.83,0,0,0,1,4.79l-7.93,4.57a9.45,9.45,0,0,0-4.27,7.41c0,2.72,1.91,3.83,4.27,2.47l51.69-29.84a9.49,9.49,0,0,0,4.28-7.41C120.72,44.05,118.8,42.94,116.44,44.31Z" style="fill:#ebebeb"></path><path d="M154.88,65.09l-7.2,4.16a7.69,7.69,0,0,0,.06-1V66.21c0-3.71-2.6-5.21-5.82-3.36a11.18,11.18,0,0,0-3.46,3.34c-.53-4.67-4.19-6.41-8.64-3.84-4.81,2.78-8.7,9.53-8.7,15.08v3.12a8.19,8.19,0,0,0,.73,3.61l-6,3.45a7.15,7.15,0,0,0-3.22,5.6c0,2.05,1.44,2.89,3.22,1.86l39-22.52A7.14,7.14,0,0,0,158.11,67C158.11,64.9,156.66,64.06,154.88,65.09Z" style="fill:#ebebeb"></path></g></g><g id="freepik--speech-bubble--inject-125"><g id="freepik--speech-bubble--inject-125"><g id="freepik--speech-bubble--inject-125"><path d="M288.89,105.8l-3.57-10.15,2.87-8.29V82.28l-8.79,5.08v5.07l3.78,10a.53.53,0,0,0,.26.23h0Z" style="fill:#84B8C6"></path><path d="M288.89,105.8l-3.57-10.15,2.87-8.29V82.28l-8.79,5.08v5.07l3.78,10a.53.53,0,0,0,.26.23h0Z" style="opacity:0.2"></path><path d="M309.88,41.93a5.81,5.81,0,0,0-2.64-4.56l-2.14-1.24a5.83,5.83,0,0,0-5.27,0l-32.91,19a5.84,5.84,0,0,0-2.64,4.57V95.94a5.81,5.81,0,0,0,2.64,4.56l2.14,1.24a5.83,5.83,0,0,0,5.27,0l10.59-6.11,3.77,10a.56.56,0,0,0,1-.09l4-15,13.54-7.85a5.83,5.83,0,0,0,2.64-4.57Z" style="fill:#84B8C6"></path><path d="M264.28,95.94a5.81,5.81,0,0,0,2.64,4.56l2.14,1.24a5.9,5.9,0,0,0,4.82.22c-1.24.46-2.18-.24-2.18-1.74V64a5.37,5.37,0,0,1,.77-2.6l-7.42-4.28a5.48,5.48,0,0,0-.77,2.6Z" style="opacity:0.2"></path><path d="M309.79,41.19c-.3-1.12-1.32-1.48-2.54-.78l-32.92,19a5.19,5.19,0,0,0-1.85,2l-7.42-4.28a5.29,5.29,0,0,1,1.86-2l32.9-19a5.91,5.91,0,0,1,5.28,0l2.15,1.24A5.85,5.85,0,0,1,309.79,41.19Z" style="fill:#fff;opacity:0.30000000000000004"></path><path d="M264.27,72.89,253.66,82a1.16,1.16,0,0,0,.2,1.8c.22.15,7.35,4.23,7.35,4.23l10.44-10.93Z" style="fill:#84B8C6"></path><path d="M264.27,72.89,253.66,82a1.16,1.16,0,0,0,.2,1.8c.22.15,7.35,4.23,7.35,4.23l10.44-10.93Z" style="opacity:0.1"></path><path d="M271.65,77.13,261,86.28a1.16,1.16,0,0,0,1,2l9.61-1.39C272.68,86.86,272.68,77.13,271.65,77.13Z" style="fill:#84B8C6"></path></g><path id="freepik--Heart--inject-125" d="M280.53,74.61a12.65,12.65,0,0,1,1.28-5.34h0v0a10.65,10.65,0,0,1,3.87-4.57c2.24-1.32,4.17.33,4.91,2.83a.24.24,0,0,0,.47,0c.66-3.4,2.6-7.49,4.91-8.84,1.54-.9,2.93-.82,3.89,0l0,0h0a5.08,5.08,0,0,1,1.33,3.81c0,5.45-3.76,10.69-6.92,16.13l-3.42,5.29-3.3-1.35C284.37,80.84,280.55,80.06,280.53,74.61Z" style="fill:#fafafa"></path></g></g><g id="freepik--Characters--inject-125"><g id="freepik--character-child--inject-125"><path d="M303.85,170.73a6.42,6.42,0,0,1,.42,2.34,6.68,6.68,0,0,1-.24,2.23,2.26,2.26,0,0,1,1.34.63,4.82,4.82,0,0,1,1.25,2,4.9,4.9,0,0,1-.26,3.57,4.74,4.74,0,0,1,1.94,3.34,5.39,5.39,0,0,1-2.12,4.71,4.69,4.69,0,0,1,.88,3.84,4.74,4.74,0,0,1-2.39,3.14,2.28,2.28,0,0,0-.95.65c-.38.58,0,1.33,0,2a3.93,3.93,0,0,1-1.53,3.15,17.25,17.25,0,0,0-2.62,2.5,2.75,2.75,0,0,0-.09,3.35A6.47,6.47,0,0,1,301.3,197a9.59,9.59,0,0,1-1-3.66,3.24,3.24,0,0,1,1.83-3.09c-1.22-.46-2.13-2.16-2.46-3.34a6.15,6.15,0,0,1,.2-3.86,3.56,3.56,0,0,1-1.91-4.57,5.32,5.32,0,0,1-.75-7.37c.34-.38.58-.83.91-1.21A7.75,7.75,0,0,1,300,168.6a2.48,2.48,0,0,1,1.44-.47,2.17,2.17,0,0,1,1.38.85A5.87,5.87,0,0,1,303.85,170.73Z" style="fill:#37474f"></path><path d="M219.19,137.27c9.26,2.16,12.32,6.92,13.48,14.74,1.7,11.46,4.26,49.83,4.26,49.83L258.18,248,246,255.11S222.29,214,220.64,210.6s-2-6.3-2.85-11.72-6.49-43.79-6.49-43.79Z" style="fill:#f28f8f"></path><path d="M238.53,242.16c2.15,3.75,1.86,8.44,2.81,12s4.91,6.81,4.91,6.81l1.5-10.42Z" style="fill:#f28f8f"></path><path d="M217.2,133.22c6.77.3,11.1,3.05,13.65,6.92S234,154,234.93,164.75s1,12.7,1,12.7-7.62,5.7-22.31,3.51l-4.07-29.49Z" style="fill:#37474f"></path><path d="M295.33,184.73c5.74.21,8.4,3.21,12.27,9.66s15.63,25.26,15.63,25.26,29.29-1.55,33.73-3.1,3.8,10.62,3.8,10.62-27.35,7.39-33.53,8.63c-5.49,1.11-8.9,1.26-13-2.71S295,205.77,295,205.77Z" style="fill:#ffa8a7"></path><path d="M290.63,335.4l-8.76-5a1.55,1.55,0,0,0-1.56,0l-12.19,7a1.57,1.57,0,0,0-.79,1.36v.78a1.57,1.57,0,0,0,.79,1.36l8.77,5.06a1.55,1.55,0,0,0,1.56,0l12.18-7.05a1.58,1.58,0,0,0,.78-1.36v-.78A1.58,1.58,0,0,0,290.63,335.4Z" style="fill:#37474f"></path><path d="M276.94,343.39a1.46,1.46,0,0,0,1.46,0L291.2,336a1.51,1.51,0,0,0-.57-.58L288.18,334l-6.31-3.64a1.55,1.55,0,0,0-1.56,0l-1.48.85-10.71,6.19a1.59,1.59,0,0,0-.58.57Z" style="fill:#455a64"></path><path d="M299,239.24s14.32,24.39,18.7,33.35c3.85,7.91,5.75,12.7-4.88,23.45s-27.38,25.2-27.38,25.2c-6,.75-14.14,2.12-10.46-5.07l.42-1c10.65-5.78,13-27.46,22.64-31.61l-17.17-22.18Z" style="fill:#ffa8a7"></path><path d="M300,239.7,317,270s-6.27,9.91-21.1,12.12l-18-25.51V239.24Z" style="fill:#455a64"></path><path d="M298.94,281.47l-12.15-18.92a16.38,16.38,0,0,0,8.48-7.34c-2.57,3.85-13.47,6.88-13.47,6.88h0l14.07,20C296.94,281.91,298,281.7,298.94,281.47Z" style="fill:#37474f"></path><path d="M285.51,309.37c3.62-5.29,3.5-9.24,2.88-13.33-3.55,7.42-6.92,15.83-13,19.11l-.42,1c-2.16,4.22-.24,5.48,2.92,5.66C279.41,319.19,282.78,313.35,285.51,309.37Z" style="fill:#f28f8f"></path><path d="M295.16,345.47a4.06,4.06,0,0,1-1.33,2.31c-.94.55-4.07,1.78-10-.72-5.73-2.41-8.1-6.47-8.71-8.47s-1.13-3.95-1.84-5.65a10.7,10.7,0,0,0-3.18-3.68c-1-.79-1.18-1.32-.45-2.94C270.56,324.9,295.16,345.47,295.16,345.47Z" style="fill:#37474f"></path><path d="M275.42,315.15c-.12.34-.26.67-.42,1,0,0-1,2.33.38,3.45,1.58,1.33,2-.05,3.75-.64,3.91-1.26,7.51.3,7.63,2.66.16,3.13,2.41,9.66,3.37,11.59a35,35,0,0,0,2.65,4.57c1.08,1.58,3.93,4.79,2.72,7s-3.83,2.61-6.93,2A18.46,18.46,0,0,1,278,340.23c-2-2.75-3.11-7-3.74-8.37-1.16-2.47-4-3.94-4.54-5.21a8,8,0,0,1,1.3-5.46c1.13-1.91,2.35-3.55,2.8-4.54S274.66,315,275.42,315.15Z" style="fill:#84B8C6"></path><path d="M275.42,315.15c-.12.34-.26.67-.42,1,0,0-1,2.33.38,3.45,1.58,1.33,2-.05,3.75-.64,3.91-1.26,7.51.3,7.63,2.66.16,3.13,2.41,9.66,3.37,11.59a35,35,0,0,0,2.65,4.57c1.08,1.58,3.93,4.79,2.72,7s-3.83,2.61-6.93,2A18.46,18.46,0,0,1,278,340.23c-2-2.75-3.11-7-3.74-8.37-1.16-2.47-4-3.94-4.54-5.21a8,8,0,0,1,1.3-5.46c1.13-1.91,2.35-3.55,2.8-4.54S274.66,315,275.42,315.15Z" style="opacity:0.4"></path><path d="M288.34,336a8.59,8.59,0,0,1,4,1.2,2.31,2.31,0,0,1,.9.82c1.07,1.58,3.63,4.6,2.42,6.77s-3.81,2.79-6.91,2.18c-2.86-.55-7.57-2.34-10.07-5.82C280.17,338,283.91,335.72,288.34,336Z" style="fill:#f0f0f0"></path><path d="M353.61,387.07a1.28,1.28,0,0,1-1.17-.77l-7.77-17.9-.06-.18L330.33,314.6a1.27,1.27,0,0,1,2.46-.66L347,367.47l7.73,17.82a1.28,1.28,0,0,1-1.16,1.78Z" style="fill:#84B8C6"></path><path d="M353.61,387.07a1.28,1.28,0,0,1-1.17-.77l-7.77-17.9-.06-.18L330.33,314.6a1.27,1.27,0,0,1,2.46-.66L347,367.47l7.73,17.82a1.28,1.28,0,0,1-1.16,1.78Z" style="opacity:0.15"></path><path d="M359.66,339.82l-2.34-1.35c-5.75-3.33-11.19-4.93-16-5h-.42a20.65,20.65,0,0,0-2.51.14,27.45,27.45,0,0,0-18.77,10.48c-.09.11-.18.21-.26.32a6.14,6.14,0,0,0-.45.59c-.1.14-.2.27-.29.41s-.24.34-.35.51c-.21.33-.42.66-.62,1-.06.12-.13.25-.21.38l-.27.5,0,.06A27.48,27.48,0,0,0,313.8,361v1.09c0,.5,0,1,0,1.54v2.7c0,23.39,16.41,51.82,36.67,63.51l2.33,1.35c5.76,3.32,11.19,4.93,16,5h.33c.32,0,.64,0,1,0h.31q.4,0,.81-.06l.41-.05.21,0A27.48,27.48,0,0,0,391,424.88c.2-.26.38-.52.56-.79l.07-.1c.21-.31.42-.62.61-.95a27.41,27.41,0,0,0,4.06-14.38v-5.33C396.33,379.94,379.92,351.51,359.66,339.82Zm-8.05,82.73c-17.09-9.87-30.95-33.88-30.95-53.62s13.86-27.75,30.95-17.87,31,33.88,31,53.62S368.71,432.43,351.61,422.55Z" style="fill:#455a64"></path><path d="M352.78,343.79l-2.33-1.35c-10-5.79-19.1-6.39-25.72-2.69l-.51.31-.13.07-.59.38-.58.41a11.46,11.46,0,0,0-1.1.88c-.18.15-.36.31-.53.48a14,14,0,0,0-1,1c-.17.18-.33.36-.48.55s-.31.37-.46.57a6.14,6.14,0,0,0-.45.59c-.1.14-.2.27-.29.41s-.24.34-.35.51c-.21.33-.42.66-.62,1-.06.12-.13.25-.21.38l-.27.5-.25.51a19.76,19.76,0,0,0-.85,1.93c-.14.36-.28.71-.4,1.08a.06.06,0,0,0,0,0c-.23.66-.44,1.35-.62,2.05-.1.38-.2.76-.29,1.16s-.2.9-.28,1.35c0,.22-.08.44-.11.66-.07.37-.12.75-.17,1.13s-.11.85-.15,1.29l0,.21c0,.37-.07.75-.09,1.13l0,.45c0,.42-.05.84-.06,1.27s0,1,0,1.54v2.7c0,23.39,16.41,51.82,36.67,63.51l2.33,1.35c5.89,3.4,11.44,5,16.37,5,.32,0,.64,0,1,0h.31q.4,0,.81-.06l.41-.05a7,7,0,0,0,.8-.11c.24,0,.48-.07.71-.12a7,7,0,0,0,.69-.15c.44-.1.87-.22,1.28-.35l.54-.17.58-.21c.17-.07.33-.13.49-.21a8.9,8.9,0,0,0,1-.47l.51-.26.14-.08a.93.93,0,0,0,.19-.11c.11-.05.21-.12.32-.18,6.52-3.88,10.53-12,10.53-23.61v-2.7C389.45,383.91,373,355.48,352.78,343.79Zm-1.17,78.76c-17.09-9.87-30.95-33.88-30.95-53.62s13.86-27.75,30.95-17.87,31,33.88,31,53.62S368.71,432.43,351.61,422.55Z" style="fill:#37474f"></path><path d="M374.64,417.49c-4.89,5.83-13.38,6.66-23,1.09-15.2-8.77-27.52-30.11-27.52-47.66,0-7.85,2.47-13.6,6.55-16.8-2.85,3.36-4.5,8.39-4.5,14.81,0,17.55,12.32,38.89,27.52,47.67C362.06,421.45,369.59,421.44,374.64,417.49Z" style="fill:#84B8C6"></path><path d="M374.64,417.49c-4.89,5.83-13.38,6.66-23,1.09-15.2-8.77-27.52-30.11-27.52-47.66,0-7.85,2.47-13.6,6.55-16.8-2.85,3.36-4.5,8.39-4.5,14.81,0,17.55,12.32,38.89,27.52,47.67C362.06,421.45,369.59,421.44,374.64,417.49Z" style="opacity:0.4"></path><path d="M351.61,351.06c-17.09-9.87-31-1.87-31,17.87s13.87,43.75,31,53.62,31,1.87,31-17.87S368.71,360.93,351.61,351.06Zm0,67.52c-15.19-8.77-27.51-30.11-27.51-47.66s12.32-24.66,27.51-15.89,27.52,30.11,27.52,47.66S366.81,427.35,351.61,418.58Z" style="fill:#84B8C6"></path><path d="M351.61,351.06c-17.09-9.87-31-1.87-31,17.87s13.87,43.75,31,53.62,31,1.87,31-17.87S368.71,360.93,351.61,351.06Zm0,67.52c-15.19-8.77-27.51-30.11-27.51-47.66s12.32-24.66,27.51-15.89,27.52,30.11,27.52,47.66S366.81,427.35,351.61,418.58Z" style="opacity:0.15"></path><path d="M378.2,394c-.06-.31-.13-.62-.2-.93l-24-6.42,21.42-1.91-.32-.83-21.64,1.94,17.62-10.18-.43-.72-17.62,10.16,12.43-17.68-.55-.69-12.3,17.5L359,360.46l-.71-.63L352,383.18V355.29c-.14-.09-.28-.18-.43-.26l-.42-.23v27.42L345,352.15c-.31-.09-.61-.17-.92-.24l6.07,29.65L338.45,351.3c-.3,0-.59,0-.88.07l11.66,30.05-16.52-28.61c-.25.13-.5.26-.74.41l16.52,28.62L328.2,356.59c-.18.23-.35.47-.52.72l20.46,25.44-22.89-20.29c-.09.29-.17.59-.25.9l23.21,20.58L324.12,370c0,.3,0,.59,0,.89V371l24.52,14.16-23.76-6.37.18.93,24.16,6.47-21.73,1.94c.11.27.22.55.32.82l21.95-2-18,10.37c.13.25.27.5.41.74l18-10.38-12.74,18.12c.18.24.37.46.55.69l12.61-17.93L344.05,413l.71.64,6.43-24v28.7l.42.26.43.23V390.58l6.33,30.93c.3.09.61.16.91.24L353,391.23l12,31.06.88-.08-12-30.83,16.88,29.23.72-.44L354.73,391l20.61,25.64c.17-.24.34-.47.5-.73l-20.75-25.81,23.07,20.45c.08-.3.16-.61.23-.92L355,388.85l24.11,13.92v-.08c0-.3,0-.6,0-.9l-24.5-14.15Z" style="fill:#ebebeb"></path><path d="M353.21,374c-2.93-1.69-5.57-1.8-7.45-.62-.38.25-.86.46-1.36.76a3.34,3.34,0,0,0-.4.25l-.07.05,0,0a5.17,5.17,0,0,0-.51.42l-.1.1a4.38,4.38,0,0,0-.41.45l-.14.19a5.52,5.52,0,0,0-.32.47l-.15.28-.24.48-.15.38c-.06.16-.11.31-.16.47s-.09.34-.13.51-.08.29-.11.45-.07.44-.1.67,0,.25-.05.38c0,.37,0,.75,0,1.15,0,6.58,4.63,14.58,10.32,17.87.36.21.71.39,1.06.55s.41.17.61.25l.42.16.42.12c.2.06.4.12.59.16l.22,0c.25,0,.5.09.74.11h.05a5.48,5.48,0,0,0,3.37-.79c.5-.29.94-.51,1.51-.85,1.81-1.09,2.93-3.38,2.93-6.6C363.53,385.29,358.91,377.28,353.21,374Zm-2.95,19.83c-1.77-1.38-4.25-5.55-5.23-7.88a20.14,20.14,0,0,0,1.81,1.1c2.68,1.39,2.62-.49,3.71.81s.88,4.51,0,6.16A1.35,1.35,0,0,1,350.26,393.82Zm5.23-12.23a3.62,3.62,0,0,0-.44.2l-1.58.9a2.05,2.05,0,0,0-.79.79c-1.33-1.35-2.87-5.68-2.75-7.71,2.31.79,6.15,4,6.75,5.24a2.85,2.85,0,0,1,.11.3A6.46,6.46,0,0,0,355.49,381.59Zm-7.83-1.36c.87,3.12,2.17,3.6,2.26,4.61-2-.32-5.33-2.3-5.55-4.25a7.82,7.82,0,0,1,1.78-5.24C347,375.73,347,377.68,347.66,380.23Zm5.83,16.36c-1.07-1,.12-1.94.67-4a5.48,5.48,0,0,0,0-3c2.11,1.67,5.28,6,4.46,7.35l-.1.12C356.72,397.6,354.25,397.29,353.49,396.59Zm5-6.78c-2.24-3-3.13-2-3.67-3.57a2,2,0,0,1,.73-2.15,2.66,2.66,0,0,1,3.25,1.09,19.63,19.63,0,0,1,1.75,7.7C360.06,392.08,359.39,390.94,358.53,389.81Z" style="fill:#e0e0e0"></path><path d="M353.21,374c-2.93-1.69-5.57-1.8-7.45-.62-.38.25-.86.46-1.36.76a3.34,3.34,0,0,0-.4.25l-.07.05,0,0a5.17,5.17,0,0,0-.51.42l-.1.1a4.38,4.38,0,0,0-.41.45l-.14.19a5.52,5.52,0,0,0-.32.47l-.15.28-.24.48-.15.38c-.06.16-.11.31-.16.47s-.09.34-.13.51-.08.29-.11.45-.07.44-.1.67,0,.25-.05.38c0,.37,0,.75,0,1.15,0,6.58,4.63,14.58,10.32,17.87.36.21.71.39,1.06.55s.41.17.61.25l.42.16.42.12c.2.06.4.12.59.16l.22,0c.25,0,.5.09.74.11h.05a5.48,5.48,0,0,0,3.37-.79c.5-.29.94-.51,1.51-.85,1.81-1.09,2.93-3.38,2.93-6.6C363.53,385.29,358.91,377.28,353.21,374Zm-2.95,19.83c-1.77-1.38-4.25-5.55-5.23-7.88a20.14,20.14,0,0,0,1.81,1.1c2.68,1.39,2.62-.49,3.71.81s.88,4.51,0,6.16A1.35,1.35,0,0,1,350.26,393.82Zm5.23-12.23a3.62,3.62,0,0,0-.44.2l-1.58.9a2.05,2.05,0,0,0-.79.79c-1.33-1.35-2.87-5.68-2.75-7.71,2.31.79,6.15,4,6.75,5.24a2.85,2.85,0,0,1,.11.3A6.46,6.46,0,0,0,355.49,381.59Zm-7.83-1.36c.87,3.12,2.17,3.6,2.26,4.61-2-.32-5.33-2.3-5.55-4.25a7.82,7.82,0,0,1,1.78-5.24C347,375.73,347,377.68,347.66,380.23Zm5.83,16.36c-1.07-1,.12-1.94.67-4a5.48,5.48,0,0,0,0-3c2.11,1.67,5.28,6,4.46,7.35l-.1.12C356.72,397.6,354.25,397.29,353.49,396.59Zm5-6.78c-2.24-3-3.13-2-3.67-3.57a2,2,0,0,1,.73-2.15,2.66,2.66,0,0,1,3.25,1.09,19.63,19.63,0,0,1,1.75,7.7C360.06,392.08,359.39,390.94,358.53,389.81Z" style="opacity:0.2"></path><path d="M351.61,374.89c-5.69-3.29-10.32-.62-10.32,6s4.63,14.58,10.32,17.87,10.32.62,10.32-6S357.31,378.18,351.61,374.89Zm-2.55.7c2,0,6.94,4,7.62,5.42s-1.12.9-2.76,1.48c-2.09.74-1.1,2.76-2.33,2.25C349.79,384,347,375.56,349.06,375.59Zm-3.08-.31c1,.17.93,2.23,1.68,5,1,3.45,2.46,3.67,2.24,4.95-.31,1.89-6.8-.93-7.12-3.71S344.93,375.09,346,375.28Zm2.7,19.43c-2.23-1.74-5.62-7.95-5.64-9.26s1.69.5,3.8,1.59c2.68,1.39,2.62-.49,3.71.81C352.16,389.76,350.91,396.45,348.68,394.71Zm9.92,2.3c-1.07,1.69-5.61,1.46-6.69.48s.13-1.94.68-4c.69-2.58-.84-4,.05-4.46C353.94,388.35,359.67,395.31,358.6,397ZM357,390.7c-2.25-3-3.14-2-3.68-3.57-.8-2.34,4-4.73,5.56-1.95s2.14,8.87,1.51,9.56S358.73,393.05,357,390.7Z" style="fill:#e0e0e0"></path><path d="M351.61,390.45c1.75,1,3.16.19,3.16-1.82a7,7,0,0,0-3.16-5.47c-1.74-1-3.15-.19-3.15,1.82A7,7,0,0,0,351.61,390.45Z" style="fill:#455a64"></path><path d="M225.53,262.38,223.19,261c-5.75-3.33-11.19-4.93-16-5h-.42a20.49,20.49,0,0,0-2.5.14,27.49,27.49,0,0,0-18.78,10.48c-.08.11-.17.21-.26.32s-.31.39-.45.59l-.28.41c-.13.17-.24.34-.35.51-.21.33-.42.66-.62,1-.07.12-.13.25-.21.38l-.27.5,0,.06a27.48,27.48,0,0,0-3.31,13.11v1.09c0,.5,0,1,0,1.54v2.7c0,23.39,16.41,51.82,36.66,63.51l2.34,1.35c5.76,3.32,11.19,4.93,16,5H235c.32,0,.64,0,.95,0h.3c.27,0,.55,0,.82-.06l.4-.05.22,0a27.51,27.51,0,0,0,19.19-11.13c.19-.26.38-.52.56-.79l.07-.1c.21-.31.41-.62.61-.95a27.4,27.4,0,0,0,4.05-14.38v-5.33C262.19,302.5,245.78,274.07,225.53,262.38Zm-8.05,82.73c-17.09-9.87-31-33.88-31-53.62s13.87-27.75,31-17.87,31,33.88,31,53.62S234.58,355,217.48,345.11Z" style="fill:#455a64"></path><path d="M218.65,266.35,216.31,265c-10-5.79-19.09-6.39-25.71-2.69l-.51.31-.13.07-.59.38c-.2.13-.39.27-.58.41a13,13,0,0,0-1.11.88l-.52.48a12.27,12.27,0,0,0-1,1c-.17.18-.33.36-.48.55l-.47.57c-.16.19-.31.39-.45.59l-.28.41c-.13.17-.24.34-.35.51-.21.33-.42.66-.62,1-.07.12-.13.25-.21.38l-.27.5-.26.51c-.3.62-.59,1.26-.84,1.93-.15.36-.28.71-.4,1.08,0,0,0,0,0,0-.23.66-.43,1.35-.62,2.05-.1.38-.19.76-.28,1.16s-.2.9-.28,1.35c0,.22-.08.44-.11.66-.07.37-.12.75-.17,1.13s-.11.85-.15,1.29l0,.21c0,.37-.07.75-.09,1.13l0,.45c0,.42,0,.84-.06,1.27s0,1,0,1.54v2.7c0,23.39,16.41,51.82,36.66,63.51l2.34,1.35c5.89,3.4,11.44,5,16.37,5,.32,0,.64,0,.95,0h.3c.27,0,.55,0,.82-.06l.4-.05a7.5,7.5,0,0,0,.81-.11c.24,0,.48-.07.71-.12a6.78,6.78,0,0,0,.68-.15c.44-.1.88-.22,1.29-.35l.54-.17.58-.21c.17-.07.33-.13.49-.21a9.72,9.72,0,0,0,1-.47l.51-.26.14-.08a1.3,1.3,0,0,0,.19-.11c.11-.05.21-.12.32-.18,6.51-3.88,10.53-12,10.53-23.61v-2.7C255.32,306.47,238.9,278,218.65,266.35Zm-1.17,78.76c-17.09-9.87-31-33.88-31-53.62s13.87-27.75,31-17.87,31,33.88,31,53.62S234.58,355,217.48,345.11Z" style="fill:#37474f"></path><path d="M240.51,340.05c-4.9,5.83-13.38,6.66-23,1.09C202.28,332.37,190,311,190,293.48c0-7.85,2.47-13.6,6.55-16.8-2.85,3.36-4.5,8.39-4.5,14.81,0,17.55,12.32,38.89,27.52,47.67C227.93,344,235.46,344,240.51,340.05Z" style="fill:#84B8C6"></path><path d="M240.51,340.05c-4.9,5.83-13.38,6.66-23,1.09C202.28,332.37,190,311,190,293.48c0-7.85,2.47-13.6,6.55-16.8-2.85,3.36-4.5,8.39-4.5,14.81,0,17.55,12.32,38.89,27.52,47.67C227.93,344,235.46,344,240.51,340.05Z" style="opacity:0.4"></path><path d="M217.48,273.62c-17.1-9.87-31-1.87-31,17.87s13.86,43.75,31,53.62,31,1.87,31-17.87S234.58,283.49,217.48,273.62Zm0,67.52C202.28,332.37,190,311,190,293.48s12.32-24.66,27.52-15.89S245,307.7,245,325.25,232.68,349.91,217.48,341.14Z" style="fill:#84B8C6"></path><path d="M217.48,273.62c-17.1-9.87-31-1.87-31,17.87s13.86,43.75,31,53.62,31,1.87,31-17.87S234.58,283.49,217.48,273.62Zm0,67.52C202.28,332.37,190,311,190,293.48s12.32-24.66,27.52-15.89S245,307.7,245,325.25,232.68,349.91,217.48,341.14Z" style="opacity:0.15"></path><path d="M244.07,316.52c-.06-.31-.13-.62-.2-.93l-24-6.42,21.42-1.91-.32-.83-21.65,1.94L237,298.19c-.14-.24-.28-.48-.43-.72l-17.61,10.16L231.36,290l-.55-.69-12.3,17.5L224.87,283l-.71-.63-6.26,23.35V277.85l-.42-.26-.42-.23v27.42l-6.15-30.07-.92-.24,6.07,29.65-11.74-30.26c-.3,0-.59,0-.88.07L215.1,304l-16.52-28.61c-.25.13-.5.26-.74.41l16.52,28.62-20.29-25.25c-.18.23-.35.47-.52.72L214,305.31,191.12,285c-.09.29-.18.59-.26.9l23.21,20.58L190,292.59c0,.3,0,.59,0,.89a.22.22,0,0,0,0,.08l24.51,14.16-23.75-6.37q.08.47.18.93l24.15,6.47-21.72,1.94c.1.27.21.55.32.82l22-2-18,10.37.42.74,18-10.38L203.29,328.4l.56.69,12.6-17.93-6.53,24.39.7.64,6.44-24v28.7l.42.26.42.23V313.14l6.33,30.93.92.24-6.25-30.52,12,31.06.88-.08-12-30.83,16.87,29.23c.25-.14.49-.28.73-.44L220.6,313.51l20.61,25.64c.17-.24.34-.47.5-.72L221,312.61,244,333.06c.08-.3.16-.61.23-.92l-23.37-20.73L245,325.33v-.08c0-.3,0-.6,0-.9l-24.5-14.15Z" style="fill:#ebebeb"></path><path d="M219.07,296.55c-2.93-1.69-5.56-1.8-7.44-.62-.39.25-.86.46-1.36.76a3.34,3.34,0,0,0-.4.25l-.07.05,0,0a5.17,5.17,0,0,0-.51.42l-.11.1a5.82,5.82,0,0,0-.4.45l-.14.19a5.52,5.52,0,0,0-.32.47l-.15.28a3.58,3.58,0,0,0-.24.48l-.15.38c-.06.16-.12.31-.17.47s-.09.34-.13.51-.07.29-.1.45-.07.44-.1.67,0,.25,0,.38c0,.37-.05.75-.05,1.15,0,6.58,4.62,14.58,10.32,17.87.36.21.71.39,1.06.55s.41.17.61.25.28.12.42.16l.42.12c.19.06.39.12.58.16l.23,0c.25,0,.5.09.74.11h.05a5.48,5.48,0,0,0,3.37-.79c.5-.29.94-.51,1.51-.85,1.81-1.09,2.93-3.38,2.93-6.6C229.4,307.85,224.77,299.84,219.07,296.55Zm-2.94,19.83c-1.77-1.38-4.25-5.55-5.23-7.88a18.83,18.83,0,0,0,1.81,1.1c2.68,1.39,2.61-.49,3.71.81s.88,4.51,0,6.16A1.53,1.53,0,0,1,216.13,316.38Zm5.23-12.23a3.62,3.62,0,0,0-.44.2l-1.58.9a2,2,0,0,0-.79.79c-1.33-1.35-2.87-5.68-2.75-7.71,2.31.79,6.15,4,6.75,5.24a2.85,2.85,0,0,1,.11.3A6.46,6.46,0,0,0,221.36,304.15Zm-7.83-1.36c.86,3.12,2.17,3.6,2.25,4.61-2-.32-5.32-2.3-5.55-4.25a7.83,7.83,0,0,1,1.79-5.24C212.88,298.29,212.82,300.24,213.53,302.79Zm5.83,16.36c-1.07-1,.12-1.94.67-4a5.56,5.56,0,0,0,0-3c2.11,1.67,5.29,6,4.47,7.35l-.11.12C222.59,320.16,220.11,319.85,219.36,319.15Zm5-6.78c-2.24-3-3.13-2-3.67-3.57a2.06,2.06,0,0,1,.72-2.15,2.66,2.66,0,0,1,3.26,1.09,19.63,19.63,0,0,1,1.75,7.7C225.92,314.64,225.26,313.5,224.4,312.37Z" style="fill:#e0e0e0"></path><path d="M219.07,296.55c-2.93-1.69-5.56-1.8-7.44-.62-.39.25-.86.46-1.36.76a3.34,3.34,0,0,0-.4.25l-.07.05,0,0a5.17,5.17,0,0,0-.51.42l-.11.1a5.82,5.82,0,0,0-.4.45l-.14.19a5.52,5.52,0,0,0-.32.47l-.15.28a3.58,3.58,0,0,0-.24.48l-.15.38c-.06.16-.12.31-.17.47s-.09.34-.13.51-.07.29-.1.45-.07.44-.1.67,0,.25,0,.38c0,.37-.05.75-.05,1.15,0,6.58,4.62,14.58,10.32,17.87.36.21.71.39,1.06.55s.41.17.61.25.28.12.42.16l.42.12c.19.06.39.12.58.16l.23,0c.25,0,.5.09.74.11h.05a5.48,5.48,0,0,0,3.37-.79c.5-.29.94-.51,1.51-.85,1.81-1.09,2.93-3.38,2.93-6.6C229.4,307.85,224.77,299.84,219.07,296.55Zm-2.94,19.83c-1.77-1.38-4.25-5.55-5.23-7.88a18.83,18.83,0,0,0,1.81,1.1c2.68,1.39,2.61-.49,3.71.81s.88,4.51,0,6.16A1.53,1.53,0,0,1,216.13,316.38Zm5.23-12.23a3.62,3.62,0,0,0-.44.2l-1.58.9a2,2,0,0,0-.79.79c-1.33-1.35-2.87-5.68-2.75-7.71,2.31.79,6.15,4,6.75,5.24a2.85,2.85,0,0,1,.11.3A6.46,6.46,0,0,0,221.36,304.15Zm-7.83-1.36c.86,3.12,2.17,3.6,2.25,4.61-2-.32-5.32-2.3-5.55-4.25a7.83,7.83,0,0,1,1.79-5.24C212.88,298.29,212.82,300.24,213.53,302.79Zm5.83,16.36c-1.07-1,.12-1.94.67-4a5.56,5.56,0,0,0,0-3c2.11,1.67,5.29,6,4.47,7.35l-.11.12C222.59,320.16,220.11,319.85,219.36,319.15Zm5-6.78c-2.24-3-3.13-2-3.67-3.57a2.06,2.06,0,0,1,.72-2.15,2.66,2.66,0,0,1,3.26,1.09,19.63,19.63,0,0,1,1.75,7.7C225.92,314.64,225.26,313.5,224.4,312.37Z" style="opacity:0.2"></path><path d="M217.48,297.45c-5.7-3.29-10.32-.62-10.32,6s4.62,14.58,10.32,17.87,10.32.62,10.32-6S223.18,300.74,217.48,297.45Zm-2.55.7c2,0,6.94,4,7.62,5.42s-1.12.9-2.76,1.48c-2.1.74-1.11,2.76-2.33,2.25C215.66,306.56,212.89,298.12,214.93,298.15Zm-3.08-.31c1.05.17.92,2.23,1.68,5,.95,3.45,2.45,3.67,2.24,4.95-.31,1.89-6.81-.93-7.12-3.71S210.8,297.65,211.85,297.84Zm2.69,19.43c-2.22-1.74-5.61-7.95-5.64-9.26s1.7.5,3.81,1.59c2.68,1.39,2.61-.49,3.71.81C218,312.32,216.78,319,214.54,317.27Zm9.93,2.3c-1.07,1.69-5.62,1.46-6.69.48s.13-1.94.68-4c.69-2.58-.84-4,0-4.46C219.8,310.91,225.54,317.87,224.47,319.57Zm-1.64-6.31c-2.25-3-3.14-2-3.68-3.57-.8-2.34,4-4.73,5.56-1.95s2.14,8.87,1.5,9.56S224.6,315.61,222.83,313.26Z" style="fill:#e0e0e0"></path><path d="M217.48,313c1.74,1,3.16.19,3.16-1.82a7,7,0,0,0-3.16-5.47c-1.74-1-3.16-.19-3.16,1.82A7,7,0,0,0,217.48,313Z" style="fill:#455a64"></path><path d="M332.58,313.51a1.27,1.27,0,0,0-1.78-.26l-3.25,2.43-.58-2.36-53.91,40.52s-1,.56-1.1.62l-53.67-46.07a1.27,1.27,0,0,0-1.66,1.93l55.64,47.75a3.45,3.45,0,0,0,.44.3,2.21,2.21,0,0,0,1.12.32,2.5,2.5,0,0,0,1.51-.58h0l52.86-39.74,4.12-3.09A1.26,1.26,0,0,0,332.58,313.51Z" style="fill:#84B8C6"></path><path d="M282.74,329.21a70.13,70.13,0,0,1-15.44-1.78l-.13,0-50.11-16.84a1.28,1.28,0,0,1-.87-1.25,1.26,1.26,0,0,1,.94-1.18l44.72-11.92c.68-.18,1.46,4.06.79,4.24l-35.79,9.35,41,13.74c15.27,3.44,29.61,2.06,39.86-4.58,8.87-5.74,14.63-14.94,17.13-27.34.14-.69,1.18-.15,1.87,0a1.27,1.27,0,0,1,1,1.5c-2.64,13.1-8.78,22.85-18.24,29C302.2,326.78,292.9,329.21,282.74,329.21Z" style="fill:#84B8C6"></path><path d="M273.34,358.54a1.25,1.25,0,0,1-1.24-1L251.36,249.58a1.27,1.27,0,0,1,1-1.49c.69-.13,2.82-.09,2.95.6l20.73,107.93c.13.69-1.78,1.77-2.47,1.9Z" style="fill:#84B8C6"></path><path d="M304.4,335.9a1.27,1.27,0,0,1-1.19-.83l-3.63-9.82a1.26,1.26,0,0,1,.75-1.63c.66-.25,2.49-.74,2.73-.08l3.63,9.82c.25.65-1.19,2.21-1.85,2.46A1.36,1.36,0,0,1,304.4,335.9Z" style="fill:#84B8C6"></path><path d="M351.62,388.32a1.28,1.28,0,0,1-1-.43l-12.44-14.15a1.2,1.2,0,0,1-.27-.51l-14.28-53.62a1.27,1.27,0,1,1,2.45-.65l14.2,53.33,12.25,13.92a1.28,1.28,0,0,1-.95,2.11Z" style="fill:#84B8C6"></path><path d="M326.23,317.06l-3-40.25c-.07-.94,3.31-1.18,3.37-.25l3,40.25C329.68,317.74,326.3,318,326.23,317.06Z" style="fill:#84B8C6"></path><path d="M325.61,308.62s.14,2.91.07,4.56-3,3.82-2.06,6.81,2.18,7.63,2.18,7.63a1.8,1.8,0,0,0,2.37-1L326.94,322a3.47,3.47,0,0,1,1.27-3.66l.5-.38a1.78,1.78,0,0,1,2.79,1l1.33,5a1.85,1.85,0,0,0,2.25-1.4s-1.66-6.6-2.4-9c-.58-1.91-3.42-1.13-3.58-3.62l-.21-2.82C329,308.36,326.3,309.69,325.61,308.62Z" style="fill:#37474f"></path><path d="M326.64,276.56c-.06-.93-3.44-.69-3.37.25l.87,11.87a8.3,8.3,0,0,0,3.51,1.5Z" style="opacity:0.15"></path><path d="M275.19,344.28c-2.93-1.7-5.57-1.8-7.45-.62-.38.25-.86.46-1.36.76a3.34,3.34,0,0,0-.4.25l-.07.05,0,0a4.06,4.06,0,0,0-.51.42l-.1.1a4.38,4.38,0,0,0-.41.45l-.14.19a5.52,5.52,0,0,0-.32.47l-.15.28-.24.47-.15.39c-.06.16-.11.31-.16.47s-.09.34-.13.51-.08.29-.11.45-.07.44-.1.67,0,.25-.05.38c0,.37-.05.75-.05,1.15,0,6.58,4.63,14.58,10.32,17.87.36.21.71.39,1.06.55s.41.17.61.25l.42.16.42.12c.2.06.4.12.59.16l.22,0c.25,0,.5.08.74.1h.05a5.41,5.41,0,0,0,3.37-.78c.5-.3.94-.51,1.51-.85,1.81-1.09,2.93-3.38,2.93-6.61C285.51,355.57,280.89,347.57,275.19,344.28Zm-2.95,19.83c-1.77-1.38-4.25-5.56-5.23-7.89a20.15,20.15,0,0,0,1.81,1.11c2.68,1.39,2.62-.49,3.71.81s.88,4.51,0,6.16A1.79,1.79,0,0,1,272.24,364.11Zm5.23-12.23a3.62,3.62,0,0,0-.44.2l-1.58.9a2,2,0,0,0-.79.79c-1.33-1.35-2.87-5.68-2.75-7.71,2.31.79,6.15,4,6.75,5.24a2.75,2.75,0,0,1,.11.29A7.28,7.28,0,0,0,277.47,351.88Zm-7.83-1.36c.87,3.12,2.17,3.6,2.26,4.61-2-.32-5.33-2.3-5.55-4.26a7.81,7.81,0,0,1,1.78-5.23C269,346,268.93,348,269.64,350.52Zm5.83,16.36c-1.07-1,.12-1.94.67-4a5.48,5.48,0,0,0,0-3c2.11,1.66,5.28,6.05,4.46,7.34a1.47,1.47,0,0,1-.1.13C278.7,367.89,276.23,367.58,275.47,366.88Zm5-6.78c-2.24-3-3.13-2-3.67-3.57a2,2,0,0,1,.73-2.15,2.66,2.66,0,0,1,3.25,1.09,19.59,19.59,0,0,1,1.75,7.7C282,362.37,281.37,361.23,280.51,360.1Z" style="fill:#e0e0e0"></path><path d="M275.19,344.28c-2.93-1.7-5.57-1.8-7.45-.62-.38.25-.86.46-1.36.76a3.34,3.34,0,0,0-.4.25l-.07.05,0,0a4.06,4.06,0,0,0-.51.42l-.1.1a4.38,4.38,0,0,0-.41.45l-.14.19a5.52,5.52,0,0,0-.32.47l-.15.28-.24.47-.15.39c-.06.16-.11.31-.16.47s-.09.34-.13.51-.08.29-.11.45-.07.44-.1.67,0,.25-.05.38c0,.37-.05.75-.05,1.15,0,6.58,4.63,14.58,10.32,17.87.36.21.71.39,1.06.55s.41.17.61.25l.42.16.42.12c.2.06.4.12.59.16l.22,0c.25,0,.5.08.74.1h.05a5.41,5.41,0,0,0,3.37-.78c.5-.3.94-.51,1.51-.85,1.81-1.09,2.93-3.38,2.93-6.61C285.51,355.57,280.89,347.57,275.19,344.28Zm-2.95,19.83c-1.77-1.38-4.25-5.56-5.23-7.89a20.15,20.15,0,0,0,1.81,1.11c2.68,1.39,2.62-.49,3.71.81s.88,4.51,0,6.16A1.79,1.79,0,0,1,272.24,364.11Zm5.23-12.23a3.62,3.62,0,0,0-.44.2l-1.58.9a2,2,0,0,0-.79.79c-1.33-1.35-2.87-5.68-2.75-7.71,2.31.79,6.15,4,6.75,5.24a2.75,2.75,0,0,1,.11.29A7.28,7.28,0,0,0,277.47,351.88Zm-7.83-1.36c.87,3.12,2.17,3.6,2.26,4.61-2-.32-5.33-2.3-5.55-4.26a7.81,7.81,0,0,1,1.78-5.23C269,346,268.93,348,269.64,350.52Zm5.83,16.36c-1.07-1,.12-1.94.67-4a5.48,5.48,0,0,0,0-3c2.11,1.66,5.28,6.05,4.46,7.34a1.47,1.47,0,0,1-.1.13C278.7,367.89,276.23,367.58,275.47,366.88Zm5-6.78c-2.24-3-3.13-2-3.67-3.57a2,2,0,0,1,.73-2.15,2.66,2.66,0,0,1,3.25,1.09,19.59,19.59,0,0,1,1.75,7.7C282,362.37,281.37,361.23,280.51,360.1Z" style="opacity:0.2"></path><path d="M273.59,345.18c-5.69-3.29-10.32-.62-10.32,6s4.63,14.58,10.32,17.87,10.32.62,10.32-6S279.29,348.47,273.59,345.18Zm-2.55.7c2,0,6.94,4,7.62,5.42s-1.12.9-2.76,1.48c-2.09.74-1.1,2.76-2.33,2.25C271.77,354.29,269,345.84,271,345.88Zm-3.08-.32c1.05.18.93,2.24,1.68,5,1,3.44,2.46,3.67,2.24,5-.31,1.89-6.8-.93-7.12-3.71S266.91,345.38,268,345.56Zm2.7,19.44c-2.23-1.74-5.62-7.95-5.64-9.26s1.69.49,3.8,1.59c2.68,1.39,2.62-.49,3.71.81C274.14,360.05,272.89,366.74,270.66,365Zm9.92,2.29c-1.07,1.7-5.61,1.47-6.69.49s.13-1.94.68-4c.69-2.59-.84-4,.05-4.46C275.92,358.64,281.65,365.6,280.58,367.29ZM278.94,361c-2.25-3-3.13-2-3.68-3.56-.8-2.34,4-4.73,5.56-1.95s2.14,8.87,1.51,9.56S280.71,363.34,278.94,361Z" style="fill:#e0e0e0"></path><path d="M273.59,360.74c1.75,1,3.16.19,3.16-1.82a7,7,0,0,0-3.16-5.47c-1.74-1-3.15-.19-3.15,1.82A7,7,0,0,0,273.59,360.74Z" style="fill:#455a64"></path><path d="M263.17,373.75a.85.85,0,0,1-.38-.09.84.84,0,0,1-.38-1.13l7-14.13,3.66-2.12a.85.85,0,1,1,.85,1.47l-3.22,1.86-6.75,13.67A.85.85,0,0,1,263.17,373.75Z" style="fill:#263238"></path><path d="M269.35,376.32l-8.75-5.06a1.57,1.57,0,0,0-1.57,0l-12.19,7a1.58,1.58,0,0,0-.78,1.36v.78a1.58,1.58,0,0,0,.78,1.36l8.77,5.06a1.57,1.57,0,0,0,1.57,0l12.17-7.05a1.55,1.55,0,0,0,.79-1.35v-.79A1.55,1.55,0,0,0,269.35,376.32Z" style="fill:#37474f"></path><path d="M255.67,384.3a1.45,1.45,0,0,0,1.45,0l12.81-7.41a1.59,1.59,0,0,0-.58-.57l-2.44-1.42-6.31-3.64a1.57,1.57,0,0,0-1.57,0l-1.47.86-10.72,6.18a1.56,1.56,0,0,0-.57.57Z" style="fill:#455a64"></path><path d="M289.7,269c-2.56-4.16-8.57-10.23-8.57-10.23s-15.51-20.87-32.71-10.94a11.44,11.44,0,0,0-6,8.47,14.62,14.62,0,0,0-.13,3.73,9.07,9.07,0,0,0,2.13,5.23c2.27,3.13,8.67,5.7,16.34,7.64l1.66.4c2.73.63,5.5,1.16,8.25,1.72s5.46,1.11,8.15,1.83c1.1.29,2.2.61,3.27,1,.44.16.88.34,1.3.54a4.4,4.4,0,0,0,1.66.72,7.14,7.14,0,0,0,2.24-.4,3.76,3.76,0,0,0,.85-.49,6.28,6.28,0,0,0,2.1-3A7.35,7.35,0,0,0,289.7,269Z" style="fill:#9a4a4d"></path><path d="M248.42,247.79c-5.21,3-8.07,8.55-4,14.2,2.27,3.13,8.67,5.7,16.34,7.64s20.79,3.69,24,6.34,7.88-2.11,4.88-7c-2.56-4.16-8.57-10.23-8.57-10.23S265.62,237.86,248.42,247.79Z" style="fill:#b16668"></path><path d="M264.65,300.12s-4-15-6.18-23c-3.26-11.73-5.86-24.69-2.82-34.56,3-9.66,6.82-13.69,13.51-19.62.78-.78,1.28-1.24,1.28-1.24s12.58,36.46,10.47,35.37c.91,10.12,4.21,18.48,5.61,29.65.4,3.18.85,6.83.88,9.1.09,6.36-1.58,7.78-7.09,18-4.49,8.34-9.84,18.28-14.68,28.32-2.11,4.36-4.36,10.17-4.5,15.12a27,27,0,0,0,6.57,18.27,3.77,3.77,0,0,1,1.26,2.16c.05,1.2-1.11,2.07-2.21,2.55a12.52,12.52,0,0,1-8.55.51,12.18,12.18,0,0,1-8.61-10.93,14.67,14.67,0,0,0-2.3-8c-.92-1.33-2.15-2.57-2.37-4.17a4.07,4.07,0,0,1,.06-1.35,7.42,7.42,0,0,1,1.86-3.27,39.53,39.53,0,0,0,2.83-3.1,12.83,12.83,0,0,0,1.47-3.68c.25-.79.79-3.39,1.48-6.85,1.82-9.17,4.67-24.38,5.82-27.84,2-5.89,4-9.76,6.93-12.6" style="fill:#ffa8a7"></path><path d="M269.13,380.29a3.88,3.88,0,0,1-2.78,3.13A14.32,14.32,0,0,1,254.82,382c-5.19-3.08-6.08-5.92-6.53-8.53s0-6.43-1.1-8.33-2.37-3.09-2.82-4.56a8.41,8.41,0,0,1,0-3.63Z" style="fill:#37474f"></path><path d="M249.67,350s-.44.94-.52,1.22a3.72,3.72,0,0,0,1.47,4.63c.81.59,2.39-.26,3.77-.48a8,8,0,0,1,7.05,2.17c.25,4.45.37,7.11,1.92,10.58a40.42,40.42,0,0,0,3.47,5.12c1.33,1.43,3.66,3.73,2.75,6A4.76,4.76,0,0,1,267,381.6a13.62,13.62,0,0,1-11.3-.87,11.56,11.56,0,0,1-6.42-8.72c-.63-2.92-.25-6.11-1.55-8.18s-2.85-2.7-3.51-5.64a4.56,4.56,0,0,1,1.38-3.79C247.79,351.93,248.93,349.13,249.67,350Z" style="fill:#84B8C6"></path><path d="M249.67,350s-.44.94-.52,1.22a3.72,3.72,0,0,0,1.47,4.63c.81.59,2.39-.26,3.77-.48a8,8,0,0,1,7.05,2.17c.25,4.45.37,7.11,1.92,10.58a40.42,40.42,0,0,0,3.47,5.12c1.33,1.43,3.66,3.73,2.75,6A4.76,4.76,0,0,1,267,381.6a13.62,13.62,0,0,1-11.3-.87,11.56,11.56,0,0,1-6.42-8.72c-.63-2.92-.25-6.11-1.55-8.18s-2.85-2.7-3.51-5.64a4.56,4.56,0,0,1,1.38-3.79C247.79,351.93,248.93,349.13,249.67,350Z" style="opacity:0.4"></path><path d="M254.75,374.21a9.8,9.8,0,0,1,11.49-1.72h0a6.1,6.1,0,0,1,.82.75c1.34,1.43,3.66,3.6,2.74,5.91a4.17,4.17,0,0,1-2.63,2.5,14.62,14.62,0,0,1-14.29-2.87l-.1-.1-.08-.07A8.08,8.08,0,0,1,254.75,374.21Z" style="fill:#f0f0f0"></path><path d="M301.11,241.52c-1.28,4.94-2.62,6.23-7.76,14.51a15.47,15.47,0,0,1-11,7.26L285.92,279l.73,5.49s-4,3.47-13.1,5.55c-10.24,2.33-13.08-.72-13.08-.72s-5.79-14.06-8.37-22c-1.56-4.78-3.51-13-1.59-21.31,1.28-5.49,5.82-16.6,5.82-16.6Z" style="fill:#455a64"></path><path d="M291.88,258a50.84,50.84,0,0,1-10.08,4.07h0l.56,1.2a14.89,14.89,0,0,0,2.48-.57A15.65,15.65,0,0,0,291.88,258Z" style="fill:#37474f"></path><path d="M266.36,183.58c-4.17.17-6.54,3.13-8,7-.72,2-.8,4.37-.79,8.7s.12,23.32.12,23.32l-6.54,17.22c7.59,5.76,35.68,17.19,49.43.84,0,0,2.13-31.56,2-38.91-.12-10-3.05-15.49-7.3-17.07a20,20,0,0,0-3.76-.62L275.5,182.8Z" style="fill:#84B8C6"></path><path d="M275.42,176.15c-1.56.39-7.07-3.3-11.29-14.26-4.35-11.32,3.22-19.73,6.3-20.07,0,0,.83-4.81,8.07-7.89,6.16-2.61,14.32-1.76,20.21,1.21a14.45,14.45,0,0,1,5.92,6.43,15.72,15.72,0,0,1,1.52,5.49,7.2,7.2,0,0,1,0,2.89c-.18.38-.82.75-1.15,1l-5.4,4.6-12.52,10.66-9.7,8.26Z" style="fill:#37474f"></path><path d="M275.7,162a.81.81,0,0,1-.31.27c-.36.18-.56.29-.78-.05a22.18,22.18,0,0,0-1.55-2.47,4.32,4.32,0,0,0-1.92-1.24,3.23,3.23,0,0,0-3.7,1.29c-1.66,2.6-.28,7,2.93,8.2,3.81,1.38,4.9-1.23,4.9-1.23l0,17.79s2.7,7.32,10.66,8.68,7.8-5.17,5.29-8.48l.45-4.75a19.39,19.39,0,0,0,5.93-.39c2.57-.6,4.55-2.07,6.36-5.88,2.42-5.13,2.91-10.81,1.62-21.54,0-.32-.09-.64-.15-1-1.07-5.74-5.77-9.26-11.36-10.08a21.51,21.51,0,0,0-8.15.41,20.25,20.25,0,0,0-3.7,1.28,5.89,5.89,0,0,0-1.76,1c-.62.66-.2,2-.14,2.85a13.06,13.06,0,0,1-.22,4.75,6.64,6.64,0,0,1-4.59,4.43,28.12,28.12,0,0,1,.38,5.1A2.2,2.2,0,0,1,275.7,162Z" style="fill:#ffa8a7"></path><path d="M297.44,135.9a12,12,0,0,0-3.09-.87,14.23,14.23,0,0,0-3.43.4,36.37,36.37,0,0,0-6.53,1.89,19.65,19.65,0,0,0-6.11,3.42,8.8,8.8,0,0,0-3.14,6.08,6.94,6.94,0,0,0,3,5.93c1.37.91,3.48,1.59,5.07,1a6.43,6.43,0,0,0,3.78-3.45,6.73,6.73,0,0,0,5.05,3.8c.31.05.89.09,1.11-.19s0-.83-.18-1.12a11.62,11.62,0,0,1-1.11-3,21.65,21.65,0,0,0,6.38,2.43c1.45.33,2.92.57,4.4.76a37,37,0,0,0,4.2.48,2.59,2.59,0,0,0,.92-.11.91.91,0,0,0,.6-.66,1.53,1.53,0,0,0-.32-1,18.07,18.07,0,0,1-1.24-4.09A34.75,34.75,0,0,0,305,143a14.84,14.84,0,0,0-2.81-4.28A12.82,12.82,0,0,0,297.44,135.9Z" style="fill:#37474f"></path><path d="M276.08,147.89c.41,9.36,1.06,20.56,2.39,24.07a13,13,0,0,0,5.63,6.62s-.93.6-3.12-.56-3.64-3.36-5-7.39-2.6-22.15-2.6-22.15Z" style="fill:#263238"></path><path d="M289.92,161.24a1.67,1.67,0,1,1-1.61-1.8A1.7,1.7,0,0,1,289.92,161.24Z" style="fill:#263238"></path><path d="M287.92,156.12,284.3,158a2.14,2.14,0,0,1,.92-2.8A2,2,0,0,1,287.92,156.12Z" style="fill:#263238"></path><path d="M288.78,169.9l6.22,2.58a3.31,3.31,0,0,1-4.35,1.94A3.54,3.54,0,0,1,288.78,169.9Z" style="fill:#b16668"></path><path d="M288.62,171.93a2.72,2.72,0,0,1,1.45-.24,2.76,2.76,0,0,1,2.45,2.91,3.28,3.28,0,0,1-1.87-.18A3.46,3.46,0,0,1,288.62,171.93Z" style="fill:#f28f8f"></path><path d="M305,156.51,301.23,155a2,2,0,0,1,2.59-1.17A2.15,2.15,0,0,1,305,156.51Z" style="fill:#263238"></path><path d="M303.86,161.56a1.67,1.67,0,1,1-1.62-1.8A1.72,1.72,0,0,1,303.86,161.56Z" style="fill:#263238"></path><polygon points="294.99 159.59 295.18 168.52 299.88 167.09 294.99 159.59" style="fill:#f28f8f"></polygon><path d="M291.71,180s-7.93-1.09-11.46-3.53a10.1,10.1,0,0,1-3.45-3.66,9.91,9.91,0,0,0,1.89,4.24c3.42,4.33,12.84,4.82,12.84,4.82Z" style="fill:#f28f8f"></path><path d="M268.39,152.34s.49,3.06,1.07,6.06a2.9,2.9,0,0,0-1.44.7,4.38,4.38,0,0,0-.95,1.41,53.85,53.85,0,0,1-1.55-6.41Z" style="fill:#263238"></path><path d="M263.55,160.15c3-4.78,17.65-14.91,30.77-14.74,12.53.17,13.11,4.68,13.11,4.68a2.27,2.27,0,0,0,2.49-1.41c.72-1.76-2.9-16.63-13.6-19.24-11-2.69-23.91,1.17-30.48,8.87-5.68,6.66-6.19,13.59-4.69,20,.12.53,1.13,4,2.83,3.19C264,161.48,263.65,160.57,263.55,160.15Z" style="fill:#84B8C6"></path><path d="M289.19,136.73c-6-3.24-13.58-2.13-15.38-.87s-4.66,5.13-1.79,5.58,10.15-1.32,14.56-.52S294.14,139.41,289.19,136.73Z" style="fill:#455a64"></path><path d="M289.19,138.86c-6-3.24-13.58-2.13-15.38-.87a9.29,9.29,0,0,0-2.65,3.09,1.67,1.67,0,0,0,.86.36c2.87.45,10.15-1.32,14.56-.52a6.13,6.13,0,0,0,4.59-.6A7.11,7.11,0,0,0,289.19,138.86Z" style="fill:#37474f"></path><path d="M300.69,140.39A2.25,2.25,0,0,1,299.5,139a14.36,14.36,0,0,0-2.16-3.81,3.52,3.52,0,0,1-.6-.93,1,1,0,0,1,.19-1,1.37,1.37,0,0,1,1.4,0,10.5,10.5,0,0,1,5.57,4.32,2,2,0,0,1,.34,1.8,2.2,2.2,0,0,1-1.41.93,4.2,4.2,0,0,1-1.71.3A1.81,1.81,0,0,1,300.69,140.39Z" style="fill:#455a64"></path><path d="M303.63,139.86a4.16,4.16,0,0,0-.36-.77,10.48,10.48,0,0,0-5.57-4.31,2.35,2.35,0,0,0-.74-.17,6.42,6.42,0,0,0,.38.53A14.36,14.36,0,0,1,299.5,139a2.25,2.25,0,0,0,1.19,1.44,1.81,1.81,0,0,0,.43.1,4.2,4.2,0,0,0,1.71-.3A4.65,4.65,0,0,0,303.63,139.86Z" style="fill:#37474f"></path><path d="M285.22,144.23c-13.2,3.28-21.14,9.68-23.56,15.53.47,1.08,1.26,2.24,2.32,1.72,0,0-.25-.75-.36-1.17,3-4.78,17.53-14.89,30.65-14.71,12.53.17,13.17,4.58,13.17,4.58a2.38,2.38,0,0,0,2.48-1.5C306,144.14,300.4,140.45,285.22,144.23Z" style="fill:#455a64"></path><path d="M276,170.63a16.87,16.87,0,0,1-3-2.3,3,3,0,0,0,2.26-1.46Z" style="fill:#263238"></path><path d="M284.84,262.72a11,11,0,0,0,7-4.7" style="fill:#37474f"></path><path d="M348.5,257.58a.65.65,0,0,1-.65-.65c0-7.22,5.14-11,11.11-15.46,2-1.5,4.12-3.06,6.13-4.84a16.25,16.25,0,0,0,4.59-17.77.66.66,0,0,1,1.22-.48c0,.11,4.26,11.07-4.94,19.23-2,1.82-4.17,3.39-6.23,4.91-5.67,4.21-10.58,7.84-10.58,14.41A.65.65,0,0,1,348.5,257.58Z" style="fill:#84B8C6"></path><g style="opacity:0.2"><path d="M348.5,257.58a.65.65,0,0,1-.65-.65c0-7.22,5.14-11,11.11-15.46,2-1.5,4.12-3.06,6.13-4.84a16.25,16.25,0,0,0,4.59-17.77.66.66,0,0,1,1.22-.48c0,.11,4.26,11.07-4.94,19.23-2,1.82-4.17,3.39-6.23,4.91-5.67,4.21-10.58,7.84-10.58,14.41A.65.65,0,0,1,348.5,257.58Z"></path></g><path d="M358.86,259a.66.66,0,0,1-.65-.66c0-6.32,3.69-10.59,7.27-14.72,2.52-2.9,4.89-5.64,6.08-9.05,3-8.56.18-14.09-1.65-15.42a.65.65,0,1,1,.76-1.06c2.66,1.94,5.08,8.46,2.13,16.91-1.28,3.64-3.85,6.61-6.33,9.48-3.58,4.13-7,8-7,13.86A.66.66,0,0,1,358.86,259Z" style="fill:#84B8C6"></path><path d="M353.13,229.07c1.63.05,4.83,2.07,7.13,2.3s6.45-3,6.45-3L364.58,225l-6.37.72Z" style="fill:#f28f8f"></path><path d="M360.21,228.4l-2.7-4.66,11.4-6.58h0a1.33,1.33,0,0,1,1.37.12,4.21,4.21,0,0,1,1.9,3.3,1.35,1.35,0,0,1-.53,1.21h0l0,0h0Z" style="fill:#455a64"></path><path d="M360.76,227.17c0,1.21-.85,1.7-1.9,1.1A4.22,4.22,0,0,1,357,225c0-1.21.85-1.7,1.9-1.1A4.22,4.22,0,0,1,360.76,227.17Z" style="fill:#37474f"></path><path d="M347.85,219.47c7.79-1.38,14.47-6.6,19.16-4.44,3.29,1.52,5.93,8.07,4.58,10.38s-7.15,5-9.23,4.42-2.14-1.45-2.14-1.45l1.63-.93s0-4.46-3.32-4.3l-1,.58-2.48-3.36Z" style="fill:#ffa8a7"></path><path d="M359.51,226.77a.75.75,0,0,1-.13.47l-.32.19-16.43,9.48c-3.2,1.84-4.28,6.25-4.88,10.91l-.12,1c-.31,2.74-.6,5.26-.89,7.73-.45,3.86-.88,7.61-1.35,11.89-.72,6.38-3.36,8.9-9,12.15l-1.31-2.26c5.25-3,7.1-4.92,7.69-10.18.47-4.28.91-8,1.36-11.9.24-2.1.49-4.24.74-6.53.05-.39.09-.78.14-1.19.08-.71.17-1.43.28-2.15.73-4.91,2.15-9.49,6-11.72l.27-.16L358,225a.75.75,0,0,1,.52.12A2.15,2.15,0,0,1,359.51,226.77Z" style="fill:#e0e0e0"></path><path d="M332.16,280.18a2.73,2.73,0,0,0-1.59-2.12l-6.65-3.84-6.88,4v4l6.65,3.84a7.86,7.86,0,0,0,7.11.13,2.29,2.29,0,0,0,1.35-2S332.18,280.91,332.16,280.18Z" style="fill:#37474f"></path><path d="M323.92,274.22l6.65,3.84c2,1.17,2.13,3,.23,4.1a7.86,7.86,0,0,1-7.11-.13L317,278.19Z" style="fill:#455a64"></path><path d="M321.17,283.15a.69.69,0,0,1-.18.53l-.2.11-.11.07a11.52,11.52,0,0,1-5.06,1.77,3.2,3.2,0,0,1-1.54-.35,3.15,3.15,0,0,1-.53-.33c-1.28-1-1.67-2.79-1.87-4.33-.47-3.73-.91-7-1.35-10.34-.29-2.12-.58-4.29-.89-6.67-.46-3.45-1.11-5.41-1.95-5.82-.45-.23-1.21.09-1.76.42l-18.08,10.44-1.3-2.26L304.43,256a4.36,4.36,0,0,1,4.23-.49c2.19,1.08,2.91,4.4,3.36,7.82.32,2.36.6,4.54.89,6.65.44,3.37.89,6.62,1.37,10.36.25,2,.71,2.54,1,2.65.67.33,2.37-.41,3.75-1.13l.34-.18.31-.17,0,0a.65.65,0,0,1,.59.08A2.1,2.1,0,0,1,321.17,283.15Z" style="fill:#e0e0e0"></path><path d="M280.39,274.1l-2.7-4.66,11.41-6.58h0a1.32,1.32,0,0,1,1.36.12,4.21,4.21,0,0,1,1.9,3.3,1.35,1.35,0,0,1-.53,1.21h0l0,0h0Z" style="fill:#455a64"></path><path d="M281,272.87c0,1.21-.86,1.7-1.91,1.1a4.22,4.22,0,0,1-1.9-3.3c0-1.21.85-1.7,1.9-1.1A4.22,4.22,0,0,1,281,272.87Z" style="fill:#263238"></path><path d="M275.15,252.78c5.06,3.25,12,5.62,14.77,7.73s3.75,8,2.4,10.29-7.35,5.09-9.43,4.55-2.14-1.45-2.14-1.45l1.64-.93c1.1-.67.66-4.56-2.15-5l-2.75,1.61c-1.38-.21-4.25-3-5.13-5.64Z" style="fill:#ffa8a7"></path><path d="M281,255.92c-6.44-4.26-22.65-20.42-22.65-20.42l5.13-26.84s5-18.24,1.38-24.87c0,0-8.91.14-12.6,5.18-2.88,3.92-6.06,21.63-9,40.45-1.15,7.48-2.73,11.93,3.25,16.6,7.06,5.51,25.87,18,25.87,18Z" style="fill:#ffa8a7"></path><path d="M258.3,235.5l1.1-5.78a11,11,0,0,1-1.5.18,19.73,19.73,0,0,1-3.52-.26,15.08,15.08,0,0,1-3.53-1c-.28-.13-1.38-.52-1.33-.88s1.6-.34,1.94-.37c2.16-.2,4.46-.47,6.09-1.78.57-.45,1.05-1.19.7-1.8s-1.18-.65-1.89-.68a45.35,45.35,0,0,1-7.08-.76,45.47,45.47,0,0,0-4.83-.57c-.4,2.5-.81,5.06-1.21,7.64-.74,4.82-1.65,8.39-.61,11.56a25.57,25.57,0,0,0,8,1.18c3.51,0,7.86-1,10.13-3.49.12-.13.22-.28.33-.42C259.38,236.58,258.3,235.5,258.3,235.5Z" style="fill:#f28f8f"></path><path d="M264.75,305.62a.65.65,0,0,1-.51-.24.66.66,0,0,1,.1-.92c4.14-3.34,5.22-8.84,6.46-15.21.29-1.47.58-3,.92-4.5,1.77-7.89,3.4-11,7-13.19a.65.65,0,0,1,.9.21.66.66,0,0,1-.21.9c-2.85,1.77-4.53,4.07-6.39,12.37-.34,1.51-.63,3-.92,4.46-1.23,6.34-2.4,12.34-6.92,16A.64.64,0,0,1,264.75,305.62Z" style="fill:#84B8C6"></path><path d="M255.76,302.22a.66.66,0,0,1-.13-1.3c5.08-1,9.5-5.76,12.45-13.47s5.92-14.56,10.78-16a.66.66,0,0,1,.36,1.26c-4.28,1.23-7.14,7.88-9.93,15.17-3.11,8.15-7.87,13.23-13.41,14.3Z" style="fill:#84B8C6"></path><g style="opacity:0.2"><path d="M255.76,302.22a.66.66,0,0,1-.13-1.3c5.08-1,9.5-5.76,12.45-13.47s5.92-14.56,10.78-16a.66.66,0,0,1,.36,1.26c-4.28,1.23-7.14,7.88-9.93,15.17-3.11,8.15-7.87,13.23-13.41,14.3Z"></path></g><path d="M252.59,289.22a6.81,6.81,0,0,1-.76,0,.65.65,0,0,1-.6-.7.64.64,0,0,1,.7-.6c.09,0,8.9.59,14-6.7,5.66-8.07,9-9.71,12.6-9.73h0a.66.66,0,0,1,.66.65.65.65,0,0,1-.65.65c-3.17,0-6.2,1.57-11.54,9.18C262.31,288.64,255,289.22,252.59,289.22Z" style="fill:#84B8C6"></path><path d="M265.39,171.53a7.93,7.93,0,0,0,.57,4.53,2.34,2.34,0,0,0-1.23.85,5,5,0,0,0-.9,2.2,4.89,4.89,0,0,0,.84,3.48,4.79,4.79,0,0,0-1.38,3.62,5.42,5.42,0,0,0,2.86,4.3,4.64,4.64,0,0,0,2.63,6.63,2.25,2.25,0,0,1,1,.5c.47.5.24,1.3.28,2a4,4,0,0,0,2,2.86,17.23,17.23,0,0,1,3,2,2.76,2.76,0,0,1,.63,3.29,6.48,6.48,0,0,0-3.57-10.76,9.34,9.34,0,0,0,.4-3.77,3.25,3.25,0,0,0-2.31-2.76c1.13-.64,1.75-2.47,1.89-3.69a6.07,6.07,0,0,0-.83-3.77,3.56,3.56,0,0,0,1.15-4.82,5.34,5.34,0,0,0-.46-7.4c-.4-.32-.71-.72-1.1-1a7.31,7.31,0,0,0-2.06-1,2.52,2.52,0,0,0-1.49-.24,2.22,2.22,0,0,0-1.23,1.07A5.9,5.9,0,0,0,265.39,171.53Z" style="fill:#37474f"></path></g><g id="freepik--character-dad--inject-125"><path d="M215.18,203.24l-41-.25-4,67s-11.26,7.53-18.7,17.22c-5.4,7-23.3,37-26.44,41.48l-5.89,8.42c-.6,1.52-.43,4.86,3.15,6.87s7.81,1,8.66-.28c0,0,.82-1.7,7.38-7.43s53.82-46.94,56.37-49.79c3.82-4.27,6.13-8.19,11.16-23.54C212.1,243.92,215.26,211.67,215.18,203.24Z" style="fill:#ffa8a7"></path><path d="M215.85,201.63s-.52,13.36-3.32,34.49-5.11,36.39-14,47.58-22.06,22.9-26.21,26.38a38.49,38.49,0,0,1-22.79-22.35L162.3,271.1l-3.67-64.32Z" style="fill:#455a64"></path><path d="M161.21,272.66s4,15.22,4.61,17.75S171,310.05,171,310.05s1.47-22.6.65-26.74S161.21,272.66,161.21,272.66Z" style="fill:#37474f"></path><path d="M214.32,208.66s.13,10.65-6,18.37-10.62,9.82-10.62,9.82l3.52,35.52-8.32-36.89Z" style="fill:#37474f"></path><path d="M112.47,342.85c-.79-.28-2.58,2.33-2.8,3.27s.27,3.15,1.09,5.31a25.54,25.54,0,0,1,1.82,8.14,31.73,31.73,0,0,0,2.45,11.3c2,4.51,7.76,12.48,18.8,11,6.7-.88,7.54-3.69,7.34-5.23Z" style="fill:#455a64"></path><path d="M133.37,342.45c-1,3.28-2.72,12.39,2.07,19.57,3.23,4.84,5.07,9.7,4.2,14.12-.91,4.61-17.76-.32-20.16-3.5a23.16,23.16,0,0,1-4.42-11.1c-.57-3.53-.19-5.94-.91-8.55-.79-2.82-2.7-6.24-2.19-8.86.27-1.44,2.28-3.79,4.14-5.67s3.13-3.51,4.22-3l-.72,1a10.59,10.59,0,0,0,3.43,3c.55.35.52,2.73,1.21,2.9s.59-1.75,1.87-2.16C130.29,338.84,133.37,342.45,133.37,342.45Z" style="fill:#84B8C6"></path><path d="M133,342.44c-1,3.28-2.72,12.39,2.07,19.57,3.24,4.85,5.07,9.7,4.2,14.13-.9,4.6-17.76-.33-20.16-3.51a23.26,23.26,0,0,1-4.42-11.1c-.57-3.53-.18-5.94-.91-8.55-.79-2.82-2.7-6.24-2.19-8.86.27-1.44,2.28-3.79,4.14-5.67,1.71-1.74,3.14-3.51,4.22-3l-.72,1a10.8,10.8,0,0,0,3.43,3c.55.35.52,2.73,1.21,2.91s.59-1.76,1.87-2.17C129.89,338.83,133,342.44,133,342.44Z" style="opacity:0.4"></path><path d="M119.48,372.64s3.35-6.69,10.71-7.7,9.14,1.92,9.91,2.94,4.17,7-.54,10.52C139.56,378.4,127.77,383.16,119.48,372.64Z" style="fill:#fafafa"></path><path d="M205.65,376.34s-2.52-57.34-3.8-82.06c-3.35-28.67-11.22-58-11.22-58s6.3-3.17,12.35-11.12c8.81-11.57,9-21.62,9-21.62l-4.78-.53-52-.07c-.2,8.58-1,20.6-.33,31.76,1.45,22.88,21.85,64.13,21.85,64.13-.34,3.14-3.17,16.37-.46,28.15,4.29,18.59,14.48,42.12,16.14,52.24h0l1.72,8.5,13-2.64-1.58-8.76Z" style="fill:#ffa8a7"></path><path d="M154.16,200.45c-1.25,9.57-2.25,17.47-2.42,24.53s1.43,16.79,4.27,26.68,11.28,33.86,12.35,37.35,3.12,26.22,3.12,26.22,20.12,5.27,34.09-3.08c0,0-1-22.74-2-28.54s-10.7-48.13-10.7-48.13,21.13-12.81,22.32-32.24Z" style="fill:#455a64"></path><path d="M192.07,392.38c-.81.33-.41,3.61.06,4.49a10.85,10.85,0,0,0,4.16,3.76,17.74,17.74,0,0,1,6,5.4,30.08,30.08,0,0,0,10,8.21c4.64,2.19,10.66,2.1,16-.25s5.83-3.89,5.57-6Z" style="fill:#455a64"></path><path d="M208.17,377.63c1.46,3.28,5.28,12,11.68,15.86,5.09,3.05,11.87,6.39,14.25,10.45,2.47,4.24-6.93,7.73-11.09,7.83-3.24.08-7.52.32-10.87-1.51a28.86,28.86,0,0,1-4.63-3.17c-2.89-2.37-5-5.43-7.14-7.33s-6.41-3.62-7.82-6c-.78-1.32-.83-4.55-.67-7.31.14-2.54-.19-4.89,1-5.26l.29,1.44a24.89,24.89,0,0,0,4.82-.21c.67-.1,2.3,1.79,3,1.45s-.75-1.78,0-3C203.26,376.93,208.17,377.63,208.17,377.63Z" style="fill:#84B8C6"></path><path d="M208.17,377.63c1.46,3.28,5.28,12,11.68,15.86,5.09,3.05,11.87,6.39,14.25,10.45,2.47,4.24-6.93,7.73-11.09,7.83-3.24.08-7.52.32-10.87-1.51a28.86,28.86,0,0,1-4.63-3.17c-2.89-2.37-5-5.43-7.14-7.33s-6.41-3.62-7.82-6c-.78-1.32-.83-4.55-.67-7.31.14-2.54-.19-4.89,1-5.26l.29,1.44a24.89,24.89,0,0,0,4.82-.21c.67-.1,2.3,1.79,3,1.45s-.75-1.78,0-3C203.26,376.93,208.17,377.63,208.17,377.63Z" style="opacity:0.4"></path><path d="M212.14,410.26s.82-8.25,7.64-12,9.58-.84,10.72-.12,6.69,4.62,3.4,9.81C233.9,408,225,416.77,212.14,410.26Z" style="fill:#fafafa"></path><path d="M222,173.73c5.33-16.79,13.1-33.89-3.38-40.1-3.09-1.17-11.16-1.58-11.16-1.58l-13.14-.88c-8.84,0-21.07-1.15-25.14,5.28,0,0-8,5.74-12.58,30.49a322.63,322.63,0,0,0-4.85,49.37c12.67,8.8,53.21,14.59,63.78,1.28C216.56,205.05,213.82,199.44,222,173.73Z" style="fill:#84B8C6"></path><path d="M222,173.73c5.33-16.79,13.1-33.89-3.38-40.1-3.09-1.17-11.16-1.58-11.16-1.58l-13.14-.88c-8.84,0-21.07-1.15-25.14,5.28,0,0-8,5.74-12.58,30.49a322.63,322.63,0,0,0-4.85,49.37c12.67,8.8,53.21,14.59,63.78,1.28C216.56,205.05,213.82,199.44,222,173.73Z" style="opacity:0.4"></path><path d="M239.22,96.83a18.32,18.32,0,0,0-36.07-6.12l-7.49-6.94A6.47,6.47,0,0,0,190.1,85c-2.57,2.08-2.14,9.59-.11,17.12,0,0,1.27,13.44,2.15,15.72a6,6,0,0,0,3.11,3.17l.75-8L229.31,115l-3-2.75A18.31,18.31,0,0,0,239.22,96.83Z" style="fill:#263238"></path><path d="M196.75,103.55c-1.12.51-1.79-1.83-3.54-3.2-1.48-1.18-4.89-3.34-7.8.35-3.14,4,.76,10.55,3.87,12.21,4.61,2.45,6.84-1.12,6.84-1.12l-2,20.82c5,12.89,21.9,12.78,18.8,1.62l.71-6.33s5.13,1.4,7.72,1.3c4.31-.17,7.36-3.2,9.18-7.63,2.91-7.13,4.38-13,4.31-27.67-.09-16.09-18.53-18.39-29.23-13.27S196.75,103.55,196.75,103.55Z" style="fill:#ffa8a7"></path><path d="M240.83,79.66a6.89,6.89,0,0,0-4.39-1.09,5.46,5.46,0,0,0-2.52-5.85,6.31,6.31,0,0,0-6.95,0c.66-1.54-.59-3.37-2.17-3.94a8.7,8.7,0,0,0-5,.17c-2.43.58-4.84,1.27-7.3,1.74-4.33.85-8.84,1.06-12.89,2.82a7.92,7.92,0,0,0-2.6,1.68,6.56,6.56,0,0,0-1.6,4,9.87,9.87,0,0,0,0,1.44,3.38,3.38,0,0,0-.88-.89,3.54,3.54,0,0,0-5,1l5.83,4.06c-.32,1.23-.64,2.47-.94,3.72-.77,3.29-1.92,7.08-1.6,10.5a2.44,2.44,0,0,0,.26,1.16A19.91,19.91,0,0,1,196,103.8c.4.65.86,1.67,1.62,2a1.88,1.88,0,0,0,2.28-.7,3.49,3.49,0,0,0,.27-1.47l.2-6.23a3.4,3.4,0,0,1,.31-1.62,4.64,4.64,0,0,1,1.71-1.41,7.15,7.15,0,0,0,3.1-4.61,7.22,7.22,0,0,1,.4-1.74c.18-.42.61-1,1.11-1,1,.12,6.05,1.94,7.34,2.29,6.72,1.84,14.05,3,20.52.41,2.52-1,6.84-3.2,7.63-6A3.93,3.93,0,0,0,240.83,79.66Z" style="fill:#263238"></path><path d="M213.67,127.9s-9.23-3-12.33-5.13a10.91,10.91,0,0,1-4.05-5,15.06,15.06,0,0,0,2,5.63c2.06,3.37,14.11,7.07,14.11,7.07Z" style="fill:#f28f8f"></path><path d="M216.33,104.38a1.8,1.8,0,0,1-2,1.63,1.86,1.86,0,1,1,2-1.63Z" style="fill:#263238"></path><path d="M213.75,97.32l-4.42,1.48a2.45,2.45,0,0,1,1.52-3A2.29,2.29,0,0,1,213.75,97.32Z" style="fill:#263238"></path><path d="M212.76,116.19l5.83,3a3.23,3.23,0,0,1-4.37,1.54A3.44,3.44,0,0,1,212.76,116.19Z" style="fill:#b16668"></path><path d="M216.05,121.05a3.2,3.2,0,0,0-3.21-3.19,2.85,2.85,0,0,0-.41,0,3.37,3.37,0,0,0,1.79,2.83A3.19,3.19,0,0,0,216.05,121.05Z" style="fill:#f28f8f"></path><path d="M233.27,101.26l-3.74-2.61a2.21,2.21,0,0,1,3.12-.56A2.32,2.32,0,0,1,233.27,101.26Z" style="fill:#263238"></path><path d="M230.59,105.93a1.79,1.79,0,1,1-3.55-.42,1.8,1.8,0,0,1,2-1.63A1.84,1.84,0,0,1,230.59,105.93Z" style="fill:#263238"></path><polygon points="221.69 103.65 220.54 115.16 227.51 114.47 221.69 103.65" style="fill:#f28f8f"></polygon><path d="M179.09,131.51c-6.71.6-17.47,7.17-16.81,21.32.47,10.17,13.89,47.73,16.78,54,3.14,6.82,3.56,8,17.16,13.83,6.15,2.63,18.27,6.47,27,10.09,2.16.89,4.31,1.78,6.48,2.66,2.48,1,5.44,2.35,7.88,3.5,4.61,2.18,8.5,3.73,13.64,3.66,3.4-.05,7.6-1.05,9.79-3.66,1.66-2,2.19-4.64,2.42-7.21a4,4,0,0,0-.08-1.58,1.47,1.47,0,0,0-1.07-1.07c-.48-.09-.93.21-1.4.34-.85,0-1.75.31-2.63.33a17,17,0,0,1-3.41-.28,13.06,13.06,0,0,1-3.4-1.07c-.28-.13-1.34-.54-1.29-.92s1.55-.35,1.88-.39c2.08-.21,4.31-.48,5.88-1.86.55-.47,1-1.25.68-1.89s-1.15-.69-1.83-.71a41.32,41.32,0,0,1-6.84-.8,52.13,52.13,0,0,0-6.5-.74c-2.23-.15-4.42.34-6.57-.23a49.59,49.59,0,0,1-6.68-2.74c-10.77-4.89-30.29-16.62-30.29-16.62L186.48,158.7S186.47,138.3,179.09,131.51Z" style="fill:#ffa8a7"></path><path d="M180.37,131.36c-6.56.67-10.39,1.53-15,7.18s-4.55,14.15-2.93,21.62a197.65,197.65,0,0,0,8,26.63,35.93,35.93,0,0,0,23.58-7.64C194,178.29,187.3,155,187.3,155S186.74,138.68,180.37,131.36Z" style="fill:#37474f"></path><path d="M153.33,240.58s15.12,1.33,23.68.12c0,0,7.53,31.76,7.84,35.42s-14.93,3.27-18,2.73-5.42-1.08-7.44-9.19S154,248.53,153.33,240.58Z" style="fill:#37474f"></path></g></g></svg>