<svg xmlns="http://www.w3.org/2000/svg" viewBox="0 0 500 500"><g id="freepik--Floor--inject-96"><ellipse id="freepik--floor--inject-96" cx="253.86" cy="357.69" rx="236.29" ry="136.42" style="fill:#fafafa"></ellipse></g><g id="freepik--Clouds--inject-96"><path id="freepik--Cloud--inject-96" d="M109.46,49.66a3.85,3.85,0,0,0-3.67,0l-4.32,2.48c.07-.79.12-1.56.12-2.31,0-4.7-1.56-8.29-4.28-9.85-2.27-1.32-5.15-1.1-8.11.61A22,22,0,0,0,82,48c-.45-4.81-2.35-8.45-5.33-10.11-2.81-1.57-6.37-1.28-10,.83-8.26,4.77-15,17.6-15,28.6a24.14,24.14,0,0,0,.23,3.35l-3.09,1.81c-5.3,3.07-9.62,11.3-9.62,18.35,0,3.86,1.29,6.82,3.54,8.12a5.29,5.29,0,0,0,2.65.69,7.78,7.78,0,0,0,3.9-1.16l56.49-32.64c3.23-1.87,5.87-6.88,5.87-11.17C111.65,52.27,110.85,50.46,109.46,49.66Z" style="fill:#ebebeb"></path><path id="freepik--cloud--inject-96" d="M174.69,64.52a2.15,2.15,0,0,0-1.73-.17c-.12,0-2.16,1.19-2.28,1.24,0-.36,0-.71,0-1,0-2.71-.9-4.78-2.48-5.69a4.62,4.62,0,0,0-4.73.35A12.23,12.23,0,0,0,159.65,63c-.32-2.55-1.4-4.48-3-5.39s-3.7-.75-5.8.47c-4.71,2.72-8.53,10-8.53,16.25a13.2,13.2,0,0,0,.12,1.81l-2.07,1.19c-3,1.75-5.51,6.45-5.51,10.47,0,2.24.76,4,2.08,4.71a3.08,3.08,0,0,0,1.57.42,4.59,4.59,0,0,0,2.27-.68l31.86-18.38A8,8,0,0,0,176,67.45,3.21,3.21,0,0,0,174.69,64.52Z" style="fill:#ebebeb"></path></g><g id="freepik--Shadows--inject-96"><path id="freepik--Shadow--inject-96" d="M134.6,424.62c3.17-.93,6.48-1.18,9.55-2.28,3.64-1.31,7.33-2.52,11-3.68,7.29-2.3,14.63-4.43,21.88-6.84,11.95-4,23.77-8.77,34-16,4.66-3.29,9.17-7.37,10.83-12.83,1-3.15.67-7.05-1.9-9.11a10,10,0,0,0-5.09-1.75c-6.19-.77-12.31.4-18.35,1.63-12.21,2.49-24.11,6.21-36.05,9.74-6.41,1.9-12.67,3.93-19.29,4.68-10.88,1.25-21.21,4.44-31.56,7.88a188.4,188.4,0,0,0-29.94,12.47c-4.56,2.45-8.9,5.73-11.32,10.32a8.21,8.21,0,0,0-1.14,4.24A8.37,8.37,0,0,0,70,428.18c7,7.27,20.07,8.8,29.51,7,9.69-1.83,18.93-5.48,28.33-8.49Q131.18,425.61,134.6,424.62Z" style="fill:#ebebeb"></path><path id="freepik--shadow--inject-96" d="M267.71,447.83c2.41-.7,4.91-.89,7.24-1.73,2.76-1,5.55-1.91,8.35-2.79,5.53-1.74,11.09-3.35,16.59-5.18,9.05-3,18-6.65,25.8-12.16,3.53-2.49,6.95-5.58,8.21-9.72.73-2.39.51-5.34-1.44-6.9A7.58,7.58,0,0,0,328.6,408c-4.69-.58-9.33.3-13.91,1.24-9.25,1.88-18.27,4.7-27.31,7.38-4.86,1.43-9.61,3-14.63,3.55-8.24.94-16.07,3.36-23.91,6a142,142,0,0,0-22.69,9.44c-3.46,1.87-6.75,4.35-8.59,7.83a5.33,5.33,0,0,0,1.16,7.1c5.34,5.51,15.21,6.67,22.36,5.31,7.35-1.39,14.35-4.15,21.47-6.43C264.26,448.86,266,448.33,267.71,447.83Z" style="fill:#ebebeb"></path></g><g id="freepik--Plants--inject-96"><g id="freepik--Leaves--inject-96"><path d="M421.82,336.52s.09-10,9.85-19.89c7.83-7.95,14.28-8.81,15-7.85s-1.22,5.47-9.83,14.44C433.21,327,421.82,336.52,421.82,336.52Z" style="fill:#ebebeb"></path><path d="M411.45,356.07c.4-1.07,6.84-10.21,16.16-17.52,5-3.9,8.65-4.42,9-3.06.22.8-1.73,5.27-9.29,11.18S411,357.14,411.45,356.07Z" style="fill:#ebebeb"></path><path d="M416.65,344.73c.62-1,1.07-5,.69-11.63-.25-4.49-.21-9.75-1.67-10s-4,4.93-3.7,10.14S416,345.75,416.65,344.73Z" style="fill:#ebebeb"></path><path d="M407.89,364c.56-1.24-.37-9.06-.83-12.65s-1.7-7.66-3.44-8.37-3.27,4-2,10S407.32,365.28,407.89,364Z" style="fill:#ebebeb"></path><path d="M405.64,373.35c-.13-1.09,4.2-6.19,8.73-10.68s11-8.69,11.72-6.49-1.86,6-7.1,10.27C413.17,371.13,405.77,374.43,405.64,373.35Z" style="fill:#ebebeb"></path><path d="M403.29,382.29c.44-.54-1.67-5.81-3.43-11.38s-2.49-7.89-4.25-7.91-3.41,3.59-.88,9.55S402.85,382.83,403.29,382.29Z" style="fill:#ebebeb"></path><path d="M441.13,312.88a120.6,120.6,0,0,0-17,19.23,142,142,0,0,0-13.07,22.16c-3.64,7.78-6.69,16-7.95,24.56s-.9,17.54,2.43,25.52a.1.1,0,0,0,.13,0,.09.09,0,0,0,.05-.11,56.78,56.78,0,0,1-.77-25.17,106,106,0,0,1,7.47-24.23,140.86,140.86,0,0,1,12.48-22.25A119.07,119.07,0,0,1,441.26,313a.1.1,0,0,0,0-.14A.09.09,0,0,0,441.13,312.88Z" style="fill:#e0e0e0"></path></g><g id="freepik--plants--inject-96"><g id="freepik--Plant--inject-96"><path d="M445.23,461.35c-1.37-4,1-9.05,3.15-11.64s3.18-1.43,1.94,1.55-3.38,7.44-1.45,10.51a33.56,33.56,0,0,0,9.64,2.53c2.63-3.84,6-6.48,8.33-10.75-1.12-3-8.81-4.85-8.48-7.91s4.35,1,5.56,1.71,4.46,3,5.31,5.1c1.71-2.28,3-3.17,3.27-6.85s-5.19-5.64-7.19-6.11-7.87-.45-7.72-3,6.25-.43,8,.37,6.08,2.83,8,4.8c1.06-2.2,4.72-4.66,2.46-7.73s-11.41-4.19-14.56-4-5.89-.88-1.36-1.89,10.71,1.4,14.93,3.86c1.12-3.08,2.55-7-.62-9.08s-12.44-.85-15.63,0-5.64.35-1.38-1.62,12.84-1.67,17.34.54c.08-3.88-1.18-6.95-3.64-8.8s-5.67-.33-8.05.84-7.08,5.71-8.49,3.05,11.28-7.76,12.66-7.48c-2.88-3.3-7-4.26-11-3.85s-8.81,4-11.19,7.23-1.64,4.28-3.39,7.12c-.1.17-.13.38-.29.47a.86.86,0,0,1-.52,0c-3.11-.2-3.69-1.18-7.15-2.13s-10.23.15-13.68,3.54-6.26,7.84-5.72,13c2.58-3,7.88-5.69,10.48-6.3s4.62,0,1.24,1.32-8.16,3.45-11.37,6.66c-1.1,4.37,0,8.07,2.67,10.34,1.73-6.72,10.34-13.42,14.56-14s-1.5,2.93-3.3,4.06-7.52,5.69-8.78,9.44c-.21,4.39,3.8,5,6.43,5.4.56-6,6.94-13.13,10.63-14.59s.89,1.34-.94,2.77a49.64,49.64,0,0,0-8,8.11,7.06,7.06,0,0,0,1.55,6.55,8.68,8.68,0,0,0,5.92,2.64c-.11-3.39,1.27-6.39,2.74-9.52.9-1.93,4.39-7.24,6.16-6.73s-3.34,6-4.24,7.64-4.84,6.86-3.69,10S442.74,461.44,445.23,461.35Zm5.15-23.14a1.05,1.05,0,0,1-.22,1.05,2.76,2.76,0,0,1-.7.6,4.78,4.78,0,0,1-2.45.71c-.62,0-1.58-.1-1.56-.92.05-1.8,3-2.07,4-2A1.12,1.12,0,0,1,450.38,438.21Zm3.1-6.43a.72.72,0,0,1-.41-.16c-.9-.72-.87-1.72.07-2.62a2.25,2.25,0,0,1,1-.49,1.12,1.12,0,0,1,.76.09c.79.43.78,1.15.29,2.08a2.78,2.78,0,0,1-.71.84A1.57,1.57,0,0,1,453.48,431.78Z" style="fill:#ebebeb"></path><path d="M458.53,464.42c2.59-4.11,6-6.53,8.31-10.87-1.11-3-8.81-4.85-8.48-7.91s4.35,1,5.56,1.71,4.46,3,5.31,5.1c1.71-2.28,3-3.17,3.27-6.85s-5.19-5.64-7.19-6.11-7.87-.45-7.72-3,6.25-.43,8,.37,6.08,2.83,8,4.8c1.06-2.2,4.72-4.66,2.46-7.73s-11.41-4.19-14.56-4-5.89-.88-1.36-1.89,10.71,1.4,14.93,3.86c1.12-3.08,2.55-7-.62-9.08s-12.44-.85-15.63,0-5.64.35-1.38-1.62,12.84-1.67,17.34.54c.08-3.88-1.18-6.95-3.64-8.8s-5.67-.33-8.05.84-7.08,5.71-8.49,3.05,11.28-7.76,12.66-7.48c-2.87-3.3-7-4.26-11-3.85s-8.81,4-11.19,7.23-1.67,4.28-3.37,7.13c-.09.16-.3.35-.25.48a7.58,7.58,0,0,0,.91,1.26c.08.13,0,.11,0,.12,5.67,6.59,10.24,17.09,11.7,25.51S455.54,458.53,458.53,464.42Zm-5-32.64a.72.72,0,0,1-.41-.16c-.9-.72-.87-1.72.07-2.62a2.25,2.25,0,0,1,1-.49,1.12,1.12,0,0,1,.76.09c.79.43.78,1.15.29,2.08a2.78,2.78,0,0,1-.71.84A1.57,1.57,0,0,1,453.48,431.78Z" style="fill:#e6e6e6"></path><path d="M449,423.19a36.35,36.35,0,0,1,7.19-3.78,29.61,29.61,0,0,1,7.88-1.9s0,0,0,0a6.36,6.36,0,0,0-2.21.09c-.77.12-1.57.23-2.37.42a32.76,32.76,0,0,0-7.76,2.82,27.51,27.51,0,0,0-6.44,4.76s-.05,0-.08,0a43.64,43.64,0,0,0-5.68.81c-6.24,1.43-12.6,3.31-17.67,9.17,0,0,0,0,0,0a23.16,23.16,0,0,1,4.11-3.49,37.18,37.18,0,0,1,9-4.08c1.64-.49,3.43-.9,5.1-1.22s3.36-.5,5-.68c.06,0,.07,0,.17,0a.49.49,0,0,0,.35-.12A25.8,25.8,0,0,1,449,423.19Zm-.4,6.25a16.92,16.92,0,0,1,3.45-2.18,27.77,27.77,0,0,1,7.1-1.71,24.28,24.28,0,0,1,3.8-.17,15,15,0,0,1,3.7.68s.13,0,.08,0a11,11,0,0,0-4-1,20.07,20.07,0,0,0-3.88.15,26.78,26.78,0,0,0-3.81.63,18.16,18.16,0,0,0-7,3.47c-.07.06-.05.15-.09.17-1.41.4-3,.8-4.35,1.31a44.8,44.8,0,0,0-7.91,3.77,23.37,23.37,0,0,0-6.05,5.22s0,0,0,0a26.73,26.73,0,0,1,3.5-3.1,48,48,0,0,1,15.05-6.8c.17-.05.1,0,.28-.26S448,429.93,448.55,429.44Zm1.94-14a31.84,31.84,0,0,1,5.17-4.06s.4-.19-.15,0a22.6,22.6,0,0,0-3.34,2,47.74,47.74,0,0,0-5.46,5,25.87,25.87,0,0,0-2.1,2.67c-.3.43-.45.9-.71,1.23s-.18,1-.47,1.06c-.47.13-.94-.18-1.62-.18s-1.53-.16-2.36-.21a57.62,57.62,0,0,0-8.73-.09,24.07,24.07,0,0,0-8,2s0,0,0,0a28.09,28.09,0,0,1,4.63-1.24,44.71,44.71,0,0,1,8.05-.41c1.48.05,2.85.18,4.24.29.69.05,1.5.13,2,.19a9.15,9.15,0,0,1,1.07.14c.35.07.63.12.87.15s.26-.11.31-.21a14.81,14.81,0,0,1,.85-1.88,11.76,11.76,0,0,1,.94-1.43A38.38,38.38,0,0,1,450.49,415.47Zm1.78,43.14a34.89,34.89,0,0,1,1-4.19c.2-.65.52-1.54.73-2a6,6,0,0,1,.46-1.06c.19-.25.2-.82.34-.79a7.46,7.46,0,0,1,1.34.66c.51.22,1.17.66,1.73,1,1.16.66,2.25,1.56,3.38,2.29,0,0,.16,0,.11-.05a40.49,40.49,0,0,0-3.2-2.54,19.65,19.65,0,0,0-1.79-1.11c-.29-.16-.67-.31-.93-.45a2,2,0,0,0-.85-.2c-.19,0,0,.06-.07.1s.06,0,0,0,0,0-.07,0a.9.9,0,0,0-.25.39c-.08.2-.13.25-.25.56s-.26.58-.44,1.08-.5,1.39-.67,2.05a18,18,0,0,0-.6,4.23S452.26,458.65,452.27,458.61Zm-1.73-24.78c.08,0,.12-.11.15-.12a18.52,18.52,0,0,1,3.22-.69,27.31,27.31,0,0,1,5.63-.26,26.56,26.56,0,0,1,5.59,1.08s.07,0,0,0a17.31,17.31,0,0,0-3-.93,25.45,25.45,0,0,0-11.8.5c-.05,0-.11.08-.14.09-4.73,2.23-10.11,4.51-13.34,10.09,0,0,.06,0,.08,0C440.59,438.35,445.72,436.05,450.54,433.83Zm-3.26,12.42a32.26,32.26,0,0,1,2.73-2.63c.94-.79,2-1.48,2.95-2.15,0,0,.05-.06.08-.06.5,0,.93,0,1.45,0s1.12.06,1.65.11a22.69,22.69,0,0,1,3.2.51,29.65,29.65,0,0,1,6.28,2.26s.05,0,0,0a24.49,24.49,0,0,0-6.1-2.67,19.56,19.56,0,0,0-3.26-.62c-.53-.06-1.13-.08-1.67-.1s-1,0-1.52.05c-.1,0-.21-.1-.38,0a20.76,20.76,0,0,0-3.08,2.28,29.81,29.81,0,0,0-2.59,2.56,34.77,34.77,0,0,0-2.34,2.92c-.37.5-.71,1-1,1.5a7.18,7.18,0,0,0-.79,1.43c0,.06,0,0,.05,0a9.54,9.54,0,0,0,1-1.22c.35-.47.71-1,1.1-1.46C445.77,448,446.46,447.15,447.28,446.25Z" style="fill:#e0e0e0"></path><g style="opacity:0.05"><path d="M439.74,424.27c-8.2-5.65-10.92-2.48-18.51-3.58,3.86-2.35,9.19-3.25,12.54-2.36s4.05,1.95,7.11,2.12c.15,0,.36.06.52,0s.2-.3.3-.47c1.71-2.86,1-3.82,3.38-7.13s7.29-6.7,11.16-7.31c-4.13,2.45-6,1.94-9.49,8.11s.52,13,4.17,19.16c2.6,4.36,3.53,16.41,4.49,22.35C453.7,443.44,446.2,428.72,439.74,424.27Z"></path></g><path d="M414.29,434.84a23.71,23.71,0,0,1,3.24-2.84,20.59,20.59,0,0,1,4-9.07c1-1.31,2.42-2.78,3.48-4a15.27,15.27,0,0,0-5,3C416.77,425.17,413.72,429.75,414.29,434.84Zm11.92,17a12.64,12.64,0,0,1,1.76-5.33,28.67,28.67,0,0,1-3.72-.84,9.13,9.13,0,0,1-3-1.88c-.36,1.1-1.34,1.35-1.44,2.74C419.54,450.57,423.73,451.5,426.21,451.84Zm-8.92-4.94a13.57,13.57,0,0,1,2.42-5,14.51,14.51,0,0,1-2.32-7.74,31.17,31.17,0,0,0-2.74,2.34C413.58,440.9,414.74,444.52,417.29,446.9Zm27.93,14.48a8.28,8.28,0,0,1-.45-3.69,44.28,44.28,0,0,1-7.59-3.83c-.28,1.6-1.53,3.1-.8,4.84C437.62,461.69,442.71,461.44,445.22,461.38Zm-9.78-4.11a13.18,13.18,0,0,1,.65-4.34c-.25-.25-.51-.46-.74-.73-1.65-1.89-2.88-4.05-5-5-.34-.16-1-.58-1.29-.34a2.42,2.42,0,0,0-1.07,1.39,7,7,0,0,0,1.56,6.43A8.71,8.71,0,0,0,435.44,457.27Zm13.41,4.52a32.65,32.65,0,0,0,7.46,2.16c-.48-.36-.87-.77-1.37-1.13a31.72,31.72,0,0,0-6.63-3.61c-.08,0-.25-.23-.25-.09A4.72,4.72,0,0,0,448.85,461.79Z" style="fill:#fff;opacity:0.2"></path><path d="M462.85,420.14a36,36,0,0,1,7.27.31,20.79,20.79,0,0,0-3.07-6.14,16.16,16.16,0,0,0-1.5-1.69,23.27,23.27,0,0,0-2.63,1.34l-2.66,1.6a11.83,11.83,0,0,1,1.47,2A16.61,16.61,0,0,1,462.85,420.14Zm-5.08-6.55a45.36,45.36,0,0,1,5.3-2.87c-2.86-2.3-9.68-3-12.14-2.93-1.68,0-.37,0-.38,0a16.41,16.41,0,0,0-4.35,3.52c1.19,0,2.91-.15,4,0a21.65,21.65,0,0,1,4.58,1A16.57,16.57,0,0,1,457.77,413.59ZM471,429.92a32.44,32.44,0,0,0-.5-8,38.89,38.89,0,0,0-7.07.1c.14.57.28,1.12.41,1.71.32,1.4.6,2.84.84,4.28A34.49,34.49,0,0,1,471,429.92Zm-12.49,34.4c.29-.7.84-1,1.13-1.63.19-.43.09-.94.28-1.52a48,48,0,0,1,3.15-7.16c.52-1,1-2.07,1.51-3.09-.71-.52-1.45-1-2.19-1.48-.1.26-.2.54-.31.8-1.31,3.18-3,6.48-4,9.72a8.82,8.82,0,0,0-.49,2.74C457.76,463.65,458.27,463.59,458.51,464.32Zm5.25-17.09c.67.41,1.29.87,1.93,1.34,1.1-2.56,2.15-5.14,3-7.82a26.39,26.39,0,0,0-3.59-1.26c-.06,0-.17-.14-.18,0a48,48,0,0,1-1.68,7.48Zm1.59-10.43a28.6,28.6,0,0,1,4,1.88,53.15,53.15,0,0,0,1.31-6c.07-.43.12-.83.18-1.26a59.06,59.06,0,0,0-5.88-1.24,55.19,55.19,0,0,1,.24,6.57C465.21,436.82,465.3,436.78,465.35,436.8Z" style="fill:#fff;opacity:0.2"></path></g><path d="M445.68,425.77a38.38,38.38,0,0,0-24.29-17.55,34.34,34.34,0,0,0-14.86-.33,23.6,23.6,0,0,0-3.23,1c1.36-1.79,2.75-3.51,4.14-5.17,8.08-9.62,18.08-17.66,29.71-22.56a87,87,0,0,1,8.66-3c3.48-1,7-1.37,10.55-2.09.14,0,.44-.35.17-.41a29.13,29.13,0,0,0-8.13,0,44.09,44.09,0,0,0-9.24,1.76,61.61,61.61,0,0,0-17,8.28c-11.32,7.79-20.87,19-27.49,31-3.55,6.43-6,13.63-5.29,21.05.07.82,1,.14,1.08-.38.7-8.16,4.32-15.9,8.93-22.9a12.63,12.63,0,0,1,2.68-1.9,20.51,20.51,0,0,1,6.49-2.06,35.36,35.36,0,0,1,14.37.75,40.27,40.27,0,0,1,22.45,14.93C445.49,426.27,445.77,425.93,445.68,425.77Z" style="fill:#e0e0e0"></path><g id="freepik--plant--inject-96"><path d="M450.44,408.11c-2-3.48-.28-8.46,1.53-11.09s3-1.68,2.21,1.2-2.38,7.25.05,9.86a38.84,38.84,0,0,0,10.24,1.21c2.14-3.85,5.24-6.67,7-10.87-1.59-2.67-9.74-3.44-9.84-6.3s4.59.38,5.94.93,5,2.22,6.18,4.08c1.43-2.3,2.6-3.26,2.35-6.69s-6.14-4.59-8.25-4.79-8.13.49-8.35-1.85,6.34-1.11,8.26-.58,6.64,1.9,8.88,3.5c.77-2.16,4.16-4.84,1.39-7.4s-12.3-2.54-15.49-2-6.17-.13-1.66-1.58,11.17.05,15.85,1.82c.7-3,1.59-6.73-2-8.29s-12.87.66-16,1.83-5.73,1-1.65-1.33,12.91-3,17.85-1.52c-.49-3.57-2.23-6.25-5-7.67s-5.85.35-8.13,1.7-6.41,6.08-8.24,3.79,10.41-8.45,11.87-8.35c-3.42-2.71-7.77-3.11-11.8-2.27s-8.44,4.66-10.4,7.95-1.07,4.13-2.44,6.95c-.07.16-.08.36-.23.47a1.1,1.1,0,0,1-.53.09c-3.21.18-3.95-.66-7.63-1.13s-10.46,1.32-13.5,4.85-5.26,7.94-4,12.6c2.21-3.09,7.24-6.15,9.82-7s4.73-.56,1.46,1.08-7.85,4.12-10.67,7.45c-.5,4.15,1.17,7.43,4.24,9.21.79-6.39,8.64-13.56,12.88-14.53s-1.11,2.87-2.78,4.12-6.88,6.11-7.63,9.71c.43,4.07,4.62,4.18,7.38,4.23-.3-5.59,5.2-12.9,8.76-14.67s1.11,1.13-.56,2.66-5.52,5.7-7,8.4a6.32,6.32,0,0,0,2.54,5.85c1.8,1.47,4.26,1.78,6.46,1.75-.62-3.11.36-6,1.41-9.09.64-1.88,3.44-7.18,5.33-6.91s-2.54,5.94-3.23,7.53-4,6.87-2.32,9.61S447.9,408.48,450.44,408.11Zm1.9-21.91a.89.89,0,0,1-.08,1,2.36,2.36,0,0,1-.63.63,5.15,5.15,0,0,1-2.4.95c-.65,0-1.63.09-1.73-.67-.21-1.67,2.78-2.26,3.76-2.34A1.29,1.29,0,0,1,452.34,386.2Zm2.24-6.28a.74.74,0,0,1-.45-.11c-1-.55-1.14-1.48-.31-2.42a2.36,2.36,0,0,1,1-.56,1.37,1.37,0,0,1,.8,0c.87.31,1,1,.59,1.89a2.23,2.23,0,0,1-.6.84A1.67,1.67,0,0,1,454.58,379.92Z" style="fill:#ebebeb"></path><path d="M464.51,409.4c2.05-4.09,5.23-6.71,6.93-11-1.59-2.66-9.74-3.44-9.84-6.3s4.59.38,5.94.93,5,2.22,6.18,4.08c1.43-2.3,2.6-3.26,2.35-6.69s-6.14-4.59-8.25-4.79-8.13.49-8.35-1.85,6.34-1.11,8.26-.58,6.64,1.9,8.88,3.5c.77-2.16,4.16-4.84,1.39-7.4s-12.3-2.54-15.49-2-6.17-.13-1.66-1.58,11.17.05,15.85,1.82c.7-3,1.59-6.73-2-8.29s-12.87.66-16,1.83-5.73,1-1.65-1.33,12.91-3,17.85-1.52c-.49-3.57-2.23-6.25-5-7.67s-5.85.35-8.13,1.7-6.41,6.08-8.24,3.79,10.41-8.45,11.87-8.35c-3.42-2.71-7.77-3.11-11.8-2.27s-8.45,4.66-10.4,7.95-1.09,4.13-2.42,6.95c-.07.16-.25.36-.19.48a7.22,7.22,0,0,0,1.12,1.05c.11.11.06.1.06.1a54.86,54.86,0,0,1,15.71,22.15C460.22,401.75,460.59,404.32,464.51,409.4Zm-9.93-29.48a.74.74,0,0,1-.45-.11c-1-.55-1.14-1.48-.31-2.42a2.36,2.36,0,0,1,1-.56,1.37,1.37,0,0,1,.8,0c.87.31,1,1,.59,1.89a2.23,2.23,0,0,1-.6.84A1.67,1.67,0,0,1,454.58,379.92Z" style="fill:#e6e6e6"></path><path d="M448.68,372.54a36.77,36.77,0,0,1,6.81-4.32,32,32,0,0,1,7.81-2.66s0,0,0,0a7.32,7.32,0,0,0-2.25.34c-.78.2-1.57.4-2.36.66a34.41,34.41,0,0,0-7.54,3.5,26.41,26.41,0,0,0-5.91,5.13s-.05,0-.09,0a48.4,48.4,0,0,0-5.7,1.41c-6.18,2-12.42,4.5-16.76,10.49,0,0,0,0,.05,0a21.13,21.13,0,0,1,3.7-3.68,37.88,37.88,0,0,1,8.66-4.81c1.61-.65,3.38-1.23,5.05-1.72s3.37-.84,5.06-1.2c.07,0,.07,0,.17-.07a.46.46,0,0,0,.34-.15A24.42,24.42,0,0,1,448.68,372.54Zm.5,5.8a17.11,17.11,0,0,1,3.22-2.41,30.17,30.17,0,0,1,7-2.4,28.53,28.53,0,0,1,3.87-.6,17.58,17.58,0,0,1,3.9.2s.12,0,.07-.05a13,13,0,0,0-4.28-.45,23.49,23.49,0,0,0-4,.59,29,29,0,0,0-3.81,1,18.47,18.47,0,0,0-6.66,4c-.07.06,0,.14-.08.16-1.38.53-2.91,1.08-4.26,1.72a47,47,0,0,0-7.55,4.38,22.08,22.08,0,0,0-5.44,5.51s0,0,0,0a25.23,25.23,0,0,1,3.13-3.26,49.8,49.8,0,0,1,14.43-8c.17-.06.1,0,.25-.27S448.66,378.85,449.18,378.34Zm-.05-13.1a30.19,30.19,0,0,1,4.71-4.33s.38-.22-.14.06a22,22,0,0,0-3.13,2.26,45.75,45.75,0,0,0-4.87,5.22,24.62,24.62,0,0,0-1.77,2.71c-.24.43-.32.88-.54,1.21s0,.93-.33,1c-.46.17-1-.06-1.68,0s-1.59,0-2.46.08a66.31,66.31,0,0,0-8.95.93,26.38,26.38,0,0,0-7.93,2.72s0,0,0,0a30.29,30.29,0,0,1,4.57-1.68,49.68,49.68,0,0,1,8.18-1.3c1.53-.13,2.95-.17,4.39-.24.71,0,1.55,0,2.09-.05a9.91,9.91,0,0,1,1.12,0l.91,0c.25,0,.26-.13.29-.23a17.09,17.09,0,0,1,.59-1.83,11.32,11.32,0,0,1,.76-1.42A36,36,0,0,1,449.13,365.24Zm8.12,39.53a26.43,26.43,0,0,1,.39-4c.11-.62.3-1.48.44-1.94a5,5,0,0,1,.32-1c.16-.24.09-.77.24-.76a9.74,9.74,0,0,1,1.47.45c.55.15,1.29.47,1.9.7,1.29.46,2.54,1.16,3.8,1.71,0,0,.17,0,.11-.06a40.06,40.06,0,0,0-3.65-2,18.94,18.94,0,0,0-2-.82c-.32-.11-.73-.21-1-.31a2.24,2.24,0,0,0-.89-.09c-.19,0,0,.07-.06.11s.06,0,0,0,0,0-.07,0a.74.74,0,0,0-.21.38,5.08,5.08,0,0,1-.17.54c-.08.3-.17.57-.29,1.05a19.62,19.62,0,0,0-.39,2,15.08,15.08,0,0,0,0,4S457.24,404.81,457.25,404.77Zm-5.38-22.62c.06,0,.09-.12.13-.13a20.3,20.3,0,0,1,3.19-1,31.28,31.28,0,0,1,5.74-.89,30.47,30.47,0,0,1,5.88.35s.07,0,0,0a19.39,19.39,0,0,0-3.23-.5,28.75,28.75,0,0,0-12,1.82,1,1,0,0,0-.14.11c-4.52,2.59-9.7,5.32-12.19,10.83,0,0,.06,0,.08,0C442.32,387.46,447.25,384.75,451.87,382.15ZM450.34,394a29.53,29.53,0,0,1,2.41-2.74c.85-.83,1.8-1.58,2.71-2.32,0,0,0-.06.07-.06.51,0,1-.12,1.48-.17s1.15-.08,1.71-.09a26.88,26.88,0,0,1,3.36.1,33.93,33.93,0,0,1,6.75,1.35s.05,0,0,0a27.4,27.4,0,0,0-6.63-1.76,23,23,0,0,0-3.43-.19c-.56,0-1.18.06-1.73.1s-1,.14-1.55.22c-.1,0-.23-.07-.39,0a21.15,21.15,0,0,0-2.82,2.46,28.49,28.49,0,0,0-2.28,2.65,34.05,34.05,0,0,0-2,3c-.3.51-.57,1-.83,1.5a5.44,5.44,0,0,0-.6,1.41c0,.06,0,0,.05,0a8.57,8.57,0,0,0,.84-1.23c.29-.48.58-1,.91-1.48C449,395.76,449.62,394.88,450.34,394Z" style="fill:#e0e0e0"></path><g style="opacity:0.05"><path d="M439.41,374.59c-9.23-4.25-11.56-1-19.49-1.15,3.61-2.61,8.94-4.06,12.5-3.62s4.44,1.32,7.59,1.12a1.08,1.08,0,0,0,.53-.09c.15-.11.16-.31.24-.47,1.34-2.83.5-3.64,2.42-7a19.57,19.57,0,0,1,10.37-8c-3.87,2.74-5.9,2.48-8.54,8.57s2.43,12,7.07,17.17c3.3,3.71,5.89,14.52,7.73,19.88C456.38,390.44,446.67,377.94,439.41,374.59Z"></path></g><path d="M414.87,387.28a21.72,21.72,0,0,1,2.91-3,17.5,17.5,0,0,1,2.73-8.82c.79-1.31,2.08-2.84,3-4.1a15.39,15.39,0,0,0-4.67,3.3C416,378.09,413.54,382.65,414.87,387.28Zm14.69,14.28a10.72,10.72,0,0,1,1-5.12,33.76,33.76,0,0,1-3.93-.34,10.14,10.14,0,0,1-3.34-1.39c-.21,1.05-1.18,1.4-1.08,2.69C422.54,401.16,427,401.53,429.56,401.56ZM419.7,398a11.63,11.63,0,0,1,1.75-4.88A13.17,13.17,0,0,1,418,386.3a26.29,26.29,0,0,0-2.47,2.48A9.26,9.26,0,0,0,419.7,398Zm30.73,10.1a7.18,7.18,0,0,1-1-3.35,49.82,49.82,0,0,1-8.34-2.65c0,1.51-1.11,3-.11,4.56C442.69,409.31,447.87,408.48,450.43,408.14Zm-10.62-2.66a11.14,11.14,0,0,1,0-4.07c-.29-.2-.58-.37-.86-.59-2-1.55-3.54-3.39-5.9-4-.37-.11-1.07-.42-1.36-.17a2.12,2.12,0,0,0-.9,1.4,6.27,6.27,0,0,0,2.54,5.75A9.83,9.83,0,0,0,439.81,405.48Zm14.4,2.62a38.28,38.28,0,0,0,8,1.12c-.55-.27-1-.61-1.57-.88a35.77,35.77,0,0,0-7.32-2.56c-.09,0-.29-.18-.27,0A4.22,4.22,0,0,0,454.21,408.1Z" style="fill:#fff;opacity:0.2"></path><path d="M462.48,368.11a41.85,41.85,0,0,1,7.49-.56,20.38,20.38,0,0,0-4-5.3,15.6,15.6,0,0,0-1.78-1.37,20.93,20.93,0,0,0-2.5,1.53l-2.5,1.78a11.84,11.84,0,0,1,1.8,1.68A17,17,0,0,1,462.48,368.11Zm-6.16-5.45a47.71,47.71,0,0,1,5-3.25c-3.26-1.79-10.35-1.62-12.86-1.3-1.71.22-.37.05-.39.06a15.78,15.78,0,0,0-3.94,3.73c1.22-.11,3-.46,4.07-.49a25.22,25.22,0,0,1,4.83.35A19.49,19.49,0,0,1,456.32,362.66Zm15.93,13.52a27.42,27.42,0,0,0-1.67-7.3,44.4,44.4,0,0,0-7.24.92c.24.51.46,1,.68,1.52.53,1.26,1,2.55,1.48,3.85A39.57,39.57,0,0,1,472.25,376.18Zm-7.78,33.13c.2-.68.72-1,.92-1.64.13-.41,0-.87.07-1.42a40.41,40.41,0,0,1,2.18-7c.39-1,.75-2,1.1-3q-1.22-.58-2.46-1.11c-.06.25-.13.52-.2.77a95.15,95.15,0,0,0-2.64,9.42,7,7,0,0,0-.1,2.58C463.61,408.78,464.12,408.66,464.47,409.31ZM467.36,393c.74.3,1.45.65,2.17,1,.75-2.49,1.46-5,2-7.56a32.25,32.25,0,0,0-3.85-.74c-.07,0-.2-.11-.2,0a40.32,40.32,0,0,1-.62,7.08Zm.1-9.8a32.37,32.37,0,0,1,4.39,1.28,45.32,45.32,0,0,0,.47-5.69c0-.41,0-.79,0-1.19-2.06-.25-4.12-.39-6.2-.45a43.33,43.33,0,0,1,1.2,6C467.32,383.2,467.41,383.15,467.46,383.16Z" style="fill:#fff;opacity:0.2"></path></g></g><g id="freepik--Rocks--inject-96"><polygon id="freepik--shadow--inject-96" points="339.36 452.02 348.64 453.7 354.42 457.64 359.45 457.81 364.73 459.75 370.38 454.45 376.71 452.99 384.29 452.91 387.69 456.02 393.29 457.08 400.94 452.33 408.03 442.65 396.88 442.91 379.75 447.3 386.28 444.1 371.87 430.89 332.98 440.3 328.27 445.32 339.36 452.02" style="opacity:0.1"></polygon><g id="freepik--rocks--inject-96"><g id="freepik--Rock--inject-96"><polygon points="360.16 420.07 348.73 429.24 345.14 435.44 353.18 435.87 363.69 439.61 365.74 433 360.57 427.1 360.16 420.07" style="fill:#84B8C6"></polygon><polygon points="360.16 420.07 348.73 429.24 345.14 435.44 353.18 435.87 363.69 439.61 365.74 433 360.57 427.1 360.16 420.07" style="fill:#fff;opacity:0.75"></polygon><polygon points="360.16 420.07 367.61 419.66 369.88 427.04 365.74 433 360.57 427.1 360.16 420.07" style="fill:#84B8C6"></polygon><polygon points="360.16 420.07 367.61 419.66 369.88 427.04 365.74 433 360.57 427.1 360.16 420.07" style="fill:#fff;opacity:0.6000000000000001"></polygon><polygon points="379.15 426.73 380.71 432.52 375.18 431.3 369.05 435.23 366.5 439.11 364.91 446.41 363.58 456.57 359.61 448.3 363.69 439.61 367.96 433.8 374.73 430.69 379.15 426.73" style="fill:#84B8C6"></polygon><polygon points="374.42 449.82 382.81 441.29 378.29 434.75 374.42 449.82" style="fill:#84B8C6"></polygon><g style="opacity:0.30000000000000004"><polygon points="379.15 426.73 380.71 432.52 375.18 431.3 369.05 435.23 366.5 439.11 364.91 446.41 363.58 456.57 359.61 448.3 363.69 439.61 367.96 433.8 374.73 430.69 379.15 426.73" style="fill:#fff"></polygon><polygon points="374.42 449.82 382.81 441.29 378.29 434.75 374.42 449.82" style="fill:#fff"></polygon></g><polygon points="353.49 425.42 349.55 430.96 348.8 433.92 353.22 433.72 363.69 439.61 353.18 435.87 345.14 435.44 348.73 429.24 353.49 425.42" style="fill:#84B8C6"></polygon><polygon points="367.61 419.66 368.14 426.84 364.4 431.47 365.74 433 369.88 427.04 367.61 419.66" style="fill:#84B8C6"></polygon><polygon points="359.61 448.3 353.88 447.8 342.05 445.32 334.28 440.65 336.53 436.5 340.77 435.37 337.43 437.26 337.17 440.04 341.41 442.7 358.82 446.74 363.69 439.61 359.61 448.3" style="fill:#84B8C6"></polygon><g style="opacity:0.9"><polygon points="353.49 425.42 349.55 430.96 348.8 433.92 353.22 433.72 363.69 439.61 353.18 435.87 345.14 435.44 348.73 429.24 353.49 425.42" style="fill:#fff"></polygon><polygon points="367.61 419.66 368.14 426.84 364.4 431.47 365.74 433 369.88 427.04 367.61 419.66" style="fill:#fff"></polygon><polygon points="359.61 448.3 353.88 447.8 342.05 445.32 334.28 440.65 336.53 436.5 340.77 435.37 337.43 437.26 337.17 440.04 341.41 442.7 358.82 446.74 363.69 439.61 359.61 448.3" style="fill:#fff"></polygon></g><polygon points="348.73 429.24 340.77 435.37 337.43 437.26 337.17 440.04 341.41 442.7 358.82 446.74 360.19 444.72 353.82 439.94 349.52 440.72 345.14 435.44 348.73 429.24" style="fill:#84B8C6"></polygon><polygon points="348.73 429.24 340.77 435.37 337.43 437.26 337.17 440.04 341.41 442.7 358.82 446.74 360.19 444.72 353.82 439.94 349.52 440.72 345.14 435.44 348.73 429.24" style="fill:#fff;opacity:0.6000000000000001"></polygon><polygon points="367.61 419.66 379.15 426.73 374.73 430.69 367.96 433.8 363.69 439.61 365.74 433 369.88 427.04 367.61 419.66" style="fill:#84B8C6"></polygon><polygon points="375.18 431.3 369.05 435.23 366.5 439.11 364.91 446.41 367.52 452.78 374.42 449.82 378.29 434.75 375.18 431.3" style="fill:#84B8C6"></polygon><polygon points="345.14 435.44 349.52 440.72 353.82 439.94 353.18 435.87 345.14 435.44" style="fill:#84B8C6"></polygon><polygon points="340.77 449.57 344.46 450.1 346.03 447.93 353.88 447.8 342.05 445.32 340.77 449.57" style="fill:#84B8C6"></polygon><g style="opacity:0.4"><polygon points="367.61 419.66 379.15 426.73 374.73 430.69 367.96 433.8 363.69 439.61 365.74 433 369.88 427.04 367.61 419.66" style="fill:#fff"></polygon><polygon points="375.18 431.3 369.05 435.23 366.5 439.11 364.91 446.41 367.52 452.78 374.42 449.82 378.29 434.75 375.18 431.3" style="fill:#fff"></polygon><polygon points="345.14 435.44 349.52 440.72 353.82 439.94 353.18 435.87 345.14 435.44" style="fill:#fff"></polygon><polygon points="340.77 449.57 344.46 450.1 346.03 447.93 353.88 447.8 342.05 445.32 340.77 449.57" style="fill:#fff"></polygon></g><polygon points="357.21 448.09 353.88 447.8 351.09 451.81 354.7 455.69 357.21 448.09" style="fill:#84B8C6"></polygon><polygon points="357.21 448.09 353.88 447.8 351.09 451.81 354.7 455.69 357.21 448.09" style="fill:#fff;opacity:0.6000000000000001"></polygon><polygon points="380.71 432.52 385.51 437.81 382.81 441.29 378.29 434.75 375.18 431.3 380.71 432.52" style="fill:#84B8C6"></polygon><polygon points="363.58 456.57 367.52 452.78 364.91 446.41 363.58 456.57" style="fill:#84B8C6"></polygon><polygon points="363.69 439.61 360.19 444.72 353.82 439.94 353.18 435.87 363.69 439.61" style="fill:#84B8C6"></polygon><polygon points="334.28 440.65 332.98 445.76 340.77 449.57 342.05 445.32 334.28 440.65" style="fill:#84B8C6"></polygon><polygon points="363.58 456.57 354.7 455.69 357.21 448.09 359.61 448.3 363.58 456.57" style="fill:#84B8C6"></polygon><polygon points="344.46 450.1 351.09 451.81 353.88 447.8 346.03 447.93 344.46 450.1" style="fill:#84B8C6"></polygon><g style="opacity:0.5"><polygon points="380.71 432.52 385.51 437.81 382.81 441.29 378.29 434.75 375.18 431.3 380.71 432.52" style="fill:#fff"></polygon><polygon points="363.58 456.57 367.52 452.78 364.91 446.41 363.58 456.57" style="fill:#fff"></polygon><polygon points="363.69 439.61 360.19 444.72 353.82 439.94 353.18 435.87 363.69 439.61" style="fill:#fff"></polygon><polygon points="334.28 440.65 332.98 445.76 340.77 449.57 342.05 445.32 334.28 440.65" style="fill:#fff"></polygon><polygon points="363.58 456.57 354.7 455.69 357.21 448.09 359.61 448.3 363.58 456.57" style="fill:#fff"></polygon><polygon points="344.46 450.1 351.09 451.81 353.88 447.8 346.03 447.93 344.46 450.1" style="fill:#fff"></polygon></g></g></g><g id="freepik--rocks--inject-96"><g id="freepik--rock--inject-96"><polygon points="393.01 432.09 386.25 437.52 384.12 441.19 388.88 441.45 395.1 443.67 396.32 439.75 393.26 436.25 393.01 432.09" style="fill:#84B8C6"></polygon><polygon points="393.01 432.09 386.25 437.52 384.12 441.19 388.88 441.45 395.1 443.67 396.32 439.75 393.26 436.25 393.01 432.09" style="fill:#fff;opacity:0.75"></polygon><polygon points="393.01 432.09 397.43 431.85 398.77 436.22 396.32 439.75 393.26 436.25 393.01 432.09" style="fill:#84B8C6"></polygon><polygon points="393.01 432.09 397.43 431.85 398.77 436.22 396.32 439.75 393.26 436.25 393.01 432.09" style="fill:#fff;opacity:0.6000000000000001"></polygon><polygon points="404.26 436.04 405.18 439.46 401.91 438.74 398.28 441.07 396.77 443.36 395.83 447.69 395.04 453.7 392.69 448.81 395.1 443.67 397.63 440.22 401.64 438.38 404.26 436.04" style="fill:#84B8C6"></polygon><polygon points="401.46 449.71 406.42 444.66 403.75 440.79 401.46 449.71" style="fill:#84B8C6"></polygon><g style="opacity:0.30000000000000004"><polygon points="404.26 436.04 405.18 439.46 401.91 438.74 398.28 441.07 396.77 443.36 395.83 447.69 395.04 453.7 392.69 448.81 395.1 443.67 397.63 440.22 401.64 438.38 404.26 436.04" style="fill:#fff"></polygon><polygon points="401.46 449.71 406.42 444.66 403.75 440.79 401.46 449.71" style="fill:#fff"></polygon></g><polygon points="389.06 435.26 386.74 438.54 386.29 440.29 388.9 440.18 395.1 443.67 388.88 441.45 384.12 441.19 386.25 437.52 389.06 435.26" style="fill:#84B8C6"></polygon><polygon points="397.43 431.85 397.74 436.1 395.52 438.84 396.32 439.75 398.77 436.22 397.43 431.85" style="fill:#84B8C6"></polygon><polygon points="392.69 448.81 389.29 448.51 382.29 447.04 377.69 444.28 379.02 441.82 381.54 441.15 379.56 442.27 379.4 443.92 381.91 445.49 392.22 447.88 395.1 443.67 392.69 448.81" style="fill:#84B8C6"></polygon><g style="opacity:0.9"><polygon points="389.06 435.26 386.74 438.54 386.29 440.29 388.9 440.18 395.1 443.67 388.88 441.45 384.12 441.19 386.25 437.52 389.06 435.26" style="fill:#fff"></polygon><polygon points="397.43 431.85 397.74 436.1 395.52 438.84 396.32 439.75 398.77 436.22 397.43 431.85" style="fill:#fff"></polygon><polygon points="392.69 448.81 389.29 448.51 382.29 447.04 377.69 444.28 379.02 441.82 381.54 441.15 379.56 442.27 379.4 443.92 381.91 445.49 392.22 447.88 395.1 443.67 392.69 448.81" style="fill:#fff"></polygon></g><polygon points="386.25 437.52 381.54 441.15 379.56 442.27 379.4 443.92 381.91 445.49 392.22 447.88 393.03 446.69 389.26 443.86 386.71 444.32 384.12 441.19 386.25 437.52" style="fill:#84B8C6"></polygon><polygon points="386.25 437.52 381.54 441.15 379.56 442.27 379.4 443.92 381.91 445.49 392.22 447.88 393.03 446.69 389.26 443.86 386.71 444.32 384.12 441.19 386.25 437.52" style="fill:#fff;opacity:0.6000000000000001"></polygon><polygon points="397.43 431.85 404.26 436.04 401.64 438.38 397.63 440.22 395.1 443.67 396.32 439.75 398.77 436.22 397.43 431.85" style="fill:#84B8C6"></polygon><polygon points="401.91 438.74 398.28 441.07 396.77 443.36 395.83 447.69 397.37 451.46 401.46 449.71 403.75 440.79 401.91 438.74" style="fill:#84B8C6"></polygon><polygon points="384.12 441.19 386.71 444.32 389.26 443.86 388.88 441.45 384.12 441.19" style="fill:#84B8C6"></polygon><polygon points="381.53 449.56 383.72 449.87 384.65 448.59 389.29 448.51 382.29 447.04 381.53 449.56" style="fill:#84B8C6"></polygon><g style="opacity:0.4"><polygon points="397.43 431.85 404.26 436.04 401.64 438.38 397.63 440.22 395.1 443.67 396.32 439.75 398.77 436.22 397.43 431.85" style="fill:#fff"></polygon><polygon points="401.91 438.74 398.28 441.07 396.77 443.36 395.83 447.69 397.37 451.46 401.46 449.71 403.75 440.79 401.91 438.74" style="fill:#fff"></polygon><polygon points="384.12 441.19 386.71 444.32 389.26 443.86 388.88 441.45 384.12 441.19" style="fill:#fff"></polygon><polygon points="381.53 449.56 383.72 449.87 384.65 448.59 389.29 448.51 382.29 447.04 381.53 449.56" style="fill:#fff"></polygon></g><polygon points="391.27 448.69 389.29 448.51 387.65 450.88 389.78 453.18 391.27 448.69" style="fill:#84B8C6"></polygon><polygon points="391.27 448.69 389.29 448.51 387.65 450.88 389.78 453.18 391.27 448.69" style="fill:#fff;opacity:0.6000000000000001"></polygon><polygon points="405.18 439.46 408.02 442.6 406.42 444.66 403.75 440.79 401.91 438.74 405.18 439.46" style="fill:#84B8C6"></polygon><polygon points="395.04 453.7 397.37 451.46 395.83 447.69 395.04 453.7" style="fill:#84B8C6"></polygon><polygon points="395.1 443.67 393.03 446.69 389.26 443.86 388.88 441.45 395.1 443.67" style="fill:#84B8C6"></polygon><polygon points="377.69 444.28 376.92 447.3 381.53 449.56 382.29 447.04 377.69 444.28" style="fill:#84B8C6"></polygon><polygon points="395.04 453.7 389.78 453.18 391.27 448.69 392.69 448.81 395.04 453.7" style="fill:#84B8C6"></polygon><polygon points="383.72 449.87 387.65 450.88 389.29 448.51 384.65 448.59 383.72 449.87" style="fill:#84B8C6"></polygon><g style="opacity:0.5"><polygon points="405.18 439.46 408.02 442.6 406.42 444.66 403.75 440.79 401.91 438.74 405.18 439.46" style="fill:#fff"></polygon><polygon points="395.04 453.7 397.37 451.46 395.83 447.69 395.04 453.7" style="fill:#fff"></polygon><polygon points="395.1 443.67 393.03 446.69 389.26 443.86 388.88 441.45 395.1 443.67" style="fill:#fff"></polygon><polygon points="377.69 444.28 376.92 447.3 381.53 449.56 382.29 447.04 377.69 444.28" style="fill:#fff"></polygon><polygon points="395.04 453.7 389.78 453.18 391.27 448.69 392.69 448.81 395.04 453.7" style="fill:#fff"></polygon><polygon points="383.72 449.87 387.65 450.88 389.29 448.51 384.65 448.59 383.72 449.87" style="fill:#fff"></polygon></g></g></g></g></g><g id="freepik--character-1--inject-96"><g id="freepik--Character--inject-96"><g id="freepik--Kite--inject-96"><path d="M380.36,195.91c-9.68-4.88-20.7-6.71-29.83-12.72-4.52-3-8.56-6.8-10.82-11.79,0-.12-.18.09-.15.17,3.09,8.82,11.24,14.14,19.5,17.58,9.94,4.13,21,6.4,29.32,13.71a23.45,23.45,0,0,1,8,13.49c.08.52.54.2.5-.21C395.87,206.84,388.3,199.92,380.36,195.91ZM380.3,214a127.09,127.09,0,0,0-16.16-11.15c-5.39-3.32-11.09-6.56-15.74-10.9a28.72,28.72,0,0,1-6.16-8.6c-1.57-3.28-2.52-6.76-3.84-10.13-.08-.2-.25,0-.22.16,1.12,5.63,3,11.64,6.51,16.28,3.63,4.86,8.92,8.24,14,11.45,10.18,6.46,21.35,12.3,28.61,22.26,4.44,6.1,7.16,13.36,6.54,21,0,.49.66,1,.78.3C396.64,232.69,389,221.42,380.3,214Z" style="fill:#84B8C6"></path><path d="M380.36,195.91c-9.68-4.88-20.7-6.71-29.83-12.72-4.52-3-8.56-6.8-10.82-11.79,0-.12-.18.09-.15.17,3.09,8.82,11.24,14.14,19.5,17.58,9.94,4.13,21,6.4,29.32,13.71a23.45,23.45,0,0,1,8,13.49c.08.52.54.2.5-.21C395.87,206.84,388.3,199.92,380.36,195.91ZM380.3,214a127.09,127.09,0,0,0-16.16-11.15c-5.39-3.32-11.09-6.56-15.74-10.9a28.72,28.72,0,0,1-6.16-8.6c-1.57-3.28-2.52-6.76-3.84-10.13-.08-.2-.25,0-.22.16,1.12,5.63,3,11.64,6.51,16.28,3.63,4.86,8.92,8.24,14,11.45,10.18,6.46,21.35,12.3,28.61,22.26,4.44,6.1,7.16,13.36,6.54,21,0,.49.66,1,.78.3C396.64,232.69,389,221.42,380.3,214Z" style="fill:#fff;opacity:0.6000000000000001"></path><g id="freepik--kite--inject-96"><path d="M305.61,112.74c-14.09,3.46-21.24,10.84-21.36,22.2l54.1,34.51,22.79-19.71Q338.79,128.37,305.61,112.74Z" style="fill:#84B8C6"></path><path d="M305.61,112.74c-14.09,3.46-21.24,10.84-21.36,22.2l54.1,34.51,22.79-19.71Q338.79,128.37,305.61,112.74Z" style="fill:#fff;opacity:0.6000000000000001"></path><path d="M331,139.54c-5-5-16.92-12-18.42-14.65,1.5,2.6-4.31,6.19-4,10.34s7.64,11.5,17.72,13.44S336,144.58,331,139.54Z" style="fill:#84B8C6;opacity:0.5"></path><path d="M325.43,147.08a18.7,18.7,0,0,1-8.12-3.7c-2.1-1.68-3.52-3.68-3.63-5.11s.94-3,1.87-4.3a14.46,14.46,0,0,0,1.21-1.91c1.14.88,2.5,1.85,4,2.91a71.23,71.23,0,0,1,7.92,6.18c1.73,1.74,2.55,3.63,2.11,4.82C330.44,146.88,329.24,147.81,325.43,147.08Z" style="fill:#84B8C6"></path><path d="M356.17,145.19c-1.49.37-1.93,1.65-.91,3.42a11.29,11.29,0,0,0,3.31,3.35l2.57-2.22Q358.73,147.43,356.17,145.19Z" style="fill:#84B8C6"></path><path d="M290.34,138.83c.5-.62.47-1.58-.21-2.76a13.26,13.26,0,0,0-5.58-4.67,23.8,23.8,0,0,0-.3,3.54Z" style="fill:#84B8C6"></path><path d="M305.61,112.74a48.24,48.24,0,0,0-5.83,1.83,22.26,22.26,0,0,0,9.76,5c3.33.64,5.41-.21,5.72-2Q310.55,115.08,305.61,112.74Z" style="fill:#84B8C6"></path><path d="M352,178.52l-13.61-9.07-5.23,5.44C340.63,179.9,349.07,181.52,352,178.52Z" style="fill:#84B8C6"></path><path d="M361.14,150.05A.37.37,0,0,1,361,150c-14.71-9.81-36.41-16.88-44.76-18.48-10-1.93-26.58-1.73-31.74,3.63a.3.3,0,0,1-.44,0,.3.3,0,0,1,0-.43c5.75-6,23.87-5.44,32.3-3.82s30.2,8.72,45,18.58a.31.31,0,0,1,.09.42A.31.31,0,0,1,361.14,150.05Z" style="fill:#fafafa"></path><path d="M338.35,169.76a.31.31,0,0,1-.27-.15L305.34,112.9a.32.32,0,0,1,.11-.42.3.3,0,0,1,.42.11l32.74,56.71a.3.3,0,0,1-.11.42A.28.28,0,0,1,338.35,169.76Z" style="fill:#fafafa"></path></g><path d="M235.16,163.55a159.89,159.89,0,0,1-38.33-4.66.48.48,0,1,1,.23-.93c47.78,11.87,100,0,118.82-27a.48.48,0,0,1,.67-.12.49.49,0,0,1,.12.67c-9.4,13.46-27,23.63-49.54,28.65A148.08,148.08,0,0,1,235.16,163.55Z" style="fill:#e0e0e0"></path></g><g id="freepik--kite--inject-96"><path d="M374.13,64.11a21.45,21.45,0,0,0-9.31-3.78,28.88,28.88,0,0,0-10.48.46C347.21,62.38,341,66.27,335.52,71c-5.75,5-10.58,10.83-15.81,16.32s-12.45,10-20,11.47a20.25,20.25,0,0,1-12.57-1.35c-3.83-1.85-6.35-5-8.27-8.74-.24-.45-.59,0-.51.34,1.75,7.38,9.25,11.77,16.42,12.21,7.73.47,15.38-3.08,21.49-7.56a58.28,58.28,0,0,0,8.57-8.27c2.53-2.81,5-5.65,7.64-8.37,5.23-5.4,11.11-10.47,18.19-13.24C358,61,366.94,60.37,374,64.39,374.12,64.46,374.23,64.18,374.13,64.11Z" style="fill:#84B8C6"></path><path d="M374.13,64.11a21.45,21.45,0,0,0-9.31-3.78,28.88,28.88,0,0,0-10.48.46C347.21,62.38,341,66.27,335.52,71c-5.75,5-10.58,10.83-15.81,16.32s-12.45,10-20,11.47a20.25,20.25,0,0,1-12.57-1.35c-3.83-1.85-6.35-5-8.27-8.74-.24-.45-.59,0-.51.34,1.75,7.38,9.25,11.77,16.42,12.21,7.73.47,15.38-3.08,21.49-7.56a58.28,58.28,0,0,0,8.57-8.27c2.53-2.81,5-5.65,7.64-8.37,5.23-5.4,11.11-10.47,18.19-13.24C358,61,366.94,60.37,374,64.39,374.12,64.46,374.23,64.18,374.13,64.11Z" style="opacity:0.30000000000000004"></path><path d="M388.05,85.45c-11-10-27.67-9.56-41.23-6.34-15.9,3.78-30.91,11.5-47.44,12.36-8.2.42-17.63-.75-23.74-6.8-.12-.12-.23.22-.16.32,4.31,5.83,12,7.7,18.89,8.19,8,.58,16-.83,23.77-2.92,14.79-4,29.19-10.77,44.74-11,8.88-.14,17.54,1.94,24.86,7C388.18,86.61,388.32,85.69,388.05,85.45Z" style="fill:#84B8C6"></path><path d="M388.05,85.45c-11-10-27.67-9.56-41.23-6.34-15.9,3.78-30.91,11.5-47.44,12.36-8.2.42-17.63-.75-23.74-6.8-.12-.12-.23.22-.16.32,4.31,5.83,12,7.7,18.89,8.19,8,.58,16-.83,23.77-2.92,14.79-4,29.19-10.77,44.74-11,8.88-.14,17.54,1.94,24.86,7C388.18,86.61,388.32,85.69,388.05,85.45Z" style="opacity:0.15"></path><g id="freepik--kite--inject-96"><path d="M232.68,10.45c-18.53,4.56-27.94,14.26-28.09,29.2L275.74,85l30-25.93Q276.32,31,232.68,10.45Z" style="fill:#84B8C6"></path><path d="M232.68,10.45c-18.53,4.56-27.94,14.26-28.09,29.2L275.74,85l30-25.93Q276.32,31,232.68,10.45Z" style="opacity:0.30000000000000004"></path><path d="M294.28,69h0L292,71c-11.16-11.63-33-30.09-46.18-37.85-6.41,4-9.72,17.61-8.56,27.31L231.73,57c-1.83-10.8,2.45-27.75,10.7-29.62C255.16,33.24,282.53,56.29,294.28,69Z" style="fill:#84B8C6"></path><path d="M299.18,53.13c-2,.49-2.54,2.17-1.2,4.5A15,15,0,0,0,302.34,62l3.38-2.93C303.6,57.09,301.41,55.1,299.18,53.13Z" style="fill:#84B8C6"></path><path d="M212.6,44.77c.65-.82.62-2.08-.28-3.63C211,38.81,208.08,36.47,205,35a31.58,31.58,0,0,0-.39,4.65Z" style="fill:#84B8C6"></path><path d="M232.68,10.45a62.25,62.25,0,0,0-7.66,2.4,29.14,29.14,0,0,0,12.84,6.57c4.38.85,7.11-.28,7.51-2.65Q239.18,13.53,232.68,10.45Z" style="fill:#84B8C6"></path><path d="M293.64,97,275.74,85l-6.88,7.16C278.74,98.78,289.84,100.92,293.64,97Z" style="fill:#84B8C6"></path><path d="M305.72,59.52a.36.36,0,0,1-.22-.07c-19.36-12.89-47.89-22.19-58.87-24.3-13.14-2.53-35-2.28-41.75,4.78a.41.41,0,0,1-.59-.56c7.58-7.87,31.41-7.15,42.49-5S286.5,45.82,306,58.78a.41.41,0,0,1,.11.56A.43.43,0,0,1,305.72,59.52Z" style="fill:#fafafa"></path><path d="M275.74,85.45a.42.42,0,0,1-.35-.21L232.33,10.66a.41.41,0,0,1,.7-.41l43.06,74.59a.4.4,0,0,1-.15.55A.36.36,0,0,1,275.74,85.45Z" style="fill:#fafafa"></path></g><path d="M197,153.85a.51.51,0,0,1-.43-.26.49.49,0,0,1,.22-.65C219,141.77,236.11,122.27,244.86,98c7.74-21.42,8.26-45,1.4-63.11a.48.48,0,1,1,.89-.34c6.95,18.31,6.43,42.15-1.39,63.78-8.83,24.46-26.08,44.15-48.57,55.44A.59.59,0,0,1,197,153.85Z" style="fill:#e0e0e0"></path></g><g id="freepik--Bottom--inject-96"><path d="M161.36,322.3l2.38,2.11a15.13,15.13,0,0,1-2.55,7.1c-3.79,6-9.35,6.43-9.35,6.43l-2.12-1.4s-.9,2.13,1.79,3.83c2,1.29,8.47,4.57,12.83,7.19a14.87,14.87,0,0,1,6.28,6.42c1.63,3.29,3.32,11.45,3.46,14.9s-1.29,12.16,3.64,14c2,.75,6.32-.67,8.88-4.41,3.89-5.69,4.8-9.18,4.36-15.53s-2.93-7.16-1.55-13.6.44-9.89-1.17-11.67c-3.11-2.54-6.27-3.29-10.67-4.57-5.62-1.64-8.84-6.64-12.22-9.13C161.69,321.24,161.36,322.3,161.36,322.3Z" style="fill:#c8856a"></path><path d="M179.83,333.72a73.75,73.75,0,0,0,2.34,8.81c.9,2.93,2.55,17.19,1.85,17.71s-.89-2.74-2.1-6.38c-1.12-3.38-2.18-6.24-3.15-6.94s-9.26,5.32-9.74,6.53,1.29,4.7,2.05,9.89a101.06,101.06,0,0,1,1.22,20.1c-.17,4.65,3.84,5.16,5.9,5.32s8.56-4.34,12-12.24,1.72-13.59,1.12-17.64-1.19-4.89.3-8.57,2-9.43-.23-12.66c-1.55-1.82-4.88-3-7.26-3.6s-4.32-1.59-5.34-1.78a1.39,1.39,0,0,0-1.46.71Z" style="fill:#37474f"></path><path d="M104.81,237.49s-1.54,9.89-2,28.49c-.33,12.78-1.09,25.87-.66,36.74.28,7.12,4,10.26,11.75,15.81,14,10,39.14,25.66,45.1,29,0,0,11.13-4.45,11.13-20.25l-32.3-26.78,15.66-56.89Z" style="fill:#84B8C6"></path><path d="M104.81,237.49s-1.54,9.89-2,28.49c-.33,12.78-1.09,25.87-.66,36.74.28,7.12,4,10.26,11.75,15.81,14,10,39.14,25.66,45.1,29,0,0,11.13-4.45,11.13-20.25l-32.3-26.78,15.66-56.89Z" style="fill:#fff;opacity:0.75"></path><path d="M143.39,305.1l6.3,5.22-4.48,10.09s.29,10.29-1.2,18c0,0-7.9-5-8-5.05Z" style="fill:#84B8C6;opacity:0.30000000000000004"></path><path d="M109.09,243.36S105.67,248,110.55,256a24.32,24.32,0,0,0,6.89,7.17s-2.49,27.47-3.19,38c-.49,7.4-.38,17.34-.38,17.34l10.07-57.38Z" style="fill:#84B8C6;opacity:0.30000000000000004"></path><path d="M130.41,371.84l-.95,2.73s-1.49,1.2-9.35,1.39-9-3.65-9-3.65v-2.18s-2.31-.39-2.75,3.44c-.31,2.74-.45,6.94-1.79,14.69a18.36,18.36,0,0,1-3.79,9.26c-2.37,3.26-8.74,9.27-11.67,11.68-3.64,3-13.75,6.73-12.06,9.94.28,2.33,3.87,5.8,8.81,6.39,7.53.88,11.4,0,17.36-3.69s5.47-6.51,12.44-8.46,9.86-4.63,10.77-7.1c.88-4.32-1.43-8.11-1.63-13.15s2.34-12.57,3.45-16.57C131.71,371.29,130.41,371.84,130.41,371.84Z" style="fill:#c8856a"></path><path d="M127,395.23a73.16,73.16,0,0,0-6.89,6.83c-2.1,2.41-13.77,11.74-14.61,11.41s1.93-2.3,4.47-5.38c2.36-2.86,4.3-5.37,4.39-6.61s-9.81-5.24-11.14-5-4.26,3.76-7.59,7.27c-6.74,7.09-12.4,9.47-17.08,12.17-4.19,2.42-2.43,6.24-1.43,8.14s8.55,5.17,17.4,3.8,12.94-6,16.18-8.75,3.67-3.75,7.73-4.46,9.45-3.42,11-7.2c.75-2.37,0-6-.83-8.39s-.37-4.91-.77-5.9a2.28,2.28,0,0,0-1.08-1.29A17.37,17.37,0,0,0,127,395.23Z" style="fill:#37474f"></path><path d="M105.41,383s2.37-50.75,5.18-71.55c2.56-18.94,10.71-49.77,10.71-49.77a26.56,26.56,0,0,1-10.75-8.43,21.71,21.71,0,0,1-3.84-9l-1.9-6.77,54.38-3.36c.95,9.55,3.11,19.25,1.71,28.1-3.14,19.77-19.16,57.88-19.16,57.88.3,2.74.3,10.81-2.07,21.1C135.93,357.44,132,375.5,129,386.33,114.67,391,105.41,383,105.41,383Z" style="fill:#84B8C6"></path><g style="opacity:0.8"><path d="M105.41,383s2.37-50.75,5.18-71.55c2.56-18.94,10.71-49.77,10.71-49.77a26.56,26.56,0,0,1-10.75-8.43,21.71,21.71,0,0,1-3.84-9l-1.9-6.77,54.38-3.36c.95,9.55,3.11,19.25,1.71,28.1-3.14,19.77-19.16,57.88-19.16,57.88.3,2.74.3,10.81-2.07,21.1C135.93,357.44,132,375.5,129,386.33,114.67,391,105.41,383,105.41,383Z" style="fill:#fff"></path></g></g><g id="freepik--Top--inject-96"><g id="freepik--Arm--inject-96"><path d="M60.32,246.27c-4.81,2.79-10.93-4.74-10.93-9.83s.41-7,2.45-9,8.58.44,10.47,4.23S65.17,243.48,60.32,246.27Z" style="fill:#84B8C6"></path><path d="M60.32,246.27c-4.81,2.79-10.93-4.74-10.93-9.83s.41-7,2.45-9,8.58.44,10.47,4.23S65.17,243.48,60.32,246.27Z" style="opacity:0.30000000000000004"></path><path d="M20.79,241.45a1.61,1.61,0,0,1,.83-.62c.75-.25,1.55-.17,2.33-.41a26.08,26.08,0,0,1,2.91-.66c2.05-.41,4.1-.75,6.11-1.32,1.25-.36,4.65-1.11,5.05-2.73.28-1.08-3.29-.42-5.73-1.22s-3.3-3.71-.41-3.75c2,0,4.55-.43,8.7-.91s6.48,0,9.31-1.11c2-.79,6.56-4.15,10.15-7l5.78,16-7.44,4.2c-4.1,2.36-6.7,5.35-14.43,7.83a20.52,20.52,0,0,1-8.72.44,7.77,7.77,0,0,1-2.56-.73,3.29,3.29,0,0,1-1.67-2,4.41,4.41,0,0,1-5-2,1,1,0,0,0-.42-.5.81.81,0,0,0-.44-.05,5.23,5.23,0,0,1-4-1.83,1.75,1.75,0,0,1-.46-1A1,1,0,0,1,20.79,241.45Z" style="fill:#c8856a"></path><path d="M60.32,246.27C70.19,239.38,76,235.86,86.18,229c5-3.38,8.8-9.09,9.75-10.52,8-12,11.23-18.69,11.23-18.69l3.94-35c-8,1.65-11.9,2.8-16.78,11.49-3.62,6.43-18.54,33.35-18.54,33.35s-22.54,16.65-23.94,17.76C57,225,65.82,240,60.32,246.27Z" style="fill:#84B8C6"></path><g style="opacity:0.15"><path d="M60.32,246.27C70.19,239.38,76,235.86,86.18,229c5-3.38,8.8-9.09,9.75-10.52,8-12,11.23-18.69,11.23-18.69l3.94-35c-8,1.65-11.9,2.8-16.78,11.49-3.62,6.43-18.54,33.35-18.54,33.35s-22.54,16.65-23.94,17.76C57,225,65.82,240,60.32,246.27Z"></path></g></g><g id="freepik--Chest--inject-96"><path d="M100.68,199c-1.85-15.27-2.51-30.6,9.27-33.87a71.08,71.08,0,0,1,18.35-1.56c7.55.38,12.6.76,17.5,1.36,0,0,6.61,1.27,13.17,38.85,2.43,13.88,2.74,33.69,2.94,50.07-11.88,6.35-52.1,10.21-59.92-2.39A293.61,293.61,0,0,0,100.68,199Z" style="fill:#84B8C6"></path><path d="M138.61,164.2l-1.54-.12a20.49,20.49,0,0,1-7.42,6.16,20.89,20.89,0,0,1-8.41,2l-.56,0-.09.56c0,.09-.26,12.6-.63,14.62-.17,1-.79,1.33-1.15,1.26-.1,0-.12-.06-.18-.31-.39-1.77.1-15.52.11-15.62l.09-.54-.53-.16c-.74-.22-2.78-.74-3.61-2.08s-.59-4.07-.06-5.67l-1.23.18c-.65,2-.88,4.63.28,6.24a7.18,7.18,0,0,0,3.74,2.36c-.31,2.1-.23,13.48,0,15.12.11.89.39,1.59,1.24,1.73a2,2,0,0,0,.42,0,2.55,2.55,0,0,0,2.16-2.3c.33-1.76.25-12.17.55-14.11a22.1,22.1,0,0,0,8.45-2.1A19.57,19.57,0,0,0,138.61,164.2Z" style="fill:#37474f"></path><g id="freepik--Head--inject-96"><path d="M110.34,124.25c-11,4.49-3.17,18.69-.35,27.36,1.14,2.51,4.13,5.22,6.66,5.22l.71-7.39L116.8,144s3.25-5,3.43-8.9c.23-5.07-.94-7.08-.94-7.08C117.48,126.78,112.37,125.26,110.34,124.25Z" style="fill:#263238"></path><path d="M119.19,132.69A14.64,14.64,0,1,0,133,117.26,14.62,14.62,0,0,0,119.19,132.69Z" style="fill:#263238"></path><path d="M110.34,124.25c1-6.17,7.85-11.24,15.39-11.91s22.12,2.93,19.15,12.59S113.05,132.75,110.34,124.25Z" style="fill:#263238"></path><path d="M109.06,151.42a4.84,4.84,0,0,0,6.06-.34l1,13.48c-2.73,6.81,11,8.84,19.22-.59l-.17-3.34a30.09,30.09,0,0,0,5.67-.32c3.57-.75,5.68-3.72,6.55-7.66,1.4-6.34.5-15.71-2.54-27.72-4.19-2.91-17.42-2.7-25.59,3.09.78,7.13-.2,9.65-.4,10.74s-1.43,4-2.34,4.17c-1.71.35-2.07-1.5-3.23-2.59a4.54,4.54,0,0,0-6.32,1.23C104.8,145.07,106.84,150,109.06,151.42Z" style="fill:#c8856a"></path><path d="M135.2,160.63c-5.76-.26-13-2.55-15-5.08a19.23,19.23,0,0,1-2.75-4.63s.45,4.51,2,6.73,6.93,5.57,15.93,5.71Z" style="fill:#af6152"></path><path d="M130.8,139.49a1.61,1.61,0,1,1-1.7-1.59A1.63,1.63,0,0,1,130.8,139.49Z" style="fill:#263238"></path><path d="M130.2,132.89l-3.53,1.73a2.07,2.07,0,0,1,.93-2.7A1.92,1.92,0,0,1,130.2,132.89Z" style="fill:#263238"></path><path d="M144.52,133.49l-3.88-.78a1.91,1.91,0,0,1,2.26-1.59A2.09,2.09,0,0,1,144.52,133.49Z" style="fill:#263238"></path><path d="M144.94,138.54a1.61,1.61,0,1,1-1.7-1.59A1.64,1.64,0,0,1,144.94,138.54Z" style="fill:#263238"></path><path d="M122.52,134.6l-12.18,5a4.06,4.06,0,0,1,3.64,1.48l8.62-3.73Z" style="fill:#37474f"></path><path d="M151,132.72l-.81-.05a23.73,23.73,0,0,0-8.08.78c-2.55,1-3.43,1.92-4.86,2s-2.53-.75-5.3-1.37c-2.21-.49-5.86-.18-8.64.28l-.87.16a1.47,1.47,0,0,0-.92,1.53,3.29,3.29,0,0,0,.87,1.65,2,2,0,0,1,.31.66,19.12,19.12,0,0,0,1.08,3.74,5.74,5.74,0,0,0,1.15,1.62,4.34,4.34,0,0,0,.58.46l.33.21a6.27,6.27,0,0,0,1,.41.86.86,0,0,1,.17,0,1.1,1.1,0,0,0,.26.06,1.16,1.16,0,0,0,.28.05,4.52,4.52,0,0,0,.85.09h.83a6.14,6.14,0,0,0,5.81-3.88c.84-1.83.64-3.45,2.27-3.54h.16l.15,0c1.21.22,1.15,1.64,2,3.25a6.86,6.86,0,0,0,1.21,1.75l.29.26.15.12.15.12.15.1.16.1.12.07.09,0a4.85,4.85,0,0,0,1.42.49l.14,0a7.37,7.37,0,0,0,1.73.07,5.22,5.22,0,0,0,4.92-3.58,21.59,21.59,0,0,0,.86-3.88,1.48,1.48,0,0,1,.29-.63,3.43,3.43,0,0,0,.69-1.78C151.94,133.41,151.44,132.75,151,132.72Zm-26.8,6.95c-.25-1-.59-2.76,0-3.35s2.18-1.26,4.84-1.17a2.43,2.43,0,0,1,.27,0c.41,0,.82.07,1.22.14.16,0,.32.06.47.09a9.64,9.64,0,0,1,1.18.32,2.32,2.32,0,0,1,.37.13l.4.16.07,0,.15.07a2.4,2.4,0,0,1,.81.6c.54.73.34,1.47.07,2.87a5.51,5.51,0,0,1-1.17,2.55,5.06,5.06,0,0,1-3.83,1.67,4.06,4.06,0,0,1-3.76-1.57A8.5,8.5,0,0,1,124.19,139.67Zm25.38-1.61c-.18,1-.56,3.11-2.39,4.14a4.4,4.4,0,0,1-2,.56,4.15,4.15,0,0,1-4-1.61v0l-.08-.1-.08-.13,0-.07-.11-.19a1.63,1.63,0,0,1-.11-.23.47.47,0,0,1-.05-.1l0-.06,0-.1a.19.19,0,0,1,0-.07,7.68,7.68,0,0,1-.29-.9c-.3-1.37-.52-2.09,0-2.88s2.4-1.77,4.27-2.12a12.08,12.08,0,0,1,1.21-.17H146l.58,0h.34l.33,0a5.5,5.5,0,0,1,.62.08l.15,0h0l.09,0,.15,0,.18,0c.11,0,.21.06.29.1l.06,0a2.34,2.34,0,0,1,.66.38C150,135.21,149.79,136.8,149.57,138.06Z" style="fill:#37474f"></path><path d="M143.77,146.1l-6.12,2.22L136.29,138a1.47,1.47,0,0,1,1-.4h.15l.15,0a.61.61,0,0,1,.33.13C138,137.83,143.77,146.1,143.77,146.1Z" style="fill:#af6152"></path><path d="M131.29,149.15l6.6,2a3.37,3.37,0,0,1-4.21,2.44A3.61,3.61,0,0,1,131.29,149.15Z" style="fill:#af6152"></path><path d="M132,150.31a3.9,3.9,0,0,0-.83-.05,3.56,3.56,0,0,0,2.49,3.29,3.38,3.38,0,0,0,1.09.12A3.14,3.14,0,0,0,132,150.31Z" style="fill:#ffa8a7"></path></g></g><path d="M192.83,181.52c1.89-3.86,8.79-2.87,13.52,3.74,3.6,5,3.69,8.13,2.47,10.79s-6.4,4.18-12.87-1.73S191.91,183.11,192.83,181.52Z" style="fill:#84B8C6"></path><path d="M192.83,181.52c1.89-3.86,8.79-2.87,13.52,3.74,3.6,5,3.69,8.13,2.47,10.79s-6.4,4.18-12.87-1.73S191.91,183.11,192.83,181.52Z" style="opacity:0.30000000000000004"></path><path d="M206.05,158.67c-1.26-5.12-2.11-4.33-3.41-5-4.24-2.11-5.3-2.37-6.48-2.42a2.11,2.11,0,0,0-1.79,1c-1.11-.59-2.61-1.69-4-.15a5.73,5.73,0,0,0-1,1.3,1.35,1.35,0,0,0-.92-.09c-1.54.39-2.46,4.81-2.12,6.28.24,1,1.11,1.76,2.44,2.44,1.13.59,1.39-.8,1.39-.8l1.38,1.1c1.57,4.4-1.72,7.8,2.87,12.4,1,1-4.37,14.58-8.81,23.73,0,0-11-10.69-21.45-21.35-8.16-8.32-10.06-10-15.95-9.77-5.37,7.23-4.26,15.57,1.81,27.8,0,0,20.57,18.66,32.21,25.57,7.81,4.63,12.08,1.76,15.49-3.95l0,0c3.66-5.82,5-16,8-29.72C209.85,168.47,207,162.56,206.05,158.67Z" style="fill:#c8856a"></path><path d="M194.37,152.24l5.2,2.27-4.66-2.84A2.24,2.24,0,0,0,194.37,152.24Z" style="fill:#af6152"></path><path d="M189.39,153.39l5.72,3-5.3-3.61A4.2,4.2,0,0,0,189.39,153.39Z" style="fill:#af6152"></path><path d="M188.47,156.18a2,2,0,0,0,.28,1.11,3.83,3.83,0,0,0,.68.93l0-.1c0,.37-.09.75-.12,1.12l.2-.06a1.25,1.25,0,0,0-1-.38,1.69,1.69,0,0,0-.94.36,1.94,1.94,0,0,1,.93-.19,1.29,1.29,0,0,1,.81.36l.17.19,0-.25c.05-.37.1-.75.13-1.12v-.06l0,0a6.4,6.4,0,0,1-.71-.85A2.48,2.48,0,0,1,188.47,156.18Z" style="fill:#af6152"></path><path d="M189.39,157.83a21,21,0,0,0,1.8,1.46,2.54,2.54,0,0,0-.05,1.47,13.2,13.2,0,0,0,.42,1.56l-1.38-1.1a2.83,2.83,0,0,0-1-2.05Z" style="fill:#af6152"></path><path d="M167.83,211.13c-3.69-2.59-19.11-16.44-19.11-16.44S137,179.15,145.8,164.92A23.11,23.11,0,0,1,158.9,171c4,3.77,26.72,25.33,26.72,25.33l7.21-14.85s-2.47,6.23,4.66,12.09,10.6,3.89,11.33,2.44c-7.1,15.71-12.63,25.38-15.85,26.72-5.35,2.24-8.34.19-13.29-2.68C176,218,172.63,215,167.83,211.13Z" style="fill:#84B8C6"></path><path d="M167.83,211.13c-3.69-2.59-19.11-16.44-19.11-16.44S137,179.15,145.8,164.92A23.11,23.11,0,0,1,158.9,171c4,3.77,26.72,25.33,26.72,25.33l7.21-14.85s-2.47,6.23,4.66,12.09,10.6,3.89,11.33,2.44c-7.1,15.71-12.63,25.38-15.85,26.72-5.35,2.24-8.34.19-13.29-2.68C176,218,172.63,215,167.83,211.13Z" style="opacity:0.15"></path><path d="M185.62,196.37c-3.33,6.41-3.27,14.89-1.89,17.63-3.52-5.29-3.27-14.06.17-19.26Z" style="opacity:0.30000000000000004"></path><path d="M52.65,240.58a73.51,73.51,0,0,1-8.71-.49.49.49,0,0,1-.42-.54.48.48,0,0,1,.53-.41c20.86,2.49,50.37-4.69,79-19.2,30.56-15.53,55.25-37.18,67.72-59.42a.48.48,0,0,1,.84.47c-12.57,22.4-37.4,44.19-68.13,59.8C98.47,233.47,72.76,240.58,52.65,240.58Z" style="fill:#e0e0e0"></path><path d="M15.14,230.34a1,1,0,0,0,.51,1.31L27.87,237a.48.48,0,0,0,.49-.11,1.54,1.54,0,0,0,.56-1.28.5.5,0,0,0-.25-.43l-12.22-5.36A1,1,0,0,0,15.14,230.34Z" style="fill:#263238"></path><path d="M25.89,242.64a3.49,3.49,0,0,0,3.43-.73,10.9,10.9,0,0,0,4-9,3.46,3.46,0,0,0-1.79-3l-1.23-.54a3.49,3.49,0,0,0-3.43.73,10.9,10.9,0,0,0-4,9,3.47,3.47,0,0,0,1.79,3Z" style="fill:#37474f"></path><path d="M33.28,232.88a3.46,3.46,0,0,0-1.79-3,3.49,3.49,0,0,0-3.43.73,10.93,10.93,0,0,0-4,9,3.5,3.5,0,0,0,1.79,3,3.49,3.49,0,0,0,3.43-.73A10.9,10.9,0,0,0,33.28,232.88Z" style="fill:#455a64"></path><path d="M40.49,247.47a2.74,2.74,0,0,0,2.72-.58,8.61,8.61,0,0,0,3.15-7.17,2.74,2.74,0,0,0-1.42-2.39l-13.8-6.05a2.74,2.74,0,0,0-2.72.57A8.7,8.7,0,0,0,25.27,239a2.75,2.75,0,0,0,1.42,2.39Z" style="fill:#f0f0f0"></path><path d="M46.36,239.72a2.74,2.74,0,0,0-1.42-2.39,2.74,2.74,0,0,0-2.72.57,8.7,8.7,0,0,0-3.15,7.18,2.75,2.75,0,0,0,1.42,2.39,2.74,2.74,0,0,0,2.72-.58A8.61,8.61,0,0,0,46.36,239.72Z" style="fill:#455a64"></path><path d="M38.66,236.34a8.21,8.21,0,0,0-1.73,2.12,9.86,9.86,0,0,0-1,2.51,7.13,7.13,0,0,0-.24,2.68,2.76,2.76,0,0,0,1.28,2.26,2.72,2.72,0,0,1-1.52-2.23,7.09,7.09,0,0,1,.19-2.79A7.93,7.93,0,0,1,38.66,236.34Z" style="fill:#e0e0e0"></path><path d="M39.69,235a2.79,2.79,0,0,0-2.54.59,7.17,7.17,0,0,0-1.8,2,9.33,9.33,0,0,0-1.14,2.46,8,8,0,0,0-.39,2.7,7.93,7.93,0,0,1,1.27-5.32,6.92,6.92,0,0,1,1.93-2A2.72,2.72,0,0,1,39.69,235Z" style="fill:#e0e0e0"></path><path d="M35.27,234.86A8.28,8.28,0,0,0,34,236.38a9.63,9.63,0,0,0-1,1.75,10.62,10.62,0,0,0-.64,1.9,8.88,8.88,0,0,0-.22,2,7.6,7.6,0,0,1,3.15-7.17Z" style="fill:#e0e0e0"></path><path d="M36.3,233.54a2.77,2.77,0,0,0-2.53.58,7.2,7.2,0,0,0-1.81,2,10.08,10.08,0,0,0-1.14,2.47,8.18,8.18,0,0,0-.39,2.7A8,8,0,0,1,31.7,236a7.18,7.18,0,0,1,1.93-2A2.7,2.7,0,0,1,36.3,233.54Z" style="fill:#e0e0e0"></path><path d="M31.88,233.37a8,8,0,0,0-1.72,2.12,9.51,9.51,0,0,0-1,2.51,7.35,7.35,0,0,0-.25,2.68,2.77,2.77,0,0,0,1.29,2.26,2.7,2.7,0,0,1-1.52-2.23,6.91,6.91,0,0,1,.19-2.79A8,8,0,0,1,31.88,233.37Z" style="fill:#e0e0e0"></path><path d="M30.19,232.63a8.74,8.74,0,0,0-1.33,1.52,9.59,9.59,0,0,0-1,1.75,9.88,9.88,0,0,0-.64,1.9,8.88,8.88,0,0,0-.22,2,7.6,7.6,0,0,1,3.15-7.17Z" style="fill:#e0e0e0"></path><path d="M40,248.84a3.44,3.44,0,0,0,3.43-.73,10.89,10.89,0,0,0,4-9,3.44,3.44,0,0,0-1.79-3l-1.23-.54a3.46,3.46,0,0,0-3.43.72,10.92,10.92,0,0,0-4,9,3.44,3.44,0,0,0,1.79,3Z" style="fill:#37474f"></path><path d="M47.43,239.08a3.44,3.44,0,0,0-1.79-3,3.43,3.43,0,0,0-3.42.72,10.93,10.93,0,0,0-4,9,3.48,3.48,0,0,0,1.79,3,3.44,3.44,0,0,0,3.43-.73A10.89,10.89,0,0,0,47.43,239.08Z" style="fill:#455a64"></path><path d="M55.87,248.2a1,1,0,0,0-.51-1.31l-12.22-5.36a.48.48,0,0,0-.49.11,1.54,1.54,0,0,0-.56,1.28.5.5,0,0,0,.25.43l12.22,5.36A1,1,0,0,0,55.87,248.2Z" style="fill:#263238"></path><path d="M20.27,241.54a6.73,6.73,0,0,1,0-2.79,21.71,21.71,0,0,1,.62-2.53,4.67,4.67,0,0,1,.72-1.51,1.83,1.83,0,0,1,1.44-.76,2,2,0,0,1,1.53,1,11,11,0,0,1,.78,1.75.32.32,0,0,0,.17.22c.16.06.3-.08.42-.2a1.74,1.74,0,0,1,2-.1,3.9,3.9,0,0,1,1.38,1.62,10.71,10.71,0,0,1,1.09,3.32,1.86,1.86,0,0,1,2.35.39,7.71,7.71,0,0,1,1.27,2.26,11.56,11.56,0,0,0,1.28,2.1c.55.72,1.23,1.57.92,2.43a2.4,2.4,0,0,1-2.44-.33c-.71-.49-1.27-1.18-1.95-1.71a11.08,11.08,0,0,0-2.62-1.37,25.5,25.5,0,0,0-5.5-1.81,19.71,19.71,0,0,1-2.06-.08C21,243.23,20.45,242.23,20.27,241.54Z" style="fill:#c8856a"></path></g></g></g><g id="freepik--character-2--inject-96"><g id="freepik--character--inject-96"><g id="freepik--kite--inject-96"><path d="M477.5,207.17c-1.14-5.79-4.22-10.56-8-15-3.87-4.63-7.91-9.71-13.58-12.16-.26-.1-.36.41-.17.53,5,3.17,8.7,7.78,12.29,12.39a41,41,0,0,1,4.86,7.43,27,27,0,0,1,2.32,8.12,29.09,29.09,0,0,1-2.73,15.92c-2.27,5-5.4,9.52-7.77,14.46-2.81,5.83-4.5,12.25-2.64,18.64.18.59.67.19.57-.29-1.24-6.14,1.22-12.51,4.08-17.85s6.29-10,8.67-15.43A28.18,28.18,0,0,0,477.5,207.17Z" style="fill:#84B8C6"></path><path d="M468.37,197.82a23.93,23.93,0,0,0-4.88-10.14,43.07,43.07,0,0,0-7.25-7.59c-.45-.36-.5.62-.31.85,2.19,2.79,4.7,5.28,6.64,8.25a21.45,21.45,0,0,1,3.52,9.39,33.05,33.05,0,0,1-1.15,11.32,40.24,40.24,0,0,1-4,10.14,140.55,140.55,0,0,0-9.44,19.68c-2.38,6.46-4.25,13.33-3.52,20.26.65,6.29,3.72,12.94,9.51,16,.34.18.44-.62.19-.79a20.12,20.12,0,0,1-8.67-15.8c-.41-7.5,2.28-14.84,5.19-21.62a105.2,105.2,0,0,1,4.93-10c1.63-2.95,3.49-5.76,5.08-8.73a36.28,36.28,0,0,0,3.67-10.41A30,30,0,0,0,468.37,197.82Z" style="fill:#84B8C6"></path><g id="freepik--kite--inject-96"><path d="M412.37,104.8c-18.51,4.55-27.91,14.25-28.07,29.17l71.09,45.35,29.95-25.91Q456,125.33,412.37,104.8Z" style="fill:#84B8C6"></path><path d="M426.57,121.4a26.45,26.45,0,0,0,10,4.14c0-1.38-1.36-4.19-4.5-7.13a12.42,12.42,0,0,0,6.77.35q-12.53-7.37-26.49-14a52.1,52.1,0,0,0-14.68,5.78,25.09,25.09,0,0,0,8.8,2.91c-.11,2.31,1.79,5.21,3.64,7,2.16.59,5.06.63,6.74-.52a28.14,28.14,0,0,0,8.07,6.4C426.41,125.86,427.54,124.13,426.57,121.4Z" style="fill:#84B8C6"></path><path d="M426.57,121.4a26.45,26.45,0,0,0,10,4.14c0-1.38-1.36-4.19-4.5-7.13a12.42,12.42,0,0,0,6.77.35q-12.53-7.37-26.49-14a52.1,52.1,0,0,0-14.68,5.78,25.09,25.09,0,0,0,8.8,2.91c-.11,2.31,1.79,5.21,3.64,7,2.16.59,5.06.63,6.74-.52a28.14,28.14,0,0,0,8.07,6.4C426.41,125.86,427.54,124.13,426.57,121.4Z" style="opacity:0.2"></path><path d="M478.81,147.43c-2,.5-2.54,2.17-1.2,4.5a14.73,14.73,0,0,0,4.35,4.4l3.38-2.92Q482.16,150.38,478.81,147.43Z" style="fill:#fff;opacity:0.6000000000000001"></path><path d="M392.31,139.08c.65-.82.62-2.07-.28-3.62-1.34-2.33-4.24-4.67-7.33-6.14a31.56,31.56,0,0,0-.4,4.65Z" style="fill:#fff;opacity:0.6000000000000001"></path><path d="M412.37,104.8a62.8,62.8,0,0,0-7.66,2.4,29.3,29.3,0,0,0,12.83,6.56c4.38.84,7.11-.28,7.51-2.65Q418.86,107.89,412.37,104.8Z" style="fill:#84B8C6"></path><path d="M412.37,104.8a62.8,62.8,0,0,0-7.66,2.4,29.3,29.3,0,0,0,12.83,6.56c4.38.84,7.11-.28,7.51-2.65Q418.86,107.89,412.37,104.8Z" style="fill:#fff;opacity:0.6000000000000001"></path><path d="M473.27,191.23l-17.88-11.91-6.88,7.14C458.39,193,469.47,195.17,473.27,191.23Z" style="fill:#84B8C6"></path><path d="M473.27,191.23l-17.88-11.91-6.88,7.14C458.39,193,469.47,195.17,473.27,191.23Z" style="fill:#fff;opacity:0.6000000000000001"></path><path d="M485.34,153.82a.41.41,0,0,1-.22-.07c-19.34-12.88-47.85-22.17-58.82-24.28-13.12-2.53-34.92-2.27-41.71,4.78a.4.4,0,1,1-.58-.56c7.56-7.86,31.38-7.14,42.45-5s39.67,11.45,59.1,24.4a.39.39,0,0,1,.11.56A.4.4,0,0,1,485.34,153.82Z" style="fill:#fafafa"></path><path d="M455.39,179.72a.39.39,0,0,1-.35-.2L412,105a.4.4,0,0,1,.15-.55.41.41,0,0,1,.55.15l43,74.52a.41.41,0,0,1-.15.55A.46.46,0,0,1,455.39,179.72Z" style="fill:#fafafa"></path></g><path d="M334.28,248.73a.48.48,0,0,1-.46-.32.49.49,0,0,1,.3-.61c32.44-11.29,58.19-30.18,74.46-54.61,13.48-20.23,19.79-43.58,17.33-64.06a.47.47,0,0,1,.41-.53.47.47,0,0,1,.53.42c2.5,20.7-3.87,44.28-17.47,64.7-16.39,24.61-42.3,43.62-74.95,55A.39.39,0,0,1,334.28,248.73Z" style="fill:#e0e0e0"></path></g><path d="M249.83,322.55c-.41,4.27,1.59,21.9,5.21,33.24l26.16-4.71-.78-26.58Z" style="fill:#37474f"></path><path d="M313.77,375.45c-2.63-.13-3.54-.07-10.4.43s-15,1.26-15,1.26l1.43-15.8a49.93,49.93,0,0,1,11.1.33c5.88.86,11.64,1.81,11.64,1.81s4.84,0,7.13,1.2,2.81,10.17-.06,11.62S313.77,375.45,313.77,375.45Z" style="fill:#c8856a"></path><path d="M254.22,353c1.78,6.41,7.46,20.11,12.64,23.1s9.64,3,20.14,1.91,15.4-1.62,15.4-1.62a22.91,22.91,0,0,0-.81-14.64c-7.09-1.54-13.14-2-17.27-.73l-3.9-36.53" style="fill:#37474f"></path><path d="M332.29,393.91a3.31,3.31,0,0,0,3.29-.77c1.08-1.38,2.77-5.36,1.87-10.47s-2-6.49-3.83-8.46-3.71-3.78-4.33-6.08c-.58-2.14-1.6-5.39-2.3-6.05s-3.67-.42-3.67-.42Z" style="fill:#263238"></path><path d="M312.66,363.1a1.28,1.28,0,0,1,.88-.56,4.52,4.52,0,0,1,1.27.06,10.18,10.18,0,0,0,3.48-.16c.29-.06,2.81-.5,3.38-.58a11,11,0,0,1,2.68-.15c1.53.21,2.69,4.63,3.65,6.84a21.28,21.28,0,0,0,4.28,6.1,15.84,15.84,0,0,1,3.93,9.34c.15,4-.92,8.48-2.71,9.59-2.21,1.37-4.39,1.66-7.39-4.08a36.68,36.68,0,0,0-8.75-10.57,5.62,5.62,0,0,0-3.14-1.46,5.92,5.92,0,0,1-1-.13,1.29,1.29,0,0,1-.82-.61,1.89,1.89,0,0,1-.12-.71,10.16,10.16,0,0,1,1.2-4.44,3.13,3.13,0,0,1,1.54-1.64c.92-.33,1.92.12,2.88.26a.3.3,0,0,0,.21,0c.12-.08.06-.27,0-.39a4.88,4.88,0,0,0-1.6-1.32c-.54-.32-1.4-.7-1.71-1.28a4,4,0,0,1-.28-1.72,1.84,1.84,0,0,0-.71-1.53,9.49,9.49,0,0,0-1.17-.46A.69.69,0,0,1,312.66,363.1Z" style="fill:#37474f"></path><path d="M332.28,374.65a30.45,30.45,0,0,1-2.22-2.62h0s2.77,6.14,1,9c-1.14,1.86-2.68,1.07-3.16,1.05s-2.31,4.52-2.44,6.27h0c.3.48.53.88.66,1.13,3,5.74,5.18,5.45,7.39,4.08,1.79-1.11,3.07-4.41,2.83-9.53A16.29,16.29,0,0,0,332.28,374.65Z" style="fill:#455a64"></path><path d="M316,365.57a11.56,11.56,0,0,0-.93-2.94,2.58,2.58,0,0,1-.29,0,4.52,4.52,0,0,0-1.27-.06,1.28,1.28,0,0,0-.88.56.69.69,0,0,0-.08.38,9.49,9.49,0,0,1,1.17.46,1.84,1.84,0,0,1,.71,1.53,4,4,0,0,0,.28,1.72c.31.58,1.17,1,1.71,1.28a4.88,4.88,0,0,1,1.6,1.32c.08.12.14.31,0,.39,1.51,1.72,8.61,10.25,10.08,12.52s2.69,1.36.48-2.56a66.81,66.81,0,0,0-8.36-10.85C318.64,367.75,316.21,366.94,316,365.57Z" style="fill:#263238"></path><path d="M328.27,382.42a.35.35,0,0,0-.09-.23.36.36,0,0,0-.51,0,8.72,8.72,0,0,0-2.33,6.82.35.35,0,0,0,.41.3.36.36,0,0,0,.31-.41,8.07,8.07,0,0,1,2.09-6.17A.38.38,0,0,0,328.27,382.42Z" style="fill:#f0f0f0"></path><path d="M326.32,379.31a.35.35,0,0,0-.09-.23.36.36,0,0,0-.51,0,8.7,8.7,0,0,0-2.48,6.76.36.36,0,1,0,.72-.09,8.06,8.06,0,0,1,2.23-6.12A.35.35,0,0,0,326.32,379.31Z" style="fill:#f0f0f0"></path><path d="M324.13,376.45a.31.31,0,0,0-.09-.22.36.36,0,0,0-.51,0,8.66,8.66,0,0,0-2.32,6.82.36.36,0,1,0,.71-.11,8.06,8.06,0,0,1,2.09-6.17A.34.34,0,0,0,324.13,376.45Z" style="fill:#f0f0f0"></path><path d="M322.16,373.94a.4.4,0,0,0-.08-.23.36.36,0,0,0-.51,0,8.75,8.75,0,0,0-2.62,6.71.37.37,0,0,0,.4.32.36.36,0,0,0,.32-.4,8.05,8.05,0,0,1,2.36-6.07A.39.39,0,0,0,322.16,373.94Z" style="fill:#f0f0f0"></path><path d="M319.71,371.62a.3.3,0,0,0-.08-.22.36.36,0,0,0-.51-.06c-1.78,1.44-2.93,4.66-2.61,7.34a.37.37,0,0,0,.4.32.36.36,0,0,0,.32-.4c-.29-2.42.77-5.42,2.35-6.7A.34.34,0,0,0,319.71,371.62Z" style="fill:#f0f0f0"></path><path d="M263.55,333c-2.31,4.85-5.55,10.45-7.23,14.18l3.53-13c-3.42-3.31-5-4.65-6.68-9.06C255.3,328.16,258.36,329.87,263.55,333Z" style="fill:#263238"></path><path d="M226.41,441.32a2.65,2.65,0,0,1,.51-.43c.18-.13.32-.19.48-.3,5.88-4,7.41-6.33,11.13-12a56.36,56.36,0,0,0,2.13-7.8c1-5.59,3.44-31.67,4.07-39,.94-10.94,2.38-12.6,6.09-20.61,4.12-8.88,9.46-18.92,13.59-27.48-4.18-.26-7.09-3.29-12-10.5-.19-3.46.6-5.3,1-9.25,0,0,4.7,2.08,13.17,2.58s17.6.46,24-2.61c1.75,3.67,3.37,7.49,3,16.84-.41,9.56-8.11,19.61-13.87,27.74-4.29,6.05-7.77,11.72-13.19,18.91.29,5.82,0,9.63-2,15-.94,2.62-4.12,11.43-6.83,17.12a119.39,119.39,0,0,0-5.28,12.87,8.92,8.92,0,0,0,.06,5c.42,1.1,1.28,2.66.36,4.15-1.29,2.07-3.61,2.48-5.44,4.25a31,31,0,0,0-4.32,4.85c-1.54,2.21-3.63,3.43-6.75,4.06a13.3,13.3,0,0,1-9.63-1.6,1.41,1.41,0,0,1-.6-.7A1.19,1.19,0,0,1,226.41,441.32Z" style="fill:#c8856a"></path><path d="M254.73,350.47l8.4-17.39s-8.15-3.77-11.06-9.92c0,0,.31-4.91,1.17-9.78,0,0,22,6.66,40-1.15,3.29,5.75,3.73,12.39,3.73,19.82,0,7.86-1.92,13.58-10,24.43-4.65,6.23-19.22,21.58-19.22,21.58s0,10.15-3.8,18.33-7.75,17.69-7.75,17.69-8.28.41-14.47-4.61c0,0,2.77-30,4-37.12S250.35,359.54,254.73,350.47Z" style="fill:#455a64"></path><path d="M223.51,444.19a3.3,3.3,0,0,0,1,3.23c1.45,1,5.54,2.39,10.57,1.12s6.33-2.47,8.17-4.42,3.5-4,5.75-4.76c2.09-.73,5.26-2,5.87-2.73S255,433,255,433Z" style="fill:#263238"></path><path d="M252.85,422.42a1.29,1.29,0,0,1,.61.84,4.43,4.43,0,0,1,0,1.26,10.42,10.42,0,0,0,.41,3.47c.08.28.71,2.76.82,3.33a10.38,10.38,0,0,1,.34,2.66c-.1,1.54-4.42,3-6.56,4.13a21.32,21.32,0,0,0-5.78,4.7,15.81,15.81,0,0,1-9,4.58c-3.94.44-8.53-.3-9.76-2-1.53-2.11-2-4.26,3.54-7.66a36.84,36.84,0,0,0,9.92-9.49,5.61,5.61,0,0,0,1.23-3.23,6.11,6.11,0,0,1,.06-1.05,1.22,1.22,0,0,1,.55-.86,1.68,1.68,0,0,1,.7-.17,10,10,0,0,1,4.51.88,3.15,3.15,0,0,1,1.75,1.42c.4.89,0,1.92-.06,2.89a.3.3,0,0,0,0,.21c.09.11.27,0,.38-.05a4.71,4.71,0,0,0,1.2-1.69,4.66,4.66,0,0,1,1.16-1.8,4.16,4.16,0,0,1,1.69-.4,1.86,1.86,0,0,0,1.48-.81,9.93,9.93,0,0,0,.37-1.21A.75.75,0,0,1,252.85,422.42Z" style="fill:#37474f"></path><path d="M242.72,442.81a29.28,29.28,0,0,1,2.46-2.4h0s-5.93,3.2-8.93,1.64c-1.94-1-1.26-2.6-1.28-3.07s-4.66-2-6.42-2h0c-.46.33-.84.59-1.08.74-5.52,3.4-5.07,5.55-3.54,7.66,1.23,1.71,4.61,2.75,9.7,2.14A16.27,16.27,0,0,0,242.72,442.81Z" style="fill:#455a64"></path><path d="M250.62,426a11.22,11.22,0,0,0,2.87-1.13v-.3a4.43,4.43,0,0,0,0-1.26,1.29,1.29,0,0,0-.61-.84.75.75,0,0,0-.4-.06,9.93,9.93,0,0,1-.37,1.21,1.86,1.86,0,0,1-1.48.81,4.16,4.16,0,0,0-1.69.4,4.66,4.66,0,0,0-1.16,1.8,4.71,4.71,0,0,1-1.2,1.69c-.11.09-.29.16-.38.05-1.62,1.63-9.61,9.31-11.77,10.95s-1.16,2.78,2.58.29a67.31,67.31,0,0,0,10.23-9.11C248.63,428.71,249.27,426.23,250.62,426Z" style="fill:#263238"></path><path d="M234.69,439.36a.36.36,0,0,0,.21-.62,8.74,8.74,0,0,0-7-1.83.37.37,0,0,0-.27.44.35.35,0,0,0,.43.27,8.06,8.06,0,0,1,6.31,1.65A.35.35,0,0,0,234.69,439.36Z" style="fill:#f0f0f0"></path><path d="M237.65,437.2a.33.33,0,0,0,.22-.11.36.36,0,0,0,0-.51,8.69,8.69,0,0,0-6.92-2,.36.36,0,0,0,.15.71,8.06,8.06,0,0,1,6.26,1.79A.37.37,0,0,0,237.65,437.2Z" style="fill:#f0f0f0"></path><path d="M240.34,434.81a.33.33,0,0,0,.22-.11.36.36,0,0,0,0-.51,8.74,8.74,0,0,0-7-1.83.38.38,0,0,0-.27.44.37.37,0,0,0,.44.27,8.07,8.07,0,0,1,6.3,1.64A.33.33,0,0,0,240.34,434.81Z" style="fill:#f0f0f0"></path><path d="M242.71,432.66a.31.31,0,0,0,.22-.09.37.37,0,0,0,0-.52,8.73,8.73,0,0,0-6.89-2.12.36.36,0,1,0,.14.71,8.08,8.08,0,0,1,6.22,1.91A.34.34,0,0,0,242.71,432.66Z" style="fill:#f0f0f0"></path><path d="M244.85,430.06a.4.4,0,0,0,.22-.1.36.36,0,0,0,0-.51c-1.56-1.67-4.85-2.59-7.51-2.08a.36.36,0,0,0,.14.71c2.39-.46,5.46.38,6.84,1.87A.38.38,0,0,0,244.85,430.06Z" style="fill:#f0f0f0"></path><g id="freepik--top--inject-96"><path d="M250.79,259.62c-4.72,1.05-8.51,5.95-12.86,15.7-6.79,15.19-10.69,24.17-10.69,24.17.74-.59,19.13,3.16,17,4.13,4.63-8.87,10.89-19.46,10.89-19.46Z" style="fill:#84B8C6"></path><path d="M250.79,259.62c-4.72,1.05-8.51,5.95-12.86,15.7-6.79,15.19-10.69,24.17-10.69,24.17.74-.59,19.13,3.16,17,4.13,4.63-8.87,10.89-19.46,10.89-19.46Z" style="opacity:0.2"></path><path d="M296.3,268.9c-1.71-7.66-3.08-9.29-6.53-11.1,0,0-8.29-1.64-11-2.08-.95-.16-1.91-.25-2.87-.33a45.09,45.09,0,0,0-14.31.69,44.15,44.15,0,0,0-10.77,3.54c-1.86,2.24-2.41,8.92-1,23.19,1.07,11,1,28.07-1.87,51.33,6.1,4.84,23.52,7.41,35.22,6.58,2.18-4.06,3.56-8.55,4.15-17.56,2.66,5.25,2.74,11.73,3,17.23a48.46,48.46,0,0,0,8.23-4.63C300.46,323.43,301,290.13,296.3,268.9Z" style="fill:#84B8C6"></path><path d="M296.3,268.9c-1.71-7.66-3.08-9.29-6.53-11.1,0,0-8.29-1.64-11-2.08-.95-.16-1.91-.25-2.87-.33a45.09,45.09,0,0,0-14.31.69,43.08,43.08,0,0,0-10.77,3.54c-1.86,2.24-2.41,8.92-1,23.19,1.07,11,1,28.07-1.87,51.33,6.1,4.84,23.52,7.41,35.22,6.58,2.18-4.06,3.56-8.55,4.15-17.56,2.66,5.25,2.74,11.73,3,17.23a48.46,48.46,0,0,0,8.23-4.63C300.46,323.43,301,290.13,296.3,268.9Z" style="fill:#fff;opacity:0.30000000000000004"></path><path d="M292.65,336.14c-1-10.48-3.8-15.6-6.26-18.06a88.48,88.48,0,0,1-4.61,19.73c-13.06.09-26.64-3-33.54-6.5-.11.94-.21,1.87-.33,2.83,6.1,4.84,23.52,7.41,35.22,6.58,2.18-4.06,3.57-8.55,4.15-17.56,2.66,5.25,2.74,11.73,3,17.23a48.46,48.46,0,0,0,8.23-4.63c.15-.94.29-2,.42-3.18Z" style="fill:#84B8C6"></path><path d="M263.7,260.35c-2.47,4.88-2.22,19-1.51,21.78s1.3,2.58,1.34-.09-.77-16.48,1.9-21.18A1.8,1.8,0,0,0,263.7,260.35Z" style="opacity:0.2"></path><path d="M260,250.33c-2-3.5-4.7-5.7-8.82-10.57-5.61-6.62-5.54-15.47-.58-18.53-.37-7.5,8.27-13.4,18.46-12.63,9.08.7,17.17,6.62,15.68,17.24-1,1.32-2.55.7-4.13,1.11.05,0-.41,3.35-.5,3.66a13.5,13.5,0,0,1-1.59,3.5A13.14,13.14,0,0,1,276,237a19.05,19.05,0,0,1-3.76,2.07,12.36,12.36,0,0,0-2.22,1.24,8.31,8.31,0,0,0-1.09,1.51l-6.31,8.6C262.08,251.09,260.6,250.21,260,250.33Z" style="fill:#263238"></path><path d="M257.61,238.48a1.06,1.06,0,0,1-.17.2c-1,.9-1.28-1-2.58-2.08a2.9,2.9,0,0,0-2.51-.52,3.68,3.68,0,0,0-3,2.7,5.42,5.42,0,0,0,4.42,6.38,4.37,4.37,0,0,0,4.48-1.76l2.34,14.24s-.38,3.06,3.75,3.63c3.49,0,11.2-2.52,12.9-4.86l-.88-5.31a15,15,0,0,0,5.46-1.81c4.67-3,4.85-7.24,4.9-9.55.06-3.41-.65-5-1.13-7.73-.28-1.65-.28-3.28-.87-6.17s-1.83-5.84-3.59-7.36c-1.56,4-11.53,6.77-19.45,5.06a11.69,11.69,0,0,1-.37,5.92c-.7,2.12-2.21,3.42-3.88,4.95a6.49,6.49,0,0,1,.48,3.11A2,2,0,0,1,257.61,238.48Z" style="fill:#c8856a"></path><path d="M268.51,230l-3,1.79a1.82,1.82,0,0,1,.61-2.44A1.69,1.69,0,0,1,268.51,230Z" style="fill:#263238"></path><path d="M271.27,241.69l4.24.84a2.27,2.27,0,0,1-2.61,1.74A2.1,2.1,0,0,1,271.27,241.69Z" style="fill:#af6152"></path><path d="M267.47,234.82a1.78,1.78,0,1,0,1.29-2.15A1.78,1.78,0,0,0,267.47,234.82Z" style="fill:#263238"></path><path d="M279.83,232.36a1.7,1.7,0,1,0,1.23-2.07A1.7,1.7,0,0,0,279.83,232.36Z" style="fill:#263238"></path><path d="M283.75,228.79l-3.31-.68a1.62,1.62,0,0,1,1.94-1.34A1.76,1.76,0,0,1,283.75,228.79Z" style="fill:#263238"></path><path d="M274.25,230.29l2.16,9.05,4.43-2A23.38,23.38,0,0,0,274.25,230.29Z" style="fill:#af6152"></path><path d="M276.33,251.1s-6.14.55-11-1.31a10.6,10.6,0,0,1-4.71-4.26s1.3,3.24,3.23,4.71c5,3.87,12.76,2.52,12.76,2.52Z" style="fill:#af6152"></path><path d="M264.31,261.27c.58-1.35.72-2.66,1.52-3.47,1-1,5.83-1.47,8.64-3.12,2.11-1.23,2.06-2.35,2.06-2.35l-.18-1s.92-.61,1.42,1.12l1,3.3C278.54,257.07,273.79,262.06,264.31,261.27Z" style="fill:#84B8C6"></path><path d="M264.31,261.27c.58-1.35.72-2.66,1.52-3.47,1-1,5.83-1.47,8.64-3.12,2.11-1.23,2.06-2.35,2.06-2.35l-.18-1s.92-.61,1.42,1.12l1,3.3C278.54,257.07,273.79,262.06,264.31,261.27Z" style="opacity:0.2"></path><path d="M264.31,261.27c-1.07-1.7-.81-3.26-1.41-3.93s-2.79-1.95-2.86-2.9l-.18-1.12s-.43,0-.26,1.41c.14,1.15.34,1.85.59,3.32A3.67,3.67,0,0,0,264.31,261.27Z" style="fill:#84B8C6"></path><path d="M264.31,261.27c-1.07-1.7-.81-3.26-1.41-3.93s-2.79-1.95-2.86-2.9l-.18-1.12s-.43,0-.26,1.41c.14,1.15.34,1.85.59,3.32A3.67,3.67,0,0,0,264.31,261.27Z" style="opacity:0.2"></path><path d="M340.5,252.4c-1.08-4.43-1.82-3.74-2.94-4.3-3.67-1.83-4.6-2.06-5.61-2.1a1.81,1.81,0,0,0-1.55.84c-1-.51-2.26-1.46-3.44-.13a4.91,4.91,0,0,0-.87,1.12,1.15,1.15,0,0,0-.8-.07c-1.33.34-2.13,4.16-1.83,5.44.2.89,1,1.52,2.11,2.11,1,.5,1.2-.7,1.2-.7l1.2.95c1.36,3.81-1.5,6.75,2.48,10.73.89.89-3.89,11.29-7.73,19.22,0,0-8-7.95-17.05-17.18-7.07-7.2-8.71-8.66-13.81-8.45-4.64,6.26-3.68,13.48,1.57,24.06,0,0,16.29,14.84,26.36,20.82,6.76,4,10.46,1.52,13.41-3.42l0,0c3.16-5,4.45-12.55,7-24.39C343.8,260.89,341.33,255.77,340.5,252.4Z" style="fill:#c8856a"></path><path d="M322.72,285.51c-2.29,4.91-1.66,11.91-1.2,13.39-2-4-2.27-9.38-.18-14.77Z" style="fill:#af6152"></path><path d="M330.4,246.84l4.5,2-4-2.45A1.78,1.78,0,0,0,330.4,246.84Z" style="fill:#af6152"></path><path d="M326.09,247.83l5,2.59-4.59-3.12A3.07,3.07,0,0,0,326.09,247.83Z" style="fill:#af6152"></path><path d="M325.29,250.25a1.72,1.72,0,0,0,.24,1,3.57,3.57,0,0,0,.59.81l0-.09c0,.32-.08.65-.11,1l.18-.06a1.1,1.1,0,0,0-.85-.32,1.47,1.47,0,0,0-.81.31,1.82,1.82,0,0,1,.81-.17,1.17,1.17,0,0,1,.7.32l.14.16,0-.22c.05-.32.09-.64.12-1v0l0,0a4.8,4.8,0,0,1-.61-.74A2.15,2.15,0,0,1,325.29,250.25Z" style="fill:#af6152"></path><path d="M326.09,251.68a16,16,0,0,0,1.56,1.26,2.23,2.23,0,0,0,0,1.27,11.61,11.61,0,0,0,.37,1.35l-1.2-.95a2.42,2.42,0,0,0-.89-1.77Z" style="fill:#af6152"></path><path d="M289.77,257.8a19.92,19.92,0,0,1,11.33,5.29c3.48,3.26,18.54,19.34,18.54,19.34-5.51,1.3-10.78,9.21-11.71,13.84-3.19-2.25-15.63-12.71-15.63-12.71S282.11,270.11,289.77,257.8Z" style="fill:#84B8C6"></path><path d="M289.77,257.8a19.92,19.92,0,0,1,11.33,5.29c3.48,3.26,18.54,19.34,18.54,19.34-5.51,1.3-10.78,9.21-11.71,13.84-3.19-2.25-15.63-12.71-15.63-12.71S282.11,270.11,289.77,257.8Z" style="opacity:0.2"></path><path d="M286.47,308.39A.46.46,0,0,1,286,308a.47.47,0,0,1,.44-.51c10.58-.69,32.73-31.47,40.34-52.62a.49.49,0,0,1,.62-.29.47.47,0,0,1,.28.61c-7.8,21.66-30,52.53-41.17,53.25Z" style="fill:#e0e0e0"></path><path d="M276.39,326.65a.87.87,0,0,0,1.11-.54s3.81-11,3.82-11.06a.43.43,0,0,0-.12-.42,1.33,1.33,0,0,0-1.16-.4.43.43,0,0,0-.36.25s-3.81,11-3.82,11.06A.87.87,0,0,0,276.39,326.65Z" style="fill:#263238"></path><path d="M286.38,316.39a3,3,0,0,0-.87-2.95,9.59,9.59,0,0,0-8.18-2.83,3.08,3.08,0,0,0-2.51,1.78c-.09.28-.29.84-.38,1.12a3,3,0,0,0,.87,2.94,9.59,9.59,0,0,0,8.18,2.83A3.06,3.06,0,0,0,286,317.5C286.09,317.22,286.29,316.66,286.38,316.39Z" style="fill:#37474f"></path><path d="M277.33,310.61a2.64,2.64,0,0,0-1.63,4.73,9.59,9.59,0,0,0,8.18,2.82,2.64,2.64,0,0,0,1.63-4.72A9.59,9.59,0,0,0,277.33,310.61Z" style="fill:#455a64"></path><path d="M289.58,303.28a2.4,2.4,0,0,0-.7-2.34,7.58,7.58,0,0,0-6.49-2.24,2.41,2.41,0,0,0-2,1.41c-.08.22-4.24,12.26-4.32,12.49a2.43,2.43,0,0,0,.7,2.34,7.62,7.62,0,0,0,6.49,2.24,2.43,2.43,0,0,0,2-1.41C285.34,315.55,289.51,303.5,289.58,303.28Z" style="fill:#f0f0f0"></path><path d="M282.39,298.7a2.09,2.09,0,0,0-1.29,3.75,7.58,7.58,0,0,0,6.49,2.24,2.09,2.09,0,0,0,1.29-3.75A7.58,7.58,0,0,0,282.39,298.7Z" style="fill:#455a64"></path><path d="M280,305.67a7.16,7.16,0,0,0,2,1.36,8.72,8.72,0,0,0,2.27.73,6.46,6.46,0,0,0,2.36,0,2.47,2.47,0,0,0,1.89-1.28,2.38,2.38,0,0,1-1.84,1.48,6.18,6.18,0,0,1-2.46,0A7,7,0,0,1,280,305.67Z" style="fill:#e0e0e0"></path><path d="M278.76,304.86a2.43,2.43,0,0,0,.69,2.18,6.38,6.38,0,0,0,1.87,1.43,8.51,8.51,0,0,0,2.24.83,7.34,7.34,0,0,0,2.39.15,7,7,0,0,1-4.75-.74,6.07,6.07,0,0,1-1.91-1.54A2.36,2.36,0,0,1,278.76,304.86Z" style="fill:#e0e0e0"></path><path d="M278.92,308.74a8,8,0,0,0,1.42,1.05,8.81,8.81,0,0,0,1.6.72,9.28,9.28,0,0,0,1.71.42,7.46,7.46,0,0,0,1.77.05,6.68,6.68,0,0,1-6.5-2.24Z" style="fill:#e0e0e0"></path><path d="M277.7,307.93a2.41,2.41,0,0,0,.69,2.17,6.25,6.25,0,0,0,1.87,1.44,8.48,8.48,0,0,0,2.24.82,6.83,6.83,0,0,0,2.39.15,7,7,0,0,1-4.75-.74,6.07,6.07,0,0,1-1.91-1.54A2.34,2.34,0,0,1,277.7,307.93Z" style="fill:#e0e0e0"></path><path d="M277.86,311.8a7.16,7.16,0,0,0,2,1.36,8.36,8.36,0,0,0,2.27.73,6.46,6.46,0,0,0,2.36,0,2.47,2.47,0,0,0,1.89-1.28,2.38,2.38,0,0,1-1.84,1.48,6.18,6.18,0,0,1-2.46,0A7,7,0,0,1,277.86,311.8Z" style="fill:#e0e0e0"></path><path d="M277.33,313.34a8,8,0,0,0,1.42,1.05,8.81,8.81,0,0,0,1.6.72,9.28,9.28,0,0,0,1.71.42,7.46,7.46,0,0,0,1.77.05,6.68,6.68,0,0,1-6.5-2.24Z" style="fill:#e0e0e0"></path><path d="M290.81,303.58a3,3,0,0,0-.88-2.95,9.56,9.56,0,0,0-8.17-2.82,3,3,0,0,0-2.51,1.77l-.39,1.12a3.05,3.05,0,0,0,.88,2.94,9.56,9.56,0,0,0,8.18,2.83,3,3,0,0,0,2.5-1.77Z" style="fill:#37474f"></path><path d="M281.76,297.81a2.63,2.63,0,0,0-1.63,4.72,9.53,9.53,0,0,0,8.17,2.82,2.63,2.63,0,0,0,1.63-4.72A9.56,9.56,0,0,0,281.76,297.81Z" style="fill:#455a64"></path><path d="M289.13,289.79a.86.86,0,0,0-1.1.54s-3.81,11-3.83,11.06a.44.44,0,0,0,.13.42,1.39,1.39,0,0,0,1.16.4.45.45,0,0,0,.36-.25s3.81-11,3.82-11.06A.87.87,0,0,0,289.13,289.79Z" style="fill:#263238"></path><path d="M278.92,302.3c-1,0-2.29.07-3.44.08-4.42,0-6.06,2.26-9,2.34s-5.52-1-13.52-4.59-15.57-9.06-24.4-2.47c-3.76,3.64-.61,7.67,4.07,10.57s22,5.61,27.62,6.52a34.11,34.11,0,0,1,3.78.74c1.33.36,2.62,1.09,3.92,1.55a26.59,26.59,0,0,0,8.17,1.66c1,0,2,0,3-.1a13,13,0,0,0,2.63-.35,12.84,12.84,0,0,0,3.57-1.83,3.34,3.34,0,0,0,1.38-1.33,5.79,5.79,0,0,1,.29-.68c.35-.57,1.16-.69,1.56-1.23s.29-1.16.66-1.61A4.49,4.49,0,0,1,290,311a2,2,0,0,0,.71-1.4.39.39,0,0,0,0-.26.51.51,0,0,0-.32-.2,17.23,17.23,0,0,0-4.87-.26,20.67,20.67,0,0,1-4.64-.5,17.91,17.91,0,0,1-2.25-.63c-.18-.06-1.49-.74-1.59-.64a4.09,4.09,0,0,1,1.27-.71l1.12-3.25A3.64,3.64,0,0,1,278.92,302.3Z" style="fill:#c8856a"></path></g></g></g></svg>