<svg xmlns="http://www.w3.org/2000/svg" xmlns:xlink="http://www.w3.org/1999/xlink" viewBox="0 0 500 500" xmlns:v="https://vecta.io/nano"><style><![CDATA[.O{fill:#84b8c6}.P{fill:#fff}.Q{fill:#263238}.R{fill:#37474f}.S{fill:#e0e0e0}.T{opacity:.6}.U{fill:#c8856a}.V{opacity:.3}.W{fill:#455a64}.X{opacity:.2}.Y{fill:#af6152}.Z{fill:#fafafa}.a{fill:#f0f0f0}.b{fill:#ebebeb}]]></style><ellipse cx="253.86" cy="357.69" rx="236.29" ry="136.42" class="Z"/><path d="M109.46 49.66a3.85 3.85 0 0 0-3.67 0l-4.32 2.48.12-2.31c0-4.7-1.56-8.29-4.28-9.85-2.27-1.32-5.15-1.1-8.11.61A22 22 0 0 0 82 48c-.45-4.81-2.35-8.45-5.33-10.11-2.81-1.57-6.37-1.28-10 .83-8.26 4.77-15 17.6-15 28.6a24.14 24.14 0 0 0 .23 3.35l-3.09 1.81c-5.3 3.07-9.62 11.3-9.62 18.35 0 3.86 1.29 6.82 3.54 8.12a5.29 5.29 0 0 0 2.65.69 7.78 7.78 0 0 0 3.9-1.16l56.49-32.64c3.23-1.87 5.87-6.88 5.87-11.17.01-2.4-.79-4.21-2.18-5.01zm65.23 14.86a2.15 2.15 0 0 0-1.73-.17c-.12 0-2.16 1.19-2.28 1.24v-1c0-2.71-.9-4.78-2.48-5.69a4.62 4.62 0 0 0-4.73.35 12.23 12.23 0 0 0-3.82 3.75c-.32-2.55-1.4-4.48-3-5.39s-3.7-.75-5.8.47c-4.71 2.72-8.53 10-8.53 16.25a13.2 13.2 0 0 0 .12 1.81l-2.07 1.19c-3 1.75-5.51 6.45-5.51 10.47 0 2.24.76 4 2.08 4.71a3.08 3.08 0 0 0 1.57.42 4.59 4.59 0 0 0 2.27-.68l31.86-18.38a8 8 0 0 0 3.36-6.42 3.21 3.21 0 0 0-1.31-2.93zm-40.09 360.1c3.17-.93 6.48-1.18 9.55-2.28 3.64-1.31 7.33-2.52 11-3.68l21.88-6.84c11.95-4 23.77-8.77 34-16 4.66-3.29 9.17-7.37 10.83-12.83 1-3.15.67-7.05-1.9-9.11a10 10 0 0 0-5.09-1.75c-6.19-.77-12.31.4-18.35 1.63-12.21 2.49-24.11 6.21-36.05 9.74-6.41 1.9-12.67 3.93-19.29 4.68-10.88 1.25-21.21 4.44-31.56 7.88a188.4 188.4 0 0 0-29.94 12.47c-4.56 2.45-8.9 5.73-11.32 10.32a8.21 8.21 0 0 0-1.14 4.24 8.37 8.37 0 0 0 2.78 5.09c7 7.27 20.07 8.8 29.51 7 9.69-1.83 18.93-5.48 28.33-8.49q3.34-1.08 6.76-2.07zm133.11 23.21c2.41-.7 4.91-.89 7.24-1.73l8.35-2.79 16.59-5.18c9.05-3 18-6.65 25.8-12.16 3.53-2.49 6.95-5.58 8.21-9.72.73-2.39.51-5.34-1.44-6.9a7.58 7.58 0 0 0-3.86-1.35c-4.69-.58-9.33.3-13.91 1.24-9.25 1.88-18.27 4.7-27.31 7.38-4.86 1.43-9.61 3-14.63 3.55-8.24.94-16.07 3.36-23.91 6a142 142 0 0 0-22.69 9.44c-3.46 1.87-6.75 4.35-8.59 7.83a5.33 5.33 0 0 0 1.16 7.1c5.34 5.51 15.21 6.67 22.36 5.31 7.35-1.39 14.35-4.15 21.47-6.43a169.49 169.49 0 0 1 5.16-1.59zm154.11-111.31s.09-10 9.85-19.89c7.83-7.95 14.28-8.81 15-7.85s-1.22 5.47-9.83 14.44c-3.63 3.78-15.02 13.3-15.02 13.3zm-10.37 19.55c.4-1.07 6.84-10.21 16.16-17.52 5-3.9 8.65-4.42 9-3.06.22.8-1.73 5.27-9.29 11.18s-16.32 10.47-15.87 9.4zm5.2-11.34c.62-1 1.07-5 .69-11.63-.25-4.49-.21-9.75-1.67-10s-4 4.93-3.7 10.14 4.03 12.51 4.68 11.49zM407.89 364c.56-1.24-.37-9.06-.83-12.65s-1.7-7.66-3.44-8.37-3.27 4-2 10 5.7 12.3 6.27 11.02zm-2.25 9.35c-.13-1.09 4.2-6.19 8.73-10.68s11-8.69 11.72-6.49-1.86 6-7.1 10.27c-5.82 4.68-13.22 7.98-13.35 6.9zm-2.35 8.94c.44-.54-1.67-5.81-3.43-11.38s-2.49-7.89-4.25-7.91-3.41 3.59-.88 9.55 8.12 10.28 8.56 9.74z" class="b"/><path d="M441.13 312.88a120.6 120.6 0 0 0-17 19.23 142 142 0 0 0-13.07 22.16c-3.64 7.78-6.69 16-7.95 24.56s-.9 17.54 2.43 25.52a.1.1 0 0 0 .13 0 .09.09 0 0 0 .05-.11 56.78 56.78 0 0 1-.77-25.17 106 106 0 0 1 7.47-24.23 140.86 140.86 0 0 1 12.48-22.25A119.07 119.07 0 0 1 441.26 313a.1.1 0 0 0 0-.14.09.09 0 0 0-.13.02z" class="S"/><path d="M445.23 461.35c-1.37-4 1-9.05 3.15-11.64s3.18-1.43 1.94 1.55-3.38 7.44-1.45 10.51a33.56 33.56 0 0 0 9.64 2.53c2.63-3.84 6-6.48 8.33-10.75-1.12-3-8.81-4.85-8.48-7.91s4.35 1 5.56 1.71 4.46 3 5.31 5.1c1.71-2.28 3-3.17 3.27-6.85s-5.19-5.64-7.19-6.11-7.87-.45-7.72-3 6.25-.43 8 .37 6.08 2.83 8 4.8c1.06-2.2 4.72-4.66 2.46-7.73s-11.41-4.19-14.56-4-5.89-.88-1.36-1.89 10.71 1.4 14.93 3.86c1.12-3.08 2.55-7-.62-9.08s-12.44-.85-15.63 0-5.64.35-1.38-1.62 12.84-1.67 17.34.54c.08-3.88-1.18-6.95-3.64-8.8s-5.67-.33-8.05.84-7.08 5.71-8.49 3.05 11.28-7.76 12.66-7.48c-2.88-3.3-7-4.26-11-3.85s-8.81 4-11.19 7.23-1.64 4.28-3.39 7.12c-.1.17-.13.38-.29.47a.86.86 0 0 1-.52 0c-3.11-.2-3.69-1.18-7.15-2.13s-10.23.15-13.68 3.54-6.26 7.84-5.72 13c2.58-3 7.88-5.69 10.48-6.3s4.62 0 1.24 1.32-8.16 3.45-11.37 6.66c-1.1 4.37 0 8.07 2.67 10.34 1.73-6.72 10.34-13.42 14.56-14s-1.5 2.93-3.3 4.06-7.52 5.69-8.78 9.44c-.21 4.39 3.8 5 6.43 5.4.56-6 6.94-13.13 10.63-14.59s.89 1.34-.94 2.77a49.64 49.64 0 0 0-8 8.11 7.06 7.06 0 0 0 1.55 6.55 8.68 8.68 0 0 0 5.92 2.64c-.11-3.39 1.27-6.39 2.74-9.52.9-1.93 4.39-7.24 6.16-6.73s-3.34 6-4.24 7.64-4.84 6.86-3.69 10 6.37 2.92 8.86 2.83zm5.15-23.14a1.05 1.05 0 0 1-.22 1.05 2.76 2.76 0 0 1-.7.6 4.78 4.78 0 0 1-2.45.71c-.62 0-1.58-.1-1.56-.92.05-1.8 3-2.07 4-2a1.12 1.12 0 0 1 .93.56zm3.1-6.43a.72.72 0 0 1-.41-.16c-.9-.72-.87-1.72.07-2.62a2.25 2.25 0 0 1 1-.49 1.12 1.12 0 0 1 .76.09c.79.43.78 1.15.29 2.08a2.78 2.78 0 0 1-.71.84 1.57 1.57 0 0 1-1 .26z" class="b"/><path d="M458.53 464.42c2.59-4.11 6-6.53 8.31-10.87-1.11-3-8.81-4.85-8.48-7.91s4.35 1 5.56 1.71 4.46 3 5.31 5.1c1.71-2.28 3-3.17 3.27-6.85s-5.19-5.64-7.19-6.11-7.87-.45-7.72-3 6.25-.43 8 .37 6.08 2.83 8 4.8c1.06-2.2 4.72-4.66 2.46-7.73s-11.41-4.19-14.56-4-5.89-.88-1.36-1.89 10.71 1.4 14.93 3.86c1.12-3.08 2.55-7-.62-9.08s-12.44-.85-15.63 0-5.64.35-1.38-1.62 12.84-1.67 17.34.54c.08-3.88-1.18-6.95-3.64-8.8s-5.67-.33-8.05.84-7.08 5.71-8.49 3.05 11.28-7.76 12.66-7.48c-2.87-3.3-7-4.26-11-3.85s-8.81 4-11.19 7.23-1.67 4.28-3.37 7.13c-.09.16-.3.35-.25.48a7.58 7.58 0 0 0 .91 1.26c.08.13 0 .11 0 .12 5.67 6.59 10.24 17.09 11.7 25.51s1.49 11.3 4.48 17.19zm-5-32.64a.72.72 0 0 1-.41-.16c-.9-.72-.87-1.72.07-2.62a2.25 2.25 0 0 1 1-.49 1.12 1.12 0 0 1 .76.09c.79.43.78 1.15.29 2.08a2.78 2.78 0 0 1-.71.84 1.57 1.57 0 0 1-1.05.26z" fill="#e6e6e6"/><path d="M449 423.19a36.35 36.35 0 0 1 7.19-3.78 29.61 29.61 0 0 1 7.88-1.9 6.36 6.36 0 0 0-2.21.09l-2.37.42a32.76 32.76 0 0 0-7.76 2.82 27.51 27.51 0 0 0-6.44 4.76h-.08a43.64 43.64 0 0 0-5.68.81c-6.24 1.43-12.6 3.31-17.67 9.17a23.16 23.16 0 0 1 4.11-3.49 37.18 37.18 0 0 1 9-4.08c1.64-.49 3.43-.9 5.1-1.22s3.36-.5 5-.68h.17a.49.49 0 0 0 .35-.12 25.8 25.8 0 0 1 3.41-2.8zm-.4 6.25a16.92 16.92 0 0 1 3.45-2.18 27.77 27.77 0 0 1 7.1-1.71 24.28 24.28 0 0 1 3.8-.17 15 15 0 0 1 3.7.68h.08a11 11 0 0 0-4-1 20.07 20.07 0 0 0-3.88.15 26.78 26.78 0 0 0-3.81.63 18.16 18.16 0 0 0-7 3.47c-.07.06-.05.15-.09.17-1.41.4-3 .8-4.35 1.31a44.8 44.8 0 0 0-7.91 3.77 23.37 23.37 0 0 0-6.05 5.22 26.73 26.73 0 0 1 3.5-3.1 48 48 0 0 1 15.05-6.8c.17-.05.1 0 .28-.26s-.47.31.08-.18zm1.94-14a31.84 31.84 0 0 1 5.17-4.06s.4-.19-.15 0a22.6 22.6 0 0 0-3.34 2 47.74 47.74 0 0 0-5.46 5 25.87 25.87 0 0 0-2.1 2.67c-.3.43-.45.9-.71 1.23s-.18 1-.47 1.06c-.47.13-.94-.18-1.62-.18s-1.53-.16-2.36-.21a57.62 57.62 0 0 0-8.73-.09 24.07 24.07 0 0 0-8 2 28.09 28.09 0 0 1 4.63-1.24 44.71 44.71 0 0 1 8.05-.41c1.48.05 2.85.18 4.24.29.69.05 1.5.13 2 .19a9.15 9.15 0 0 1 1.07.14c.35.07.63.12.87.15s.26-.11.31-.21a14.81 14.81 0 0 1 .85-1.88 11.76 11.76 0 0 1 .94-1.43 38.38 38.38 0 0 1 4.76-4.99zm1.78 43.14a34.89 34.89 0 0 1 1-4.19c.2-.65.52-1.54.73-2a6 6 0 0 1 .46-1.06c.19-.25.2-.82.34-.79a7.46 7.46 0 0 1 1.34.66c.51.22 1.17.66 1.73 1 1.16.66 2.25 1.56 3.38 2.29 0 0 .16 0 .11-.05a40.49 40.49 0 0 0-3.2-2.54 19.65 19.65 0 0 0-1.79-1.11c-.29-.16-.67-.31-.93-.45a2 2 0 0 0-.85-.2c-.19 0 0 .06-.07.1s.06 0 0 0h-.07a.9.9 0 0 0-.25.39c-.08.2-.13.25-.25.56s-.26.58-.44 1.08-.5 1.39-.67 2.05a18 18 0 0 0-.6 4.23s-.03.1-.02.06zm-1.73-24.78c.08 0 .12-.11.15-.12a18.52 18.52 0 0 1 3.22-.69 27.31 27.31 0 0 1 5.63-.26 26.56 26.56 0 0 1 5.59 1.08h0a17.31 17.31 0 0 0-3-.93 25.45 25.45 0 0 0-11.8.5c-.05 0-.11.08-.14.09-4.73 2.23-10.11 4.51-13.34 10.09h.08c3.61-5.21 8.74-7.51 13.56-9.73zm-3.26 12.42a32.26 32.26 0 0 1 2.73-2.63c.94-.79 2-1.48 2.95-2.15 0 0 .05-.06.08-.06h1.45c.52 0 1.12.06 1.65.11a22.69 22.69 0 0 1 3.2.51 29.65 29.65 0 0 1 6.28 2.26h0a24.49 24.49 0 0 0-6.1-2.67 19.56 19.56 0 0 0-3.26-.62c-.53-.06-1.13-.08-1.67-.1s-1 0-1.52.05c-.1 0-.21-.1-.38 0a20.76 20.76 0 0 0-3.08 2.28 29.81 29.81 0 0 0-2.59 2.56 34.77 34.77 0 0 0-2.34 2.92c-.37.5-.71 1-1 1.5a7.18 7.18 0 0 0-.79 1.43c0 .06 0 0 .05 0a9.54 9.54 0 0 0 1-1.22c.35-.47.71-1 1.1-1.46a31.36 31.36 0 0 1 2.19-2.68z" class="S"/><g opacity=".05"><path d="M439.74 424.27c-8.2-5.65-10.92-2.48-18.51-3.58 3.86-2.35 9.19-3.25 12.54-2.36s4.05 1.95 7.11 2.12c.15 0 .36.06.52 0s.2-.3.3-.47c1.71-2.86 1-3.82 3.38-7.13s7.29-6.7 11.16-7.31c-4.13 2.45-6 1.94-9.49 8.11s.52 13 4.17 19.16c2.6 4.36 3.53 16.41 4.49 22.35-1.71-11.72-9.21-26.44-15.67-30.89z"/></g><path d="M414.29 434.84a23.71 23.71 0 0 1 3.24-2.84 20.59 20.59 0 0 1 4-9.07c1-1.31 2.42-2.78 3.48-4a15.27 15.27 0 0 0-5 3c-3.24 3.24-6.29 7.82-5.72 12.91zm11.92 17a12.64 12.64 0 0 1 1.76-5.33 28.67 28.67 0 0 1-3.72-.84 9.13 9.13 0 0 1-3-1.88c-.36 1.1-1.34 1.35-1.44 2.74-.27 4.04 3.92 4.97 6.4 5.31zm-8.92-4.94a13.57 13.57 0 0 1 2.42-5 14.51 14.51 0 0 1-2.32-7.74 31.17 31.17 0 0 0-2.74 2.34c-1.07 4.4.09 8.02 2.64 10.4zm27.93 14.48a8.28 8.28 0 0 1-.45-3.69 44.28 44.28 0 0 1-7.59-3.83c-.28 1.6-1.53 3.1-.8 4.84 1.24 2.99 6.33 2.74 8.84 2.68zm-9.78-4.11a13.18 13.18 0 0 1 .65-4.34c-.25-.25-.51-.46-.74-.73-1.65-1.89-2.88-4.05-5-5-.34-.16-1-.58-1.29-.34a2.42 2.42 0 0 0-1.07 1.39 7 7 0 0 0 1.56 6.43 8.71 8.71 0 0 0 5.89 2.59zm13.41 4.52a32.65 32.65 0 0 0 7.46 2.16c-.48-.36-.87-.77-1.37-1.13a31.72 31.72 0 0 0-6.63-3.61c-.08 0-.25-.23-.25-.09a4.72 4.72 0 0 0 .79 2.67zm14-41.65a36 36 0 0 1 7.27.31 20.79 20.79 0 0 0-3.07-6.14 16.16 16.16 0 0 0-1.5-1.69 23.27 23.27 0 0 0-2.63 1.34l-2.66 1.6a11.83 11.83 0 0 1 1.47 2 16.61 16.61 0 0 1 1.12 2.58zm-5.08-6.55a45.36 45.36 0 0 1 5.3-2.87c-2.86-2.3-9.68-3-12.14-2.93h-.38a16.41 16.41 0 0 0-4.35 3.52c1.19 0 2.91-.15 4 0a21.65 21.65 0 0 1 4.58 1 16.57 16.57 0 0 1 2.99 1.28zM471 429.92a32.44 32.44 0 0 0-.5-8 38.89 38.89 0 0 0-7.07.1l.41 1.71c.32 1.4.6 2.84.84 4.28a34.49 34.49 0 0 1 6.32 1.91zm-12.49 34.4c.29-.7.84-1 1.13-1.63.19-.43.09-.94.28-1.52a48 48 0 0 1 3.15-7.16c.52-1 1-2.07 1.51-3.09-.71-.52-1.45-1-2.19-1.48l-.31.8c-1.31 3.18-3 6.48-4 9.72a8.82 8.82 0 0 0-.49 2.74c.17.95.68.89.92 1.62zm5.25-17.09c.67.41 1.29.87 1.93 1.34 1.1-2.56 2.15-5.14 3-7.82a26.39 26.39 0 0 0-3.59-1.26c-.06 0-.17-.14-.18 0a48 48 0 0 1-1.68 7.48zm1.59-10.43a28.6 28.6 0 0 1 4 1.88 53.15 53.15 0 0 0 1.31-6c.07-.43.12-.83.18-1.26a59.06 59.06 0 0 0-5.88-1.24 55.19 55.19 0 0 1 .24 6.57c.01.07.1.03.15.05z" class="P X"/><path d="M445.68 425.77a38.38 38.38 0 0 0-24.29-17.55 34.34 34.34 0 0 0-14.86-.33 23.6 23.6 0 0 0-3.23 1l4.14-5.17c8.08-9.62 18.08-17.66 29.71-22.56a87 87 0 0 1 8.66-3c3.48-1 7-1.37 10.55-2.09.14 0 .44-.35.17-.41a29.13 29.13 0 0 0-8.13 0 44.09 44.09 0 0 0-9.24 1.76 61.61 61.61 0 0 0-17 8.28c-11.32 7.79-20.87 19-27.49 31-3.55 6.43-6 13.63-5.29 21.05.07.82 1 .14 1.08-.38.7-8.16 4.32-15.9 8.93-22.9a12.63 12.63 0 0 1 2.68-1.9 20.51 20.51 0 0 1 6.49-2.06 35.36 35.36 0 0 1 14.37.75 40.27 40.27 0 0 1 22.45 14.93c.11.08.39-.26.3-.42z" class="S"/><path d="M450.44 408.11c-2-3.48-.28-8.46 1.53-11.09s3-1.68 2.21 1.2-2.38 7.25.05 9.86a38.84 38.84 0 0 0 10.24 1.21c2.14-3.85 5.24-6.67 7-10.87-1.59-2.67-9.74-3.44-9.84-6.3s4.59.38 5.94.93 5 2.22 6.18 4.08c1.43-2.3 2.6-3.26 2.35-6.69s-6.14-4.59-8.25-4.79-8.13.49-8.35-1.85 6.34-1.11 8.26-.58 6.64 1.9 8.88 3.5c.77-2.16 4.16-4.84 1.39-7.4s-12.3-2.54-15.49-2-6.17-.13-1.66-1.58 11.17.05 15.85 1.82c.7-3 1.59-6.73-2-8.29s-12.87.66-16 1.83-5.73 1-1.65-1.33 12.91-3 17.85-1.52c-.49-3.57-2.23-6.25-5-7.67s-5.85.35-8.13 1.7-6.41 6.08-8.24 3.79 10.41-8.45 11.87-8.35c-3.42-2.71-7.77-3.11-11.8-2.27s-8.44 4.66-10.4 7.95-1.07 4.13-2.44 6.95c-.07.16-.08.36-.23.47a1.1 1.1 0 0 1-.53.09c-3.21.18-3.95-.66-7.63-1.13s-10.46 1.32-13.5 4.85-5.26 7.94-4 12.6c2.21-3.09 7.24-6.15 9.82-7s4.73-.56 1.46 1.08-7.85 4.12-10.67 7.45c-.5 4.15 1.17 7.43 4.24 9.21.79-6.39 8.64-13.56 12.88-14.53s-1.11 2.87-2.78 4.12-6.88 6.11-7.63 9.71c.43 4.07 4.62 4.18 7.38 4.23-.3-5.59 5.2-12.9 8.76-14.67s1.11 1.13-.56 2.66-5.52 5.7-7 8.4a6.32 6.32 0 0 0 2.54 5.85c1.8 1.47 4.26 1.78 6.46 1.75-.62-3.11.36-6 1.41-9.09.64-1.88 3.44-7.18 5.33-6.91s-2.54 5.94-3.23 7.53-4 6.87-2.32 9.61 6.91 1.85 9.45 1.48zm1.9-21.91a.89.89 0 0 1-.08 1 2.36 2.36 0 0 1-.63.63 5.15 5.15 0 0 1-2.4.95c-.65 0-1.63.09-1.73-.67-.21-1.67 2.78-2.26 3.76-2.34a1.29 1.29 0 0 1 1.08.43zm2.24-6.28a.74.74 0 0 1-.45-.11c-1-.55-1.14-1.48-.31-2.42a2.36 2.36 0 0 1 1-.56 1.37 1.37 0 0 1 .8 0c.87.31 1 1 .59 1.89a2.23 2.23 0 0 1-.6.84 1.67 1.67 0 0 1-1.03.36z" class="b"/><path d="M464.51 409.4c2.05-4.09 5.23-6.71 6.93-11-1.59-2.66-9.74-3.44-9.84-6.3s4.59.38 5.94.93 5 2.22 6.18 4.08c1.43-2.3 2.6-3.26 2.35-6.69s-6.14-4.59-8.25-4.79-8.13.49-8.35-1.85 6.34-1.11 8.26-.58 6.64 1.9 8.88 3.5c.77-2.16 4.16-4.84 1.39-7.4s-12.3-2.54-15.49-2-6.17-.13-1.66-1.58 11.17.05 15.85 1.82c.7-3 1.59-6.73-2-8.29s-12.87.66-16 1.83-5.73 1-1.65-1.33 12.91-3 17.85-1.52c-.49-3.57-2.23-6.25-5-7.67s-5.85.35-8.13 1.7-6.41 6.08-8.24 3.79 10.41-8.45 11.87-8.35c-3.42-2.71-7.77-3.11-11.8-2.27s-8.45 4.66-10.4 7.95-1.09 4.13-2.42 6.95c-.07.16-.25.36-.19.48a7.22 7.22 0 0 0 1.12 1.05c.11.11.06.1.06.1a54.86 54.86 0 0 1 15.71 22.15c2.74 7.64 3.11 10.21 7.03 15.29zm-9.93-29.48a.74.74 0 0 1-.45-.11c-1-.55-1.14-1.48-.31-2.42a2.36 2.36 0 0 1 1-.56 1.37 1.37 0 0 1 .8 0c.87.31 1 1 .59 1.89a2.23 2.23 0 0 1-.6.84 1.67 1.67 0 0 1-1.03.36z" fill="#e6e6e6"/><path d="M448.68 372.54a36.77 36.77 0 0 1 6.81-4.32 32 32 0 0 1 7.81-2.66 7.32 7.32 0 0 0-2.25.34l-2.36.66a34.41 34.41 0 0 0-7.54 3.5 26.41 26.41 0 0 0-5.91 5.13h-.09a48.4 48.4 0 0 0-5.7 1.41c-6.18 2-12.42 4.5-16.76 10.49h.05a21.13 21.13 0 0 1 3.7-3.68 37.88 37.88 0 0 1 8.66-4.81c1.61-.65 3.38-1.23 5.05-1.72s3.37-.84 5.06-1.2c.07 0 .07 0 .17-.07a.46.46 0 0 0 .34-.15 24.42 24.42 0 0 1 2.96-2.92zm.5 5.8a17.11 17.11 0 0 1 3.22-2.41 30.17 30.17 0 0 1 7-2.4 28.53 28.53 0 0 1 3.87-.6 17.58 17.58 0 0 1 3.9.2s.12 0 .07-.05a13 13 0 0 0-4.28-.45 23.49 23.49 0 0 0-4 .59 29 29 0 0 0-3.81 1 18.47 18.47 0 0 0-6.66 4c-.07.06 0 .14-.08.16-1.38.53-2.91 1.08-4.26 1.72a47 47 0 0 0-7.55 4.38 22.08 22.08 0 0 0-5.44 5.51 25.23 25.23 0 0 1 3.13-3.26 49.8 49.8 0 0 1 14.43-8c.17-.06.1 0 .25-.27s-.31.39.21-.12zm-.05-13.1a30.19 30.19 0 0 1 4.71-4.33s.38-.22-.14.06a22 22 0 0 0-3.13 2.26 45.75 45.75 0 0 0-4.87 5.22 24.62 24.62 0 0 0-1.77 2.71c-.24.43-.32.88-.54 1.21s0 .93-.33 1c-.46.17-1-.06-1.68 0s-1.59 0-2.46.08a66.31 66.31 0 0 0-8.95.93 26.38 26.38 0 0 0-7.93 2.72 30.29 30.29 0 0 1 4.57-1.68 49.68 49.68 0 0 1 8.18-1.3c1.53-.13 2.95-.17 4.39-.24.71 0 1.55 0 2.09-.05a9.91 9.91 0 0 1 1.12 0h.91c.25 0 .26-.13.29-.23a17.09 17.09 0 0 1 .59-1.83 11.32 11.32 0 0 1 .76-1.42 36 36 0 0 1 4.19-5.11zm8.12 39.53a26.43 26.43 0 0 1 .39-4c.11-.62.3-1.48.44-1.94a5 5 0 0 1 .32-1c.16-.24.09-.77.24-.76a9.74 9.74 0 0 1 1.47.45c.55.15 1.29.47 1.9.7 1.29.46 2.54 1.16 3.8 1.71 0 0 .17 0 .11-.06a40.06 40.06 0 0 0-3.65-2 18.94 18.94 0 0 0-2-.82c-.32-.11-.73-.21-1-.31a2.24 2.24 0 0 0-.89-.09c-.19 0 0 .07-.06.11s.06 0 0 0h-.07a.74.74 0 0 0-.21.38 5.08 5.08 0 0 1-.17.54c-.08.3-.17.57-.29 1.05a19.62 19.62 0 0 0-.39 2 15.08 15.08 0 0 0 0 4s.05.08.06.04zm-5.38-22.62c.06 0 .09-.12.13-.13a20.3 20.3 0 0 1 3.19-1 31.28 31.28 0 0 1 5.74-.89 30.47 30.47 0 0 1 5.88.35h0a19.39 19.39 0 0 0-3.23-.5 28.75 28.75 0 0 0-12 1.82 1 1 0 0 0-.14.11c-4.52 2.59-9.7 5.32-12.19 10.83h.08c2.99-5.28 7.92-7.99 12.54-10.59zM450.34 394a29.53 29.53 0 0 1 2.41-2.74c.85-.83 1.8-1.58 2.71-2.32 0 0 0-.06.07-.06.51 0 1-.12 1.48-.17s1.15-.08 1.71-.09a26.88 26.88 0 0 1 3.36.1 33.93 33.93 0 0 1 6.75 1.35h0a27.4 27.4 0 0 0-6.63-1.76 23 23 0 0 0-3.43-.19c-.56 0-1.18.06-1.73.1s-1 .14-1.55.22c-.1 0-.23-.07-.39 0a21.15 21.15 0 0 0-2.82 2.46 28.49 28.49 0 0 0-2.28 2.65 34.05 34.05 0 0 0-2 3c-.3.51-.57 1-.83 1.5a5.44 5.44 0 0 0-.6 1.41c0 .06 0 0 .05 0a8.57 8.57 0 0 0 .84-1.23c.29-.48.58-1 .91-1.48.63-.99 1.25-1.87 1.97-2.75z" class="S"/><g opacity=".05"><path d="M439.41 374.59c-9.23-4.25-11.56-1-19.49-1.15 3.61-2.61 8.94-4.06 12.5-3.62s4.44 1.32 7.59 1.12a1.08 1.08 0 0 0 .53-.09c.15-.11.16-.31.24-.47 1.34-2.83.5-3.64 2.42-7a19.57 19.57 0 0 1 10.37-8c-3.87 2.74-5.9 2.48-8.54 8.57s2.43 12 7.07 17.17c3.3 3.71 5.89 14.52 7.73 19.88-3.45-10.56-13.16-23.06-20.42-26.41z"/></g><path d="M414.87 387.28a21.72 21.72 0 0 1 2.91-3 17.5 17.5 0 0 1 2.73-8.82c.79-1.31 2.08-2.84 3-4.1a15.39 15.39 0 0 0-4.67 3.3c-2.84 3.43-5.3 7.99-3.97 12.62zm14.69 14.28a10.72 10.72 0 0 1 1-5.12 33.76 33.76 0 0 1-3.93-.34 10.14 10.14 0 0 1-3.34-1.39c-.21 1.05-1.18 1.4-1.08 2.69.33 3.76 4.79 4.13 7.35 4.16zM419.7 398a11.63 11.63 0 0 1 1.75-4.88 13.17 13.17 0 0 1-3.45-6.82 26.29 26.29 0 0 0-2.47 2.48 9.26 9.26 0 0 0 4.17 9.22zm30.73 10.1a7.18 7.18 0 0 1-1-3.35 49.82 49.82 0 0 1-8.34-2.65c0 1.51-1.11 3-.11 4.56 1.71 2.65 6.89 1.82 9.45 1.48zm-10.62-2.66a11.14 11.14 0 0 1 0-4.07c-.29-.2-.58-.37-.86-.59-2-1.55-3.54-3.39-5.9-4-.37-.11-1.07-.42-1.36-.17a2.12 2.12 0 0 0-.9 1.4 6.27 6.27 0 0 0 2.54 5.75 9.83 9.83 0 0 0 6.48 1.72zm14.4 2.62a38.28 38.28 0 0 0 8 1.12c-.55-.27-1-.61-1.57-.88a35.77 35.77 0 0 0-7.32-2.56c-.09 0-.29-.18-.27 0a4.22 4.22 0 0 0 1.16 2.36zm8.27-39.95a41.85 41.85 0 0 1 7.49-.56 20.38 20.38 0 0 0-4-5.3 15.6 15.6 0 0 0-1.78-1.37 20.93 20.93 0 0 0-2.5 1.53l-2.5 1.78a11.84 11.84 0 0 1 1.8 1.68 17 17 0 0 1 1.49 2.24zm-6.16-5.45a47.71 47.71 0 0 1 5-3.25c-3.26-1.79-10.35-1.62-12.86-1.3-1.71.22-.37.05-.39.06a15.78 15.78 0 0 0-3.94 3.73c1.22-.11 3-.46 4.07-.49a25.22 25.22 0 0 1 4.83.35 19.49 19.49 0 0 1 3.29.9zm15.93 13.52a27.42 27.42 0 0 0-1.67-7.3 44.4 44.4 0 0 0-7.24.92c.24.51.46 1 .68 1.52.53 1.26 1 2.55 1.48 3.85a39.57 39.57 0 0 1 6.75 1.01zm-7.78 33.13c.2-.68.72-1 .92-1.64.13-.41 0-.87.07-1.42a40.41 40.41 0 0 1 2.18-7 90.63 90.63 0 0 0 1.1-3q-1.22-.58-2.46-1.11a21.8 21.8 0 0 1-.2.77 95.15 95.15 0 0 0-2.64 9.42 7 7 0 0 0-.1 2.58c.27.87.78.75 1.13 1.4zm2.89-16.31c.74.3 1.45.65 2.17 1 .75-2.49 1.46-5 2-7.56a32.25 32.25 0 0 0-3.85-.74c-.07 0-.2-.11-.2 0a40.32 40.32 0 0 1-.62 7.08zm.1-9.8a32.37 32.37 0 0 1 4.39 1.28 45.32 45.32 0 0 0 .47-5.69v-1.19c-2.06-.25-4.12-.39-6.2-.45a43.33 43.33 0 0 1 1.2 6c0 .05.09 0 .14.01z" class="P X"/><path d="M339.36 452.02l9.28 1.68 5.78 3.94 5.03.17 5.28 1.94 5.65-5.3 6.33-1.46 7.58-.08 3.4 3.11 5.6 1.06 7.65-4.75 7.09-9.68-11.15.26-17.13 4.39 6.53-3.2-14.41-13.21-38.89 9.41-4.71 5.02 11.09 6.7z" opacity=".1"/><use xlink:href="#e" class="O"/><use xlink:href="#e" opacity=".75" class="P"/><use xlink:href="#f" class="O"/><use xlink:href="#f" class="P T"/><g class="O"><use xlink:href="#A"/><use xlink:href="#g"/></g><g class="P V"><use xlink:href="#A"/><use xlink:href="#g"/></g><g class="O"><use xlink:href="#B"/><use xlink:href="#h"/><use xlink:href="#C"/></g><g opacity=".9" class="P"><use xlink:href="#B"/><use xlink:href="#h"/><use xlink:href="#C"/></g><use xlink:href="#D" class="O"/><use xlink:href="#D" class="P T"/><g class="O"><use xlink:href="#E"/><use xlink:href="#F"/><use xlink:href="#i"/></g><g opacity=".4" class="P"><use xlink:href="#E"/><use xlink:href="#F"/><use xlink:href="#i"/></g><use xlink:href="#j" class="O"/><use xlink:href="#j" class="P T"/><g class="O"><use xlink:href="#k"/><use xlink:href="#l"/></g><g opacity=".5" class="P"><use xlink:href="#k"/><use xlink:href="#l"/></g><use xlink:href="#G" class="O"/><use xlink:href="#G" opacity=".75" class="P"/><use xlink:href="#m" class="O"/><use xlink:href="#m" class="P T"/><g class="O"><use xlink:href="#H"/><use xlink:href="#n"/></g><g class="P V"><use xlink:href="#H"/><use xlink:href="#n"/></g><g class="O"><use xlink:href="#I"/><use xlink:href="#o"/><use xlink:href="#J"/></g><g opacity=".9" class="P"><use xlink:href="#I"/><use xlink:href="#o"/><use xlink:href="#J"/></g><use xlink:href="#K" class="O"/><use xlink:href="#K" class="P T"/><g class="O"><use xlink:href="#L"/><use xlink:href="#M"/><use xlink:href="#p"/></g><g opacity=".4" class="P"><use xlink:href="#L"/><use xlink:href="#M"/><use xlink:href="#p"/></g><use xlink:href="#q" class="O"/><use xlink:href="#q" class="P T"/><g class="O"><use xlink:href="#r"/><use xlink:href="#s"/></g><g opacity=".5" class="P"><use xlink:href="#r"/><use xlink:href="#s"/></g><use xlink:href="#N" class="O"/><use xlink:href="#N" class="P T"/><use xlink:href="#O" class="O"/><use xlink:href="#O" class="P T"/><g class="O"><path d="M331 139.54c-5-5-16.92-12-18.42-14.65 1.5 2.6-4.31 6.19-4 10.34s7.64 11.5 17.72 13.44 9.7-4.09 4.7-9.13z" opacity=".5"/><path d="M325.43 147.08a18.7 18.7 0 0 1-8.12-3.7c-2.1-1.68-3.52-3.68-3.63-5.11s.94-3 1.87-4.3a14.46 14.46 0 0 0 1.21-1.91l4 2.91a71.23 71.23 0 0 1 7.92 6.18c1.73 1.74 2.55 3.63 2.11 4.82-.35.91-1.55 1.84-5.36 1.11zm30.74-1.89c-1.49.37-1.93 1.65-.91 3.42a11.29 11.29 0 0 0 3.31 3.35l2.57-2.22q-2.41-2.31-4.97-4.55zm-65.83-6.36c.5-.62.47-1.58-.21-2.76a13.26 13.26 0 0 0-5.58-4.67 23.8 23.8 0 0 0-.3 3.54zm15.27-26.09a48.24 48.24 0 0 0-5.83 1.83 22.26 22.26 0 0 0 9.76 5c3.33.64 5.41-.21 5.72-2q-4.71-2.49-9.65-4.83zM352 178.52l-13.61-9.07-5.23 5.44c7.47 5.01 15.91 6.63 18.84 3.63z"/></g><g class="Z"><path d="M361.14 150.05a.37.37 0 0 1-.14-.05c-14.71-9.81-36.41-16.88-44.76-18.48-10-1.93-26.58-1.73-31.74 3.63a.3.3 0 1 1-.44-.43c5.75-6 23.87-5.44 32.3-3.82s30.2 8.72 45 18.58a.31.31 0 0 1 .09.42.31.31 0 0 1-.31.15z"/><path d="M338.35 169.76a.31.31 0 0 1-.27-.15l-32.74-56.71a.32.32 0 0 1 .11-.42.3.3 0 0 1 .42.11l32.74 56.71a.3.3 0 0 1-.11.42.28.28 0 0 1-.15.04z"/></g><path d="M235.16 163.55a159.89 159.89 0 0 1-38.33-4.66.48.48 0 1 1 .23-.93c47.78 11.87 100 0 118.82-27a.48.48 0 0 1 .67-.12.49.49 0 0 1 .12.67c-9.4 13.46-27 23.63-49.54 28.65a148.08 148.08 0 0 1-31.97 3.39z" class="S"/><use xlink:href="#P" class="O"/><use xlink:href="#P" class="V"/><use xlink:href="#Q" class="O"/><use xlink:href="#Q" opacity=".15"/><use xlink:href="#R" class="O"/><use xlink:href="#R" class="V"/><path d="M294.28 69h0L292 71c-11.16-11.63-33-30.09-46.18-37.85-6.41 4-9.72 17.61-8.56 27.31L231.73 57c-1.83-10.8 2.45-27.75 10.7-29.62 12.73 5.86 40.1 28.91 51.85 41.62zm4.9-15.87c-2 .49-2.54 2.17-1.2 4.5a15 15 0 0 0 4.36 4.37l3.38-2.93-6.54-5.94zm-86.58-8.36c.65-.82.62-2.08-.28-3.63-1.32-2.33-4.24-4.67-7.32-6.14a31.58 31.58 0 0 0-.39 4.65zm20.08-34.32a62.25 62.25 0 0 0-7.66 2.4 29.14 29.14 0 0 0 12.84 6.57c4.38.85 7.11-.28 7.51-2.65q-6.19-3.24-12.69-6.32zM293.64 97l-17.9-12-6.88 7.16c9.88 6.62 20.98 8.76 24.78 4.84z" class="O"/><g class="Z"><path d="M305.72 59.52a.36.36 0 0 1-.22-.07c-19.36-12.89-47.89-22.19-58.87-24.3-13.14-2.53-35-2.28-41.75 4.78a.41.41 0 0 1-.59-.56c7.58-7.87 31.41-7.15 42.49-5S286.5 45.82 306 58.78a.41.41 0 0 1 .11.56.43.43 0 0 1-.39.18z"/><path d="M275.74 85.45a.42.42 0 0 1-.35-.21l-43.06-74.58a.41.41 0 0 1 .7-.41l43.06 74.59a.4.4 0 0 1-.15.55.36.36 0 0 1-.2.06z"/></g><path d="M197 153.85a.51.51 0 0 1-.43-.26.49.49 0 0 1 .22-.65C219 141.77 236.11 122.27 244.86 98c7.74-21.42 8.26-45 1.4-63.11a.48.48 0 1 1 .89-.34c6.95 18.31 6.43 42.15-1.39 63.78-8.83 24.46-26.08 44.15-48.57 55.44a.59.59 0 0 1-.19.08z" class="S"/><path d="M161.36 322.3l2.38 2.11a15.13 15.13 0 0 1-2.55 7.1c-3.79 6-9.35 6.43-9.35 6.43l-2.12-1.4s-.9 2.13 1.79 3.83c2 1.29 8.47 4.57 12.83 7.19a14.87 14.87 0 0 1 6.28 6.42c1.63 3.29 3.32 11.45 3.46 14.9s-1.29 12.16 3.64 14c2 .75 6.32-.67 8.88-4.41 3.89-5.69 4.8-9.18 4.36-15.53s-2.93-7.16-1.55-13.6.44-9.89-1.17-11.67c-3.11-2.54-6.27-3.29-10.67-4.57-5.62-1.64-8.84-6.64-12.22-9.13-3.66-2.73-3.99-1.67-3.99-1.67z" class="U"/><path d="M179.83,333.72a73.75,73.75,0,0,0,2.34,8.81c.9,2.93,2.55,17.19,1.85,17.71s-.89-2.74-2.1-6.38c-1.12-3.38-2.18-6.24-3.15-6.94s-9.26,5.32-9.74,6.53,1.29,4.7,2.05,9.89a101.06,101.06,0,0,1,1.22,20.1c-.17,4.65,3.84,5.16,5.9,5.32s8.56-4.34,12-12.24,1.72-13.59,1.12-17.64-1.19-4.89.3-8.57,2-9.43-.23-12.66c-1.55-1.82-4.88-3-7.26-3.6s-4.32-1.59-5.34-1.78a1.39,1.39,0,0,0-1.46.71Z" class="R"/><use xlink:href="#S" class="O"/><use xlink:href="#S" opacity=".75" class="P"/><path d="M143.39 305.1l6.3 5.22-4.48 10.09s.29 10.29-1.2 18l-8-5.05zm-34.3-61.74s-3.42 4.64 1.46 12.64a24.32 24.32 0 0 0 6.89 7.17l-3.19 38c-.49 7.4-.38 17.34-.38 17.34l10.07-57.38z" class="O V"/><path d="M130.41 371.84l-.95 2.73s-1.49 1.2-9.35 1.39-9-3.65-9-3.65v-2.18s-2.31-.39-2.75 3.44c-.31 2.74-.45 6.94-1.79 14.69a18.36 18.36 0 0 1-3.79 9.26c-2.37 3.26-8.74 9.27-11.67 11.68-3.64 3-13.75 6.73-12.06 9.94.28 2.33 3.87 5.8 8.81 6.39 7.53.88 11.4 0 17.36-3.69s5.47-6.51 12.44-8.46 9.86-4.63 10.77-7.1c.88-4.32-1.43-8.11-1.63-13.15s2.34-12.57 3.45-16.57c1.46-5.27.16-4.72.16-4.72z" class="U"/><path d="M127 395.23a73.16 73.16 0 0 0-6.89 6.83c-2.1 2.41-13.77 11.74-14.61 11.41s1.93-2.3 4.47-5.38c2.36-2.86 4.3-5.37 4.39-6.61s-9.81-5.24-11.14-5-4.26 3.76-7.59 7.27c-6.74 7.09-12.4 9.47-17.08 12.17-4.19 2.42-2.43 6.24-1.43 8.14s8.55 5.17 17.4 3.8 12.94-6 16.18-8.75 3.67-3.75 7.73-4.46 9.45-3.42 11-7.2c.75-2.37 0-6-.83-8.39s-.37-4.91-.77-5.9a2.28 2.28 0 0 0-1.08-1.29 17.37 17.37 0 0 0 .25 3.36z" class="R"/><use xlink:href="#T" class="O"/><g opacity=".8" class="P"><use xlink:href="#T"/></g><use xlink:href="#U" class="O"/><use xlink:href="#U" class="V"/><path d="M20.79 241.45a1.61 1.61 0 0 1 .83-.62c.75-.25 1.55-.17 2.33-.41a26.08 26.08 0 0 1 2.91-.66l6.11-1.32c1.25-.36 4.65-1.11 5.05-2.73.28-1.08-3.29-.42-5.73-1.22s-3.3-3.71-.41-3.75c2 0 4.55-.43 8.7-.91s6.48 0 9.31-1.11c2-.79 6.56-4.15 10.15-7l5.78 16-7.44 4.2c-4.1 2.36-6.7 5.35-14.43 7.83a20.52 20.52 0 0 1-8.72.44 7.77 7.77 0 0 1-2.56-.73 3.29 3.29 0 0 1-1.67-2 4.41 4.41 0 0 1-5-2 1 1 0 0 0-.42-.5.81.81 0 0 0-.44-.05 5.23 5.23 0 0 1-4-1.83 1.75 1.75 0 0 1-.46-1 1 1 0 0 1 .11-.63z" class="U"/><use xlink:href="#V" class="O"/><g opacity=".15"><use xlink:href="#V"/></g><path d="M100.68,199c-1.85-15.27-2.51-30.6,9.27-33.87a71.08,71.08,0,0,1,18.35-1.56c7.55.38,12.6.76,17.5,1.36,0,0,6.61,1.27,13.17,38.85,2.43,13.88,2.74,33.69,2.94,50.07-11.88,6.35-52.1,10.21-59.92-2.39A293.61,293.61,0,0,0,100.68,199Z" class="O"/><path d="M138.61 164.2l-1.54-.12a20.49 20.49 0 0 1-7.42 6.16 20.89 20.89 0 0 1-8.41 2h-.56l-.09.56c0 .09-.26 12.6-.63 14.62-.17 1-.79 1.33-1.15 1.26-.1 0-.12-.06-.18-.31-.39-1.77.1-15.52.11-15.62l.09-.54-.53-.16c-.74-.22-2.78-.74-3.61-2.08s-.59-4.07-.06-5.67l-1.23.18c-.65 2-.88 4.63.28 6.24a7.18 7.18 0 0 0 3.74 2.36c-.31 2.1-.23 13.48 0 15.12.11.89.39 1.59 1.24 1.73a2 2 0 0 0 .42 0 2.55 2.55 0 0 0 2.16-2.3c.33-1.76.25-12.17.55-14.11a22.1 22.1 0 0 0 8.45-2.1 19.57 19.57 0 0 0 8.37-7.22z" class="R"/><g class="Q"><path d="M110.34 124.25c-11 4.49-3.17 18.69-.35 27.36 1.14 2.51 4.13 5.22 6.66 5.22l.71-7.39-.56-5.44s3.25-5 3.43-8.9c.23-5.07-.94-7.08-.94-7.08-1.81-1.24-6.92-2.76-8.95-3.77z"/><path d="M119.19 132.69A14.64 14.64 0 1 0 133 117.26a14.62 14.62 0 0 0-13.81 15.43z"/><path d="M110.34 124.25c1-6.17 7.85-11.24 15.39-11.91s22.12 2.93 19.15 12.59-31.83 7.82-34.54-.68z"/></g><path d="M109.06 151.42a4.84 4.84 0 0 0 6.06-.34l1 13.48c-2.73 6.81 11 8.84 19.22-.59l-.17-3.34a30.09 30.09 0 0 0 5.67-.32c3.57-.75 5.68-3.72 6.55-7.66 1.4-6.34.5-15.71-2.54-27.72-4.19-2.91-17.42-2.7-25.59 3.09.78 7.13-.2 9.65-.4 10.74s-1.43 4-2.34 4.17c-1.71.35-2.07-1.5-3.23-2.59a4.54 4.54 0 0 0-6.32 1.23c-2.17 3.5-.13 8.43 2.09 9.85z" class="U"/><path d="M135.2,160.63c-5.76-.26-13-2.55-15-5.08a19.23,19.23,0,0,1-2.75-4.63s.45,4.51,2,6.73,6.93,5.57,15.93,5.71Z" class="Y"/><path d="M130.8 139.49a1.61 1.61 0 1 1-1.7-1.59 1.63 1.63 0 0 1 1.7 1.59zm-.6-6.6l-3.53 1.73a2.07 2.07 0 0 1 .93-2.7 1.92 1.92 0 0 1 2.6.97zm14.32.6l-3.88-.78a1.91 1.91 0 0 1 2.26-1.59 2.09 2.09 0 0 1 1.62 2.37zm.42 5.05a1.61 1.61 0 1 1-1.7-1.59 1.64 1.64 0 0 1 1.7 1.59z" class="Q"/><g class="R"><path d="M122.52,134.6l-12.18,5a4.06,4.06,0,0,1,3.64,1.48l8.62-3.73Z"/><path d="M151 132.72l-.81-.05a23.73 23.73 0 0 0-8.08.78c-2.55 1-3.43 1.92-4.86 2s-2.53-.75-5.3-1.37c-2.21-.49-5.86-.18-8.64.28l-.87.16a1.47 1.47 0 0 0-.92 1.53 3.29 3.29 0 0 0 .87 1.65 2 2 0 0 1 .31.66 19.12 19.12 0 0 0 1.08 3.74 5.74 5.74 0 0 0 1.15 1.62 4.34 4.34 0 0 0 .58.46l.33.21a6.27 6.27 0 0 0 1 .41.86.86 0 0 1 .17 0 1.1 1.1 0 0 0 .26.06 1.16 1.16 0 0 0 .28.05 4.52 4.52 0 0 0 .85.09h.83a6.14 6.14 0 0 0 5.81-3.88c.84-1.83.64-3.45 2.27-3.54h.16.15c1.21.22 1.15 1.64 2 3.25a6.86 6.86 0 0 0 1.21 1.75l.29.26.15.12.15.12.15.1.16.1.12.07h.09a4.85 4.85 0 0 0 1.42.49h.14a7.37 7.37 0 0 0 1.73.07 5.22 5.22 0 0 0 4.92-3.58 21.59 21.59 0 0 0 .86-3.88 1.48 1.48 0 0 1 .29-.63 3.43 3.43 0 0 0 .69-1.78c-.05-.63-.55-1.29-.99-1.32zm-26.8 6.95c-.25-1-.59-2.76 0-3.35s2.18-1.26 4.84-1.17a2.43 2.43 0 0 1 .27 0c.41 0 .82.07 1.22.14.16 0 .32.06.47.09a9.64 9.64 0 0 1 1.18.32 2.32 2.32 0 0 1 .37.13l.4.16h.07l.15.07a2.4 2.4 0 0 1 .81.6c.54.73.34 1.47.07 2.87a5.51 5.51 0 0 1-1.17 2.55 5.06 5.06 0 0 1-3.83 1.67 4.06 4.06 0 0 1-3.76-1.57 8.5 8.5 0 0 1-1.1-2.51zm25.38-1.61c-.18 1-.56 3.11-2.39 4.14a4.4 4.4 0 0 1-2 .56 4.15 4.15 0 0 1-4-1.61h0l-.08-.1-.08-.13v-.07l-.11-.19a1.63 1.63 0 0 1-.11-.23.47.47 0 0 1-.05-.1v-.06-.1a.19.19 0 0 1 0-.07 7.68 7.68 0 0 1-.29-.9c-.3-1.37-.52-2.09 0-2.88s2.4-1.77 4.27-2.12a12.08 12.08 0 0 1 1.21-.17h.05.58.34.33a5.5 5.5 0 0 1 .62.08h.15 0 .09.15.18c.11 0 .21.06.29.1h.06a2.34 2.34 0 0 1 .66.38c.55.62.34 2.21.12 3.47z"/></g><path d="M143.77 146.1l-6.12 2.22-1.36-10.32a1.47 1.47 0 0 1 1-.4h.15.15a.61.61 0 0 1 .33.13 4195.35 4195.35 0 0 1 5.85 8.37zm-12.48 3.05l6.6 2a3.37 3.37 0 0 1-4.21 2.44 3.61 3.61 0 0 1-2.39-4.44z" class="Y"/><path d="M132 150.31a3.9 3.9 0 0 0-.83-.05 3.56 3.56 0 0 0 2.49 3.29 3.38 3.38 0 0 0 1.09.12 3.14 3.14 0 0 0-2.75-3.36z" fill="#ffa8a7"/><use xlink:href="#W" class="O"/><use xlink:href="#W" class="V"/><path d="M206.05 158.67c-1.26-5.12-2.11-4.33-3.41-5-4.24-2.11-5.3-2.37-6.48-2.42a2.11 2.11 0 0 0-1.79 1c-1.11-.59-2.61-1.69-4-.15a5.73 5.73 0 0 0-1 1.3 1.35 1.35 0 0 0-.92-.09c-1.54.39-2.46 4.81-2.12 6.28.24 1 1.11 1.76 2.44 2.44 1.13.59 1.39-.8 1.39-.8l1.38 1.1c1.57 4.4-1.72 7.8 2.87 12.4 1 1-4.37 14.58-8.81 23.73l-21.45-21.35c-8.16-8.32-10.06-10-15.95-9.77-5.37 7.23-4.26 15.57 1.81 27.8 0 0 20.57 18.66 32.21 25.57 7.81 4.63 12.08 1.76 15.49-3.95h0c3.66-5.82 5-16 8-29.72 4.14-18.57 1.29-24.48.34-28.37z" class="U"/><g class="Y"><path d="M194.37 152.24l5.2 2.27-4.66-2.84a2.24 2.24 0 0 0-.54.57zm-4.98 1.15l5.72 3-5.3-3.61a4.2 4.2 0 0 0-.42.61zm-.92 2.79a2 2 0 0 0 .28 1.11 3.83 3.83 0 0 0 .68.93v-.1c0 .37-.09.75-.12 1.12l.2-.06a1.25 1.25 0 0 0-1-.38 1.69 1.69 0 0 0-.94.36 1.94 1.94 0 0 1 .93-.19 1.29 1.29 0 0 1 .81.36l.17.19v-.25l.13-1.12v-.06h0a6.4 6.4 0 0 1-.71-.85 2.48 2.48 0 0 1-.43-1.06z"/><path d="M189.39,157.83a21,21,0,0,0,1.8,1.46,2.54,2.54,0,0,0-.05,1.47,13.2,13.2,0,0,0,.42,1.56l-1.38-1.1a2.83,2.83,0,0,0-1-2.05Z"/></g><use xlink:href="#X" class="O"/><use xlink:href="#X" opacity=".15"/><path d="M185.62,196.37c-3.33,6.41-3.27,14.89-1.89,17.63-3.52-5.29-3.27-14.06.17-19.26Z" class="V"/><path d="M52.65 240.58a73.51 73.51 0 0 1-8.71-.49.49.49 0 0 1-.42-.54.48.48 0 0 1 .53-.41c20.86 2.49 50.37-4.69 79-19.2 30.56-15.53 55.25-37.18 67.72-59.42a.48.48 0 0 1 .84.47c-12.57 22.4-37.4 44.19-68.13 59.8-25.01 12.68-50.72 19.79-70.83 19.79z" class="S"/><path d="M15.14 230.34a1 1 0 0 0 .51 1.31L27.87 237a.48.48 0 0 0 .49-.11 1.54 1.54 0 0 0 .56-1.28.5.5 0 0 0-.25-.43l-12.22-5.36a1 1 0 0 0-1.31.52z" class="Q"/><path d="M25.89,242.64a3.49,3.49,0,0,0,3.43-.73,10.9,10.9,0,0,0,4-9,3.46,3.46,0,0,0-1.79-3l-1.23-.54a3.49,3.49,0,0,0-3.43.73,10.9,10.9,0,0,0-4,9,3.47,3.47,0,0,0,1.79,3Z" class="R"/><path d="M33.28 232.88a3.46 3.46 0 0 0-1.79-3 3.49 3.49 0 0 0-3.43.73 10.93 10.93 0 0 0-4 9 3.5 3.5 0 0 0 1.79 3 3.49 3.49 0 0 0 3.43-.73 10.9 10.9 0 0 0 4-9z" class="W"/><path d="M40.49,247.47a2.74,2.74,0,0,0,2.72-.58,8.61,8.61,0,0,0,3.15-7.17,2.74,2.74,0,0,0-1.42-2.39l-13.8-6.05a2.74,2.74,0,0,0-2.72.57A8.7,8.7,0,0,0,25.27,239a2.75,2.75,0,0,0,1.42,2.39Z" class="a"/><path d="M46.36 239.72a2.74 2.74 0 0 0-1.42-2.39 2.74 2.74 0 0 0-2.72.57 8.7 8.7 0 0 0-3.15 7.18 2.75 2.75 0 0 0 1.42 2.39 2.74 2.74 0 0 0 2.72-.58 8.61 8.61 0 0 0 3.15-7.17z" class="W"/><path d="M38.66 236.34a8.21 8.21 0 0 0-1.73 2.12 9.86 9.86 0 0 0-1 2.51 7.13 7.13 0 0 0-.24 2.68 2.76 2.76 0 0 0 1.28 2.26 2.72 2.72 0 0 1-1.52-2.23 7.09 7.09 0 0 1 .19-2.79 7.93 7.93 0 0 1 3.02-4.55zm1.03-1.34a2.79 2.79 0 0 0-2.54.59 7.17 7.17 0 0 0-1.8 2 9.33 9.33 0 0 0-1.14 2.46 8 8 0 0 0-.39 2.7 7.93 7.93 0 0 1 1.27-5.32 6.92 6.92 0 0 1 1.93-2 2.72 2.72 0 0 1 2.67-.43zm-4.42-.14a8.28 8.28 0 0 0-1.27 1.52 9.63 9.63 0 0 0-1 1.75 10.62 10.62 0 0 0-.64 1.9 8.88 8.88 0 0 0-.22 2 7.6 7.6 0 0 1 3.15-7.17zm1.03-1.32a2.77 2.77 0 0 0-2.53.58 7.2 7.2 0 0 0-1.81 2 10.08 10.08 0 0 0-1.14 2.47 8.18 8.18 0 0 0-.39 2.7A8 8 0 0 1 31.7 236a7.18 7.18 0 0 1 1.93-2 2.7 2.7 0 0 1 2.67-.46zm-4.42-.17a8 8 0 0 0-1.72 2.12 9.51 9.51 0 0 0-1 2.51 7.35 7.35 0 0 0-.25 2.68 2.77 2.77 0 0 0 1.29 2.26 2.7 2.7 0 0 1-1.52-2.23 6.91 6.91 0 0 1 .19-2.79 8 8 0 0 1 3.01-4.55zm-1.69-.74a8.74 8.74 0 0 0-1.33 1.52 9.59 9.59 0 0 0-1 1.75 9.88 9.88 0 0 0-.64 1.9 8.88 8.88 0 0 0-.22 2 7.6 7.6 0 0 1 3.15-7.17z" class="S"/><path d="M40,248.84a3.44,3.44,0,0,0,3.43-.73,10.89,10.89,0,0,0,4-9,3.44,3.44,0,0,0-1.79-3l-1.23-.54a3.46,3.46,0,0,0-3.43.72,10.92,10.92,0,0,0-4,9,3.44,3.44,0,0,0,1.79,3Z" class="R"/><path d="M47.43 239.08a3.44 3.44 0 0 0-1.79-3 3.43 3.43 0 0 0-3.42.72 10.93 10.93 0 0 0-4 9 3.48 3.48 0 0 0 1.79 3 3.44 3.44 0 0 0 3.43-.73 10.89 10.89 0 0 0 3.99-8.99z" class="W"/><path d="M55.87 248.2a1 1 0 0 0-.51-1.31l-12.22-5.36a.48.48 0 0 0-.49.11 1.54 1.54 0 0 0-.56 1.28.5.5 0 0 0 .25.43l12.22 5.36a1 1 0 0 0 1.31-.51z" class="Q"/><path d="M20.27 241.54a6.73 6.73 0 0 1 0-2.79 21.71 21.71 0 0 1 .62-2.53 4.67 4.67 0 0 1 .72-1.51 1.83 1.83 0 0 1 1.44-.76 2 2 0 0 1 1.53 1 11 11 0 0 1 .78 1.75.32.32 0 0 0 .17.22c.16.06.3-.08.42-.2a1.74 1.74 0 0 1 2-.1 3.9 3.9 0 0 1 1.38 1.62 10.71 10.71 0 0 1 1.09 3.32 1.86 1.86 0 0 1 2.35.39 7.71 7.71 0 0 1 1.27 2.26 11.56 11.56 0 0 0 1.28 2.1c.55.72 1.23 1.57.92 2.43a2.4 2.4 0 0 1-2.44-.33c-.71-.49-1.27-1.18-1.95-1.71a11.08 11.08 0 0 0-2.62-1.37 25.5 25.5 0 0 0-5.5-1.81 19.71 19.71 0 0 1-2.06-.08c-.67-.21-1.22-1.21-1.4-1.9z" class="U"/><g class="O"><path d="M477.5 207.17c-1.14-5.79-4.22-10.56-8-15-3.87-4.63-7.91-9.71-13.58-12.16-.26-.1-.36.41-.17.53 5 3.17 8.7 7.78 12.29 12.39a41 41 0 0 1 4.86 7.43 27 27 0 0 1 2.32 8.12 29.09 29.09 0 0 1-2.73 15.92c-2.27 5-5.4 9.52-7.77 14.46-2.81 5.83-4.5 12.25-2.64 18.64.18.59.67.19.57-.29-1.24-6.14 1.22-12.51 4.08-17.85s6.29-10 8.67-15.43a28.18 28.18 0 0 0 2.1-16.76z"/><path d="M468.37 197.82a23.93 23.93 0 0 0-4.88-10.14 43.07 43.07 0 0 0-7.25-7.59c-.45-.36-.5.62-.31.85 2.19 2.79 4.7 5.28 6.64 8.25a21.45 21.45 0 0 1 3.52 9.39 33.05 33.05 0 0 1-1.15 11.32 40.24 40.24 0 0 1-4 10.14 140.55 140.55 0 0 0-9.44 19.68c-2.38 6.46-4.25 13.33-3.52 20.26.65 6.29 3.72 12.94 9.51 16 .34.18.44-.62.19-.79a20.12 20.12 0 0 1-8.67-15.8c-.41-7.5 2.28-14.84 5.19-21.62a105.2 105.2 0 0 1 4.93-10c1.63-2.95 3.49-5.76 5.08-8.73a36.28 36.28 0 0 0 3.67-10.41 30 30 0 0 0 .49-10.81zm-56-93.02c-18.51 4.55-27.91 14.25-28.07 29.17l71.09 45.35 29.95-25.91Q456 125.33 412.37 104.8z"/><use xlink:href="#Y"/></g><use xlink:href="#Y" class="X"/><path d="M478.81 147.43c-2 .5-2.54 2.17-1.2 4.5a14.73 14.73 0 0 0 4.35 4.4l3.38-2.92q-3.18-3.03-6.53-5.98zm-86.5-8.35c.65-.82.62-2.07-.28-3.62-1.34-2.33-4.24-4.67-7.33-6.14a31.56 31.56 0 0 0-.4 4.65z" class="P T"/><use xlink:href="#Z" class="O"/><use xlink:href="#Z" class="P T"/><use xlink:href="#t" class="O"/><use xlink:href="#t" class="P T"/><g class="Z"><path d="M485.34 153.82a.41.41 0 0 1-.22-.07c-19.34-12.88-47.85-22.17-58.82-24.28-13.12-2.53-34.92-2.27-41.71 4.78a.4.4 0 1 1-.58-.56c7.56-7.86 31.38-7.14 42.45-5s39.67 11.45 59.1 24.4a.39.39 0 0 1 .11.56.4.4 0 0 1-.33.17z"/><path d="M455.39 179.72a.39.39 0 0 1-.35-.2L412 105a.4.4 0 0 1 .15-.55.41.41 0 0 1 .55.15l43 74.52a.41.41 0 0 1-.15.55.46.46 0 0 1-.16.05z"/></g><path d="M334.28 248.73a.48.48 0 0 1-.46-.32.49.49 0 0 1 .3-.61c32.44-11.29 58.19-30.18 74.46-54.61 13.48-20.23 19.79-43.58 17.33-64.06a.47.47 0 0 1 .41-.53.47.47 0 0 1 .53.42c2.5 20.7-3.87 44.28-17.47 64.7-16.39 24.61-42.3 43.62-74.95 55a.39.39 0 0 1-.15.01z" class="S"/><path d="M249.83,322.55c-.41,4.27,1.59,21.9,5.21,33.24l26.16-4.71-.78-26.58Z" class="R"/><path d="M313.77 375.45c-2.63-.13-3.54-.07-10.4.43l-15 1.26 1.43-15.8a49.93 49.93 0 0 1 11.1.33l11.64 1.81s4.84 0 7.13 1.2 2.81 10.17-.06 11.62-5.84-.85-5.84-.85z" class="U"/><path d="M254.22 353c1.78 6.41 7.46 20.11 12.64 23.1s9.64 3 20.14 1.91l15.4-1.62a22.91 22.91 0 0 0-.81-14.64c-7.09-1.54-13.14-2-17.27-.73l-3.9-36.53" class="R"/><path d="M332.29,393.91a3.31,3.31,0,0,0,3.29-.77c1.08-1.38,2.77-5.36,1.87-10.47s-2-6.49-3.83-8.46-3.71-3.78-4.33-6.08c-.58-2.14-1.6-5.39-2.3-6.05s-3.67-.42-3.67-.42Z" class="Q"/><path d="M312.66 363.1a1.28 1.28 0 0 1 .88-.56 4.52 4.52 0 0 1 1.27.06 10.18 10.18 0 0 0 3.48-.16l3.38-.58a11 11 0 0 1 2.68-.15c1.53.21 2.69 4.63 3.65 6.84a21.28 21.28 0 0 0 4.28 6.1 15.84 15.84 0 0 1 3.93 9.34c.15 4-.92 8.48-2.71 9.59-2.21 1.37-4.39 1.66-7.39-4.08a36.68 36.68 0 0 0-8.75-10.57 5.62 5.62 0 0 0-3.14-1.46 5.92 5.92 0 0 1-1-.13 1.29 1.29 0 0 1-.82-.61 1.89 1.89 0 0 1-.12-.71 10.16 10.16 0 0 1 1.2-4.44 3.13 3.13 0 0 1 1.54-1.64c.92-.33 1.92.12 2.88.26a.3.3 0 0 0 .21 0c.12-.08.06-.27 0-.39a4.88 4.88 0 0 0-1.6-1.32c-.54-.32-1.4-.7-1.71-1.28a4 4 0 0 1-.28-1.72 1.84 1.84 0 0 0-.71-1.53 9.49 9.49 0 0 0-1.17-.46.69.69 0 0 1 .02-.4z" class="R"/><path d="M332.28 374.65a30.45 30.45 0 0 1-2.22-2.62h0s2.77 6.14 1 9c-1.14 1.86-2.68 1.07-3.16 1.05s-2.31 4.52-2.44 6.27h0l.66 1.13c3 5.74 5.18 5.45 7.39 4.08 1.79-1.11 3.07-4.41 2.83-9.53a16.29 16.29 0 0 0-4.06-9.38z" class="W"/><path d="M316 365.57a11.56 11.56 0 0 0-.93-2.94 2.58 2.58 0 0 1-.29 0 4.52 4.52 0 0 0-1.27-.06 1.28 1.28 0 0 0-.88.56.69.69 0 0 0-.08.38 9.49 9.49 0 0 1 1.17.46 1.84 1.84 0 0 1 .71 1.53 4 4 0 0 0 .28 1.72c.31.58 1.17 1 1.71 1.28a4.88 4.88 0 0 1 1.6 1.32c.08.12.14.31 0 .39 1.51 1.72 8.61 10.25 10.08 12.52s2.69 1.36.48-2.56a66.81 66.81 0 0 0-8.36-10.85c-1.58-1.57-4.01-2.38-4.22-3.75z" class="Q"/><path d="M328.27 382.42a.35.35 0 0 0-.09-.23.36.36 0 0 0-.51 0 8.72 8.72 0 0 0-2.33 6.82.35.35 0 0 0 .41.3.36.36 0 0 0 .31-.41 8.07 8.07 0 0 1 2.09-6.17.38.38 0 0 0 .12-.31zm-1.95-3.11a.35.35 0 0 0-.09-.23.36.36 0 0 0-.51 0 8.7 8.7 0 0 0-2.48 6.76.363.363 0 1 0 .72-.09 8.06 8.06 0 0 1 2.23-6.12.35.35 0 0 0 .13-.32zm-2.19-2.86a.31.31 0 0 0-.09-.22.36.36 0 0 0-.51 0 8.66 8.66 0 0 0-2.32 6.82.36.36 0 1 0 .71-.11 8.06 8.06 0 0 1 2.09-6.17.34.34 0 0 0 .12-.32zm-1.97-2.51a.4.4 0 0 0-.08-.23.36.36 0 0 0-.51 0 8.75 8.75 0 0 0-2.62 6.71.37.37 0 0 0 .4.32.36.36 0 0 0 .32-.4 8.05 8.05 0 0 1 2.36-6.07.39.39 0 0 0 .13-.33zm-2.45-2.32a.3.3 0 0 0-.08-.22.36.36 0 0 0-.51-.06c-1.78 1.44-2.93 4.66-2.61 7.34a.37.37 0 0 0 .4.32.36.36 0 0 0 .32-.4c-.29-2.42.77-5.42 2.35-6.7a.34.34 0 0 0 .13-.28z" class="a"/><path d="M263.55 333c-2.31 4.85-5.55 10.45-7.23 14.18l3.53-13c-3.42-3.31-5-4.65-6.68-9.06 2.13 3.04 5.19 4.75 10.38 7.88z" class="Q"/><path d="M226.41 441.32a2.65 2.65 0 0 1 .51-.43c.18-.13.32-.19.48-.3 5.88-4 7.41-6.33 11.13-12a56.36 56.36 0 0 0 2.13-7.8c1-5.59 3.44-31.67 4.07-39 .94-10.94 2.38-12.6 6.09-20.61 4.12-8.88 9.46-18.92 13.59-27.48-4.18-.26-7.09-3.29-12-10.5-.19-3.46.6-5.3 1-9.25 0 0 4.7 2.08 13.17 2.58s17.6.46 24-2.61c1.75 3.67 3.37 7.49 3 16.84-.41 9.56-8.11 19.61-13.87 27.74-4.29 6.05-7.77 11.72-13.19 18.91.29 5.82 0 9.63-2 15-.94 2.62-4.12 11.43-6.83 17.12a119.39 119.39 0 0 0-5.28 12.87 8.92 8.92 0 0 0 .06 5c.42 1.1 1.28 2.66.36 4.15-1.29 2.07-3.61 2.48-5.44 4.25a31 31 0 0 0-4.32 4.85c-1.54 2.21-3.63 3.43-6.75 4.06a13.3 13.3 0 0 1-9.63-1.6 1.41 1.41 0 0 1-.6-.7 1.19 1.19 0 0 1 .32-1.09z" class="U"/><path d="M254.73 350.47l8.4-17.39s-8.15-3.77-11.06-9.92c0 0 .31-4.91 1.17-9.78 0 0 22 6.66 40-1.15 3.29 5.75 3.73 12.39 3.73 19.82 0 7.86-1.92 13.58-10 24.43-4.65 6.23-19.22 21.58-19.22 21.58s0 10.15-3.8 18.33-7.75 17.69-7.75 17.69-8.28.41-14.47-4.61c0 0 2.77-30 4-37.12s4.62-12.81 9-21.88z" class="W"/><path d="M223.51,444.19a3.3,3.3,0,0,0,1,3.23c1.45,1,5.54,2.39,10.57,1.12s6.33-2.47,8.17-4.42,3.5-4,5.75-4.76c2.09-.73,5.26-2,5.87-2.73S255,433,255,433Z" class="Q"/><path d="M252.85 422.42a1.29 1.29 0 0 1 .61.84 4.43 4.43 0 0 1 0 1.26 10.42 10.42 0 0 0 .41 3.47l.82 3.33a10.38 10.38 0 0 1 .34 2.66c-.1 1.54-4.42 3-6.56 4.13a21.32 21.32 0 0 0-5.78 4.7 15.81 15.81 0 0 1-9 4.58c-3.94.44-8.53-.3-9.76-2-1.53-2.11-2-4.26 3.54-7.66a36.84 36.84 0 0 0 9.92-9.49 5.61 5.61 0 0 0 1.23-3.23 6.11 6.11 0 0 1 .06-1.05 1.22 1.22 0 0 1 .55-.86 1.68 1.68 0 0 1 .7-.17 10 10 0 0 1 4.51.88 3.15 3.15 0 0 1 1.75 1.42c.4.89 0 1.92-.06 2.89a.3.3 0 0 0 0 .21c.09.11.27 0 .38-.05a4.71 4.71 0 0 0 1.2-1.69 4.66 4.66 0 0 1 1.16-1.8 4.16 4.16 0 0 1 1.69-.4 1.86 1.86 0 0 0 1.48-.81 9.93 9.93 0 0 0 .37-1.21.75.75 0 0 1 .44.05z" class="R"/><path d="M242.72 442.81a29.28 29.28 0 0 1 2.46-2.4h0s-5.93 3.2-8.93 1.64c-1.94-1-1.26-2.6-1.28-3.07s-4.66-2-6.42-2h0l-1.08.74c-5.52 3.4-5.07 5.55-3.54 7.66 1.23 1.71 4.61 2.75 9.7 2.14a16.27 16.27 0 0 0 9.09-4.71z" class="W"/><path d="M250.62 426a11.22 11.22 0 0 0 2.87-1.13v-.3a4.43 4.43 0 0 0 0-1.26 1.29 1.29 0 0 0-.61-.84.75.75 0 0 0-.4-.06 9.93 9.93 0 0 1-.37 1.21 1.86 1.86 0 0 1-1.48.81 4.16 4.16 0 0 0-1.69.4 4.66 4.66 0 0 0-1.16 1.8 4.71 4.71 0 0 1-1.2 1.69c-.11.09-.29.16-.38.05-1.62 1.63-9.61 9.31-11.77 10.95s-1.16 2.78 2.58.29a67.31 67.31 0 0 0 10.23-9.11c1.39-1.79 2.03-4.27 3.38-4.5z" class="Q"/><path d="M234.69 439.36a.36.36 0 0 0 .21-.62 8.74 8.74 0 0 0-7-1.83.37.37 0 0 0-.27.44.35.35 0 0 0 .43.27 8.06 8.06 0 0 1 6.31 1.65.35.35 0 0 0 .32.09zm2.96-2.16a.33.33 0 0 0 .22-.11.36.36 0 0 0 0-.51 8.69 8.69 0 0 0-6.92-2 .363.363 0 0 0 .15.71 8.06 8.06 0 0 1 6.26 1.79.37.37 0 0 0 .29.12zm2.69-2.39a.33.33 0 0 0 .22-.11.36.36 0 0 0 0-.51 8.74 8.74 0 0 0-7-1.83.38.38 0 0 0-.27.44.37.37 0 0 0 .44.27 8.07 8.07 0 0 1 6.3 1.64.33.33 0 0 0 .31.1zm2.37-2.15a.31.31 0 0 0 .22-.09.37.37 0 0 0 0-.52 8.73 8.73 0 0 0-6.89-2.12.362.362 0 1 0 .14.71 8.08 8.08 0 0 1 6.22 1.91.34.34 0 0 0 .31.11zm2.14-2.6a.4.4 0 0 0 .22-.1.36.36 0 0 0 0-.51c-1.56-1.67-4.85-2.59-7.51-2.08a.362.362 0 0 0 .14.71c2.39-.46 5.46.38 6.84 1.87a.38.38 0 0 0 .31.11z" class="a"/><use xlink:href="#a" class="O"/><use xlink:href="#a" class="X"/><path d="M296.3 268.9c-1.71-7.66-3.08-9.29-6.53-11.1l-11-2.08c-.95-.16-1.91-.25-2.87-.33a45.09 45.09 0 0 0-14.31.69 44.15 44.15 0 0 0-10.77 3.54c-1.86 2.24-2.41 8.92-1 23.19 1.07 11 1 28.07-1.87 51.33 6.1 4.84 23.52 7.41 35.22 6.58 2.18-4.06 3.56-8.55 4.15-17.56 2.66 5.25 2.74 11.73 3 17.23a48.46 48.46 0 0 0 8.23-4.63c1.91-12.33 2.45-45.63-2.25-66.86z" class="O"/><path d="M296.3 268.9c-1.71-7.66-3.08-9.29-6.53-11.1l-11-2.08c-.95-.16-1.91-.25-2.87-.33a45.09 45.09 0 0 0-14.31.69 43.08 43.08 0 0 0-10.77 3.54c-1.86 2.24-2.41 8.92-1 23.19 1.07 11 1 28.07-1.87 51.33 6.1 4.84 23.52 7.41 35.22 6.58 2.18-4.06 3.56-8.55 4.15-17.56 2.66 5.25 2.74 11.73 3 17.23a48.46 48.46 0 0 0 8.23-4.63c1.91-12.33 2.45-45.63-2.25-66.86z" class="P V"/><path d="M292.65 336.14c-1-10.48-3.8-15.6-6.26-18.06a88.48 88.48 0 0 1-4.61 19.73c-13.06.09-26.64-3-33.54-6.5l-.33 2.83c6.1 4.84 23.52 7.41 35.22 6.58 2.18-4.06 3.57-8.55 4.15-17.56 2.66 5.25 2.74 11.73 3 17.23a48.46 48.46 0 0 0 8.23-4.63c.15-.94.29-2 .42-3.18z" class="O"/><path d="M263.7 260.35c-2.47 4.88-2.22 19-1.51 21.78s1.3 2.58 1.34-.09-.77-16.48 1.9-21.18a1.8 1.8 0 0 0-1.73-.51z" class="X"/><path d="M260 250.33c-2-3.5-4.7-5.7-8.82-10.57-5.61-6.62-5.54-15.47-.58-18.53-.37-7.5 8.27-13.4 18.46-12.63 9.08.7 17.17 6.62 15.68 17.24-1 1.32-2.55.7-4.13 1.11.05 0-.41 3.35-.5 3.66a13.5 13.5 0 0 1-1.59 3.5A13.14 13.14 0 0 1 276 237a19.05 19.05 0 0 1-3.76 2.07 12.36 12.36 0 0 0-2.22 1.24 8.31 8.31 0 0 0-1.09 1.51l-6.31 8.6c-.54.67-2.02-.21-2.62-.09z" class="Q"/><path d="M257.61 238.48a1.06 1.06 0 0 1-.17.2c-1 .9-1.28-1-2.58-2.08a2.9 2.9 0 0 0-2.51-.52 3.68 3.68 0 0 0-3 2.7 5.42 5.42 0 0 0 4.42 6.38 4.37 4.37 0 0 0 4.48-1.76l2.34 14.24s-.38 3.06 3.75 3.63c3.49 0 11.2-2.52 12.9-4.86l-.88-5.31a15 15 0 0 0 5.46-1.81c4.67-3 4.85-7.24 4.9-9.55.06-3.41-.65-5-1.13-7.73-.28-1.65-.28-3.28-.87-6.17s-1.83-5.84-3.59-7.36c-1.56 4-11.53 6.77-19.45 5.06a11.69 11.69 0 0 1-.37 5.92c-.7 2.12-2.21 3.42-3.88 4.95a6.49 6.49 0 0 1 .48 3.11 2 2 0 0 1-.3.96z" class="U"/><path d="M268.51 230l-3 1.79a1.82 1.82 0 0 1 .61-2.44 1.69 1.69 0 0 1 2.39.65z" class="Q"/><path d="M271.27 241.69l4.24.84a2.27 2.27 0 0 1-2.61 1.74 2.1 2.1 0 0 1-1.63-2.58z" class="Y"/><path d="M267.47 234.82a1.78 1.78 0 1 0 1.29-2.15 1.78 1.78 0 0 0-1.29 2.15zm12.36-2.46a1.7 1.7 0 1 0 1.23-2.07 1.7 1.7 0 0 0-1.23 2.07zm3.92-3.57l-3.31-.68a1.62 1.62 0 0 1 1.94-1.34 1.76 1.76 0 0 1 1.37 2.02z" class="Q"/><path d="M274.25 230.29l2.16 9.05 4.43-2a23.38 23.38 0 0 0-6.59-7.05zm2.08 20.81s-6.14.55-11-1.31a10.6 10.6 0 0 1-4.71-4.26s1.3 3.24 3.23 4.71c5 3.87 12.76 2.52 12.76 2.52z" class="Y"/><use xlink:href="#b" class="O"/><use xlink:href="#b" class="X"/><use xlink:href="#c" class="O"/><use xlink:href="#c" class="X"/><path d="M340.5 252.4c-1.08-4.43-1.82-3.74-2.94-4.3-3.67-1.83-4.6-2.06-5.61-2.1a1.81 1.81 0 0 0-1.55.84c-1-.51-2.26-1.46-3.44-.13a4.91 4.91 0 0 0-.87 1.12 1.15 1.15 0 0 0-.8-.07c-1.33.34-2.13 4.16-1.83 5.44.2.89 1 1.52 2.11 2.11 1 .5 1.2-.7 1.2-.7l1.2.95c1.36 3.81-1.5 6.75 2.48 10.73.89.89-3.89 11.29-7.73 19.22l-17.05-17.18c-7.07-7.2-8.71-8.66-13.81-8.45-4.64 6.26-3.68 13.48 1.57 24.06 0 0 16.29 14.84 26.36 20.82 6.76 4 10.46 1.52 13.41-3.42h0c3.16-5 4.45-12.55 7-24.39 3.6-16.06 1.13-21.18.3-24.55z" class="U"/><g class="Y"><path d="M322.72 285.51c-2.29 4.91-1.66 11.91-1.2 13.39-2-4-2.27-9.38-.18-14.77zm7.68-38.67l4.5 2-4-2.45a1.78 1.78 0 0 0-.5.45zm-4.31.99l5 2.59-4.59-3.12a3.07 3.07 0 0 0-.41.53zm-.8 2.42a1.72 1.72 0 0 0 .24 1 3.57 3.57 0 0 0 .59.81v-.09c0 .32-.08.65-.11 1l.18-.06a1.1 1.1 0 0 0-.85-.32 1.47 1.47 0 0 0-.81.31 1.82 1.82 0 0 1 .81-.17 1.17 1.17 0 0 1 .7.32l.14.16v-.22l.12-1h0 0a4.8 4.8 0 0 1-.61-.74 2.15 2.15 0 0 1-.4-1z"/><path d="M326.09,251.68a16,16,0,0,0,1.56,1.26,2.23,2.23,0,0,0,0,1.27,11.61,11.61,0,0,0,.37,1.35l-1.2-.95a2.42,2.42,0,0,0-.89-1.77Z"/></g><use xlink:href="#d" class="O"/><use xlink:href="#d" class="X"/><path d="M286.47 308.39a.46.46 0 0 1-.47-.39.47.47 0 0 1 .44-.51c10.58-.69 32.73-31.47 40.34-52.62a.49.49 0 0 1 .62-.29.47.47 0 0 1 .28.61c-7.8 21.66-30 52.53-41.17 53.25z" class="S"/><path d="M276.39 326.65a.87.87 0 0 0 1.11-.54l3.82-11.06a.43.43 0 0 0-.12-.42 1.33 1.33 0 0 0-1.16-.4.43.43 0 0 0-.36.25l-3.82 11.06a.87.87 0 0 0 .53 1.11z" class="Q"/><path d="M286.38 316.39a3 3 0 0 0-.87-2.95 9.59 9.59 0 0 0-8.18-2.83 3.08 3.08 0 0 0-2.51 1.78l-.38 1.12a3 3 0 0 0 .87 2.94 9.59 9.59 0 0 0 8.18 2.83 3.06 3.06 0 0 0 2.51-1.78l.38-1.11z" class="R"/><path d="M277.33 310.61a2.64 2.64 0 0 0-1.63 4.73 9.59 9.59 0 0 0 8.18 2.82 2.64 2.64 0 0 0 1.63-4.72 9.59 9.59 0 0 0-8.18-2.83z" class="W"/><path d="M289.58 303.28a2.4 2.4 0 0 0-.7-2.34 7.58 7.58 0 0 0-6.49-2.24 2.41 2.41 0 0 0-2 1.41c-.08.22-4.24 12.26-4.32 12.49a2.43 2.43 0 0 0 .7 2.34 7.62 7.62 0 0 0 6.49 2.24 2.43 2.43 0 0 0 2-1.41 6160.5 6160.5 0 0 0 4.32-12.49z" class="a"/><path d="M282.39 298.7a2.09 2.09 0 0 0-1.29 3.75 7.58 7.58 0 0 0 6.49 2.24 2.09 2.09 0 0 0 1.29-3.75 7.58 7.58 0 0 0-6.49-2.24z" class="W"/><path d="M280 305.67a7.16 7.16 0 0 0 2 1.36 8.72 8.72 0 0 0 2.27.73 6.46 6.46 0 0 0 2.36 0 2.47 2.47 0 0 0 1.89-1.28 2.38 2.38 0 0 1-1.84 1.48 6.18 6.18 0 0 1-2.46 0 7 7 0 0 1-4.22-2.29zm-1.24-.81a2.43 2.43 0 0 0 .69 2.18 6.38 6.38 0 0 0 1.87 1.43 8.51 8.51 0 0 0 2.24.83 7.34 7.34 0 0 0 2.39.15 7 7 0 0 1-4.75-.74 6.07 6.07 0 0 1-1.91-1.54 2.36 2.36 0 0 1-.53-2.31zm.16 3.88a8 8 0 0 0 1.42 1.05 8.81 8.81 0 0 0 1.6.72 9.28 9.28 0 0 0 1.71.42 7.46 7.46 0 0 0 1.77.05 6.68 6.68 0 0 1-6.5-2.24zm-1.22-.81a2.41 2.41 0 0 0 .69 2.17 6.25 6.25 0 0 0 1.87 1.44 8.48 8.48 0 0 0 2.24.82 6.83 6.83 0 0 0 2.39.15 7 7 0 0 1-4.75-.74 6.07 6.07 0 0 1-1.91-1.54 2.34 2.34 0 0 1-.53-2.3zm.16 3.87a7.16 7.16 0 0 0 2 1.36 8.36 8.36 0 0 0 2.27.73 6.46 6.46 0 0 0 2.36 0 2.47 2.47 0 0 0 1.89-1.28 2.38 2.38 0 0 1-1.84 1.48 6.18 6.18 0 0 1-2.46 0 7 7 0 0 1-4.22-2.29zm-.53 1.54a8 8 0 0 0 1.42 1.05 8.81 8.81 0 0 0 1.6.72 9.28 9.28 0 0 0 1.71.42 7.46 7.46 0 0 0 1.77.05 6.68 6.68 0 0 1-6.5-2.24z" class="S"/><path d="M290.81,303.58a3,3,0,0,0-.88-2.95,9.56,9.56,0,0,0-8.17-2.82,3,3,0,0,0-2.51,1.77l-.39,1.12a3.05,3.05,0,0,0,.88,2.94,9.56,9.56,0,0,0,8.18,2.83,3,3,0,0,0,2.5-1.77Z" class="R"/><path d="M281.76 297.81a2.63 2.63 0 0 0-1.63 4.72 9.53 9.53 0 0 0 8.17 2.82 2.63 2.63 0 0 0 1.63-4.72 9.56 9.56 0 0 0-8.17-2.82z" class="W"/><path d="M289.13 289.79a.86.86 0 0 0-1.1.54l-3.83 11.06a.44.44 0 0 0 .13.42 1.39 1.39 0 0 0 1.16.4.45.45 0 0 0 .36-.25l3.82-11.06a.87.87 0 0 0-.54-1.11z" class="Q"/><path d="M278.92 302.3l-3.44.08c-4.42 0-6.06 2.26-9 2.34s-5.52-1-13.52-4.59-15.57-9.06-24.4-2.47c-3.76 3.64-.61 7.67 4.07 10.57s22 5.61 27.62 6.52a34.11 34.11 0 0 1 3.78.74c1.33.36 2.62 1.09 3.92 1.55a26.59 26.59 0 0 0 8.17 1.66c1 0 2 0 3-.1a13 13 0 0 0 2.63-.35 12.84 12.84 0 0 0 3.57-1.83 3.34 3.34 0 0 0 1.38-1.33 5.79 5.79 0 0 1 .29-.68c.35-.57 1.16-.69 1.56-1.23s.29-1.16.66-1.61a4.49 4.49 0 0 1 .79-.57 2 2 0 0 0 .71-1.4.39.39 0 0 0 0-.26.51.51 0 0 0-.32-.2 17.23 17.23 0 0 0-4.87-.26 20.67 20.67 0 0 1-4.64-.5 17.91 17.91 0 0 1-2.25-.63c-.18-.06-1.49-.74-1.59-.64a4.09 4.09 0 0 1 1.27-.71l1.12-3.25a3.64 3.64 0 0 1-.51-.85z" class="U"/><defs><path id="A" d="M379.15 426.73l1.56 5.79-5.53-1.22-6.13 3.93-2.55 3.88-1.59 7.3-1.33 10.16-3.97-8.27 4.08-8.69 4.27-5.81 6.77-3.11 4.42-3.96z"/><path id="B" d="M353.49 425.42l-3.94 5.54-.75 2.96 4.42-.2 10.47 5.89-10.51-3.74-8.04-.43 3.59-6.2 4.76-3.82z"/><path id="C" d="M359.61 448.3l-5.73-.5-11.83-2.48-7.77-4.67 2.25-4.15 4.24-1.13-3.34 1.89-.26 2.78 4.24 2.66 17.41 4.04 4.87-7.13-4.08 8.69z"/><path id="D" d="M348.73 429.24l-7.96 6.13-3.34 1.89-.26 2.78 4.24 2.66 17.41 4.04 1.37-2.02-6.37-4.78-4.3.78-4.38-5.28 3.59-6.2z"/><path id="E" d="M367.61 419.66l11.54 7.07-4.42 3.96-6.77 3.11-4.27 5.81 2.05-6.61 4.14-5.96-2.27-7.38z"/><path id="F" d="M375.18 431.3l-6.13 3.93-2.55 3.88-1.59 7.3 2.61 6.37 6.9-2.96 3.87-15.07-3.11-3.45z"/><path id="G" d="M393.01 432.09l-6.76 5.43-2.13 3.67 4.76.26 6.22 2.22 1.22-3.92-3.06-3.5-.25-4.16z"/><path id="H" d="M404.26 436.04l.92 3.42-3.27-.72-3.63 2.33-1.51 2.29-.94 4.33-.79 6.01-2.35-4.89 2.41-5.14 2.53-3.45 4.01-1.84 2.62-2.34z"/><path id="I" d="M389.06 435.26l-2.32 3.28-.45 1.75 2.61-.11 6.2 3.49-6.22-2.22-4.76-.26 2.13-3.67 2.81-2.26z"/><path id="J" d="M392.69 448.81l-3.4-.3-7-1.47-4.6-2.76 1.33-2.46 2.52-.67-1.98 1.12-.16 1.65 2.51 1.57 10.31 2.39 2.88-4.21-2.41 5.14z"/><path id="K" d="M386.25 437.52l-4.71 3.63-1.98 1.12-.16 1.65 2.51 1.57 10.31 2.39.81-1.19-3.77-2.83-2.55.46-2.59-3.13 2.13-3.67z"/><path id="L" d="M397.43 431.85l6.83 4.19-2.62 2.34-4.01 1.84-2.53 3.45 1.22-3.92 2.45-3.53-1.34-4.37z"/><path id="M" d="M401.91 438.74l-3.63 2.33-1.51 2.29-.94 4.33 1.54 3.77 4.09-1.75 2.29-8.92-1.84-2.05z"/><path id="N" d="M380.36 195.91c-9.68-4.88-20.7-6.71-29.83-12.72-4.52-3-8.56-6.8-10.82-11.79 0-.12-.18.09-.15.17 3.09 8.82 11.24 14.14 19.5 17.58 9.94 4.13 21 6.4 29.32 13.71a23.45 23.45 0 0 1 8 13.49c.08.52.54.2.5-.21-1.01-9.3-8.58-16.22-16.52-20.23zM380.3 214a127.09 127.09 0 0 0-16.16-11.15c-5.39-3.32-11.09-6.56-15.74-10.9a28.72 28.72 0 0 1-6.16-8.6c-1.57-3.28-2.52-6.76-3.84-10.13-.08-.2-.25 0-.22.16 1.12 5.63 3 11.64 6.51 16.28 3.63 4.86 8.92 8.24 14 11.45 10.18 6.46 21.35 12.3 28.61 22.26 4.44 6.1 7.16 13.36 6.54 21 0 .49.66 1 .78.3 2.02-11.98-5.62-23.25-14.32-30.67z"/><path id="O" d="M305.61 112.74c-14.09 3.46-21.24 10.84-21.36 22.2l54.1 34.51 22.79-19.71q-22.35-21.37-55.53-37z"/><path id="P" d="M374.13 64.11a21.45 21.45 0 0 0-9.31-3.78 28.88 28.88 0 0 0-10.48.46C347.21 62.38 341 66.27 335.52 71c-5.75 5-10.58 10.83-15.81 16.32s-12.45 10-20 11.47a20.25 20.25 0 0 1-12.57-1.35c-3.83-1.85-6.35-5-8.27-8.74-.24-.45-.59 0-.51.34 1.75 7.38 9.25 11.77 16.42 12.21 7.73.47 15.38-3.08 21.49-7.56a58.28 58.28 0 0 0 8.57-8.27c2.53-2.81 5-5.65 7.64-8.37 5.23-5.4 11.11-10.47 18.19-13.24 7.33-2.81 16.27-3.44 23.33.58.12.07.23-.21.13-.28z"/><path id="Q" d="M388.05 85.45c-11-10-27.67-9.56-41.23-6.34-15.9 3.78-30.91 11.5-47.44 12.36-8.2.42-17.63-.75-23.74-6.8-.12-.12-.23.22-.16.32 4.31 5.83 12 7.7 18.89 8.19 8 .58 16-.83 23.77-2.92 14.79-4 29.19-10.77 44.74-11 8.88-.14 17.54 1.94 24.86 7 .44.35.58-.57.31-.81z"/><path id="R" d="M232.68,10.45c-18.53,4.56-27.94,14.26-28.09,29.2L275.74,85l30-25.93Q276.32,31,232.68,10.45Z"/><path id="S" d="M104.81,237.49s-1.54,9.89-2,28.49c-.33,12.78-1.09,25.87-.66,36.74.28,7.12,4,10.26,11.75,15.81,14,10,39.14,25.66,45.1,29,0,0,11.13-4.45,11.13-20.25l-32.3-26.78,15.66-56.89Z"/><path id="T" d="M105.41 383s2.37-50.75 5.18-71.55c2.56-18.94 10.71-49.77 10.71-49.77a26.56 26.56 0 0 1-10.75-8.43 21.71 21.71 0 0 1-3.84-9l-1.9-6.77 54.38-3.36c.95 9.55 3.11 19.25 1.71 28.1-3.14 19.77-19.16 57.88-19.16 57.88.3 2.74.3 10.81-2.07 21.1L129 386.33C114.67 391 105.41 383 105.41 383z"/><path id="U" d="M60.32 246.27c-4.81 2.79-10.93-4.74-10.93-9.83s.41-7 2.45-9 8.58.44 10.47 4.23 2.86 11.81-1.99 14.6z"/><path id="V" d="M60.32 246.27C70.19 239.38 76 235.86 86.18 229c5-3.38 8.8-9.09 9.75-10.52 8-12 11.23-18.69 11.23-18.69l3.94-35c-8 1.65-11.9 2.8-16.78 11.49l-18.54 33.35-23.94 17.76C57 225 65.82 240 60.32 246.27z"/><path id="W" d="M192.83 181.52c1.89-3.86 8.79-2.87 13.52 3.74 3.6 5 3.69 8.13 2.47 10.79s-6.4 4.18-12.87-1.73-4.04-11.21-3.12-12.8z"/><path id="X" d="M167.83 211.13c-3.69-2.59-19.11-16.44-19.11-16.44s-11.72-15.54-2.92-29.77a23.11 23.11 0 0 1 13.1 6.08l26.72 25.33 7.21-14.85s-2.47 6.23 4.66 12.09 10.6 3.89 11.33 2.44c-7.1 15.71-12.63 25.38-15.85 26.72-5.35 2.24-8.34.19-13.29-2.68-3.68-2.05-7.05-5.05-11.85-8.92z"/><path id="Y" d="M426.57 121.4a26.45 26.45 0 0 0 10 4.14c0-1.38-1.36-4.19-4.5-7.13a12.42 12.42 0 0 0 6.77.35q-12.53-7.37-26.49-14a52.1 52.1 0 0 0-14.68 5.78 25.09 25.09 0 0 0 8.8 2.91c-.11 2.31 1.79 5.21 3.64 7 2.16.59 5.06.63 6.74-.52a28.14 28.14 0 0 0 8.07 6.4c1.49-.47 2.62-2.2 1.65-4.93z"/><path id="Z" d="M412.37 104.8a62.8 62.8 0 0 0-7.66 2.4 29.3 29.3 0 0 0 12.83 6.56c4.38.84 7.11-.28 7.51-2.65q-6.19-3.22-12.68-6.31z"/><path id="a" d="M250.79 259.62c-4.72 1.05-8.51 5.95-12.86 15.7l-10.69 24.17c.74-.59 19.13 3.16 17 4.13 4.63-8.87 10.89-19.46 10.89-19.46z"/><path id="b" d="M264.31 261.27c.58-1.35.72-2.66 1.52-3.47 1-1 5.83-1.47 8.64-3.12 2.11-1.23 2.06-2.35 2.06-2.35l-.18-1s.92-.61 1.42 1.12l1 3.3c-.23 1.32-4.98 6.31-14.46 5.52z"/><path id="c" d="M264.31 261.27c-1.07-1.7-.81-3.26-1.41-3.93s-2.79-1.95-2.86-2.9l-.18-1.12s-.43 0-.26 1.41c.14 1.15.34 1.85.59 3.32a3.67 3.67 0 0 0 4.12 3.22z"/><path id="d" d="M289.77 257.8a19.92 19.92 0 0 1 11.33 5.29c3.48 3.26 18.54 19.34 18.54 19.34-5.51 1.3-10.78 9.21-11.71 13.84-3.19-2.25-15.63-12.71-15.63-12.71s-10.19-13.45-2.53-25.76z"/><path id="e" d="M360.16 420.07l-11.43 9.17-3.59 6.2 8.04.43 10.51 3.74 2.05-6.61-5.17-5.9-.41-7.03z"/><path id="f" d="M360.16 420.07l7.45-.41 2.27 7.38-4.14 5.96-5.17-5.9-.41-7.03z"/><path id="g" d="M374.42 449.82l8.39-8.53-4.52-6.54-3.87 15.07z"/><path id="h" d="M367.61 419.66l.53 7.18-3.74 4.63 1.34 1.53 4.14-5.96-2.27-7.38z"/><path id="i" d="M345.14 435.44l4.38 5.28 4.3-.78-.64-4.07-8.04-.43zm-4.37 14.13l3.69.53 1.57-2.17 7.85-.13-11.83-2.48-1.28 4.25z"/><path id="j" d="M357.21 448.09l-3.33-.29-2.79 4.01 3.61 3.88 2.51-7.6z"/><path id="k" d="M380.71 432.52l4.8 5.29-2.7 3.48-4.52-6.54-3.11-3.45 5.53 1.22zm-17.13 24.05l3.94-3.79-2.61-6.37-1.33 10.16zm.11-16.96l-3.5 5.11-6.37-4.78-.64-4.07 10.51 3.74zm-29.41 1.04l-1.3 5.11 7.79 3.81 1.28-4.25-7.77-4.67z"/><path id="l" d="M363.58 456.57l-8.88-.88 2.51-7.6 2.4.21 3.97 8.27zm-19.12-6.47l6.63 1.71 2.79-4.01-7.85.13-1.57 2.17z"/><path id="m" d="M393.01 432.09l4.42-.24 1.34 4.37-2.45 3.53-3.06-3.5-.25-4.16z"/><path id="n" d="M401.46 449.71l4.96-5.05-2.67-3.87-2.29 8.92z"/><path id="o" d="M397.43 431.85l.31 4.25-2.22 2.74.8.91 2.45-3.53-1.34-4.37z"/><path id="p" d="M384.12 441.19l2.59 3.13 2.55-.46-.38-2.41-4.76-.26zm-2.59 8.37l2.19.31.93-1.28 4.64-.08-7-1.47-.76 2.52z"/><path id="q" d="M391.27 448.69l-1.98-.18-1.64 2.37 2.13 2.3 1.49-4.49z"/><path id="r" d="M405.18 439.46l2.84 3.14-1.6 2.06-2.67-3.87-1.84-2.05 3.27.72zm-10.14 14.24l2.33-2.24-1.54-3.77-.79 6.01zm.06-10.03l-2.07 3.02-3.77-2.83-.38-2.41 6.22 2.22zm-17.41.61l-.77 3.02 4.61 2.26.76-2.52-4.6-2.76z"/><path id="s" d="M395.04 453.7l-5.26-.52 1.49-4.49 1.42.12 2.35 4.89zm-11.32-3.83l3.93 1.01 1.64-2.37-4.64.08-.93 1.28z"/><path id="t" d="M473.27 191.23l-17.88-11.91-6.88 7.14c9.88 6.54 20.96 8.71 24.76 4.77z"/></defs></svg>