<svg xmlns="http://www.w3.org/2000/svg" viewBox="0 0 800 459" xmlns:v="https://vecta.io/nano"><path d="M431.7 95.8l-2 14-4.4 3c-3.2 1.1-10.4 4.8-12.5 7.2-2.3 2.5-2.4 9-4.9 12.6-1 1.4-4.5 4.5-4.5 6.2v13.9c-.2.1-.1.3-.3.3-.4 1.6-10.5 2.2-12.2 8.9-2.9.7-7.5-5.7-10.3-3.2-2.1 1.9-9.4 4.5-10.2 6.3-1.1 2.5 2.4 6.2-1.5 6.2-3.5 0-7.8-1.5-10.9-.7-.9 3.6.4 7.8-.4 11l-.1.1c-.2 0-.2-.1-.2.1-2 0-2.6-.1-4.5.7-.4 1.4-2.8 3.2-3.4 5.1-.7 2.2-.7 3.3-.1 5.5.8 3.2 3.6 6.5.4 9.2-2.2 1.9-3.5.7-6.1.7-3.3 0-5.8 3.2-8.2 5.3-1.7 1.5-3.4 2.1-5.3 3.1-1.1.6-6-.1-6.2.4-1.6.4-2.9 3.7-5 4.6l-15.2-8.2-4.4-.5-28.7-31.3-4.4.4-3.4-3.8c-6.3-7.9-17.4-12.7-22.1-22.2-.6-1.1-4.2-5.9-5.2-6.4-.7-3.6-3.4-7.7-3.4-11.2l.1-.1c3.3-.8 5.9-2.8 8.6-5.2l10.5-2.2 4.4-10.4-7.2-9.6-12 7-6.3-6.8-1-3.7-5.8-.5-40.2-21.1-5.1-27.7 4.9-21-15.6 1.3-1.2 9.9-9.9 4.2-3.8 20.6c-1 3.1-1.7 6.7-3.7 9.7-1.6 2.4-3.7 5.4-4.8 7.9-2.4 5.4-3.5 10.2 3.6 13 2.6 1 5.2 5.5 8.2 5.5 0 4.1-4.3 12.5-5.7 16.9-1.6 4.9-5.4 12.5-5.4 17.4l-.1.1c-1.3 0-5.6-2.9-7.7-3.4l-8.3-2c-.9 2.6-1.7 6.4-3 9.3-3.4 1.7-6.1 11.6-8.1 14.8-2.3 3.7-.8 10 .9 13.5.9 1.9 3.5 5.2 3.9 6.8.2 0 .6.7.6.9 1.5.5-.4 7.3-.6 8.5l-1.8 9.8c-2.3.6-5.5.2-8 .2-.1.2-.3.1-.3.3-.2 0-.2 0-.2.2-1.5.4-8.7 12.3-10.3 14.5-1.4.3-8 10.1-6.9 11.9 1.9 3.2 4.9 7.6 7.9 9.5 1.3.8 4.1-4.6 5.1-4.8 1.5 4.5 4.2 9.5 5.3 13.9-4.8 0-9.5.7-13.8 2.7-5.8 2.6 1 9 1 11.9 0 5.1-1.9 8.9-2.8 13.5s-1.6 10.9-3.1 15.4l-.4 12.2h0c2.2.8 4.4 1.6 6.8 1.6 3.7 0 12.4-.4 15.5 1 5.6 3.2 13.5 2.4 19.8 3.2l28.1 3.5c7.8 1 21.4-2.1 26.3 4.8 3 .4 13.3 2.1 15.3 3.8 1.4.1 2.7 1.7 4 2 9.2 0 14.9 1.9 23.3 4.8 8.1 2.8 18.1 8.5 26.6 9.2 1.1.8 6.8 2.4 8.3 2.6 2.6 2.3 14.2 4.1 18.1 5.2 6.6 1.9 16.3 3.7 22.1 6.8 1.1.1 3.5.9 4.4 1.6 6.5 0 12.4 2.7 18.6 4.5l33.5 9.7c5.8 1.7 12.7 3.6 18.3 5.9 4.9 2 13.1 1.9 17.1 4.3 2.1 0 14.1.5 14.6 2.6 2.6.4 2 .7 5.1.5 10.1-.6 24.4 3 34.3 6.3 6.1 2 13 4 19.4 4 3.3 0 18-2.2 19.9-.7 6.6 1.9 17.6 1.6 24.5 1.6 7.8 0 15.8 1.8 23.3 1.8 1 .4 2.4.6 3.4.6 4.2 1.9 26 2.2 30.3 0 3.3 0 6.7-1 10-1 8.7 1.1 17.7 4.7 26.8 4.7 8.7-7 18.8-4.9 29.1-7.8 5.6-1.6 9.9-2.8 15.7-3.6 1.2-.2 3.7-.3 6.4-.3h0l-.4-4.6-16.3-14 14.9-39.8 9.1 11.9 14-1.1c-1.7-8.5-2.1-20.2-2.8-26.8l21.5-1.7h0l-.6-3.4c0-1.3-.2-5.2-1.7-5.5-.8-3.1-10.3-8.5-13.4-5.8-4.7 4.2-15.6 11.9-22.1 11.9-11.4 0-25.8-13.1-28.5-23.6-.4-.1-.5-.2-.6-.6-3.3-.8-6.8-4.6-11.1-2.1s-8.2.5-9.4-4.3c-2.6-.4-19.9-2-20.4-4-.3-.1-.4-.1-.6-.2-.1-.4 0-.3-.4-.4-.1-.4-.2-.5-.6-.6-.2-.8-4.4-5-5.1-6.2l-18.5-19c-2.6-2.7-10.6-14.1-13.8-14.9 0-3.5.3-20.6-3.4-21.5-2.3-9-9.5-13.5-18.5-11.7-1.1 4.3-3 9.7-3 14.3-.1.1-.6.7-.6.9-6.5 0-13.8-8.7-13.8-14.7-.4-.1-.3 0-.4-.4-.4-.1-1.6-1.4-1.7-1.9-.7-.2-.6-1.1-1.3-1.3 0-5.7.4-18.1-1.5-23.4l-80.2-70.8h0 0z" fill-rule="evenodd" fill="#e8f0d8" stroke="#2b2a29" stroke-width=".284" stroke-miterlimit="10"/><path d="M375.1 283.8h-4.6l-1.9-5.6h-9.1l-1.9 5.6H354l7.9-23.7h5.3l7.9 23.7h0zm-7.6-9l-3.5-10.6-3.5 10.6h7zm14.1 9h-4v-23.7h4v23.7zm12.9-3.1v3.1c-1.2.3-2.1.4-2.7.4-1.1 0-2-.2-2.7-.6-.8-.4-1.3-1-1.7-1.7s-.5-1.9-.5-3.4v-9.1h-2.2v-3.1h2.4l.4-4.6 3.2-.3v4.9h3.5v3.1h-3.5v8.6c0 1.1.2 1.8.6 2.2s1.2.6 2.3.6c.2 0 .6-.1.9-.1h0zm9.6 3.5c-2.6 0-4.6-.9-5.9-2.8-1.4-1.9-2-4-2-6.4 0-2.6.8-4.8 2.3-6.5s3.5-2.6 6-2.6c2.3 0 4.3.8 5.8 2.5s2.3 3.9 2.3 6.5c0 2.8-.8 5-2.4 6.7-1.8 1.7-3.7 2.6-6.1 2.6zm.1-3.3c2.7 0 4-2 4-6 0-1.8-.3-3.2-1-4.2-.6-1-1.6-1.6-2.9-1.6-1.4 0-2.4.5-3 1.6-.7 1.1-1 2.5-1 4.3 0 1.9.3 3.4 1 4.4s1.7 1.5 2.9 1.5h0zm26.3 2.9h-4v-11c0-1.2-.3-2-.8-2.6s-1.2-.9-1.9-.9c-1 0-1.9.5-2.7 1.4s-1.2 2.3-1.2 4.1v9h-4v-17.5h3.6v4.1c1.3-3 3-4.4 5.3-4.4 1.5 0 2.9.5 4 1.5s1.6 2.7 1.6 5.1l.1 11.2h0zm19.7 0h-3.8c-.3-1.1-.5-2.2-.6-3.5-1 2.6-3 3.9-5.9 3.9-1.7 0-3.1-.5-4.2-1.5s-1.6-2.3-1.6-3.9c0-4 3.5-6 10.6-6h1.1v-1.3c0-1.8-1.2-2.7-3.7-2.7-2.4 0-3.8.9-4.1 2.7l-3.4-.5c.2-1.5.9-2.7 2.3-3.6 1.3-.9 3.2-1.4 5.7-1.4 1.4 0 2.5.1 3.3.3.9.2 1.6.6 2.2 1.1s1 1.1 1.2 1.8c.2.6.3 1.7.3 3.2v7.9c.1 1.1.3 2.3.6 3.5zm-4.3-8.9c-5.1 0-7.7 1.2-7.7 3.7 0 .7.3 1.4.8 1.9s1.3.8 2.3.8c1.5 0 2.6-.5 3.4-1.4.8-1 1.1-2 1.1-3.3v-1.7h.1z" fill="#006"/></svg>