<svg xmlns="http://www.w3.org/2000/svg" xmlns:xlink="http://www.w3.org/1999/xlink" viewBox="0 0 597 459" xmlns:v="https://vecta.io/nano"><path d="M99 117.5c5.6 1.8 11.2 2.8 14.7 3 7 .5 15.3 4.2 20 9.4 3.9 4.3 7.7 17.6 4.5 23-1.1 5.3-.1 8.4 5 10.1 1.4.5 2.4 2.3 3.8 2.6 8.2 1.7 16 3.1 23.8 6.3 6.5 2.6 10.3 2.9 17.2 2.9l.1.1v.2c-2 .5-4.6 5.5-6.6 5.9-.4 1.5-9-1.1-10.3-1.6-3.7-1.5-7.1-2.5-10.9-2.5l-.2.1c-.1.6-1.2 1.1-1.3 1.6h-.3c-1-3-6.1-3.9-8.7-5.2-2.2-1.1-4.9-1.2-7.3-1.9-2.9-.8-5.3-2.2-8-3.2-2.2 1.7-8.2.5-11 .5-.1-.1 0-.1-.2-.2-.6-3.2-1-7.9.9-10.7.7-1.1 1.9-2.2 3.2-2.6 1.4-.4 2.5.4 3.2.2.4-1.9 2.7-2.7 3.2-4.7 1-4.1 2-8.2.5-12.4-5-13.5-17.5-16-30.7-16-12.3-2.2-23.9-8.5-27.1-21.2h-.2C75.4 104 73 107 72 110c-1.5 4.9-2.6 9.5-4.7 14.4-2.3 5.2-1 9.8-1.9 15.3-.5 5.3-.4 11.2.9 16.3.8 3.1 2.6 10.9 5.3 12.9.3 2.9 6.6 9.1 8.5 12.2 2.3 3.8 5.2 11.7 5.2 16 1.1 5.9-.3 12.4 1.1 18.2l2 8.5c.6 2.5 1.9 6 2.1 8.5 1.4 1.8 1.5 4.8 3.4 6.2.2.6.7.9 1 1.5 1.1.7 1.7 2.1 3 2.8.2.3.4.5.5.8 1.8.9 7.2 4.5 8.4 6.2 6.8 4.6 12.2 7.8 18 14l9.3 9.8c1.3 1.4 6.2 8.4 7.3 8.7 0 .1 0 0 .1.2.3 0 .5-1 .6-1.3.7-2.1 3.7-3.3 5.3-4.5.1.1.2.1.3.2.2 1.4 3.6 5.9 4.4 7.8 1.4 3.1 1.5 5.5 1.5 8.8-1 .3-4.6-4.7-5.2-5.9s-4.8-4.3-4.8-1.3l7 8.8c2.1 2.6 4.3 8.2 4.3 11.7 0 2.4.8 3.6 1 5.4 2.7 1.9 3.4 10.5 5.7 13.7 2.8 3.8 3.9 7.6 7.4 11.2 4.8 4.8 13.9 10 20.7 10.5 6.2.5 21.4-1.9 26.1 1.9 1.1.5 3.5 1.6 4.2 2.6 2.8.6 9.7 9.1 11.8 11.4 2.6 2.8 9.1 11 9.5 14.7 2.2 1.9 4.1 9.7 5.9 12.6.9 1.5 5.5 9.5 5.5 10.9.3.5 1.5 2.9 2 3 .1.2.1.3.3.4.1.3.6.9.6 1.3l.2.1c0 .2.2.3.2.5.2 0 .7.7.7.9 2.8.7 8.7 8.7 11.1 10.9 8.3 7.7 14.9 11.9 26.4 12.8 5.1.4 9.4.7 13.8-2.3 3.4-2.3 7.4-7.4 11.9-7.4 6.1 0 15.8-2 21.3 0 1.9.7 14 4.9 14.5 6 1.1.3 3.1 3.1 4.5 3.9 9 5 18.6 4.1 28.7 4.1.3 0 .8.2 1.1 0 10.8 1.3 18-5 21.9-14.2l14.9-35.3 5.6-12.6c1.3-3 4.9-6.4 5.6-8.7.3 0 .2.2.4.2 0 .3.3.4.4.6 2.2.5 8.8-6.2 11.2-7.1 3.2-1.3 5.4-.9 8.5-1.8 5.5-1.6 12-3.4 17-5.7 6.2-2.9 13.3-4 18.9-8.2.6-.1 1.2-.5 1.8-.5 3.9-3.2 11.5-5.8 14.2-10.2 3.6-1.7 7-6.6 10.5-8.9 6.2-4.1 13-8.7 20.9-9.1 2.1-.1 5.5 0 8.9.4h0c.3-.4.3-3.3.6-3.8 0-1.5 1.4-3.1.5-4.7-.8-1.4-1.9-1.8-3.2-2.6-.9-.6-2.1-.5-2.9-1.2-.5-.1-1-.5-1.4-.8l19.9-30-14.9-8-9-.8-5.1 30.1c-.3 0-.7.1-.9-.1-.5.4-2.4.3-3.1.4-1.6.2-3.3.1-4.9.3-2.7.3-5.4 0-7.9-.8-1.2-.4-1.6-1.6-2-2.8-.3-.9-1-1.7-1.5-2.6-.4-.1-.9-1.2-.9-1.6-.2-.1-1.3-4.1-2.4-5.1-1-.9-4.8-3.9-5.1-4.9l-.2-.1c.3-1 5.8-4.1 7-4.7 3.8-1.9 3.4-2.4.9-4.6l-16.3-14c-3.1-2.6-6.5-7.3-10.3-8.2-2.9-.7-12.7-5.3-13.5-8.2-1-.6-1.7-2.1-2.7-2.9l-8.9-6.2 3.8-8.1-12.1-7 1.9-10.9-1.7-2.9c-.3-1.4-1.4-2.8-1.6-4.4-2.4-.8-12 4.8-9.7-3.1l1.1-3.7c0-.8-4.7-2.2-5.6-2.6-2.3-.9-3 .2-5.2 1.2-4.1 1.8-6.5-3.7-8.8-6.3-1.6-1.7-7.3-3.9-9.6-4.8-3.9-1.5-9.2-1.1-10.1-6-.6-3.2-.6-15.5-2.4-17.3-2.4-2.4-5 .6-5.4-4.6 1.7-3.1 2.2-8.8 3.3-12.4 1.4-4.3 3.1-5.9-1.7-7.7-1.8-.7-3.7-2-5.6-1.2-3.9 1.5-5 4.5-9.8 4.5-5.7 0-6.7-5.2-8.7-9.1-1.3-2.5-4.6-.2-6-1.6 0-5.6.3-9.5 6.2-11 .5-.9.9-1.7 1-2.9.8-1.1 2.5-4.5 2.3-6-.3-3-4.9-1.5-5.1-3.1-1.6-1.1-3.5-4-3.5-5.8 0-2.1 1.2-6.5-.9-8-3.4-2.5-8.7-6.5-9-10.9-.2-3.9-2.7-6.3-3.6-9.9-.4-1.6-.6-4.9-2.2-5.6l-17.5 17.5-7.1.9c-1.5.9-7.3.5-9.4 1-3.8.8-4.1 1.5-5.6 4.9-3.1.8-4-2.5-6-4.5-2.8-2.9-7-5.1-10.1-7.8-5.5-4.9-15-9-21.6-12.5-1.4-.7-3.5-.2-5.1-.8-1.7-.6-2.3-3.2-3.6-4.2-.2-.4-.3-.6-.6-1-.7-2.1-1.9-2.1-1.9-4.7 0-1.3-.4-2.5-.7-3.7h0l-3.6.8-5.4 8.2L218 30.1l-1.9 2-15.5 22L180.2 30l-22.7 22.8-3.4-.8-15.5 19.8-11-8.9-31.5-22.8-.2-.2.1.1.1.1c0 .4-4.6 1.8-5.4 2.4-.9.6-.1 2.9-.1 3.9 0 1.2-.8 2-.8 3.3 0 2 1.6 3.7 2.6 5.2.9 1.3 3.7 2.9 3.7 4.7-.4 1.1-.7 2.1-.8 3.3 0 1.1.4 1.6.5 2.6.9 1 1.2 2.3 2 3.3 2.2 2.6 5.8 4.1 6.3 8 1.4 1.7 1.2 4.7 1.2 6.9l.1.2-9.3.3h0l5.2 7.6 2.3 6.3-4.2 8.4-.4 11h0 0z" fill-rule="evenodd" fill="#f4ecf0" stroke="#2b2a29" stroke-width=".284" stroke-miterlimit="10"/><g fill="#006"><path d="M240.2 250v-17.2h6.7c1.1 0 2.1.1 2.8.4.8.2 1.4.7 1.9 1.5.5.7.8 1.6.8 2.6s-.3 1.8-.8 2.5c-.6.7-1.3 1.2-2.3 1.3 1.2.2 2.1.7 2.8 1.5.6.8.9 1.7.9 2.8 0 1.3-.4 2.4-1.3 3.4-.9.9-2.2 1.4-4 1.4h-7.5v-.2zm2.9-10h3.8c.8 0 1.4-.2 1.8-.7.5-.5.7-1.1.7-1.8 0-.8-.3-1.4-.8-1.7-.5-.4-1.1-.6-1.8-.6h-3.7v4.8zm0 7.4h4c.8 0 1.5-.2 2-.7.5-.4.7-1 .7-1.8 0-.7-.2-1.3-.7-1.8s-1.2-.7-2-.7h-4v5h0zm20.7-1.5l2.6.4c-.3 1.2-1 2.1-2 2.9-1 .7-2.2 1.1-3.7 1.1-1.8 0-3.2-.6-4.3-1.8s-1.6-2.8-1.6-4.8c0-1.9.5-3.5 1.6-4.8s2.6-1.9 4.4-1.9 3.2.6 4.2 1.9c1 1.2 1.5 2.8 1.5 4.8v.3h-8.8a10.61 10.61 0 0 0 .2 2.1c.2.5.5 1 1 1.4s1.1.6 1.8.6c1.7-.1 2.6-.8 3.1-2.2h0zm-.2-3.8c0-.9-.3-1.7-.8-2.3s-1.2-.9-2-.9-1.5.3-2 .8-.8 1.3-.9 2.3h5.7z"/><use xlink:href="#B"/><path d="M289.5 234.8v2.2h-.9c-.4 0-.7 0-1 .1s-.6.4-.9.9c1 .8 1.5 1.7 1.5 2.8s-.5 2.1-1.4 2.8-2.2 1.1-3.8 1.1c-.7 0-1.5-.1-2.4-.3-.6.3-.9.7-.9 1.3 0 .3.1.6.4.9s.7.4 1.3.4h3.8c1.3 0 2.3.3 3 1s1.1 1.5 1.1 2.5c0 1.2-.6 2.2-1.7 3s-2.8 1.2-5 1.2c-4.1 0-6.2-1.2-6.2-3.4 0-1.1.6-2 1.9-2.6-.8-.7-1.2-1.4-1.2-2.1 0-1.1.7-2 2-2.7-1.2-.7-1.8-1.7-1.8-3 0-1.1.4-2 1.3-2.7s2.2-1.1 4-1.1c.8 0 1.6.1 2.5.3.4-1.6 1.4-2.4 3.1-2.4l1.3-.2h0zm-6.6 8.2c1.6 0 2.3-.7 2.3-2.2 0-.6-.2-1-.6-1.4s-1-.6-1.7-.6c-.8 0-1.3.2-1.8.6-.4.4-.6.9-.6 1.5s.2 1.1.6 1.5c.5.4 1.1.6 1.8.6zm-3.1 6.3c-.4.4-.6.7-.6 1.1 0 .6.3 1.1 1 1.5s1.8.7 3.3.7c2.2 0 3.3-.6 3.3-1.7 0-.4-.2-.7-.6-1-.4-.2-.8-.3-1.3-.3h-3.1c-.5 0-1.2-.1-2-.3h0zm19.6-3.4l2.6.4c-.3 1.2-1 2.1-2 2.9-1 .7-2.2 1.1-3.7 1.1-1.8 0-3.2-.6-4.3-1.8s-1.6-2.8-1.6-4.8c0-1.9.5-3.5 1.6-4.8s2.6-1.9 4.4-1.9 3.2.6 4.2 1.9c1 1.2 1.5 2.8 1.5 4.8v.3h-8.8a10.61 10.61 0 0 0 .2 2.1c.2.5.5 1 1 1.4s1.1.6 1.8.6c1.6-.1 2.6-.8 3.1-2.2h0zm-.2-3.8c0-.9-.3-1.7-.8-2.3s-1.2-.9-2-.9-1.5.3-2 .8-.8 1.3-.9 2.3h5.7zm16.1 7.9h-2.7v-2.6c-.7 1.9-2 2.8-3.8 2.8-1.6 0-2.8-.7-3.6-2s-1.2-2.9-1.2-4.9c0-1.8.4-3.4 1.3-4.7s2.1-2 3.7-2 2.8.7 3.4 2.2v-6.2h2.9V250zm-2.9-7.5c0-1-.2-1.8-.7-2.4a2.32 2.32 0 0 0-1.9-.9c-.8 0-1.5.4-2 1.1s-.7 1.8-.7 3.3c0 2.8.9 4.3 2.7 4.3.7 0 1.3-.3 1.9-.9.5-.6.8-1.4.8-2.3l-.1-2.2h0zm11.3 7.8c-1.9 0-3.3-.7-4.3-2a7.75 7.75 0 0 1-1.5-4.7c0-1.9.5-3.5 1.6-4.7 1.1-1.3 2.6-1.9 4.4-1.9 1.7 0 3.1.6 4.2 1.8s1.6 2.8 1.6 4.8-.6 3.6-1.7 4.9c-1.1 1.2-2.5 1.8-4.3 1.8h0zm.1-2.4c1.9 0 2.9-1.4 2.9-4.3 0-1.3-.2-2.3-.7-3.1s-1.2-1.1-2.1-1.1c-1 0-1.7.4-2.2 1.2s-.7 1.8-.7 3.1c0 1.4.3 2.4.8 3.2.4.6 1.1 1 2 1h0z"/><use xlink:href="#B" x="63.2"/><path d="M344.8 250H342v-10.5h-1.9v-2.2h1.9v-.6c0-1.3.3-2.3.9-3 .6-.8 1.8-1.1 3.7-1.1h1v2.3h-.7c-.7 0-1.2.1-1.5.3s-.5.4-.5.7c-.1.3-.1.8-.1 1.6h2.8v2.2h-2.8V250h0z"/></g><defs ><path id="B" d="M272.1 250h-2.9v-12.8h2.6v3c.4-1.2.9-2.1 1.5-2.6.7-.5 1.3-.8 2-.8h.4v3.1c-1.5 0-2.4.5-2.9 1.4a5.44 5.44 0 0 0-.7 2.7v6h0z"/></defs></svg>