<svg xmlns="http://www.w3.org/2000/svg" xmlns:xlink="http://www.w3.org/1999/xlink" viewBox="0 0 841.9 595.3" xmlns:v="https://vecta.io/nano"><g fill-rule="evenodd"><g stroke="#2b2a29" stroke-width=".284" stroke-miterlimit="10"><path d="M337.1 375.4c0-.3-.1-.6-.1-.8 0-.5-.3-1-.3-1.5l-.1-.1c-1.4 0-3.3-.7-4.8-.3-.3 1.1-2 2.6-2.8 3.5-.1.1-.8.9-.9.6h-.1 0 0c-.1-.6-.6-1.2-.9-1.8-.4-.6.3-.8.7-1.4 1.1-1.6 1-2.9-.4-4.1-.7-.7-1.3-1.9-2.2-2.3-.8-.3-1.5-1.3-2.3-1.7-.5-.3-1.5-.7-1.7-1.1-.5-.1-4-2-4.2-2.4-.7-.1-1.6-1.3-2.3-1.6-1.8-1.1-3.5-2-5.1-3.4-1.3-1.1-3-2.3-4.4-3.3-.5-.3-2.3-1.5-2.4-1.9-.2 0-.1 0-.4-.3l-15.1-.5-.1-2 14.5.6c0-2.5-.9-4.3-3.7-4.6l-10.4-1.4c-1.8-.3-5.3-1-7-.6-.4.1-2.8.2-2.8.5.7.2 1.5.9 2.5 1.1.8.2 2 0 2.7.3 1.5.5.9 3.8-1.2 3.8 0 .9 4.6 3.7 5.4 4.5 1.5 1.5 3.8 4 5.9 4.5.6 2.2 1.4 5.8-.3 7.9 0 1.8 1 6.1 2.3 7.4s3.2 1.7 4.6 3c1 1 2.1 1.5 3.2 2.2.6.4.7.3.1 1-.2.3-1 1.8-1.2 1.8 0 .1-.2.3-.2.4-.1 0-.1 0-.2-.1-.1 0-.2-.1-.2-.1-.1 0-.1 0-.1-.1-.1 0-.2-.1-.3-.2-.6-.2-2.4-2.2-3-2.7-.4-.3-3-1.7-3.1-1.9h-.3c-.1.3-1.3 1.5-1.6 1.8-.8.6-1.3-.4-2 .2-.1.3-.8.6-1.8.8h0l5.9 3c1 .6 3.5 1.8 4.1 2.7.2 0 .1 0 .2.1 1.4.4 2.5 1.7 4.2 2 2.8.5 5.6.8 8.4.8 1.5 0 2.8-.3 4.3-.5 1.7-.3 3.1-1.4 4.7-1.6.6.1.4.1.8.1 1-.8 3.2-.4 4.3-.8 1.3-.4 2.1-.6 3.3-1.3 1.6-1 2.8-3.1 3.9-4.5 1.2-1.6 2.7-2.6 4-3.7h0 0zm-110.4-12.3c0-.2 1.6.2 1.9.2 0 2.3 1.6 5.3 2.2 7.6.7 2.5 1.1 5.1 2.4 7.4 1.6 2.9 9.9 5.8 12.8 4.2 2.3-1.2 6.7 1 8.2-1 2.1.7 4-1.1 5.8-1.4.1-.2 1.1-.9 1.4-.9.6-.9 5.4-2 6.6-2.3 2-.5 4.9-.5 6.7.5 2.7 1.5 11.1 1.5 14.2.7 0-.1.1-.1.1-.2.3-.1.2-2.4.3-2.7 0-3.1-.1-5.8.3-8.8.2-.1.2-.5.4-.5 0-1-.5-1.7-.5-2.9 0-.9.4-3.1-.1-3.8-1.2-2-3.7-3.6-5.7-4.8-.2-1.2-2.8-3.9-4-4.1-.4-.7-2.5-2.5-3.2-3.1-.5-1.7-2.4-2.2-3.5-3.5-1.3-1.6-2.8-2.6-4.9-2.6-2.2 0 3.8 8.1 4.2 9.2 1 2.9-2.6-2.4-3-2.9-.8-1.1-4.7-6.8-5.4-6.8-1.6-.2-3.5-.5-5.1-1-2.4-.9-4.9-1.1-7.3-1.8-1.5-.5-1.1-.2-.4 1.2.3.7 1.1 1.8 1.1 2.6 0 1.3-.2 5 2 5-1.4 1-3.3-1.8-3.3-2.9 0-2.4-.2-3.8-1.9-5.7-1.2-1.3-2.8-1.3-4.4-1.7l-8.9-2.3c-4.6-1.2-9.8-3.1-14.6-3.1-1.1 1.1-2.7 3.4-3.8 4.2 0 .2-.1.2-.4.4-.7.2-2.2 2.6-2.8 3.3-.8.8-.9 1.8-.9 2.9 0 2.7 2.3 2.8 4.2 4.2.8.6 2.9 2.3 3.4 3 1.8.2 4.2 3.6 5.5 4.9 0 1.8-.9 2.5-2.5 3.5-.8.5-3.6 2.3-4 3-1.1.2-1.9 1.4-3.2 1.4h0l3.6 1.5 6.5-.1h0 0zm156.1 6c.4.5 1.2.9 1.6 1.5.1.2 1.1 1.3 1.1 1.3.2.5 3.6 1.5 4.3 1.7 1.4.4 2.7 1 4.2 1 0-.1 0 0 .1 0a10.68 10.68 0 0 0 .3-2.5c-.5-.1-1.1-.6-1.6-.8-1.3-.5-2.8-1-4.2-1.3-1.2-.3-2.7-1-3.9-1.1l-1.9.2h0zM468 480.6c-.1-.4-1.6-1.9-1.9-2.3-.7-.8-1-2-1.8-2.7-.1-.5-1.1-2.8-1.3-3.1 0-.2-.1-.2-.2-.4-.4-3.2-1.4-5.9-1.6-9.3l-.4-9.7c-1.5-4.4-2.4-8-6-11.1-3.1-2.7-4-7.1-4.3-10.9-.2-2.7-1.3-5.5-1.3-8.1.2-1.7.1-3.5.3-5.2s.8-3.2 1.5-4.8l4.2-9.4c.6-1.4 1.3-3.9 2.3-5.1.1-.4.4-.9.6-1.3 0-1.4.3-2.6 0-4-.1-.6-.9-3-.6-3.4v-.1c.1-.1.2-.3.3-.5.3-1.7-1.7-6.6-2.9-7.8-.5-2.7-5.5-7-7.5-9.1-2.8-3-5.9-4.7-9.7-6.1 0-.5-2.7-1.3-2.9-2h-.1c-.2.7-.5 1.9.1 2.5.5.4 1.4 1.5 1.3 2.2h-1.5c-.7 0-1.7-1.1-2-1.1-.3-1.3 1.1-2.4.8-3.5-.9.2-2.3 3.7-3 4.4-1.2 1.2-3.4 4.5-2.9 6.3.4 1.4-1.7.9-2.9.9-1.7 0-4.3.9-5.7.3-3-1.2-2.9-2.5-6.6-1.6-2.9.7-8.5 2.2-11.4 1.6-3.3 0-6.8 1.3-10.1 1.5-2.3.1-3-1.6-4.3-3.3-1.4-1.8-6.6-6.6-8.9-6 0 .9-.3 2-.4 2.9s0 2.7-.3 3.5c-.6 2.3-1.7 4.3-2.2 6.5-.3 1.1-1.3 4.5-2 5.4 0 1.1-.6 2.6-.8 3.7-.2 1.3-.3 2.6-.5 3.9-.5 2.8-1.2 5.9-1 8.7 1.4.8 2.4 2.2 3.7 3.2.8.6 2.1 2 3 2.2l.1.1c0 .8 1.5 3.4 2 4.1.8 1 1.8 4.3 2.6 4.9 0 .5-.8.6-.5 1.5.2.8.7.7 1.4.8.2.7.2 2.2.2 3 1.2 5-.5 10.8 1.1 15.8.6 1.8-.2 5 1.3 6.4 1.2 1.1 1 3.8 1.3 5.2 1.2 0 2.9.9 4.1 1.1l4.8 1.1c4.6 2.4 9.1 4.8 14.6 2.8 2.8-1 5.7-1.7 8.7-2.2 2.6-.4 5.5-2.1 8-2.1 1.1.9 4.8 2.2 6.2 2.6 3.8.5 11.2 5.3 13.6 8.2 1.4 1.7 6.8 9.8 8.6 9.8l3.5 3.6c.9.9 4.2 3.3 4.4 4.1.4.2.7.5 1 .9.4.7 1.3 1.2 1.9 1.8 1 .9 2.2 1.7 3.4 2.4 1.1.7 2 .8 3.3.8v-.1c-1.1-.8-2-1.9-3-2.9l-1.7-1.5h0zm-87-54.9c-.2-1.7-1.9-3.1-2.2-4.8-.3-1.3-.8-3.1-1.3-4.4-.9-2.2-.3-6.3-2.3-7.3-1.7-.8-3-2.1-4.7-2.8-2.3-.9-4.2-.8-6.5-1.4-1.6-.4-6.9-2.9-8.1-2.5-.2 1.3.3 3 .6 4.3.2.8 2 2.9 2 3.3l-.1.1c-2.5.4-2.8.5-4.6-1.1 0-.6-.6-1.5-.8-2-.6 0-2.8 1.6-3 2h-.3c-.3-1.2-2.3-2.7-2.4-4-.1-1 2.4-2.4 2.9-3.3 1.9-3.1-1.7-8.5-3.6-11-.7-1-3.6-5.9-4.5-5.7-.8 3.2 0 8.3.7 11.5.1 0 .1.1.1.3l.7 3.9c.2.9.4 2.7 1 3.5.1.7.8 1.5.8 2.2.6.8.7 2.2 1.7 2.7.2.3.6.7.6 1.1 2.5 1.7 4.7 5.4 5.7 8.1.6 1.5 1.6 1.7 3 2.3l2.4.9c.5.2 1.1.9 1.4 1v.1c-1.8 0-3.5-.5-5.3-.5v.1c.6.2 2.5 5.2 2.5 5.9 1.8 1.4 2.9 5.6 4.6 7.5 3.3 3.6 6.9 6.4 10.9 9.2 2.2 1.5 8 5.2 10.6 5.2.3-1.2-.6-4.2-.7-5.8-.1-1.4-1-1.9-.5-3.6.8-3.6-1.4-7.8-1.4-11.4l.1-3.6h0zm-25.9-33c-.9 0-1.8-.3-2.6-.3h-.1c-.1-.6-1.7-2-2.1-2.7-.7-1.2-2-2.2-2.8-3.3-1.5-1.9-3.3-4-3.3-6.5-.1 0-.2-.1-.3-.1-.8 0-1.6-.4-2.4-.4-.4-1.3-.2-4.7.1-6.2.4-2 .3-3.9.3-6 .3-.9.1-2.4 0-3.4 0-1.1-.3-2.2-.4-3.3-.1-2.1-.9-4.2-.9-6.3-.1-.1 0-.1 0-.2-.2-.4-.2-.8-.4-1.3-.5-1.7-1.7-4-2.8-5.5s-3.1-1.6-3.1-3.8c4.4 0 4.6 1.5 7 5 1.1 1.6 4.9 8.3 1.6 9.2 0 .1 0 .1-.1.1l.1 6.5c.1 0 .2.1.3.2.9-.7 3-6.8 3.2-8.2.4-2.1.6-2.8-.8-4.6-.9-1.2-1.6-3.5-2.3-5-.2-.5-2.2-3.2-1.7-3.4 1.1-.5 5.6.4 6.1 1.5 1.6 3.7 3.2 6.5 3.9 10.6.3 1.7.4 3.4.3 5.2-.1 1.1-.5 2-.1 3h.1c0 .1 2.1-.1 2.4 0 0 .5.2 1.1.2 1.7.2 2.5.4 4.9.4 7.4 0 .8.3 2.1 0 2.8-.1.3-1.3 1.8-.8 1.9.1.1 1.5.7 1.8.8.5.1 1.1.3 1.6.2h0v-.2c.1 0 0-.1 0-.2-.1 0 0-.1 0-.2l.4-12.2 2.4 1.7.5 8.4 7.7-6.7h2.7l-1.1 3.5-6.3 6c.1.9 1 4.2 2.4 3.4 2.6-1.6 4.7-6 5.2-9 .4-2.1 1-5.1.5-7.1-.6-.2-2.1.1-2.7.3h0 0 0c-1.2 4.6-10.2-2.5-11.6-3.9-1.9-1.2-1.6-.6-1.9-3-.5-4.4 3.3-.9 4.6.7 1.2 1.4 3.3 3.2 4.9 4.2 5.3 3.3-.1-3-1.6-4.3-1.4-1.2-8.1-5.4-8.1-6.9.1 0 .9-1.3 1.1-1.6.4-.4 2.8 2.1 3.2 2.5l6.2 5c2.3 1.8 1.9-1.4 1.9-3.4-2.3 0-8.7-4.9-11-6.1-3.8-1.9-6.5-5.1-.1-3.5 0-2.6-.4-1.3-2.2-1.7-.7-.2-3.6-1-3.6-1.8.9 0 2.5-.6 2.5-1.4 0-2.7 14.5-3.6 14.5-.3 1.6.4 2.4.1 4.1 1.3 2.2 1.5 4.2 2.2 6.3 3.4s5.7 1.7 7.4 3v1h0c.8 0 1.6-1 2.4-.4 1.9 1.6 0 7.1.6 9.3.1 0 .7-.1.7-.2.1 0 .6-3.6.7-4.1 1.1 0 1.8 1.3 2.4 2 1.3 1.4 3.4 2.1 4.8 3.6 1.4 1.6 2.7 3.8 3.1 6 .7 1.8.4 4.4 3.3 3.8.6-.1 1.5-.5 2.1-.3.3.1.4.5.7.6.2.1.7.4.7.5.1 0 .2.2.3.3.4 0 .8.1 1.3.1.3-.8.4-.7.1-1.9-.2-.9-1.9-2.5-2.7-3.1-.5-.4-2.5-1.6-2.6-2.3-1.8-.4-4.1-3.4-5.1-4.9-1.5-2-3.8-3.1-5.1-5.3-.1-.3-.2-.5-.2-.8.5-.2 1.5-1.5 1.9-.5.3.8 1.9 2.8 2.7 3.2.7.4 2.4-1 2.4-1.7-.9 0-1.9-1.5-2.5-2.1-1-.8 2.7-.1 3.2.1.6.2 2.5 1.3 2.7 1.9.1 0 .1 0 .2.1h.1c.2.5 1.5 1 1.7 1.6h.1c.1.3 1 .6 1.1.8.9 0 2.9 1.8 3.9 2.3 2.8 1.5 5.1 4 2.9 7.3-.8 1.2-3.6 5.2-3.2 6.3 2.6 0 3.5-2.2 4.4-4.6.9-2.3 1.5-3.5.5-5.7-1.2-2.5-2.6-3.8-4.8-5.4-1.1-.8-1.7-1.9-2.9-2.5-.8-.4-2.6-1.8-3-1.9v-.1c3.4 0 7.5 1.9 10.7 3 2.4.8 5.5 3.6 7.7 3.9 1.4.7 2.7 1.7 4.1 2.4 1.6.7 2.8.6 4.3 1 .6 2.5 0 3.2-1.4 5.5-.9 1.5-2.4 4.2-3 5.7-3.3 0-6.6.6-9.8.6-1.8 0-5.7.8-7.2.1-.5-.4-.6-.8-1-1.2-1 .1-1.6 1.3-2.9 1.3-2.1 0-5.1-1.1-7.2-1.6l-11.8-3.1c-1.6-.4-3.4-.5-5-.8-1.2-.2-2.9-.9-4-.9-.2-.2-.5-.6-.6-.8-.1 0-.1 0-.1-.1-.1 0-.2-.1-.3-.2-.8 0-1.1-.2-1.8.3-.2 1.2.1 2.2.2 3.4.1 2.3.2 4.2-.1 6.5-.3 2.7-1.6 5.2-2.4 7.8-.5 1.9-1.7 2.8-1.7 4.9 0 2.4-1.6 5.3-2.1 7.8L368 403c-.1 0 0 0-.1.1-2.5 0-6.3-2.5-8.7-3.5-.6-.2-4.6-2.2-4.1-2.9.4-.5 2.4-2.6 2.4-3.1-.1 0-.1-.1-.2-.1-.1-.2-.6-.2-.8-.3l-1.4-.5h0zm-49.2-48.8c.1.3.1 1.1-.1 1.4l4 .2c1.6.1-.2 4.8 0 6.3.1 1.3 3.3 3.2 4.3 4l9.5 7.6c2.6 2.1 6.2 1 4.9 5.1.6 0 1 1.9 1.4 1.9.3 0 2.9-4.4 3.3-1.1.4 2.9.2 1.2 2.1 2.6 0-2.2 2.3-1.1 1.9-3.7-.7-4 .5-8.7-.8-12.6-1.9-5.4-5.8-10.5-11.8-10.5-1.3 0-2.6-1.1-4-1.1l-12.1.1-2.6-.2h0zm-125.5-22.2c.6.9.9 1.3.4 2.3-.8 1.7-2.8 1.4-4.5 1.4-.7 0-1.4-.1-1.8.6-1 1.8 2.1 1.4 3 1.1 1.2-.4 2.2-.9 3.5-.9 1.2 0 3 1.2 3.1-.8 0-.8-.9-3.1-1.9-3.2-.1-.1 0-.1-.1-.1l-1.7-.4h0zm289.1 46.6l17.2 12.5 6 4.9 8.4-10.8 1.9.4 12.4-12.4 11.4 13.2 8.4-12 1-1.1 20.5 10.7 3-4.5 2-.4h0c-.1-.4-.2-.9-.2-1.3-.1-2.3.9-3.9 2-5.8.8-1.3-.8-2.2-.6-3.4.1-.7.7-1.4.8-2 2.4-1.3.4-3.4 3.4-4.1 1.5-.3 1.2-3.8 1.2-5.1-2.2-.7-5.2.3-7.6-.6-.9-.3-1.1.2-1.9.6l-3.4 1.6c-2 1-1.4-1-1.6-2.5.2-2.1.1-2.7-1.3-4-.8-.7-.5-3-.3-4 .7-4.1-2.3-4.7-4.6-7 0-.2.1-.3.1-.5.8-.6 1.5-1.7 2.4-2.5.9-.7 2.2-2.1 3.1-3 1.9-2 4-3.1 4.4-6 .4-.3.7-.6 1.2-.8.4-.7.6-.6.3-1.6.4-.3 1.3-2.5 1.3-3.1 0-1-.3-1.8-.7-2.7-.5-1.3-.3-4.3-1.5-4.8l-4.2-1.9c-2-.9-4-1.6-5.9-2.5-.2-1 .2-2.9.3-4 0-.2 0-.4.1-.5h0l-6-2c-10.9-2.6-21.8-1.1-32.9.9l-20.5 3.7-8.9 1.5c-2.1.4-3.9 2.6-5.6 3-.5.9-2.2 1.9-3.2 2.4l-.9.3c0 .2-.6.5-.8.5-.1.2-.3.2-.5.2l-.1-.2-.2-.1c-.4-1.5-1-3-1.3-4.6-.2-.8-.6-4.8-1.2-5.2 0-.2 0-.3-.2-.3-.1-.4-.7-.5-.8-.8h-.4c-.6-.9-3.9.5-4.5 1.1-2.3 2-4.4 3.2-7.6 3.2-1.4 0-3.2-.1-4.5.3-1.8.4-3 1.4-4.6 1.9l-4 1.7h0l-2.1 2.5c-.7.7-1.9.9-2.7 1.5-.9.7-1.8 1.5-2.7 2.1-1.5 1-2.4 2.6-4 .8-.3-.3-1.9-1.7-1.9-2-.3 0-2.8-1.3-2.8-1.4-.3-.1-1.1-.6-1.2-.8-.2 0-.1 0-.2-.2-.2 0-.1 0-.2-.2-.2 0-.2-.1-.3-.3-.2 0-.4-.2-.4-.3-.1 0-.1-.1-.3-.1-.1-.5-3.6-1.2-4.2-1.3-1-.1-3.3-2.9-3.5-3.7-.1 0-.6-.8-.7-.8-.2 0-.3-.2-.3-.3-.2 0-.1 0-.2-.2h-.2l.1-.1c-.2-.9-1.4-.3-1.9 0h0l-2.8 1.9c-1.6 1.3-2.8 2-3.5 4.1s-2.6 4.3-3.5 6.3c-.6.1-1.1.6-1.9.8-.7.2-1.1-.1-1.7-.1-.1-.2-.4-.1-.5-.3-.2 0-.8-.4-.8-.5-1.1-.3-2.6-2.4-3.3-3.4-.9-1.2-2.3-1.3-3.5-1.9-.8-.4-1.1-1.5-1.7-1.8-.4-1.5-8.1-1.3-9.5-1.2h0l-8.5.7c.3 2.6.4 7.3 1.1 10.6l-5.6.4-3.6-4.7-5.9 15.8 6.5 5.5.2 1.8h0c1.7 0 3.5.2 4 .9 2 .7 4.7.7 6.7 1.2 1.3.3 3.3 1 4.5 1-1.5.4-1.6.5-.4 1.3.9.6 3.5 2 4.6 2 .8 0 4-1.4 4.3-1.1l7.8-.3.3.9-10.3 1.1 2.1 1.4 8.6-.1.4.9-6.2.3 7.1 2.8 7.1-1.4-2.9-7.9 4.3-1.2v.7l-3.5 1.1 2.8 6.1c3.9 0 7.6.8 11.3 1.4 2 .3 8.1 2.4 8.5 4.2-4 0-7.6-3.5-11.9-3.6-1.1 0-8.5-1.6-5.7 1.3 1 1 4.2 1.4 5.5 1.6 3.6.6 6.6 2.2 10 3.3 2.9 1 5.7 3.2 8.6 4.5.7.3-3-6.9-3.4-8-.5-1.3-2.2-3.6-1.6-4.4 1-1.6 2.1 1.5 2.6 2.1.7 1.1 1.7 2.6 2.1 3.8.3.7-1.3-.4-.9.3.3.5.4 2.1 1 2.3.7.2 2 .6 2.4 1-1.6 0-.3 2.8 0 3.4.5 1 4 2.3 4.2 3.1 3 .4 5.8 1.1 9 1.1 2.6 0 3-.4 5-1.7 1.9-1.3 6.8.9 8.8 1.6 1.1.3 2.1 1 3 1.2s2.2.1 3 .5v.1l-3.1.6c-.3 1.1-.7 1.6-.1 2.6.7 1.1.9 2.1 2.5 2.1.8 0 1.6-.3 2.4-.3.5 0 1.8 0 2.2-.2.2.1.9 0 1.1.3-.1.2 0 .3.1.4h0 0zm.1 23.9l2.8 4.1 1.3 3.4-2.3 4.6-.3 6.2h.1c-5.1-1.6-10.3-4.5-10.3-8.7-.2 0-.6-1.5-.6-1.7.1-1.5.3-2.5.6-3.9.3-1.5 1-2.5 1-4.1 0-3.1-.4-6.6-1.7-9.4-.3-.6-1.1-1.4-1.1-2-.2-.1-.5-.6-.6-.8-.4-1.8-3.2-5-4.5-6.4-1.6-1.8-3.3-4.3-5.4-5.5l-4.6-2.7c-.6-.3-1.2-1.3-1.7-1.4v-.2h.1c.1-.2 1.5-.1 1.8-.1.6 0 1.3-.2 1.9-.2 1.3 0 3 .4 4.1.2 3.5-.7 4.8 1.2 7 3.2 1.4 1.3 2.9 2.2 4 3.7a1.21 1.21 0 0 0 .5.5c0 .3.6 1.4.7 1.6.2.3.4 1.2.4 1.6 0 1.5-.1 3.1-.4 4.4-.2 1-.1 1.7-.6 2.6l1.3 6.1 5.9-.9.6 5.8h0 0z" fill="#d2dbf0"/><path d="M216.7 361.7c-4.5-2.5-9.7-2.3-14.2-5.3-2.4-1.6-6.4-4.8-9.2-5.6-.9-.3-4.6-1.8-5.1-2.5-1.1-.1-4.4-2.4-5.7-3-3.5-1.7-6.8-4.6-9.8-7.5h0l-1.8 1.4c-1.3.5-2.3.1-3.4 1-1.2 1.1-.9 1.5-.5 3l2.4 9.3c.5 1.8 2.2 2.7 2.3 4.7.1 2.4-2 4.3 1.6 5.5 1.1.4 1.7 1.5 2.2 2.4.5 1.2-.3 1.3-.3 2.5.5.2.7 0 1.3 0 1.2.2 2.1-.2 2.2 1.2.1 2 1.2 3.9 1.7 5.9.4 1.5 2.2 3.8 2.2 5.1-1.5-.4-3.3-2.6-4.5-3.6-1.4-1.2-2.9-1.9-4.6-2.6-1.7-.6-1.5.3-2.2 1.6-.5 1-1.5 1.6-2 2.5-.4.7 0 1.6-.5 2.3-1.3 1.7-.2 2.6-1 4.3-.7 1.7-1 1.5-1 3.5 0 1-.5 1.3-.9 2.1-.5 1.1.6 2.4-.3 3.3-1.2 1.2-1.7 1.6-1.5 3.1.4.2 1.2.7 1.3 1.2.2.1 1.1 1.4 1.9 1.7 2 .6 2.3 2.6 4.3 3.2 3.2 1 5.9 4.2 9 4.8.9.2.3 2.1 1.5 2.8.6.3 3-.1 3.1.1.3.7-1.2 4.7-1.4 5.5-.4 1.6-2.2 7.4.5 6.6 3.4-1.1 6.9-2.8 10.4-2.8 1.5 1 2.6 1.4 4.4 1.4 1.4 0 2.6-.7 3.9-.7v.1c.1 0 .1.1.2.2 0 1.9.2 4-.4 5.8-.5 1.7-1.1 2.6-1.4 4.4-.2 1.1.2 2.4-.2 3.4-.8 2.1-.9 3-.5 5.2.2 1.6.1 5.4-.5 6.8.4 1.8-1.3 4.3-1.3 6.2.6.5 1.5-.5 2.1-.5h0c0 2.5-1.8 7.5-.8 9.5 1.1.1 2.7-.2 3.4.6.7.7.2 2.2.4 3 .4 1.5 2.6-.2 3.1.9s.5 3.5.5 4.7l.2 2.3 5.9.3 23.7 20 16.5 22.3c.8 1.1.9 3.1 2.6 3.7 3 1 2.5 1.3 3.3 3.9.6 1.8 2.1 2.6 2.1 5h0c2.5.6 3-1.9 2.4-3.5-.4-1.1-.5-2.4-.9-3.5-.2-.6-1.2-1.7-1.3-2.2-3.8-1.1-.2-6.9.5-9 1.2 0 6.2 2.6 5.2-.7-.4-1.2-.9-2.5-.4-3.7.2-.4 1.5-2.4 1.7-2.4 1 1.3.5 2.9 2.7 3.8 1.9.8 3.4-1.4 4.7-2.7l9.8-10.3c2.7-.3 2.7-2.7 4.1-4.5.7-.9 1.3-1.5 2-2.7.4-.6 1.7-2.2 1.8-2.6 1.6 0 .9 3.9 3.8 3.4 2-.3.4-1 .1-2.6-.3-1.4.5-2.9.8-4.3.8-.2 1.6 1.6 2.1 2.2.8.9 2.5.9 3.2-.1.2 0 .2 0 .3.1 0 1.9 1.4 3.2 2.6 4.4 2.4 1.7 3.2 4.1 4.4 6.7 1.1.6 1.7 1.8 3 2.5.9.5 2.6 1.7 2.7 2.8.9 1.1.9 4.1 1.1 5.5.3 2.3.4 4.1 1.3 6.3.3.2 2.1 3.2 2.2 3.6.3.6.5 1.2.5 1.9-.1.1-.2.3-.3.4-1.4.8-1.5 1.9-2.2 3.2-1.3 2.2-2.8 4.1-4.5 5.9-2 2.2.4 6 .6 8.9.1 1.2-1.6 2.1-2.4 2.9-.5.5-.4 1.2-.5 1.7-.2.7-.9 1.1-1.3 1.7-1.5 1.3-5.1 7.5-5.1 9.4 2.4 0 6.9 1.8 8.8 3.3.8.6 5.7-4.8 6.4-5.6 1.3-1.6 3.1-3.9 4.8-5.1.7-.5 1.5.9 2.3.9 1.6 0 .4-2.7 3.5-2.2 1.1.2 7.2.3 7.5.7l2.1-.3 5.1-10-4.1-2.4 1.2-1.7 10 4c1.7.7 3.5.7 5.2 1.5 1.3.6.5 2.5 2.1 2.7.3.4 1 1.5 1.5 1.8 1.1.6 2.9-.5 4.2-.5.8 0 1.4 2.6 1.7 3.2 1.1 1.6 3.3 2 5 .7 1.5-1.1 1.9-.8 1.6.9-.4 2.3.3 4.4.3 6.7l-.2 5.5h.1c.2.5 3.8-.1 4.3-.2 1-.2 2.6-.4 2.8-1.5.6-2.5 2.1-2 3.1-4.1l1.1-2.3c.2-.4.9-2.7 1-2.7.3-1.2 4.1 1.4 4.4.5.6-1.9 2.1-5.5 2.1-7.4.1 0 .1 0 .1-.1.5-.8.7-2 1.1-2.6 1.8 0 3.5 1.8 5.1 2 .8.1 3.9-3.6 4.5-4.4.9-1.2 2.1-2.8 3.3-3.8.5-.4 1.1.5 1.6.8.7.5 2.9-.3 4.1-.1.9.2 3.5 0 4.4-.3.3-.8-.9-2 .5-2 2.1 0 1.7-2.2 3-3.3.8-.6 3.9-3.4 4.6-3.4 3.8-2.4.4-6.1-2.5-7.6-2.1-1.1-8.3-2.6-9.4-4.5-1.4-.2 2.6-4 3-4.6.6-.8 3.9-5.3 4.6-4.9.4 1.7 1.1 2.6 2.7 3.3 1.1.5 5.4 1.5 5.9 2.1 2 0 2.2-2.5 3.2-3.8 1.3-1.6 3.9 1.7 6.2.5 1.6-.8 1.3-.9 3.1-.9 1.1 0 2.5-.8 2.9-1.9 1.3-1.9 1.8-3.1-.4-4.2-1-.5-2-1-3-1.3-1-.2-1.7-1.2-2.4-1.4-.2-.8 2.4-3.4 2.4-4.8-1-.5-1.7-2.7-1.2-3.6.4-.9.4-2.5 1-3.1s1.2 0 1.7-1.2c.4-1-.1-2.2 1.4-2.3 1.6-.1 2.2-1.2 3-2.6.1 0 .9-1.3 1-1.3h0l-3.3-4.5c-1.4-1.9-4.2-4.8-6.2-6-1.2-.6-4-2.1-4.8-3.2-2.3-.3-4.5-2.8-7.1-2.6l-8.2.5c-1.8.1-3.6.8-5.4.9-1 0-3.1 1.2-4.3 1.4-1.7.3-3.4.5-5.1.5-.7 0-5.9 0-6.1-.5h-.3-.1-.1-.2-.1c-.2 0-.9-.2-1-.3-.1 0-.2-.1-.3-.1-.4-.8-6.6-1.7-7.5-1.4 0-.1 0 0-.1 0 0-.1-.2-.2-.3-.3-1.5-.4-3.8-1.7-5.6-2.3l-5.7-2v-.1l-3.6 7.4-.6-.1 1-8.6-2.7-1.6-3 8.9-1.1-.4 2.4-9.2-3.6-3-3.7 10.6-1.6-.1 3.5-12-3.7-3.2-5.4 12.6-1.9-.1 4.9-12.8v-.8c0-.2-.1-.4-.1-.6 0-.3-.3-1.2-.6-1.4 0-.1-.3-.4-.4-.5-.1-.2-.3-.4-.4-.6-.2-.3-.2-.3-.3-.7-1.3-2.1-2.9-4.7-3.8-7.2-1-2.7-2.8-5-3.9-7.6-.6-1.4-1.5-3.3-2.4-4.6-.8-1.1-3.8-3.5-4-4.6-1.6-.4-3.2.4-5 .4v-4.1c-.5-3.7-.4-7.2-.4-10.9 0-1-.6-1.6-.6-2.5 0-1.8.5-1.9-.3-3.7-.6-1.2 0-3.2-.7-4.2-.3-.4-1.2-1.1-1.3-1.4-.5.1-2.4 4.9-3.2 5.1-.1-.2-1.1-.9-1.4-1 .2-.6.8-1 1.2-1.6.5-.7 1-1.8 1.3-2.5.6-1.5 1.6-3 2.4-4.4.9-.7 1.3-2.1 1.3-3.2 0-.6-.1-1.2-.1-1.8h0c-1.3 1.1-2.8 2.1-3.9 3.5s-2.4 3.5-3.9 4.5c-1.2.7-2 .9-3.3 1.3-1.1.4-3.4 0-4.3.8-.4 0-.3.1-.8-.1-1.5.2-3 1.3-4.7 1.6-1.4.2-2.8.5-4.3.5-2.8 0-5.7-.3-8.4-.8-1.7-.3-2.7-1.7-4.2-2-.1-.1-.1-.1-.2-.1-.6-.9-3.1-2.1-4.1-2.7l-5.9-3h0c-2.6.5-7.2.6-8.4.5l-10.6-1.4c-3-.4-4.7 1-7 2.2-1.3.7-2 2.2-3.2 2.6-1.7 0-3.7.8-5.5.9l-4.7.3c-3.4.2-6.4.9-9.8.1-1.7-.4-3.1-1.4-4.7-1.9-1.1-.3-5.6-3.9-5.9-4.8-.5-1.2-.6-2.7-1-4-.5-1.7-1.8-3.5-2.4-5.3-.8-2.3.6-2.8.8-5h0l-6.4.1-2.9-1.6h0 0z" fill="#fffacd"/><path d="M269.6 220.9l-.8 5.5-1.7 1.2c-1.3.4-4.1 1.9-5 2.9s-1 3.6-1.9 5c-.4.6-1.8 1.8-1.8 2.5v5.5c-.1 0-.1.1-.1.1-.2.6-4.2.9-4.9 3.5-1.2.3-3-2.3-4.1-1.3-.8.8-3.7 1.8-4 2.5-.5 1 .9 2.5-.6 2.5-1.4 0-3.1-.6-4.3-.3-.4 1.4.1 3.1-.2 4.4h0-.1c-.8 0-1 0-1.8.3-.1.6-1.1 1.3-1.3 2-.3.9-.3 1.3 0 2.2.3 1.3 1.4 2.6.2 3.6-.9.7-1.4.3-2.4.3-1.3 0-2.3 1.3-3.2 2.1-.7.6-1.3.8-2.1 1.2-.4.2-2.4 0-2.4.2-.6.2-1.1 1.5-2 1.8l-6-3.3-1.7-.2-11.4-12.4-1.7.2-1.3-1.5c-2.5-3.1-6.9-5.1-8.8-8.8-.2-.4-1.7-2.3-2.1-2.5-.3-1.4-1.3-3-1.3-4.4h0c1.3-.3 2.3-1.1 3.4-2.1l4.2-.9 1.7-4.1-2.9-3.8-4.8 2.8-2.5-2.7-.4-1.5-2.3-.2-15.9-8.4-2-11 1.9-8.3-6.2.5-.5 3.9-3.9 1.6-1.5 8.2c-.4 1.2-.7 2.7-1.5 3.8-.6.9-1.5 2.1-1.9 3.1-.9 2.1-1.4 4.1 1.4 5.2 1 .4 2.1 2.2 3.2 2.2 0 1.6-1.7 5-2.3 6.7-.7 2-2.2 5-2.2 6.9h0c-.5 0-2.2-1.2-3-1.4l-3.3-.8c-.3 1-.7 2.5-1.2 3.7-1.3.7-2.4 4.6-3.2 5.9-.9 1.4-.3 4 .3 5.4.4.7 1.4 2 1.6 2.7.1 0 .2.3.3.3.6.2-.2 2.9-.3 3.4l-.7 3.9c-.9.2-2.2.1-3.2.1 0 .1-.1.1-.1.1-.1 0-.1 0-.1.1-.6.1-3.5 4.9-4.1 5.7-.6.1-3.2 4-2.7 4.7.7 1.3 1.9 3 3.1 3.8.5.3 1.6-1.8 2-1.9.6 1.8 1.7 3.8 2.1 5.5-1.9 0-3.8.3-5.5 1.1-2.3 1 .4 3.6.4 4.7 0 2-.8 3.5-1.1 5.4-.3 1.8-.6 4.3-1.2 6.1l-.2 4.9h0c.9.3 1.7.6 2.7.6 1.5 0 4.9-.2 6.2.4 2.2 1.3 5.3 1 7.8 1.3l11.1 1.4c3.1.4 8.5-.8 10.4 1.9 1.2.1 5.3.8 6.1 1.5.6.1 1.1.7 1.6.8 3.7 0 5.9.8 9.2 1.9 3.2 1.1 7.2 3.4 10.5 3.6.4.3 2.7 1 3.3 1 1 .9 5.6 1.6 7.2 2.1 2.6.7 6.5 1.5 8.8 2.7.4.1 1.4.4 1.7.6 2.6 0 4.9 1.1 7.4 1.8l13.3 3.8c2.3.7 5 1.4 7.3 2.3 1.9.8 5.2.8 6.8 1.7.8 0 5.6.2 5.8 1 1 .1.8.3 2 .2 4-.2 9.7 1.2 13.6 2.5 2.4.8 5.1 1.6 7.7 1.6 1.3 0 7.1-.9 7.9-.3 2.6.8 7 .6 9.7.6 3.1 0 6.3.7 9.2.7a3.08 3.08 0 0 0 1.3.3c1.7.7 10.3.9 12 0 1.3 0 2.7-.4 4-.4 3.5.4 7 1.9 10.6 1.9 3.5-2.8 7.5-1.9 11.6-3.1 2.2-.6 3.9-1.1 6.2-1.4.5-.1 1.5-.1 2.6-.1h0l-.2-1.8-6.5-5.5 5.9-15.8 3.6 4.7 5.6-.4c-.7-3.4-.8-8-1.1-10.6l8.5-.7h0l-.3-1.4c0-.5-.1-2.1-.7-2.2-.3-1.2-4.1-3.4-5.3-2.3-1.9 1.7-6.2 4.7-8.8 4.7-4.5 0-10.3-5.2-11.3-9.4-.2 0-.2-.1-.3-.3-1.3-.3-2.7-1.8-4.4-.8s-3.2.2-3.7-1.7c-1-.1-7.9-.8-8.1-1.6-.1 0-.1-.1-.3-.1 0-.2 0-.1-.2-.2 0-.2-.1-.2-.3-.3-.1-.3-1.7-2-2-2.5l-7.3-7.5c-1-1.1-4.2-5.6-5.5-5.9 0-1.4.1-8.2-1.3-8.5-.9-3.6-3.8-5.4-7.3-4.6-.4 1.7-1.2 3.8-1.2 5.7 0 0-.2.3-.3.3-2.6 0-5.5-3.4-5.5-5.8-.2 0-.1 0-.2-.2-.2 0-.6-.6-.7-.8-.3-.1-.2-.4-.5-.5 0-2.3.1-7.2-.6-9.3l-31.4-27.7h0 0z" fill="#e8f0d8"/><path d="M471.1 410.5a41.3 41.3 0 0 0 8 1.7c3.8.3 8.3 2.3 10.9 5.1 2.1 2.3 4.2 9.6 2.4 12.6-.6 2.9 0 4.6 2.7 5.5.8.3 1.3 1.2 2.1 1.4 4.5.9 8.7 1.7 13 3.4 3.5 1.4 5.6 1.6 9.4 1.6h0v.1c-1.1.3-2.5 3-3.6 3.2-.2.8-4.9-.6-5.6-.9-2-.8-3.9-1.4-5.9-1.4h-.1c-.1.3-.6.6-.7.8h-.2c-.5-1.6-3.3-2.1-4.7-2.8-1.2-.6-2.7-.7-4-1-1.6-.4-2.9-1.2-4.4-1.7-1.2.9-4.5.3-6 .3-.1-.1 0-.1-.1-.1-.3-1.8-.6-4.3.5-5.8.4-.6 1-1.2 1.7-1.4.8-.2 1.4.2 1.7.1.2-1 1.5-1.5 1.7-2.5.6-2.2 1.1-4.5.3-6.8-2.7-7.4-9.5-8.7-16.7-8.7-6.7-1.2-13-4.6-14.8-11.6h-.1c-.5 1.5-1.8 3.1-2.3 4.8-.8 2.7-1.4 5.2-2.6 7.9-1.2 2.8-.6 5.4-1.1 8.3-.3 2.9-.2 6.1.5 8.9.4 1.7 1.4 5.9 2.9 7 .1 1.6 3.6 4.9 4.6 6.6 1.3 2 2.8 6.4 2.8 8.7.6 3.2-.2 6.7.6 9.9l1.1 4.6c.3 1.4 1 3.3 1.1 4.6.7 1 .8 2.6 1.9 3.4.1.3.4.5.5.8.6.4.9 1.2 1.6 1.5.1.1.2.3.3.4 1 .5 3.9 2.5 4.6 3.4 3.7 2.5 6.6 4.3 9.8 7.6l5.1 5.4c.7.7 3.4 4.6 4 4.7v.1c.1 0 .3-.6.3-.7.4-1.2 2-1.8 2.9-2.5.1 0 .1.1.2.1.1.8 2 3.2 2.4 4.2.7 1.7.8 3 .8 4.8-.5.2-2.5-2.6-2.8-3.2s-2.6-2.4-2.6-.7l3.8 4.8c1.1 1.4 2.3 4.5 2.3 6.4 0 1.3.4 1.9.5 3 1.5 1.1 1.8 5.7 3.1 7.5 1.5 2.1 2.1 4.1 4 6.1 2.6 2.6 7.6 5.4 11.3 5.7 3.4.3 11.7-1 14.2 1 .6.3 1.9.9 2.3 1.4 1.5.3 5.3 4.9 6.5 6.2 1.4 1.5 4.9 6 5.2 8 1.2 1 2.2 5.3 3.2 6.9.5.8 3 5.2 3 6 .1.3.8 1.6 1.1 1.6 0 .1 0 .2.2.2.1.2.3.5.3.7h.1c0 .1.1.2.1.3.1 0 .4.4.4.5 1.5.4 4.7 4.7 6.1 6 4.5 4.2 8.1 6.5 14.4 7 2.8.2 5.1.4 7.5-1.3 1.8-1.3 4-4.1 6.5-4.1 3.3 0 8.6-1.1 11.6 0 1 .4 7.6 2.7 7.9 3.3.6.2 1.7 1.7 2.4 2.1 4.9 2.7 10.1 2.2 15.6 2.2.2 0 .4.1.6 0 5.9.7 9.8-2.7 11.9-7.7l8.7-19 3-6.8c.7-1.7 2.7-3.5 3.1-4.7.2 0 .1.1.2.1 0 .2.2.2.2.3 1.2.3 4.8-3.4 6.1-3.9 1.7-.7 3-.5 4.6-1 3-.9 6.5-1.8 9.3-3.1 3.4-1.6 7.2-2.2 10.3-4.5.3-.1.7-.3 1-.3 2.1-1.8 6.3-3.2 7.8-5.5 2-.9 3.8-3.6 5.7-4.9 3.4-2.2 7.1-4.7 11.4-4.9 1.1-.1 3 0 4.8.2h0c.1-.2.1-1.8.3-2 0-.8.8-1.7.3-2.5-.4-.8-1.1-1-1.8-1.4-.5-.3-1.1-.3-1.6-.7-.3 0-.5-.3-.8-.4l10.8-16.4-8.1-4.4-4.9-.4-2.8 16.4h-.5c-.3.2-1.3.2-1.7.2-.9.1-1.8.1-2.7.2-1.5.2-3 0-4.3-.4-.7-.2-.9-.9-1.1-1.5-.2-.5-.6-1-.8-1.4-.2 0-.5-.7-.5-.8-.1 0-.7-2.2-1.3-2.8-.5-.5-2.6-2.1-2.8-2.7h-.1c.1-.6 3.1-2.3 3.8-2.6 2.1-1 1.9-1.3.5-2.5l-8.9-7.6c-1.7-1.4-3.5-4-5.6-4.5-1.6-.4-6.9-2.9-7.4-4.5-.6-.3-1-1.1-1.5-1.6l-4.9-3.4 2.1-4.4-6.6-3.8 1-6-.9-1.6c-.2-.8-.8-1.5-.9-2.4-1.3-.4-6.5 2.6-5.3-1.7l.6-2c0-.4-2.6-1.2-3-1.4-1.2-.5-1.7.1-2.8.6-2.2 1-3.5-2-4.8-3.4-.9-1-4-2.1-5.2-2.6-2.1-.8-5-.6-5.5-3.3-.3-1.7-.3-8.4-1.3-9.4-1.3-1.3-2.7.3-3-2.5.9-1.7 1.2-4.8 1.8-6.8.8-2.3 1.7-3.2-.9-4.2-1-.4-2-1.1-3-.7-2.1.8-2.7 2.5-5.4 2.5-3.1 0-3.6-2.9-4.8-5-.7-1.3-2.5-.1-3.3-.9 0-3.1.2-5.2 3.4-6 .3-.5.5-1 .5-1.6.5-.6 1.4-2.5 1.3-3.3-.2-1.6-2.7-.8-2.8-1.7-.9-.6-1.9-2.2-1.9-3.2 0-1.1.7-3.5-.5-4.4-1.9-1.3-4.8-3.6-4.9-5.9-.1-2.1-1.5-3.4-1.9-5.4-.2-.9-.3-2.7-1.2-3l-9.5 9.6-3.9.5c-.8.5-4 .3-5.1.5-2 .5-2.2.8-3 2.7-1.7.4-2.2-1.4-3.2-2.5-1.6-1.6-3.8-2.8-5.5-4.3-3-2.7-8.2-4.9-11.8-6.8-.8-.4-1.9-.1-2.8-.4-.9-.4-1.2-1.7-1.9-2.3-.1-.2-.2-.3-.3-.5-.4-1.2-1-1.2-1-2.6 0-.7-.2-1.4-.4-2h0l-2 .4-3 4.5-20.5-10.7-1 1.1-8.4 12-11.4-13.2-12.2 12.4-1.9-.4-8.4 10.8-6-4.9-17.2-12.5-.1-.1h0 0c0 .2-2.5 1-3 1.3s0 1.6 0 2.1c0 .7-.4 1.1-.4 1.8 0 1.1.9 2 1.4 2.8.5.7 2 1.6 2 2.5-.2.6-.4 1.1-.4 1.8 0 .6.2.9.3 1.4.5.5.6 1.3 1.1 1.8 1.2 1.4 3.2 2.3 3.4 4.4.8.9.7 2.6.7 3.8v.1l-5.1.2h0l2.8 4.1 1.3 3.4-2.3 4.6-.1 6.3h0 0zM377.2 304c1.5-.1 9.2-.3 9.5 1.2.6.2.9 1.4 1.7 1.8 1.2.5 2.7.6 3.5 1.9.7.9 2.2 3.1 3.3 3.4.1.2.6.5.8.5.1.2.4.1.5.3.6 0 1 .3 1.7.1s1.3-.7 1.9-.8c1-2 2.9-4.1 3.5-6.3.7-2.1 1.9-2.8 3.5-4.1l2.8-1.9h0l-2.3-5.3c-.2-1.1-.8-2.4-1.2-3.5l-.8-2.8c-.6-2.1-.4-4-1.2-6.1-.2-.5-.6-.7-.8-1.2-.3-.4-1.2-.8-1.3-1.3-.7-.2-.9-1.7-.9-2.2s-.8-.9-.9-1.4c-.2 0-1.6-.6-1.6-.7-.3 0-.4-.3-.7-.3l-.1-.1c0-.1-.2-.4-.3-.4 0-1.5-.6-5.9-1.3-7.2-1.3-2.5-5.2-2.7-6.6.1-1.3.3-5.7 2.4-6.7 3.2-1.3 1.1-4.3 5.8-5.6 6.2-.1.2-.5.9-.7.9v.2c-.1 0-.4.3-.4.3-.2 0-.1 0-.2-.1h-.2c0-.1-.1-.1-.2-.2 0-.2 0-.1-.1-.2 0-.2 0-.3-.2-.3 0-2.7-4-5.1-4.5-7.6-.3-.2-2.1-3-2.1-3.4-.1-.1-.1-.1-.2-.3-.1 0-.3-.2-.3-.4-.1 0-.1-.1-.2-.2-.3-.1-.5-.5-.8-.6-.1-.2-.5-.4-.7-.4 0-.2-.1-.2-.3-.3l-.1-.1c0-1.3 0-2.4.3-3.5l2.1-.7c0-1.1-.2-1.8-.5-2.7-.1 0-.2-.1-.3-.2l-1.9-.6-.1-.1a3.08 3.08 0 0 1 0-1.9c.1 0 .1-.1.3-.1.1-.3.7-.4.8-.7h.2c0-.2 0-.1.2-.2l.1-.1c0-.2.4-.8.1-.9 0-1-1.2-1.7-1.2-2.9l.1-.1c2.3 0 3.8-.9 5.8-1.4.1-.3.7-1.7.1-1.9 0-.2-.1-.4-.3-.4-.1-.3-1.3-.8-1.6-.8 0-.1-.3-.3-.3-.3 0-.1-.2-.5-.3-.5 0-.2.1-.2-.1-.3 0-.2 0-.1-.1-.2 0-.2.1-.2-.1-.3l-.3-5.1c-.7-.2-1.7-1.1-2.5-1.4l-.1-.1c0-.2-.1-.1-.2-.3-.2 0-.1-.1-.3-.2 0-.2-.4-.7-.5-.8-.4-1.4-.3-2.2-.3-3.8 0-2.4.2-11.3 2.5-12.1 0-.2.1-.2.3-.3l.1-.1c0-.2 0-.1.1-.2 0-.2 0-.1.1-.2l-.1-3.5c-2.2-.5-2 .8-3.6 1.2-.1.3-.4.3-.5.7-.5.1-4.8 3.3-5.4 1.4-.2-.1-.9-.3-.9-.5-.2 0-.1-.1-.3-.2v-.2l-.2-.1c0-.5-.3-.9-.3-1.4-.4-.1 1.6-6.1 3-6.6.1-.3.3-.2.3-.4.1 0 .2-.1.3-.2 2.6-.6 6.1-4.6 7.7-4.8.1-.3.4-.7.7-.8 0-.2.1-.2.2-.3.6-.2 2.7-3.5 3.7-4.1.8-.6 4.4-1.9 5.4-2.1l2-3c.6-3.3 1.3-5.8 1.3-9.5 0-1.3-.5-8.3.9-8.6.1-.3.4-.5.5-.7.2 0 .1 0 .2-.1.3 0 .5-.2.8-.3.2-.9-.1-1.3-.6-2.1l-8.7-14.1h0l-1.7 2.1-4.4-3.8-3 2.3c-1.8 0-2.4-2.7-4-1.9-2.4 1.3-2.9-.6-5.3-1.2-4-1.1-9-.2-12.3-3.5-1.5 0-5.8 1.2-6.7-.1-1.7-.2-2.1 1.3-3.9.2-1.5-.9-3.3-1.2-4.9-.6-2.8 0-7 0-7.9-3.5-.9 0-1.6 1.1-2.7 1.2-.7.1-3.3-.9-3.4-.7-.3.5-.3 2.8-.6 2.9-.2.8-3 .9-3.7.8-.5-.1-3.5.3-3.5.7-.2.1-.6 3.4-.6 3.8-.1 1.5-.7 3.5-1.1 4.9-.7 2.3 2.1 6.3 1.1 8.9-.3.8-4.2 1.1-4.4 1.9-.3.1 0 0-.6.4-.6 0-1.3.5-1.9.5 0 .1 0 0-.1.1 0 1 2.3 6.4.6 6.8-.1.4-2.9 1.9-3.4 2-.4 1.5.3 2.9.2 4.4-.1 1.2-2.7 2.7-3.6 3.3-2.4 1.4-6.1 5.3-6.9 8-.8 2.8 2.5 2.7 2.5 4.9l-3.8 1.1-2.5 2.5h-1.6l-11.3 11.2-.3 2.1h0l31.8 28c.7 2.1.6 7 .6 9.3.3.1.2.4.5.5.1.2.5.7.7.8 0 .2 0 .1.2.2 0 2.4 2.9 5.8 5.5 5.8 0-.1.2-.3.3-.3 0-1.8.7-3.9 1.2-5.7 3.6-.7 6.4 1.1 7.3 4.6 1.5.4 1.3 7.1 1.3 8.5 1.3.3 4.4 4.8 5.5 5.9l7.3 7.5c.3.5 1.9 2.1 2 2.5.2 0 .2.1.3.3.2 0 .1 0 .2.2.1 0 .1.1.3.1.2.8 7 1.5 8.1 1.6.5 1.9 2 2.7 3.7 1.7s3.1.5 4.4.8c0 .2.1.2.3.3 1 4.2 6.8 9.4 11.3 9.4 2.6 0 6.9-3 8.8-4.7 1.2-1.1 5 1 5.3 2.3.6.1.7 1.7.7 2.2l.3 1.8h0 0z" fill="#f4ecf0"/><path d="M410.1 300c.5-.3 1.7-.9 1.9 0l.1.1h.2c0 .2 0 .1.2.2 0 .2.2.3.3.3 0 .1.6.8.7.8.2.8 2.5 3.6 3.5 3.7.7.1 4.1.8 4.2 1.3.1 0 .1.1.3.1 0 .2.3.3.4.3 0 .2.1.2.3.3 0 .2 0 .1.2.2 0 .2 0 .1.2.2.1.3.9.8 1.2.8 0 .1 2.5 1.4 2.8 1.4.1.3 1.6 1.7 1.9 2 1.5 1.7 2.5.1 4-.8.9-.6 1.8-1.4 2.7-2.1.8-.6 2-.8 2.7-1.5l2.1-2.5h0l-3-4.2c-.2-.5-.9-3.1-1.3-3.2 0-1.2 0-1 .3-2 .2-.1-.1 0 .3-.1.1-.2.3-.3.3-.4.1 0 .7-.6.8-.8.3-.1.4-.4.7-.5.4-1.8 4.6-2.8 4.9-4.1.3 0 .3-.3.6-.3 0-.2.2-.3.3-.3.1-.2.1-.3.3-.3.5-1.9 13-3.1 13.7-5.8 1-.3 1.6-2.1 3-2.4.1-.3 2.1-2.2 2.4-2.7.4-.5 1.4-2.9 1.9-3 0-.2 3.7-2.4 4.6-3.3.7-.7 2.9-4.9 3.4-5 .3-1.8 2.4-3.6 2.4-6-.1 0-.5-.2-.5-.3-.9 0-1.9-.2-2.8-.2-.7-1.4-.9-2.4-1.3-3.9l-.1-.1c-7.5 0-16.8-2.9-15.9-12.1 0-1.7-.9-2.3-1.2-3.5-.2 0-.4-.2-.4-.3-1.8-.5-3.6-4-5.1-4.5-.2-.9-2.9-3.5-3.7-4.1-1.6-1.2-.7-3.4-.7-5.2 0-5.6.3-6.1 4-10.2 1.7-1.9 2.4-5.1 3-7.5.2 0 .4-.3.5-.1.7 0 5.8 2.2 6.1 1.3.4 0 .5-.3.8-.3 0-.2.3-.3.5-.3 0-.1.2-.2.3-.2.1-.4 3.4-3 4-3l.1-.2 6.5.5c.8.1 5.4 1.5 5.6.9.6-.2 4.8-5.6 5.1-6.3 1.6-.3 7.7-6 3.8-7 0-.1-.1-.1-.1-.3-1.2 0-4.5-.5-6-.8 0-.1-.5-.8-.5-.8 0-1.6.8-2.5.6-4.3l-15.9 4.6-.2-2.8-2.5-3.2-.8-6.6-5.4 4-4 .3-3 1.4-1.5 2.2-.2 3-4.6.3-8.9-9.5-8.4-.6-4.5-5.3 6.2-9.7 9.5-14.5.4-3.7-2.9-.5.6-32.5 8.3-10.3h0c-7.6.5-11.4 1.6-17.2.6-.3-.2-5.4.1-6.1.3-2.1.5-3.8-.1-5.9-.1-1.4 0-2.2.8-3.7.4-1.7-.4-2.3.1-3.9.5s-3.1-.6-4.7-.6l-6 9c0 .5-.5 2.5-.7 3-.4.7-2.1 2.8-1 3.5 0 1.5-.1 1.8-.6 3.3-.3.9-.7 3.5.4 4 .1.7.5 1.2.5 2.1-.1.8-.2 1.5-.1 2.4.1 1.7.5 3.8.8 5.5.7 4.1-.9 5.6-3.3 8.3-.5.5-1.5.8-1.9 1.4-.1 0-.2.1-.3.2-.3 1.4.5 3.8.8 5.2.5 1.9.6 4.4.2 6.3-.1.7-.3.5-.7 1-.5.1-1.2.6-1.7.6s-1.1-.3-1.6-.5c-1.2-.6-1.8-1.7-3.2-1.3l-1.3 1.1-2.9-2.2-.8 1h0l8.7 14.1c.5.9.9 1.2.6 2.1-.3.1-.5.3-.8.3 0 .1 0 .1-.2.1-.1.2-.4.4-.5.7-1.4.3-.9 7.3-.9 8.6 0 3.6-.7 6.2-1.3 9.5l-2 3c-1 .2-4.6 1.5-5.4 2.1-1 .7-3.1 4-3.7 4.1 0 .2-.1.2-.2.3-.3.1-.6.5-.7.8-1.6.2-5.1 4.2-7.7 4.8 0 .1-.1.1-.3.2-.1.2-.3.2-.3.4-1.4.5-3.4 6.5-3 6.6 0 .5.3.9.3 1.4l.2.1v.2c.1 0 .1.1.3.2.1.2.7.5.9.5.6 1.8 4.9-1.3 5.4-1.4.1-.4.4-.4.5-.7 1.6-.4 1.5-1.7 3.6-1.2l.1 3.5c-.1 0-.1 0-.1.2-.1 0-.1 0-.1.2l-.1.1c-.2 0-.2.1-.3.3-2.3.8-2.5 9.7-2.5 12.1 0 1.6 0 2.4.3 3.8.2.1.5.6.5.8.1 0 .1.1.3.2 0 .1.1.1.2.3l.1.1c.8.2 1.8 1.1 2.5 1.4l.3 5.1c.1 0 .1.1.1.3.1 0 .1 0 .1.2.1 0 .1.1.1.3.1 0 .3.4.3.5.1 0 .3.2.3.3.3.1 1.5.6 1.6.8.1 0 .3.2.3.4.6.2 0 1.6-.1 1.9-2 .5-3.5 1.4-5.8 1.4l-.1-.2c0 1.1 1.2 1.9 1.2 2.9.3.1-.1.8-.1.9l-.1.1c-.2 0-.1 0-.2.2h-.2c-.1.3-.7.4-.8.7-.1 0-.1.1-.3.1a3.08 3.08 0 0 0 0 1.9l.1.1 1.9.6c0 .1.1.1.3.2.3.9.5 1.6.5 2.7-.6.1-1.4.5-2.1.7-.3 1.1-.3 2.3-.3 3.5l.1.1c.2 0 .2.1.3.3.2 0 .6.2.7.4.3.1.6.5.8.6 0 .1.1.1.2.2 0 .2.1.4.3.4 0 .2 0 .2.2.3 0 .4 1.8 3.2 2.1 3.4.5 2.5 4.5 4.9 4.5 7.6.1 0 .2.2.2.3.1 0 .1 0 .1.2.1 0 .1.1.2.2h.2c0 .1 0 .1.2.1 0 0 .3-.3.4-.3v-.4c.2-.1.6-.7.7-.9 1.3-.3 4.2-5 5.6-6.2 1-.8 5.4-3 6.7-3.2 1.4-2.8 5.3-2.6 6.6-.1.6 1.3 1.3 5.7 1.3 7.2.1 0 .2.3.3.4l.1.1c.3.1.4.3.7.3 0 .1 1.4.6 1.6.7.1.5.9.9.9 1.4s.3 2 .9 2.2c.1.4 1 .8 1.3 1.3s.7.7.8 1.2c.8 2 .6 4 1.2 6.1.3.9.5 1.8.8 2.8.3 1.1 1 2.3 1.2 3.5l2 5.2h0 0z" fill="#fffacd"/><path d="M440.3 104.2l-8.3 10.3-.6 32.5 2.9.5-.4 3.7-9.5 14.5-6.2 9.7 4.5 5.3 8.4.6 8.9 9.5 4.6-.3.2-3 1.5-2.2 3-1.4 4-.3 5.4-4 .8 6.6 2.5 3.2.2 2.8 15.9-4.6c.2 1.8-.6 2.7-.6 4.3 0 0 .5.6.5.8 1.5.3 4.7.8 6 .8 0 .1.1.1.1.3 3.9 1-2.2 6.7-3.8 7-.4.7-4.5 6.2-5.1 6.3-.2.6-4.8-.9-5.6-.9l-6.5-.5-.1.2c-.5 0-3.9 2.6-4 3-.2 0-.3 0-.3.2-.2 0-.5.1-.5.3-.3 0-.5.3-.8.3-.3.9-5.4-1.3-6.1-1.3-.1-.3-.4 0-.5.1-.6 2.4-1.3 5.6-3 7.5-3.7 4.1-4 4.6-4 10.2 0 1.9-.9 4 .7 5.2.8.6 3.5 3.3 3.7 4.1 1.6.4 3.3 4 5.1 4.5 0 .2.3.3.4.3.3 1.3 1.2 1.9 1.2 3.5-.8 9.2 8.5 12.1 15.9 12.1l.1.1c.4 1.5.6 2.5 1.3 3.9.9 0 1.8.2 2.8.2 0 .1.4.2.5.3 0 2.4-2.1 4.2-2.4 6-.4.1-2.7 4.3-3.4 5-.9.9-4.5 3.1-4.6 3.3-.5.1-1.5 2.4-1.9 3-.4.5-2.4 2.4-2.4 2.7-1.4.3-1.9 2.1-3 2.4-.7 2.7-13.2 3.9-13.7 5.8-.2 0-.3.1-.3.3-.2 0-.3.2-.3.3-.3.1-.3.3-.6.3-.3 1.2-4.5 2.3-4.9 4.1-.3.1-.4.4-.7.5 0 .1-.6.7-.8.8 0 .1-.3.2-.3.4-.4.1 0 0-.3.1-.3 1-.3.9-.3 2 .4.1 1.1 2.7 1.3 3.2l3 4.2h0l4-1.7c1.7-.6 2.9-1.5 4.6-1.9 1.3-.3 3.1-.3 4.5-.3 3.2 0 5.3-1.2 7.6-3.2.6-.6 3.8-2 4.5-1.1h.3c.1.2.7.4.8.8.2.1.2.1.2.3.6.3 1 4.3 1.2 5.2.3 1.6 1 3.1 1.3 4.6l.2.1.1.2c.2 0 .4 0 .5-.2.2 0 .7-.3.8-.5l.9-.3c1-.4 2.7-1.4 3.2-2.4 1.6-.3 3.5-2.6 5.6-3l8.9-1.5 20.5-3.7c11.2-2 22-3.5 32.9-.9l6 2h0c.3-1.4 1.3-2.4 2-3.8.5-1.1.4-2.1.6-3.3.9-2.1 1.2-3.6 1.2-5.8 0-1.3-.1-3.5.5-4.6 1.5-2.8 4.9-3.9 6.5-6.6 1.1-1.9.9-5.6 2.7-6.8 1.2-.9 1.6-.2 2.4.1 0 .5-.6 2.2-.5 2.5.4 1 1 1.8 1.4 2.8l10.2-1.4 20.5-2.5 2.2 4.2 3.2-3.1-2.5-4.3c-.6-1.3-1.5-2.4-2.2-3.6-.6-1.1-1.7-2.3-2.1-3.5-.8-2.6-2.1-5-2.9-7.5s1.9-.5 2.5-2.2c.2-.6.1-1.7.9-1.9v.1c2.9-4.4 1.1-6.1 0-10.5-.5-2 .7-9.8-2.3-10.1-2.3-2.3-5.7-3.7-2.5-7.4 1.5-2.3 4.4-3.3 6.6-4.7 2-1.2 2.5-3.8 4.1-4.9 1.2-.8 2.5-1.2 3.8-1.7s.6-3.2.8-4.1c.8-.2 1.5-.9 2.1-1.3.4.3 2.8 1.6 2.9 2l4.9-4.4c2.5-2.3 2.1-1.5 1.1-4.2-.4-1.2.1-2.7-.4-3.9.2-.4.1-.8.1-1.3.1 0 .1-.1.2-.1.1-.6 5.7-2.2 5.2-4.1-1.8-.5-5-1.7-6.7-2.8-2.6-1.6-5-1.6-7.9-1.6-2.1 0-4.4-.6-6.4-.2-2.5.6-4.2.4-5.7-2-1.2-.1-2.2-.7-3.6-.7-1.5 0-1.3-.3-.5-1.5 1.1-1.7 2.3-2.8 3.4-4.4 1-1.6 5.6-9.8 3.2-11.2 0-.2-.1-.2-.4-.5l-.8-3.9c-.3-1.5-1.4-2-1-3.4 1-.6.9-2.3.2-3-.8-.9-2.5-.4-3.5-.8-.8-.4-1.1-.9-2.1-1-5.7-.3-2.2-4-3.7-6.9-.4-.8-3-5.8-3.4-5.7l-3.9.2c-1.4.1-3.6 1-4.1-1.1-.4-.3-1.2-1.3-1.6-1.8-1-1.4.2-2.1.4-3.5.2-1.1-.6-2.5-1.4-3.2-1.5-1.3-3.8 3.7-6.2 1.6-.5-.5-2.4-2.8-2.4-3.4-.8-.5-1.5-1.3-2.4-1.9s-1.6-1.7-2.4-2.2c-3.8-2.1 1.9 4.9-1.2 4.4-1.6-.3-2.5-1.5-2.7-3.2-.1-.9.5-1.4.5-2.2 0-.7-.4-2.2-.6-3s.1-3-1.3-2.2c-.2 1.1-.5 1.8-1.4 2.5v-.1c-.1 0-.7-.3-.7-.4-.8 0-1.9-1.5-3.3-1.6-1.8-.1-2.5-.9-4-1.4-.9-.3-1.9.3-2.4.1-.1.1-.2.1-.4.1-.3-1.2-.2-2.5-.5-3.7-.2-.9-1.1-2.5-1.1-3.2.6-.1 1.6.1 2.3.1.4 0 1.1-.5 1.4-.2 1.5 1.4 1.6 1.5 3.3.4 3-1.9 6.2-4.4 6.2-8.2.1-1.6-.5-1.5.1-2.9.9-.2 1.7-1.2 1.7-2.2 0-1.3 1.2-1.8 2.2-2.3 2.4-1.2.9-4.5 1.3-6.8l1.3-7.9c.5-3 1-5.4-1.9-7.1-1.5-3.7-.7-3.9 2.6-5.5 1.2-.6 8.5-4.4 7.9-5.5-.3-.5-2.9-3.4-1.5-3.7 0-.1 1.8-.2 2.2-.3l2.3-.7c1.1-.3 2.5-2.7 3.1-1.1.5 1.2 1 2.8 1.9 3.7 1.4 1.3 3.2 2.3 5.2 1.9l7.4-16.7c1.3-3.5 2.7-5.8 2.7-9.7 0-2.8 1.1-6.5 1.7-9.2.6-2.2-1.7-1.9-3.1-1.5-2.5.8-3.2-1.1-4.9-2.3-1-.7-1.9-.8-3-1.2-1.4-.5-3-1.6-4-2.5-.9-.7-1.7-3.8-2.7-4.1-.1-.3-1.4-.9-1.7-1.1-2.9-2.9-6.3-3.9-10-2.9-.1.2-.6.7-.7.8-.1.4-1.1 2.8-1.3 3.2-.6.9-.4 2.9-.4 4.1 0 3-2.7 3.1-4.9 4.7-4.8 3.6-11.7 3.9-13.4 10.8-.1 0-.1 0-.1.1-.8.2-1.7-.2-2.6 0-.4-.2-1.1-.3-1.6-.3-1 1-2.7 2.2-3.4 3.1-2.2.3-5.3 3.8-7 5.4-2.3 2.2-3.4 4.3-5 7.1-.8 1.4-1.9 4.3-2.8 5.3-3 0-1.9-2.1-3.7-3.7-3.4-2.9-2.1 1.4-4.7 2.2-.7.2-4-.4-4.8-.7-1-1-4.1-.8-5.5-1.5-.1-.5-.5-1.8-.8-2.2-.6-.8-.4-.5-1.4-.5-1.9 0-2.2-.3-3.3-1.9-2-3.2-8.1-2.2-11.5-3.3-1-.3-1.9-.8-3-.7l-5.7 12.4c-2 1-1.7 3.2-4.3 1.9-2.5-1.2-.9 1.7-2.4 2.2v.3c.6.1 1.4 1.1 2 1.4.7.3 1.5 0 .8 1.1-.6 1-3.5 3.4-3.5 4.3 1.6.4 3.3 1.8 5.2 2.3.7.2 4.4 1.3 4.6 1.8.2 0 .3.1.4.2 0 2.2-4.2 4.5-2.4 7.1.7 1.1-.5.7-1.3 1-1.6.6-1.6 1-2.8 2.2-1.3 1.3-.6 3.3-2.7 3.8 0 .1-.1.2-.1.2l-.3.7c-.1.8-1.6 1-1.6 2.5 0 .8 0 2.6-.3 3.3s-1.2.6-1.2 1.5c0 1.1 0 2.4-.9 3-.8.5-2.4 1.2-3.3 1.2-.2.3-.2 3.7-.1 3.9l5.1.3c.3 1.4-.6 2.1-.5 3.2.1 1.2 1.1 3.3 1.7 4.4.4.8 1.3 1.7 1.3 2.5-1.6.4-2.8 1.1-4.7 1.2-2.3.1-3.9 1-6 1.4l-6.6 1.3-8.3-7.6c-1.3 0-2.5.1-3.6.1h0 0z" fill="#e8f0d8"/></g><path d="M502.1 178.3h65.3c2.3 0 4.2 1.3 4.2 2.9v7.9c0 1.6-1.9 2.9-4.2 2.9h-65.3c-2.3 0-4.2-1.3-4.2-2.9v-7.9c0-1.6 1.9-2.9 4.2-2.9h0zm-123.6 34.3h59c2.1 0 3.8 2.6 3.8 5.7V234c0 3.1-1.7 5.7-3.8 5.7h-59c-2.1 0-3.8-2.6-3.8-5.7v-15.7c0-3.2 1.7-5.7 3.8-5.7zm-89.5 3.8h64.2c2.3 0 4.1 1.3 4.1 2.9v7.9c0 1.6-1.8 2.9-4.1 2.9H289c-2.3 0-4.1-1.3-4.1-2.9v-7.9c0-1.6 1.9-2.9 4.1-2.9zm-51.6 68.1h44c1.5 0 2.8 1.3 2.8 2.9v7.9c0 1.6-1.3 2.9-2.8 2.9h-44c-1.5 0-2.8-1.3-2.8-2.9v-7.9c0-1.7 1.2-2.9 2.8-2.9zm196.9 43.8h87c3.1 0 5.6 1.3 5.6 2.9v7.9c0 1.6-2.5 2.9-5.6 2.9h-87c-3.1 0-5.6-1.3-5.6-2.9v-7.9c.1-1.6 2.6-2.9 5.6-2.9zM277.6 447.6h53.1c1.9 0 3.4 1.3 3.4 2.9v7.9c0 1.6-1.5 2.9-3.4 2.9h-53.1c-1.9 0-3.4-1.3-3.4-2.9v-7.9c0-1.6 1.6-2.9 3.4-2.9h0zm269.1 25h64.6c2.3 0 4.1 1.3 4.1 2.9v7.9c0 1.6-1.9 2.9-4.1 2.9h-64.6c-2.3 0-4.1-1.3-4.1-2.9v-7.9c0-1.7 1.9-2.9 4.1-2.9z" fill-opacity=".702" fill="#fefefe"/></g><g fill="#006"><path d="M440.8 338.6h-1.7v-4.1h-3.6v4.1h-1.7v-9.4h1.7v3.9h3.6v-3.9h1.7v9.4zm7.9 0h-1.5c-.1-.4-.2-.9-.2-1.4-.4 1-1.2 1.5-2.4 1.6a2.52 2.52 0 0 1-1.7-.6c-.4-.4-.6-.9-.6-1.5 0-1.6 1.4-2.4 4.2-2.4h.4v-.5c0-.7-.5-1.1-1.5-1.1s-1.5.4-1.6 1.1l-1.3-.2c.1-.6.4-1.1.9-1.4.5-.4 1.3-.6 2.3-.6.5 0 1 0 1.3.1s.6.2.9.5c.2.2.4.4.5.7.1.2.1.7.1 1.3v3.1c0 .4 0 .9.2 1.3zm-1.8-3.5c-2 0-3 .5-3 1.5 0 .3.1.5.3.7s.5.3.9.3c.6 0 1-.2 1.4-.6.3-.4.5-.8.5-1.3v-.6h-.1z"/><use xlink:href="#B"/><path d="M463.3 338.6h-.7v-9.4h1.6v3.4c.3-.5.6-.9.9-1 .3-.2.6-.2 1-.2.8 0 1.4.3 1.9 1 .5.6.8 1.5.8 2.7 0 1-.2 1.9-.7 2.7-.5.7-1.2 1.1-2.1 1.1s-1.6-.4-2.2-1.3l-.5 1h0zm.9-2.9c0 .6.1 1.1.4 1.4s.6.4 1 .4.8-.2 1-.5c.3-.3.4-1 .4-2 0-.7-.1-1.3-.4-1.7s-.6-.6-1.1-.6c-.4 0-.8.2-1.1.5s-.4.8-.4 1.4l.2 1.1h0zm11.7 2.9h-1.5v-1.5c-.4 1.1-1.1 1.6-2.2 1.6-.6 0-1.1-.2-1.5-.6s-.6-.9-.6-1.6v-4.9h1.6v4.5c0 .5.1.8.3 1s.4.2.6.2c.3 0 .7-.2 1-.5.4-.3.5-1 .5-2v-3.3h1.6v7.1h.2z"/><use xlink:href="#C"/><path d="M488.8 330.3v1.2h-.5c-.2 0-.4 0-.6.1s-.3.2-.5.5c.5.5.8 1 .8 1.5 0 .6-.3 1.1-.8 1.5s-1.2.6-2 .6c-.4 0-.8-.1-1.3-.2-.3.1-.5.4-.5.7 0 .2.1.3.2.5.2.1.4.2.7.2h2.1c.7 0 1.3.2 1.7.5s.6.8.6 1.4c0 .7-.3 1.2-.9 1.6s-1.5.6-2.7.6c-2.2 0-3.4-.6-3.4-1.9 0-.6.3-1.1 1-1.4-.4-.4-.6-.7-.6-1.1 0-.6.4-1.1 1.1-1.4-.6-.4-1-.9-1-1.6 0-.6.2-1.1.7-1.5s1.2-.6 2.2-.6c.4 0 .9 0 1.3.1.2-.9.8-1.3 1.7-1.3h.7 0zm-3.5 4.5c.9 0 1.3-.4 1.3-1.2 0-.3-.1-.6-.3-.8s-.5-.3-.9-.3a1.69 1.69 0 0 0-1 .3c-.2.2-.3.5-.3.8s.1.6.3.8c.2.3.5.4.9.4zm-1.7 3.5c-.2.2-.3.4-.3.6 0 .3.2.6.6.8s1 .4 1.8.4c1.2 0 1.8-.3 1.8-.9a.55.55 0 0 0-.3-.5c-.2-.1-.5-.2-.7-.2h-1.7c-.4-.1-.8-.1-1.2-.2h0zm8.7-3.9v1.3h-3.5v-1.3h3.5zm10.2 4.2h-1.7v-8.2l-2.6 8.2h-.9l-2.6-8.2v8.2h-1.4v-9.4h2.6l2 6.1 1.9-6.1h2.7v9.4h0zm3.6-7.7h-1.6v-1.6h1.6v1.6zm0 7.7h-1.6v-7h1.6v7z"/><use xlink:href="#D"/><use xlink:href="#D" x="4.5"/><path d="M521.3 336.4l1.4.2c-.2.6-.5 1.1-1.1 1.6-.5.4-1.2.6-2 .6-1 0-1.7-.3-2.3-1-.6-.6-.9-1.5-.9-2.6s.3-1.9.9-2.6 1.4-1 2.4-1 1.8.3 2.3 1 .8 1.6.8 2.6v.2H518c0 .5 0 .9.1 1.1.1.3.3.5.5.7a1.69 1.69 0 0 0 1 .3c.9 0 1.4-.3 1.7-1.1h0zm-.1-2.1c0-.5-.2-.9-.5-1.2s-.7-.5-1.1-.5-.8.1-1.1.4-.5.7-.5 1.3h3.2zm-274-38.7h-1.8l-.8-2.2H241l-.7 2.2h-1.4l3.1-9.4h2.1l3.1 9.4h0zm-3.1-3.6l-1.4-4.2-1.4 4.2h2.8zm5.7 3.6h-1.6v-9.4h1.6v9.4zm5.1-1.3v1.2c-.5.1-.8.2-1.1.2-.4 0-.8-.1-1.1-.3s-.5-.4-.7-.7c-.1-.3-.2-.7-.2-1.3v-3.6h-.8v-1.2h1l.1-1.8 1.3-.1v1.9h1.4v1.2h-1.4v3.4c0 .4.1.7.2.9.2.2.5.2.9.2h.4 0zm3.8 1.4a3.04 3.04 0 0 1-2.4-1.1c-.5-.7-.8-1.6-.8-2.5 0-1 .3-1.9.9-2.6s1.4-1 2.4-1c.9 0 1.7.3 2.3 1s.9 1.5.9 2.6-.3 2-.9 2.6c-.7.7-1.5 1-2.4 1zm0-1.3c1.1 0 1.6-.8 1.6-2.4 0-.7-.1-1.3-.4-1.7s-.6-.6-1.2-.6c-.5 0-.9.2-1.2.6s-.4 1-.4 1.7c0 .8.1 1.3.4 1.7.4.5.7.7 1.2.7h0zm10.5 1.2h-1.6v-4.3c0-.5-.1-.8-.3-1s-.5-.3-.8-.3c-.4 0-.8.2-1.1.5-.3.4-.5.9-.5 1.6v3.6h-1.6v-7h1.4v1.6c.5-1.2 1.2-1.8 2.1-1.8.6 0 1.1.2 1.6.6.4.4.7 1.1.7 2l.1 4.5h0zm7.8 0h-1.5c-.1-.4-.2-.9-.2-1.4-.4 1-1.2 1.5-2.4 1.6a2.52 2.52 0 0 1-1.7-.6c-.4-.4-.6-.9-.6-1.5 0-1.6 1.4-2.4 4.2-2.4h.4v-.5c0-.7-.5-1.1-1.5-1.1s-1.5.4-1.6 1.1l-1.3-.2c.1-.6.4-1.1.9-1.4.5-.4 1.3-.6 2.3-.6.5 0 1 0 1.3.1s.6.2.9.5c.2.2.4.4.5.7.1.2.1.7.1 1.3v3.1c0 .3 0 .8.2 1.3zm-1.8-3.6c-2 0-3 .5-3 1.5 0 .3.1.5.3.7s.5.3.9.3c.6 0 1-.2 1.4-.6.3-.4.5-.8.5-1.3v-.6h-.1zm20.3-64.7h-6.1v-9.4h6v1.4H291v2.5h3.5v1.4H291v2.6h4.4v1.5h.1zm2.9-7.8h-1.6v-1.6h1.6v1.6zm0 7.8h-1.6v-7h1.6v7zm12.3 0h-1.6V223c0-.9-.4-1.3-1.2-1.3-.5 0-.8.2-1.1.5s-.4.8-.4 1.5v3.7h-1.7V223c0-.9-.4-1.4-1.1-1.4-.5 0-.8.2-1.1.6s-.5.9-.5 1.5v3.7h-1.6v-7h1.5v1.5c.5-1.1 1.3-1.6 2.3-1.6s1.7.5 2 1.6c.6-1.1 1.3-1.6 2.3-1.6.7 0 1.2.2 1.6.6s.6.9.6 1.6v4.8h0zm1.1-1.6l1.5-.3c.2.6.7.8 1.5.8 1 0 1.5-.3 1.5-.9 0-.2-.1-.3-.2-.5-.2-.1-.3-.2-.5-.2l-1.3-.2c-1.4-.3-2.1-1-2.1-2.1 0-.6.2-1.1.7-1.6.4-.4 1.1-.6 2-.6 1.5 0 2.4.5 2.7 1.6l-1.4.3c-.1-.5-.6-.8-1.3-.8-.8 0-1.3.3-1.3.8 0 .4.3.6 1 .7l1.5.3c1.2.2 1.7.9 1.7 2 0 .8-.3 1.3-.9 1.7s-1.3.6-2.1.6c-.7 0-1.3-.1-1.9-.4-.6-.2-1-.6-1.1-1.2h0zm7.9 1.6h-.7v-9.4h1.6v3.4c.3-.5.6-.9.9-1 .3-.2.6-.2 1-.2.8 0 1.4.3 1.9 1 .5.6.8 1.5.8 2.7 0 1-.2 1.9-.7 2.7-.5.7-1.2 1.1-2.1 1.1s-1.6-.4-2.2-1.3l-.5 1h0zm.9-3c0 .6.1 1.1.4 1.4s.6.4 1 .4.8-.2 1-.5c.3-.3.4-1 .4-2 0-.7-.1-1.3-.4-1.7s-.6-.6-1.1-.6c-.4 0-.8.2-1.1.5s-.4.8-.4 1.4l.2 1.1h0zm11.7 3h-1.5v-1.5c-.4 1.1-1.1 1.6-2.2 1.6-.6 0-1.1-.2-1.5-.6s-.6-.9-.6-1.6v-4.9h1.6v4.5c0 .5.1.8.3 1s.4.2.6.2c.3 0 .7-.2 1-.5.4-.3.5-1 .5-2v-3.3h1.6v7.1h.2zm-4-8.2c-.2 0-.4-.1-.5-.2s-.2-.3-.2-.5.1-.4.2-.5c.1-.2.3-.2.6-.2.2 0 .4.1.5.2.2.1.2.3.2.6 0 .2-.1.4-.2.5-.2.1-.4.1-.6.1h0zm2.3 0c-.2 0-.4-.1-.6-.2-.1-.1-.2-.3-.2-.5s.1-.4.2-.5c.1-.2.3-.2.6-.2.2 0 .4.1.5.2.2.1.2.3.2.6 0 .2-.1.4-.2.5s-.3.1-.5.1h0z"/><use xlink:href="#D" x="-173.8" y="-111.3"/><use xlink:href="#D" x="-169.2" y="-111.3"/><path d="M347.5 225.1l1.4.2c-.2.6-.5 1.1-1.1 1.6-.5.4-1.2.6-2 .6-1 0-1.7-.3-2.3-1-.6-.6-.9-1.5-.9-2.6s.3-1.9.9-2.6 1.4-1 2.4-1 1.8.3 2.3 1 .8 1.6.8 2.6v.2h-4.8c0 .5 0 .9.1 1.1.1.3.3.5.5.7a1.69 1.69 0 0 0 1 .3c.9 0 1.5-.4 1.7-1.1h0zm-.1-2.1c0-.5-.2-.9-.5-1.2s-.7-.5-1.1-.5-.8.1-1.1.4-.5.7-.5 1.3h3.2zm4.7 4.3h-1.6v-9.4h1.6v9.4zm35.4-3.2h-1.7V220h-3.6v4.1h-1.7v-9.4h1.7v3.9h3.6v-3.9h1.7v9.4zm7.9 0h-1.5c-.1-.4-.2-.9-.2-1.4-.4 1-1.2 1.5-2.4 1.6a2.52 2.52 0 0 1-1.7-.6c-.4-.4-.6-.9-.6-1.5 0-1.6 1.4-2.4 4.2-2.4h.4v-.5c0-.7-.5-1.1-1.5-1.1s-1.5.4-1.6 1.1l-1.3-.2c.1-.6.4-1.1.9-1.4.5-.4 1.3-.6 2.3-.6.5 0 1 0 1.3.1s.6.2.9.5c.2.2.4.4.5.7.1.2.1.7.1 1.3v3.1c0 .3.1.8.2 1.3zm-1.7-3.5c-2 0-3 .5-3 1.5 0 .3.1.5.3.7s.5.3.9.3c.6 0 1-.2 1.4-.6.3-.4.5-.8.5-1.3v-.6h-.1z"/><use xlink:href="#B" x="-53.2" y="-114.5"/><use xlink:href="#E"/><path d="M422.7 224.1h-1.5v-1.5c-.4 1.1-1.1 1.6-2.2 1.6-.6 0-1.1-.2-1.5-.6s-.6-.9-.6-1.6v-4.9h1.6v4.5c0 .5.1.8.3 1s.4.2.6.2c.3 0 .7-.2 1-.5.4-.3.5-1 .5-2V217h1.6v7.1h.2z"/><use xlink:href="#C" x="-53.2" y="-114.5"/><path d="M435.6 215.8v1.2h-.5c-.2 0-.4 0-.6.1s-.3.2-.5.5c.5.5.8 1 .8 1.5 0 .6-.3 1.1-.8 1.5s-1.2.6-2 .6c-.4 0-.8-.1-1.3-.2-.3.1-.5.4-.5.7 0 .2.1.3.2.5.2.1.4.2.7.2h2.1c.7 0 1.3.2 1.7.5.4.4.6.8.6 1.4 0 .7-.3 1.2-.9 1.6s-1.5.6-2.7.6c-2.2 0-3.4-.6-3.4-1.9 0-.6.3-1.1 1-1.4-.4-.4-.6-.7-.6-1.1 0-.6.4-1.1 1.1-1.4-.6-.4-1-.9-1-1.6 0-.6.2-1.1.7-1.5s1.2-.6 2.2-.6c.4 0 .9 0 1.3.1.2-.9.8-1.3 1.7-1.3h.7 0zm-3.6 4.5c.9 0 1.3-.4 1.3-1.2 0-.3-.1-.6-.3-.8s-.5-.3-.9-.3a1.69 1.69 0 0 0-1 .3c-.2.2-.3.5-.3.8s.1.6.3.8c.2.3.5.4.9.4zm-1.7 3.4c-.2.2-.3.4-.3.6 0 .3.2.6.6.8s1 .4 1.8.4c1.2 0 1.8-.3 1.8-.9a.55.55 0 0 0-.3-.5c-.2-.1-.5-.2-.7-.2h-1.7c-.4 0-.8-.1-1.2-.2h0zm8.7-3.8v1.3h-3.5v-1.3h3.5zM387.6 237H386l-3.6-6c-.1-.1-.1-.2-.3-.4-.1-.1-.1-.2-.3-.4v6.9h-1.4v-9.4h1.9l3.3 5.5a10.39 10.39 0 0 0 .6 1v-6.5h1.3l.1 9.3h0z"/><use xlink:href="#F"/><path d="M398.6 237H397v-7h1.4v1.7c.2-.6.5-1.1.8-1.4.4-.3.7-.4 1.1-.4h.2v1.7c-.8 0-1.3.3-1.6.8s-.4 1-.4 1.5v3.1h.1zm8.9 0H406v-1.4c-.4 1-1.1 1.5-2.1 1.6-.9 0-1.5-.4-2-1.1s-.7-1.6-.7-2.7c0-1 .2-1.8.7-2.6.5-.7 1.1-1.1 2-1.1s1.5.4 1.9 1.2v-3.4h1.6v9.5zm-1.6-4.1c0-.6-.1-1-.4-1.3s-.6-.5-1-.5c-.5 0-.8.2-1.1.6s-.4 1-.4 1.8c0 1.6.5 2.3 1.5 2.3.4 0 .7-.2 1-.5s.4-.8.4-1.3v-1.1h0zm108.8-53.4l-2.5 9.4h-1.8l-1.9-6.9-1.7 6.9h-1.7l-2.6-9.4h1.8l1.8 6.9 1.7-6.9h1.7l1.9 6.9 1.8-6.9h1.5 0zm6.7 9.4h-1.5c-.1-.4-.2-.9-.2-1.4-.4 1-1.2 1.5-2.4 1.6a2.52 2.52 0 0 1-1.7-.6c-.4-.4-.6-.9-.6-1.5 0-1.6 1.4-2.4 4.2-2.4h.4v-.6c0-.7-.5-1.1-1.5-1.1s-1.5.4-1.6 1.1l-1.3-.2c.1-.6.4-1.1.9-1.4.5-.4 1.3-.6 2.3-.6.5 0 1 0 1.3.1s.6.2.9.5c.2.2.4.4.5.7.1.2.1.7.1 1.3v3.1c-.1.4 0 .9.2 1.4h0zm-1.8-3.5c-2 0-3 .5-3 1.5 0 .3.1.5.3.7s.5.3.9.3c.6 0 1-.2 1.4-.6.3-.4.5-.8.5-1.3v-.6h-.1zm9.2 3.5h-1.6v-4.3c0-.5-.1-.8-.3-1s-.5-.3-.8-.3c-.4 0-.8.2-1.1.5-.3.4-.5.9-.5 1.6v3.6H523v-7h1.4v1.6c.5-1.2 1.2-1.8 2.1-1.8.6 0 1.1.2 1.6.6.4.4.7 1.1.7 2v4.5h0zm7.6 0h-1.5v-1.4c-.4 1-1.1 1.5-2.1 1.6-.9 0-1.5-.4-2-1.1s-.7-1.6-.7-2.7c0-1 .2-1.8.7-2.6.5-.7 1.1-1.1 2-1.1s1.5.4 1.9 1.2v-3.4h1.6v9.5h.1zm-1.6-4.1c0-.6-.1-1-.4-1.3s-.6-.5-1-.5c-.5 0-.8.2-1.1.6s-.4 1-.4 1.8c0 1.6.5 2.3 1.5 2.3.4 0 .7-.2 1-.5s.4-.8.4-1.3v-1.1h0zm2.6 2.5l1.5-.3c.2.6.7.8 1.5.8 1 0 1.5-.3 1.5-.9 0-.2-.1-.3-.2-.5-.2-.1-.3-.2-.5-.2l-1.3-.2c-1.4-.3-2.1-1-2.1-2.1 0-.6.2-1.1.7-1.6.4-.4 1.1-.6 2-.6 1.5 0 2.4.5 2.7 1.6l-1.4.3c-.1-.5-.6-.8-1.3-.8-.8 0-1.3.3-1.3.8 0 .4.3.6 1 .7l1.5.3c1.2.2 1.7.9 1.7 2 0 .8-.3 1.3-.9 1.7s-1.3.6-2.1.6c-.7 0-1.3-.1-1.9-.4-.6-.2-.9-.6-1.1-1.2h0z"/><use xlink:href="#E" x="135.3" y="-35.2"/><path d="M556.7 186.7l1.4.2c-.2.6-.5 1.1-1.1 1.6-.5.4-1.2.6-2 .6-1 0-1.7-.3-2.3-1-.6-.6-.9-1.5-.9-2.6s.3-1.9.9-2.6 1.4-1 2.4-1 1.8.3 2.3 1 .8 1.6.8 2.6v.2h-4.8c0 .5 0 .9.1 1.1.1.3.3.5.5.7a1.69 1.69 0 0 0 1 .3c.9 0 1.4-.4 1.7-1.1h0zm-.1-2.1c0-.5-.2-.9-.5-1.2s-.7-.5-1.1-.5-.8.1-1.1.4-.5.7-.5 1.3h3.2 0zm9.5 4.3h-1.7l-1.8-3.6-1.5 1.7v1.8h-1.5v-9.4h1.5v5.8c.1-.2.2-.3.3-.4l2.8-3h1.7l-2.1 2.3 2.3 4.8h0zm-18 293.8v-9.4h3.7c.6 0 1.1.1 1.5.2s.8.4 1.1.8.4.9.4 1.4-.2 1-.5 1.4-.7.6-1.3.7c.7.1 1.2.4 1.5.8s.5.9.5 1.5c0 .7-.2 1.3-.7 1.8s-1.2.7-2.2.7h-4v.1zm1.6-5.4h2.1c.4 0 .8-.1 1-.4s.4-.6.4-1-.1-.7-.4-1a1.69 1.69 0 0 0-1-.3h-2v2.7zm0 4h2.2c.5 0 .8-.1 1.1-.4.3-.2.4-.6.4-1s-.1-.7-.4-1-.6-.4-1.1-.4h-2.2v2.8h0z"/><use xlink:href="#G"/><path d="M565.5 482.7H564v-7h1.4v1.7c.2-.6.5-1.1.8-1.4.4-.3.7-.4 1.1-.4h.2v1.7c-.8 0-1.3.3-1.6.8s-.4 1-.4 1.5v3.1h0zm9.5-8.2v1.2h-.5c-.2 0-.4 0-.6.1s-.3.2-.5.5c.5.5.8 1 .8 1.5 0 .6-.3 1.1-.8 1.5s-1.2.6-2 .6c-.4 0-.8-.1-1.3-.2-.3.1-.5.4-.5.7 0 .2.1.3.2.5.2.1.4.2.7.2h2.1c.7 0 1.3.2 1.7.5.4.4.6.8.6 1.4 0 .7-.3 1.2-.9 1.6s-1.5.6-2.7.6c-2.2 0-3.4-.6-3.4-1.9 0-.6.3-1.1 1-1.4-.4-.4-.6-.7-.6-1.1 0-.6.4-1.1 1.1-1.4-.6-.4-1-.9-1-1.6 0-.6.2-1.1.7-1.5s1.2-.6 2.2-.6c.4 0 .9 0 1.3.1.2-.9.8-1.3 1.7-1.3h.7 0zm-3.6 4.4c.9 0 1.3-.4 1.3-1.2 0-.3-.1-.6-.3-.8s-.5-.3-.9-.3a1.69 1.69 0 0 0-1 .3c-.2.2-.3.5-.3.8s.1.6.3.8c.2.3.5.4.9.4zm-1.7 3.5c-.2.2-.3.4-.3.6 0 .3.2.6.6.8s1 .4 1.8.4c1.2 0 1.8-.3 1.8-.9a.55.55 0 0 0-.3-.5c-.2-.1-.5-.2-.7-.2h-1.7c-.4-.1-.8-.1-1.2-.2h0z"/><use xlink:href="#G" x="19.4"/><path d="M589 482.7h-1.5v-1.4c-.4 1-1.1 1.5-2.1 1.6-.9 0-1.5-.4-2-1.1s-.7-1.6-.7-2.7c0-1 .2-1.8.7-2.6.5-.7 1.1-1.1 2-1.1s1.5.4 1.9 1.2v-3.4h1.6v9.5zm-1.5-4.1c0-.6-.1-1-.4-1.3s-.6-.5-1-.5c-.5 0-.8.2-1.1.6s-.4 1-.4 1.8c0 1.6.5 2.3 1.5 2.3.4 0 .7-.2 1-.5s.4-.8.4-1.3v-1.1h0z"/><use xlink:href="#F" x="201.3" y="245.7"/><use xlink:href="#C" x="120.6" y="144.1"/><path d="M605.1 482.7h-1.5V477h-1v-1.2h1v-.3c0-.7.2-1.2.5-1.6s1-.6 2-.6h.6v1.2h-.4c-.4 0-.7.1-.8.2-.2.1-.2.2-.3.4v.9h1.5v1.2h-1.5l-.1 5.5h0zm-318.5-24.6h-1.7V454h-3.6v4.1h-1.7v-9.4h1.7v3.9h3.6v-3.9h1.7v9.4zm8 0h-1.5c-.1-.4-.2-.9-.2-1.4-.4 1-1.2 1.5-2.4 1.6a2.52 2.52 0 0 1-1.7-.6c-.4-.4-.6-.9-.6-1.5 0-1.6 1.4-2.4 4.2-2.4h.4v-.5c0-.7-.5-1.1-1.5-1.1s-1.5.4-1.6 1.1l-1.3-.2c.1-.6.4-1.1.9-1.4.5-.4 1.3-.6 2.3-.6.5 0 1 0 1.3.1s.6.2.9.5c.2.2.4.4.5.7.1.2.1.7.1 1.3v3.1c-.1.3 0 .8.2 1.3zm-1.8-3.5c-2 0-3 .5-3 1.5 0 .3.1.5.3.7s.5.3.9.3c.6 0 1-.2 1.4-.6.3-.4.5-.8.5-1.3v-.6h-.1z"/><use xlink:href="#C" x="-181.6" y="119.5"/><path d="M301.6 458.1h-.7v-9.4h1.6v3.4c.3-.5.6-.9.9-1 .3-.2.6-.2 1-.2.8 0 1.4.3 1.9 1 .5.6.8 1.5.8 2.7 0 1-.2 1.9-.7 2.7-.5.7-1.2 1.1-2.1 1.1s-1.6-.4-2.2-1.3l-.5 1zm.9-3c0 .6.1 1.1.4 1.4s.6.4 1 .4.8-.2 1-.5c.3-.3.4-1 .4-2 0-.7-.1-1.3-.4-1.7s-.6-.6-1.1-.6c-.4 0-.8.2-1.1.5s-.4.8-.4 1.4v1.1h.2zm11.7 3h-1.5v-1.5c-.4 1.1-1.1 1.6-2.2 1.6-.6 0-1.1-.2-1.5-.6s-.6-.9-.6-1.6v-4.9h1.6v4.5c0 .5.1.8.3 1s.4.2.6.2c.3 0 .7-.2 1-.5.4-.3.5-1 .5-2V451h1.6l.2 7.1h0z"/><use xlink:href="#C" x="-161.7" y="119.5"/><path d="M327.1 449.8v1.2h-.5c-.2 0-.4 0-.6.1s-.3.2-.5.5c.5.5.8 1 .8 1.5 0 .6-.3 1.1-.8 1.5s-1.2.6-2 .6c-.4 0-.8-.1-1.3-.2-.3.1-.5.4-.5.7 0 .2.1.3.2.5.2.1.4.2.7.2h2.1c.7 0 1.3.2 1.7.5.4.4.6.8.6 1.4 0 .7-.3 1.2-.9 1.6s-1.5.6-2.7.6c-2.2 0-3.4-.6-3.4-1.9 0-.6.3-1.1 1-1.4-.4-.4-.6-.7-.6-1.1 0-.6.4-1.1 1.1-1.4-.6-.4-1-.9-1-1.6 0-.6.2-1.1.7-1.5s1.2-.6 2.2-.6c.4 0 .9 0 1.3.1.2-.9.8-1.3 1.7-1.3h.7 0zm-3.5 4.5c.9 0 1.3-.4 1.3-1.2 0-.3-.1-.6-.3-.8s-.5-.3-.9-.3a1.69 1.69 0 0 0-1 .3c-.2.2-.3.5-.3.8s.1.6.3.8c.1.3.5.4.9.4zm-1.8 3.4c-.2.2-.3.4-.3.6 0 .3.2.6.6.8s1 .4 1.8.4c1.2 0 1.8-.3 1.8-.9a.55.55 0 0 0-.3-.5c-.2-.1-.5-.2-.7-.2H323c-.4 0-.7-.1-1.2-.2h0z"/></g><defs ><path id="B" d="M460.7 338.6h-1.6v-4.3c0-.9-.4-1.3-1.2-1.3-.5 0-.8.2-1.1.5s-.4.8-.4 1.5v3.7h-1.7v-4.3c0-.9-.4-1.4-1.1-1.4-.5 0-.8.2-1.1.6s-.5.9-.5 1.5v3.7h-1.6v-7h1.5v1.5c.5-1.1 1.3-1.6 2.3-1.6s1.7.5 2 1.6c.6-1.1 1.3-1.6 2.3-1.6.7 0 1.2.2 1.6.6s.6.9.6 1.6v4.7h0z"/><path id="C" d="M479.4 338.6h-1.6v-7h1.4v1.7c.2-.6.5-1.1.8-1.4.4-.3.7-.4 1.1-.4h.2v1.7c-.8 0-1.3.3-1.6.8s-.4 1-.4 1.5v3.1h.1z"/><path id="D" d="M511.2 337.4v1.2c-.5.1-.8.2-1.1.2-.4 0-.8-.1-1.1-.3s-.5-.4-.7-.7c-.1-.3-.2-.7-.2-1.3v-3.6h-.9v-1.2h1l.1-1.8 1.3-.1v1.9h1.4v1.2h-1.4v3.4c0 .4.1.7.2.9.2.2.5.2.9.2h.5 0z"/><path id="E" d="M410.1 224.1h-.7v-9.4h1.6v3.4c.3-.5.6-.9.9-1 .3-.2.6-.2 1-.2.8 0 1.4.3 1.9 1 .5.6.8 1.5.8 2.7 0 1-.2 1.9-.7 2.7-.5.7-1.2 1.1-2.1 1.1s-1.6-.4-2.2-1.3l-.5 1h0zm.8-3c0 .6.1 1.1.4 1.4s.6.4 1 .4.8-.2 1-.5c.3-.3.4-1 .4-2 0-.7-.1-1.3-.4-1.7s-.6-.6-1.1-.6c-.4 0-.8.2-1.1.5s-.4.8-.4 1.4l.2 1.1h0z"/><path id="F" d="M392.3 237.2a3.04 3.04 0 0 1-2.4-1.1c-.5-.7-.8-1.6-.8-2.5 0-1 .3-1.9.9-2.6s1.4-1 2.4-1c.9 0 1.7.3 2.3 1s.9 1.5.9 2.6-.3 2-.9 2.6c-.6.7-1.4 1-2.4 1h0zm.1-1.3c1.1 0 1.6-.8 1.6-2.4 0-.7-.1-1.3-.4-1.7s-.6-.6-1.2-.6c-.5 0-.9.2-1.2.6s-.4 1-.4 1.7c0 .8.1 1.3.4 1.7.3.5.7.7 1.2.7h0z"/><path id="G" d="M561 480.5l1.4.2c-.2.6-.5 1.1-1.1 1.6-.5.4-1.2.6-2 .6-1 0-1.7-.3-2.3-1-.6-.6-.9-1.5-.9-2.6s.3-1.9.9-2.6 1.4-1 2.4-1 1.8.3 2.3 1 .8 1.6.8 2.6v.2h-4.8c0 .5 0 .9.1 1.1.1.3.3.5.5.7a1.69 1.69 0 0 0 1 .3c.9.1 1.4-.3 1.7-1.1h0zm-.1-2.1c0-.5-.2-.9-.5-1.2s-.7-.5-1.1-.5-.8.1-1.1.4-.5.7-.5 1.3h3.2z"/></defs></svg>