<svg xmlns="http://www.w3.org/2000/svg" viewBox="0 0 365 459" xmlns:v="https://vecta.io/nano"><path d="M263.7 380c3.3-.3 20.8-.6 21.7 2.7 1.4.6 2 3.2 3.8 4 2.7 1.2 6 1.4 8 4.2 1.5 2.1 4.9 7 7.5 7.7.2.4 1.4 1.1 1.9 1.2.2.5 1 .3 1.1.8 1.4 0 2.3.6 3.8.2 1.7-.5 2.9-1.6 4.2-1.9 2.2-4.4 6.5-9.4 8-14.2 1.6-4.9 4.3-6.4 8-9.4l6.3-4.2h0l-5.2-12.1c-.5-2.6-1.9-5.4-2.7-7.9-.7-2.1-1.1-4.3-1.7-6.3-1.3-4.7-.9-9.2-2.7-13.8-.4-1-1.3-1.7-1.9-2.7s-2.6-1.9-2.9-2.9c-1.5-.4-2-3.9-2.1-5 0-1.1-1.9-2-2.1-3.1-.4-.1-3.6-1.4-3.6-1.5-.7 0-.9-.6-1.5-.8l-.2-.2c-.1-.3-.4-.9-.6-1 0-3.4-1.4-13.4-2.9-16.3-2.9-5.8-11.8-6.1-14.9.2-3 .6-13 5.5-15.1 7.3-3.1 2.6-9.7 13.3-12.6 14-.1.5-1.1 2-1.5 2.1v.4c-.2 0-.9.7-1 .8-.4 0-.3.1-.4-.2h-.4c-.1-.2-.1-.3-.4-.4 0-.4.1-.3-.2-.4 0-.4-.1-.7-.4-.8 0-6.1-9-11.5-10.2-17.3-.7-.3-4.8-6.9-4.8-7.7-.3-.2-.3-.2-.4-.6-.3-.1-.6-.5-.6-1-.2-.1-.3-.1-.4-.4-.7-.2-1.2-1.2-1.9-1.3-.1-.5-1.2-.9-1.5-1-.1-.4-.2-.5-.6-.6l-.2-.2c0-2.9-.1-5.5.6-8.1 1.6-.4 3.5-1.2 4.8-1.5 0-2.5-.5-4.2-1.1-6.1-.3-.1-.5-.1-.6-.4l-4.4-1.3-.2-.2c-.4-1.7-.4-2.7 0-4.4.2-.1.3-.1.6-.2.2-.6 1.5-.9 1.7-1.5h.4c.1-.4 0-.3.4-.4l.2-.2c0-.4.9-1.9.2-2.1 0-2.2-2.7-3.9-2.7-6.5l.2-.2c5.3 0 8.7-1.9 13.2-3.1.2-.8 1.6-4 .2-4.4 0-.4-.3-.9-.6-1-.1-.6-3-1.8-3.6-1.9-.1-.3-.6-.7-.8-.8-.1-.3-.6-1.1-.8-1.2 0-.4.1-.5-.2-.6 0-.4.1-.3-.2-.4 0-.4.1-.5-.2-.6l-.6-11.5c-1.6-.5-3.9-2.6-5.7-3.1l-.2-.2c-.1-.4-.3-.3-.4-.6-.4-.1-.3-.3-.6-.4-.1-.4-.8-1.6-1.1-1.7-.8-3.2-.8-5-.8-8.6 0-5.4.5-25.7 5.7-27.5.1-.4.2-.5.6-.6l.2-.2c0-.4-.1-.3.2-.4 0-.4-.1-.3.2-.4l-.2-7.9c-4.9-1.2-4.6 1.8-8.2 2.7-.2.7-1 .7-1.2 1.5-1.1.2-10.9 7.4-12.3 3.3-.5-.1-2-.8-2.1-1.2-.4-.1-.3-.3-.6-.4v-.1c-.4-.1 0-.1-.4-.2 0-1.2-.8-2.1-.8-3.3-.9-.3 3.6-13.9 6.7-15 .2-.6.6-.4.8-1 .3-.1.5-.1.6-.4 5.9-1.5 13.9-10.4 17.4-10.9.3-.6.8-1.6 1.5-1.7.1-.3.3-.4.4-.8 1.4-.3 6.2-7.9 8.4-9.4 1.9-1.3 10-4.2 12.3-4.8l4.6-6.9c1.5-7.4 3.1-13.2 3.1-21.5 0-3.1-1.1-18.8 2.1-19.6.2-.7.9-1 1.1-1.5.4 0 .3.1.4-.2.6 0 1.1-.4 1.7-.6.5-2.1-.3-2.9-1.4-4.8l-19.8-32h0l-3.8 4.7-10-8.6-6.7 5.2c-4.2 0-5.5-6.2-9.2-4.2-5.5 2.9-6.7-1.3-12.1-2.7-9.2-2.4-20.4-.6-27.9-8.1-3.4 0-13.3 2.6-15.3-.3-3.8-.5-4.8 3-8.9.5-3.4-2.1-7.4-2.7-11.2-1.4-6.3 0-16-.1-17.9-7.9-2.1 0-3.6 2.5-6.1 2.8-1.7.2-7.5-2-7.7-1.6-.6 1-.7 6.4-1.3 6.6-.5 1.8-6.7 2-8.3 1.7-1.2-.2-8 .8-8 1.5-.4.2-1.3 7.7-1.3 8.5-.2 3.4-1.6 8-2.6 11.2-1.6 5.1 4.8 14.4 2.6 20.2-.7 1.9-9.4 2.4-10.1 4.3-.8.2 0 .1-1.3.9-1.3 0-2.8 1.2-4.3 1.2 0 .1 0 .1-.2.2 0 2.3 5.2 14.6 1.4 15.6-.2.9-6.7 4.4-7.7 4.6-.8 3.4.7 6.5.5 10.1-.2 2.6-6.1 6.2-8.2 7.4-5.5 3.1-13.9 12.1-15.7 18.1-1.9 6.4 5.7 6 5.7 11.1l-8.7 2.6-5.7 5.6h-3.6l-25.8 25.5-.7 4.7h0L91.4 255c1.7 4.8 1.3 16 1.3 21.1.6.1.6 1 1.2 1.2.1.5 1.2 1.6 1.5 1.7.1.4 0 .3.4.4 0 5.4 6.6 13.2 12.5 13.2 0-.1.5-.7.6-.8 0-4.2 1.7-8.9 2.7-12.9 8.1-1.6 14.6 2.4 16.7 10.6 3.4.8 3.1 16.2 3.1 19.4 2.9.7 10.1 11 12.5 13.4l16.7 17.1c.6 1.1 4.4 4.9 4.6 5.6.4.1.5.2.6.6.4.1.3 0 .4.4.2.1.3.1.6.2.5 1.9 16 3.3 18.4 3.6 1.1 4.3 4.5 6.1 8.4 3.8 3.8-2.3 7 1.2 10 1.9.1.4.2.5.6.6 2.4 9.5 15.4 21.3 25.7 21.3 5.9 0 15.7-6.9 19.9-10.8 2.8-2.5 11.4 2.4 12.1 5.2 1.3.3 1.5 3.8 1.5 5l.3 3.2h0 0z" fill-rule="evenodd" fill="#f4ecf0" stroke="#2b2a29" stroke-width=".284" stroke-miterlimit="10"/><path d="M78 205.9H64.1v-21.4h13.7v3.2H68v5.8h7.9v3.1H68v6h10v3.3h0zm6.7-17.7h-3.6v-3.7h3.6v3.7zm0 17.7h-3.6V190h3.6v15.9zm27.9 0h-3.7V196c0-2-.9-3.1-2.7-3.1-1.1 0-1.9.4-2.5 1.2s-.9 1.9-.9 3.5v8.3H99V196c0-2.1-.8-3.1-2.6-3.1-1 0-1.9.4-2.6 1.3-.7.8-1.1 2-1.1 3.4v8.3H89V190h3.5v3.4c1.1-2.5 2.9-3.7 5.3-3.7 2.3 0 3.8 1.2 4.5 3.7 1.3-2.5 3-3.7 5.3-3.7 1.5 0 2.7.5 3.7 1.4.9 1 1.4 2.1 1.4 3.5v11.3h-.1zm2.3-3.7l3.3-.6c.5 1.3 1.6 1.9 3.4 1.9 2.2 0 3.3-.7 3.3-2 0-.4-.2-.8-.5-1-.3-.3-.7-.5-1.2-.5l-2.9-.5c-3.2-.6-4.8-2.2-4.8-4.7 0-1.4.5-2.6 1.5-3.6s2.5-1.5 4.5-1.5c3.3 0 5.4 1.2 6.1 3.7l-3.2.6c-.3-1.2-1.3-1.8-2.8-1.8-1.9 0-2.9.6-2.9 1.8 0 .8.8 1.4 2.3 1.7l3.4.7c2.6.5 4 2.1 4 4.5 0 1.7-.7 3-2 3.9-1.4.9-3 1.3-4.8 1.3-1.6 0-3-.3-4.3-1-1.2-.6-2-1.5-2.4-2.9h0zm18.1 3.7h-1.6v-21.4h3.6v7.7c.7-1.2 1.4-2 2-2.3.7-.4 1.5-.6 2.4-.6 1.7 0 3.2.7 4.3 2.2s1.7 3.5 1.7 6.1c0 2.4-.6 4.4-1.7 6-1.1 1.7-2.7 2.5-4.8 2.5s-3.7-1-4.9-2.9l-1 2.7h0zm2-6.8c0 1.4.3 2.5.9 3.1.6.7 1.4 1 2.4 1 .9 0 1.7-.4 2.4-1.2.6-.8 1-2.3 1-4.5 0-1.6-.3-2.9-.9-3.8s-1.4-1.3-2.4-1.3a3.04 3.04 0 0 0-2.4 1.1c-.6.8-1 1.8-1 3.2v2.4h0zm26.7 6.8h-3.3v-3.4c-.9 2.5-2.6 3.7-5 3.7-1.4 0-2.6-.4-3.4-1.3s-1.3-2.1-1.3-3.7V190h3.6v10.3c0 1.1.3 1.9.8 2.2.5.4 1 .5 1.5.5.8 0 1.6-.3 2.4-1s1.2-2.2 1.2-4.4V190h3.6v15.9h-.1zm-9.2-18.6c-.5 0-.9-.2-1.2-.5s-.5-.7-.5-1.2.2-.9.5-1.2.7-.5 1.3-.5c.5 0 .9.2 1.2.5.4.3.5.7.5 1.3 0 .5-.2.9-.5 1.2-.4.2-.8.4-1.3.4h0zm5.3 0c-.5 0-.9-.2-1.3-.5-.3-.3-.5-.7-.5-1.2s.2-.9.5-1.2.7-.5 1.3-.5c.5 0 .9.2 1.2.5.4.3.5.7.5 1.3 0 .5-.2.9-.5 1.2-.3.2-.8.4-1.2.4h0zm15.5 15.8v2.8c-1.1.2-1.9.3-2.5.3-1 0-1.8-.2-2.5-.6s-1.2-.9-1.5-1.6-.5-1.7-.5-3.1v-8.2h-2V190h2.2l.3-4.1 2.9-.3v4.4h3.2v2.8h-3.2v7.7c0 1 .2 1.7.5 2 .4.4 1 .5 2 .5.5.1.8.1 1.1.1h0zm10.3 0v2.8c-1.1.2-1.9.3-2.5.3-1 0-1.8-.2-2.5-.6s-1.2-.9-1.5-1.6-.5-1.7-.5-3.1v-8.2h-2V190h2.2l.3-4.1 2.9-.3v4.4h3.2v2.8H180v7.7c0 1 .2 1.7.5 2 .4.4 1 .5 2 .5.5.1.8.1 1.1.1h0zm12.6-2.3l3.2.4c-.4 1.4-1.2 2.6-2.4 3.5s-2.7 1.4-4.6 1.4c-2.2 0-4-.7-5.3-2.2s-2-3.5-2-6c0-2.4.7-4.4 2-5.9 1.3-1.6 3.2-2.4 5.5-2.4s4 .8 5.2 2.3 1.8 3.5 1.8 5.9v.4h-10.8c0 1.1.1 1.9.3 2.6.2.6.6 1.2 1.2 1.7s1.4.7 2.3.7c1.8.2 3-.7 3.6-2.4h0zm-.2-4.7c0-1.1-.4-2.1-1-2.8-.7-.7-1.5-1.1-2.5-1.1s-1.8.3-2.5 1-1 1.6-1.2 2.9h7.2zm10.5 9.8h-3.6v-21.4h3.6v21.4z" fill="#006"/></svg>