<?xml version="1.0" encoding="utf-8"?>
<!-- Generator: Adobe Illustrator 26.5.3, SVG Export Plug-In . SVG Version: 6.00 Build 0)  -->
<svg version="1.1" id="Layer_1" xmlns="http://www.w3.org/2000/svg" xmlns:xlink="http://www.w3.org/1999/xlink" x="0px" y="0px"
	 viewBox="0 0 800 400" style="enable-background:new 0 0 800 400;" xml:space="preserve">
<style type="text/css">
	.st0{fill-rule:evenodd;clip-rule:evenodd;fill:#D2DBF0;stroke:#2B2A29;stroke-width:0.2835;stroke-miterlimit:10;}
	.st1{fill:#000066;}
</style>
<path class="st0" d="M331.7,174.5c-0.1-0.6-0.1-1.1-0.2-1.6c-0.1-0.9-0.6-2-0.6-3c-0.1,0-0.2-0.2-0.3-0.3c-2.8,0-6.6-1.4-9.5-0.7
	c-0.6,2.3-4.1,5.2-5.6,7c-0.2,0.2-1.6,1.8-1.8,1.3h-0.2l-0.1-0.1l-0.1-0.1c-0.3-1.2-1.1-2.5-1.8-3.5c-0.7-1.2,0.6-1.7,1.3-2.7
	c2.2-3.1,2-5.8-0.8-8.2c-1.4-1.4-2.5-3.7-4.4-4.6c-1.6-0.7-3.1-2.5-4.5-3.4c-0.9-0.6-2.9-1.3-3.4-2.2c-0.9-0.1-8-3.9-8.4-4.7
	c-1.3-0.2-3.2-2.7-4.5-3.3c-3.7-2.1-7.1-4.1-10.3-6.8c-2.6-2.3-6-4.5-8.8-6.5c-1-0.7-4.6-2.9-4.8-3.9c-0.5,0-0.1,0-0.8-0.7l-30.2-1
	l-0.2-4l28.9,1.3c0-5.1-1.8-8.5-7.3-9.3l-20.7-2.9c-3.6-0.5-10.5-2.1-14-1.3c-0.8,0.2-5.6,0.5-5.6,1.1c1.4,0.4,3.1,1.8,5,2.2
	c1.6,0.3,3.9,0.1,5.4,0.6c2.9,1,1.8,7.5-2.4,7.5c0,1.9,9.1,7.4,10.7,8.9c3,3,7.6,7.9,11.7,8.9c1.1,4.5,2.8,11.6-0.5,15.8
	c0,3.7,1.9,12.1,4.6,14.8c2.6,2.6,6.4,3.5,9.2,6.1c2.1,1.9,4.2,3,6.5,4.4c1.1,0.7,1.5,0.5,0.2,1.9c-0.5,0.5-1.9,3.5-2.4,3.6
	c0,0.3-0.3,0.5-0.4,0.8c-0.2,0-0.3,0.1-0.3-0.2c-0.1,0-0.3-0.2-0.3-0.3c-0.1,0-0.2-0.1-0.3-0.2c-0.2,0-0.5-0.2-0.5-0.3
	c-1.2-0.3-4.8-4.4-6.1-5.3c-0.8-0.6-6.1-3.4-6.1-3.7h-0.5c-0.2,0.6-2.6,3-3.2,3.5c-1.6,1.3-2.7-0.8-4,0.4c-0.2,0.6-1.6,1.1-3.6,1.5
	l0,0l11.8,6c2.1,1.2,7,3.5,8.2,5.3c0.3,0,0.2,0,0.4,0.3c2.9,0.7,5,3.4,8.3,4c5.5,1,11.2,1.5,16.8,1.5c2.9,0,5.6-0.6,8.5-1.1
	c3.3-0.6,6.3-2.8,9.3-3.2c1.1,0.3,0.8,0.2,1.7,0.2c1.9-1.5,6.4-0.8,8.7-1.5c2.5-0.8,4.3-1.2,6.6-2.6c3.1-1.9,5.7-6.2,7.8-9
	C326.1,178.7,329,176.6,331.7,174.5L331.7,174.5L331.7,174.5z M111.5,150c0-0.3,3.1,0.4,3.9,0.4c0,4.6,3.1,10.6,4.4,15.2
	c1.4,5.1,2.2,10.2,4.8,14.8c3.2,5.7,19.7,11.5,25.6,8.3c4.5-2.4,13.3,2,16.4-1.9c4.2,1.4,8-2.2,11.5-2.7c0.3-0.4,2.3-1.7,2.8-1.8
	c1.3-1.8,10.8-4.1,13.1-4.6c4.1-1,9.8-1,13.5,1c5.4,3,22.1,3,28.3,1.4c0-0.2,0.1-0.2,0.2-0.3c0.6-0.1,0.4-4.7,0.5-5.5
	c0-6.3-0.2-11.6,0.7-17.5c0.4-0.1,0.4-0.9,0.8-1c0-1.9-0.9-3.4-0.9-5.7c0-1.9,0.8-6.1-0.2-7.7c-2.5-4-7.3-7.2-11.4-9.5
	c-0.3-2.4-5.6-7.8-7.9-8.2c-0.8-1.4-5-5-6.4-6.2c-1.1-3.3-4.9-4.5-6.9-7c-2.5-3.1-5.5-5.1-9.7-5.1c-4.4,0,7.6,16.1,8.3,18.3
	c2,5.8-5.1-4.7-5.9-5.8c-1.6-2.2-9.3-13.5-10.8-13.7c-3.1-0.4-7.1-0.9-10.1-2c-4.8-1.8-9.8-2.2-14.6-3.6c-3.1-0.9-2.2-0.5-0.8,2.4
	c0.7,1.5,2.2,3.7,2.2,5.2c0,2.6-0.4,10,4,10c-2.7,2-6.6-3.5-6.6-5.8c0-4.7-0.3-7.7-3.7-11.5c-2.3-2.6-5.7-2.6-8.8-3.5l-17.8-4.6
	c-9.2-2.4-19.6-6.2-29.1-6.2c-2.2,2.2-5.4,6.8-7.6,8.3c-0.1,0.4-0.2,0.3-0.8,0.8c-1.3,0.3-4.5,5.3-5.6,6.6c-1.5,1.7-1.8,3.6-1.8,5.8
	c0,5.4,4.6,5.6,8.3,8.3c1.7,1.2,5.8,4.6,6.8,6.1c3.6,0.5,8.3,7.2,10.9,9.8c0,3.6-1.9,5.1-5,7c-1.5,0.9-7.2,4.6-8.1,5.9
	c-2.2,0.3-3.8,2.9-6.5,2.9l0,0l7.2,3.1L111.5,150L111.5,150L111.5,150z M422.8,162c0.9,1.1,2.3,1.8,3.1,3c0.2,0.3,2.1,2.6,2.3,2.6
	c0.3,1,7.2,2.9,8.5,3.4c2.8,0.9,5.5,1.9,8.4,1.9c0-0.1,0.1-0.1,0.3-0.1c0.4-1.5,0.6-3.4,0.6-5.1c-1-0.2-2.2-1.1-3.3-1.5
	c-2.6-1-5.7-1.9-8.3-2.5c-2.4-0.6-5.4-2-7.7-2.2L422.8,162L422.8,162z M592.8,384.3c-0.2-0.8-3.2-3.8-3.9-4.6
	c-1.5-1.6-2.1-4-3.5-5.5c-0.2-0.9-2.1-5.5-2.7-6.2c0-0.3-0.1-0.5-0.3-0.8c-0.7-6.3-2.9-11.8-3.1-18.5l-0.8-19.4
	c-2.9-8.7-4.7-15.9-12-22.2c-6.2-5.3-7.9-14.1-8.5-21.8c-0.4-5.4-2.5-11-2.5-16.2c0.4-3.4,0.1-6.9,0.5-10.4c0.4-3.5,1.6-6.4,2.9-9.5
	l8.4-18.8c1.3-2.9,2.5-7.8,4.5-10.1c0.1-0.8,0.9-1.9,1.3-2.5c0-2.7,0.6-5.2,0.1-7.9c-0.2-1.2-1.8-6-1.3-6.7v-0.3
	c0.2-0.3,0.4-0.6,0.7-0.9c0.7-3.4-3.3-13.1-5.8-15.6c-1-5.5-11.1-14.1-15-18.2c-5.7-6-11.7-9.4-19.4-12.2c0-0.9-5.3-2.6-5.8-4h-0.2
	c-0.3,1.3-0.9,3.9,0.2,4.9c0.9,0.9,2.8,3,2.5,4.3h-2.9c-1.3,0-3.3-2.3-4-2.3c-0.6-2.6,2.1-4.7,1.6-6.9c-1.8,0.4-4.6,7.4-6.1,8.9
	c-2.5,2.5-6.8,8.9-5.8,12.6c0.7,2.7-3.4,1.8-5.7,1.8c-3.4,0-8.5,1.7-11.4,0.5c-5.9-2.4-5.7-4.9-13.1-3.1c-5.9,1.4-17,4.4-22.8,3.3
	c-6.6,0-13.5,2.6-20.2,3c-4.5,0.2-6.1-3.2-8.7-6.5c-2.8-3.5-13.2-13.2-17.8-12.1c0,1.7-0.6,3.9-0.8,5.7c-0.2,1.8,0,5.4-0.7,6.9
	c-1.1,4.5-3.3,8.6-4.4,12.9c-0.6,2.3-2.6,9-4,10.7c0,2.3-1.3,5.2-1.7,7.4c-0.5,2.6-0.5,5.3-1,7.8c-1.1,5.5-2.5,11.7-2,17.4
	c2.7,1.6,4.8,4.4,7.4,6.3c1.5,1.2,4.2,3.9,6,4.4c0,0.1,0.2,0.2,0.3,0.3c0,1.6,2.9,6.8,4,8.2c1.6,2,3.5,8.6,5.2,9.7
	c0,0.9-1.6,1.2-1.1,3c0.4,1.6,1.4,1.4,2.9,1.7c0.5,1.4,0.3,4.3,0.3,6c2.4,10.1-0.9,21.5,2.1,31.4c1.1,3.6-0.4,10.1,2.6,12.7
	c2.4,2.1,1.9,7.5,2.6,10.3c2.4,0,5.8,1.7,8.2,2.3l9.5,2.2c9.2,4.8,18.2,9.5,29.1,5.6c5.6-2,11.4-3.4,17.3-4.3
	c5.2-0.8,10.9-4.1,16-4.1c2.2,1.7,9.6,4.5,12.3,5.2c7.6,0.9,22.3,10.6,27.1,16.3c2.8,3.3,13.6,19.5,17.2,19.5l7,7.2
	c1.7,1.8,8.4,6.5,8.7,8.1c0.7,0.4,1.5,1.1,1.9,1.8c0.8,1.3,2.5,2.4,3.7,3.5c2,1.9,4.4,3.4,6.7,4.8c2.2,1.4,4,1.7,6.6,1.7
	c0-0.1,0,0,0-0.1c-2.2-1.7-3.9-3.8-5.9-5.8L592.8,384.3L592.8,384.3z M419.3,274.8c-0.4-3.3-3.7-6.2-4.5-9.6
	c-0.6-2.6-1.7-6.2-2.7-8.7c-1.8-4.3-0.6-12.6-4.5-14.5c-3.3-1.6-5.9-4.3-9.3-5.6c-4.6-1.8-8.4-1.6-13-2.8
	c-3.3-0.8-13.7-5.9-16.2-5.1c-0.3,2.7,0.6,6,1.3,8.6c0.4,1.6,4,5.9,4,6.5c-0.1,0-0.2,0.2-0.3,0.3c-5.1,0.7-5.6,0.9-9.3-2.1
	c0-1.2-1.2-3-1.7-4c-1.1,0-5.6,3.3-5.9,4h-0.5c-0.6-2.3-4.6-5.4-4.9-8c-0.2-2,4.7-4.7,5.8-6.6c3.7-6.3-3.3-17-7.2-22
	c-1.5-1.9-7.1-11.8-9-11.4c-1.6,6.4,0.1,16.5,1.3,22.8c0.2,0.1,0.2,0.3,0.3,0.5l1.3,7.8c0.3,1.8,0.9,5.5,2,6.9
	c0.1,1.4,1.5,3.1,1.7,4.5c1.3,1.6,1.4,4.4,3.4,5.4c0.4,0.6,1.2,1.4,1.3,2.1c5,3.5,9.4,10.7,11.4,16.2c1.2,3,3.2,3.3,6.1,4.6
	c1.5,0.7,3.2,1.1,4.7,1.8c1,0.4,2.1,1.8,2.9,2v0.2c-3.6,0-7-1.1-10.5-1.1v0.2c1.3,0.4,4.9,10.3,5,11.7c3.6,2.9,5.7,11.2,9.3,15
	c6.6,7.2,13.7,12.8,21.8,18.3c4.4,3,16,10.3,21.1,10.3c0.6-2.4-1.2-8.5-1.3-11.5c-0.1-2.8-1.9-3.8-1.1-7.3
	c1.7-7.1-2.8-15.5-2.8-22.7L419.3,274.8L419.3,274.8z M367.5,209c-1.8,0-3.7-0.7-5.1-0.7l-0.2-0.1c-0.3-1.2-3.5-4-4.2-5.4
	c-1.3-2.4-3.9-4.4-5.6-6.7c-2.9-3.8-6.6-8-6.6-13c-0.1,0-0.5-0.2-0.5-0.3c-1.5,0-3.3-0.8-4.7-0.8c-0.9-2.7-0.3-9.4,0.3-12.4
	c0.8-4,0.6-7.8,0.6-12.1c0.7-1.8,0.2-4.9,0.1-6.8c-0.1-2.2-0.7-4.4-0.8-6.6c-0.2-4.2-1.9-8.4-1.9-12.6c-0.1-0.2-0.1-0.2-0.1-0.4
	c-0.4-0.8-0.5-1.7-0.8-2.5c-1-3.4-3.5-8-5.6-10.9c-2.1-3-6.1-3.3-6.1-7.5c8.7,0,9.3,3,14,9.9c2.2,3.1,9.8,16.6,3.2,18.3
	c0,0.2-0.1,0.2-0.3,0.3l0.2,12.9c0.2,0.1,0.3,0.3,0.5,0.4c1.8-1.3,5.9-13.5,6.5-16.3c0.9-4.1,1.3-5.6-1.5-9.1
	c-1.9-2.4-3.3-7.1-4.6-9.9c-0.5-1-4.4-6.3-3.4-6.8c2.1-1.1,11.1,0.8,12.1,3c3.2,7.4,6.4,12.9,7.7,21.1c0.6,3.4,0.8,6.7,0.6,10.3
	c-0.1,2.1-1,3.9-0.3,6.1h0.2c0,0.1,4.3-0.3,4.9-0.1c0,1.1,0.3,2.3,0.3,3.4c0.4,5,0.8,9.8,0.8,14.8c0,1.6,0.6,4.2,0.1,5.6
	c-0.2,0.6-2.6,3.5-1.5,3.8c0.1,0.3,3,1.4,3.5,1.5c1.1,0.3,2.3,0.6,3.3,0.3l0.1-0.1c0-0.2,0.1-0.2,0.1-0.4c0.1,0,0.1-0.2,0.1-0.3
	c-0.1,0-0.1-0.2-0.1-0.4l0.8-24.3l4.7,3.4l1.1,16.8l15.4-13.4h5.5l-2.1,7L385.6,180c0.2,1.9,2,8.4,4.9,6.7
	c5.3-3.1,9.4-11.9,10.4-17.9c0.7-4.2,2-10.1,0.9-14.2c-1.3-0.3-4.2,0.2-5.5,0.5l-0.1,0.1l-0.1,0.1l-0.1,0.1
	c-2.3,9.2-20.4-5-23.2-7.8c-3.8-2.4-3.2-1.2-3.7-6c-1-8.7,6.5-1.8,9.2,1.3c2.4,2.8,6.6,6.3,9.8,8.3c10.5,6.5-0.2-5.9-3.3-8.5
	c-2.7-2.4-16.1-10.8-16.1-13.7c0.2-0.1,1.8-2.7,2.2-3.1c0.7-0.8,5.5,4.1,6.5,4.9l12.4,9.9c4.5,3.6,3.8-2.9,3.8-6.8
	c-4.6,0-17.3-9.8-22-12.2c-7.7-3.8-12.9-10.2-0.2-7c0-5.2-0.8-2.6-4.5-3.5c-1.4-0.4-7.2-2-7.2-3.6c1.7,0,5-1.1,5-2.8
	c0-5.4,28.9-7.2,28.9-0.6c3.2,0.8,4.7,0.1,8.2,2.5c4.3,3,8.4,4.4,12.6,6.8c4.2,2.5,11.3,3.4,14.7,6c0,0.7-0.1,1.3-0.1,2l0.1,0.1
	c1.6,0,3.3-2,4.7-0.8c3.8,3.2,0.1,14.2,1.2,18.6c0.2,0,1.4-0.2,1.4-0.3c0.2-0.1,1.2-7.3,1.4-8.3c2.2,0,3.6,2.6,4.9,4
	c2.7,2.9,6.8,4.2,9.5,7.2c2.9,3.1,5.4,7.6,6.2,11.9c1.4,3.6,0.8,8.8,6.6,7.6c1.1-0.2,3-0.9,4.1-0.6c0.5,0.2,0.9,0.9,1.4,1.3
	c0.3,0.2,1.4,0.7,1.4,0.9c0.2,0,0.5,0.3,0.5,0.5c0.7,0,1.7,0.2,2.5,0.2c0.5-1.6,0.8-1.4,0.3-3.7c-0.5-1.8-3.8-5-5.4-6.2
	c-1.1-0.8-5-3.3-5.2-4.6c-3.5-0.9-8.1-6.8-10.3-9.7c-2.9-3.9-7.5-6.1-10.1-10.6c-0.2-0.7-0.4-1-0.4-1.7c1.1-0.4,3-3,3.8-1
	c0.6,1.6,3.8,5.5,5.4,6.3c1.4,0.7,4.8-2.1,4.8-3.4c-1.8,0-3.7-3.1-5-4.1c-1.9-1.6,5.3-0.2,6.4,0.2c1.3,0.5,5,2.6,5.3,3.8
	c0.2,0,0.3,0.1,0.3,0.3h0.2c0.3,1,3,2,3.4,3.3h0.2c0.2,0.7,2,1.2,2.1,1.7c1.9,0,5.8,3.5,7.7,4.6c5.6,3,10.3,8,5.8,14.5
	c-1.6,2.3-7.1,10.3-6.3,12.6c5.2,0,7-4.4,8.8-9.1c1.8-4.6,2.9-7,0.9-11.3c-2.3-5-5.2-7.6-9.5-10.7c-2.3-1.6-3.3-3.8-5.7-5
	c-1.5-0.8-5.2-3.5-6.1-3.8v-0.2c6.7,0,14.9,3.8,21.4,5.9c4.8,1.6,10.9,7.3,15.4,7.8c2.8,1.4,5.5,3.5,8.2,4.7c3.1,1.4,5.6,1.3,8.5,2
	c1.2,5,0,6.4-2.8,11c-1.8,2.9-4.9,8.4-5.9,11.5c-6.5,0-13.1,1.3-19.6,1.3c-3.7,0-11.4,1.5-14.4,0.3c-1-0.7-1.1-1.6-1.9-2.4
	c-2.1,0.3-3.1,2.5-5.8,2.5c-4.3,0-10.2-2.1-14.4-3.2l-23.5-6.2c-3.3-0.9-6.7-0.9-10-1.6c-2.3-0.5-5.9-1.8-8.1-1.8
	c-0.4-0.5-0.9-1.1-1.2-1.7c-0.2,0-0.1-0.1-0.3-0.3c-0.2,0-0.5-0.3-0.6-0.4c-1.5,0-2.3-0.3-3.5,0.6c-0.5,2.4,0.3,4.4,0.4,6.8
	c0.3,4.5,0.3,8.4-0.2,12.9c-0.6,5.4-3.2,10.4-4.9,15.6c-0.9,3.7-3.4,5.5-3.4,9.9c0,4.8-3.2,10.6-4.1,15.5l-2.4,12.7
	c-0.1,0-0.1,0-0.2,0.2c-5.1,0-12.5-5-17.4-7c-1.1-0.5-9.3-4.3-8.2-5.7c0.8-1.1,4.9-5.2,4.9-6.2c-0.1,0-0.1-0.2-0.3-0.3
	c-0.2-0.4-1.1-0.3-1.6-0.6L367.5,209L367.5,209z M269.4,111.6c0.1,0.7,0.2,2.2-0.2,2.8l7.9,0.3c3.2,0.1-0.3,9.6,0,12.6
	c0.3,2.5,6.7,6.3,8.7,7.9l18.9,15.3c5.2,4.2,12.4,2,9.7,10.1c1.3,0,2.1,3.8,2.9,3.8c0.6,0,5.8-8.8,6.6-2.3c0.7,5.9,0.4,2.3,4.2,5.1
	c0-4.3,4.6-2.2,3.7-7.4c-1.5-8.1,1.1-17.4-1.7-25.2c-3.8-10.7-11.6-21-23.6-21c-2.7,0-5.1-2.1-8.1-2.1l-24.1,0.2L269.4,111.6
	L269.4,111.6z M19,67.4c1.1,1.8,1.8,2.6,0.8,4.6c-1.6,3.3-5.7,2.7-8.9,2.7c-1.4,0-2.7-0.2-3.5,1.2c-2,3.6,4.3,2.9,5.9,2.3
	c2.4-0.9,4.5-1.8,7.1-1.8c2.3,0,6.1,2.3,6.2-1.6c0.1-1.6-1.9-6.1-3.7-6.4c-0.1-0.2,0-0.2-0.3-0.2L19,67.4L19,67.4z M595.8,160.3
	l34.3,24.9l11.9,9.7l16.8-21.6l3.7,0.8l24.7-24.8l22.7,26.3l16.8-23.9l2-2.2l40.9,21.4l5.9-8.9l3.9-0.9l0,0
	c-0.2-0.9-0.5-1.8-0.5-2.7c-0.2-4.7,1.8-7.8,4-11.5c1.5-2.6-1.7-4.3-1.2-6.8c0.3-1.3,1.4-2.8,1.6-4c4.7-2.7,0.7-6.8,6.8-8.1
	c2.9-0.6,2.4-7.5,2.4-10.1c-4.4-1.5-10.4,0.5-15.2-1.2c-1.8-0.6-2.2,0.4-3.9,1.2l-6.7,3.3c-3.9,1.9-2.8-2-3.3-4.9
	c0.3-4.1,0.1-5.5-2.7-8c-1.6-1.4-1-6.1-0.7-8c1.5-8.1-4.5-9.3-9.2-13.9c0-0.5,0.2-0.7,0.3-1.1c1.7-1.2,2.9-3.5,4.8-4.9
	c1.9-1.4,4.5-4.2,6.1-6c3.8-4,8-6.2,8.7-12c0.8-0.6,1.4-1.1,2.4-1.5c0.7-1.5,1.2-1.2,0.7-3.1c0.8-0.5,2.5-5.1,2.5-6.2
	c0-2-0.6-3.6-1.3-5.4c-1-2.5-0.6-8.5-3-9.6l-8.4-3.9c-3.9-1.8-8-3.2-11.7-5.1c-0.5-2,0.4-5.8,0.6-8c0-0.4,0.1-0.7,0.1-1.1l0,0
	l-12-3.9c-21.8-5.2-43.4-2.3-65.7,1.8l-40.9,7.4l-17.8,3c-4.1,0.7-7.8,5.3-11.1,5.9c-1.1,1.9-4.4,3.9-6.4,4.7
	c-0.6,0.2-1.2,0.4-1.9,0.5c-0.1,0.4-1.1,0.9-1.5,1c-0.1,0.4-0.6,0.3-1,0.3l-0.2-0.3c-0.3-0.1,0-0.1-0.3-0.2c-0.7-3-2.1-5.9-2.7-9.1
	c-0.3-1.7-1.2-9.6-2.4-10.3c0-0.4,0-0.5-0.3-0.7c-0.2-0.8-1.4-1.1-1.5-1.5h-0.5c-1.3-1.9-7.7,1.1-8.9,2.2c-4.5,4.1-8.8,6.4-15.1,6.4
	c-2.7,0-6.3-0.1-8.9,0.5c-3.5,0.8-5.9,2.8-9.3,3.9l-8.1,3.4l0,0l-4.2,4.9c-1.3,1.3-3.8,1.8-5.4,3c-1.8,1.3-3.5,3-5.4,4.2
	c-2.9,1.9-4.8,5.1-7.9,1.7c-0.6-0.7-3.7-3.4-3.9-4c-0.5-0.1-5.5-2.7-5.6-2.9c-0.6-0.1-2.2-1.2-2.4-1.7c-0.3-0.1-0.3,0-0.3-0.3
	c-0.3-0.1-0.3,0-0.3-0.3c-0.3-0.1-0.4-0.2-0.5-0.5c-0.3-0.1-0.8-0.4-0.8-0.7c-0.2-0.1-0.3-0.1-0.5-0.2c-0.2-0.9-7.1-2.3-8.4-2.5
	c-1.9-0.3-6.5-5.8-6.9-7.4c-0.2-0.1-1.3-1.5-1.3-1.7c-0.3-0.1-0.6-0.3-0.7-0.7c-0.3-0.1-0.3,0-0.3-0.3h-0.3L481,24
	c-0.5-1.8-2.9-0.5-3.9,0l0,0l-5.6,3.7c-3.3,2.6-5.7,4-7.1,8.3c-1.4,4.2-5.1,8.6-7.1,12.5c-1.1,0.3-2.2,1.3-3.7,1.7
	c-1.3,0.4-2.2-0.2-3.4-0.2c-0.2-0.5-0.9-0.2-1-0.7c-0.4-0.1-1.5-0.7-1.7-1c-2.2-0.6-5.2-4.9-6.6-6.7c-1.8-2.4-4.7-2.6-7.1-3.7
	c-1.6-0.7-2.1-3-3.4-3.5c-0.7-2.9-16.1-2.6-19-2.4l0,0l-17,1.3c0.5,5.3,0.8,14.5,2.2,21.2l-11.1,0.8l-7.2-9.4l-11.8,31.5l12.9,11
	l0.3,3.7l0,0c3.3,0.1,7.1,0.5,8,1.8c3.9,1.5,9.3,1.3,13.5,2.4c2.5,0.6,6.5,1.9,9,1.9c-3,0.7-3.2,0.9-0.8,2.5c1.8,1.1,7.1,4,9.1,4
	c1.6,0,7.9-2.8,8.6-2.1l15.6-0.6l0.6,1.8l-20.6,2.2l4.2,2.8l17.2-0.3l0.8,1.9l-12.5,0.7l14.2,5.6l14.2-2.8l-5.8-15.7L464,96v1.4
	l-6.9,2.3l5.6,12.1c7.7,0,15.1,1.6,22.5,2.9c4,0.7,16.1,4.8,17,8.3c-8,0-15.2-6.9-23.7-7.2c-2.2-0.1-17-3.1-11.4,2.5
	c1.9,1.9,8.3,2.8,11,3.3c7.3,1.3,13.3,4.4,19.9,6.6c5.8,1.9,11.4,6.4,17.1,8.9c1.3,0.6-5.9-13.8-6.7-15.9c-1-2.7-4.4-7.1-3.3-8.9
	c2-3.2,4.3,3,5.1,4.2c1.5,2.1,3.4,5.2,4.2,7.6c0.5,1.5-2.7-0.8-1.9,0.6c0.7,1.1,0.8,4.3,2,4.6c1.3,0.4,4,1.1,4.7,2
	c-3.1,0-0.6,5.6,0.1,6.8c1.1,2,8,4.7,8.3,6.2c6,0.8,11.6,2.1,17.9,2.1c5.2,0,5.9-0.7,10-3.5c3.8-2.5,13.6,1.9,17.6,3.1
	c2.1,0.6,4.1,2,6.1,2.4c1.7,0.4,4.4,0.3,6,0.9l0.1,0.3l-6.1,1.3c-0.7,2.1-1.4,3.1-0.2,5.2c1.3,2.2,1.9,4.1,5,4.1
	c1.5,0,3.2-0.6,4.8-0.6c0.9,0,3.5,0,4.3-0.3c0.4,0.3,1.8,0,2.1,0.5c0.2,0,0.2,0,0.3,0.1L595.8,160.3L595.8,160.3z M595.9,208
	l5.6,8.3l2.5,6.8l-4.5,9.1l-0.6,12.3l0.1,0c-10.2-3.2-20.5-8.9-20.5-17.3c-0.4-0.1-1.2-3-1.2-3.4c0.2-3,0.6-5.1,1.2-7.8
	c0.6-2.9,1.9-4.9,1.9-8.2c0-6.2-0.8-13.1-3.4-18.7c-0.6-1.3-2.1-2.8-2.3-4c-0.4-0.3-1-1.3-1.3-1.7c-0.7-3.6-6.5-10-9-12.7
	c-3.3-3.5-6.5-8.5-10.7-11l-9.2-5.3c-1.1-0.6-2.4-2.5-3.4-2.9v-0.3h0.2c0.2-0.5,3-0.2,3.5-0.2c1.3,0,2.5-0.3,3.8-0.3
	c2.5,0,5.9,0.9,8.2,0.4c7-1.3,9.7,2.4,14,6.4c2.7,2.5,5.8,4.3,8,7.4c0.1,0.2,0.7,1,0.9,1.1c0.1,0.6,1.1,2.7,1.4,3.2
	c0.5,0.7,0.8,2.3,0.8,3.2c0,2.9-0.1,6.1-0.8,8.9c-0.5,1.9-0.3,3.4-1.3,5.2l2.6,12.2l11.9-1.9L595.9,208L595.9,208L595.9,208z"/>
<path class="st1" d="M563.2,101.2h-3.4V93h-7.2v8.1h-3.4V82.4h3.4v7.7h7.2v-7.7h3.4V101.2z"/>
<path id="_x31_" class="st1" d="M579,101.2h-3c-0.3-0.8-0.4-1.8-0.5-2.8c-0.8,2.1-2.4,3.1-4.7,3.1c-1.4,0-2.5-0.4-3.3-1.2
	c-0.8-0.8-1.3-1.8-1.3-3.1c0-3.2,2.8-4.8,8.4-4.8c0.2,0,0.5,0,0.9,0v-1c0-1.4-1-2.2-2.9-2.2c-1.9,0-3,0.7-3.2,2.2l-2.7-0.4
	c0.1-1.2,0.7-2.1,1.8-2.9c1-0.7,2.6-1.1,4.5-1.1c1.1,0,1.9,0.1,2.6,0.3c0.7,0.2,1.2,0.5,1.7,0.9c0.5,0.4,0.8,0.9,1,1.4
	c0.2,0.5,0.3,1.3,0.3,2.5v6.3C578.6,99.3,578.7,100.2,579,101.2z M575.6,94.1c-4,0-6.1,1-6.1,2.9c0,0.6,0.2,1.1,0.6,1.5
	c0.4,0.4,1,0.6,1.8,0.6c1.2,0,2.1-0.4,2.7-1.1c0.6-0.8,0.9-1.6,0.9-2.6V94.1L575.6,94.1z"/>
<path id="_x32_" class="st1" d="M603.1,101.2h-3.3v-8.6c0-1.8-0.8-2.7-2.4-2.7c-0.9,0-1.7,0.3-2.2,1c-0.6,0.7-0.8,1.7-0.8,3v7.3H591
	v-8.6c0-1.8-0.7-2.7-2.2-2.7c-0.9,0-1.7,0.4-2.3,1.1c-0.6,0.7-0.9,1.7-0.9,3v7.3h-3.2V87.3h3v3c1-2.2,2.5-3.2,4.6-3.2
	c2,0,3.4,1.1,4,3.2c1.1-2.2,2.7-3.2,4.6-3.2c1.3,0,2.4,0.4,3.2,1.3c0.8,0.8,1.2,1.9,1.2,3.1L603.1,101.2L603.1,101.2z"/>
<path id="_x33_" class="st1" d="M608.3,101.2h-1.4V82.4h3.1v6.8c0.6-1,1.2-1.7,1.8-2c0.6-0.3,1.3-0.5,2.1-0.5c1.5,0,2.8,0.6,3.8,1.9
	c1,1.3,1.5,3.1,1.5,5.4c0,2.1-0.5,3.8-1.5,5.3c-1,1.5-2.4,2.2-4.2,2.2c-1.9,0-3.3-0.9-4.3-2.6L608.3,101.2L608.3,101.2z M610,95.2
	c0,1.2,0.3,2.2,0.8,2.7c0.5,0.6,1.2,0.9,2.1,0.9c0.8,0,1.5-0.3,2.1-1c0.6-0.7,0.9-2,0.9-4c0-1.4-0.2-2.6-0.8-3.3
	c-0.5-0.8-1.2-1.2-2.1-1.2c-0.9,0-1.6,0.3-2.1,1c-0.6,0.7-0.8,1.6-0.8,2.8L610,95.2L610,95.2z"/>
<path id="_x34_" class="st1" d="M633.4,101.2h-2.9v-3c-0.8,2.2-2.3,3.3-4.4,3.3c-1.3,0-2.3-0.4-3-1.2c-0.7-0.8-1.1-1.9-1.1-3.3v-9.7
	h3.2v9c0,1,0.2,1.7,0.7,2c0.4,0.3,0.9,0.5,1.3,0.5c0.7,0,1.4-0.3,2.1-0.9c0.7-0.6,1.1-1.9,1.1-3.9v-6.7h3.1V101.2L633.4,101.2z"/>
<path id="_x35_" class="st1" d="M640.3,101.2h-3.1V87.3h2.8v3.3c0.4-1.3,1-2.2,1.7-2.8c0.7-0.6,1.4-0.9,2.2-0.9c0.1,0,0.2,0,0.4,0
	v3.4c-1.6,0-2.6,0.5-3.2,1.5c-0.5,1-0.8,2-0.8,3V101.2L640.3,101.2z"/>
<path id="_x36_" class="st1" d="M659.1,84.6V87h-1c-0.4,0-0.8,0.1-1.1,0.2c-0.3,0.1-0.6,0.4-0.9,1c1.1,0.9,1.7,1.9,1.7,3
	c0,1.2-0.5,2.2-1.5,3.1c-1,0.8-2.4,1.2-4.1,1.2c-0.7,0-1.6-0.1-2.6-0.4c-0.6,0.3-1,0.7-1,1.4c0,0.3,0.2,0.7,0.5,0.9
	c0.3,0.3,0.8,0.4,1.4,0.4h4.1c1.4,0,2.5,0.4,3.3,1.1c0.8,0.7,1.2,1.6,1.2,2.7c0,1.3-0.6,2.4-1.8,3.3c-1.2,0.9-3,1.3-5.4,1.3
	c-4.5,0-6.7-1.3-6.7-3.8c0-1.2,0.7-2.2,2-2.8c-0.9-0.7-1.3-1.5-1.3-2.3c0-1.2,0.7-2.2,2.2-2.9c-1.3-0.8-1.9-1.9-1.9-3.2
	c0-1.2,0.5-2.1,1.4-3c0.9-0.8,2.4-1.2,4.3-1.2c0.9,0,1.8,0.1,2.7,0.3c0.4-1.8,1.5-2.6,3.3-2.6L659.1,84.6L659.1,84.6z M652,93.6
	c1.7,0,2.6-0.8,2.6-2.4c0-0.6-0.2-1.1-0.6-1.6c-0.4-0.4-1-0.6-1.9-0.6c-0.8,0-1.5,0.2-1.9,0.7c-0.5,0.4-0.7,1-0.7,1.7
	c0,0.7,0.2,1.2,0.7,1.6C650.6,93.3,651.2,93.6,652,93.6z M648.6,100.4c-0.5,0.4-0.7,0.8-0.7,1.2c0,0.6,0.4,1.2,1.1,1.7
	c0.8,0.5,1.9,0.7,3.6,0.7c2.4,0,3.6-0.6,3.6-1.9c0-0.5-0.2-0.8-0.6-1s-0.9-0.4-1.4-0.4h-3.3C650.2,100.7,649.5,100.6,648.6,100.4
	L648.6,100.4z"/>
<path id="_x37_" class="st1" d="M666,92.7v2.6h-6.9v-2.6H666z"/>
<path id="_x38_" class="st1" d="M686.4,101.2H683V84.7l-5.2,16.4H676l-5.2-16.4v16.4H668V82.4h5.3l3.9,12.1l3.9-12.1h5.3
	L686.4,101.2L686.4,101.2z"/>
<path id="_x39_" class="st1" d="M693.5,85.7h-3.1v-3.3h3.1V85.7z M693.5,101.2h-3.1V87.3h3.1V101.2z"/>
<path id="_x31_0" class="st1" d="M703.7,98.7v2.4c-0.9,0.2-1.7,0.3-2.2,0.3c-0.8,0-1.6-0.2-2.2-0.5c-0.6-0.3-1-0.8-1.3-1.4
	c-0.3-0.6-0.4-1.5-0.4-2.7v-7.2h-1.7v-2.4h1.9l0.3-3.6l2.6-0.2v3.8h2.8v2.4h-2.8v6.8c0,0.9,0.2,1.5,0.5,1.8c0.3,0.3,0.9,0.5,1.8,0.5
	C703.1,98.7,703.4,98.7,703.7,98.7L703.7,98.7z"/>
<path id="_x31_1" class="st1" d="M712.8,98.7v2.4c-0.9,0.2-1.7,0.3-2.2,0.3c-0.8,0-1.6-0.2-2.2-0.5c-0.6-0.3-1-0.8-1.3-1.4
	c-0.3-0.6-0.4-1.5-0.4-2.7v-7.2h-1.7v-2.4h1.9l0.3-3.6l2.6-0.2v3.8h2.8v2.4h-2.8v6.8c0,0.9,0.2,1.5,0.5,1.8c0.3,0.3,0.9,0.5,1.8,0.5
	C712.2,98.7,712.5,98.7,712.8,98.7L712.8,98.7z"/>
<path id="_x31_2" class="st1" d="M723.8,96.7l2.8,0.4c-0.4,1.3-1.1,2.3-2.1,3.1c-1.1,0.8-2.4,1.2-4,1.2c-1.9,0-3.5-0.6-4.6-1.9
	c-1.2-1.3-1.8-3-1.8-5.2c0-2.1,0.6-3.8,1.8-5.2c1.2-1.4,2.8-2.1,4.8-2.1c2,0,3.5,0.7,4.6,2c1.1,1.4,1.6,3.1,1.6,5.2l0,0.4h-9.5
	c0,0.9,0.1,1.7,0.3,2.3c0.2,0.6,0.5,1.1,1.1,1.5c0.5,0.4,1.2,0.6,2,0.6C722.2,99,723.3,98.2,723.8,96.7L723.8,96.7z M723.6,92.6
	c0-1-0.3-1.8-0.9-2.4c-0.6-0.6-1.3-0.9-2.2-0.9c-0.9,0-1.6,0.3-2.2,0.9c-0.6,0.6-0.9,1.4-1,2.5H723.6z"/>
</svg>
