<svg xmlns="http://www.w3.org/2000/svg" xmlns:xlink="http://www.w3.org/1999/xlink" viewBox="0 0 800 459" xmlns:v="https://vecta.io/nano"><path d="M216.1 54.8c-9.2-5.3-20.2-4.8-29.4-11-5-3.4-13.2-10-18.9-11.5-1.9-.5-9.5-3.7-10.6-5.2-2.4-.3-9.2-5-11.9-6.3-7.2-3.6-14-9.6-20.2-15.5h0l-3.8 2.9c-2.8 1-4.9.3-6.9 2.1-2.4 2.2-1.8 3-1 6.3l5.1 19.1c1 3.8 4.6 5.5 4.8 9.8.3 5-4.1 8.9 3.2 11.3 2.3.7 3.6 3.1 4.4 5 1.1 2.5-.6 2.7-.6 5.2 1.1.4 1.5.1 2.6.1 2.5.5 4.4-.5 4.5 2.4.2 4.1 2.5 8.1 3.5 12.1.8 3.1 4.6 7.8 4.6 10.6-3.2-.8-6.7-5.4-9.2-7.4-3-2.4-5.9-4-9.4-5.3-3.4-1.3-3.1.7-4.4 3.3-1.1 2-3 3.2-4.2 5.2-.8 1.4-.1 3.2-1.1 4.7-2.6 3.6-.5 5.5-2 8.8-1.5 3.5-2 3.1-2 7.2 0 2.1-1 2.6-1.8 4.4-1 2.4 1.3 4.9-.6 6.8-2.4 2.4-3.5 3.2-3.1 6.5.9.4 2.6 1.5 2.8 2.4.5.1 2.3 3 4 3.5 4.1 1.3 4.8 5.4 8.9 6.6 6.7 2.1 12.1 8.6 18.7 10 1.9.4.5 4.4 3.1 5.9 1.2.7 6.3-.1 6.5.2.7 1.4-2.4 9.6-2.9 11.4-.8 3.3-4.5 15.3 1 13.5 7.1-2.2 14.2-5.8 21.5-5.8 3.1 2 5.4 2.9 9.2 2.9 2.9 0 5.3-1.5 8-1.5l.1.2c.2.1.3.3.4.4 0 3.9.3 8.3-.8 12-1.1 3.5-2.3 5.5-2.9 9.1-.4 2.2.4 4.9-.3 7-1.6 4.4-1.8 6.2-1.1 10.7.5 3.3.3 11.1-1.1 14 .8 3.6-2.7 8.9-2.7 12.8 1.3 1.1 3.1-1 4.3-1l.1.1c0 5.1-3.7 15.5-1.7 19.7 2.2.3 5.5-.3 7.1 1.2 1.3 1.4.4 4.5.9 6.3.8 3.2 5.4-.5 6.5 1.8 1 2.3 1 7.2 1 9.8l.4 4.8 12.2.5 49.1 41.3 34.1 46.1c1.7 2.3 1.8 6.5 5.3 7.6 6.1 2 5.2 2.6 6.9 8 1.2 3.8 4.4 5.3 4.4 10.3l.1.1c5.1 1.3 6.2-3.9 5.1-7.3-.7-2.3-1-5-1.9-7.2-.5-1.2-2.6-3.6-2.7-4.5-7.9-2.3-.4-14.4 1-18.5 2.4 0 12.8 5.3 10.7-1.5-.7-2.4-1.8-5.1-.9-7.6.3-.8 3.1-4.9 3.6-4.9 2.1 2.7 1 6.1 5.5 8 4 1.7 7.1-2.8 9.8-5.5l20.2-21.2c5.6-.5 5.7-5.6 8.5-9.3 1.5-1.9 2.7-3.1 4.1-5.5.8-1.3 3.5-4.6 3.8-5.4 3.3 0 1.8 8.1 7.8 7.1 4.2-.7.8-2.1.2-5.4-.6-3 1-6.1 1.6-8.8 1.7-.4 3.4 3.4 4.4 4.5 1.6 2 5.2 1.8 6.5-.3.3 0 .4.1.7.3 0 4 2.9 6.6 5.4 9.2 5 3.4 6.5 8.5 9.2 13.8 2.2 1.2 3.6 3.7 6.3 5.1 1.9 1 5.4 3.5 5.7 5.9 1.9 2.4 1.8 8.4 2.3 11.4.7 4.7.8 8.4 2.8 12.9.7.5 4.4 6.7 4.5 7.5.6 1.2 1.1 2.5 1.1 3.8-.2.2-.5.6-.5.8-2.9 1.7-3.1 3.9-4.6 6.6-2.6 4.5-5.8 8.4-9.2 12.1-4.2 4.6.8 12.4 1.2 18.4.2 2.6-3.3 4.4-4.9 5.9-.9 1-.8 2.4-1.1 3.5-.5 1.4-1.8 2.2-2.7 3.6-3.1 2.7-10.6 15.5-10.6 19.5 4.9 0 14.3 3.7 18.2 6.7 1.6 1.3 11.7-9.9 13.2-11.6 2.8-3.2 6.5-8 9.9-10.5 1.4-1 3.2 1.8 4.8 1.8 3.3 0 .8-5.6 7.3-4.5 2.2.4 14.8.6 15.4 1.5l4.3-.5 10.5-20.6-8.5-5 2.4-3.6 20.8 8.3c3.5 1.4 7.3 1.5 10.8 3.1 2.6 1.2 1.1 5.1 4.4 5.5.6.9 2.2 3.2 3.1 3.7 2.3 1.3 6-1.1 8.6-1.1 1.7 0 3 5.3 3.5 6.6 2.4 3.3 6.8 4.1 10.3 1.5 3.1-2.3 4-1.7 3.3 1.9-.9 4.7.7 9.1.5 13.8l-.4 11.3.2.1c.3 1 7.9-.2 9-.4 2-.5 5.3-.8 5.8-3.1 1.2-5.1 4.4-4.2 6.5-8.4l2.4-4.8c.4-.8 1.9-5.6 2.1-5.7.6-2.4 8.6 2.9 9.2 1.1 1.3-3.8 4.3-11.4 4.3-15.2.2 0 .1 0 .2-.2.9-1.6 1.4-4.1 2.4-5.4 3.6 0 7.3 3.7 10.6 4.1 1.6.2 8.1-7.5 9.2-9.1 1.9-2.6 4.4-5.8 6.8-7.8 1.1-.9 2.3 1 3.3 1.7 1.5 1 6-.7 8.5-.2 1.9.4 7.3 0 9.1-.5.7-1.7-1.8-4.1 1-4.1 4.3 0 3.6-4.6 6.3-6.7 1.6-1.3 8-7 9.6-7 7.8-5 .8-12.6-5.1-15.7-4.4-2.3-17.1-5.3-19.4-9.4-3-.4 5.3-8.3 6.2-9.5 1.2-1.6 8.1-10.9 9.4-10.2.9 3.5 2.2 5.3 5.6 6.8 2.2 1 11.1 3.1 12.2 4.4 4.1 0 4.6-5.2 6.7-8 2.6-3.3 8 3.4 12.9 1.1 3.3-1.6 2.7-1.8 6.4-1.8 2.3 0 5.2-1.6 5.9-3.8 2.7-3.9 3.7-6.4-.8-8.7-2-1-4.1-2.2-6.3-2.6-2-.4-3.5-2.6-5.1-3-.4-1.7 5.1-7.1 5.1-9.9-2-1-3.5-5.5-2.4-7.5.9-1.9.9-5.1 2.1-6.5 1.2-1.3 2.5 0 3.6-2.4.9-2.2-.3-4.6 3-4.8 3.2-.2 4.6-2.6 6.2-5.3.2 0 1.9-2.7 2-2.8h0l-6.9-9.4c-2.9-4-8.7-9.9-12.9-12.3-2.4-1.3-8.3-4.4-9.9-6.6-4.8-.7-9.3-5.7-14.7-5.4l-16.9 1c-3.7.2-7.5 1.6-11.2 1.9-2 0-6.4 2.4-9 2.9-3.5.6-7 1-10.6 1-1.5 0-12.2.1-12.6-1.1-.2 0-.5.1-.5-.1-.2 0-.2.1-.3-.1-.2 0-.2.1-.3-.1-.2 0-.3.1-.3-.1-.2 0-.1 0-.2-.1-.3 0-1.9-.4-2-.6-.3 0-.3-.2-.6-.2-.8-1.6-13.7-3.5-15.5-2.9 0-.1 0-.1-.2-.1-.1-.2-.4-.3-.5-.7-3.2-.8-7.9-3.4-11.5-4.7l-11.7-4.2-.1-.2-7.5 15.2-1.3-.2 2.1-17.8-5.5-3.4-6.2 18.4-2.4-.8 5-19-7.4-6.2-7.7 22-3.4-.2 7.3-24.7-7.6-6.6-11.3 26-3.8-.2 10-26.4c0-.6.1-1.2 0-1.7 0-.4-.2-.9-.3-1.2-.1-.6-.7-2.5-1.3-2.8 0-.2-.6-.8-.8-1-.3-.4-.5-.9-.8-1.3-.4-.6-.4-.6-.6-1.5-2.7-4.4-6-9.8-7.8-14.9-2-5.7-5.9-10.3-8-15.6-1.2-2.9-3.1-6.8-4.9-9.4-1.6-2.3-7.8-7.3-8.2-9.4-3.3-.8-6.7.8-10.4.8l.1-8.5c-1-7.7-.8-14.8-.8-22.6 0-2-1.2-3.3-1.2-5.2 0-3.7 1.1-3.9-.6-7.7-1.1-2.6 0-6.5-1.5-8.7-.5-.7-2.5-2.2-2.6-2.8-1.1.3-5.1 10.2-6.7 10.6-.2-.5-2.3-2-2.9-2.1.4-1.3 1.8-2.2 2.5-3.3 1-1.4 2-3.7 2.6-5.2 1.2-3.2 3.3-6.1 5-9.2 1.9-1.4 2.7-4.3 2.7-6.6 0-1.2-.1-2.5-.3-3.8h0c-2.8 2.2-5.8 4.4-8 7.3-2.2 3-4.9 7.3-8.1 9.4-2.4 1.5-4.2 1.9-6.8 2.7-2.4.7-7 0-9 1.6-.9 0-.6.1-1.7-.2-3.2.5-6.2 2.7-9.7 3.3-3 .5-5.8 1.1-8.8 1.1-5.9 0-11.7-.5-17.4-1.6-3.5-.6-5.7-3.5-8.6-4.2-.2-.3-.1-.2-.4-.3-1.3-1.8-6.4-4.3-8.5-5.5l-12.2-6.2h0c-5.4 1-14.9 1.3-17.3 1l-22-3c-6.1-.8-9.7 2-14.4 4.6-2.6 1.4-4.1 4.5-6.7 5.3-3.5 0-7.6 1.7-11.4 1.9l-9.7.6c-7 .4-13.2 1.9-20.2.2-3.5-.9-6.4-2.9-9.8-3.9-2.3-.7-11.5-8.1-12.2-10-1-2.5-1.2-5.5-2-8.2-1.1-3.6-3.6-7.2-5-11-1.7-4.7 1.2-5.8 1.7-10.4h0l-14.2.2-7.4-3.2h0 0z" fill-rule="evenodd" fill="#fffacd" stroke="#2b2a29" stroke-width=".284" stroke-miterlimit="10"/><g fill="#006"><path d="M360.7 254.2h-3.5v-8.4h-7.4v8.4h-3.5v-19.4h3.5v8h7.4v-8h3.5v19.4zm16.4 0H374c-.3-.9-.4-1.8-.5-2.9-.9 2.1-2.5 3.2-4.9 3.2-1.4 0-2.6-.4-3.5-1.3-.9-.8-1.3-1.9-1.3-3.2 0-3.3 2.9-5 8.7-5h.9v-1.1c0-1.5-1-2.2-3-2.2s-3.1.7-3.4 2.2l-2.8-.4c.2-1.2.8-2.2 1.8-3 1.1-.8 2.6-1.2 4.7-1.2 1.1 0 2 .1 2.7.3s1.3.5 1.8.9.8.9 1 1.4.3 1.4.3 2.6v6.5c.2 1.3.3 2.2.6 3.2zm-3.6-7.3c-4.2 0-6.3 1-6.3 3 0 .6.2 1.1.6 1.5s1.1.6 1.9.6c1.2 0 2.2-.4 2.8-1.2s.9-1.7.9-2.7v-1.2h.1z"/><use xlink:href="#B"/><path d="M391.7 254.2h-1.5v-19.4h3.2v7c.6-1.1 1.2-1.8 1.9-2.1.6-.3 1.3-.5 2.2-.5 1.6 0 2.9.7 3.9 2s1.6 3.2 1.6 5.6c0 2.1-.5 4-1.5 5.5s-2.5 2.3-4.4 2.3-3.4-.9-4.5-2.7l-.9 2.3zm1.8-6.1c0 1.3.3 2.2.8 2.8.6.6 1.3.9 2.2.9s1.6-.4 2.1-1.1c.6-.7.9-2.1.9-4.1 0-1.5-.3-2.7-.8-3.5s-1.3-1.2-2.2-1.2-1.6.4-2.2 1c-.6.7-.9 1.7-.9 2.9v2.3h.1zm24.3 6.1h-3v-3.1c-.8 2.3-2.3 3.4-4.5 3.4-1.3 0-2.3-.4-3.1-1.2s-1.2-1.9-1.2-3.4v-10.1h3.3v9.4c0 1 .2 1.7.7 2s.9.5 1.3.5c.7 0 1.4-.3 2.1-.9s1.1-2 1.1-4v-6.9h3.2l.1 14.3h0z"/><use xlink:href="#B" x="41.1"/><path d="M444.5 237.1v2.5h-1c-.4 0-.8.1-1.1.2s-.7.4-1 1c1.1.9 1.7 2 1.7 3.1 0 1.3-.5 2.3-1.6 3.2-1.1.8-2.5 1.2-4.2 1.2-.8 0-1.6-.1-2.7-.4-.7.3-1 .8-1 1.4 0 .4.2.7.5 1s.8.4 1.5.4h4.3c1.5 0 2.6.4 3.4 1.1.8.8 1.2 1.7 1.2 2.8 0 1.4-.6 2.5-1.9 3.4s-3.1 1.3-5.6 1.3c-4.6 0-7-1.3-7-3.9 0-1.3.7-2.3 2.1-2.9-.9-.8-1.3-1.6-1.3-2.4 0-1.3.8-2.3 2.3-3-1.3-.8-2-1.9-2-3.3 0-1.2.5-2.2 1.5-3.1 1-.8 2.5-1.3 4.5-1.3.9 0 1.8.1 2.8.3.4-1.8 1.6-2.7 3.5-2.7l1.1.1h0zm-7.4 9.3c1.8 0 2.6-.8 2.6-2.5 0-.6-.2-1.2-.7-1.6-.4-.4-1.1-.7-1.9-.7-.9 0-1.5.2-2 .7a2.19 2.19 0 0 0-.7 1.7c0 .7.2 1.3.7 1.7a3.01 3.01 0 0 0 2 .7zm-3.6 7c-.5.4-.7.8-.7 1.2 0 .7.4 1.2 1.2 1.7s2 .7 3.7.7c2.5 0 3.7-.6 3.7-1.9 0-.5-.2-.8-.7-1.1-.4-.2-.9-.4-1.5-.4h-3.4c-.6.2-1.4.1-2.3-.2h0z"/></g><defs ><path id="B" d="M383.8 254.2h-3.2v-14.4h2.9v3.4c.4-1.3 1-2.3 1.7-2.9s1.5-.9 2.3-.9h.4v3.5c-1.7 0-2.7.5-3.3 1.6-.5 1.1-.8 2.1-.8 3.1v6.6h0z"/></defs></svg>