<svg xmlns="http://www.w3.org/2000/svg" viewBox="0 0 800 400" xmlns:v="https://vecta.io/nano">
<path d="M331.7 174.5l-.2-1.6c-.1-.9-.6-2-.6-3-.1 0-.2-.2-.3-.3-2.8 0-6.6-1.4-9.5-.7-.6 2.3-4.1 5.2-5.6 7-.2.2-1.6 1.8-1.8 1.3h-.2l-.1-.1-.1-.1c-.3-1.2-1.1-2.5-1.8-3.5-.7-1.2.6-1.7 1.3-2.7 2.2-3.1 2-5.8-.8-8.2-1.4-1.4-2.5-3.7-4.4-4.6-1.6-.7-3.1-2.5-4.5-3.4-.9-.6-2.9-1.3-3.4-2.2-.9-.1-8-3.9-8.4-4.7-1.3-.2-3.2-2.7-4.5-3.3-3.7-2.1-7.1-4.1-10.3-6.8-2.6-2.3-6-4.5-8.8-6.5-1-.7-4.6-2.9-4.8-3.9-.5 0-.1 0-.8-.7l-30.2-1-.2-4 28.9 1.3c0-5.1-1.8-8.5-7.3-9.3l-20.7-2.9c-3.6-.5-10.5-2.1-14-1.3-.8.2-5.6.5-5.6 1.1 1.4.4 3.1 1.8 5 2.2 1.6.3 3.9.1 5.4.6 2.9 1 1.8 7.5-2.4 7.5 0 1.9 9.1 7.4 10.7 8.9 3 3 7.6 7.9 11.7 8.9 1.1 4.5 2.8 11.6-.5 15.8 0 3.7 1.9 12.1 4.6 14.8 2.6 2.6 6.4 3.5 9.2 6.1 2.1 1.9 4.2 3 6.5 4.4 1.1.7 1.5.5.2 1.9-.5.5-1.9 3.5-2.4 3.6 0 .3-.3.5-.4.8-.2 0-.3.1-.3-.2-.1 0-.3-.2-.3-.3-.1 0-.2-.1-.3-.2-.2 0-.5-.2-.5-.3-1.2-.3-4.8-4.4-6.1-5.3-.8-.6-6.1-3.4-6.1-3.7h-.5c-.2.6-2.6 3-3.2 3.5-1.6 1.3-2.7-.8-4 .4-.2.6-1.6 1.1-3.6 1.5h0l11.8 6c2.1 1.2 7 3.5 8.2 5.3.3 0 .2 0 .4.3 2.9.7 5 3.4 8.3 4 5.5 1 11.2 1.5 16.8 1.5 2.9 0 5.6-.6 8.5-1.1 3.3-.6 6.3-2.8 9.3-3.2 1.1.3.8.2 1.7.2 1.9-1.5 6.4-.8 8.7-1.5 2.5-.8 4.3-1.2 6.6-2.6 3.1-1.9 5.7-6.2 7.8-9 2.3-2.5 5.2-4.6 7.9-6.7h0 0zM111.5 150c0-.3 3.1.4 3.9.4 0 4.6 3.1 10.6 4.4 15.2 1.4 5.1 2.2 10.2 4.8 14.8 3.2 5.7 19.7 11.5 25.6 8.3 4.5-2.4 13.3 2 16.4-1.9 4.2 1.4 8-2.2 11.5-2.7.3-.4 2.3-1.7 2.8-1.8 1.3-1.8 10.8-4.1 13.1-4.6 4.1-1 9.8-1 13.5 1 5.4 3 22.1 3 28.3 1.4 0-.2.1-.2.2-.3.6-.1.4-4.7.5-5.5 0-6.3-.2-11.6.7-17.5.4-.1.4-.9.8-1 0-1.9-.9-3.4-.9-5.7 0-1.9.8-6.1-.2-7.7-2.5-4-7.3-7.2-11.4-9.5-.3-2.4-5.6-7.8-7.9-8.2-.8-1.4-5-5-6.4-6.2-1.1-3.3-4.9-4.5-6.9-7-2.5-3.1-5.5-5.1-9.7-5.1-4.4 0 7.6 16.1 8.3 18.3 2 5.8-5.1-4.7-5.9-5.8-1.6-2.2-9.3-13.5-10.8-13.7-3.1-.4-7.1-.9-10.1-2-4.8-1.8-9.8-2.2-14.6-3.6-3.1-.9-2.2-.5-.8 2.4.7 1.5 2.2 3.7 2.2 5.2 0 2.6-.4 10 4 10-2.7 2-6.6-3.5-6.6-5.8 0-4.7-.3-7.7-3.7-11.5-2.3-2.6-5.7-2.6-8.8-3.5L130 91.8c-9.2-2.4-19.6-6.2-29.1-6.2-2.2 2.2-5.4 6.8-7.6 8.3-.1.4-.2.3-.8.8-1.3.3-4.5 5.3-5.6 6.6-1.5 1.7-1.8 3.6-1.8 5.8 0 5.4 4.6 5.6 8.3 8.3 1.7 1.2 5.8 4.6 6.8 6.1 3.6.5 8.3 7.2 10.9 9.8 0 3.6-1.9 5.1-5 7-1.5.9-7.2 4.6-8.1 5.9-2.2.3-3.8 2.9-6.5 2.9h0l7.2 3.1 12.8-.2h0 0zm311.3 12c.9 1.1 2.3 1.8 3.1 3 .2.3 2.1 2.6 2.3 2.6.3 1 7.2 2.9 8.5 3.4 2.8.9 5.5 1.9 8.4 1.9 0-.1.1-.1.3-.1.4-1.5.6-3.4.6-5.1-1-.2-2.2-1.1-3.3-1.5-2.6-1-5.7-1.9-8.3-2.5-2.4-.6-5.4-2-7.7-2.2l-3.9.5h0zm170 222.3c-.2-.8-3.2-3.8-3.9-4.6-1.5-1.6-2.1-4-3.5-5.5-.2-.9-2.1-5.5-2.7-6.2 0-.3-.1-.5-.3-.8-.7-6.3-2.9-11.8-3.1-18.5l-.8-19.4c-2.9-8.7-4.7-15.9-12-22.2-6.2-5.3-7.9-14.1-8.5-21.8-.4-5.4-2.5-11-2.5-16.2.4-3.4.1-6.9.5-10.4s1.6-6.4 2.9-9.5l8.4-18.8c1.3-2.9 2.5-7.8 4.5-10.1.1-.8.9-1.9 1.3-2.5 0-2.7.6-5.2.1-7.9-.2-1.2-1.8-6-1.3-6.7v-.3c.2-.3.4-.6.7-.9.7-3.4-3.3-13.1-5.8-15.6-1-5.5-11.1-14.1-15-18.2-5.7-6-11.7-9.4-19.4-12.2 0-.9-5.3-2.6-5.8-4h-.2c-.3 1.3-.9 3.9.2 4.9.9.9 2.8 3 2.5 4.3h-2.9c-1.3 0-3.3-2.3-4-2.3-.6-2.6 2.1-4.7 1.6-6.9-1.8.4-4.6 7.4-6.1 8.9-2.5 2.5-6.8 8.9-5.8 12.6.7 2.7-3.4 1.8-5.7 1.8-3.4 0-8.5 1.7-11.4.5-5.9-2.4-5.7-4.9-13.1-3.1-5.9 1.4-17 4.4-22.8 3.3-6.6 0-13.5 2.6-20.2 3-4.5.2-6.1-3.2-8.7-6.5-2.8-3.5-13.2-13.2-17.8-12.1 0 1.7-.6 3.9-.8 5.7s0 5.4-.7 6.9c-1.1 4.5-3.3 8.6-4.4 12.9-.6 2.3-2.6 9-4 10.7 0 2.3-1.3 5.2-1.7 7.4-.5 2.6-.5 5.3-1 7.8-1.1 5.5-2.5 11.7-2 17.4 2.7 1.6 4.8 4.4 7.4 6.3 1.5 1.2 4.2 3.9 6 4.4 0 .1.2.2.3.3 0 1.6 2.9 6.8 4 8.2 1.6 2 3.5 8.6 5.2 9.7 0 .9-1.6 1.2-1.1 3 .4 1.6 1.4 1.4 2.9 1.7.5 1.4.3 4.3.3 6 2.4 10.1-.9 21.5 2.1 31.4 1.1 3.6-.4 10.1 2.6 12.7 2.4 2.1 1.9 7.5 2.6 10.3 2.4 0 5.8 1.7 8.2 2.3l9.5 2.2c9.2 4.8 18.2 9.5 29.1 5.6 5.6-2 11.4-3.4 17.3-4.3 5.2-.8 10.9-4.1 16-4.1 2.2 1.7 9.6 4.5 12.3 5.2 7.6.9 22.3 10.6 27.1 16.3 2.8 3.3 13.6 19.5 17.2 19.5l7 7.2c1.7 1.8 8.4 6.5 8.7 8.1.7.4 1.5 1.1 1.9 1.8.8 1.3 2.5 2.4 3.7 3.5 2 1.9 4.4 3.4 6.7 4.8 2.2 1.4 4 1.7 6.6 1.7v-.1c-2.2-1.7-3.9-3.8-5.9-5.8l-2.5-2.8h0zM419.3 274.8c-.4-3.3-3.7-6.2-4.5-9.6-.6-2.6-1.7-6.2-2.7-8.7-1.8-4.3-.6-12.6-4.5-14.5-3.3-1.6-5.9-4.3-9.3-5.6-4.6-1.8-8.4-1.6-13-2.8-3.3-.8-13.7-5.9-16.2-5.1-.3 2.7.6 6 1.3 8.6.4 1.6 4 5.9 4 6.5-.1 0-.2.2-.3.3-5.1.7-5.6.9-9.3-2.1 0-1.2-1.2-3-1.7-4-1.1 0-5.6 3.3-5.9 4h-.5c-.6-2.3-4.6-5.4-4.9-8-.2-2 4.7-4.7 5.8-6.6 3.7-6.3-3.3-17-7.2-22-1.5-1.9-7.1-11.8-9-11.4-1.6 6.4.1 16.5 1.3 22.8.2.1.2.3.3.5l1.3 7.8c.3 1.8.9 5.5 2 6.9.1 1.4 1.5 3.1 1.7 4.5 1.3 1.6 1.4 4.4 3.4 5.4.4.6 1.2 1.4 1.3 2.1 5 3.5 9.4 10.7 11.4 16.2 1.2 3 3.2 3.3 6.1 4.6 1.5.7 3.2 1.1 4.7 1.8 1 .4 2.1 1.8 2.9 2v.2c-3.6 0-7-1.1-10.5-1.1v.2c1.3.4 4.9 10.3 5 11.7 3.6 2.9 5.7 11.2 9.3 15 6.6 7.2 13.7 12.8 21.8 18.3 4.4 3 16 10.3 21.1 10.3.6-2.4-1.2-8.5-1.3-11.5-.1-2.8-1.9-3.8-1.1-7.3 1.7-7.1-2.8-15.5-2.8-22.7v-6.7h0zM367.5 209c-1.8 0-3.7-.7-5.1-.7l-.2-.1c-.3-1.2-3.5-4-4.2-5.4-1.3-2.4-3.9-4.4-5.6-6.7-2.9-3.8-6.6-8-6.6-13-.1 0-.5-.2-.5-.3-1.5 0-3.3-.8-4.7-.8-.9-2.7-.3-9.4.3-12.4.8-4 .6-7.8.6-12.1.7-1.8.2-4.9.1-6.8-.1-2.2-.7-4.4-.8-6.6-.2-4.2-1.9-8.4-1.9-12.6-.1-.2-.1-.2-.1-.4-.4-.8-.5-1.7-.8-2.5-1-3.4-3.5-8-5.6-10.9-2.1-3-6.1-3.3-6.1-7.5 8.7 0 9.3 3 14 9.9 2.2 3.1 9.8 16.6 3.2 18.3 0 .2-.1.2-.3.3l.2 12.9c.2.1.3.3.5.4 1.8-1.3 5.9-13.5 6.5-16.3.9-4.1 1.3-5.6-1.5-9.1-1.9-2.4-3.3-7.1-4.6-9.9-.5-1-4.4-6.3-3.4-6.8 2.1-1.1 11.1.8 12.1 3 3.2 7.4 6.4 12.9 7.7 21.1.6 3.4.8 6.7.6 10.3-.1 2.1-1 3.9-.3 6.1h.2c0 .1 4.3-.3 4.9-.1 0 1.1.3 2.3.3 3.4.4 5 .8 9.8.8 14.8 0 1.6.6 4.2.1 5.6-.2.6-2.6 3.5-1.5 3.8.1.3 3 1.4 3.5 1.5 1.1.3 2.3.6 3.3.3l.1-.1c0-.2.1-.2.1-.4.1 0 .1-.2.1-.3-.1 0-.1-.2-.1-.4l.8-24.3 4.7 3.4 1.1 16.8 15.4-13.4h5.5l-2.1 7-12.6 12c.2 1.9 2 8.4 4.9 6.7 5.3-3.1 9.4-11.9 10.4-17.9.7-4.2 2-10.1.9-14.2-1.3-.3-4.2.2-5.5.5l-.1.1-.1.1-.1.1c-2.3 9.2-20.4-5-23.2-7.8-3.8-2.4-3.2-1.2-3.7-6-1-8.7 6.5-1.8 9.2 1.3 2.4 2.8 6.6 6.3 9.8 8.3 10.5 6.5-.2-5.9-3.3-8.5-2.7-2.4-16.1-10.8-16.1-13.7.2-.1 1.8-2.7 2.2-3.1.7-.8 5.5 4.1 6.5 4.9l12.4 9.9c4.5 3.6 3.8-2.9 3.8-6.8-4.6 0-17.3-9.8-22-12.2-7.7-3.8-12.9-10.2-.2-7 0-5.2-.8-2.6-4.5-3.5-1.4-.4-7.2-2-7.2-3.6 1.7 0 5-1.1 5-2.8 0-5.4 28.9-7.2 28.9-.6 3.2.8 4.7.1 8.2 2.5 4.3 3 8.4 4.4 12.6 6.8 4.2 2.5 11.3 3.4 14.7 6 0 .7-.1 1.3-.1 2l.1.1c1.6 0 3.3-2 4.7-.8 3.8 3.2.1 14.2 1.2 18.6.2 0 1.4-.2 1.4-.3.2-.1 1.2-7.3 1.4-8.3 2.2 0 3.6 2.6 4.9 4 2.7 2.9 6.8 4.2 9.5 7.2 2.9 3.1 5.4 7.6 6.2 11.9 1.4 3.6.8 8.8 6.6 7.6 1.1-.2 3-.9 4.1-.6.5.2.9.9 1.4 1.3.3.2 1.4.7 1.4.9.2 0 .5.3.5.5.7 0 1.7.2 2.5.2.5-1.6.8-1.4.3-3.7-.5-1.8-3.8-5-5.4-6.2-1.1-.8-5-3.3-5.2-4.6-3.5-.9-8.1-6.8-10.3-9.7-2.9-3.9-7.5-6.1-10.1-10.6-.2-.7-.4-1-.4-1.7 1.1-.4 3-3 3.8-1 .6 1.6 3.8 5.5 5.4 6.3 1.4.7 4.8-2.1 4.8-3.4-1.8 0-3.7-3.1-5-4.1-1.9-1.6 5.3-.2 6.4.2 1.3.5 5 2.6 5.3 3.8.2 0 .3.1.3.3h.2c.3 1 3 2 3.4 3.3h.2c.2.7 2 1.2 2.1 1.7 1.9 0 5.8 3.5 7.7 4.6 5.6 3 10.3 8 5.8 14.5-1.6 2.3-7.1 10.3-6.3 12.6 5.2 0 7-4.4 8.8-9.1 1.8-4.6 2.9-7 .9-11.3-2.3-5-5.2-7.6-9.5-10.7-2.3-1.6-3.3-3.8-5.7-5-1.5-.8-5.2-3.5-6.1-3.8v-.2c6.7 0 14.9 3.8 21.4 5.9 4.8 1.6 10.9 7.3 15.4 7.8 2.8 1.4 5.5 3.5 8.2 4.7 3.1 1.4 5.6 1.3 8.5 2 1.2 5 0 6.4-2.8 11-1.8 2.9-4.9 8.4-5.9 11.5-6.5 0-13.1 1.3-19.6 1.3-3.7 0-11.4 1.5-14.4.3-1-.7-1.1-1.6-1.9-2.4-2.1.3-3.1 2.5-5.8 2.5-4.3 0-10.2-2.1-14.4-3.2l-23.5-6.2c-3.3-.9-6.7-.9-10-1.6-2.3-.5-5.9-1.8-8.1-1.8-.4-.5-.9-1.1-1.2-1.7-.2 0-.1-.1-.3-.3-.2 0-.5-.3-.6-.4-1.5 0-2.3-.3-3.5.6-.5 2.4.3 4.4.4 6.8.3 4.5.3 8.4-.2 12.9-.6 5.4-3.2 10.4-4.9 15.6-.9 3.7-3.4 5.5-3.4 9.9 0 4.8-3.2 10.6-4.1 15.5l-2.4 12.7c-.1 0-.1 0-.2.2-5.1 0-12.5-5-17.4-7-1.1-.5-9.3-4.3-8.2-5.7.8-1.1 4.9-5.2 4.9-6.2-.1 0-.1-.2-.3-.3-.2-.4-1.1-.3-1.6-.6l-2.9-.8h0zm-98.1-97.4c.1.7.2 2.2-.2 2.8l7.9.3c3.2.1-.3 9.6 0 12.6.3 2.5 6.7 6.3 8.7 7.9l18.9 15.3c5.2 4.2 12.4 2 9.7 10.1 1.3 0 2.1 3.8 2.9 3.8.6 0 5.8-8.8 6.6-2.3.7 5.9.4 2.3 4.2 5.1 0-4.3 4.6-2.2 3.7-7.4-1.5-8.1 1.1-17.4-1.7-25.2-3.8-10.7-11.6-21-23.6-21-2.7 0-5.1-2.1-8.1-2.1l-24.1.2-4.9-.1h0zM19 67.4c1.1 1.8 1.8 2.6.8 4.6-1.6 3.3-5.7 2.7-8.9 2.7-1.4 0-2.7-.2-3.5 1.2-2 3.6 4.3 2.9 5.9 2.3 2.4-.9 4.5-1.8 7.1-1.8 2.3 0 6.1 2.3 6.2-1.6.1-1.6-1.9-6.1-3.7-6.4-.1-.2 0-.2-.3-.2l-3.6-.8h0zm576.8 92.9l34.3 24.9 11.9 9.7 16.8-21.6 3.7.8 24.7-24.8 22.7 26.3 16.8-23.9 2-2.2 40.9 21.4 5.9-8.9 3.9-.9h0c-.2-.9-.5-1.8-.5-2.7-.2-4.7 1.8-7.8 4-11.5 1.5-2.6-1.7-4.3-1.2-6.8.3-1.3 1.4-2.8 1.6-4 4.7-2.7.7-6.8 6.8-8.1 2.9-.6 2.4-7.5 2.4-10.1-4.4-1.5-10.4.5-15.2-1.2-1.8-.6-2.2.4-3.9 1.2l-6.7 3.3c-3.9 1.9-2.8-2-3.3-4.9.3-4.1.1-5.5-2.7-8-1.6-1.4-1-6.1-.7-8 1.5-8.1-4.5-9.3-9.2-13.9 0-.5.2-.7.3-1.1 1.7-1.2 2.9-3.5 4.8-4.9s4.5-4.2 6.1-6c3.8-4 8-6.2 8.7-12 .8-.6 1.4-1.1 2.4-1.5.7-1.5 1.2-1.2.7-3.1.8-.5 2.5-5.1 2.5-6.2 0-2-.6-3.6-1.3-5.4-1-2.5-.6-8.5-3-9.6l-8.4-3.9c-3.9-1.8-8-3.2-11.7-5.1-.5-2 .4-5.8.6-8 0-.4.1-.7.1-1.1h0l-12-3.9c-21.8-5.2-43.4-2.3-65.7 1.8L634 23.8l-17.8 3c-4.1.7-7.8 5.3-11.1 5.9-1.1 1.9-4.4 3.9-6.4 4.7-.6.2-1.2.4-1.9.5-.1.4-1.1.9-1.5 1-.1.4-.6.3-1 .3l-.2-.3c-.3-.1 0-.1-.3-.2-.7-3-2.1-5.9-2.7-9.1-.3-1.7-1.2-9.6-2.4-10.3 0-.4 0-.5-.3-.7-.2-.8-1.4-1.1-1.5-1.5h-.5c-1.3-1.9-7.7 1.1-8.9 2.2-4.5 4.1-8.8 6.4-15.1 6.4-2.7 0-6.3-.1-8.9.5-3.5.8-5.9 2.8-9.3 3.9l-8.1 3.4h0l-4.2 4.9c-1.3 1.3-3.8 1.8-5.4 3-1.8 1.3-3.5 3-5.4 4.2-2.9 1.9-4.8 5.1-7.9 1.7-.6-.7-3.7-3.4-3.9-4-.5-.1-5.5-2.7-5.6-2.9-.6-.1-2.2-1.2-2.4-1.7-.3-.1-.3 0-.3-.3-.3-.1-.3 0-.3-.3-.3-.1-.4-.2-.5-.5-.3-.1-.8-.4-.8-.7-.2-.1-.3-.1-.5-.2-.2-.9-7.1-2.3-8.4-2.5-1.9-.3-6.5-5.8-6.9-7.4-.2-.1-1.3-1.5-1.3-1.7-.3-.1-.6-.3-.7-.7-.3-.1-.3 0-.3-.3h-.3V24c-.5-1.8-2.9-.5-3.9 0h0l-5.6 3.7c-3.3 2.6-5.7 4-7.1 8.3-1.4 4.2-5.1 8.6-7.1 12.5-1.1.3-2.2 1.3-3.7 1.7-1.3.4-2.2-.2-3.4-.2-.2-.5-.9-.2-1-.7-.4-.1-1.5-.7-1.7-1-2.2-.6-5.2-4.9-6.6-6.7-1.8-2.4-4.7-2.6-7.1-3.7-1.6-.7-2.1-3-3.4-3.5-.7-2.9-16.1-2.6-19-2.4h0l-17 1.3c.5 5.3.8 14.5 2.2 21.2l-11.1.8-7.2-9.4-11.8 31.5 12.9 11 .3 3.7h0c3.3.1 7.1.5 8 1.8 3.9 1.5 9.3 1.3 13.5 2.4 2.5.6 6.5 1.9 9 1.9-3 .7-3.2.9-.8 2.5 1.8 1.1 7.1 4 9.1 4 1.6 0 7.9-2.8 8.6-2.1l15.6-.6.6 1.8-20.6 2.2 4.2 2.8 17.2-.3.8 1.9-12.5.7 14.2 5.6 14.2-2.8-5.8-15.7 9-2.2v1.4l-6.9 2.3 5.6 12.1c7.7 0 15.1 1.6 22.5 2.9 4 .7 16.1 4.8 17 8.3-8 0-15.2-6.9-23.7-7.2-2.2-.1-17-3.1-11.4 2.5 1.9 1.9 8.3 2.8 11 3.3 7.3 1.3 13.3 4.4 19.9 6.6 5.8 1.9 11.4 6.4 17.1 8.9 1.3.6-5.9-13.8-6.7-15.9-1-2.7-4.4-7.1-3.3-8.9 2-3.2 4.3 3 5.1 4.2 1.5 2.1 3.4 5.2 4.2 7.6.5 1.5-2.7-.8-1.9.6.7 1.1.8 4.3 2 4.6 1.3.4 4 1.1 4.7 2-3.1 0-.6 5.6.1 6.8 1.1 2 8 4.7 8.3 6.2 6 .8 11.6 2.1 17.9 2.1 5.2 0 5.9-.7 10-3.5 3.8-2.5 13.6 1.9 17.6 3.1 2.1.6 4.1 2 6.1 2.4 1.7.4 4.4.3 6 .9l.1.3-6.1 1.3c-.7 2.1-1.4 3.1-.2 5.2 1.3 2.2 1.9 4.1 5 4.1 1.5 0 3.2-.6 4.8-.6.9 0 3.5 0 4.3-.3.4.3 1.8 0 2.1.5.2 0 .2 0 .3.1l.3.4h0zm.1 47.7l5.6 8.3 2.5 6.8-4.5 9.1-.6 12.3h.1c-10.2-3.2-20.5-8.9-20.5-17.3-.4-.1-1.2-3-1.2-3.4.2-3 .6-5.1 1.2-7.8.6-2.9 1.9-4.9 1.9-8.2 0-6.2-.8-13.1-3.4-18.7-.6-1.3-2.1-2.8-2.3-4-.4-.3-1-1.3-1.3-1.7-.7-3.6-6.5-10-9-12.7-3.3-3.5-6.5-8.5-10.7-11l-9.2-5.3c-1.1-.6-2.4-2.5-3.4-2.9v-.3h.2c.2-.5 3-.2 3.5-.2 1.3 0 2.5-.3 3.8-.3 2.5 0 5.9.9 8.2.4 7-1.3 9.7 2.4 14 6.4 2.7 2.5 5.8 4.3 8 7.4.1.2.7 1 .9 1.1.1.6 1.1 2.7 1.4 3.2.5.7.8 2.3.8 3.2 0 2.9-.1 6.1-.8 8.9-.5 1.9-.3 3.4-1.3 5.2l2.6 12.2 11.9-1.9 1.6 11.2h0 0z" fill-rule="evenodd" fill="#d2dbf0" stroke="#2b2a29" stroke-width=".284" stroke-miterlimit="10"/>
<path d="M563.2 101.2h-3.4V93h-7.2v8.1h-3.4V82.4h3.4v7.7h7.2v-7.7h3.4v18.8zm15.8 0h-3c-.3-.8-.4-1.8-.5-2.8-.8 2.1-2.4 3.1-4.7 3.1-1.4 0-2.5-.4-3.3-1.2s-1.3-1.8-1.3-3.1c0-3.2 2.8-4.8 8.4-4.8h.9v-1c0-1.4-1-2.2-2.9-2.2s-3 .7-3.2 2.2l-2.7-.4c.1-1.2.7-2.1 1.8-2.9 1-.7 2.6-1.1 4.5-1.1 1.1 0 1.9.1 2.6.3s1.2.5 1.7.9.8.9 1 1.4.3 1.3.3 2.5v6.3c0 .9.1 1.8.4 2.8zm-3.4-7.1c-4 0-6.1 1-6.1 2.9 0 .6.2 1.1.6 1.5s1 .6 1.8.6c1.2 0 2.1-.4 2.7-1.1.6-.8.9-1.6.9-2.6v-1.3h.1zm27.5 7.1h-3.3v-8.6c0-1.8-.8-2.7-2.4-2.7-.9 0-1.7.3-2.2 1-.6.7-.8 1.7-.8 3v7.3H591v-8.6c0-1.8-.7-2.7-2.2-2.7-.9 0-1.7.4-2.3 1.1s-.9 1.7-.9 3v7.3h-3.2v-14h3v3c1-2.2 2.5-3.2 4.6-3.2 2 0 3.4 1.1 4 3.2 1.1-2.2 2.7-3.2 4.6-3.2 1.3 0 2.4.4 3.2 1.3.8.8 1.2 1.9 1.2 3.1l.1 9.7h0zm5.2 0h-1.4V82.4h3.1v6.8c.6-1 1.2-1.7 1.8-2a4.65 4.65 0 0 1 2.1-.5c1.5 0 2.8.6 3.8 1.9s1.5 3.1 1.5 5.4c0 2.1-.5 3.8-1.5 5.3s-2.4 2.2-4.2 2.2c-1.9 0-3.3-.9-4.3-2.6l-.9 2.3h0zm1.7-6c0 1.2.3 2.2.8 2.7.5.6 1.2.9 2.1.9.8 0 1.5-.3 2.1-1s.9-2 .9-4c0-1.4-.2-2.6-.8-3.3-.5-.8-1.2-1.2-2.1-1.2s-1.6.3-2.1 1c-.6.7-.8 1.6-.8 2.8l-.1 2.1h0zm23.4 6h-2.9v-3c-.8 2.2-2.3 3.3-4.4 3.3-1.3 0-2.3-.4-3-1.2S622 98.4 622 97v-9.7h3.2v9c0 1 .2 1.7.7 2 .4.3.9.5 1.3.5.7 0 1.4-.3 2.1-.9s1.1-1.9 1.1-3.9v-6.7h3.1v13.9h-.1zm6.9 0h-3.1V87.3h2.8v3.3c.4-1.3 1-2.2 1.7-2.8s1.4-.9 2.2-.9h.4v3.4c-1.6 0-2.6.5-3.2 1.5-.5 1-.8 2-.8 3v6.4h0zm18.8-16.6V87h-1c-.4 0-.8.1-1.1.2s-.6.4-.9 1c1.1.9 1.7 1.9 1.7 3 0 1.2-.5 2.2-1.5 3.1-1 .8-2.4 1.2-4.1 1.2-.7 0-1.6-.1-2.6-.4-.6.3-1 .7-1 1.4 0 .3.2.7.5.9.3.3.8.4 1.4.4h4.1c1.4 0 2.5.4 3.3 1.1s1.2 1.6 1.2 2.7c0 1.3-.6 2.4-1.8 3.3s-3 1.3-5.4 1.3c-4.5 0-6.7-1.3-6.7-3.8 0-1.2.7-2.2 2-2.8-.9-.7-1.3-1.5-1.3-2.3 0-1.2.7-2.2 2.2-2.9-1.3-.8-1.9-1.9-1.9-3.2 0-1.2.5-2.1 1.4-3 .9-.8 2.4-1.2 4.3-1.2.9 0 1.8.1 2.7.3.4-1.8 1.5-2.6 3.3-2.6l1.2-.1h0zm-7.1 9c1.7 0 2.6-.8 2.6-2.4 0-.6-.2-1.1-.6-1.6-.4-.4-1-.6-1.9-.6-.8 0-1.5.2-1.9.7-.5.4-.7 1-.7 1.7s.2 1.2.7 1.6a2.96 2.96 0 0 0 1.8.6zm-3.4 6.8c-.5.4-.7.8-.7 1.2 0 .6.4 1.2 1.1 1.7.8.5 1.9.7 3.6.7 2.4 0 3.6-.6 3.6-1.9a1 1 0 0 0-.6-1c-.4-.2-.9-.4-1.4-.4h-3.3c-.7 0-1.4-.1-2.3-.3h0zm17.4-7.7v2.6h-6.9v-2.6h6.9zm20.4 8.5H683V84.7l-5.2 16.4H676l-5.2-16.4v16.4H668V82.4h5.3l3.9 12.1 3.9-12.1h5.3v18.8h0zm7.1-15.5h-3.1v-3.3h3.1v3.3zm0 15.5h-3.1V87.3h3.1v13.9zm10.2-2.5v2.4c-.9.2-1.7.3-2.2.3-.8 0-1.6-.2-2.2-.5s-1-.8-1.3-1.4-.4-1.5-.4-2.7v-7.2h-1.7v-2.4h1.9l.3-3.6 2.6-.2v3.8h2.8v2.4h-2.8v6.8c0 .9.2 1.5.5 1.8s.9.5 1.8.5h.7 0zm9.1 0v2.4c-.9.2-1.7.3-2.2.3-.8 0-1.6-.2-2.2-.5s-1-.8-1.3-1.4-.4-1.5-.4-2.7v-7.2H705v-2.4h1.9l.3-3.6 2.6-.2v3.8h2.8v2.4h-2.8v6.8c0 .9.2 1.5.5 1.8s.9.5 1.8.5h.7 0zm11-2l2.8.4c-.4 1.3-1.1 2.3-2.1 3.1-1.1.8-2.4 1.2-4 1.2-1.9 0-3.5-.6-4.6-1.9-1.2-1.3-1.8-3-1.8-5.2 0-2.1.6-3.8 1.8-5.2s2.8-2.1 4.8-2.1 3.5.7 4.6 2c1.1 1.4 1.6 3.1 1.6 5.2v.4h-9.5c0 .9.1 1.7.3 2.3s.5 1.1 1.1 1.5c.5.4 1.2.6 2 .6 1.4 0 2.5-.8 3-2.3h0zm-.2-4.1c0-1-.3-1.8-.9-2.4s-1.3-.9-2.2-.9-1.6.3-2.2.9-.9 1.4-1 2.5h6.3z" fill="#006"/></svg>