<svg xmlns="http://www.w3.org/2000/svg" xmlns:xlink="http://www.w3.org/1999/xlink" viewBox="0 0 431.7 631.8" xmlns:v="https://vecta.io/nano"><path d="M187.3 574.8c1.4-.7 4.7-2.5 5.4 0l.2.2h.5c.1.4 0 .4.5.5.1.5.5.8.9.9.1.2 1.6 2.3 1.9 2.3.6 2.3 6.9 9.9 9.5 10.3 1.8.3 11.3 2.3 11.6 3.5.3.1.4.2.7.2.1.4.7.8 1.2.9.1.5.2.6.7.7.1.4 0 .4.5.5.1.4 0 .4.5.5.2.7 2.5 2.1 3.3 2.3.1.3 7 3.9 7.7 4 .2.9 4.5 4.7 5.4 5.6 4.2 4.7 6.9.3 10.9-2.3 2.6-1.7 5-4 7.4-5.8 2.2-1.7 5.6-2.3 7.5-4.2l5.8-6.8h0l-8.1-11.7c-.6-1.4-2.5-8.5-3.5-8.9 0-3.2 0-2.7.7-5.6.7-.2-.3-.1.7-.2.2-.6.8-.8.9-1.2.3-.1 2-1.7 2.1-2.1.8-.2 1.1-1.2 1.9-1.4 1-4.9 12.7-7.9 13.5-11.2.9-.1.9-.8 1.6-.9.1-.5.5-.8.9-.9.1-.6.4-.7.9-.7 1.3-5.3 35.9-8.7 37.7-16.1 2.8-.7 4.4-5.8 8.1-6.5.2-.8 5.7-6.1 6.8-7.5 1.1-1.5 3.9-7.9 5.4-8.2.1-.5 10.2-6.5 12.6-9.1 1.9-2 8.1-13.5 9.3-13.8.7-5.1 6.5-9.8 6.5-16.6-.4-.1-1.3-.5-1.4-.7-2.6 0-5.3-.5-7.7-.5-1.9-3.8-2.5-6.6-3.5-10.7l-.2-.2c-20.7 0-46.2-8-44-33.4 0-4.6-2.4-6.3-3.3-9.8-.4-.1-1.1-.5-1.2-.9-5.1-1.3-9.9-11.1-14.2-12.4-.5-2.4-8-9.7-10.2-11.4-4.3-3.4-1.9-9.3-1.9-14.5 0-15.5.9-16.8 10.9-28.2 4.7-5.3 6.5-14.1 8.1-20.8.4-.1 1.2-.9 1.4-.2 1.9 0 15.9 6 16.8 3.5 1 0 1.4-.7 2.3-.7.1-.5.9-.7 1.4-.7.1-.4.5-.5.9-.5.3-1.2 9.5-8.4 10.9-8.4.2-.5.1 0 .2-.5l17.9 1.4c2.1.2 14.8 4.2 15.4 2.6 1.7-.4 13.2-15.5 14.2-17.5 4.4-.9 21.2-16.7 10.5-19.4-.1-.3-.2-.4-.2-.7-3.4 0-12.5-1.3-16.5-2.1-.1-.3-1.4-2.1-1.4-2.1 0-4.4 2.1-6.8 1.6-11.9l-43.8 12.6-.5-7.7-7-8.9-2.1-18.2-14.9 11-10.9.7-8.4 3.7-4.2 6.1-.5 8.4-12.6.9-24.3-25.9-23-1.6-12.3-14.7 17-26.8 26.3-40.1 1.2-10.3-7.9-1.4 1.6-89.6 23-28.5h0c-21 1.3-31.4 4.4-47.6 1.8-.9-.7-14.9.2-16.8.7-5.7 1.4-10.6-.4-16.2-.4-3.8 0-6.1 2.1-10.2 1.1-4.8-1.2-6.3.2-10.8 1.4s-8.6-1.7-13-1.7l-16.5 24.7c0 1.4-1.4 6.8-1.9 8.4-1 1.8-5.7 7.8-2.7 9.8 0 4.1-.3 5.1-1.7 9.2-.9 2.6-1.9 9.5 1.2 11.1.3 2.1 1.5 3.2 1.3 5.8-.2 2.3-.5 4.2-.3 6.6.2 4.8 1.3 10.5 2.2 15.3 2 11.3-2.4 15.4-9.1 23-1.3 1.3-4.2 2.3-5.1 3.7-.4.1-.5.4-.9.5-1 3.8 1.3 10.6 2.2 14.5 1.3 5.1 1.5 12.3.6 17.5-.3 1.9-.9 1.5-1.9 2.8-1.5.2-3.2 1.6-4.8 1.8-1.5.1-3-.9-4.3-1.5-3.3-1.6-4.9-4.7-9-3.6l-3.5 3-8-6.1-2.3 2.8h0l24.1 38.9c1.4 2.3 2.4 3.2 1.7 5.8-.7.2-1.3.7-2.1.7-.1.4 0 .2-.5.2-.3.6-1.2 1-1.4 1.9-3.8 1-2.6 20.1-2.6 23.8 0 10.1-1.9 17.1-3.7 26.1l-5.6 8.4c-2.7.7-12.6 4.3-14.9 5.8-2.7 1.8-8.6 11-10.2 11.4-.1.4-.4.5-.5.9-.8.2-1.5 1.4-1.9 2.1-4.3.6-14 11.5-21.2 13.3-.1.3-.3.4-.7.5-.2.6-.7.4-.9 1.2-3.8 1.3-9.3 17.8-8.1 18.2 0 1.4.9 2.5.9 4 .5.2 0 .1.5.2v.5c.4.1.2.3.7.5.2.5 2 1.3 2.6 1.4 1.7 5 13.5-3.7 14.9-4 .2-1 1.2-1 1.4-1.9 4.4-1.1 4-4.8 10-3.3l.2 9.6c-.4.1-.2 0-.2.5-.4.1-.2 0-.2.5l-.2.2c-.5.1-.6.2-.7.7-6.4 2.1-7 26.8-7 33.4 0 4.4 0 6.6.9 10.5.4.1 1.3 1.6 1.4 2.1.4.1.2.3.7.5.1.4.3.2.5.7l.2.2c2.2.6 5.1 3.1 7 3.7l.7 14c.4.1.2.3.2.7.4.1.2 0 .2.5.4.1.2.3.2.7.3.1.8 1 .9 1.4.2.1.8.6.9.9.8.2 4.2 1.6 4.4 2.3.4.1.7.6.7 1.2 1.7.6 0 4.5-.2 5.4-5.5 1.4-9.6 3.7-16.1 3.7l-.2.2c0 3.2 3.3 5.3 3.3 7.9.8.3-.2 2.1-.2 2.6l-.2.2c-.4.1-.4 0-.5.5h-.5c-.2.7-1.9 1.1-2.1 1.9-.3.1-.4.2-.7.2-.5 2.1-.5 3.3 0 5.4l.2.2 5.4 1.6c.1.3.3.4.7.5.8 2.4 1.4 4.4 1.4 7.5-1.6.4-3.9 1.4-5.8 1.9-.8 3.1-.7 6.3-.7 9.8l.2.2c.5.1.6.2.7.7.4.1 1.7.6 1.9 1.2.9.2 1.5 1.4 2.3 1.6.1.3.2.4.5.5 0 .5.3 1 .7 1.2.1.5.1.5.5.7 0 1 5 8.9 5.8 9.3 1.4 7 12.3 13.6 12.3 21 .4.1.5.5.5.9.4.1.2 0 .2.5.3.1.4.2.5.5h.5c.1.4 0 .2.5.2 0-.1 1-.9 1.2-.9v-.5c.6-.1 1.7-2 1.9-2.6 3.5-.9 11.6-13.9 15.4-17 2.6-2.2 14.8-8.1 18.4-8.9 3.8-7.6 14.7-7.2 18.2-.2 1.8 3.6 3.5 15.7 3.5 19.8.2.1.6.8.7 1.2l.2.2c.7.2 1.1.9 1.9.9.1.2 4 1.8 4.4 1.9.3 1.2 2.6 2.4 2.6 3.7.1 1.3.7 5.6 2.6 6.1.3 1.2 2.7 2.3 3.5 3.5.8 1.3 1.8 2 2.3 3.3 2.2 5.6 1.7 11.1 3.3 16.8.7 2.5 1.3 5.1 2.1 7.7.9 3 2.6 6.5 3.3 9.6l5.8 14.6h0 0z" fill-rule="evenodd" fill="#fffacd" stroke="#2b2a29" stroke-width=".284" stroke-miterlimit="10"/><g fill="#006"><path d="M125.1 365.4h-4.7v-11.3h-9.9v11.3h-4.7v-25.9h4.7v10.7h9.9v-10.7h4.7v25.9zm21.8 0h-4.1c-.4-1.2-.6-2.5-.7-3.9-1.1 2.9-3.3 4.3-6.5 4.3-1.9 0-3.4-.6-4.6-1.7s-1.7-2.5-1.7-4.2c0-4.4 3.9-6.6 11.6-6.6h1.2v-1.4c0-2-1.4-3-4.1-3-2.6 0-4.1 1-4.5 3l-3.7-.6c.2-1.6 1-2.9 2.5-3.9 1.4-1 3.5-1.6 6.3-1.6 1.5 0 2.7.1 3.6.4.9.2 1.7.7 2.4 1.3.6.6 1.1 1.2 1.3 1.9s.4 1.9.4 3.5v8.7c.1 1.2.3 2.4.6 3.8zm-4.8-9.8c-5.6 0-8.4 1.3-8.4 4 0 .8.3 1.5.8 2 .6.6 1.4.8 2.6.8 1.6 0 2.9-.5 3.7-1.6.8-1 1.3-2.2 1.3-3.6v-1.6h0zm38.1 9.8h-4.5v-12c0-2.5-1.1-3.7-3.3-3.7-1.3 0-2.3.5-3.1 1.4s-1.1 2.3-1.1 4.2v10.1h-4.6v-12c0-2.5-1-3.8-3.1-3.8-1.3 0-2.3.5-3.2 1.5s-1.3 2.4-1.3 4.1v10.1h-4.5v-19.2h4.2v4.1c1.4-3 3.5-4.5 6.4-4.5 2.8 0 4.7 1.5 5.5 4.5 1.5-3 3.7-4.5 6.4-4.5 1.8 0 3.3.6 4.5 1.7 1.1 1.2 1.7 2.6 1.7 4.3v13.7h0zm7.2 0h-2v-25.9h4.3v9.4c.8-1.4 1.6-2.4 2.5-2.8.8-.5 1.8-.7 2.9-.7 2.1 0 3.8.9 5.2 2.7s2.1 4.3 2.1 7.4c0 2.9-.7 5.3-2 7.3-1.4 2-3.3 3-5.9 3s-4.5-1.2-6-3.6l-1.1 3.2h0zm2.4-8.2c0 1.7.4 3 1.1 3.8s1.7 1.2 2.9 1.2c1.1 0 2.1-.5 2.9-1.4s1.2-2.8 1.2-5.5c0-2-.3-3.5-1-4.6s-1.7-1.6-2.9-1.6-2.2.5-2.9 1.4c-.8.9-1.2 2.2-1.2 3.9l-.1 2.8h0zm32.4 8.2h-4v-4.1c-1.1 3-3.1 4.5-6.1 4.5-1.7 0-3.1-.5-4.2-1.6-1-1.1-1.5-2.6-1.5-4.5v-13.4h4.4v12.5c0 1.4.3 2.3.9 2.7s1.2.6 1.8.6c.9 0 1.9-.4 2.9-1.3 1-.8 1.5-2.6 1.5-5.4v-9.2h4.3v19.2h0z"/><use xlink:href="#B"/><path d="M257.8 342.5v3.3h-1.3c-.6 0-1.1.1-1.5.2s-.9.6-1.3 1.4c1.5 1.2 2.3 2.6 2.3 4.1 0 1.7-.7 3.1-2.1 4.2s-3.3 1.7-5.7 1.7c-1 0-2.2-.2-3.5-.5-.9.4-1.3 1-1.3 1.9 0 .5.2.9.6 1.3s1.1.6 2 .6h5.7c1.9 0 3.5.5 4.6 1.5s1.7 2.3 1.7 3.8c0 1.8-.8 3.3-2.5 4.5s-4.2 1.8-7.5 1.8c-6.2 0-9.3-1.7-9.3-5.2 0-1.7.9-3 2.8-3.9-1.2-1-1.8-2.1-1.8-3.2 0-1.7 1-3 3.1-4-1.8-1.1-2.7-2.6-2.7-4.5 0-1.6.6-3 2-4.1 1.3-1.1 3.3-1.7 5.9-1.7 1.2 0 2.5.1 3.7.4.6-2.4 2.1-3.7 4.6-3.7l1.5.1h0zm-9.8 12.4c2.4 0 3.5-1.1 3.5-3.3 0-.8-.3-1.6-.9-2.1-.6-.6-1.4-.9-2.6-.9-1.1 0-2 .3-2.7.9-.6.6-.9 1.4-.9 2.3s.3 1.7.9 2.3c.7.5 1.6.8 2.7.8zm-4.8 9.4c-.6.6-.9 1.1-.9 1.7 0 .9.5 1.6 1.6 2.3 1 .7 2.7 1 5 1 3.3 0 5-.8 5-2.6 0-.6-.3-1.1-.9-1.4s-1.3-.5-2-.5h-4.6c-1 0-2-.2-3.2-.5h0zm24.1-10.6v3.6h-9.5v-3.6h9.5zm-141.9 47.4h-4.5l-9.8-16.6c-.1-.3-.4-.7-.7-1.2-.2-.3-.4-.7-.7-1.2v19h-3.8v-25.9h5.2l9.1 15.3c.1.1.6 1.1 1.7 2.8v-18.1h3.7l-.2 25.9h0zm13 .4c-2.8 0-5-1-6.5-3.1-1.5-2-2.2-4.4-2.2-7 0-2.8.8-5.2 2.5-7.1s3.8-2.8 6.6-2.8c2.6 0 4.7.9 6.3 2.8 1.7 1.8 2.5 4.2 2.5 7.2s-.9 5.5-2.6 7.3c-1.8 1.8-4 2.7-6.6 2.7h0zm.1-3.5c2.9 0 4.4-2.2 4.4-6.5 0-2-.4-3.5-1-4.6-.7-1.1-1.8-1.7-3.2-1.7-1.5 0-2.6.6-3.3 1.8s-1.1 2.7-1.1 4.7c0 2.1.4 3.7 1.1 4.8.7.9 1.8 1.5 3.1 1.5h0z"/><use xlink:href="#B" x="-75.9" y="35.7"/><path d="M180.1 401.1h-4v-3.9c-1.1 2.9-3 4.3-5.7 4.3-2.4 0-4.2-1-5.4-3-1.3-2-1.9-4.4-1.9-7.3 0-2.7.7-5.1 2-7.1s3.2-3 5.6-3c2.5 0 4.2 1.1 5.2 3.4v-9.3h4.3v25.9zm-4.3-11.3c0-1.6-.4-2.8-1.1-3.6-.7-.9-1.7-1.3-2.9-1.3-1.3 0-2.3.6-3 1.7s-1.1 2.8-1.1 5c0 4.3 1.3 6.4 4 6.4 1.1 0 2-.5 2.8-1.4s1.2-2.1 1.2-3.5l.1-3.3h0z"/></g><defs ><path id="B" d="M231.7 365.4h-4.3v-19.2h3.9v4.6c.6-1.8 1.3-3.1 2.3-3.9s2-1.2 3-1.2h.6v4.7c-2.2 0-3.7.7-4.4 2.1s-1.1 2.8-1.1 4.1v8.8h0z"/></defs></svg>