<svg xmlns="http://www.w3.org/2000/svg" viewBox="0 0 431.7 631.8" xmlns:v="https://vecta.io/nano"><path d="M76.7 211.9l-15.3 18.9-1.1 59.5 5.3.9-.8 6.8-17.5 26.6L36 342.4l8.2 9.8 15.3 1.1 16.2 17.3 8.3-.6.3-5.6 2.8-4 5.6-2.5 7.3-.5 9.9-7.3 1.4 12.1 4.6 5.9.3 5.1 29.1-8.4c.3 3.4-1.1 5-1.1 7.9l.9 1.4c2.7.5 8.7 1.4 11 1.4 0 .2.1.3.2.5 7.1 1.8-4 12.3-7 12.9-.7 1.3-8.3 11.3-9.4 11.6-.4 1.1-8.8-1.6-10.2-1.7l-11.9-.9c-.1.3-.1 0-.2.3-1 0-7.1 4.8-7.3 5.6-.3 0-.5.1-.6.3-.4 0-.8.1-.9.5-.6 0-.9.5-1.5.5-.5 1.6-9.8-2.3-11.1-2.3-.2-.5-.6.1-.9.2-1.1 4.4-2.3 10.3-5.4 13.8-6.7 7.6-7.3 8.5-7.3 18.7 0 3.4-1.6 7.4 1.2 9.6 1.5 1.2 6.5 6 6.8 7.6 2.9.8 6.1 7.4 9.4 8.2.1.3.5.5.8.6.6 2.3 2.2 3.5 2.2 6.5-1.5 16.9 15.5 22.2 29.2 22.2l.2.2c.7 2.8 1.1 4.6 2.3 7.1 1.6 0 3.4.3 5.1.3.1.2.7.4.9.5 0 4.5-3.8 7.6-4.3 11-.8.2-4.9 7.8-6.2 9.1-1.6 1.7-8.3 5.7-8.3 6-1 .2-2.8 4.4-3.6 5.4-.7.9-4.3 4.4-4.5 5-2.5.5-3.5 3.9-5.4 4.3-1.2 4.9-24.2 7.2-25 10.7-.4 0-.5.1-.6.5a.9.9 0 0 0-.6.6c-.5.1-.5.5-1.1.6-.6 2.2-8.3 4.2-9 7.4-.5.1-.7.8-1.2.9-.1.3-1.2 1.3-1.4 1.4-.1.3-.5.4-.6.8-.7.1 0 0-.5.2-.5 1.9-.5 1.6-.5 3.7.7.2 1.9 5 2.3 5.9l5.4 7.7h0l7.4-3.1c3.1-1 5.3-2.8 8.5-3.6 2.4-.6 5.7-.5 8.2-.5 5.8 0 9.7-2.1 13.9-5.9 1.1-1 7-3.7 8.2-2h.5c.1.4 1.2.7 1.4 1.4.3.2.3.3.3.6 1 .6 1.9 7.9 2.2 9.4.6 2.9 1.8 5.6 2.5 8.4.3.1 0 .1.3.2l.2.3c.4 0 .8 0 .9-.3.4-.1 1.3-.6 1.4-.9.6-.1 1.1-.3 1.7-.5 1.8-.8 4.9-2.6 5.9-4.3 3-.6 6.4-4.8 10.2-5.4l16.4-2.8 37.6-6.8c20.5-3.7 40.3-6.4 60.3-1.6l11 3.6h0c.5-2.6 2.4-4.5 3.6-6.9 1-2.1.8-3.9 1.2-6 1.6-3.8 2.2-6.5 2.2-10.6 0-2.5-.1-6.4 1-8.5 2.8-5.2 9.1-7.2 12-12 2.1-3.4 1.7-10.3 4.9-12.5 2.3-1.6 2.9-.3 4.5.2 0 1-1.1 4.1-.9 4.5.7 1.9 1.8 3.3 2.6 5.1l18.7-2.5 37.6-4.6 4 7.7 6-5.7-4.6-7.8c-1.1-2.4-2.8-4.4-3.9-6.7-1-2.1-3.2-4.2-3.9-6.4-1.4-4.7-3.8-9.2-5.3-13.8-1.4-4.6 3.5-.9 4.6-3.9.4-1.2.2-3.2 1.7-3.6.1.1 0 .1 0 .2 5.3-8 2.1-11.2.1-19.3-.9-3.6 1.3-17.9-4.3-18.6-4.1-4.2-10.4-6.9-4.6-13.5 2.7-4.3 8-6.1 12.1-8.6 3.7-2.3 4.6-6.9 7.6-9.1 2.1-1.5 4.6-2.1 7-3.1s1.1-5.9 1.5-7.6c1.4-.3 2.8-1.6 3.9-2.4.8.5 5.1 2.9 5.3 3.7l9-8c4.7-4.2 3.8-2.7 2-7.7-.8-2.2.1-5-.7-7.1.4-.8.2-1.5.2-2.4.1 0 .1-.2.3-.2.3-1.1 10.4-4 9.6-7.4-3.3-.8-9.2-3.2-12.2-5.1-4.7-3-9.2-2.9-14.5-2.9-3.9 0-8-1.2-11.7-.3-4.6 1.1-7.7.6-10.4-3.7-2.2-.3-4-1.2-6.6-1.2-2.8 0-2.4-.5-.9-2.7 2-3.1 4.3-5.1 6.2-8.1s10.3-17.9 5.9-20.4c-.1-.4-.3-.5-.7-.9l-1.4-7.2c-.5-2.7-2.6-3.6-1.9-6.3 1.8-1 1.6-4.2.4-5.5-1.4-1.6-4.5-.6-6.4-1.5-1.5-.6-2-1.7-3.8-1.8-10.4-.5-4.1-7.4-6.7-12.6-.8-1.6-5.4-10.6-6.2-10.5l-7.2.3c-2.5.1-6.6 1.8-7.5-1.9-.8-.6-2.2-2.5-2.9-3.3-1.9-2.5.3-3.9.7-6.5.3-2-1.1-4.5-2.6-5.8-2.7-2.4-6.9 6.7-11.4 2.9-1-.8-4.3-5.1-4.5-6.2-1.5-.9-2.8-2.4-4.5-3.4s-2.9-3.1-4.5-3.9c-6.9-3.8 3.5 9-2.2 8.1-2.9-.5-4.6-2.8-4.9-5.9-.1-1.7.9-2.6.9-4.1 0-1.3-.8-4-1.2-5.4-.4-1.5.2-5.5-2.4-4-.3 2.1-1 3.2-2.6 4.6v-.4c-.3-.1-1.2-.5-1.3-.7-1.5 0-3.5-2.8-6.1-2.9-3.3-.2-4.6-1.6-7.3-2.6-1.6-.6-3.6.6-4.4.2-.3.3-.4.2-.8.2-.5-2.1-.4-4.5-.8-6.7-.3-1.6-1.9-4.6-1.9-5.9 1.1-.3 3 .2 4.3.2.7 0 2-.8 2.6-.4 2.8 2.5 2.9 2.8 6.1.8 5.5-3.4 11.4-8 11.4-15.1.3-2.9-1-2.8.2-5.3 1.7-.4 3.1-2.2 3.1-4 0-2.4 2.1-3.3 4-4.3 4.4-2.2 1.7-8.2 2.4-12.4l2.5-14.4c1-5.6 1.8-10-3.6-12.9-2.7-6.9-1.2-7.2 4.8-10.1 2.1-1 15.6-8.1 14.5-10.1-.5-1-5.3-6.2-2.8-6.8 0-.1 3.3-.4 4-.6l4.3-1.2c2-.6 4.6-4.9 5.7-1.9.8 2.2 1.8 5.2 3.5 6.7 2.6 2.4 5.8 4.2 9.5 3.5l13.5-30.6c2.3-6.5 4.9-10.6 4.9-17.7 0-5 1.9-12 3.2-16.9 1-4.1-3.1-3.5-5.7-2.7-4.7 1.4-5.8-2-9-4.2-1.8-1.2-3.5-1.4-5.5-2.2-2.5-.9-5.4-3-7.4-4.6-1.7-1.3-3.1-6.9-4.9-7.4-.1-.5-2.6-1.7-3.1-1.9-5.3-5.3-11.5-7.1-18.4-5.3-.2.3-1 1.3-1.3 1.4-.1.8-1.9 5.1-2.4 5.8-1.1 1.7-.7 5.2-.7 7.4 0 5.5-5 5.7-9 8.7-8.9 6.6-21.4 7.1-24.6 19.7-.1 0-.1 0-.2.2-1.5.4-3-.4-4.8-.1-.8-.4-2.1-.5-3-.5-1.8 1.8-4.9 4.1-6.3 5.7-4.1.5-9.8 7-12.9 9.9-4.3 3.9-6.3 7.8-9.1 12.9-1.4 2.6-3.4 7.9-5.2 9.7-5.5 0-3.5-3.9-6.8-6.7-6.2-5.4-3.9 2.6-8.7 4-1.3.4-7.4-.8-8.7-1.3-1.9-1.9-7.6-1.5-10-2.7-.1-.9-.9-3.3-1.5-4.1-1.1-1.5-.7-.9-2.6-.9-3.4 0-4.1-.5-6-3.6-3.6-5.8-14.8-4-21-6-1.7-.6-3.6-1.4-5.5-1.3l-10.5 22.8c-3.6 1.8-3.2 5.9-7.9 3.6-4.5-2.3-1.6 3-4.3 3.9v.5c1.1.3 2.5 2 3.7 2.6 1.3.6 2.7.1 1.5 2-1 1.8-6.4 6.3-6.4 7.9 2.9.7 6.1 3.4 9.5 4.2 1.2.3 8 2.4 8.4 3.3.4 0 .5.2.7.3 0 4.1-7.7 8.2-4.4 12.9 1.3 2-1 1.2-2.5 1.8-2.9 1.1-3 1.8-5.1 3.9-2.3 2.4-1 6.1-4.9 7 0 .1-.1.3-.2.3l-.5 1.2c-.2 1.5-2.9 1.8-2.9 4.6 0 1.5-.1 4.7-.6 6s-2.2 1.1-2.2 2.7c0 2 0 4.3-1.7 5.5-1.5 1-4.3 2.2-6.1 2.2-.4.5-.4 6.8-.2 7.1l9.4.5c.6 2.6-1.2 3.8-1 5.9.2 2.2 2 6 3.1 8 .8 1.4 2.3 3 2.3 4.6-2.9.7-5.2 2.1-8.6 2.2-4.1.2-7.1 1.9-11.1 2.5l-12.1 2.4-15.2-13.9c-2.5.1-4.6.3-6.6.4h0 0z" fill-rule="evenodd" fill="#e8f0d8" stroke="#2b2a29" stroke-width=".284" stroke-miterlimit="10"/><path d="M213 349.8l-4.6 17.2h-3.3l-3.4-12.7-3.1 12.7h-3.2l-4.7-17.2h3.3l3.3 12.6 3.1-12.6h3.1l3.4 12.6 3.3-12.6h2.8 0zm12.2 17.2h-2.7c-.2-.8-.4-1.6-.4-2.6-.8 1.9-2.2 2.8-4.3 2.8-1.3 0-2.3-.4-3.1-1.1s-1.2-1.7-1.2-2.8c0-2.9 2.6-4.4 7.7-4.4h.8v-1c0-1.3-.9-2-2.7-2-1.7 0-2.7.7-3 2l-2.4-.4c.1-1.1.7-1.9 1.6-2.6 1-.7 2.3-1 4.2-1a14.36 14.36 0 0 1 2.4.2c.6.2 1.1.4 1.6.8.4.4.7.8.9 1.3s.2 1.2.2 2.3v5.8c0 1 .2 1.9.4 2.7h0zm-3.2-6.4c-3.7 0-5.6.9-5.6 2.7 0 .5.2 1 .6 1.4s.9.6 1.7.6c1.1 0 1.9-.3 2.5-1s.8-1.5.8-2.4v-1.3h0zm16.8 6.4H236v-8c0-.8-.2-1.5-.6-1.9s-.9-.6-1.4-.6c-.7 0-1.4.3-2 1s-.8 1.6-.8 3v6.6h-2.9v-12.7h2.6v3c.9-2.1 2.2-3.2 3.9-3.2 1.1 0 2.1.4 2.9 1.1s1.2 1.9 1.2 3.7v8h-.1zm14 0h-2.7v-2.6c-.7 1.9-2 2.8-3.8 2.8-1.6 0-2.8-.7-3.6-2s-1.2-2.9-1.2-4.9c0-1.8.4-3.4 1.3-4.7s2.1-2 3.7-2 2.8.7 3.4 2.2v-6.2h2.9V367h0zm-2.9-7.5c0-1-.2-1.8-.7-2.4a2.32 2.32 0 0 0-1.9-.9c-.8 0-1.5.4-2 1.1s-.7 1.8-.7 3.3c0 2.8.9 4.3 2.7 4.3.7 0 1.3-.3 1.9-.9.5-.6.8-1.4.8-2.3l-.1-2.2h0zm4.7 4.6l2.7-.5c.4 1 1.3 1.6 2.7 1.6 1.8 0 2.7-.5 2.7-1.6 0-.3-.1-.6-.4-.8s-.6-.4-1-.4l-2.3-.4c-2.6-.5-3.9-1.8-3.9-3.8 0-1.1.4-2.1 1.2-2.9s2-1.2 3.6-1.2c2.7 0 4.3 1 4.9 3l-2.6.5c-.3-1-1-1.4-2.3-1.4-1.5 0-2.3.5-2.3 1.4 0 .7.6 1.1 1.9 1.4l2.7.6c2.1.4 3.2 1.7 3.2 3.7 0 1.4-.5 2.5-1.6 3.1-1.1.7-2.4 1-3.9 1-1.3 0-2.5-.3-3.5-.8-.8-.6-1.5-1.4-1.8-2.5h0zm14.6 2.9h-1.3v-17.2h2.9v6.2c.5-.9 1.1-1.6 1.6-1.9s1.2-.5 1.9-.5c1.4 0 2.6.6 3.5 1.8s1.4 2.8 1.4 4.9c0 1.9-.5 3.5-1.4 4.9-.9 1.3-2.2 2-3.9 2s-3-.8-4-2.4l-.7 2.2h0zm1.6-5.4c0 1.1.2 2 .7 2.5s1.1.8 1.9.8a2.32 2.32 0 0 0 1.9-.9c.5-.6.8-1.8.8-3.7 0-1.3-.2-2.4-.7-3.1s-1.1-1.1-2-1.1c-.8 0-1.4.3-2 .9-.5.6-.8 1.5-.8 2.6l.2 2h0zM290 363l2.6.4c-.3 1.1-1 2.1-2 2.9-1 .7-2.2 1.1-3.7 1.1-1.8 0-3.2-.6-4.3-1.8s-1.6-2.8-1.6-4.8c0-1.9.5-3.5 1.6-4.8s2.6-1.9 4.4-1.9 3.2.6 4.2 1.9c1 1.2 1.5 2.8 1.5 4.8v.3H284a10.61 10.61 0 0 0 .2 2.1c.2.5.5 1 1 1.4s1.1.6 1.8.6c1.5-.1 2.5-.8 3-2.2h0zm-.2-3.8c0-.9-.3-1.7-.8-2.2-.5-.6-1.2-.9-2-.9s-1.5.3-2 .8-.8 1.3-.9 2.3h5.7 0zm17.5 7.8h-3l-3.3-6.5-2.8 3.2v3.4h-2.8v-17.2h2.8v10.7c.2-.3.4-.6.6-.7l5-5.5h3.1l-3.8 4.2 4.2 8.4h0z" fill="#006"/></svg>